<svg xmlns="http://www.w3.org/2000/svg" xmlns:xlink="http://www.w3.org/1999/xlink" width="334" height="582" viewBox="0 0 334 582">
    <defs>
        <rect id="a" width="320" height="568" y=".579" rx="4"/>
        <filter id="b" width="106.9%" height="103.9%" x="-3.4%" y="-2.1%" filterUnits="objectBoundingBox">
            <feOffset dy="-1" in="SourceAlpha" result="shadowOffsetOuter1"/>
            <feGaussianBlur in="shadowOffsetOuter1" result="shadowBlurOuter1" stdDeviation="3.5"/>
            <feColorMatrix in="shadowBlurOuter1" values="0 0 0 0 0 0 0 0 0 0 0 0 0 0 0 0 0 0 0.15 0"/>
        </filter>
        <path id="e" d="M0 0h320v72H0z"/>
        <filter id="d" width="106.9%" height="130.6%" x="-3.4%" y="-16.7%" filterUnits="objectBoundingBox">
            <feOffset dy="-1" in="SourceAlpha" result="shadowOffsetOuter1"/>
            <feGaussianBlur in="shadowOffsetOuter1" result="shadowBlurOuter1" stdDeviation="3.5"/>
            <feColorMatrix in="shadowBlurOuter1" values="0 0 0 0 0 0 0 0 0 0 0 0 0 0 0 0 0 0 0.15 0"/>
        </filter>
    </defs>
    <g fill="none" fill-rule="evenodd">
        <g transform="translate(7 7)">
            <mask id="c" fill="#fff">
                <use xlink:href="#a"/>
            </mask>
            <use fill="#000" filter="url(#b)" xlink:href="#a"/>
            <use fill="#FFF" xlink:href="#a"/>
            <g mask="url(#c)">
                <g transform="translate(0 1)">
                    <use fill="#000" filter="url(#d)" xlink:href="#e"/>
                    <use fill="#FFF" xlink:href="#e"/>
                </g>
                <path fill="#000" fill-opacity=".7" d="M56.57 47h-2.265v-8.71H51.32v-1.954h8.235v1.953H56.57V47zm7.063.148c-2.32 0-3.844-1.343-3.844-3.875v-.882c0-2.54 1.656-3.86 3.734-3.86 2.188 0 3.711 1.469 3.711 3.86v.937h-5.289v.39c0 1.024.664 1.704 1.68 1.704.813 0 1.398-.383 1.484-.899h2.055c-.07 1.086-1.102 2.625-3.531 2.625zM61.945 42h3.172v-.07c0-1.032-.625-1.72-1.578-1.72-.953 0-1.594.688-1.594 1.72V42zm11.93 5l-1.54-2.71h-.085L70.703 47h-2.328l2.555-4.14-2.649-4.18h2.54l1.507 2.695h.094l1.547-2.695h2.414l-2.703 4.117L76.328 47h-2.453zm4.602-8.21v-2.063h2.132v2.062h1.836v1.734H80.61v3.758c0 .774.352 1.024 1.18 1.024.273 0 .57-.016.719-.032v1.672c-.164.032-.75.094-1.258.094-2.086 0-2.82-.68-2.82-2.398v-4.118h-1.266V38.79h1.313zm18.03 1.015h-2.202c-.133-1.07-.97-1.711-2.094-1.711-1.344 0-2.305.922-2.305 2.906v1.281c0 1.703.656 2.969 2.328 2.969 1.32 0 2.141-.82 2.141-1.797v-.562h-2.086v-1.696h4.234v2.094c0 1.766-1.125 3.914-4.32 3.914-3.18 0-4.578-2.133-4.578-4.914v-1.312c0-2.914 1.71-4.836 4.617-4.836 2.813 0 4.195 1.812 4.266 3.664zm5.72-1.274c2.312 0 3.835 1.508 3.835 3.875v.813c0 2.515-1.523 3.93-3.835 3.93-2.344 0-3.86-1.399-3.86-3.922v-.813c0-2.328 1.531-3.883 3.86-3.883zm0 1.742c-1.11 0-1.633 1-1.633 2.157v.812c0 1.133.484 2.164 1.633 2.164 1.14 0 1.617-1.023 1.617-2.164v-.812c0-1.164-.516-2.157-1.617-2.157zm9.304 6.875c-2.32 0-3.844-1.343-3.844-3.875v-.882c0-2.54 1.657-3.86 3.735-3.86 2.187 0 3.71 1.469 3.71 3.86v.937h-5.288v.39c0 1.024.664 1.704 1.68 1.704.812 0 1.398-.383 1.484-.899h2.055c-.07 1.086-1.102 2.625-3.532 2.625zM109.844 42h3.172v-.07c0-1.032-.625-1.72-1.579-1.72-.953 0-1.593.688-1.593 1.72V42zm6.96-.844c0-1.883 1.594-2.625 3.391-2.625 1.883 0 3.22.867 3.22 2.469h-1.938c-.055-.46-.477-.938-1.32-.938-.782 0-1.259.368-1.259.915 0 .812 1.274.921 2.165 1.07 1.53.258 2.609.86 2.609 2.36 0 1.702-1.336 2.741-3.61 2.741-2.164 0-3.421-1-3.421-2.484h2.132c.07.555.516.945 1.391.945.969 0 1.375-.422 1.375-.937 0-.758-.984-.844-2.055-1.047-1.476-.29-2.68-.844-2.68-2.469zM138.11 47h-2.265v-4.46h-4.297V47h-2.266V36.336h2.266v4.266h4.297v-4.266h2.265V47zm5.961.148c-2.32 0-3.843-1.343-3.843-3.875v-.882c0-2.54 1.656-3.86 3.734-3.86 2.187 0 3.71 1.469 3.71 3.86v.937h-5.288v.39c0 1.024.664 1.704 1.68 1.704.812 0 1.398-.383 1.484-.899h2.055c-.07 1.086-1.102 2.625-3.532 2.625zM142.383 42h3.172v-.07c0-1.032-.625-1.72-1.578-1.72-.954 0-1.594.688-1.594 1.72V42zm7.336 5v-8.32h2.203v1.312h.11c.155-.57.765-1.43 2.046-1.43.305 0 .524.024.688.063v1.969c-.164-.063-.508-.094-.844-.094-1.328 0-1.945.758-1.945 1.875V47h-2.258zm10.023.148c-2.32 0-3.844-1.343-3.844-3.875v-.882c0-2.54 1.657-3.86 3.735-3.86 2.187 0 3.71 1.469 3.71 3.86v.937h-5.288v.39c0 1.024.664 1.704 1.68 1.704.812 0 1.398-.383 1.484-.899h2.054c-.07 1.086-1.101 2.625-3.53 2.625zM158.055 42h3.172v-.07c0-1.032-.625-1.72-1.579-1.72-.953 0-1.593.688-1.593 1.72V42z"/>
                <path fill="#000" fill-opacity=".38" d="M51.516 59.861h.943c.082.803.762 1.46 2.021 1.46 1.137 0 1.881-.551 1.881-1.46 0-.68-.416-1.072-1.318-1.306l-1.436-.381c-.925-.246-1.845-.844-1.845-2.08 0-1.489 1.342-2.285 2.736-2.285 1.307 0 2.701.685 2.736 2.261h-.937c-.076-.797-.674-1.412-1.822-1.412-1.014 0-1.764.487-1.764 1.371 0 .586.357 1.026 1.13 1.225l1.407.38c1.236.335 2.068.903 2.068 2.163 0 1.576-1.33 2.373-2.953 2.373-2.086 0-2.812-1.283-2.847-2.309zm12.468-4.007V62h-.92v-1.02h-.052c-.176.504-.756 1.12-1.834 1.12-1.23 0-2.115-.534-2.115-1.952v-4.294h.92v4.042c0 1.043.626 1.39 1.406 1.39.955 0 1.675-.704 1.675-1.507v-3.925h.92zM68.9 62.1c-1.025 0-1.605-.493-1.834-1.002h-.046V62h-.874v-8.654h.92v3.48h.047c.147-.504.739-1.072 1.823-1.072 1.43 0 2.373.984 2.373 2.607v1.125c0 1.635-.961 2.614-2.409 2.614zm-.117-.815c.944 0 1.606-.639 1.606-1.998v-.685c0-1.313-.616-2.034-1.635-2.034-1.049 0-1.688.745-1.688 1.881v1.09c0 .984.692 1.746 1.717 1.746zm7.606-2.156h-3.692v-.82h3.692v.82zm2.004-3.275v-1.547h.92v1.547h1.394v.767h-1.394v3.71c0 .755.24.942 1.019.942.14 0 .38-.017.475-.029v.768a6.676 6.676 0 0 1-.71.047c-1.44 0-1.704-.575-1.704-1.776v-3.662h-.938v-.767h.938zm6.38 6.246c-1.634 0-2.578-1.06-2.578-2.672v-.996c0-1.63 1.043-2.678 2.502-2.678 1.46 0 2.502 1.049 2.502 2.678v.75h-4.078v.316c0 .996.563 1.787 1.647 1.787.75 0 1.248-.357 1.365-.738h.978c-.1.627-.838 1.553-2.338 1.553zm-1.652-3.633h3.152v-.112c0-1.078-.627-1.787-1.576-1.787-.949 0-1.576.71-1.576 1.787v.112zM92.473 62l-1.512-2.338h-.035L89.408 62H88.36l2.086-3.035-2.097-3.111h1.113l1.47 2.332h.042l1.517-2.332h1.06l-2.097 3.005L93.586 62h-1.113zm2.97-6.146v-1.547h.92v1.547h1.395v.767h-1.395v3.71c0 .755.24.942 1.02.942.14 0 .38-.017.474-.029v.768a6.676 6.676 0 0 1-.709.047c-1.441 0-1.705-.575-1.705-1.776v-3.662h-.937v-.767h.937zm8.977 7.64c1.137 0 1.7-.615 1.7-1.623v-.943h-.054c-.246.527-.879.96-1.728.96-1.365 0-2.455-.96-2.455-2.542v-1.037c0-1.582 1.084-2.555 2.449-2.555.926 0 1.588.533 1.793 1.02h.041v-.92h.873v6c0 1.681-1.043 2.455-2.66 2.455-1.547 0-2.268-.756-2.361-1.653h.96c.083.451.592.838 1.442.838zm.094-6.926c-1.06 0-1.711.797-1.711 1.957v.604c0 1.154.715 1.945 1.722 1.945 1.037 0 1.594-.855 1.594-1.74v-.99c0-.908-.592-1.776-1.605-1.776zm6.99-.814c1.482 0 2.607.973 2.607 2.684v.972c0 1.711-1.125 2.69-2.607 2.69-1.512 0-2.613-.961-2.613-2.69v-.972c0-1.647 1.125-2.684 2.613-2.684zm.006.814c-1.026 0-1.7.797-1.7 1.975v.773c0 1.207.633 1.97 1.7 1.97 1.06 0 1.681-.763 1.681-1.97v-.773c0-1.178-.65-1.975-1.681-1.975zm6.726 5.532c-1.634 0-2.578-1.06-2.578-2.672v-.996c0-1.63 1.043-2.678 2.502-2.678 1.46 0 2.502 1.049 2.502 2.678v.75h-4.078v.316c0 .996.562 1.787 1.646 1.787.75 0 1.249-.357 1.366-.738h.978c-.1.627-.838 1.553-2.338 1.553zm-1.652-3.633h3.152v-.112c0-1.078-.627-1.787-1.576-1.787-.95 0-1.576.71-1.576 1.787v.112zm5.584-.867c0-1.284 1.078-1.846 2.244-1.846 1.307 0 2.156.697 2.156 1.7h-.867c-.035-.452-.457-.933-1.33-.933-.75 0-1.3.346-1.3.979 0 .762.802.861 1.505.99 1.154.205 2.145.498 2.145 1.711 0 1.219-.985 1.899-2.403 1.899-1.312 0-2.255-.586-2.255-1.688h.902c.088.574.48.926 1.394.926 1.032 0 1.454-.463 1.454-1.026 0-.714-.674-.855-1.547-1.025-1.155-.24-2.098-.474-2.098-1.687zm9.088 4.4v-8.654h.92v3.633h.047c.123-.422.62-1.225 1.922-1.225 1.189 0 2.074.674 2.074 2.039V62h-.92v-3.902c0-.985-.545-1.53-1.43-1.53-1.125 0-1.693.891-1.693 2.004V62h-.92zm9.363.1c-1.635 0-2.578-1.06-2.578-2.672v-.996c0-1.63 1.043-2.678 2.502-2.678 1.459 0 2.502 1.049 2.502 2.678v.75h-4.078v.316c0 .996.562 1.787 1.646 1.787.75 0 1.248-.357 1.366-.738h.978c-.1.627-.838 1.553-2.338 1.553zm-1.652-3.633h3.152v-.112c0-1.078-.627-1.787-1.576-1.787-.95 0-1.576.71-1.576 1.787v.112zm6 3.533v-6.146h.92v.943h.047c.158-.404.603-1.037 1.722-1.037.112 0 .235.011.358.023v.856a3.392 3.392 0 0 0-.47-.024c-1.1 0-1.657.668-1.657 1.5V62h-.92zm6.78.1c-1.636 0-2.579-1.06-2.579-2.672v-.996c0-1.63 1.043-2.678 2.502-2.678 1.459 0 2.502 1.049 2.502 2.678v.75h-4.078v.316c0 .996.562 1.787 1.646 1.787.75 0 1.248-.357 1.365-.738h.979c-.1.627-.838 1.553-2.338 1.553zm-1.653-3.633h3.152v-.112c0-1.078-.627-1.787-1.576-1.787-.95 0-1.576.71-1.576 1.787v.112z"/>
                <path fill="#666" d="M24.85 40L16 48.52 24.719 57l2.016-2.047-6.701-6.518L27 42.091z"/>
            </g>
        </g>
        <path fill="#FFF" d="M156.9 24.693c-1.435 0-2.502-.85-2.771-2.209h1.084c.228.791.867 1.272 1.7 1.272 1.376 0 2.155-1.219 2.214-3.469h-.094c-.416.82-1.242 1.3-2.25 1.3-1.611 0-2.777-1.189-2.777-2.83 0-1.698 1.23-2.911 2.965-2.911 1.265 0 2.244.674 2.771 1.922.276.644.41 1.423.41 2.355 0 2.906-1.183 4.57-3.252 4.57zm.07-4.02c1.12 0 1.923-.796 1.923-1.915 0-1.131-.827-1.987-1.91-1.987-1.085 0-1.91.844-1.91 1.952 0 1.154.779 1.95 1.898 1.95zm5.714 2.86a.764.764 0 0 0 .761-.762.76.76 0 0 0-.761-.761.764.764 0 0 0-.762.761c0 .416.346.762.762.762zm0-4.506a.764.764 0 0 0 .761-.761.76.76 0 0 0-.761-.762.764.764 0 0 0-.762.762c0 .416.346.761.762.761zm6.586 5.473v-1.752h-4.12v-.96c.756-1.343 2.098-3.464 3.621-5.743h1.53v5.76h1.201v.943h-1.201V24.5h-1.031zm-3.041-2.76v.07h3.046v-4.787h-.07c-.867 1.26-1.969 3.006-2.976 4.717zm8.923 2.76h1.055v-8.455h-1.049l-2.25 1.617v1.113l2.15-1.558h.094V24.5zm12.592 0l-.85-2.42h-3.363l-.85 2.42h-1.107l3.117-8.455h1.043l3.118 8.455h-1.108zm-2.578-7.09l-1.324 3.774h2.742l-1.324-3.774h-.094zm6.152 7.09v-6.457h.07l2.667 6.398h.89l2.666-6.398h.07V24.5h.985v-8.455h-1.225l-2.894 6.996h-.094l-2.894-6.996h-1.225V24.5h.984z"/>
        <path fill="#DBDBDB" d="M300.494 14.5h19.512c.82 0 1.494.674 1.494 1.505v6.49c0 .837-.669 1.505-1.494 1.505h-19.512c-.82 0-1.494-.674-1.494-1.505v-6.49c0-.837.669-1.505 1.494-1.505zm21.506 3h.75c.417 0 .75.332.75.742v2.016a.748.748 0 0 1-.75.742H322v-3.5zM300.508 15c-.557 0-1.008.457-1.008 1.008v6.484c0 .557.45 1.008 1.008 1.008h19.484c.557 0 1.008-.457 1.008-1.008v-6.484c0-.557-.45-1.008-1.008-1.008h-19.484zm-.001.5h19.486c.277 0 .507.22.507.492v6.516a.497.497 0 0 1-.507.492h-19.486a.502.502 0 0 1-.507-.492v-6.516c0-.276.227-.492.507-.492zM18.25 22a2.75 2.75 0 1 1 0-5.5 2.75 2.75 0 0 1 0 5.5zm7 0a2.75 2.75 0 1 1 0-5.5 2.75 2.75 0 0 1 0 5.5zm7 0a2.75 2.75 0 1 1 0-5.5 2.75 2.75 0 0 1 0 5.5zm7 0a2.75 2.75 0 1 1 0-5.5 2.75 2.75 0 0 1 0 5.5zm7 0a2.75 2.75 0 1 1 0-5.5 2.75 2.75 0 0 1 0 5.5z"/>
    </g>
</svg>
