<svg xmlns="http://www.w3.org/2000/svg" xmlns:xlink="http://www.w3.org/1999/xlink" width="334" height="582" viewBox="0 0 334 582">
    <defs>
        <rect id="a" width="320" height="568" y=".579" rx="4"/>
        <filter id="b" width="106.9%" height="103.9%" x="-3.4%" y="-2.1%" filterUnits="objectBoundingBox">
            <feOffset dy="-1" in="SourceAlpha" result="shadowOffsetOuter1"/>
            <feGaussianBlur in="shadowOffsetOuter1" result="shadowBlurOuter1" stdDeviation="3.5"/>
            <feColorMatrix in="shadowBlurOuter1" values="0 0 0 0 0 0 0 0 0 0 0 0 0 0 0 0 0 0 0.15 0"/>
        </filter>
        <path id="e" d="M0 0h320v72H0z"/>
        <filter id="d" width="106.9%" height="130.6%" x="-3.4%" y="-16.7%" filterUnits="objectBoundingBox">
            <feOffset dy="-1" in="SourceAlpha" result="shadowOffsetOuter1"/>
            <feGaussianBlur in="shadowOffsetOuter1" result="shadowBlurOuter1" stdDeviation="3.5"/>
            <feColorMatrix in="shadowBlurOuter1" values="0 0 0 0 0 0 0 0 0 0 0 0 0 0 0 0 0 0 0.15 0"/>
        </filter>
    </defs>
    <g fill="none" fill-rule="evenodd">
        <g transform="translate(7 7)">
            <mask id="c" fill="#fff">
                <use xlink:href="#a"/>
            </mask>
            <use fill="#000" filter="url(#b)" xlink:href="#a"/>
            <use fill="#FFF" xlink:href="#a"/>
            <g mask="url(#c)">
                <g transform="translate(0 -1)">
                    <use fill="#000" filter="url(#d)" xlink:href="#e"/>
                    <use fill="#FFF" xlink:href="#e"/>
                </g>
                <path fill="#000" fill-opacity=".7" d="M56.57 51h-2.265v-8.71H51.32v-1.954h8.235v1.953H56.57V51zm7.063.148c-2.32 0-3.844-1.343-3.844-3.875v-.882c0-2.54 1.656-3.86 3.734-3.86 2.188 0 3.711 1.469 3.711 3.86v.937h-5.289v.39c0 1.024.664 1.704 1.68 1.704.813 0 1.398-.383 1.484-.899h2.055c-.07 1.086-1.102 2.625-3.531 2.625zM61.945 46h3.172v-.07c0-1.032-.625-1.72-1.578-1.72-.953 0-1.594.688-1.594 1.72V46zm11.93 5l-1.54-2.71h-.085L70.703 51h-2.328l2.555-4.14-2.649-4.18h2.54l1.507 2.695h.094l1.547-2.695h2.414l-2.703 4.117L76.328 51h-2.453zm4.602-8.21v-2.063h2.132v2.062h1.836v1.734H80.61v3.758c0 .774.352 1.024 1.18 1.024.273 0 .57-.016.719-.032v1.672c-.164.032-.75.094-1.258.094-2.086 0-2.82-.68-2.82-2.398v-4.118h-1.266V42.79h1.313zm18.03 1.015h-2.202c-.133-1.07-.97-1.711-2.094-1.711-1.344 0-2.305.922-2.305 2.906v1.281c0 1.703.656 2.969 2.328 2.969 1.32 0 2.141-.82 2.141-1.797v-.562h-2.086v-1.696h4.234v2.094c0 1.766-1.125 3.914-4.32 3.914-3.18 0-4.578-2.133-4.578-4.914v-1.312c0-2.914 1.71-4.836 4.617-4.836 2.813 0 4.195 1.812 4.266 3.664zm5.72-1.274c2.312 0 3.835 1.508 3.835 3.875v.813c0 2.515-1.523 3.93-3.835 3.93-2.344 0-3.86-1.399-3.86-3.922v-.813c0-2.328 1.531-3.883 3.86-3.883zm0 1.742c-1.11 0-1.633 1-1.633 2.157v.812c0 1.133.484 2.164 1.633 2.164 1.14 0 1.617-1.023 1.617-2.164v-.812c0-1.164-.516-2.157-1.617-2.157zm9.304 6.875c-2.32 0-3.844-1.343-3.844-3.875v-.882c0-2.54 1.657-3.86 3.735-3.86 2.187 0 3.71 1.469 3.71 3.86v.937h-5.288v.39c0 1.024.664 1.704 1.68 1.704.812 0 1.398-.383 1.484-.899h2.055c-.07 1.086-1.102 2.625-3.532 2.625zM109.844 46h3.172v-.07c0-1.032-.625-1.72-1.579-1.72-.953 0-1.593.688-1.593 1.72V46zm6.96-.844c0-1.883 1.594-2.625 3.391-2.625 1.883 0 3.22.867 3.22 2.469h-1.938c-.055-.46-.477-.938-1.32-.938-.782 0-1.259.368-1.259.915 0 .812 1.274.921 2.165 1.07 1.53.258 2.609.86 2.609 2.36 0 1.702-1.336 2.741-3.61 2.741-2.164 0-3.421-1-3.421-2.484h2.132c.07.555.516.945 1.391.945.969 0 1.375-.422 1.375-.937 0-.758-.984-.844-2.055-1.047-1.476-.29-2.68-.844-2.68-2.469zM138.11 51h-2.265v-4.46h-4.297V51h-2.266V40.336h2.266v4.266h4.297v-4.266h2.265V51zm5.961.148c-2.32 0-3.843-1.343-3.843-3.875v-.882c0-2.54 1.656-3.86 3.734-3.86 2.187 0 3.71 1.469 3.71 3.86v.937h-5.288v.39c0 1.024.664 1.704 1.68 1.704.812 0 1.398-.383 1.484-.899h2.055c-.07 1.086-1.102 2.625-3.532 2.625zM142.383 46h3.172v-.07c0-1.032-.625-1.72-1.578-1.72-.954 0-1.594.688-1.594 1.72V46zm7.336 5v-8.32h2.203v1.312h.11c.155-.57.765-1.43 2.046-1.43.305 0 .524.024.688.063v1.969c-.164-.063-.508-.094-.844-.094-1.328 0-1.945.758-1.945 1.875V51h-2.258zm10.023.148c-2.32 0-3.844-1.343-3.844-3.875v-.882c0-2.54 1.657-3.86 3.735-3.86 2.187 0 3.71 1.469 3.71 3.86v.937h-5.288v.39c0 1.024.664 1.704 1.68 1.704.812 0 1.398-.383 1.484-.899h2.054c-.07 1.086-1.101 2.625-3.53 2.625zM158.055 46h3.172v-.07c0-1.032-.625-1.72-1.579-1.72-.953 0-1.593.688-1.593 1.72V46z"/>
                <path fill="#666" d="M24.85 38L16 46.52 24.719 55l2.016-2.047-6.701-6.518L27 40.091z"/>
            </g>
        </g>
        <path fill="#FFF" d="M155.9 23.693c-1.435 0-2.502-.85-2.771-2.209h1.084c.228.791.867 1.272 1.7 1.272 1.376 0 2.155-1.219 2.214-3.469h-.094c-.416.82-1.242 1.3-2.25 1.3-1.611 0-2.777-1.189-2.777-2.83 0-1.698 1.23-2.911 2.965-2.911 1.265 0 2.244.674 2.771 1.922.276.644.41 1.423.41 2.355 0 2.906-1.183 4.57-3.252 4.57zm.07-4.02c1.12 0 1.923-.796 1.923-1.915 0-1.131-.827-1.987-1.91-1.987-1.085 0-1.91.844-1.91 1.952 0 1.154.779 1.95 1.898 1.95zm5.714 2.86a.764.764 0 0 0 .761-.762.76.76 0 0 0-.761-.761.764.764 0 0 0-.762.761c0 .416.346.762.762.762zm0-4.506a.764.764 0 0 0 .761-.761.76.76 0 0 0-.761-.762.764.764 0 0 0-.762.762c0 .416.346.761.762.761zm6.586 5.473v-1.752h-4.12v-.96c.756-1.343 2.098-3.464 3.621-5.743h1.53v5.76h1.201v.943h-1.201V23.5h-1.031zm-3.041-2.76v.07h3.046v-4.787h-.07c-.867 1.26-1.969 3.006-2.976 4.717zm8.923 2.76h1.055v-8.455h-1.049l-2.25 1.617v1.113l2.15-1.558h.094V23.5zm12.592 0l-.85-2.42h-3.363l-.85 2.42h-1.107l3.117-8.455h1.043l3.118 8.455h-1.108zm-2.578-7.09l-1.324 3.774h2.742l-1.324-3.774h-.094zm6.152 7.09v-6.457h.07l2.667 6.398h.89l2.666-6.398h.07V23.5h.985v-8.455h-1.225l-2.894 6.996h-.094l-2.894-6.996h-1.225V23.5h.984z"/>
        <path fill="#DBDBDB" d="M299.494 13.5h19.512c.82 0 1.494.674 1.494 1.505v6.49c0 .837-.669 1.505-1.494 1.505h-19.512c-.82 0-1.494-.674-1.494-1.505v-6.49c0-.837.669-1.505 1.494-1.505zm21.506 3h.75c.417 0 .75.332.75.742v2.016a.748.748 0 0 1-.75.742H321v-3.5zM299.508 14c-.557 0-1.008.457-1.008 1.008v6.484c0 .557.45 1.008 1.008 1.008h19.484c.557 0 1.008-.457 1.008-1.008v-6.484c0-.557-.45-1.008-1.008-1.008h-19.484zm-.001.5h19.486c.277 0 .507.22.507.492v6.516a.497.497 0 0 1-.507.492h-19.486a.502.502 0 0 1-.507-.492v-6.516c0-.276.227-.492.507-.492zM17.25 21a2.75 2.75 0 1 1 0-5.5 2.75 2.75 0 0 1 0 5.5zm7 0a2.75 2.75 0 1 1 0-5.5 2.75 2.75 0 0 1 0 5.5zm7 0a2.75 2.75 0 1 1 0-5.5 2.75 2.75 0 0 1 0 5.5zm7 0a2.75 2.75 0 1 1 0-5.5 2.75 2.75 0 0 1 0 5.5zm7 0a2.75 2.75 0 1 1 0-5.5 2.75 2.75 0 0 1 0 5.5z"/>
    </g>
</svg>
