<?xml version="1.0" encoding="UTF-8"?>
<svg width="458px" height="290px" viewBox="0 0 458 290" version="1.1" xmlns="http://www.w3.org/2000/svg" xmlns:xlink="http://www.w3.org/1999/xlink">
    <!-- Generator: Sketch 48.1 (47250) - http://www.bohemiancoding.com/sketch -->
    <title>Img</title>
    <desc>Created with Sketch.</desc>
    <defs>
        <rect id="path-1" x="0" y="0" width="320" height="72"></rect>
        <filter x="-3.4%" y="-16.7%" width="106.9%" height="130.6%" filterUnits="objectBoundingBox" id="filter-2">
            <feOffset dx="0" dy="-1" in="SourceAlpha" result="shadowOffsetOuter1"></feOffset>
            <feGaussianBlur stdDeviation="3.5" in="shadowOffsetOuter1" result="shadowBlurOuter1"></feGaussianBlur>
            <feColorMatrix values="0 0 0 0 0   0 0 0 0 0   0 0 0 0 0  0 0 0 0.15 0" type="matrix" in="shadowBlurOuter1"></feColorMatrix>
        </filter>
        <rect id="path-3" x="0" y="0" width="320" height="72"></rect>
        <filter x="-3.4%" y="-16.7%" width="106.9%" height="130.6%" filterUnits="objectBoundingBox" id="filter-4">
            <feOffset dx="0" dy="-1" in="SourceAlpha" result="shadowOffsetOuter1"></feOffset>
            <feGaussianBlur stdDeviation="3.5" in="shadowOffsetOuter1" result="shadowBlurOuter1"></feGaussianBlur>
            <feColorMatrix values="0 0 0 0 0   0 0 0 0 0   0 0 0 0 0  0 0 0 0.15 0" type="matrix" in="shadowBlurOuter1"></feColorMatrix>
        </filter>
    </defs>
    <g id="CEKUNIFY-Website---Detail---Bottom-Navigation-Copy" stroke="none" stroke-width="1" fill="none" fill-rule="evenodd" transform="translate(-1072.000000, -566.000000)">
        <g id="Content" transform="translate(322.000000, 208.000000)">
            <g id="intro-1" transform="translate(64.000000, 309.000000)">
                <g id="Img" transform="translate(686.000000, 49.000000)">
                    <rect id="Rectangle-7" fill="#F8F8F8" x="0" y="0" width="458" height="290" rx="4"></rect>
                    <g id="Navigation-Bar/iOS/Single-Line-Copy" transform="translate(69.000000, 53.000000)">
                        <g id="Header-nav">
                            <g id="Rectangle-2">
                                <use fill="black" fill-opacity="1" filter="url(#filter-2)" xlink:href="#path-1"></use>
                                <use fill="#FFFFFF" fill-rule="evenodd" xlink:href="#path-1"></use>
                            </g>
                            <g id="Icon/iOS/Back-Button" transform="translate(16.000000, 39.000000)" fill="#DBDBDB">
                                <polygon id="Page-1" points="8.85 0 0 8.52091081 8.719 17 10.735 14.9526861 4.034 8.43532239 11 2.09108073"></polygon>
                            </g>
                            <g id="Status-Bar/White/100%" transform="translate(6.000000, 5.000000)">
                                <path d="M141.900391,10.6933594 C140.464844,10.6933594 139.398438,9.84375 139.128906,8.484375 L140.212891,8.484375 C140.441406,9.27539062 141.080078,9.75585938 141.912109,9.75585938 C143.289062,9.75585938 144.068359,8.53710938 144.126953,6.28710938 L144.033203,6.28710938 C143.617188,7.10742188 142.791016,7.58789062 141.783203,7.58789062 C140.171875,7.58789062 139.005859,6.3984375 139.005859,4.7578125 C139.005859,3.05859375 140.236328,1.84570312 141.970703,1.84570312 C143.236328,1.84570312 144.214844,2.51953125 144.742188,3.76757812 C145.017578,4.41210938 145.152344,5.19140625 145.152344,6.12304688 C145.152344,9.02929688 143.96875,10.6933594 141.900391,10.6933594 Z M141.970703,6.67382812 C143.089844,6.67382812 143.892578,5.87695312 143.892578,4.7578125 C143.892578,3.62695312 143.066406,2.77148438 141.982422,2.77148438 C140.898438,2.77148438 140.072266,3.61523438 140.072266,4.72265625 C140.072266,5.87695312 140.851562,6.67382812 141.970703,6.67382812 Z M147.683594,9.53320312 C148.105469,9.53320312 148.445312,9.1875 148.445312,8.77148438 C148.445312,8.34960938 148.105469,8.00976562 147.683594,8.00976562 C147.267578,8.00976562 146.921875,8.34960938 146.921875,8.77148438 C146.921875,9.1875 147.267578,9.53320312 147.683594,9.53320312 Z M147.683594,5.02734375 C148.105469,5.02734375 148.445312,4.68164062 148.445312,4.265625 C148.445312,3.84375 148.105469,3.50390625 147.683594,3.50390625 C147.267578,3.50390625 146.921875,3.84375 146.921875,4.265625 C146.921875,4.68164062 147.267578,5.02734375 147.683594,5.02734375 Z M154.269531,10.5 L154.269531,8.74804688 L150.150391,8.74804688 L150.150391,7.78710938 C150.90625,6.4453125 152.248047,4.32421875 153.771484,2.04492188 L155.300781,2.04492188 L155.300781,7.8046875 L156.501953,7.8046875 L156.501953,8.74804688 L155.300781,8.74804688 L155.300781,10.5 L154.269531,10.5 Z M151.228516,7.74023438 L151.228516,7.81054688 L154.275391,7.81054688 L154.275391,3.0234375 L154.205078,3.0234375 C153.337891,4.28320312 152.236328,6.02929688 151.228516,7.74023438 Z M160.152344,10.5 L161.207031,10.5 L161.207031,2.04492188 L160.158203,2.04492188 L157.908203,3.66210938 L157.908203,4.77539062 L160.058594,3.21679688 L160.152344,3.21679688 L160.152344,10.5 Z M172.744141,10.5 L171.894531,8.08007812 L168.53125,8.08007812 L167.681641,10.5 L166.574219,10.5 L169.691406,2.04492188 L170.734375,2.04492188 L173.851562,10.5 L172.744141,10.5 Z M170.166016,3.41015625 L168.841797,7.18359375 L171.583984,7.18359375 L170.259766,3.41015625 L170.166016,3.41015625 Z M176.318359,10.5 L176.318359,4.04296875 L176.388672,4.04296875 L179.054688,10.4414062 L179.945312,10.4414062 L182.611328,4.04296875 L182.681641,4.04296875 L182.681641,10.5 L183.666016,10.5 L183.666016,2.04492188 L182.441406,2.04492188 L179.546875,9.04101562 L179.453125,9.04101562 L176.558594,2.04492188 L175.333984,2.04492188 L175.333984,10.5 L176.318359,10.5 Z" id="9:41-AM" fill="#FFFFFF"></path>
                                <g id="Pin-Right" transform="translate(251.000000, 0.000000)" fill="#DBDBDB">
                                    <path d="M34.4937128,0.5 L54.0062872,0.5 C54.8266197,0.5 55.5,1.17394722 55.5,2.00530324 L55.5,8.49469676 C55.5,9.33197845 54.831242,10 54.0062872,10 L34.4937128,10 C33.6733803,10 33,9.32605278 33,8.49469676 L33,2.00530324 C33,1.16802155 33.668758,0.5 34.4937128,0.5 Z M56,3.5 L56.75,3.5 C57.1671014,3.5 57.5,3.83232111 57.5,4.24225998 L57.5,6.25774002 C57.5,6.66440529 57.1642136,7 56.75,7 L56,7 L56,3.5 Z M34.5081524,1 C33.9513652,1 33.5,1.45699692 33.5,2.00844055 L33.5,8.49155945 C33.5,9.04850578 33.9490581,9.5 34.5081524,9.5 L53.9918476,9.5 C54.5486348,9.5 55,9.04300308 55,8.49155945 L55,2.00844055 C55,1.45149422 54.5509419,1 53.9918476,1 L34.5081524,1 Z M34.5067444,1.5 L53.9932556,1.5 C54.2697754,1.5 54.5,1.72031886 54.5,1.99209595 L54.5,8.50790405 C54.5,8.78362799 54.2731228,9 53.9932556,9 L34.5067444,9 C34.2302246,9 34,8.77968114 34,8.50790405 L34,1.99209595 C34,1.71637201 34.2268772,1.5 34.5067444,1.5 Z" id="Battery"></path>
                                </g>
                                <g id="Signal" fill="#DBDBDB">
                                    <path d="M3.25,8 C1.73121694,8 0.5,6.76878306 0.5,5.25 C0.5,3.73121694 1.73121694,2.5 3.25,2.5 C4.76878306,2.5 6,3.73121694 6,5.25 C6,6.76878306 4.76878306,8 3.25,8 Z M10.25,8 C8.73121694,8 7.5,6.76878306 7.5,5.25 C7.5,3.73121694 8.73121694,2.5 10.25,2.5 C11.7687831,2.5 13,3.73121694 13,5.25 C13,6.76878306 11.7687831,8 10.25,8 Z M17.25,8 C15.7312169,8 14.5,6.76878306 14.5,5.25 C14.5,3.73121694 15.7312169,2.5 17.25,2.5 C18.7687831,2.5 20,3.73121694 20,5.25 C20,6.76878306 18.7687831,8 17.25,8 Z M24.25,8 C22.7312169,8 21.5,6.76878306 21.5,5.25 C21.5,3.73121694 22.7312169,2.5 24.25,2.5 C25.7687831,2.5 27,3.73121694 27,5.25 C27,6.76878306 25.7687831,8 24.25,8 Z M31.25,8 C29.7312169,8 28.5,6.76878306 28.5,5.25 C28.5,3.73121694 29.7312169,2.5 31.25,2.5 C32.7687831,2.5 34,3.73121694 34,5.25 C34,6.76878306 32.7687831,8 31.25,8 Z" id="Mobile-Signal"></path>
                                </g>
                            </g>
                        </g>
                        <rect id="Rectangle-8-Copy" fill="#DBDBDB" x="52.433518" y="43.2507278" width="132" height="6" rx="3"></rect>
                    </g>
                    <g id="Navigation-Bar/iOS/Single-Line-Copy" transform="translate(69.000000, 165.000000)">
                        <g id="Header-nav">
                            <g id="Rectangle-2">
                                <use fill="black" fill-opacity="1" filter="url(#filter-4)" xlink:href="#path-3"></use>
                                <use fill="#FFFFFF" fill-rule="evenodd" xlink:href="#path-3"></use>
                            </g>
                            <rect id="Rectangle-8" stroke="#42B549" stroke-width="2" x="282" y="34" width="21" height="21" rx="4"></rect>
                            <rect id="Rectangle-8" stroke="#42B549" stroke-width="2" x="251" y="34" width="21" height="21" rx="4"></rect>
                            <g id="Icon/iOS/Back-Button" transform="translate(16.000000, 39.000000)" fill="#DBDBDB">
                                <polygon id="Page-1" points="8.85 0 0 8.52091081 8.719 17 10.735 14.9526861 4.034 8.43532239 11 2.09108073"></polygon>
                            </g>
                            <g id="Status-Bar/White/100%" transform="translate(6.000000, 5.000000)">
                                <path d="M141.900391,10.6933594 C140.464844,10.6933594 139.398438,9.84375 139.128906,8.484375 L140.212891,8.484375 C140.441406,9.27539062 141.080078,9.75585938 141.912109,9.75585938 C143.289062,9.75585938 144.068359,8.53710938 144.126953,6.28710938 L144.033203,6.28710938 C143.617188,7.10742188 142.791016,7.58789062 141.783203,7.58789062 C140.171875,7.58789062 139.005859,6.3984375 139.005859,4.7578125 C139.005859,3.05859375 140.236328,1.84570312 141.970703,1.84570312 C143.236328,1.84570312 144.214844,2.51953125 144.742188,3.76757812 C145.017578,4.41210938 145.152344,5.19140625 145.152344,6.12304688 C145.152344,9.02929688 143.96875,10.6933594 141.900391,10.6933594 Z M141.970703,6.67382812 C143.089844,6.67382812 143.892578,5.87695312 143.892578,4.7578125 C143.892578,3.62695312 143.066406,2.77148438 141.982422,2.77148438 C140.898438,2.77148438 140.072266,3.61523438 140.072266,4.72265625 C140.072266,5.87695312 140.851562,6.67382812 141.970703,6.67382812 Z M147.683594,9.53320312 C148.105469,9.53320312 148.445312,9.1875 148.445312,8.77148438 C148.445312,8.34960938 148.105469,8.00976562 147.683594,8.00976562 C147.267578,8.00976562 146.921875,8.34960938 146.921875,8.77148438 C146.921875,9.1875 147.267578,9.53320312 147.683594,9.53320312 Z M147.683594,5.02734375 C148.105469,5.02734375 148.445312,4.68164062 148.445312,4.265625 C148.445312,3.84375 148.105469,3.50390625 147.683594,3.50390625 C147.267578,3.50390625 146.921875,3.84375 146.921875,4.265625 C146.921875,4.68164062 147.267578,5.02734375 147.683594,5.02734375 Z M154.269531,10.5 L154.269531,8.74804688 L150.150391,8.74804688 L150.150391,7.78710938 C150.90625,6.4453125 152.248047,4.32421875 153.771484,2.04492188 L155.300781,2.04492188 L155.300781,7.8046875 L156.501953,7.8046875 L156.501953,8.74804688 L155.300781,8.74804688 L155.300781,10.5 L154.269531,10.5 Z M151.228516,7.74023438 L151.228516,7.81054688 L154.275391,7.81054688 L154.275391,3.0234375 L154.205078,3.0234375 C153.337891,4.28320312 152.236328,6.02929688 151.228516,7.74023438 Z M160.152344,10.5 L161.207031,10.5 L161.207031,2.04492188 L160.158203,2.04492188 L157.908203,3.66210938 L157.908203,4.77539062 L160.058594,3.21679688 L160.152344,3.21679688 L160.152344,10.5 Z M172.744141,10.5 L171.894531,8.08007812 L168.53125,8.08007812 L167.681641,10.5 L166.574219,10.5 L169.691406,2.04492188 L170.734375,2.04492188 L173.851562,10.5 L172.744141,10.5 Z M170.166016,3.41015625 L168.841797,7.18359375 L171.583984,7.18359375 L170.259766,3.41015625 L170.166016,3.41015625 Z M176.318359,10.5 L176.318359,4.04296875 L176.388672,4.04296875 L179.054688,10.4414062 L179.945312,10.4414062 L182.611328,4.04296875 L182.681641,4.04296875 L182.681641,10.5 L183.666016,10.5 L183.666016,2.04492188 L182.441406,2.04492188 L179.546875,9.04101562 L179.453125,9.04101562 L176.558594,2.04492188 L175.333984,2.04492188 L175.333984,10.5 L176.318359,10.5 Z" id="9:41-AM" fill="#FFFFFF"></path>
                                <g id="Pin-Right" transform="translate(251.000000, 0.000000)" fill="#DBDBDB">
                                    <path d="M34.4937128,0.5 L54.0062872,0.5 C54.8266197,0.5 55.5,1.17394722 55.5,2.00530324 L55.5,8.49469676 C55.5,9.33197845 54.831242,10 54.0062872,10 L34.4937128,10 C33.6733803,10 33,9.32605278 33,8.49469676 L33,2.00530324 C33,1.16802155 33.668758,0.5 34.4937128,0.5 Z M56,3.5 L56.75,3.5 C57.1671014,3.5 57.5,3.83232111 57.5,4.24225998 L57.5,6.25774002 C57.5,6.66440529 57.1642136,7 56.75,7 L56,7 L56,3.5 Z M34.5081524,1 C33.9513652,1 33.5,1.45699692 33.5,2.00844055 L33.5,8.49155945 C33.5,9.04850578 33.9490581,9.5 34.5081524,9.5 L53.9918476,9.5 C54.5486348,9.5 55,9.04300308 55,8.49155945 L55,2.00844055 C55,1.45149422 54.5509419,1 53.9918476,1 L34.5081524,1 Z M34.5067444,1.5 L53.9932556,1.5 C54.2697754,1.5 54.5,1.72031886 54.5,1.99209595 L54.5,8.50790405 C54.5,8.78362799 54.2731228,9 53.9932556,9 L34.5067444,9 C34.2302246,9 34,8.77968114 34,8.50790405 L34,1.99209595 C34,1.71637201 34.2268772,1.5 34.5067444,1.5 Z" id="Battery"></path>
                                </g>
                                <g id="Signal" fill="#DBDBDB">
                                    <path d="M3.25,8 C1.73121694,8 0.5,6.76878306 0.5,5.25 C0.5,3.73121694 1.73121694,2.5 3.25,2.5 C4.76878306,2.5 6,3.73121694 6,5.25 C6,6.76878306 4.76878306,8 3.25,8 Z M10.25,8 C8.73121694,8 7.5,6.76878306 7.5,5.25 C7.5,3.73121694 8.73121694,2.5 10.25,2.5 C11.7687831,2.5 13,3.73121694 13,5.25 C13,6.76878306 11.7687831,8 10.25,8 Z M17.25,8 C15.7312169,8 14.5,6.76878306 14.5,5.25 C14.5,3.73121694 15.7312169,2.5 17.25,2.5 C18.7687831,2.5 20,3.73121694 20,5.25 C20,6.76878306 18.7687831,8 17.25,8 Z M24.25,8 C22.7312169,8 21.5,6.76878306 21.5,5.25 C21.5,3.73121694 22.7312169,2.5 24.25,2.5 C25.7687831,2.5 27,3.73121694 27,5.25 C27,6.76878306 25.7687831,8 24.25,8 Z M31.25,8 C29.7312169,8 28.5,6.76878306 28.5,5.25 C28.5,3.73121694 29.7312169,2.5 31.25,2.5 C32.7687831,2.5 34,3.73121694 34,5.25 C34,6.76878306 32.7687831,8 31.25,8 Z" id="Mobile-Signal"></path>
                                </g>
                            </g>
                        </g>
                        <rect id="Rectangle-8-Copy" fill="#DBDBDB" x="52" y="43" width="132" height="6" rx="3"></rect>
                    </g>
                </g>
            </g>
        </g>
    </g>
</svg>