<?xml version="1.0" encoding="UTF-8"?>
<svg width="21px" height="8px" viewBox="0 0 21 8" version="1.1" xmlns="http://www.w3.org/2000/svg" xmlns:xlink="http://www.w3.org/1999/xlink">
    <!-- Generator: Sketch 48.1 (47250) - http://www.bohemiancoding.com/sketch -->
    <title>icon</title>
    <desc>Created with Sketch.</desc>
    <defs></defs>
    <g id="Bottom-Navigation" stroke="none" stroke-width="1" fill="none" fill-rule="evenodd" transform="translate(-277.000000, -531.000000)">
        <g transform="translate(-1.000000, 511.000000)" id="lainnya">
            <g transform="translate(257.000000, 1.000000)">
                <g id="icon" transform="translate(22.000000, 20.000000)">
                    <path d="M5,3.00029146 C5,4.65695133 3.880307,6 2.49975712,6 C1.11920723,6 0,4.65695133 0,3.00029146 C0,1.34304867 1.11920723,0 2.49975712,0 C3.880307,0 5,1.34304867 5,3.00029146" id="Fill-1"></path>
                    <path d="M10,0 C8.34350107,0 7,1.3429182 7,3 C7,4.6570818 8.34350107,6 10,6 L10,0 Z" id="Fill-3" fill="#CEF4CF"></path>
                    <path d="M3,0 C1.34350107,0 0,1.3429182 0,3 C0,4.6570818 1.34350107,6 3,6 L3,0 Z" id="Fill-3" fill="#CEF4CF"></path>
                    <path d="M17,0 C15.3435011,0 14,1.3429182 14,3 C14,4.6570818 15.3435011,6 17,6 L17,0 Z" id="Fill-3" fill="#CEF4CF"></path>
                    <path d="M5,3.00029146 C5,4.65695133 3.880307,6 2.49975712,6 C1.11920723,6 0,4.65695133 0,3.00029146 C0,1.34304867 1.11920723,0 2.49975712,0 C3.880307,0 5,1.34304867 5,3.00029146 L5,3.00029146 Z" id="Stroke-5" stroke="#42B549" stroke-linecap="round" stroke-linejoin="round"></path>
                    <path d="M12,3.00029146 C12,4.65695133 10.8805245,6 9.50024284,6 C8.11996115,6 7,4.65695133 7,3.00029146 C7,1.34304867 8.11996115,0 9.50024284,0 C10.8805245,0 12,1.34304867 12,3.00029146 L12,3.00029146 Z" id="Stroke-7" stroke="#42B549" stroke-linecap="round" stroke-linejoin="round"></path>
                    <path d="M19,3.00029146 C19,4.65695133 17.8805245,6 16.5002428,6 C15.1199611,6 14,4.65695133 14,3.00029146 C14,1.34304867 15.1199611,0 16.5002428,0 C17.8805245,0 19,1.34304867 19,3.00029146 L19,3.00029146 Z" id="Stroke-9" stroke="#42B549" stroke-linecap="round" stroke-linejoin="round"></path>
                </g>
            </g>
        </g>
    </g>
</svg>