<?xml version="1.0" encoding="UTF-8"?>
<svg width="22px" height="22px" viewBox="0 0 22 22" version="1.1" xmlns="http://www.w3.org/2000/svg" xmlns:xlink="http://www.w3.org/1999/xlink">
    <!-- Generator: Sketch 48.1 (47250) - http://www.bohemiancoding.com/sketch -->
    <title>Icon Home</title>
    <desc>Created with Sketch.</desc>
    <defs></defs>
    <g id="Bottom-Navigation" stroke="none" stroke-width="1" fill="none" fill-rule="evenodd" transform="translate(-22.000000, -519.000000)">
        <g transform="translate(-1.000000, 511.000000)" id="home">
            <g transform="translate(2.000000, 1.000000)">
                <g id="Icon-Home" transform="translate(22.000000, 8.000000)">
                    <path d="M10.192,2.69588235 L2.06847059,9.59058824 C1.62023529,9.97058824 0.938470588,9.92058824 0.553176471,9.47882353 C0.167294118,9.03705882 0.218470588,8.36470588 0.666705882,7.98411765 L9.42670588,0.549411765 C9.63729412,0.370588235 9.89905882,0.287058824 10.1578824,0.294705882 L10.192,2.69588235 Z" id="Fill-1" fill="#EAEAEA"></path>
                    <path d="M10.1954118,11.3007647 L9.59894118,11.3007647 C8.38952941,11.3007647 7.40364706,12.3148824 7.40364706,13.5619412 L7.40364706,19.7637059 L10.1954118,19.7637059 L10.1954118,11.3007647 Z" id="Fill-3" fill="#EAEAEA"></path>
                    <path d="M13.3944118,19.7638824 L13.3944118,13.5621176 C13.3944118,12.3150588 12.4120588,11.3009412 11.2008824,11.3009412 L9.59911765,11.3009412 C8.38970588,11.3009412 7.40323529,12.3150588 7.40323529,13.5621176 L7.40323529,19.7638824" id="Stroke-5" stroke="#666666" stroke-width="0.75" stroke-linecap="round" stroke-linejoin="round"></path>
                    <path d="M10.192,2.69588235 L2.06847059,9.59058824 C1.62023529,9.97058824 0.938470588,9.92058824 0.553176471,9.47882353 C0.167294118,9.03705882 0.218470588,8.36470588 0.666705882,7.98411765 L9.42670588,0.549411765 C9.63729412,0.370588235 9.89905882,0.287058824 10.1578824,0.294705882 C10.4090588,0.287058824 10.6637647,0.368823529 10.8684706,0.542941176 L19.3437647,7.76647059 C19.7796471,8.13705882 19.8290588,8.79411765 19.4543529,9.22470588 C19.0796471,9.65647059 18.4167059,9.70529412 17.9814118,9.33411765 L10.192,2.69588235 L10.192,2.69588235 Z" id="Stroke-7" stroke="#666666" stroke-linecap="round" stroke-linejoin="round"></path>
                    <path d="M2.83823529,9.00882353 L2.83823529,17.0011765 C2.83823529,18.6082353 4.14294118,19.9152941 5.75176471,19.9152941 L14.6376471,19.9152941 C16.2435294,19.9152941 17.5529412,18.6082353 17.5529412,17.0011765 L17.5529412,9.00882353" id="Stroke-9" stroke="#666666" stroke-linecap="round" stroke-linejoin="round"></path>
                </g>
            </g>
        </g>
    </g>
</svg>