<?xml version="1.0" encoding="UTF-8"?>
<svg width="330px" height="576px" viewBox="0 0 330 576" version="1.1" xmlns="http://www.w3.org/2000/svg" xmlns:xlink="http://www.w3.org/1999/xlink">
    <!-- Generator: Sketch 48.1 (47250) - http://www.bohemiancoding.com/sketch -->
    <title>Group</title>
    <desc>Created with Sketch.</desc>
    <defs>
        <filter x="-2.0%" y="-1.0%" width="104.0%" height="102.3%" filterUnits="objectBoundingBox" id="filter-1">
            <feOffset dx="0" dy="1" in="SourceAlpha" result="shadowOffsetOuter1"></feOffset>
            <feGaussianBlur stdDeviation="2" in="shadowOffsetOuter1" result="shadowBlurOuter1"></feGaussianBlur>
            <feColorMatrix values="0 0 0 0 0   0 0 0 0 0   0 0 0 0 0  0 0 0 0.12 0" type="matrix" in="shadowBlurOuter1" result="shadowMatrixOuter1"></feColorMatrix>
            <feMerge>
                <feMergeNode in="shadowMatrixOuter1"></feMergeNode>
                <feMergeNode in="SourceGraphic"></feMergeNode>
            </feMerge>
        </filter>
    </defs>
    <g id="CEKUNIFY-Website---Detail---Bottom-Navigation" stroke="none" stroke-width="1" fill="none" fill-rule="evenodd" transform="translate(-382.000000, -978.000000)">
        <g id="Group" filter="url(#filter-1)" transform="translate(386.000000, 981.000000)">
            <rect id="Rectangle-14" fill="#FFFFFF" x="1" y="0" width="320" height="568"></rect>
            <g id="Bottom-Navigation" transform="translate(0.000000, 511.000000)">
                <g id="background-bottom-nav">
                    <rect id="Rectangle" fill-opacity="0.720000029" fill="#F9F9F9" x="1" y="1" width="320" height="56"></rect>
                    <path d="M0.5,1.5 L322.71887,1.5" id="Line-2" stroke="#E0E0E0" stroke-linecap="square"></path>
                </g>
                <g id="lainnya" transform="translate(257.000000, 1.000000)">
                    <rect id="Rectangle-Copy" x="0" y="0" width="64" height="56"></rect>
                    <text id="Lainnya" font-family="SanFranciscoText-Medium, San Francisco Text" font-size="11" font-weight="400" line-spacing="14" fill="#42B549">
                        <tspan x="12.4953613" y="44">Lainnya</tspan>
                    </text>
                    <g id="icon" transform="translate(22.000000, 20.000000)">
                        <path d="M5.53507692,3.08034545 C5.53507692,4.63052727 4.35302564,5.88725455 2.89558974,5.88725455 C1.43815385,5.88725455 0.256615385,4.63052727 0.256615385,3.08034545 C0.256615385,1.52961818 1.43815385,0.272890909 2.89558974,0.272890909 C4.35302564,0.272890909 5.53507692,1.52961818 5.53507692,3.08034545" id="Fill-1"></path>
                        <path d="M9.99994872,0.272727273 C8.54251282,0.272727273 7.36046154,1.52945455 7.36046154,3.08018182 C7.36046154,4.63090909 8.54251282,5.88763636 9.99994872,5.88763636 L9.99994872,0.272727273 Z" id="Fill-3" fill="#CEF4CF"></path>
                        <path d="M2.99994872,0.272727273 C1.54251282,0.272727273 0.360461538,1.52945455 0.360461538,3.08018182 C0.360461538,4.63090909 1.54251282,5.88763636 2.99994872,5.88763636 L2.99994872,0.272727273 Z" id="Fill-3" fill="#CEF4CF"></path>
                        <path d="M16.9999487,0.272727273 C15.5425128,0.272727273 14.3604615,1.52945455 14.3604615,3.08018182 C14.3604615,4.63090909 15.5425128,5.88763636 16.9999487,5.88763636 L16.9999487,0.272727273 Z" id="Fill-3" fill="#CEF4CF"></path>
                        <path d="M5.53507692,3.08034545 C5.53507692,4.63052727 4.35302564,5.88725455 2.89558974,5.88725455 C1.43815385,5.88725455 0.256615385,4.63052727 0.256615385,3.08034545 C0.256615385,1.52961818 1.43815385,0.272890909 2.89558974,0.272890909 C4.35302564,0.272890909 5.53507692,1.52961818 5.53507692,3.08034545 L5.53507692,3.08034545 Z" id="Stroke-5" stroke="#42B549" stroke-linecap="round" stroke-linejoin="round"></path>
                        <path d="M12.6395897,3.08034545 C12.6395897,4.63052727 11.4575385,5.88725455 10.0001026,5.88725455 C8.54266667,5.88725455 7.36010256,4.63052727 7.36010256,3.08034545 C7.36010256,1.52961818 8.54266667,0.272890909 10.0001026,0.272890909 C11.4575385,0.272890909 12.6395897,1.52961818 12.6395897,3.08034545 L12.6395897,3.08034545 Z" id="Stroke-7" stroke="#42B549" stroke-linecap="round" stroke-linejoin="round"></path>
                        <path d="M19.7438462,3.08034545 C19.7438462,4.63052727 18.5617949,5.88725455 17.104359,5.88725455 C15.6469231,5.88725455 14.464359,4.63052727 14.464359,3.08034545 C14.464359,1.52961818 15.6469231,0.272890909 17.104359,0.272890909 C18.5617949,0.272890909 19.7438462,1.52961818 19.7438462,3.08034545 L19.7438462,3.08034545 Z" id="Stroke-9" stroke="#42B549" stroke-linecap="round" stroke-linejoin="round"></path>
                    </g>
                </g>
                <g id="kereanjang" transform="translate(193.000000, 1.000000)">
                    <rect id="Rectangle-Copy" x="0" y="0" width="64" height="56"></rect>
                    <text id="Keranjang" font-family="SanFranciscoText-Medium, San Francisco Text" font-size="11" font-weight="400" line-spacing="14" fill="#000000" fill-opacity="0.54">
                        <tspan x="5.49316406" y="44">Keranjang</tspan>
                    </text>
                    <g id="icon" transform="translate(20.000000, 10.000000)">
                        <polygon id="Fill-1" fill="#EAEAEA" points="12.8298235 3.19347059 5.28688235 3.19347059 7.24864706 10.3899412 12.8298235 10.3899412"></polygon>
                        <g id="Group-10" stroke="#666666" stroke-linecap="round" stroke-linejoin="round">
                            <path d="M11.9385882,18.0775882 C11.9385882,18.9775882 11.2091765,19.7058235 10.3097647,19.7058235 C9.41035294,19.7058235 8.68152941,18.9775882 8.68152941,18.0775882 C8.68152941,17.1775882 9.41035294,16.4487647 10.3097647,16.4487647 C11.2091765,16.4487647 11.9385882,17.1775882 11.9385882,18.0775882 L11.9385882,18.0775882 Z" id="Stroke-2"></path>
                            <path d="M18.0777059,18.0775882 C18.0777059,18.9775882 17.3488824,19.7058235 16.4494706,19.7058235 C15.5500588,19.7058235 14.8206471,18.9775882 14.8206471,18.0775882 C14.8206471,17.1775882 15.5500588,16.4487647 16.4494706,16.4487647 C17.3488824,16.4487647 18.0777059,17.1775882 18.0777059,18.0775882 L18.0777059,18.0775882 Z" id="Stroke-4"></path>
                            <path d="M0.294117647,0.294117647 L3.77470588,0.294117647 C4.19823529,0.294117647 4.56647059,0.551764706 4.66647059,0.917058824 L7.98117647,13.0758824 C8.08117647,13.4417647 8.44941176,13.6988235 8.87294118,13.6988235 L18.6335294,13.6988235" id="Stroke-6"></path>
                            <path d="M7.24894118,10.3897647 L17.7136471,10.3897647 C18.1954118,10.3897647 18.6101176,10.0868235 18.7024706,9.66682353 L19.7654118,4.26094118 C19.8871765,3.708 19.4107059,3.19329412 18.776,3.19329412 L5.28717647,3.19329412" id="Stroke-8"></path>
                        </g>
                    </g>
                </g>
                <g id="wishlist" transform="translate(129.000000, 1.000000)">
                    <rect id="Rectangle-Copy" x="0" y="0" width="64" height="56"></rect>
                    <text id="Wishlist" font-family="SanFranciscoText-Medium, San Francisco Text" font-size="11" font-weight="400" line-spacing="14" fill="#000000" fill-opacity="0.54">
                        <tspan x="11.5415039" y="44">Wishlist</tspan>
                    </text>
                    <g id="Icon" transform="translate(22.000000, 10.000000)">
                        <path d="M10,3.302 C9.146875,1.54 7.42375,0.333333333 5.44125,0.333333333 C2.61375,0.333333333 0.3125,2.79 0.3125,5.80866667 C0.3125,7.17 0.51875,9.20066667 2.303125,11.1053333 C3.980625,12.8953333 9.44875,17.4986667 9.68125,17.666 C9.776875,17.7353333 9.88875,17.7706667 10,17.7706667 L10,3.302 Z" id="Fill-1" fill="#EAEAEA"></path>
                        <path d="M10,17.7708 C9.88875,17.7708 9.776875,17.7354667 9.68125,17.6661333 C9.44875,17.4981333 3.980625,12.8954667 2.303125,11.1054667 C0.51875,9.2008 0.3125,7.17013333 0.3125,5.80813333 C0.3125,2.79013333 2.61375,0.333466667 5.44125,0.333466667 C7.42375,0.333466667 9.146875,1.54013333 10,3.30213333 C10.853125,1.54013333 12.57625,0.333466667 14.55875,0.333466667 C17.38625,0.333466667 19.6875,2.79013333 19.6875,5.80813333 C19.6875,7.17013333 19.48125,9.2008 17.696875,11.1054667 C16.019375,12.8954667 10.55125,17.4981333 10.31875,17.6661333 C10.223125,17.7354667 10.11125,17.7708 10,17.7708 L10,17.7708 Z" id="Stroke-3" stroke="#666666" stroke-linecap="round" stroke-linejoin="round"></path>
                        <path d="M3.1184375,5.81026667 C3.1184375,4.4676 4.1390625,3.37826667 5.3971875,3.37826667 L5.3978125,3.37826667" id="Stroke-5" stroke="#666666" stroke-width="0.75" stroke-linecap="round" stroke-linejoin="round"></path>
                    </g>
                </g>
                <g id="Hotlist" transform="translate(66.000000, 1.000000)">
                    <rect id="Rectangle-Copy" x="0" y="0" width="64" height="56"></rect>
                    <text font-family="SanFranciscoText-Medium, San Francisco Text" font-size="11" font-weight="400" line-spacing="14" fill="#666666">
                        <tspan x="14.3742676" y="44">Hotlist</tspan>
                    </text>
                    <g id="Icon" transform="translate(23.000000, 8.000000)">
                        <path d="M6.50246897,2.1154375 L0.627641379,12.7466875 C0.314813793,13.3123125 0.232882759,13.8198125 0.383710345,14.2554375 C0.5544,14.7485625 0.969641379,14.9673125 1.06398621,15.0116875 L5.1381931,17.2979375 L6.50246897,18.0610625 L6.50246897,2.1154375 Z" id="Fill-1" fill="#EAEAEA"></path>
                        <path d="M9.93935172,19.79275 C9.56569655,19.79275 9.28638621,19.625875 9.21562759,19.579 L5.13831724,17.29775 L1.06411034,15.0115 C0.969144828,14.967125 0.553903448,14.749 0.383213793,14.255875 C0.233006897,13.819625 0.314937931,13.312125 0.627765517,12.7465 L6.55845517,2.014 C6.59569655,1.948375 7.44604138,0.47275 8.87735172,0.47275 L8.91211034,0.47275 C10.1435586,0.47275 12.7777655,0.340875 13.0130069,0.329 C13.140869,0.308375 13.6939034,0.248375 14.3549379,0.619 C15.0159724,0.989 15.2574207,1.494625 15.3070759,1.614625 C15.4219034,1.823375 16.7203862,4.185875 17.3640414,5.225875 C18.1225241,6.4515 17.3236966,7.959625 17.2889379,8.023375 L11.3570069,18.758375 C11.0441793,19.324 10.6593517,19.6615 10.2118345,19.76275 C10.116869,19.784 10.0256276,19.79275 9.93935172,19.79275" id="Stroke-3" stroke="#666666" stroke-linecap="round" stroke-linejoin="round"></path>
                        <path d="M12.2123793,6.4938125 C11.8821724,6.4938125 11.5556897,6.4094375 11.2596207,6.2431875 C10.3124483,5.7125625 9.97106897,4.5050625 10.4974138,3.5513125 C11.0243793,2.5975625 12.2235517,2.2538125 13.1707241,2.7838125 C14.1178966,3.3150625 14.4598966,4.5225625 13.932931,5.4763125 C13.6772069,5.9381875 13.2588621,6.2719375 12.7542414,6.4169375 C12.5754828,6.4681875 12.3936207,6.4938125 12.2123793,6.4938125" id="Stroke-5" stroke="#666666" stroke-width="0.75" stroke-linecap="round" stroke-linejoin="round"></path>
                    </g>
                </g>
                <g id="home" transform="translate(2.000000, 1.000000)">
                    <rect id="Rectangle" x="0" y="0" width="64" height="56"></rect>
                    <g id="Icon-Home" transform="translate(22.000000, 8.000000)">
                        <path d="M10.192,2.69588235 L2.06847059,9.59058824 C1.62023529,9.97058824 0.938470588,9.92058824 0.553176471,9.47882353 C0.167294118,9.03705882 0.218470588,8.36470588 0.666705882,7.98411765 L9.42670588,0.549411765 C9.63729412,0.370588235 9.89905882,0.287058824 10.1578824,0.294705882 L10.192,2.69588235 Z" id="Fill-1" fill="#EAEAEA"></path>
                        <path d="M10.1954118,11.3007647 L9.59894118,11.3007647 C8.38952941,11.3007647 7.40364706,12.3148824 7.40364706,13.5619412 L7.40364706,19.7637059 L10.1954118,19.7637059 L10.1954118,11.3007647 Z" id="Fill-3" fill="#EAEAEA"></path>
                        <path d="M13.3944118,19.7638824 L13.3944118,13.5621176 C13.3944118,12.3150588 12.4120588,11.3009412 11.2008824,11.3009412 L9.59911765,11.3009412 C8.38970588,11.3009412 7.40323529,12.3150588 7.40323529,13.5621176 L7.40323529,19.7638824" id="Stroke-5" stroke="#666666" stroke-width="0.75" stroke-linecap="round" stroke-linejoin="round"></path>
                        <path d="M10.192,2.69588235 L2.06847059,9.59058824 C1.62023529,9.97058824 0.938470588,9.92058824 0.553176471,9.47882353 C0.167294118,9.03705882 0.218470588,8.36470588 0.666705882,7.98411765 L9.42670588,0.549411765 C9.63729412,0.370588235 9.89905882,0.287058824 10.1578824,0.294705882 C10.4090588,0.287058824 10.6637647,0.368823529 10.8684706,0.542941176 L19.3437647,7.76647059 C19.7796471,8.13705882 19.8290588,8.79411765 19.4543529,9.22470588 C19.0796471,9.65647059 18.4167059,9.70529412 17.9814118,9.33411765 L10.192,2.69588235 L10.192,2.69588235 Z" id="Stroke-7" stroke="#666666" stroke-linecap="round" stroke-linejoin="round"></path>
                        <path d="M2.83823529,9.00882353 L2.83823529,17.0011765 C2.83823529,18.6082353 4.14294118,19.9152941 5.75176471,19.9152941 L14.6376471,19.9152941 C16.2435294,19.9152941 17.5529412,18.6082353 17.5529412,17.0011765 L17.5529412,9.00882353" id="Stroke-9" stroke="#666666" stroke-linecap="round" stroke-linejoin="round"></path>
                    </g>
                    <text id="Home" font-family="SanFranciscoText-Medium, San Francisco Text" font-size="11" font-weight="400" line-spacing="14" fill="#666666">
                        <tspan x="17.1435547" y="44">Home</tspan>
                    </text>
                </g>
            </g>
        </g>
    </g>
</svg>