<svg xmlns="http://www.w3.org/2000/svg" width="32" height="32" viewBox="0 0 32 32">
    <path fill="#FFF" fill-rule="evenodd" d="M28.66 16.269a19.372 19.372 0 0 0-.506-.09c-.2-.033-.446-.075-.737-.122-.289-.047-.612-.09-.969-.13a33.398 33.398 0 0 0-3.824-.223c-.47 0-.965.015-1.483.041-.518.027-1.018.074-1.504.142a2.512 2.512 0 0 1-.15-.334 7.564 7.564 0 0 1-.131-.353c-.257-.565-.552-1.204-.89-1.917.93-.378 1.814-.811 2.656-1.302.84-.49 1.513-.93 2.017-1.312a16.8 16.8 0 0 0 1.434-1.22c.45-.431.742-.732.878-.9.134-.168.262-.332.383-.494l.02-.02c1.965 2.395 2.968 5.153 3.008 8.275l-.202-.041zm-1.897 7.337a13.256 13.256 0 0 1-3.734 3.825c-.553-3.095-1.413-6.25-2.583-9.466 2.676-.418 5.428-.223 8.254.585a13.065 13.065 0 0 1-1.937 5.056zM15.622 29.69c-3.149 0-5.96-1.008-8.437-3.026l.302.221c.472-1.036 1.164-2.032 2.08-2.986.915-.956 1.796-1.726 2.644-2.312a25.838 25.838 0 0 1 2.765-1.654c.995-.52 1.674-.848 2.038-.99.363-.141.653-.253.868-.332l.04-.021h.04c1.319 3.458 2.261 6.809 2.826 10.052a13.24 13.24 0 0 1-5.166 1.048zM3.27 21.225a12.998 12.998 0 0 1-.888-4.773c0-.189.007-.33.02-.425 4.871 0 9.399-.625 13.582-1.877.431.834.788 1.58 1.071 2.241a1.709 1.709 0 0 1-.262.09c-.123.033-.21.058-.264.07l-.746.263c-.512.19-1.18.51-2.008.97a33.813 33.813 0 0 0-2.635 1.633c-.927.633-1.887 1.471-2.875 2.514a16.885 16.885 0 0 0-2.493 3.36 13.24 13.24 0 0 1-2.502-4.066zM5.249 8.236A13.046 13.046 0 0 1 9.97 4.483c1.668 2.22 3.309 4.763 4.924 7.629-4.091 1.076-8.167 1.614-12.23 1.614a13.078 13.078 0 0 1 2.584-5.49zm10.373-5.024c3.336 0 6.25 1.103 8.738 3.31l-.252.352c-.101.142-.353.414-.757.818a12.92 12.92 0 0 1-1.322 1.15c-.478.363-1.126.777-1.948 1.241-.82.465-1.694.872-2.623 1.222-1.547-2.854-3.202-5.423-4.965-7.71a13.315 13.315 0 0 1 3.129-.383zM29.043 8.67a15.433 15.433 0 0 0-5.641-5.64C21.027 1.644 18.434.95 15.622.95c-2.812 0-5.406.694-7.78 2.08A15.422 15.422 0 0 0 2.2 8.67C.814 11.046.121 13.64.121 16.452c0 2.81.693 5.404 2.08 7.78a15.428 15.428 0 0 0 5.64 5.64c2.375 1.386 4.969 2.08 7.78 2.08 2.813 0 5.406-.694 7.78-2.08a15.43 15.43 0 0 0 5.642-5.64c1.385-2.376 2.078-4.97 2.078-7.78 0-2.813-.693-5.407-2.078-7.782z"/>
</svg>
