<svg xmlns="http://www.w3.org/2000/svg" width="23" height="23" viewBox="0 0 23 23">
    <path fill="#FFF" fill-rule="evenodd" d="M18.33 18.337a9.626 9.626 0 0 1-3.96 2.396V19.01c0-.906-.311-1.573-.933-2a10.1 10.1 0 0 0 1.073-.157c.325-.067.67-.164 1.033-.292.363-.127.689-.279.977-.454.288-.176.565-.405.831-.685.266-.281.488-.6.668-.955.18-.356.322-.782.427-1.28a7.997 7.997 0 0 0 .157-1.646c0-1.16-.378-2.148-1.134-2.964.344-.899.307-1.876-.113-2.932l-.28-.033c-.195-.023-.545.06-1.05.247-.506.187-1.073.494-1.702.92-.89-.246-1.815-.37-2.774-.37-.965 0-1.886.124-2.762.37a9.597 9.597 0 0 0-1.129-.668 5.8 5.8 0 0 0-.853-.359 2.928 2.928 0 0 0-.95-.129.724.724 0 0 0-.112.022c-.419 1.064-.456 2.04-.112 2.932-.756.816-1.134 1.804-1.134 2.964 0 .6.052 1.148.157 1.646.105.498.247.924.427 1.28s.402.674.668.955c.266.28.543.509.831.685.288.175.614.327.977.454.363.128.708.225 1.033.292.326.068.683.12 1.073.158-.614.419-.921 1.085-.921 1.999v1.757a9.628 9.628 0 0 1-4.072-2.43 9.632 9.632 0 0 1-2.83-6.83 9.63 9.63 0 0 1 2.829-6.83 9.63 9.63 0 0 1 6.83-2.827 9.625 9.625 0 0 1 6.83 2.829 9.628 9.628 0 0 1 2.828 6.829 9.623 9.623 0 0 1-2.829 6.83M11.5.007C5.149.008 0 5.156 0 11.508c0 6.35 5.149 11.5 11.5 11.5s11.5-5.15 11.5-11.5c0-6.352-5.149-11.5-11.5-11.5"/>
</svg>
