<svg xmlns="http://www.w3.org/2000/svg" width="32" height="32" viewBox="0 0 32 32">
    <path fill="#FFF" fill-rule="evenodd" d="M25.502 25.51a13.392 13.392 0 0 1-5.51 3.333v-2.398c0-1.26-.432-2.187-1.297-2.781a14.051 14.051 0 0 0 1.492-.219c.453-.093.933-.229 1.438-.406a7.126 7.126 0 0 0 1.36-.633 5.672 5.672 0 0 0 1.156-.953c.37-.39.68-.833.929-1.328.25-.495.448-1.089.594-1.781.146-.693.219-1.456.219-2.29 0-1.614-.526-2.989-1.579-4.124.48-1.25.428-2.61-.156-4.079l-.39-.046c-.271-.032-.758.083-1.461.343-.704.26-1.492.688-2.368 1.282a14.364 14.364 0 0 0-3.859-.516c-1.344 0-2.625.172-3.843.516a13.352 13.352 0 0 0-1.571-.93c-.495-.245-.89-.411-1.187-.5a4.074 4.074 0 0 0-.829-.164 2.946 2.946 0 0 0-.492-.016c-.072.01-.125.021-.156.031-.583 1.48-.635 2.84-.156 4.079-1.052 1.135-1.578 2.51-1.578 4.124 0 .834.073 1.597.218 2.29.146.692.344 1.286.594 1.78.25.496.56.938.93 1.329.37.39.755.708 1.156.953.401.245.854.456 1.36.633.505.177.984.313 1.437.406.453.094.95.167 1.492.219-.854.583-1.281 1.51-1.281 2.781v2.445a13.395 13.395 0 0 1-5.666-3.38 13.401 13.401 0 0 1-3.935-9.502 13.398 13.398 0 0 1 3.936-9.502A13.398 13.398 0 0 1 16 2.57a13.392 13.392 0 0 1 9.502 3.936 13.396 13.396 0 0 1 3.935 9.502 13.389 13.389 0 0 1-3.936 9.502M16 .007c-8.837 0-16 7.163-16 16 0 8.836 7.163 16 16 16 8.836 0 16-7.164 16-16 0-8.837-7.164-16-16-16"/>
</svg>
