<svg xmlns="http://www.w3.org/2000/svg" width="39" height="39" viewBox="0 0 39 39">
    <path fill="#FFF" fill-rule="evenodd" d="M6.41 24.835c-5.05-5.05-5.05-13.311 0-18.36 2.557-2.557 5.835-3.803 9.18-3.803 3.343 0 6.688 1.246 9.18 3.803 5.048 5.049 5.048 13.31 0 18.36-5.05 5.049-13.312 5.049-18.36 0zm31.67 11.409L27.523 25.687c5.18-6.163 4.918-15.343-.852-21.113-6.098-6.099-16-6.099-22.097 0-6.099 6.098-6.099 15.999 0 22.097a15.75 15.75 0 0 0 11.08 4.59c3.607 0 7.148-1.246 10.099-3.672L36.31 38.146l1.77-1.902z"/>
</svg>
