<svg xmlns="http://www.w3.org/2000/svg" width="26" height="24" viewBox="0 0 26 24">
    <path fill="#FFF" fill-rule="evenodd" d="M5.401 1.578h4.347L7.513 7.435h-5.38l3.268-5.857zm18.453 5.857h-5.378L16.24 1.578h4.346l3.267 5.857zm-5.35 1.578h5.034l-8.456 10.385 3.421-10.385zm-11.019 0l3.423 10.385L2.45 9.013h5.035zm9.356 0L12.994 20.69 9.147 9.013h7.694zm-2.29-7.435l2.235 5.857H9.202l2.236-5.857h3.114zM25.888 7.84L21.739.405A.788.788 0 0 0 21.05 0H4.938a.788.788 0 0 0-.69.405L.1 7.84a.789.789 0 0 0 .077.882L12.382 23.71c.005.005.01.009.013.014l.04.043.004.005.01.01.005.003a.798.798 0 0 0 .043.038l.021.017c.015.012.03.022.047.033l.023.014.042.024c.005.002.01.006.017.008a.453.453 0 0 0 .064.028l.03.012.006.002h.003c.006.003.014.004.021.006a.759.759 0 0 0 .081.02l.034.005a.703.703 0 0 0 .099.008l.01.001h.009a.713.713 0 0 0 .214-.034l.02-.005.004-.001.005-.002.03-.012c.017-.006.033-.012.049-.02l.016-.008.017-.008a.658.658 0 0 0 .112-.07l.02-.018a.795.795 0 0 0 .048-.041l.01-.01a.538.538 0 0 0 .046-.05l.011-.012L25.81 8.722c.204-.25.235-.6.077-.882z"/>
</svg>
