<svg xmlns="http://www.w3.org/2000/svg" width="33" height="31" viewBox="0 0 33 31">
    <path fill="#FFF" fill-rule="evenodd" d="M6.858 2.004h5.521L9.54 9.441H2.71l4.15-7.437zm23.433 7.437h-6.83l-2.838-7.437h5.519l4.15 7.437zm-6.794 2.005h6.392L19.152 24.632l4.345-13.186zm-13.992 0l4.346 13.187-10.74-13.187h6.394zm11.881 0l-4.885 14.826-4.886-14.826h9.771zm-2.908-9.442l2.838 7.437h-9.631l2.84-7.437h3.953zm14.395 7.951L27.605.515A1 1 0 0 0 26.731 0H6.27a1 1 0 0 0-.876.514L.127 9.955c-.2.359-.161.803.098 1.121l15.499 19.03.016.018c.016.02.032.038.05.055l.006.007.013.012.006.005c.017.017.035.032.055.048l.026.02c.02.016.04.03.06.043l.029.018.053.03c.007.003.014.008.022.01a.575.575 0 0 0 .081.036l.039.015c.003 0 .005.002.007.003h.003c.009.004.019.005.028.008.034.01.068.018.102.024l.044.008c.041.005.083.01.125.01h.024a.906.906 0 0 0 .272-.042c.009-.003.018-.004.026-.008h.004l.007-.003c.013-.004.025-.01.038-.015.021-.008.042-.015.062-.025l.02-.01c.008-.003.014-.007.021-.011a.835.835 0 0 0 .143-.09l.026-.021a1.01 1.01 0 0 0 .061-.053l.012-.012a.683.683 0 0 0 .058-.063l.015-.016 15.497-19.03c.259-.319.298-.763.098-1.122z"/>
</svg>
