<svg xmlns="http://www.w3.org/2000/svg" width="642" height="568" viewBox="0 0 642 568">
    <defs>
        <filter id="a" width="131.6%" height="136.7%" x="-16.7%" y="-13.5%" filterUnits="objectBoundingBox">
            <feOffset dx="-5" dy="23" in="SourceAlpha" result="shadowOffsetOuter1"/>
            <feGaussianBlur in="shadowOffsetOuter1" result="shadowBlurOuter1" stdDeviation="25"/>
            <feColorMatrix in="shadowBlurOuter1" result="shadowMatrixOuter1" values="0 0 0 0 0 0 0 0 0 0 0 0 0 0 0 0 0 0 0.15 0"/>
            <feMerge>
                <feMergeNode in="shadowMatrixOuter1"/>
                <feMergeNode in="SourceGraphic"/>
            </feMerge>
        </filter>
    </defs>
    <g fill="#72DFE7" fill-rule="evenodd" filter="url(#a)" transform="translate(52.38 25.5)">
        <path d="M34.086 36.757c7.35 7.35 19.376 7.35 26.725 0 7.35-7.35 7.35-19.375 0-26.725l-3.697-3.698c-7.349-7.348-19.376-7.348-26.724 0-7.35 7.35-7.35 19.377 0 26.726l3.696 3.697zM514.872 402.703c7.35 7.35 19.376 7.35 26.725 0 7.35-7.35 7.35-19.376 0-26.726l-3.697-3.697c-7.349-7.349-19.376-7.349-26.724 0-7.35 7.35-7.35 19.376 0 26.725l3.696 3.698zM520.874 278.388l-28.148-28.148a236.15 236.15 0 0 0 .535-15.911C493.261 104.913 388.35 0 258.933 0c-38.198 0-74.254 9.149-106.115 25.362L133.364 5.908c-3.19-3.19-8.409-3.19-11.599 0-3.19 3.189-3.19 8.409 0 11.598l16.137 16.137-.13.076 14.888 14.887c7.349 7.35 7.349 19.375 0 26.725h-.001c-6.847 6.848-17.753 7.309-25.155 1.394L96.99 46.212c-7.349-7.35-19.376-7.35-26.725 0s-7.349 19.376 0 26.725l9.906 9.905-.017.02 8.065 8.064c7.348 7.35 7.348 19.375 0 26.725-6.67 6.67-17.181 7.265-24.562 1.829l-13.691-13.69c-11.39-11.392-30.032-11.392-41.424 0-11.391 11.39-11.391 30.032 0 41.424l24.529 24.528c-5.514 19.923-8.468 40.908-8.468 62.587 0 56.854 20.255 108.972 53.933 149.548C120.261 436.93 185.031 471 257.761 471c57.392 0 109.82-21.223 149.887-56.238h.797a235.506 235.506 0 0 0 42.82-46.595c11.476 9.749 28.843 9.22 39.668-1.607 11.392-11.39 11.392-30.031 0-41.423l-24.854-24.854c-.6-.6-1.224-1.162-1.863-1.7l-1.368-1.368c-3.19-3.19-3.19-8.41 0-11.599 3.189-3.19 8.408-3.19 11.598 0l10.547 10.546.042-.163 9.114 9.114c7.35 7.35 19.376 7.35 26.725 0 7.35-7.35 7.35-19.375 0-26.725"/>
    </g>
</svg>
