<svg xmlns="http://www.w3.org/2000/svg" xmlns:xlink="http://www.w3.org/1999/xlink" width="864" height="442" viewBox="0 0 864 442">
    <defs>
        <path id="a" d="M0 0h1115v478H0z"/>
        <linearGradient id="c" x1="20.034%" x2="43.065%" y1="18.497%" y2="41.826%">
            <stop offset="0%" stop-color="#3C3565" stop-opacity="0"/>
            <stop offset="100%" stop-color="#1C1835"/>
        </linearGradient>
        <linearGradient id="d" x1="43.985%" x2="53.794%" y1="60.689%" y2="39.322%">
            <stop offset=".002%" stop-color="#F3923A" stop-opacity="0"/>
            <stop offset="97.45%" stop-color="#983283"/>
        </linearGradient>
        <linearGradient id="e" x1="49.681%" x2="52.84%" y1="54.716%" y2="6.703%">
            <stop offset="0%" stop-color="#1CA77E"/>
            <stop offset="97.87%" stop-color="#433B59"/>
        </linearGradient>
        <linearGradient id="f" x1="0%" y1="50%" y2="50%">
            <stop offset="0%" stop-color="#1CA77E"/>
            <stop offset="97.87%" stop-color="#433B59"/>
        </linearGradient>
        <linearGradient id="g" x1="0%" y1="50%" y2="50%">
            <stop offset="0%" stop-color="#1CA77E"/>
            <stop offset="97.87%" stop-color="#433B59"/>
        </linearGradient>
        <linearGradient id="h" x1="0%" y1="50%" y2="50%">
            <stop offset="0%" stop-color="#1CA77E"/>
            <stop offset="97.87%" stop-color="#433B59"/>
        </linearGradient>
        <linearGradient id="i" x1="0%" y1="50%" y2="50%">
            <stop offset="0%" stop-color="#1CA77E"/>
            <stop offset="97.87%" stop-color="#433B59"/>
        </linearGradient>
        <linearGradient id="j" x1="0%" y1="50%" y2="50%">
            <stop offset="0%" stop-color="#009C49"/>
            <stop offset="13.71%" stop-color="#009B4B"/>
            <stop offset="27.41%" stop-color="#009A53"/>
            <stop offset="41.11%" stop-color="#009960"/>
            <stop offset="54.82%" stop-color="#009773"/>
            <stop offset="68.54%" stop-color="#00958A"/>
            <stop offset="82.27%" stop-color="#0092A3"/>
            <stop offset="95.77%" stop-color="#008EBD"/>
            <stop offset="100%" stop-color="#008CC5"/>
        </linearGradient>
        <linearGradient id="k" x1="0%" y1="50%" y2="50%">
            <stop offset="0%" stop-color="#009C49"/>
            <stop offset="13.71%" stop-color="#009B4B"/>
            <stop offset="27.41%" stop-color="#009A53"/>
            <stop offset="41.11%" stop-color="#009960"/>
            <stop offset="54.82%" stop-color="#009773"/>
            <stop offset="68.54%" stop-color="#00958A"/>
            <stop offset="82.27%" stop-color="#0092A3"/>
            <stop offset="95.77%" stop-color="#008EBD"/>
            <stop offset="100%" stop-color="#008CC5"/>
        </linearGradient>
        <linearGradient id="l" x1="0%" y1="50%" y2="50%">
            <stop offset="0%" stop-color="#009C49"/>
            <stop offset="13.71%" stop-color="#009B4B"/>
            <stop offset="27.41%" stop-color="#009A53"/>
            <stop offset="41.11%" stop-color="#009960"/>
            <stop offset="54.82%" stop-color="#009773"/>
            <stop offset="68.54%" stop-color="#00958A"/>
            <stop offset="82.27%" stop-color="#0092A3"/>
            <stop offset="95.77%" stop-color="#008EBD"/>
            <stop offset="100%" stop-color="#008CC5"/>
        </linearGradient>
        <linearGradient id="m" x1="0%" y1="50%" y2="50%">
            <stop offset="0%" stop-color="#009C49"/>
            <stop offset="13.71%" stop-color="#009B4B"/>
            <stop offset="27.41%" stop-color="#009A53"/>
            <stop offset="41.11%" stop-color="#009960"/>
            <stop offset="54.82%" stop-color="#009773"/>
            <stop offset="68.54%" stop-color="#00958A"/>
            <stop offset="82.27%" stop-color="#0092A3"/>
            <stop offset="95.77%" stop-color="#008EBD"/>
            <stop offset="100%" stop-color="#008CC5"/>
        </linearGradient>
        <linearGradient id="n" x1="0%" y1="50%" y2="50%">
            <stop offset="0%" stop-color="#009C49"/>
            <stop offset="13.71%" stop-color="#009B4B"/>
            <stop offset="27.41%" stop-color="#009A53"/>
            <stop offset="41.11%" stop-color="#009960"/>
            <stop offset="54.82%" stop-color="#009773"/>
            <stop offset="68.54%" stop-color="#00958A"/>
            <stop offset="82.27%" stop-color="#0092A3"/>
            <stop offset="95.77%" stop-color="#008EBD"/>
            <stop offset="100%" stop-color="#008CC5"/>
        </linearGradient>
        <linearGradient id="o" x1="0%" y1="50%" y2="50%">
            <stop offset="0%" stop-color="#009C49"/>
            <stop offset="13.71%" stop-color="#009B4B"/>
            <stop offset="27.41%" stop-color="#009A53"/>
            <stop offset="41.11%" stop-color="#009960"/>
            <stop offset="54.82%" stop-color="#009773"/>
            <stop offset="68.54%" stop-color="#00958A"/>
            <stop offset="82.27%" stop-color="#0092A3"/>
            <stop offset="95.77%" stop-color="#008EBD"/>
            <stop offset="100%" stop-color="#008CC5"/>
        </linearGradient>
        <linearGradient id="p" x1="0%" y1="50%" y2="50%">
            <stop offset="0%" stop-color="#1CA77E"/>
            <stop offset="97.87%" stop-color="#153557"/>
        </linearGradient>
        <linearGradient id="q" x1="0%" y1="50%" y2="50%">
            <stop offset="0%" stop-color="#0A598F"/>
            <stop offset="100%" stop-color="#4B2262"/>
        </linearGradient>
        <linearGradient id="r" x1="-21.873%" x2="68.747%" y1="31.827%" y2="54.734%">
            <stop offset="0%" stop-color="#1CA77E"/>
            <stop offset="97.87%" stop-color="#153557"/>
        </linearGradient>
        <linearGradient id="s" x1="0%" y1="50%" y2="50%">
            <stop offset="0%" stop-color="#29A179"/>
            <stop offset="100%" stop-color="#8EA879"/>
        </linearGradient>
        <linearGradient id="t" x1="4.752%" x2="103.337%" y1="39.959%" y2="61.824%">
            <stop offset="0%" stop-color="#1CA77E"/>
            <stop offset="97.87%" stop-color="#153557"/>
        </linearGradient>
        <linearGradient id="u" x1="50%" x2="50%" y1="-13.796%" y2="94.778%">
            <stop offset="0%" stop-color="#268B68"/>
            <stop offset="100%" stop-color="#698D76"/>
        </linearGradient>
        <linearGradient id="v" x1="-4.291%" x2="104.286%" y1="50%" y2="50%">
            <stop offset="0%" stop-color="#268B68"/>
            <stop offset="100%" stop-color="#698D76"/>
        </linearGradient>
        <linearGradient id="w" x1="116.205%" x2="-17.98%" y1="-11.486%" y2="113.195%">
            <stop offset="0%" stop-color="#29A179"/>
            <stop offset="100%" stop-color="#8EA879"/>
        </linearGradient>
        <linearGradient id="x" x1="0%" y1="50%" y2="50%">
            <stop offset="0%" stop-color="#0A598F"/>
            <stop offset="100%" stop-color="#4B2262"/>
        </linearGradient>
        <linearGradient id="y" x1="-88.129%" x2="167.178%" y1="36.23%" y2="61.682%">
            <stop offset=".422%" stop-color="#F3923A"/>
            <stop offset="97.45%" stop-color="#983283"/>
        </linearGradient>
        <linearGradient id="z" x1="0%" x2="100.134%" y1="50%" y2="50%">
            <stop offset="0%" stop-color="#0A598F"/>
            <stop offset="100%" stop-color="#4B2262"/>
        </linearGradient>
        <linearGradient id="A" x1="-141.82%" x2="453.455%" y1="33.374%" y2="84.969%">
            <stop offset=".422%" stop-color="#F3923A"/>
            <stop offset="97.45%" stop-color="#983283"/>
        </linearGradient>
        <linearGradient id="B" x1="100.001%" x2="0%" y1="50%" y2="50%">
            <stop offset="0%" stop-color="#0A598F"/>
            <stop offset="100%" stop-color="#4B2262"/>
        </linearGradient>
        <linearGradient id="C" x1="188.435%" x2="-67.49%" y1="36.232%" y2="61.685%">
            <stop offset=".422%" stop-color="#5268A1"/>
            <stop offset="97.45%" stop-color="#983283"/>
        </linearGradient>
        <linearGradient id="D" x1="99.999%" x2="-.134%" y1="50%" y2="50%">
            <stop offset="0%" stop-color="#0A598F"/>
            <stop offset="100%" stop-color="#4B2262"/>
        </linearGradient>
        <linearGradient id="E" x1="241.856%" x2="-353.419%" y1="33.371%" y2="84.966%">
            <stop offset=".422%" stop-color="#5268A1"/>
            <stop offset="97.45%" stop-color="#983283"/>
        </linearGradient>
        <linearGradient id="F" x1="241.856%" x2="-353.419%" y1="33.371%" y2="84.966%">
            <stop offset=".422%" stop-color="#5268A1"/>
            <stop offset="97.45%" stop-color="#983283"/>
        </linearGradient>
        <linearGradient id="G" x1="188.435%" x2="-67.49%" y1="36.232%" y2="61.685%">
            <stop offset=".422%" stop-color="#F3923A"/>
            <stop offset="97.45%" stop-color="#983283"/>
        </linearGradient>
        <linearGradient id="H" x1="-.001%" x2="99.999%" y1="50%" y2="50%">
            <stop offset="0%" stop-color="#0A598F"/>
            <stop offset="100%" stop-color="#4B2262"/>
        </linearGradient>
        <linearGradient id="I" x1="0%" y1="50%" y2="50%">
            <stop offset="0%" stop-color="#009E6C"/>
            <stop offset="15.83%" stop-color="#009D6F"/>
            <stop offset="31.63%" stop-color="#009C77"/>
            <stop offset="47.43%" stop-color="#009A84"/>
            <stop offset="63.25%" stop-color="#009795"/>
            <stop offset="79.07%" stop-color="#0094A9"/>
            <stop offset="94.69%" stop-color="#008EBE"/>
            <stop offset="100%" stop-color="#008CC5"/>
        </linearGradient>
        <linearGradient id="J" x1="42.525%" x2="65.845%" y1="66.09%" y2="-28.916%">
            <stop offset="0%" stop-color="#009C91"/>
            <stop offset="100%" stop-color="#F8AA2E"/>
        </linearGradient>
        <linearGradient id="K" x1="42.491%" x2="65.803%" y1="66.077%" y2="-28.929%">
            <stop offset="0%" stop-color="#009C91"/>
            <stop offset="100%" stop-color="#F8AA2E"/>
        </linearGradient>
        <linearGradient id="L" x1="42.552%" x2="65.871%" y1="65.987%" y2="-29.019%">
            <stop offset="0%" stop-color="#009C91"/>
            <stop offset="100%" stop-color="#F8AA2E"/>
        </linearGradient>
        <linearGradient id="M" x1="45.264%" x2="58.39%" y1="54.929%" y2="1.455%">
            <stop offset="0%" stop-color="#29A179"/>
            <stop offset="100%" stop-color="#BB8B5A"/>
        </linearGradient>
        <linearGradient id="N" x1="45.206%" x2="58.314%" y1="55.159%" y2="1.745%">
            <stop offset="0%" stop-color="#29A179"/>
            <stop offset="100%" stop-color="#BB8B5A"/>
        </linearGradient>
        <linearGradient id="O" x1="45.198%" x2="58.32%" y1="55.042%" y2="1.566%">
            <stop offset="0%" stop-color="#29A179"/>
            <stop offset="100%" stop-color="#BB8B5A"/>
        </linearGradient>
        <linearGradient id="P" x1="45.264%" x2="58.322%" y1="54.963%" y2="1.49%">
            <stop offset="0%" stop-color="#29A179"/>
            <stop offset="100%" stop-color="#BB8B5A"/>
        </linearGradient>
        <linearGradient id="Q" x1="45.26%" x2="58.317%" y1="54.974%" y2="1.499%">
            <stop offset="0%" stop-color="#29A179"/>
            <stop offset="100%" stop-color="#BB8B5A"/>
        </linearGradient>
        <linearGradient id="R" x1="45.215%" x2="58.335%" y1="54.978%" y2="1.504%">
            <stop offset="0%" stop-color="#29A179"/>
            <stop offset="100%" stop-color="#BB8B5A"/>
        </linearGradient>
        <linearGradient id="S" x1="45.215%" x2="58.337%" y1="54.98%" y2="1.506%">
            <stop offset="0%" stop-color="#29A179"/>
            <stop offset="100%" stop-color="#BB8B5A"/>
        </linearGradient>
        <linearGradient id="T" x1="45.208%" x2="58.285%" y1="55.156%" y2="1.71%">
            <stop offset="0%" stop-color="#29A179"/>
            <stop offset="100%" stop-color="#BB8B5A"/>
        </linearGradient>
        <linearGradient id="U" x1="45.204%" x2="58.325%" y1="55.022%" y2="1.548%">
            <stop offset="0%" stop-color="#29A179"/>
            <stop offset="100%" stop-color="#BB8B5A"/>
        </linearGradient>
        <linearGradient id="V" x1="0%" y1="50%" y2="50%">
            <stop offset="0%" stop-color="#0A598F"/>
            <stop offset="100%" stop-color="#4B2262"/>
        </linearGradient>
        <linearGradient id="W" x1="42.509%" x2="65.771%" y1="66.142%" y2="-28.879%">
            <stop offset="0%" stop-color="#009C91"/>
            <stop offset="100%" stop-color="#F8AA2E"/>
        </linearGradient>
        <linearGradient id="X" x1="23.289%" x2="120.829%" y1="65.228%" y2="-23.434%">
            <stop offset="0%" stop-color="#009C91"/>
            <stop offset="100%" stop-color="#F8AA2E"/>
        </linearGradient>
        <linearGradient id="Y" x1="37.24%" x2="77.361%" y1="65.915%" y2="-28.432%">
            <stop offset="0%" stop-color="#009C91"/>
            <stop offset="100%" stop-color="#F8AA2E"/>
        </linearGradient>
        <linearGradient id="Z" x1="54.079%" x2="41.645%" y1="66.563%" y2="-29.79%">
            <stop offset="0%" stop-color="#009C91"/>
            <stop offset="100%" stop-color="#F8AA2E"/>
        </linearGradient>
        <linearGradient id="aa" x1="45.22%" x2="58.313%" y1="55.07%" y2="1.588%">
            <stop offset="0%" stop-color="#29A179"/>
            <stop offset="100%" stop-color="#BB8B5A"/>
        </linearGradient>
        <linearGradient id="ab" x1="45.213%" x2="58.283%" y1="55.12%" y2="1.651%">
            <stop offset="0%" stop-color="#29A179"/>
            <stop offset="100%" stop-color="#BB8B5A"/>
        </linearGradient>
        <linearGradient id="ac" x1="45.229%" x2="58.322%" y1="55.034%" y2="1.552%">
            <stop offset="0%" stop-color="#29A179"/>
            <stop offset="100%" stop-color="#BB8B5A"/>
        </linearGradient>
        <linearGradient id="ad" x1="45.232%" x2="58.308%" y1="55.019%" y2="1.55%">
            <stop offset="0%" stop-color="#29A179"/>
            <stop offset="100%" stop-color="#BB8B5A"/>
        </linearGradient>
        <linearGradient id="ae" x1="45.224%" x2="58.3%" y1="55.048%" y2="1.578%">
            <stop offset="0%" stop-color="#29A179"/>
            <stop offset="100%" stop-color="#BB8B5A"/>
        </linearGradient>
        <linearGradient id="af" x1="45.227%" x2="58.32%" y1="55.041%" y2="1.559%">
            <stop offset="0%" stop-color="#29A179"/>
            <stop offset="100%" stop-color="#BB8B5A"/>
        </linearGradient>
        <linearGradient id="ag" x1="45.226%" x2="58.319%" y1="55.055%" y2="1.573%">
            <stop offset="0%" stop-color="#29A179"/>
            <stop offset="100%" stop-color="#BB8B5A"/>
        </linearGradient>
        <linearGradient id="ah" x1="45.218%" x2="58.293%" y1="55.096%" y2="1.645%">
            <stop offset="0%" stop-color="#29A179"/>
            <stop offset="100%" stop-color="#BB8B5A"/>
        </linearGradient>
        <linearGradient id="ai" x1="45.223%" x2="58.316%" y1="55.059%" y2="1.577%">
            <stop offset="0%" stop-color="#29A179"/>
            <stop offset="100%" stop-color="#BB8B5A"/>
        </linearGradient>
        <linearGradient id="aj" x1="0%" y1="50%" y2="50%">
            <stop offset="0%" stop-color="#0A598F"/>
            <stop offset="100%" stop-color="#4B2262"/>
        </linearGradient>
        <linearGradient id="ak" x1="42.508%" x2="65.77%" y1="66.149%" y2="-28.872%">
            <stop offset="0%" stop-color="#009C91"/>
            <stop offset="100%" stop-color="#F8AA2E"/>
        </linearGradient>
        <linearGradient id="al" x1="41.817%" x2="67.249%" y1="66.183%" y2="-28.775%">
            <stop offset="0%" stop-color="#009C91"/>
            <stop offset="100%" stop-color="#F8AA2E"/>
        </linearGradient>
        <linearGradient id="am" x1="34.59%" x2="82.952%" y1="65.8%" y2="-28.159%">
            <stop offset="0%" stop-color="#009C91"/>
            <stop offset="100%" stop-color="#F8AA2E"/>
        </linearGradient>
        <linearGradient id="an" x1="37.139%" x2="77.521%" y1="65.917%" y2="-28.41%">
            <stop offset="0%" stop-color="#009C91"/>
            <stop offset="100%" stop-color="#F8AA2E"/>
        </linearGradient>
        <linearGradient id="ao" x1="45.22%" x2="58.313%" y1="55.073%" y2="1.591%">
            <stop offset="0%" stop-color="#29A179"/>
            <stop offset="100%" stop-color="#BB8B5A"/>
        </linearGradient>
        <linearGradient id="ap" x1="44.128%" x2="60.34%" y1="55.061%" y2="1.672%">
            <stop offset="0%" stop-color="#29A179"/>
            <stop offset="100%" stop-color="#BB8B5A"/>
        </linearGradient>
        <linearGradient id="aq" x1="45.33%" x2="58.086%" y1="55.108%" y2="1.644%">
            <stop offset="0%" stop-color="#29A179"/>
            <stop offset="100%" stop-color="#BB8B5A"/>
        </linearGradient>
        <linearGradient id="ar" x1="45.23%" x2="58.307%" y1="55.022%" y2="1.552%">
            <stop offset="0%" stop-color="#29A179"/>
            <stop offset="100%" stop-color="#BB8B5A"/>
        </linearGradient>
        <linearGradient id="as" x1="45.225%" x2="58.302%" y1="55.043%" y2="1.573%">
            <stop offset="0%" stop-color="#29A179"/>
            <stop offset="100%" stop-color="#BB8B5A"/>
        </linearGradient>
        <linearGradient id="at" x1="45.229%" x2="58.322%" y1="55.036%" y2="1.554%">
            <stop offset="0%" stop-color="#29A179"/>
            <stop offset="100%" stop-color="#BB8B5A"/>
        </linearGradient>
        <linearGradient id="au" x1="41.364%" x2="65.515%" y1="54.902%" y2="1.876%">
            <stop offset="0%" stop-color="#29A179"/>
            <stop offset="100%" stop-color="#BB8B5A"/>
        </linearGradient>
        <linearGradient id="av" x1="45.234%" x2="58.309%" y1="55.033%" y2="1.582%">
            <stop offset="0%" stop-color="#29A179"/>
            <stop offset="100%" stop-color="#BB8B5A"/>
        </linearGradient>
        <linearGradient id="aw" x1="45.215%" x2="58.308%" y1="55.09%" y2="1.607%">
            <stop offset="0%" stop-color="#29A179"/>
            <stop offset="100%" stop-color="#BB8B5A"/>
        </linearGradient>
        <linearGradient id="ax" x1="25.332%" x2="102.142%" y1="65.645%" y2="-26.748%">
            <stop offset="0%" stop-color="#009C91"/>
            <stop offset="100%" stop-color="#F8AA2E"/>
        </linearGradient>
        <linearGradient id="ay" x1="31.497%" x2="89.399%" y1="65.707%" y2="-27.616%">
            <stop offset="0%" stop-color="#009C91"/>
            <stop offset="100%" stop-color="#F8AA2E"/>
        </linearGradient>
        <linearGradient id="az" x1="31.022%" x2="90.326%" y1="65.748%" y2="-27.689%">
            <stop offset="0%" stop-color="#009C91"/>
            <stop offset="100%" stop-color="#F8AA2E"/>
        </linearGradient>
        <linearGradient id="aA" x1="54.075%" x2="41.641%" y1="66.529%" y2="-29.823%">
            <stop offset="0%" stop-color="#009C91"/>
            <stop offset="100%" stop-color="#F8AA2E"/>
        </linearGradient>
        <linearGradient id="aB" x1="45.226%" x2="58.296%" y1="55.069%" y2="1.6%">
            <stop offset="0%" stop-color="#29A179"/>
            <stop offset="100%" stop-color="#BB8B5A"/>
        </linearGradient>
        <linearGradient id="aC" x1="45.223%" x2="58.315%" y1="55.061%" y2="1.579%">
            <stop offset="0%" stop-color="#29A179"/>
            <stop offset="100%" stop-color="#BB8B5A"/>
        </linearGradient>
        <linearGradient id="aD" x1="49.083%" x2="51.529%" y1="55.199%" y2="1.306%">
            <stop offset="0%" stop-color="#29A179"/>
            <stop offset="100%" stop-color="#BB8B5A"/>
        </linearGradient>
        <linearGradient id="aE" x1="40.056%" x2="67.617%" y1="54.971%" y2="2.134%">
            <stop offset="0%" stop-color="#29A179"/>
            <stop offset="100%" stop-color="#BB8B5A"/>
        </linearGradient>
        <linearGradient id="aF" x1="45.016%" x2="58.615%" y1="55.178%" y2="1.664%">
            <stop offset="0%" stop-color="#29A179"/>
            <stop offset="100%" stop-color="#BB8B5A"/>
        </linearGradient>
        <linearGradient id="aG" x1="45.225%" x2="58.318%" y1="55.049%" y2="1.566%">
            <stop offset="0%" stop-color="#29A179"/>
            <stop offset="100%" stop-color="#BB8B5A"/>
        </linearGradient>
        <linearGradient id="aH" x1="116.397%" x2="-7.577%" y1="-157.482%" y2="222.963%">
            <stop offset="0%" stop-color="#0A598F"/>
            <stop offset="100%" stop-color="#4B2262"/>
        </linearGradient>
        <linearGradient id="aI" x1="0%" y1="50%" y2="50%">
            <stop offset="0%" stop-color="#5BAD92"/>
            <stop offset="100%" stop-color="#39A9DA"/>
        </linearGradient>
        <linearGradient id="aJ" x1="0%" y1="50%" y2="50%">
            <stop offset="0%" stop-color="#0A598F"/>
            <stop offset="100%" stop-color="#4B2262"/>
        </linearGradient>
        <linearGradient id="aK" x1="0%" y1="50%" y2="50%">
            <stop offset=".422%" stop-color="#FCC000"/>
            <stop offset="97.87%" stop-color="#C26A39"/>
        </linearGradient>
        <linearGradient id="aL" x1="54.458%" x2="12.509%" y1="38.343%" y2="149.523%">
            <stop offset="0%" stop-color="#7EB9AC"/>
            <stop offset="100%" stop-color="#22568C"/>
        </linearGradient>
        <linearGradient id="aM" x1="74.573%" x2="31.693%" y1="-7.944%" y2="94.924%">
            <stop offset="0%" stop-color="#7EB9AC"/>
            <stop offset="100%" stop-color="#22568C"/>
        </linearGradient>
        <linearGradient id="aN" x1="0%" y1="50%" y2="50%">
            <stop offset=".422%" stop-color="#FCC000"/>
            <stop offset="97.87%" stop-color="#BA004E"/>
        </linearGradient>
        <linearGradient id="aO" x1="0%" y1="50%" y2="50%">
            <stop offset="0%" stop-color="#5BAD92"/>
            <stop offset="100%" stop-color="#39A9DA"/>
        </linearGradient>
        <linearGradient id="aP" x1="100%" x2="0%" y1="50%" y2="50%">
            <stop offset="0%" stop-color="#5BAD92"/>
            <stop offset="100%" stop-color="#39A9DA"/>
        </linearGradient>
        <linearGradient id="aQ" x1="0%" y1="50%" y2="50%">
            <stop offset=".422%" stop-color="#F3923A"/>
            <stop offset="97.45%" stop-color="#983283"/>
        </linearGradient>
        <linearGradient id="aR" x1="0%" y1="50%" y2="50%">
            <stop offset=".422%" stop-color="#F3923A"/>
            <stop offset="97.87%" stop-color="#E9447B"/>
        </linearGradient>
        <linearGradient id="aS" x1="92.241%" x2="56.62%" y1="-.896%" y2="49.173%">
            <stop offset=".422%" stop-color="#EE8B92"/>
            <stop offset="97.87%" stop-color="#7C4092"/>
        </linearGradient>
        <linearGradient id="aT" x1="0%" y1="50%" y2="50%">
            <stop offset="0%" stop-color="#1CA77E"/>
            <stop offset="97.87%" stop-color="#433B59"/>
        </linearGradient>
        <linearGradient id="aU" x1="85.935%" x2="26.808%" y1="-19.56%" y2="93.34%">
            <stop offset=".422%" stop-color="#F28E39"/>
            <stop offset="5.563%" stop-color="#EA8741"/>
            <stop offset="97.45%" stop-color="#722462"/>
        </linearGradient>
        <linearGradient id="aV" x1="64.531%" x2="48.703%" y1="23.801%" y2="76.891%">
            <stop offset=".422%" stop-color="#FCC000"/>
            <stop offset="97.87%" stop-color="#C26A39" stop-opacity="0"/>
        </linearGradient>
        <linearGradient id="aW" x1="100%" x2="32.923%" y1="50%" y2="50%">
            <stop offset="0%" stop-color="#D29402"/>
            <stop offset="100%" stop-color="#FCEA10"/>
        </linearGradient>
        <linearGradient id="aX" x1="100%" x2="-.001%" y1="50%" y2="50%">
            <stop offset="0%" stop-color="#5BAD92"/>
            <stop offset="100%" stop-color="#39A9DA"/>
        </linearGradient>
        <linearGradient id="aY" x1="100%" x2="-.001%" y1="50%" y2="50%">
            <stop offset="0%" stop-color="#5BAD92"/>
            <stop offset="100%" stop-color="#39A9DA"/>
        </linearGradient>
        <linearGradient id="aZ" x1="2.898%" x2="62.671%" y1="24.562%" y2="56.671%">
            <stop offset="0%" stop-color="#1D335F"/>
            <stop offset="100%" stop-color="#200026"/>
        </linearGradient>
        <linearGradient id="ba" x1="-40.188%" x2="36.038%" y1="13.111%" y2="63.054%">
            <stop offset="0%" stop-color="#1D335F"/>
            <stop offset="100%" stop-color="#200026"/>
        </linearGradient>
        <linearGradient id="bb" x1="194.282%" x2="-26.509%" y1="51.274%" y2="49.295%">
            <stop offset=".422%" stop-color="#F3923A"/>
            <stop offset="97.87%" stop-color="#B44C42"/>
        </linearGradient>
        <linearGradient id="bc" x1="-89.972%" x2="50.248%" y1="-31.828%" y2="44.397%">
            <stop offset=".422%" stop-color="#F3923A"/>
            <stop offset="97.87%" stop-color="#B44C42"/>
        </linearGradient>
        <linearGradient id="bd" x1="88.337%" x2="10.462%" y1="117.213%" y2="-15.44%">
            <stop offset=".422%" stop-color="#F3923A"/>
            <stop offset="97.87%" stop-color="#B44C42"/>
        </linearGradient>
        <linearGradient id="be" x1="0%" y1="50%" y2="50%">
            <stop offset=".422%" stop-color="#F3923A"/>
            <stop offset="97.45%" stop-color="#983283"/>
        </linearGradient>
        <linearGradient id="bf" x1="46.23%" x2="51.491%" y1="-34.28%" y2="84.954%">
            <stop offset=".422%" stop-color="#F3923A"/>
            <stop offset="97.87%" stop-color="#433B59"/>
        </linearGradient>
        <linearGradient id="bg" x1="24.513%" x2="70.047%" y1="-7.692%" y2="95.358%">
            <stop offset="0%" stop-color="#1D1935" stop-opacity="0"/>
            <stop offset="1.646%" stop-color="#251C37" stop-opacity=".035"/>
            <stop offset="8.343%" stop-color="#472940" stop-opacity=".179"/>
            <stop offset="14.91%" stop-color="#683847" stop-opacity=".321"/>
            <stop offset="21.22%" stop-color="#83454B" stop-opacity=".456"/>
            <stop offset="27.17%" stop-color="#99504E" stop-opacity=".584"/>
            <stop offset="32.66%" stop-color="#A65650" stop-opacity=".702"/>
            <stop offset="37.21%" stop-color="#AA5950" stop-opacity=".8"/>
            <stop offset="97.87%" stop-color="#E9447B"/>
        </linearGradient>
        <linearGradient id="bh" x1="0%" y1="50%" y2="50%">
            <stop offset=".422%" stop-color="#F3923A"/>
            <stop offset="97.87%" stop-color="#E9447B"/>
        </linearGradient>
        <linearGradient id="bi" x1="100%" x2="0%" y1="50%" y2="50%">
            <stop offset="0%" stop-color="#5BAD92"/>
            <stop offset="100%" stop-color="#39A9DA"/>
        </linearGradient>
        <linearGradient id="bj" x1="100%" x2="0%" y1="50%" y2="50%">
            <stop offset="0%" stop-color="#5BAD92"/>
            <stop offset="100%" stop-color="#39A9DA"/>
        </linearGradient>
        <linearGradient id="bk" x1="100%" x2="-.001%" y1="50%" y2="50%">
            <stop offset="0%" stop-color="#00AA86"/>
            <stop offset="100%" stop-color="#008CC5"/>
        </linearGradient>
        <linearGradient id="bl" x1="100%" x2="0%" y1="50%" y2="50%">
            <stop offset="0%" stop-color="#5BAD92"/>
            <stop offset="100%" stop-color="#A2C3E1"/>
        </linearGradient>
        <linearGradient id="bm" x1="100%" x2=".11%" y1="50%" y2="50%">
            <stop offset=".422%" stop-color="#FCC000"/>
            <stop offset="97.87%" stop-color="#BA004E"/>
        </linearGradient>
        <linearGradient id="bn" x1="100%" x2=".11%" y1="50%" y2="50%">
            <stop offset="0%" stop-color="#00AA86"/>
            <stop offset="100%" stop-color="#008CC5"/>
        </linearGradient>
        <linearGradient id="bo" x1="100%" x2=".11%" y1="50%" y2="50%">
            <stop offset="0%" stop-color="#E6007E"/>
            <stop offset="100%" stop-color="#2D2378"/>
        </linearGradient>
        <linearGradient id="bp" x1="99.674%" x2="-.18%" y1="50%" y2="50%">
            <stop offset="0%" stop-color="#5BAD92"/>
            <stop offset="100%" stop-color="#39A9DA"/>
        </linearGradient>
        <linearGradient id="bq" x1="99.678%" x2="-.18%" y1="50%" y2="50%">
            <stop offset="0%" stop-color="#5BAD92"/>
            <stop offset="100%" stop-color="#39A9DA"/>
        </linearGradient>
        <linearGradient id="br" x1="99.681%" x2="-.177%" y1="50%" y2="50%">
            <stop offset="0%" stop-color="#5BAD92"/>
            <stop offset="100%" stop-color="#39A9DA"/>
        </linearGradient>
        <linearGradient id="bs" x1="100%" x2=".11%" y1="50%" y2="50%">
            <stop offset=".422%" stop-color="#36B9C4"/>
            <stop offset="97.87%" stop-color="#1D1935"/>
        </linearGradient>
        <linearGradient id="bt" x1="99.858%" x2="-.029%" y1="50%" y2="50%">
            <stop offset=".422%" stop-color="#36B9C4"/>
            <stop offset="97.87%" stop-color="#1D1935"/>
        </linearGradient>
        <linearGradient id="bu" x1="99.858%" x2="-.029%" y1="50%" y2="50%">
            <stop offset=".422%" stop-color="#36B9C4"/>
            <stop offset="97.87%" stop-color="#1D1935"/>
        </linearGradient>
        <linearGradient id="bv" x1="126.949%" x2="32.594%" y1="-20.728%" y2="65.718%">
            <stop offset=".429%" stop-color="#FCE5E1"/>
            <stop offset="100%" stop-color="#B8B0B9"/>
        </linearGradient>
        <path id="bw" d="M21.5 203c-49-37.667-13.217-92.206 107.348-163.617 0-68.814 93.419-39.19 93.419 35.093v76.891C137.422 223.456 70.5 240.667 21.5 203z"/>
        <linearGradient id="by" x1="47.892%" x2="50.999%" y1="109.296%" y2="22.342%">
            <stop offset="0%" stop-color="#D0D0CD"/>
            <stop offset="72.19%" stop-color="#292A29"/>
        </linearGradient>
        <linearGradient id="bz" x1="47.895%" x2="51.002%" y1="109.166%" y2="22.297%">
            <stop offset="0%" stop-color="#D0D0CD"/>
            <stop offset="72.19%" stop-color="#292A29"/>
        </linearGradient>
        <linearGradient id="bA" x1="23.574%" x2="62.978%" y1="23.711%" y2="56.615%">
            <stop offset="0%" stop-color="#00A5A9"/>
            <stop offset="100%" stop-color="#22568C"/>
        </linearGradient>
        <linearGradient id="bB" x1="81.835%" x2="13.7%" y1="74.1%" y2="44.612%">
            <stop offset=".429%" stop-color="#9ED6E0"/>
            <stop offset="100%" stop-color="#AFB376"/>
        </linearGradient>
        <linearGradient id="bC" x1="21.468%" x2="54.851%" y1="10.621%" y2="50.226%">
            <stop offset=".429%" stop-color="#D8ECEB"/>
            <stop offset="100%" stop-color="#B8C8C7"/>
        </linearGradient>
        <linearGradient id="bD" x1="0%" y1="50%" y2="50%">
            <stop offset=".429%" stop-color="#D8ECEB"/>
            <stop offset="100%" stop-color="#B8C8C7"/>
        </linearGradient>
        <linearGradient id="bE" x1="0%" y1="50%" y2="50%">
            <stop offset=".429%" stop-color="#9ED6E0"/>
            <stop offset="100%" stop-color="#AFB376"/>
        </linearGradient>
        <linearGradient id="bF" x1="0%" y1="50%" y2="50%">
            <stop offset="0%" stop-color="#00A5A9"/>
            <stop offset="100%" stop-color="#22568C"/>
        </linearGradient>
        <linearGradient id="bG" x1="-28.12%" x2="61.764%" y1="-5.249%" y2="58.32%">
            <stop offset="0%" stop-color="#0A598F"/>
            <stop offset="100%" stop-color="#4B2262"/>
        </linearGradient>
        <linearGradient id="bH" x1="88.548%" x2="33.507%" y1="124.05%" y2="18.318%">
            <stop offset="0%" stop-color="#00A5A9"/>
            <stop offset="100%" stop-color="#22568C"/>
        </linearGradient>
        <linearGradient id="bI" x1="40.132%" x2="84.58%" y1="33.89%" y2="106.452%">
            <stop offset=".422%" stop-color="#F3923A"/>
            <stop offset="97.87%" stop-color="#E9447B"/>
        </linearGradient>
        <linearGradient id="bJ" x1="-43.986%" x2="112.112%" y1="33.296%" y2="61.039%">
            <stop offset="0%" stop-color="#0A598F"/>
            <stop offset="100%" stop-color="#4B2262"/>
        </linearGradient>
        <linearGradient id="bK" x1="0%" y1="50%" y2="50%">
            <stop offset="0%" stop-color="#00A5A9"/>
            <stop offset="100%" stop-color="#22568C"/>
        </linearGradient>
        <linearGradient id="bL" x1="0%" y1="50%" y2="50%">
            <stop offset=".429%" stop-color="#FCE5E1"/>
            <stop offset="100%" stop-color="#B8B0B9"/>
        </linearGradient>
        <linearGradient id="bM" x1="0%" y1="50%" y2="50%">
            <stop offset="0%" stop-color="#00A5A9"/>
            <stop offset="100%" stop-color="#22568C"/>
        </linearGradient>
        <linearGradient id="bN" x1="0%" y1="50%" y2="50%">
            <stop offset="0%" stop-color="#00A5A9"/>
            <stop offset="100%" stop-color="#22568C"/>
        </linearGradient>
        <linearGradient id="bO" x1="116.677%" x2="8.349%" y1="11.481%" y2="63.689%">
            <stop offset="0%" stop-color="#FFF" stop-opacity="0"/>
            <stop offset="61.42%" stop-color="#FFF" stop-opacity=".5"/>
            <stop offset="100%" stop-color="#FFF" stop-opacity="0"/>
        </linearGradient>
        <linearGradient id="bP" x1="134.279%" x2="-14.954%" y1="129.428%" y2="-11.215%">
            <stop offset="0%" stop-color="#00A5A9"/>
            <stop offset="100%" stop-color="#22568C"/>
        </linearGradient>
        <linearGradient id="bQ" x1="24.762%" x2="74.041%" y1="2.207%" y2="50.509%">
            <stop offset="0%" stop-color="#00A5A9"/>
            <stop offset="100%" stop-color="#22568C"/>
        </linearGradient>
        <linearGradient id="bR" x1="-15.726%" x2="92.259%" y1="41.392%" y2="54.832%">
            <stop offset="0%" stop-color="#00A5A9"/>
            <stop offset="100%" stop-color="#22568C"/>
        </linearGradient>
        <linearGradient id="bS" x1="73.633%" x2="35.343%" y1="84.91%" y2="-10.41%">
            <stop offset="0%" stop-color="#00A5A9"/>
            <stop offset="100%" stop-color="#22568C"/>
        </linearGradient>
    </defs>
    <g fill="none" fill-rule="evenodd" transform="translate(-192 -36)">
        <mask id="b" fill="#fff">
            <use xlink:href="#a"/>
        </mask>
        <g fill-rule="nonzero" mask="url(#b)">
            <path fill="url(#c)" d="M144.793 1.433L.04 79.163 579.086 417.46l145.324-84.036z" transform="translate(147 175.146)"/>
            <path fill="url(#d)" d="M538.737 393.912L104.729 141.614V.138l434.427 242.64-.133 39.645 9.553 5.582v10.917l-9.496 5.487z" opacity=".15" transform="translate(147 175.146)"/>
        </g>
        <g mask="url(#b)">
            <path fill="url(#e)" fill-rule="nonzero" d="M258.183 449.043l-28.566-16.556 9.478-5.449 28.66 16.5z" transform="translate(399.275 36.036)"/>
            <path fill="url(#f)" fill-rule="nonzero" d="M220.026 427.058l-28.565-16.556 9.477-5.449 28.641 16.518z" transform="translate(399.275 36.036)"/>
            <path fill="url(#g)" fill-rule="nonzero" d="M104.964 361.101l-28.317-16.574 9.534-5.43 28.966 16.289z" transform="translate(399.275 36.036)"/>
            <path fill="url(#h)" fill-rule="nonzero" d="M67.341 339.002l-28.546-16.46 9.535-5.43 29.194 16.174z" transform="translate(399.275 36.036)"/>
            <path fill="url(#i)" fill-rule="nonzero" d="M29.299 317.054L.409 300.746l9.878-5.658 28.623 16.518z" transform="translate(399.275 36.036)"/>
            <path fill="url(#g)" fill-rule="nonzero" d="M143.712 383.106l-28.737-16.537 9.668-5.506 28.604 16.46z" transform="translate(399.275 36.036)"/>
            <g fill-rule="nonzero" transform="translate(817.121 133.58)">
                <path fill="url(#j)" d="M79.327 148.982H0L39.263.02z"/>
                <ellipse cx="39.663" cy="149.63" fill="url(#k)" rx="39.663" ry="12.269"/>
            </g>
            <g fill="url(#j)" fill-rule="nonzero" transform="translate(560.835 142.344)">
                <path d="M102.171 191.696H.133L50.647.076z"/>
                <ellipse cx="51.143" cy="192.534" rx="51.009" ry="15.775"/>
            </g>
            <g fill-rule="nonzero" transform="translate(531.66 199.307)">
                <path fill="url(#l)" d="M60.124 112.69H.153L29.843.056z"/>
                <ellipse cx="30.129" cy="113.185" fill="url(#m)" rx="29.995" ry="9.278"/>
            </g>
            <g fill-rule="nonzero" transform="translate(438.985 319.332)">
                <path fill="url(#n)" d="M60.143 112.67H.172L29.862.038z"/>
                <ellipse cx="30.148" cy="113.147" fill="url(#o)" rx="29.995" ry="9.278"/>
            </g>
            <path fill="url(#p)" fill-rule="nonzero" d="M744.439 338.468l-132.243 76.34-.057-4.935 132.338-76.491z" transform="translate(399.275 36.036)"/>
            <path fill="url(#q)" fill-rule="nonzero" d="M744.477 333.382l-132.262 76.586-58.408-65.403 104.936-60.641zM591.869 289.81l-85.791-49.495-.02-88.265 85.868 49.781z" transform="translate(399.275 36.036)"/>
            <path fill="url(#r)" fill-rule="nonzero" d="M687.213 322.56l-95.249 55.135-.038-176.054 95.287-55.097z" transform="translate(399.275 36.036)"/>
            <path fill="url(#s)" fill-rule="nonzero" d="M687.213 146.544l-95.287 55.097-85.867-49.591 95.42-54.964z" transform="translate(399.275 36.036)"/>
            <path stroke="#FDFDFD" d="M1011.471 450.844l-58.408-65.328.02-4.915 58.388 65.404z"/>
            <path fill="url(#q)" fill-rule="nonzero" d="M286.881 514.56l-125.473-71.252v-4.953l125.473 71.253z" transform="translate(399.275 36.036)"/>
            <path stroke="#FDFDFD" d="M543.044 489.728l17.639-10.383v-4.953l-17.544 10.383z"/>
            <path fill="url(#q)" fill-rule="nonzero" d="M591.869 190.553l-72.71-42.18-.038-104.326 72.805 42.256z" transform="translate(399.275 36.036)"/>
            <path fill="url(#t)" fill-rule="nonzero" d="M668.163 146.696l-76.199 43.895-.038-104.288 76.237-44.009z" transform="translate(399.275 36.036)"/>
            <path fill="url(#s)" fill-rule="nonzero" d="M668.163 42.294l-76.237 44.01-72.805-42.257L595.491.114z" transform="translate(399.275 36.036)"/>
            <path fill="url(#u)" fill-rule="nonzero" d="M123.7 39.456l5.072-2.934L66.016.095.096 38.027l5.09 2.953 60.83-34.998z" transform="translate(928.483 41.942)"/>
            <path d="M991.43 116.453l-57.76-33.53"/>
            <path fill="url(#v)" fill-rule="nonzero" d="M123.7 39.456L66.016 5.982 5.186 40.98l57.76 33.53z" transform="translate(928.483 41.942)"/>
            <path fill="url(#w)" fill-rule="nonzero" d="M123.7 39.456L66.016 5.982 5.186 40.98l57.76 33.53z" transform="translate(928.483 41.942)"/>
            <g fill-rule="nonzero">
                <path fill="url(#x)" d="M9.458 88.284l-9.42 5.487.076-88.227L9.515.038z" transform="translate(1000.754 237.22)"/>
                <path fill="url(#y)" d="M7.856 87.199L.038 91.866.114 5.544 7.933.953z" transform="translate(1000.754 237.22)"/>
                <path fill="url(#z)" d="M9.496 66.128l-9.4 5.486.076-66.07L9.554.038z" transform="translate(1010.289 133.008)"/>
                <path fill="url(#A)" d="M7.914 65.042L.095 69.709.172 5.544 7.97.953z" transform="translate(1010.289 133.008)"/>
                <g>
                    <path fill="url(#x)" d="M9.458 88.284l-9.42 5.487.076-88.227L9.515.038z" transform="translate(1029.548 220.836)"/>
                    <path fill="url(#y)" d="M7.856 87.199L.038 91.866.114 5.544 7.933.953z" transform="translate(1029.548 220.836)"/>
                </g>
                <g>
                    <path fill="url(#z)" d="M9.496 66.128l-9.4 5.486.076-66.07L9.554.038z" transform="translate(1039.083 116.624)"/>
                    <path fill="url(#A)" d="M7.914 65.042L.095 69.709.172 5.544 7.97.953z" transform="translate(1039.083 116.624)"/>
                </g>
            </g>
            <g fill-rule="nonzero">
                <path fill="url(#B)" d="M.21 88.284l9.4 5.487-.076-88.227L.134.038z" transform="translate(971.96 237.22)"/>
                <path fill="url(#C)" d="M1.792 87.199l7.819 4.667-.077-86.322L1.735.953z" transform="translate(971.96 237.22)"/>
                <path fill="url(#D)" d="M.153 66.128l9.4 5.486-.076-66.07L.095.038z" transform="translate(962.426 133.008)"/>
                <path fill="url(#E)" d="M1.735 65.042l7.819 4.667-.077-64.165L1.678.953z" transform="translate(962.426 133.008)"/>
                <path fill="url(#B)" d="M.21 88.284l9.4 5.487-.076-88.227L.134.038z" transform="translate(943.166 220.836)"/>
                <path fill="url(#C)" d="M1.792 87.199l7.819 4.667-.077-86.322L1.735.953z" transform="translate(943.166 220.836)"/>
                <g>
                    <path fill="url(#D)" d="M.153 66.128l9.4 5.486-.076-66.07L.095.038z" transform="translate(933.632 116.624)"/>
                    <path fill="url(#F)" d="M1.735 65.042l7.819 4.667-.077-64.165L1.678.953z" transform="translate(933.632 116.624)"/>
                </g>
                <g>
                    <path fill="url(#B)" d="M.21 88.284l9.4 5.487-.076-88.227L.134.038z" transform="translate(914.754 204.642)"/>
                    <path fill="url(#G)" d="M1.792 87.199l7.819 4.667-.077-86.322L1.735.953z" transform="translate(914.754 204.642)"/>
                </g>
            </g>
            <g fill-rule="nonzero">
                <path fill="url(#H)" d="M23.321 99.544a3.632 3.632 0 0 1 3.623 3.62v23.7c0 2-1.64 3.62-3.623 3.62a3.632 3.632 0 0 1-3.623-3.62v-23.7c0-2 1.64-3.62 3.623-3.62z" transform="translate(1013.34 284.468)"/>
                <path fill="url(#I)" d="M49.026 107.05L24.294.133.057 107.05h.038c-.019.153-.038.305-.038.457 0 4.859 10.965 8.802 24.485 8.802s24.484-3.943 24.484-8.802c0-.152-.019-.304-.038-.457h.038z" transform="translate(1013.34 284.468)"/>
                <path fill="url(#J)" d="M28.87 50.791c.057 2.553-2.402 8.059-2.402 8.059s-2.422-5.392-2.46-7.964c-.038-2.571 1.01-4.648 2.345-4.667 1.335-.038 2.46 2.02 2.517 4.572z" transform="translate(1013.34 284.468)"/>
                <path fill="url(#K)" d="M41.189 64.508c.057 2.553-2.403 8.059-2.403 8.059s-2.422-5.392-2.46-7.963c-.057-2.553 1.01-4.65 2.346-4.668 1.334-.038 2.479 2.02 2.517 4.572z" transform="translate(1013.34 284.468)"/>
                <path fill="url(#L)" d="M35.983 40.39c.057 2.552-2.403 8.058-2.403 8.058s-2.421-5.392-2.46-7.964c-.038-2.572 1.011-4.648 2.346-4.667 1.335-.038 2.46 2 2.517 4.572z" transform="translate(1013.34 284.468)"/>
                <path fill="url(#M)" d="M22.387 88.78c.057 2.553-2.403 8.059-2.403 8.059s-2.422-5.392-2.46-7.964c-.038-2.572 1.01-4.648 2.346-4.668 1.335-.038 2.46 2 2.517 4.573z" transform="translate(1013.34 284.468)"/>
                <path fill="url(#N)" d="M29.519 71.31c.038 1.905-1.793 5.982-1.793 5.982s-1.792-4.02-1.83-5.925c-.039-1.905.743-3.468 1.754-3.487.991 0 1.83 1.524 1.869 3.43z" transform="translate(1013.34 284.468)"/>
                <path fill="url(#O)" d="M18.86 64.09c.056 2.552-2.404 8.058-2.404 8.058s-2.421-5.392-2.46-7.964c-.057-2.553 1.011-4.648 2.346-4.667 1.335-.02 2.46 2.02 2.517 4.572z" transform="translate(1013.34 284.468)"/>
                <path fill="url(#P)" d="M9.382 78.073c.038 2.362-2.231 7.449-2.231 7.449s-2.231-4.991-2.288-7.354c-.039-2.362.934-4.305 2.173-4.325 1.259-.038 2.308 1.868 2.346 4.23z" transform="translate(1013.34 284.468)"/>
                <path fill="url(#Q)" d="M40.54 81.883c.039 2.363-2.23 7.45-2.23 7.45s-2.232-4.992-2.289-7.355c-.038-2.362.934-4.305 2.174-4.324 1.24-.02 2.288 1.867 2.345 4.23z" transform="translate(1013.34 284.468)"/>
                <path fill="url(#R)" d="M24.16 34.54c.057 2.553-2.402 8.06-2.402 8.06s-2.422-5.392-2.46-7.964c-.058-2.553 1.01-4.649 2.345-4.668 1.335-.038 2.46 2.02 2.517 4.572z" transform="translate(1013.34 284.468)"/>
                <path fill="url(#S)" d="M32.55 23.49c.058 2.553-2.402 8.06-2.402 8.06s-2.422-5.392-2.46-7.964c-.057-2.553 1.01-4.649 2.345-4.668 1.335-.038 2.46 2.02 2.518 4.572z" transform="translate(1013.34 284.468)"/>
                <path fill="url(#T)" d="M24.16 16.822c.038 2.4-2.269 7.545-2.269 7.545s-2.27-5.068-2.307-7.468c-.038-2.4.934-4.363 2.212-4.382 1.258 0 2.326 1.924 2.364 4.305z" transform="translate(1013.34 284.468)"/>
                <path fill="url(#U)" d="M16.018 48.124c.057 2.553-2.403 8.059-2.403 8.059s-2.422-5.392-2.46-7.964c-.057-2.553 1.01-4.648 2.346-4.667 1.335-.038 2.479 2.02 2.517 4.572z" transform="translate(1013.34 284.468)"/>
            </g>
            <g fill-rule="nonzero">
                <path fill="url(#V)" d="M55.7 235.4h9.916a3.632 3.632 0 0 1 3.623 3.62v65.994c0 2-1.64 3.62-3.623 3.62H55.7a3.632 3.632 0 0 1-3.623-3.62V239.02c0-2 1.64-3.62 3.623-3.62z" transform="translate(839.622 109.766)"/>
                <path fill="url(#j)" d="M116.053 253.156L57.531.096.153 253.155h.076a7.015 7.015 0 0 0-.076 1.105c0 11.507 25.952 20.823 57.95 20.823 32.017 0 57.95-9.335 57.95-20.823 0-.362-.019-.743-.076-1.105h.076z" transform="translate(839.622 109.766)"/>
                <path fill="url(#W)" d="M68.343 120.024c.114 6.059-5.702 19.052-5.702 19.052s-5.72-12.784-5.835-18.823c-.114-6.059 2.365-11.012 5.568-11.07 3.166-.056 5.854 4.802 5.969 10.841z" transform="translate(839.622 109.766)"/>
                <path fill="url(#X)" d="M92.045 147.249c-2.478 5.163-13.233 13.545-13.233 13.545s.343-13.374 2.822-18.537c2.479-5.163 6.827-8.249 9.687-6.858 2.88 1.371 3.203 6.687.724 11.85z" transform="translate(839.622 109.766)"/>
                <path fill="url(#Y)" d="M85.467 95.79c-.305 6.04-7.018 18.614-7.018 18.614s-4.824-13.145-4.519-19.185c.305-6.04 3.127-10.821 6.312-10.65 3.184.134 5.51 5.163 5.225 11.222z" transform="translate(839.622 109.766)"/>
                <path fill="url(#Z)" d="M48.015 78.206c.992 5.963-2.879 19.68-2.879 19.68s-7.513-11.812-8.505-17.775c-.991-5.963.744-11.24 3.89-11.754 3.147-.515 6.503 3.886 7.494 9.85z" transform="translate(839.622 109.766)"/>
                <path fill="url(#aa)" d="M52.992 209.909c.115 6.058-5.701 19.051-5.701 19.051s-5.72-12.783-5.835-18.822c-.115-6.059 2.364-11.012 5.568-11.07 3.184-.056 5.854 4.802 5.968 10.841z" transform="translate(839.622 109.766)"/>
                <path fill="url(#ab)" d="M69.887 168.567c.096 4.496-4.252 14.175-4.252 14.175s-4.252-9.507-4.348-14.022c-.095-4.496 1.774-8.192 4.138-8.23 2.384-.039 4.386 3.581 4.462 8.077z" transform="translate(839.622 109.766)"/>
                <path fill="url(#ac)" d="M44.64 151.516c.115 6.059-5.701 19.052-5.701 19.052s-5.721-12.784-5.835-18.823c-.115-6.058 2.364-11.012 5.568-11.069 3.184-.076 5.854 4.782 5.968 10.84z" transform="translate(839.622 109.766)"/>
                <path fill="url(#ad)" d="M22.253 184.59c.115 5.6-5.282 17.622-5.282 17.622S11.69 190.4 11.575 184.8c-.115-5.601 2.193-10.173 5.148-10.23 2.956-.058 5.416 4.42 5.53 10.02z" transform="translate(839.622 109.766)"/>
                <path fill="url(#ae)" d="M95.974 193.6c.114 5.602-5.282 17.624-5.282 17.624s-5.283-11.812-5.397-17.413c-.114-5.602 2.193-10.174 5.149-10.231 2.955-.057 5.415 4.42 5.53 10.02z" transform="translate(839.622 109.766)"/>
                <path fill="url(#af)" d="M63.785 77.654c.115 6.058-5.701 19.051-5.701 19.051s-5.72-12.783-5.835-18.823c-.115-6.058 2.364-11.011 5.568-11.069 3.165-.076 5.854 4.782 5.968 10.84z" transform="translate(839.622 109.766)"/>
                <path fill="url(#ag)" d="M77.057 55.402c.115 6.058-5.701 19.051-5.701 19.051S65.636 61.67 65.52 55.63c-.115-6.039 2.364-11.011 5.568-11.069 3.184-.076 5.854 4.782 5.968 10.84z" transform="translate(839.622 109.766)"/>
                <path fill="url(#ah)" d="M56.749 37.436c.114 5.677-5.358 17.87-5.358 17.87s-5.359-11.983-5.473-17.66c-.115-5.678 2.23-10.326 5.206-10.383 3.013-.038 5.53 4.515 5.625 10.173z" transform="translate(839.622 109.766)"/>
                <path fill="url(#ai)" d="M37.947 113.718c.114 6.059-5.702 19.052-5.702 19.052s-5.72-12.784-5.835-18.823c-.114-6.059 2.365-11.012 5.569-11.07 3.184-.056 5.854 4.783 5.968 10.841z" transform="translate(839.622 109.766)"/>
            </g>
            <g fill-rule="nonzero">
                <path fill="url(#aj)" d="M55.548 235.362h9.915a3.632 3.632 0 0 1 3.624 3.62v65.994c0 2-1.64 3.62-3.624 3.62h-9.915a3.632 3.632 0 0 1-3.623-3.62v-65.994c0-2 1.64-3.62 3.623-3.62z" transform="translate(553.208 130.341)"/>
                <path fill="url(#j)" d="M115.9 253.118L57.379.058 0 253.117h.076A7.015 7.015 0 0 0 0 254.223c0 11.507 25.953 20.823 57.95 20.823 32.017 0 57.95-9.335 57.95-20.823 0-.362-.018-.743-.076-1.105h.077z" transform="translate(553.208 130.341)"/>
                <path fill="url(#ak)" d="M67.695 137.247c.114 6.058-5.702 19.051-5.702 19.051s-5.72-12.783-5.835-18.823c-.115-6.058 2.364-11.011 5.568-11.069 3.204-.057 5.854 4.801 5.969 10.84z" transform="translate(553.208 130.341)"/>
                <path fill="url(#al)" d="M86.763 138.561c.058 5.735-5.873 18.004-5.873 18.004s-5.606-12.136-5.663-17.87c-.057-5.735 2.479-10.402 5.663-10.44 3.185-.039 5.816 4.59 5.873 10.306z" transform="translate(553.208 130.341)"/>
                <path fill="url(#am)" d="M81.138 101.906c-.515 6.02-7.647 18.366-7.647 18.366s-4.366-13.298-3.851-19.337c.514-6.02 3.508-10.707 6.674-10.422 3.165.286 5.339 5.354 4.824 11.393z" transform="translate(553.208 130.341)"/>
                <path fill="url(#an)" d="M50.971 67.156c-.305 6.04-7.036 18.614-7.036 18.614s-4.806-13.146-4.5-19.185c.305-6.04 3.146-10.802 6.33-10.65 3.185.152 5.511 5.182 5.206 11.221z" transform="translate(553.208 130.341)"/>
                <path fill="url(#ao)" d="M52.554 202.44c.114 6.06-5.702 19.052-5.702 19.052s-5.72-12.783-5.835-18.823c-.114-6.058 2.365-11.011 5.568-11.068 3.204-.058 5.854 4.8 5.969 10.84z" transform="translate(553.208 130.341)"/>
                <path fill="url(#ap)" d="M42.638 100.04c-.02 4.495-4.557 14.078-4.557 14.078s-4.043-9.602-4.024-14.098c.02-4.496 1.945-8.154 4.329-8.135 2.383.02 4.252 3.658 4.252 8.154z" transform="translate(553.208 130.341)"/>
                <path fill="url(#aq)" d="M44.964 134.218c.134 6.058-5.663 19.07-5.663 19.07s-5.759-12.764-5.873-18.823c-.134-6.058 2.345-11.012 5.53-11.088 3.184-.057 5.873 4.782 6.006 10.84z" transform="translate(553.208 130.341)"/>
                <path fill="url(#ar)" d="M32.398 178.836c.114 5.601-5.282 17.623-5.282 17.623s-5.282-11.812-5.397-17.413c-.114-5.602 2.193-10.174 5.149-10.231 2.956-.057 5.416 4.42 5.53 10.021z" transform="translate(553.208 130.341)"/>
                <path fill="url(#as)" d="M95.802 193.563c.114 5.601-5.282 17.622-5.282 17.622s-5.282-11.811-5.397-17.413c-.114-5.6 2.193-10.173 5.15-10.23 2.955-.057 5.434 4.439 5.529 10.02z" transform="translate(553.208 130.341)"/>
                <path fill="url(#at)" d="M63.023 93.638c.114 6.058-5.702 19.051-5.702 19.051s-5.72-12.783-5.835-18.822c-.114-6.059 2.365-11.012 5.568-11.07 3.166-.076 5.854 4.783 5.969 10.84z" transform="translate(553.208 130.341)"/>
                <path fill="url(#au)" d="M73.51 53.554c-.362 6.039-7.227 18.537-7.227 18.537s-4.671-13.203-4.29-19.242c.381-6.04 3.26-10.783 6.426-10.574 3.185.172 5.454 5.24 5.092 11.279z" transform="translate(553.208 130.341)"/>
                <path fill="url(#av)" d="M57.931 30.463c.115 5.678-5.358 17.87-5.358 17.87S47.215 36.35 47.1 30.674c-.114-5.677 2.231-10.326 5.206-10.383 3.013-.057 5.51 4.496 5.625 10.173z" transform="translate(553.208 130.341)"/>
                <path fill="url(#aw)" d="M55.185 160.299c.115 6.058-5.701 19.051-5.701 19.051s-5.72-12.783-5.835-18.822c-.115-6.059 2.364-11.012 5.568-11.07 3.203-.056 5.854 4.802 5.968 10.841z" transform="translate(553.208 130.341)"/>
            </g>
            <g fill-rule="nonzero">
                <path fill="url(#j)" d="M115.996 253.099L57.474.039.095 253.098h.077a7.015 7.015 0 0 0-.077 1.105c0 11.507 25.953 20.823 57.95 20.823 32.017 0 57.951-9.335 57.951-20.823 0-.362-.02-.743-.076-1.105h.076z" transform="translate(411.145 314.378)"/>
                <path fill="url(#ax)" d="M82.606 99.982c-1.315 5.906-10.049 17.165-10.049 17.165s-2.536-13.774-1.22-19.68c1.315-5.906 4.9-10.135 8.028-9.43 3.108.705 4.576 6.04 3.241 11.945z" transform="translate(411.145 314.378)"/>
                <path fill="url(#ay)" d="M86.477 143.115c-.762 5.677-8.409 16.974-8.409 16.974s-3.795-12.821-3.032-18.499c.763-5.677 3.947-9.944 7.094-9.525 3.146.419 5.11 5.372 4.347 11.05z" transform="translate(411.145 314.378)"/>
                <path fill="url(#az)" d="M70.421 82.702c-.8 6.002-8.523 17.966-8.523 17.966s-3.719-13.489-2.918-19.49c.8-6 4.004-10.516 7.17-10.097 3.165.42 5.072 5.62 4.271 11.621z" transform="translate(411.145 314.378)"/>
                <path fill="url(#aA)" d="M46.89 94.076c.992 5.963-2.879 19.68-2.879 19.68s-7.513-11.812-8.505-17.775c-.991-5.963.744-11.24 3.89-11.754 3.147-.515 6.503 3.886 7.494 9.85z" transform="translate(411.145 314.378)"/>
                <path fill="url(#aB)" d="M69.811 164.795c.095 4.496-4.252 14.174-4.252 14.174s-4.253-9.506-4.348-14.021c-.095-4.497 1.773-8.193 4.138-8.23 2.384-.039 4.386 3.581 4.462 8.077z" transform="translate(411.145 314.378)"/>
                <path fill="url(#aC)" d="M45.727 159.156c.115 6.058-5.701 19.051-5.701 19.051s-5.721-12.783-5.836-18.822c-.114-6.059 2.365-11.012 5.569-11.07 3.203-.057 5.854 4.802 5.968 10.84z" transform="translate(411.145 314.378)"/>
                <path fill="url(#aD)" d="M52.859 60.717c.572 6.02-4.233 19.432-4.233 19.432s-6.674-12.307-7.266-18.327c-.59-6.02 1.526-11.145 4.691-11.45 3.185-.305 6.236 4.325 6.808 10.345z" transform="translate(411.145 314.378)"/>
                <path fill="url(#aE)" d="M72.347 49.553c-.457 4.953-6.56 15.05-6.56 15.05s-3.68-10.973-3.241-15.927c.458-4.953 3.013-8.782 5.72-8.535 2.69.248 4.52 4.458 4.081 9.412z" transform="translate(411.145 314.378)"/>
                <path fill="url(#aF)" d="M59.228 29.015c.095 4.725-5.625 14.88-5.625 14.88s-5.511-9.945-5.607-14.67c-.095-4.725 2.346-8.592 5.454-8.65 3.108-.057 5.702 3.716 5.778 8.44z" transform="translate(411.145 314.378)"/>
                <path fill="url(#aG)" d="M46.337 126.483c.115 6.058-5.701 19.051-5.701 19.051s-5.72-12.783-5.835-18.823c-.115-6.058 2.364-11.011 5.568-11.069 3.203-.057 5.854 4.782 5.968 10.84z" transform="translate(411.145 314.378)"/>
            </g>
            <path fill="url(#aH)" fill-rule="nonzero" d="M595.225 6.001l62.756 36.427-5.073 2.934-57.683-33.474V6.001" opacity=".19" transform="translate(399.275 36.036)"/>
        </g>
        <g mask="url(#b)">
            <path fill="url(#aI)" fill-rule="nonzero" d="M210.559 99.201l-5.11-2.858L.113 214.5l5.263 3.03z" transform="translate(685.927 265.035)"/>
            <path stroke="#FDFDFD" d="M905.334 341.85l-57.016 33.283-9.363-5.6 66.436-38.542z"/>
            <path fill="url(#aJ)" fill-rule="nonzero" d="M123.967 263.615L.153 192.535v-87.81l123.928 71.33z" transform="translate(685.927 265.035)"/>
            <path fill="url(#aK)" fill-rule="nonzero" d="M123.967 283.01L9.649 217.357v-19.432l114.318 65.499z" transform="translate(685.927 265.035)"/>
            <path fill="url(#aI)" fill-rule="nonzero" d="M238.59.038L29.1 121.091l94.981 54.925 209.853-121.11z" transform="translate(685.927 265.035)"/>
            <path fill="url(#aL)" fill-rule="nonzero" d="M333.934 142.867L123.967 263.615l.114-87.56 209.853-121.11z" transform="translate(685.927 265.035)"/>
            <path fill="url(#aM)" fill-rule="nonzero" d="M329.396 278.932l-205.41 114.195.095-107.05 205.315-118.481z" transform="translate(685.927 265.035)"/>
            <path fill="url(#aN)" fill-rule="nonzero" d="M324.4 167.881L123.967 283.2v-19.585l200.375-115.052z" transform="translate(685.927 265.035)"/>
            <path fill="url(#aO)" fill-rule="nonzero" d="M329.415 167.672l-5.13-2.858-205.314 118.157 5.11 3.068z" transform="translate(685.927 265.035)"/>
            <path fill="url(#aI)" fill-rule="nonzero" d="M124.081 286.039L.133 214.519l5.13-2.933 118.818 68.451z" transform="translate(685.927 265.035)"/>
        </g>
        <g fill-rule="nonzero" mask="url(#b)">
            <path fill="url(#aP)" d="M493.903 129.626a2.192 2.192 0 0 1-2.193-2.19V11.277c0-3.029-.915-5.239-2.574-6.191-1.66-.953-4.024-.648-6.655.876l-23.684 13.68a2.189 2.189 0 0 1-2.994-.801 2.184 2.184 0 0 1 .801-2.991l23.684-13.66c4.042-2.343 7.97-2.648 11.04-.876 3.07 1.771 4.749 5.315 4.749 9.983v116.156c.019 1.181-.973 2.172-2.174 2.172z" transform="translate(304.55 40.037)"/>
            <path fill="url(#aQ)" d="M438.622 252.699L.02 495.929s12.052 21.3 51.429 21.585C91.664 517.8 86.4 545.08 86.4 545.08l427.086-247.23-74.865-45.152z" transform="translate(304.55 40.037)"/>
            <path fill="url(#aR)" d="M604.922 167.996l-128.048 73.577-162.085-93.505 122.384-70.529z" transform="translate(304.55 40.037)"/>
            <path fill="url(#aQ)" d="M476.893 395.585L314.77 302.042l.019-153.974 162.085 93.505z" transform="translate(304.55 40.037)"/>
            <path fill="url(#aS)" d="M444.82 376.971l-6.427 2.8-106.06-66.603v-67.233c0-80.073 112.468-55.058 112.468 41.532l.019 89.504z" transform="translate(304.55 40.037)"/>
            <path fill="url(#aR)" d="M438.413 379.772l-112.469-65.08v-66.451c0-79.14 112.469-54.411 112.469 41.055v90.476z" transform="translate(304.55 40.037)"/>
            <path fill="#1C1835" d="M734.286 401.367l-93.438-52.83v-59.154c0-68.814 93.419-39.19 93.419 35.093v76.891h.019z"/>
            <path fill="url(#aT)" d="M604.788 321.627l-127.895 73.958-.019-154.012 128.048-73.577z" transform="translate(304.55 40.037)"/>
            <path fill="url(#aU)" d="M238.533 460.13l169.865-97.676-3.814-2.229-166.051 95.79z" transform="translate(304.55 40.037)"/>
            <path fill="url(#aV)" d="M561.979 192.63l-85.105 48.943-125.396-72.339 90.005-136.618 31.273-11.869z" opacity=".7" transform="translate(304.55 40.037)"/>
            <path fill="url(#aW)" d="M.839 21.319l2.346-5.43L30.796 4.306l2.25 3.6c1.354 1.277 1.068 2.972-.858 4.096L9.973 24.748c-2.27 1.01-5.53.914-7.608-.286C.877 23.605.38 22.405.839 21.32z" transform="translate(744.278 50.135)"/>
            <path fill="url(#aX)" d="M.172 19.242l2.421-5.64 28.66-12.02 2.327 3.733c1.392 1.334 1.125 3.087-.877 4.249L9.63 22.804c-2.365 1.048-5.74.953-7.895-.285-1.525-.896-2.04-2.134-1.563-3.277z" transform="translate(744.278 50.135)"/>
            <path fill="url(#aY)" d="M30.415.914c-2.002-1.162-5.244-1.162-7.246 0L4.043 11.945c-2.003 1.162-2.003 3.03 0 4.192 1.83 1.066 4.671 1.105 6.674.21l.095.056L30.415 5.106c2.002-1.162 2.002-3.03 0-4.192z" transform="translate(744.278 50.135)"/>
        </g>
        <g fill-rule="nonzero" mask="url(#b)">
            <path fill="url(#aZ)" d="M86.744 44.028L52.802 63.784l-.172-44.142L86.744.038z" transform="translate(777.076 256.08)"/>
            <path fill="url(#aR)" d="M102.877 90.075l-33.981 19.642c-2.937 1.696-2.937 5.944 0 7.64l346.939 200.117-46.147 28.005L12.09 140.123c-15.866-9.106-15.98-31.968-.172-41.208l44.106-25.834c2.88-1.695 2.88-5.867 0-7.544l-3.241-1.886-.134-43.99L84.4 38.484l6.502 3.639 11.976 6.915c15.789 9.088 15.808 31.893 0 41.037z" transform="translate(777.076 256.08)"/>
            <path fill="url(#ba)" d="M52.764 63.746l.038-5.334 33.16-19.07-33.332-19.7z" opacity=".3" transform="translate(777.076 256.08)"/>
            <path fill="url(#bb)" d="M113.403 77.387c-2.441 7.583-9.42 12.002-9.42 12.002l-33.18 18.957v.019l-1.564.857s-2.994 1.696-2.994 4.458c0 2.4 2.098 3.334 2.098 3.334s-.496-1.22 1.563-2.381l34.058-19.814s5.53-3.391 8.104-7.963c3.108-5.525 2.612-8.516 2.612-16.823.038 0 .172 2.896-1.277 7.354z" transform="translate(777.076 256.08)"/>
            <path fill="url(#bc)" d="M52.802 58.412l2.974 1.657s2.69 1.029 2.384 8.84c0 0 .02-2.038-2.784-3.696-1.201-.705-2.631-1.524-2.631-1.524l.057-5.277" transform="translate(777.076 256.08)"/>
            <path fill="url(#bd)" d="M12.929 140.695S.114 132.56.114 119.929c0 9.278.496 14.689 4.234 20.137 3.394 4.954 11.517 9.24 11.517 9.24l353.232 203.127v-6.954L12.93 140.695z" transform="translate(777.076 256.08)"/>
        </g>
        <g fill-rule="nonzero" mask="url(#b)">
            <path fill="url(#be)" d="M258.421 181.922l-.228-32.92 47.958.59v4.706s-4.348 2.82-9.783 5.696c-5.434 2.877-15.712 1.734-23.264 5.887-7.532 4.134-14.683 16.041-14.683 16.041z" transform="translate(179.649 104.431)"/>
            <path fill="url(#bf)" d="M379.032 252.07l-111.076-64.432v-5.01l114.394 66.05z" transform="translate(179.649 104.431)"/>
            <path fill="url(#bg)" d="M258.364 177.179L.038 27.739 47.71.152l258.422 149.402s-4.253 2.705-9.687 5.601c-5.435 2.877-15.713 1.734-23.264 5.887-7.513 4.172-14.817 16.137-14.817 16.137z" transform="translate(179.649 104.431)"/>
            <path fill="url(#bh)" d="M382.35 248.679l-114.394-66.033s4.386-8.801 10.64-13.488c6.217-4.649 22.33-6.668 27.383-8.497 5.034-1.829 9.668-5.601 9.668-5.601l114.509 66.013-47.806 27.606z" transform="translate(179.649 104.431)"/>
            <path fill="url(#bi)" d="M293.966 42.523c-.343-3.125-1.469-5.315-3.356-6.573-3.185-2.096-7.113-.438-7.285-.362l-15.064 6.42 1.411 3.334 15.064-6.42c.02-.019 2.365-.933 3.871.057 1.164.781 1.793 2.667 1.831 5.487v101.45c0 .99.82 1.809 1.812 1.809.991 0 1.811-.82 1.811-1.81V43.152c.02-.23-.019-.439-.095-.63z" transform="translate(179.649 104.431)"/>
            <path fill="url(#bj)" d="M5.797.667C9.954-1.22 16.876 2.762 16.876 6.954c0 0-3.337 24.348-6.522 26.443C7.19 35.493.057 31.416.057 27.225V12.04C.038 7.868 1.316 2.705 5.797.667z" transform="translate(441.274 145.582)"/>
            <path fill="url(#bk)" d="M11.327 2.267c3.528-2.076 6.178-.419 6.178 4.077v14.689c0 7.087-2.65 10.669-5.892 12.46-3.49 1.924-6.483.228-6.483-4.287V14.517c0-4.515 1.563-9.526 6.197-12.25z" transform="translate(441.274 145.582)"/>
            <path fill="url(#bl)" d="M11.708 3.448c2.994-1.733 5.073-.38 5.073 3.734v13.413c0 4.115-.878 8.916-4.73 11.773-2.784 2.077-5.415-.21-5.415-4.324V14.632c0-4.116.934-8.783 5.072-11.184z" transform="translate(441.274 145.582)"/>
            <g>
                <path fill="url(#bm)" d="M0 5.773c0 1.943 1.373 2.724 3.051 1.752 1.678-.971 3.051-3.334 3.051-5.277S4.729-.476 3.051.495C1.373 1.467 0 3.83 0 5.773z" transform="translate(450.045 151.679)"/>
                <path fill="url(#bn)" d="M0 13.831c0 1.944 1.373 2.725 3.051 1.753 1.678-.972 3.051-3.334 3.051-5.277S4.729 7.582 3.051 8.554C1.373 9.526 0 11.888 0 13.831z" transform="translate(450.045 151.679)"/>
                <path fill="url(#bo)" d="M0 21.91c0 1.942 1.373 2.724 3.051 1.752 1.678-.972 3.051-3.334 3.051-5.277 0-1.944-1.373-2.725-3.051-1.753C1.373 17.604 0 19.966 0 21.909z" transform="translate(450.045 151.679)"/>
                <path fill="url(#bp)" d="M2.479 6.763C4.157 5.792 5.53 3.43 5.53 1.486c0-.495-.095-.914-.248-1.238.63.285 1.03.971 1.03 2.02 0 1.942-1.373 4.305-3.051 5.276-1.259.724-2.327.477-2.803-.514.534.229 1.24.171 2.021-.267z" transform="translate(449.855 151.679)"/>
                <path fill="url(#bq)" d="M2.479 14.822c1.678-.972 3.051-3.334 3.051-5.277 0-.496-.095-.915-.248-1.239.63.286 1.03.972 1.03 2.02 0 1.943-1.373 4.306-3.051 5.277-1.259.724-2.327.476-2.803-.514.534.228 1.24.171 2.021-.267z" transform="translate(449.855 151.679)"/>
                <path fill="url(#br)" d="M2.479 22.88c1.678-.97 3.051-3.333 3.051-5.276 0-.496-.095-.915-.248-1.239.63.286 1.03.972 1.03 2.02 0 1.943-1.373 4.305-3.051 5.277-1.259.724-2.327.476-2.803-.514.534.247 1.24.19 2.021-.267z" transform="translate(449.855 151.679)"/>
                <path fill="url(#bs)" d="M.19 5.773c.02.362.191-.877 2.022-1.486 1.525-.515 1.22-2.172 2.098-2.649 1.678-.933 1.983.63 1.983.63C6.293.21 4.92-.458 3.242.513 1.564 1.467.133 3.83.19 5.773z" transform="translate(449.855 151.679)"/>
                <path fill="url(#bt)" d="M.172 13.85c.019.362.19-.876 2.02-1.486 1.526-.514 1.221-2.171 2.098-2.648 1.679-.933 1.984.629 1.984.629 0-2.058-1.373-2.724-3.051-1.753C1.545 9.564.114 11.926.172 13.85z" transform="translate(449.855 151.679)"/>
                <path fill="url(#bu)" d="M.172 21.871c.019.362.19-.876 2.02-1.486 1.526-.514 1.221-2.172 2.098-2.648 1.679-.934 1.984.629 1.984.629 0-2.058-1.373-2.725-3.051-1.753-1.678.971-3.109 3.315-3.051 5.258z" transform="translate(449.855 151.679)"/>
            </g>
        </g>
        <path fill="url(#bv)" fill-rule="nonzero" d="M639.971 355.13l91.55-51.916-.458-1.638-90.215 51.42z" mask="url(#b)" opacity=".41"/>
        <g mask="url(#b)">
            <g transform="translate(512 250)">
                <mask id="bx" fill="#fff">
                    <use xlink:href="#bw"/>
                </mask>
                <g fill-rule="nonzero" mask="url(#bx)">
                    <path fill="#000" d="M33.39 179.887L372.3-20.706l48.016 27.701L92.351 198.863c-13.158 8.02-27.269 5.467-31.655 4.42-5.13-1.2-39.282-15.947-27.306-23.396z" opacity=".2"/>
                    <path fill="#292A29" d="M338.892 31.705l-2.46-1.448c-1.392-.762-3.318-.629-5.415.59-4.29 2.477-7.761 8.498-7.761 13.451 0 2.439.839 4.153 2.212 4.992l2.498 1.467c1.41.876 3.394.8 5.606-.477 4.29-2.476 7.76-8.497 7.76-13.45 0-2.572-.953-4.344-2.44-5.125z"/>
                    <path fill="#535352" d="M341.333 36.83c0 4.953-3.47 10.974-7.761 13.45-4.29 2.477-7.761.477-7.761-4.477 0-4.953 3.49-10.974 7.76-13.431 4.272-2.496 7.762-.495 7.762 4.458z"/>
                    <path fill="#525251" d="M338.93 37.725c0 3.734-2.631 8.288-5.873 10.155-3.242 1.867-5.873.362-5.873-3.391 0-3.735 2.631-8.288 5.873-10.155 3.26-1.848 5.873-.343 5.873 3.391z"/>
                    <path fill="url(#by)" d="M10.316 21.204a9.628 9.628 0 0 0-1.563 1.143 6.859 6.859 0 0 1 1.087-.743c3.241-1.867 5.873-.362 5.873 3.392 0 3.734-2.632 8.287-5.873 10.154-3.242 1.867-5.855.362-5.874-3.353 0 .152-.019.305-.019.438 0 4.058 2.86 5.716 6.37 3.677 3.527-2.039 6.368-6.973 6.368-11.03.02-4.059-2.841-5.716-6.369-3.678z" transform="translate(323.237 12.749)"/>
                    <path fill="#292A29" d="M335.975 40.545c0 1.429-1.011 3.162-2.232 3.867-1.239.705-2.23.134-2.23-1.295 0-1.429 1.01-3.163 2.23-3.868 1.22-.704 2.232-.133 2.232 1.296z"/>
                    <path fill="#525251" d="M335.67 40.412c0 1.333-.935 2.953-2.098 3.62-1.163.666-2.098.133-2.098-1.2 0-1.334.935-2.954 2.098-3.62 1.163-.667 2.097-.134 2.097 1.2z"/>
                    <path fill="#292A29" d="M368.22 14.787l-2.46-1.448c-1.392-.762-3.318-.628-5.415.591-4.291 2.477-7.762 8.497-7.762 13.45 0 2.439.84 4.173 2.212 4.992l2.499 1.467c1.41.876 3.394.8 5.606-.476 4.29-2.477 7.76-8.497 7.76-13.45 0-2.573-.934-4.345-2.44-5.126z"/>
                    <path fill="#535352" d="M370.66 19.912c0 4.954-3.47 10.974-7.76 13.45-4.29 2.477-7.761.477-7.761-4.477 0-4.953 3.49-10.973 7.76-13.45 4.272-2.496 7.762-.476 7.762 4.477z"/>
                    <path fill="#525251" d="M368.277 20.808c0 3.734-2.631 8.287-5.873 10.154-3.242 1.867-5.873.362-5.873-3.391 0-3.734 2.631-8.287 5.873-10.155 3.242-1.867 5.873-.342 5.873 3.392z"/>
                    <path fill="url(#bz)" d="M10.469 4.287A9.628 9.628 0 0 0 8.905 5.43a6.859 6.859 0 0 1 1.087-.743c3.242-1.867 5.873-.343 5.873 3.39 0 3.735-2.631 8.288-5.873 10.155-3.242 1.867-5.854.362-5.873-3.353 0 .153-.02.305-.02.457 0 4.058 2.861 5.716 6.37 3.677 3.528-2.038 6.369-6.972 6.369-11.03.019-4.077-2.841-5.735-6.37-3.696z" transform="translate(352.412 12.749)"/>
                    <path fill="#292A29" d="M365.302 23.627c0 1.43-1.01 3.163-2.23 3.868-1.24.705-2.232.133-2.232-1.296s1.011-3.162 2.231-3.867c1.22-.724 2.231-.134 2.231 1.295z"/>
                    <path fill="#525251" d="M364.997 23.494c0 1.333-.934 2.953-2.097 3.62-1.163.666-2.098.133-2.098-1.2 0-1.334.935-2.954 2.098-3.62 1.163-.667 2.097-.134 2.097 1.2z"/>
                    <path fill="#292A29" d="M365.035 17.74l-5.167 2.4L353.632 23l-4.157-1.563-10.716 6.192 1.258 3.467-4.023 2.82-5.187 3.563-1.316 3.01.515 3.22 1.258.742-.514-3.2 1.315-3.03 5.168-3.562h.02l7.398-5.182 8.733-5.049 7.742-3.543 5.168-2.4z"/>
                    <path fill="#292A29" d="M344.594 37.478c0 .743.724.933 1.582.419l5.816-3.353c.878-.515 1.583-1.524 1.583-2.267l1.278-4.82c0-.743-.725-.934-1.583-.42l-.687.4-.972 3.64c0 .742-.725 1.752-1.583 2.266l-5.759 3.315.325.82zM332.866 40.735l-.057 1.239 4.024-2.153 3.546 1.848c.172-.495.325-.972.458-1.467l-3.604-1.924-4.367 2.457zM360.078 26.18l4.48-2.743 1.069 1.2-.134-2.724-4.367 2.572z"/>
                    <path fill="#525251" d="M366.294 18.483l-5.168 2.4-7.742 3.544-8.733 5.049-7.399 5.182-5.168 3.563-1.315 3.01.515 3.2 1.468-.857.114-2.858 4.386-2.476 6.865 3.677 9.61-5.544 7.418-11.907 4.386-2.591.115 2.724 1.487-.857.515-3.81-1.354-1.449zm-12.7 13.813c0 .743-.724 1.752-1.583 2.267l-5.816 3.353c-.877.514-1.582.324-1.582-.42l-1.278-3.333c0-.743.725-1.753 1.583-2.267l8.371-4.84c.877-.514 1.583-.323 1.583.42l-1.278 4.82z"/>
                    <path fill="url(#bA)" d="M30.949 280.056s-9.725-3.753-15.236-7.449c-5.702-3.829-11.976-26.615-11.976-26.615-.095.191-2.02 5.525-2.421 8.955-.82 7.296.896 12.06.896 12.06s5.606 6.324 11.308 10.154c5.51 3.696 17.791 7.182 17.791 7.182s12.452 8.059 34.19-6.42L298.696 141l-3.642-2.248L58.618 277.008c-13.768 7.697-27.67 3.048-27.67 3.048z" transform="translate(30.72 -92.987)"/>
                    <path fill="url(#bB)" d="M51.124 275.827c-12.662 2.02-19.355-2.591-19.355-2.591s-14.264-7.373-18.783-10.192c-2.708-1.696-4.176-3.03-4.92-3.81-.114.38-3.032-13.26-3.737-15.337-.134-.381-2.289 8.802-2.098 11.526.458 6.516 3.47 9.087 5.034 10.783 1.335 1.448 4.5 3.791 8.448 6.44 5.51 3.695 15.236 7.449 15.236 7.449s13.901 4.896 27.688-3.03l9.191-5.296 4.958-8.44-21.662 12.498z" transform="translate(30.72 -92.987)"/>
                    <path fill="url(#bC)" d="M31.311 284.362c-4.233-1.79-8.371-3.372-12.547-5.544-6.35-3.296-13.501-7.087-16.342-14.136-.4-.972-.668-1.981-.858-3.01-.42-2.191-.305-5.582-.21-7.05-.725 2.573-.877 4.859-1.068 6.878-.324 3.525-.42 7.011 1.411 10.25 2.517 4.458 6.998 7.85 11.232 10.593 4.824 3.124 10.507 5.62 15.846 7.715 9.4 3.716 21.529 2.915 30.243-2.324L300.22 144.467l-1.525-3.429-236.76 137.933c-16.246 10.65-30.605 5.391-30.624 5.391z" transform="translate(30.72 -92.987)"/>
                    <path fill="url(#bD)" d="M87.278 202.688l3.223-1.619L385.649 30.597v52.22L51.105 275.789s-1.812-51.191 36.173-73.1z" transform="translate(30.72 -92.987)"/>
                    <path fill="url(#bE)" d="M291.296 141.59L67.828 271.731l4.157-8.02 227.473-131.17z" transform="translate(30.72 -92.987)"/>
                    <path fill="#A8B1B7" d="M416.369-10.17L384.333 8.31l-.267 4.496 28.66-16.537z"/>
                    <path fill="url(#bF)" d="M133.177 190.915l-26.963 15.546s-5.359 2.915-7.933 9.62l-8.62 22.615 43.497-25.091v-22.69h.019z" transform="translate(30.72 -92.987)"/>
                    <path fill="url(#bG)" d="M154.916 178.379v22.69L357.16 84.398V61.727z" transform="translate(30.72 -92.987)"/>
                    <path fill="url(#bH)" d="M187.542 177.255c0 1.429-1.01 3.181-2.25 3.905l-20.213 11.66c-1.24.724-2.25.133-2.25-1.296v-13.03c0-1.43 1.01-3.182 2.25-3.906l20.213-11.66c1.24-.724 2.25-.133 2.25 1.296v13.03z" transform="translate(30.72 -92.987)"/>
                    <path fill="url(#bI)" d="M217.69 159.86c0 1.43-1.01 3.182-2.25 3.906l-20.213 11.66c-1.24.724-2.25.133-2.25-1.296V161.1c0-1.43 1.01-3.182 2.25-3.906l20.213-11.66c1.24-.724 2.25-.133 2.25 1.296v13.03z" transform="translate(30.72 -92.987)"/>
                    <path fill="#313E42" d="M278.577 49.48c0 1.429-1.01 3.182-2.25 3.906l-20.213 11.66c-1.24.723-2.25.132-2.25-1.296V50.718c0-1.428 1.01-3.181 2.25-3.905l20.213-11.66c1.24-.724 2.25-.133 2.25 1.296V49.48zM308.725 32.086c0 1.429-1.01 3.182-2.25 3.906l-20.213 11.66c-1.24.723-2.25.132-2.25-1.296V33.324c0-1.428 1.01-3.181 2.25-3.905l20.213-11.66c1.24-.724 2.25-.133 2.25 1.296v13.031zM338.892 14.692c0 1.429-1.01 3.182-2.25 3.906l-20.213 11.66c-1.24.723-2.25.133-2.25-1.296V15.93c0-1.428 1.01-3.181 2.25-3.905L336.642.365c1.24-.724 2.25-.133 2.25 1.296v13.031zM369.04-2.702c0 1.429-1.01 3.182-2.25 3.906l-20.213 11.66c-1.24.723-2.25.133-2.25-1.296V-1.464c0-1.428 1.01-3.181 2.25-3.905l20.213-11.66c1.24-.724 2.25-.133 2.25 1.296v13.031z"/>
                    <path fill="url(#bJ)" d="M153.237 202.022l-18.382 10.611v-22.69l18.382-10.593z" transform="translate(30.72 -92.987)"/>
                    <path fill="#161D1F" d="M407.94-20.153L389.54-9.541v-22.69l18.401-10.612z"/>
                    <path fill="#313E42" d="M403.097-19.734L394-14.494v-17.68l9.096-5.259z"/>
                    <path fill="url(#bK)" d="M98.357 204.918s-19.45 8.554-25.552 17.355c-6.121 8.802-9.668 17.814-11.899 25.358-2.231 7.563 2.136 5.068 2.136 5.068l12.89-7.43s6.236-3.315 7.952-7.469c2.288-5.6 14.34-32.578 14.473-32.882z" transform="translate(30.72 -92.987)"/>
                    <path fill="url(#bL)" d="M151.445 174.645l-14.778 8.516c-1.125.647-2.04 2.229-2.04 3.505v38.903c0 1.296.915 1.81 2.04 1.162l14.778-8.535c1.125-.647 2.04-2.229 2.04-3.505v-38.903c-.019-1.258-.934-1.791-2.04-1.143zm1.564 40.332c0 1.01-.706 2.229-1.583 2.724l-14.778 8.535c-.878.495-1.583.095-1.583-.914v-38.903c0-1.01.705-2.23 1.583-2.725l14.778-8.535c.877-.495 1.583-.095 1.583.915v38.903z" opacity=".68" transform="translate(30.72 -92.987)"/>
                    <path fill="#90908F" d="M406.129-47.53l-14.778 8.535c-1.126.648-2.04 2.23-2.04 3.506V3.414c0 1.295.914 1.81 2.04 1.162l14.778-8.535c1.125-.648 2.04-2.23 2.04-3.506v-38.903c0-1.295-.915-1.81-2.04-1.162zm1.583 40.332c0 1.01-.706 2.229-1.583 2.724L391.35 4.061c-.878.496-1.583.096-1.583-.914v-38.903c0-1.01.705-2.23 1.583-2.725l14.778-8.535c.877-.495 1.583-.095 1.583.915v38.903z"/>
                    <path fill="url(#bD)" d="M87.278 202.688l3.204-1.848c-.286-5.258-10.927-15.47-23.989-23.014-9.954-5.734-26.239-2.667-29.88-1.41C4.556 204.06 2.764 244.774 4.652 252.49c.915 3.772 1.869 7.392 8.257 12.193 10.278 7.716 24.79 13.812 38.195 11.088 0 .019-1.812-51.172 36.173-73.082z" transform="translate(30.72 -92.987)"/>
                    <path fill="url(#bD)" d="M361.641 7.354c-10.774-6.21-19.889-8.707-22.92-6.63L36.268 176.684c5.091-1.525 19.603-4.973 30.243 1.142 13.253 7.64 24.008 18.061 24.008 23.243L385.668 30.597c-.02-5.182-10.755-15.604-24.027-23.243z" transform="translate(30.72 -92.987)"/>
                    <path fill="url(#bM)" d="M15.35 200.707c-6.12 11.355-7.646 39.951-8.2 50.105 5.092 7.678 14.493 14.67 25.782 11.984.61 0 4.195-15.546 4.767-15.603 3.09-9.583 40.255-39.684 54.48-47-8.505-17.832-36.536-35.093-55.586-23.776-13.92 8.306-21.243 24.29-21.243 24.29z" transform="translate(30.72 -92.987)"/>
                    <path fill="url(#bM)" d="M4.386 239.515c.877 6.458 2.765 11.297 2.765 11.297 1.544-13.717.934-31.244 8.2-50.105-7.8 14.403-10.221 29.701-10.965 38.808z" transform="translate(30.72 -92.987)"/>
                    <path fill="url(#bN)" d="M32.951 262.796s2.002-9.202 3.776-14.746c0 0 12.013-35.188 53.774-46.98l-4.977 2.952c-16.247 9.354-23.817 23.89-28.756 37.684-.019 0-6.33 18.06-23.817 21.09z" transform="translate(30.72 -92.987)"/>
                    <g>
                        <path fill="#BCC7D0" d="M301.231-32.765c11.289 6.516 20.747 15.012 23.321 20.595l58.961-34.007c-2.345-5.582-11.956-14.27-23.455-20.9-10.773-6.21-19.888-8.706-22.92-6.63L278.425-39.49c3.165-1.905 12.185.59 22.806 6.725z"/>
                        <path fill="#B1BBC2" d="M383.437-46.158l.057-.038c-2.345-5.582-11.956-14.27-23.455-20.9-10.773-6.21-19.888-8.706-22.92-6.63l-.744.438 47.062 27.13z"/>
                        <path fill="#A6B0B7" d="M374.951-55.513L316.505-21.81a49.885 49.885 0 0 1 3.032 2.933l55.414-31.968v-4.668z"/>
                        <path fill="#D6E1E9" d="M345.108-72.85l-58.312 33.646c4.023 1.124 9.02 3.314 14.435 6.439 5.816 3.353 11.136 7.22 15.274 10.955l58.446-33.703-29.843-17.336z"/>
                        <path fill="#434342" d="M360.345-60.409L337.672-47.32l-9.401-5.43 22.673-13.07z"/>
                        <path fill="#89959C" d="M318.355-27.66l-9.401-5.429v.762l9.4 5.41 22.674-13.069v-.743zM306.551-35.47l-9.4-5.43v.762l9.4 5.41 22.654-13.069v-.743z"/>
                    </g>
                    <g>
                        <path fill="#434342" d="M323.599-57.99l-1.259.744 21.834-.972 3.09-1.81z"/>
                        <path fill="#777676" d="M321.92-58.732l1.679.743 23.664-2.039-1.678-.743z"/>
                        <path fill="#777676" d="M322.34-57.246l-.534-.477.115-1.01 1.678.744z"/>
                        <path fill="#292A29" d="M343.602-80.222l-18.726 24.214.61.324 18.726-24.195z"/>
                        <path fill="#434342" d="M344.212-79.88l-18.725 24.196.438.152 18.669-24.138z"/>
                        <g>
                            <path fill="#292A29" d="M340.78-81.804l-18.745 24.215.61.343 18.745-24.215z"/>
                            <path fill="#434342" d="M341.39-81.46l-18.745 24.214.439.133L341.77-81.25z"/>
                        </g>
                        <path fill="#434342" d="M360.078-68.81l-5.492-5.697-1.83-1.067a.734.734 0 0 0-.382-.533l-18.25-10.517a.731.731 0 0 0-.628-.057l-2.384-1.371-5.606-.667a.505.505 0 0 0-.572.457.504.504 0 0 0 .457.572l5.378.628 2.212 1.277c.038.21.171.4.362.514l18.249 10.516a.67.67 0 0 0 .381.096c.077 0 .172-.02.248-.038l1.66.952 5.434 5.64c.095.114.229.152.381.152a.521.521 0 0 0 .362-.153c.21-.171.21-.495.02-.704z"/>
                        <g>
                            <path fill="#434342" d="M327.222-55.722l-1.259.724 21.815-.972 3.108-1.79z"/>
                            <path fill="#777676" d="M325.544-56.465l1.678.743 23.664-2.039-1.678-.743z"/>
                            <path fill="#777676" d="M325.963-54.998l-.534-.457.115-1.01 1.678.743z"/>
                        </g>
                    </g>
                    <path fill="#161D1F" d="M409.6-43.796v22.69l6.769-3.905v-22.69z"/>
                    <path fill="url(#bO)" d="M53.908 177.674s-39.435 16.689-43.61 72.796l-1.011-1.334s1.258-45.19 24.79-65.918c4.08-3.582 9.343-5.525 14.777-5.525l5.054-.02z" transform="translate(30.72 -92.987)"/>
                    <path fill="url(#bP)" d="M148.413 202.44l-9.115 5.24V190l9.115-5.258z" transform="translate(30.72 -92.987)"/>
                    <path fill="url(#bQ)" d="M25.362 272.036s16.8-.781 22.444-5.068c0 0-.496 5.925-.496 9.278 0 0-3.528.496-8.467 0-5.816-.571-13.481-4.21-13.481-4.21z" transform="translate(30.72 -92.987)"/>
                    <path fill="url(#bR)" d="M8.79 261.005s-4.423-4.801-4.995-10.193l.343-6.458c0 .02.496 10.269 4.653 16.651z" transform="translate(30.72 -92.987)"/>
                    <path fill="url(#bS)" d="M43.496 269.083l-1.43 2.553a.573.573 0 0 0 .591.838c.496-.095.858.476.572.895-.953 1.353.057 3.201 1.697 3.163.897-.02 1.774-.095 2.384-.248l.496-9.278c0-.038-2.155 1.543-4.31 2.077z" transform="translate(30.72 -92.987)"/>
                    <path fill="#C497B1" d="M172.383 22.37s40.464 16.575 40.464 47.267v51.972l9.439-5.601V75.314s1.411-24.672-13.997-46.62c0 0-3.49-4.895-7.818-9.296-4.329-4.42-9.325-7.926-9.325-7.926L172.383 22.37z" opacity=".53"/>
                </g>
            </g>
        </g>
    </g>
</svg>
