<svg xmlns="http://www.w3.org/2000/svg" xmlns:xlink="http://www.w3.org/1999/xlink" width="258px" height="165px" viewBox="0 0 458 290">
    <defs>
        <path id="a" d="M.136.24h19.508V57H.136z"/>
    </defs>
    <g fill="none" fill-rule="evenodd">
        <rect width="458" height="290" fill="#F8F8F8" rx="4"/>
        <rect width="197" height="197" x="135" y="48" fill="#FFF" rx="4"/>
        <rect width="149" height="9" x="159" y="204" fill="#E0E0E0" rx="4"/>
        <path fill="#FFF" d="M163.5 205h7.5v7h-7.5a3.5 3.5 0 1 1 0-7zM172 205h11v7h-11zM184 205h11v7h-11zM196 205h11v7h-11zM208 205h11v7h-11zM220 205h11v7h-11zM232 205h11v7h-11zM244 205h11v7h-11z"/>
        <path fill="#E0E0E0" d="M222.337 100.003L203.5 113.226h-11a5.503 5.503 0 0 0-5.5 5.51v16.529a5.503 5.503 0 0 0 5.5 5.51h11l18.837 13.223a5.495 5.495 0 0 0 7.662-1.339A5.504 5.504 0 0 0 231 149.48v-44.96a5.505 5.505 0 0 0-5.489-5.52 5.52 5.52 0 0 0-3.174 1.003M255 126.99c-.008-4.448-2.948-8.41-7.336-9.877-1.448-.419-2.976.362-3.414 1.748-.416 1.312.296 2.712 1.635 3.204 2.836 1.006 4.278 4.022 3.227 6.736-.556 1.43-1.733 2.558-3.227 3.09-1.437.45-2.22 1.93-1.747 3.306.372 1.093 1.448 1.824 2.65 1.803.298.002.594-.042.876-.131 4.388-1.468 7.328-5.43 7.336-9.878"/>
        <path fill="#E0E0E0" d="M255.342 106.241c-1.306-.62-2.84-.002-3.425 1.382-.529 1.25-.106 2.726.99 3.454 8.195 4.599 11.322 15.374 6.982 24.064-1.681 3.368-4.337 6.074-7.578 7.723-1.244.75-1.68 2.429-.972 3.747.637 1.187 2 1.698 3.2 1.198 10.937-5.572 15.544-19.492 10.289-31.09-2.029-4.475-5.353-8.145-9.486-10.478"/>
        <g transform="translate(260 98)">
            <mask id="b" fill="#fff">
                <use xlink:href="#a"/>
            </mask>
            <path fill="#E0E0E0" d="M16.655 13.54A35.835 35.835 0 0 0 7.14.89a2.775 2.775 0 0 0-3.877.299 2.69 2.69 0 0 0 .302 3.827 30.332 30.332 0 0 1 8.03 10.694C17.34 28.7 13.045 43.886 1.31 52.056a2.695 2.695 0 0 0-.674 3.786 2.776 2.776 0 0 0 3.837.665C18.357 46.857 23.448 28.9 16.654 13.54" mask="url(#b)"/>
        </g>
    </g>
</svg>
