<svg xmlns="http://www.w3.org/2000/svg" width="147" height="64" viewBox="0 0 147 64">
    <defs>
        <linearGradient id="a" x1="159%" x2="-9.706%" y1="50%" y2="50%">
            <stop offset="0%" stop-color="#42B549"/>
            <stop offset="100%" stop-color="#1B521E"/>
        </linearGradient>
        <linearGradient id="b" x1="109.923%" x2="-37.188%" y1="50%" y2="50%">
            <stop offset="0%" stop-color="#42B549"/>
            <stop offset="100%" stop-color="#27782C"/>
        </linearGradient>
        <linearGradient id="c" x1="22.773%" y1="50%" y2="50%">
            <stop offset="0%" stop-color="#42B549"/>
            <stop offset="100%" stop-color="#87D58B"/>
        </linearGradient>
    </defs>
    <g fill="none" fill-rule="evenodd" transform="translate(-.63 -1.292)">
        <g fill="#46D5E0">
            <path d="M91.447 14.402c0 .634-.518 1.147-1.158 1.147a1.153 1.153 0 0 1-1.157-1.147c0-.634.52-1.147 1.157-1.147.64 0 1.158.513 1.158 1.147M84.645 14.402c0 .634-.517 1.147-1.157 1.147a1.153 1.153 0 0 1-1.157-1.147c0-.634.52-1.147 1.157-1.147.64 0 1.157.513 1.157 1.147M71.043 14.402c0 .634-.518 1.147-1.157 1.147a1.153 1.153 0 0 1-1.157-1.147c0-.634.519-1.147 1.157-1.147.64 0 1.157.513 1.157 1.147M64.242 14.402c0 .634-.518 1.147-1.157 1.147a1.153 1.153 0 0 1-1.158-1.147c0-.634.52-1.147 1.158-1.147.639 0 1.157.513 1.157 1.147M57.44 14.402c0 .634-.517 1.147-1.156 1.147a1.153 1.153 0 0 1-1.158-1.147c0-.634.52-1.147 1.158-1.147.639 0 1.157.513 1.157 1.147M30.236 14.402c0 .634-.518 1.147-1.157 1.147a1.153 1.153 0 0 1-1.158-1.147c0-.634.52-1.147 1.158-1.147.64 0 1.157.513 1.157 1.147M23.435 14.402c0 .634-.518 1.147-1.158 1.147a1.153 1.153 0 0 1-1.157-1.147c0-.634.52-1.147 1.157-1.147.64 0 1.158.513 1.158 1.147M98.248 22.574c0 .634-.518 1.147-1.157 1.147a1.153 1.153 0 0 1-1.158-1.147c0-.634.52-1.148 1.158-1.148.64 0 1.157.514 1.157 1.148M91.447 22.574c0 .634-.518 1.147-1.158 1.147a1.153 1.153 0 0 1-1.157-1.147c0-.634.52-1.148 1.157-1.148.64 0 1.158.514 1.158 1.148M84.645 22.574c0 .634-.517 1.147-1.157 1.147a1.153 1.153 0 0 1-1.157-1.147c0-.634.52-1.148 1.157-1.148.64 0 1.157.514 1.157 1.148M77.844 22.574c0 .634-.518 1.147-1.157 1.147a1.153 1.153 0 0 1-1.157-1.147c0-.634.52-1.148 1.157-1.148.64 0 1.157.514 1.157 1.148M64.242 22.574c0 .634-.518 1.147-1.157 1.147a1.153 1.153 0 0 1-1.158-1.147c0-.634.52-1.148 1.158-1.148.639 0 1.157.514 1.157 1.148M57.44 22.574c0 .634-.517 1.147-1.156 1.147a1.153 1.153 0 0 1-1.158-1.147c0-.634.52-1.148 1.158-1.148.639 0 1.157.514 1.157 1.148M50.64 22.574c0 .634-.518 1.147-1.158 1.147a1.153 1.153 0 0 1-1.157-1.147c0-.634.52-1.148 1.157-1.148.64 0 1.157.514 1.157 1.148M37.037 22.574c0 .634-.518 1.147-1.157 1.147a1.153 1.153 0 0 1-1.157-1.147c0-.634.519-1.148 1.157-1.148.64 0 1.157.514 1.157 1.148M30.236 22.574c0 .634-.518 1.147-1.157 1.147a1.153 1.153 0 0 1-1.158-1.147c0-.634.52-1.148 1.158-1.148.64 0 1.157.514 1.157 1.148M23.435 22.574c0 .634-.518 1.147-1.158 1.147a1.153 1.153 0 0 1-1.157-1.147c0-.634.52-1.148 1.157-1.148.64 0 1.158.514 1.158 1.148M16.634 22.574c0 .634-.518 1.147-1.158 1.147a1.153 1.153 0 0 1-1.157-1.147c0-.634.52-1.148 1.157-1.148.64 0 1.158.514 1.158 1.148M105.05 30.745c0 .634-.519 1.148-1.158 1.148a1.153 1.153 0 0 1-1.157-1.148c0-.633.519-1.147 1.157-1.147.64 0 1.157.514 1.157 1.147M98.248 30.745c0 .634-.518 1.148-1.157 1.148a1.153 1.153 0 0 1-1.158-1.148c0-.633.52-1.147 1.158-1.147.64 0 1.157.514 1.157 1.147M91.447 30.745c0 .634-.518 1.148-1.158 1.148a1.153 1.153 0 0 1-1.157-1.148c0-.633.52-1.147 1.157-1.147.64 0 1.158.514 1.158 1.147M84.645 30.745c0 .634-.517 1.148-1.157 1.148a1.153 1.153 0 0 1-1.157-1.148c0-.633.52-1.147 1.157-1.147.64 0 1.157.514 1.157 1.147M77.844 30.745c0 .634-.518 1.148-1.157 1.148a1.153 1.153 0 0 1-1.157-1.148c0-.633.52-1.147 1.157-1.147.64 0 1.157.514 1.157 1.147M71.043 30.745c0 .634-.518 1.148-1.157 1.148a1.153 1.153 0 0 1-1.157-1.148c0-.633.519-1.147 1.157-1.147.64 0 1.157.514 1.157 1.147M64.242 30.745c0 .634-.518 1.148-1.157 1.148a1.153 1.153 0 0 1-1.158-1.148c0-.633.52-1.147 1.158-1.147.639 0 1.157.514 1.157 1.147M57.44 30.745c0 .634-.517 1.148-1.156 1.148a1.153 1.153 0 0 1-1.158-1.148c0-.633.52-1.147 1.158-1.147.639 0 1.157.514 1.157 1.147M50.64 30.745c0 .634-.518 1.148-1.158 1.148a1.153 1.153 0 0 1-1.157-1.148c0-.633.52-1.147 1.157-1.147.64 0 1.157.514 1.157 1.147M43.838 30.745c0 .634-.518 1.148-1.157 1.148a1.153 1.153 0 0 1-1.157-1.148c0-.633.52-1.147 1.157-1.147.64 0 1.157.514 1.157 1.147M37.037 30.745c0 .634-.518 1.148-1.157 1.148a1.153 1.153 0 0 1-1.157-1.148c0-.633.519-1.147 1.157-1.147.64 0 1.157.514 1.157 1.147M30.236 30.745c0 .634-.518 1.148-1.157 1.148a1.153 1.153 0 0 1-1.158-1.148c0-.633.52-1.147 1.158-1.147.64 0 1.157.514 1.157 1.147M23.435 30.745c0 .634-.518 1.148-1.158 1.148a1.153 1.153 0 0 1-1.157-1.148c0-.633.52-1.147 1.157-1.147.64 0 1.158.514 1.158 1.147M16.634 30.745c0 .634-.518 1.148-1.158 1.148a1.153 1.153 0 0 1-1.157-1.148c0-.633.52-1.147 1.157-1.147.64 0 1.158.514 1.158 1.147M9.832 30.745c0 .634-.518 1.148-1.157 1.148a1.153 1.153 0 0 1-1.157-1.148c0-.633.52-1.147 1.157-1.147.64 0 1.157.514 1.157 1.147M111.85 38.917c0 .634-.518 1.148-1.157 1.148a1.153 1.153 0 0 1-1.157-1.148c0-.634.52-1.147 1.157-1.147.64 0 1.157.513 1.157 1.147M105.05 38.917c0 .634-.519 1.148-1.158 1.148a1.153 1.153 0 0 1-1.157-1.148c0-.634.519-1.147 1.157-1.147.64 0 1.157.513 1.157 1.147M98.248 38.917c0 .634-.518 1.148-1.157 1.148a1.153 1.153 0 0 1-1.158-1.148c0-.634.52-1.147 1.158-1.147.64 0 1.157.513 1.157 1.147M91.447 38.917c0 .634-.518 1.148-1.158 1.148a1.153 1.153 0 0 1-1.157-1.148c0-.634.52-1.147 1.157-1.147.64 0 1.158.513 1.158 1.147M84.645 38.917c0 .634-.517 1.148-1.157 1.148a1.153 1.153 0 0 1-1.157-1.148c0-.634.52-1.147 1.157-1.147.64 0 1.157.513 1.157 1.147M77.844 38.917c0 .634-.518 1.148-1.157 1.148a1.153 1.153 0 0 1-1.157-1.148c0-.634.52-1.147 1.157-1.147.64 0 1.157.513 1.157 1.147M71.043 38.917c0 .634-.518 1.148-1.157 1.148a1.153 1.153 0 0 1-1.157-1.148c0-.634.519-1.147 1.157-1.147.64 0 1.157.513 1.157 1.147M64.242 38.917c0 .634-.518 1.148-1.157 1.148a1.153 1.153 0 0 1-1.158-1.148c0-.634.52-1.147 1.158-1.147.639 0 1.157.513 1.157 1.147M57.44 38.917c0 .634-.517 1.148-1.156 1.148a1.153 1.153 0 0 1-1.158-1.148c0-.634.52-1.147 1.158-1.147.639 0 1.157.513 1.157 1.147M50.64 38.917c0 .634-.518 1.148-1.158 1.148a1.153 1.153 0 0 1-1.157-1.148c0-.634.52-1.147 1.157-1.147.64 0 1.157.513 1.157 1.147M43.838 38.917c0 .634-.518 1.148-1.157 1.148a1.153 1.153 0 0 1-1.157-1.148c0-.634.52-1.147 1.157-1.147.64 0 1.157.513 1.157 1.147M37.037 38.917c0 .634-.518 1.148-1.157 1.148a1.153 1.153 0 0 1-1.157-1.148c0-.634.519-1.147 1.157-1.147.64 0 1.157.513 1.157 1.147M30.236 38.917c0 .634-.518 1.148-1.157 1.148a1.153 1.153 0 0 1-1.158-1.148c0-.634.52-1.147 1.158-1.147.64 0 1.157.513 1.157 1.147M23.435 38.917c0 .634-.518 1.148-1.158 1.148a1.153 1.153 0 0 1-1.157-1.148c0-.634.52-1.147 1.157-1.147.64 0 1.158.513 1.158 1.147M16.634 38.917c0 .634-.518 1.148-1.158 1.148a1.153 1.153 0 0 1-1.157-1.148c0-.634.52-1.147 1.157-1.147.64 0 1.158.513 1.158 1.147M9.832 38.917c0 .634-.518 1.148-1.157 1.148a1.153 1.153 0 0 1-1.157-1.148c0-.634.52-1.147 1.157-1.147.64 0 1.157.513 1.157 1.147M3.031 38.917c0 .634-.518 1.148-1.157 1.148a1.153 1.153 0 0 1-1.157-1.148c0-.634.519-1.147 1.157-1.147.64 0 1.157.513 1.157 1.147M111.85 47.089c0 .634-.518 1.147-1.157 1.147a1.153 1.153 0 0 1-1.157-1.147c0-.634.52-1.147 1.157-1.147.64 0 1.157.513 1.157 1.147M105.05 47.089c0 .634-.519 1.147-1.158 1.147a1.153 1.153 0 0 1-1.157-1.147c0-.634.519-1.147 1.157-1.147.64 0 1.157.513 1.157 1.147M98.248 47.089c0 .634-.518 1.147-1.157 1.147a1.153 1.153 0 0 1-1.158-1.147c0-.634.52-1.147 1.158-1.147.64 0 1.157.513 1.157 1.147M91.447 47.089c0 .634-.518 1.147-1.158 1.147a1.153 1.153 0 0 1-1.157-1.147c0-.634.52-1.147 1.157-1.147.64 0 1.158.513 1.158 1.147M84.645 47.089c0 .634-.517 1.147-1.157 1.147a1.153 1.153 0 0 1-1.157-1.147c0-.634.52-1.147 1.157-1.147.64 0 1.157.513 1.157 1.147M77.844 47.089c0 .634-.518 1.147-1.157 1.147a1.153 1.153 0 0 1-1.157-1.147c0-.634.52-1.147 1.157-1.147.64 0 1.157.513 1.157 1.147M71.043 47.089c0 .634-.518 1.147-1.157 1.147a1.153 1.153 0 0 1-1.157-1.147c0-.634.519-1.147 1.157-1.147.64 0 1.157.513 1.157 1.147M64.242 47.089c0 .634-.518 1.147-1.157 1.147a1.153 1.153 0 0 1-1.158-1.147c0-.634.52-1.147 1.158-1.147.639 0 1.157.513 1.157 1.147M57.44 47.089c0 .634-.517 1.147-1.156 1.147a1.153 1.153 0 0 1-1.158-1.147c0-.634.52-1.147 1.158-1.147.639 0 1.157.513 1.157 1.147M50.64 47.089c0 .634-.518 1.147-1.158 1.147a1.153 1.153 0 0 1-1.157-1.147c0-.634.52-1.147 1.157-1.147.64 0 1.157.513 1.157 1.147M43.838 47.089c0 .634-.518 1.147-1.157 1.147a1.153 1.153 0 0 1-1.157-1.147c0-.634.52-1.147 1.157-1.147.64 0 1.157.513 1.157 1.147M37.037 47.089c0 .634-.518 1.147-1.157 1.147a1.153 1.153 0 0 1-1.157-1.147c0-.634.519-1.147 1.157-1.147.64 0 1.157.513 1.157 1.147M30.236 47.089c0 .634-.518 1.147-1.157 1.147a1.153 1.153 0 0 1-1.158-1.147c0-.634.52-1.147 1.158-1.147.64 0 1.157.513 1.157 1.147M23.435 47.089c0 .634-.518 1.147-1.158 1.147a1.153 1.153 0 0 1-1.157-1.147c0-.634.52-1.147 1.157-1.147.64 0 1.158.513 1.158 1.147M16.634 47.089c0 .634-.518 1.147-1.158 1.147a1.153 1.153 0 0 1-1.157-1.147c0-.634.52-1.147 1.157-1.147.64 0 1.158.513 1.158 1.147M9.832 47.089c0 .634-.518 1.147-1.157 1.147a1.153 1.153 0 0 1-1.157-1.147c0-.634.52-1.147 1.157-1.147.64 0 1.157.513 1.157 1.147M3.031 47.089c0 .634-.518 1.147-1.157 1.147A1.153 1.153 0 0 1 .717 47.09c0-.634.519-1.147 1.157-1.147.64 0 1.157.513 1.157 1.147M105.05 55.26c0 .635-.519 1.148-1.158 1.148a1.153 1.153 0 0 1-1.157-1.147c0-.634.519-1.148 1.157-1.148.64 0 1.157.514 1.157 1.148M98.248 55.26c0 .635-.518 1.148-1.157 1.148a1.153 1.153 0 0 1-1.158-1.147c0-.634.52-1.148 1.158-1.148.64 0 1.157.514 1.157 1.148M91.447 55.26c0 .635-.518 1.148-1.158 1.148a1.153 1.153 0 0 1-1.157-1.147c0-.634.52-1.148 1.157-1.148.64 0 1.158.514 1.158 1.148M84.645 55.26c0 .635-.517 1.148-1.157 1.148a1.153 1.153 0 0 1-1.157-1.147c0-.634.52-1.148 1.157-1.148.64 0 1.157.514 1.157 1.148M77.844 55.26c0 .635-.518 1.148-1.157 1.148a1.153 1.153 0 0 1-1.157-1.147c0-.634.52-1.148 1.157-1.148.64 0 1.157.514 1.157 1.148M71.043 55.26c0 .635-.518 1.148-1.157 1.148a1.153 1.153 0 0 1-1.157-1.147c0-.634.519-1.148 1.157-1.148.64 0 1.157.514 1.157 1.148M64.242 55.26c0 .635-.518 1.148-1.157 1.148a1.153 1.153 0 0 1-1.158-1.147c0-.634.52-1.148 1.158-1.148.639 0 1.157.514 1.157 1.148M57.44 55.26c0 .635-.517 1.148-1.156 1.148a1.153 1.153 0 0 1-1.158-1.147c0-.634.52-1.148 1.158-1.148.639 0 1.157.514 1.157 1.148M50.64 55.26c0 .635-.518 1.148-1.158 1.148a1.153 1.153 0 0 1-1.157-1.147c0-.634.52-1.148 1.157-1.148.64 0 1.157.514 1.157 1.148M43.838 55.26c0 .635-.518 1.148-1.157 1.148a1.153 1.153 0 0 1-1.157-1.147c0-.634.52-1.148 1.157-1.148.64 0 1.157.514 1.157 1.148M37.037 55.26c0 .635-.518 1.148-1.157 1.148a1.153 1.153 0 0 1-1.157-1.147c0-.634.519-1.148 1.157-1.148.64 0 1.157.514 1.157 1.148M30.236 55.26c0 .635-.518 1.148-1.157 1.148a1.153 1.153 0 0 1-1.158-1.147c0-.634.52-1.148 1.158-1.148.64 0 1.157.514 1.157 1.148M23.435 55.26c0 .635-.518 1.148-1.158 1.148a1.153 1.153 0 0 1-1.157-1.147c0-.634.52-1.148 1.157-1.148.64 0 1.158.514 1.158 1.148M16.634 55.26c0 .635-.518 1.148-1.158 1.148a1.153 1.153 0 0 1-1.157-1.147c0-.634.52-1.148 1.157-1.148.64 0 1.158.514 1.158 1.148M9.832 55.26c0 .635-.518 1.148-1.157 1.148a1.153 1.153 0 0 1-1.157-1.147c0-.634.52-1.148 1.157-1.148.64 0 1.157.514 1.157 1.148M98.248 63.432c0 .634-.518 1.148-1.157 1.148a1.153 1.153 0 0 1-1.158-1.148c0-.633.52-1.147 1.158-1.147.64 0 1.157.514 1.157 1.147M91.447 63.432c0 .634-.518 1.148-1.158 1.148a1.153 1.153 0 0 1-1.157-1.148c0-.633.52-1.147 1.157-1.147.64 0 1.158.514 1.158 1.147M84.645 63.432c0 .634-.517 1.148-1.157 1.148a1.153 1.153 0 0 1-1.157-1.148c0-.633.52-1.147 1.157-1.147.64 0 1.157.514 1.157 1.147M77.844 63.432c0 .634-.518 1.148-1.157 1.148a1.153 1.153 0 0 1-1.157-1.148c0-.633.52-1.147 1.157-1.147.64 0 1.157.514 1.157 1.147M64.242 63.432c0 .634-.518 1.148-1.157 1.148a1.153 1.153 0 0 1-1.158-1.148c0-.633.52-1.147 1.158-1.147.639 0 1.157.514 1.157 1.147M57.44 63.432c0 .634-.517 1.148-1.156 1.148a1.153 1.153 0 0 1-1.158-1.148c0-.633.52-1.147 1.158-1.147.639 0 1.157.514 1.157 1.147M50.64 63.432c0 .634-.518 1.148-1.158 1.148a1.153 1.153 0 0 1-1.157-1.148c0-.633.52-1.147 1.157-1.147.64 0 1.157.514 1.157 1.147M37.037 63.432c0 .634-.518 1.148-1.157 1.148a1.153 1.153 0 0 1-1.157-1.148c0-.633.519-1.147 1.157-1.147.64 0 1.157.514 1.157 1.147M30.236 63.432c0 .634-.518 1.148-1.157 1.148a1.153 1.153 0 0 1-1.158-1.148c0-.633.52-1.147 1.158-1.147.64 0 1.157.514 1.157 1.147M23.435 63.432c0 .634-.518 1.148-1.158 1.148a1.153 1.153 0 0 1-1.157-1.148c0-.633.52-1.147 1.157-1.147.64 0 1.158.514 1.158 1.147"/>
        </g>
        <rect width="45.677" height="45.289" x="13.326" y="9.896" fill="url(#a)" rx="4" transform="rotate(45 36.165 32.54)"/>
        <rect width="45.677" height="45.289" x="53.332" y="9.896" fill="url(#b)" rx="4" transform="rotate(45 76.17 32.54)"/>
        <rect width="45.677" height="45.289" x="93.337" y="9.896" fill="url(#c)" rx="4" transform="rotate(45 116.176 32.54)"/>
    </g>
</svg>
