<svg xmlns="http://www.w3.org/2000/svg" width="101" height="96" viewBox="0 0 101 96">
    <defs>
        <linearGradient id="a" x1="50%" y1="100%" y2="0%">
            <stop offset="0%" stop-color="#42B549"/>
            <stop offset="100%" stop-color="#27782C"/>
        </linearGradient>
        <linearGradient id="b" x1="64.468%" x2="64.468%" y1="0%" y2="100%">
            <stop offset="0%" stop-color="#42B549"/>
            <stop offset="100%" stop-color="#87D58B"/>
        </linearGradient>
    </defs>
    <g fill="none" fill-rule="evenodd" transform="translate(0 .5)">
        <g fill="#46D5E0">
            <path d="M82.075 19.818a1.041 1.041 0 1 1-2.082 0 1.041 1.041 0 0 1 2.082 0M75.952 19.818a1.041 1.041 0 1 1-2.082 0 1.041 1.041 0 0 1 2.082 0M69.829 19.818a1.041 1.041 0 1 1-2.082 0 1.041 1.041 0 0 1 2.082 0M63.706 19.818a1.041 1.041 0 1 1-2.083 0 1.041 1.041 0 0 1 2.083 0M57.583 19.818a1.041 1.041 0 1 1-2.083 0 1.041 1.041 0 0 1 2.083 0M51.46 19.818a1.041 1.041 0 1 1-2.083 0 1.041 1.041 0 0 1 2.082 0M45.336 19.818a1.041 1.041 0 1 1-2.082 0 1.041 1.041 0 0 1 2.082 0M39.213 19.818a1.041 1.041 0 1 1-2.082 0 1.041 1.041 0 0 1 2.082 0M33.09 19.818a1.041 1.041 0 1 1-2.083 0 1.041 1.041 0 0 1 2.083 0M82.075 27.238a1.041 1.041 0 1 1-2.082 0 1.041 1.041 0 0 1 2.082 0M75.952 27.238a1.041 1.041 0 1 1-2.082 0 1.041 1.041 0 0 1 2.082 0M69.829 27.238a1.041 1.041 0 1 1-2.082 0 1.041 1.041 0 0 1 2.082 0M63.706 27.238a1.041 1.041 0 1 1-2.083 0 1.041 1.041 0 0 1 2.083 0M57.583 27.238a1.041 1.041 0 1 1-2.083 0 1.041 1.041 0 0 1 2.083 0M51.46 27.238a1.041 1.041 0 1 1-2.083 0 1.041 1.041 0 0 1 2.082 0M45.336 27.238a1.041 1.041 0 1 1-2.082 0 1.041 1.041 0 0 1 2.082 0M39.213 27.238a1.041 1.041 0 1 1-2.082 0 1.041 1.041 0 0 1 2.082 0M33.09 27.238a1.041 1.041 0 1 1-2.083 0 1.041 1.041 0 0 1 2.083 0M82.075 34.658a1.041 1.041 0 1 1-2.082 0 1.041 1.041 0 0 1 2.082 0M75.952 34.658a1.041 1.041 0 1 1-2.082 0 1.041 1.041 0 0 1 2.082 0M69.829 34.658a1.041 1.041 0 1 1-2.082 0 1.041 1.041 0 0 1 2.082 0M63.706 34.658a1.041 1.041 0 1 1-2.083 0 1.041 1.041 0 0 1 2.083 0M57.583 34.658a1.041 1.041 0 1 1-2.083 0 1.041 1.041 0 0 1 2.083 0M51.46 34.658a1.041 1.041 0 1 1-2.083 0 1.041 1.041 0 0 1 2.082 0M45.336 34.658a1.041 1.041 0 1 1-2.082 0 1.041 1.041 0 0 1 2.082 0M39.213 34.658a1.041 1.041 0 1 1-2.082 0 1.041 1.041 0 0 1 2.082 0M33.09 34.658a1.041 1.041 0 1 1-2.083 0 1.041 1.041 0 0 1 2.083 0M82.075 42.079a1.041 1.041 0 1 1-2.082-.001 1.041 1.041 0 0 1 2.082 0M75.952 42.079a1.041 1.041 0 1 1-2.082-.001 1.041 1.041 0 0 1 2.082 0M69.829 42.079a1.041 1.041 0 1 1-2.082-.001 1.041 1.041 0 0 1 2.082 0M63.706 42.079a1.041 1.041 0 1 1-2.083-.001 1.041 1.041 0 0 1 2.083 0M57.583 42.079a1.041 1.041 0 1 1-2.083-.001 1.041 1.041 0 0 1 2.083 0M51.46 42.079a1.041 1.041 0 1 1-2.083-.001 1.041 1.041 0 0 1 2.082 0M45.336 42.079a1.041 1.041 0 1 1-2.082-.001 1.041 1.041 0 0 1 2.082 0M39.213 42.079a1.041 1.041 0 1 1-2.082-.001 1.041 1.041 0 0 1 2.082 0M33.09 42.079a1.041 1.041 0 1 1-2.083-.001 1.041 1.041 0 0 1 2.083 0M26.967 42.079a1.041 1.041 0 1 1-2.083-.001 1.041 1.041 0 0 1 2.083 0M20.843 42.079a1.041 1.041 0 1 1-2.082-.001 1.041 1.041 0 0 1 2.082 0M14.72 42.079a1.041 1.041 0 1 1-2.082-.001 1.041 1.041 0 0 1 2.082 0M82.075 49.499a1.041 1.041 0 1 1-2.082 0 1.041 1.041 0 0 1 2.082 0M75.952 49.499a1.041 1.041 0 1 1-2.082 0 1.041 1.041 0 0 1 2.082 0M69.829 49.499a1.041 1.041 0 1 1-2.082 0 1.041 1.041 0 0 1 2.082 0M63.706 49.499a1.041 1.041 0 1 1-2.083 0 1.041 1.041 0 0 1 2.083 0M57.583 49.499a1.041 1.041 0 1 1-2.083 0 1.041 1.041 0 0 1 2.083 0M51.46 49.499a1.041 1.041 0 1 1-2.083 0 1.041 1.041 0 0 1 2.082 0M45.336 49.499a1.041 1.041 0 1 1-2.082 0 1.041 1.041 0 0 1 2.082 0M39.213 49.499a1.041 1.041 0 1 1-2.082 0 1.041 1.041 0 0 1 2.082 0M33.09 49.499a1.041 1.041 0 1 1-2.083 0 1.041 1.041 0 0 1 2.083 0M26.967 49.499a1.041 1.041 0 1 1-2.083 0 1.041 1.041 0 0 1 2.083 0M20.843 49.499a1.041 1.041 0 1 1-2.082 0 1.041 1.041 0 0 1 2.082 0M14.72 49.499a1.041 1.041 0 1 1-2.082 0 1.041 1.041 0 0 1 2.082 0M8.597 49.499a1.041 1.041 0 1 1-2.082 0 1.041 1.041 0 0 1 2.082 0M82.075 56.919a1.041 1.041 0 1 1-2.082 0 1.041 1.041 0 0 1 2.082 0M75.952 56.919a1.041 1.041 0 1 1-2.082 0 1.041 1.041 0 0 1 2.082 0M69.829 56.919a1.041 1.041 0 1 1-2.082 0 1.041 1.041 0 0 1 2.082 0M63.706 56.919a1.041 1.041 0 1 1-2.083 0 1.041 1.041 0 0 1 2.083 0M57.583 56.919a1.041 1.041 0 1 1-2.083 0 1.041 1.041 0 0 1 2.083 0M51.46 56.919a1.041 1.041 0 1 1-2.083 0 1.041 1.041 0 0 1 2.082 0M45.336 56.919a1.041 1.041 0 1 1-2.082 0 1.041 1.041 0 0 1 2.082 0M39.213 56.919a1.041 1.041 0 1 1-2.082 0 1.041 1.041 0 0 1 2.082 0M33.09 56.919a1.041 1.041 0 1 1-2.083 0 1.041 1.041 0 0 1 2.083 0M26.967 56.919a1.041 1.041 0 1 1-2.083 0 1.041 1.041 0 0 1 2.083 0M20.843 56.919a1.041 1.041 0 1 1-2.082 0 1.041 1.041 0 0 1 2.082 0M14.72 56.919a1.041 1.041 0 1 1-2.082 0 1.041 1.041 0 0 1 2.082 0M8.597 56.919a1.041 1.041 0 1 1-2.082 0 1.041 1.041 0 0 1 2.082 0M2.474 56.919a1.041 1.041 0 1 1-2.083 0 1.041 1.041 0 0 1 2.083 0M82.075 64.34a1.041 1.041 0 1 1-2.082-.001 1.041 1.041 0 0 1 2.082 0M75.952 64.34a1.041 1.041 0 1 1-2.082-.001 1.041 1.041 0 0 1 2.082 0M69.829 64.34a1.041 1.041 0 1 1-2.082-.001 1.041 1.041 0 0 1 2.082 0M63.706 64.34a1.041 1.041 0 1 1-2.083-.001 1.041 1.041 0 0 1 2.083 0M57.583 64.34a1.041 1.041 0 1 1-2.083-.001 1.041 1.041 0 0 1 2.083 0M51.46 64.34a1.041 1.041 0 1 1-2.083-.001 1.041 1.041 0 0 1 2.082 0M45.336 64.34a1.041 1.041 0 1 1-2.082-.001 1.041 1.041 0 0 1 2.082 0M39.213 64.34a1.041 1.041 0 1 1-2.082-.001 1.041 1.041 0 0 1 2.082 0M33.09 64.34a1.041 1.041 0 1 1-2.083-.001 1.041 1.041 0 0 1 2.083 0M26.967 64.34a1.041 1.041 0 1 1-2.083-.001 1.041 1.041 0 0 1 2.083 0M20.843 64.34a1.041 1.041 0 1 1-2.082-.001 1.041 1.041 0 0 1 2.082 0M14.72 64.34a1.041 1.041 0 1 1-2.082-.001 1.041 1.041 0 0 1 2.082 0M8.597 64.34a1.041 1.041 0 1 1-2.082-.001 1.041 1.041 0 0 1 2.082 0M2.474 64.34a1.041 1.041 0 1 1-2.083-.001 1.041 1.041 0 0 1 2.083 0M63.706 71.76a1.041 1.041 0 1 1-2.083-.001 1.041 1.041 0 0 1 2.083 0M57.583 71.76a1.041 1.041 0 1 1-2.083-.001 1.041 1.041 0 0 1 2.083 0M51.46 71.76a1.041 1.041 0 1 1-2.083-.001 1.041 1.041 0 0 1 2.082 0M45.336 71.76a1.041 1.041 0 1 1-2.082-.001 1.041 1.041 0 0 1 2.082 0M39.213 71.76a1.041 1.041 0 1 1-2.082-.001 1.041 1.041 0 0 1 2.082 0M33.09 71.76a1.041 1.041 0 1 1-2.083-.001 1.041 1.041 0 0 1 2.083 0M26.967 71.76a1.041 1.041 0 1 1-2.083-.001 1.041 1.041 0 0 1 2.083 0M20.843 71.76a1.041 1.041 0 1 1-2.082-.001 1.041 1.041 0 0 1 2.082 0M14.72 71.76a1.041 1.041 0 1 1-2.082-.001 1.041 1.041 0 0 1 2.082 0M8.597 71.76a1.041 1.041 0 1 1-2.082-.001 1.041 1.041 0 0 1 2.082 0M2.474 71.76a1.041 1.041 0 1 1-2.083-.001 1.041 1.041 0 0 1 2.083 0M57.583 79.18a1.041 1.041 0 1 1-2.083-.001 1.041 1.041 0 0 1 2.083 0M51.46 79.18a1.041 1.041 0 1 1-2.083-.001 1.041 1.041 0 0 1 2.082 0M45.336 79.18a1.041 1.041 0 1 1-2.082-.001 1.041 1.041 0 0 1 2.082 0M39.213 79.18a1.041 1.041 0 1 1-2.082-.001 1.041 1.041 0 0 1 2.082 0M33.09 79.18a1.041 1.041 0 1 1-2.083-.001 1.041 1.041 0 0 1 2.083 0M26.967 79.18a1.041 1.041 0 1 1-2.083-.001 1.041 1.041 0 0 1 2.083 0M20.843 79.18a1.041 1.041 0 1 1-2.082-.001 1.041 1.041 0 0 1 2.082 0M14.72 79.18a1.041 1.041 0 1 1-2.082-.001 1.041 1.041 0 0 1 2.082 0M8.597 79.18a1.041 1.041 0 1 1-2.082-.001 1.041 1.041 0 0 1 2.082 0M2.474 79.18a1.041 1.041 0 1 1-2.083-.001 1.041 1.041 0 0 1 2.083 0M57.583 86.6a1.041 1.041 0 1 1-2.083 0 1.041 1.041 0 0 1 2.083 0M51.46 86.6a1.041 1.041 0 1 1-2.083 0 1.041 1.041 0 0 1 2.082 0M45.336 86.6a1.041 1.041 0 1 1-2.082 0 1.041 1.041 0 0 1 2.082 0M39.213 86.6a1.041 1.041 0 1 1-2.082 0 1.041 1.041 0 0 1 2.082 0M33.09 86.6a1.041 1.041 0 1 1-2.083 0 1.041 1.041 0 0 1 2.083 0M26.967 86.6a1.041 1.041 0 1 1-2.083 0 1.041 1.041 0 0 1 2.083 0M20.843 86.6a1.041 1.041 0 1 1-2.082 0 1.041 1.041 0 0 1 2.082 0M14.72 86.6a1.041 1.041 0 1 1-2.082 0 1.041 1.041 0 0 1 2.082 0M8.597 86.6a1.041 1.041 0 1 1-2.082 0 1.041 1.041 0 0 1 2.082 0M45.336 94.02a1.041 1.041 0 1 1-2.082 0 1.041 1.041 0 0 1 2.082 0M39.213 94.02a1.041 1.041 0 1 1-2.082 0 1.041 1.041 0 0 1 2.082 0M33.09 94.02a1.041 1.041 0 1 1-2.083 0 1.041 1.041 0 0 1 2.083 0M26.967 94.02a1.041 1.041 0 1 1-2.083 0 1.041 1.041 0 0 1 2.083 0M20.843 94.02a1.041 1.041 0 1 1-2.082 0 1.041 1.041 0 0 1 2.082 0M14.72 94.02a1.041 1.041 0 1 1-2.082 0 1.041 1.041 0 0 1 2.082 0"/>
        </g>
        <circle cx="36.953" cy="57.047" r="28.953" fill="url(#a)"/>
        <rect width="53.577" height="53.577" x="47.024" y=".423" fill="url(#b)" rx="4"/>
    </g>
</svg>
