<svg xmlns="http://www.w3.org/2000/svg" width="1145" height="355" viewBox="0 0 1145 355">
    <defs>
        <linearGradient id="a" x1="-9.465%" x2="102.345%" y1="17.859%" y2="36.034%">
            <stop offset="0%" stop-color="#FF5722"/>
            <stop offset="100%" stop-color="#FFD65C"/>
        </linearGradient>
        <linearGradient id="b" x1="157.968%" x2="-44.876%" y1="-4.838%" y2="93.235%">
            <stop offset="0%" stop-color="#FF5722"/>
            <stop offset="100%" stop-color="#FFD65C"/>
        </linearGradient>
        <linearGradient id="c" x1="-19.849%" x2="102.345%" y1="100%" y2="36.034%">
            <stop offset="0%" stop-color="#FF5722"/>
            <stop offset="100%" stop-color="#FFD65C"/>
        </linearGradient>
    </defs>
    <g fill="none" fill-rule="evenodd">
        <path fill="url(#a)" d="M702.728 160.395c-216.501.965-439.37 204.152-518.368 389.548-11.462 26.899-35.312 76.837-35.544 114.618v1.197c.078 13.507 3.28 25.393 11.27 34.038 22.537 24.274 58.39 14.395 84.825 5.055 89.417-31.182 195.623-54.916 255.093 36.315 41.448 63.484 54.067 142.675 115.467 192.883 54.454 44.42 135.304 47.276 199.367 23.966 77.763-28.326 132.1-108.405 123.34-191.61-9.416-90.228-89.997-171.464-52.254-267.597 21.419-54.53 109.293-107.556 110.22-170.113v-2.007c-.194-12.967-4.13-26.32-13.238-40.174-40.213-61.439-139.896-103.929-209.786-118.941-22.19-4.747-44.651-7.062-67.15-7.178h-3.242z" transform="rotate(-149 455.928 293.707)"/>
        <path fill="url(#b)" d="M1056.646 302.306c-122.497.546-248.597 115.51-293.295 220.408-6.485 15.22-19.98 43.474-20.11 64.851.044 8.32 1.856 15.045 6.376 19.936 12.752 13.734 33.037 8.145 47.994 2.86 50.593-17.643 110.684-31.072 144.333 20.548 23.451 35.919 30.591 80.725 65.332 109.133 30.81 25.133 76.555 26.749 112.802 13.56 43.998-16.027 74.743-61.336 69.786-108.413-5.328-51.051-50.92-97.015-29.565-151.407 12.119-30.854 61.838-60.856 62.362-96.251-.11-8.472-2.336-16.027-7.49-23.866-22.752-34.762-79.153-58.803-118.697-67.297-12.556-2.686-25.264-3.996-37.994-4.062h-1.834z" transform="rotate(-16 -1070.478 519.17)"/>
        <path fill="url(#c)" d="M853.714 661.514c-27.169-.009-34.69 20.657-36.176 44.734-2.504 40.588 4.347 82.331-14.42 120.277-8.64 17.465-22.426 32.416-38.79 43.79-10.254 7.135-31.525 15.427-31.653 29.59v.238c.01.935.1 1.89.303 2.88 4.393 21.583 43.376 27.297 61.216 29.021 53.723 5.21 104.52-6.329 143.924-42.367 25.05-22.912 42.248-57.566 42.376-91.522v-.807c-.037-9.117-1.311-18.18-4.008-26.94-15.538-50.557-57.208-102.161-116.177-108.527a62.134 62.134 0 0 0-6.595-.367z" transform="rotate(41 1576.171 412.488)"/>
    </g>
</svg>
