<svg xmlns="http://www.w3.org/2000/svg" width="32" height="32" viewBox="0 0 32 32">
    <g fill="none" fill-rule="evenodd">
        <path fill="#CEF4CF" d="M25.43 25.812s3.675-4.081-.63-6.859c0 0-2.292-3.224-5.74.49l6.37 6.37zM11.104 11.486s4.598-2.603-.333-6.422c0 0-2.708-4.375-6.038.052l6.37 6.37z"/>
        <path fill="#42B549" stroke="#42B549" stroke-width=".2" d="M21.106 27.77a2.22 2.22 0 0 0 1.58-.386c2.674-1.879 4.271-3.589 4.271-4.575 0-1.636-3.098-4.751-5.183-4.751-.416 0-.777.141-1.043.408-.637.638-1.022 1.264-1.332 1.768-.193.313-1.204 1.865-2.172 1.865-1.327 0-3.156-1.718-5.07-3.633-1.534-1.534-3.632-3.633-3.632-5.07 0-.966 1.554-1.977 1.865-2.17.506-.312 1.136-.7 1.768-1.33.49-.49.543-1.207.162-2.127-.81-1.955-3.168-4.102-4.505-4.102-.986 0-2.697 1.596-4.575 4.27a2.212 2.212 0 0 0-.385 1.582c.477 3.43 3.481 9.125 6.303 11.947 2.823 2.822 8.518 5.827 11.948 6.304m.304.854c-.139 0-.279-.009-.42-.029-3.638-.506-9.443-3.562-12.421-6.54-2.977-2.978-6.034-8.781-6.54-12.421a3.045 3.045 0 0 1 .529-2.176c1.482-2.11 3.597-4.624 5.257-4.624 1.863 0 4.409 2.525 5.275 4.615.685 1.655.08 2.612-.342 3.035-.702.7-1.406 1.135-1.92 1.452-.947.585-1.47 1.236-1.47 1.46 0 1.092 2.12 3.212 3.386 4.48 1.269 1.268 3.39 3.39 4.483 3.39.226 0 .877-.523 1.463-1.47.315-.51.745-1.212 1.451-1.918.426-.428.99-.654 1.633-.654 2.539 0 6.017 3.563 6.017 5.585 0 1.66-2.515 3.775-4.625 5.257a3.047 3.047 0 0 1-1.756.558"/>
        <path fill="#42B549" d="M19.394 6.873a.555.555 0 0 0-.638.452.556.556 0 0 0 .452.638c1.245.213 2.376.801 3.282 1.701.9.901 1.488 2.036 1.7 3.281.047.272.282.462.548.462.032 0 .064-.005.095-.01a.55.55 0 0 0 .453-.638 7.148 7.148 0 0 0-2.01-3.877 7.16 7.16 0 0 0-3.882-2.01M28.766 13.217c.03 0 .063-.005.094-.01a.549.549 0 0 0 .453-.638 11.793 11.793 0 0 0-3.321-6.407 11.822 11.822 0 0 0-6.412-3.321.554.554 0 0 0-.186 1.09 10.725 10.725 0 0 1 5.811 3.014 10.728 10.728 0 0 1 3.013 5.81c.045.27.281.462.548.462"/>
    </g>
</svg>
