<?xml version="1.0" encoding="UTF-8"?>
<svg width="75px" height="75px" viewBox="0 0 75 75" version="1.1" xmlns="http://www.w3.org/2000/svg" xmlns:xlink="http://www.w3.org/1999/xlink">
    <!-- Generator: Sketch 47.1 (45422) - http://www.bohemiancoding.com/sketch -->
    <title>Icon Area</title>
    <desc>Created with Sketch.</desc>
    <defs>
        <rect id="path-1" x="0" y="0" width="75" height="75" rx="6"></rect>
        <mask id="mask-2" maskContentUnits="userSpaceOnUse" maskUnits="objectBoundingBox" x="0" y="0" width="75" height="75" fill="white">
            <use xlink:href="#path-1"></use>
        </mask>
    </defs>
    <g id="Symbols" stroke="none" stroke-width="1" fill="none" fill-rule="evenodd">
        <g id="Tooltip/With-Icon" transform="translate(-229.000000, -406.000000)">
            <g id="Tooltip" transform="translate(0.000000, 382.000000)">
                <g id="Tooltip/Icon/Guide" transform="translate(229.000000, 24.000000)">
                    <use id="Rectangle" stroke="#EAEAEA" mask="url(#mask-2)" stroke-width="2" stroke-dasharray="2" xlink:href="#path-1"></use>
                    <g id="guide" stroke-width="1" fill-rule="evenodd" transform="translate(20.000000, 7.000000)">
                        <path d="M6.94482422,25.8530273 L5.82763672,25.8530273 L8.38427734,18.5214844 L9.58203125,18.5214844 L12.1333008,25.8530273 L10.9516602,25.8530273 L10.2641602,23.8066406 L7.63232422,23.8066406 L6.94482422,25.8530273 Z M8.97509766,19.7729492 L8.93212891,19.7729492 L7.90087891,22.8935547 L10.0063477,22.8935547 L8.97509766,19.7729492 Z M13.4545898,25.8530273 L14.5556641,25.8530273 L14.5556641,22.4584961 C14.5556641,21.6958008 15.0336914,21.1210938 16.0058594,21.1210938 C16.1938477,21.1210938 16.3925781,21.1318359 16.4892578,21.1586914 L16.4892578,20.1274414 C16.3818359,20.1113281 16.2529297,20.0952148 16.1132812,20.0952148 C15.1411133,20.0952148 14.7275391,20.6806641 14.5932617,21.0620117 L14.5395508,21.0620117 L14.5395508,20.1811523 L13.4545898,20.1811523 L13.4545898,25.8530273 Z M19.9160156,25.949707 C18.3798828,25.949707 17.4506836,24.9990234 17.4506836,23.4038086 L17.4506836,22.625 C17.4506836,21.0244141 18.4711914,20.0844727 19.8408203,20.0844727 C21.2373047,20.0844727 22.230957,21.0673828 22.230957,22.625 L22.230957,23.2963867 L18.5249023,23.2963867 L18.5249023,23.5756836 C18.5249023,24.3974609 19.019043,25.0097656 19.9052734,25.0097656 C20.5498047,25.0097656 20.9848633,24.7089844 21.0761719,24.3598633 L22.1611328,24.3598633 C22.0805664,25.0097656 21.3930664,25.949707 19.9160156,25.949707 Z M18.5249023,22.5283203 L21.1621094,22.5283203 L21.1621094,22.4477539 C21.1621094,21.5830078 20.6411133,21.0083008 19.8461914,21.0083008 C19.0512695,21.0083008 18.5249023,21.5830078 18.5249023,22.4477539 L18.5249023,22.5283203 Z M25.324707,25.9443359 C24.2290039,25.9443359 23.4716797,25.262207 23.4716797,24.2041016 C23.4716797,23.2050781 24.1645508,22.5283203 25.4697266,22.5283203 L26.925293,22.5283203 L26.925293,21.9912109 C26.925293,21.3305664 26.4902344,21.0244141 25.8027344,21.0244141 C25.1206055,21.0244141 24.8251953,21.2929688 24.7231445,21.6689453 L23.6865234,21.6689453 C23.7617188,20.7236328 24.4975586,20.0952148 25.8349609,20.0952148 C27.0273438,20.0952148 28.0102539,20.5947266 28.0102539,22.0073242 L28.0102539,25.8530273 L26.9736328,25.8530273 L26.9736328,25.1171875 L26.925293,25.1171875 C26.6621094,25.5522461 26.1625977,25.9443359 25.324707,25.9443359 Z M25.6469727,25.03125 C26.3666992,25.03125 26.925293,24.5639648 26.925293,23.9301758 L26.925293,23.3178711 L25.6040039,23.3178711 C24.8789062,23.3178711 24.5673828,23.6723633 24.5673828,24.1450195 C24.5673828,24.746582 25.0830078,25.03125 25.6469727,25.03125 Z M0,31.5214844 L0,32.5205078 L3.66308594,32.5205078 L3.66308594,32.5849609 L0.623046875,38.8530273 L1.78320312,38.8530273 L4.78027344,32.5527344 L4.78027344,31.5214844 L0,31.5214844 Z M6.13916016,37.0698242 C6.20361328,38.1762695 7.18115234,39.003418 8.58300781,39.003418 C10.1513672,39.003418 11.2202148,37.972168 11.2202148,36.4306641 C11.2202148,34.9267578 10.1513672,34.0620117 8.87841797,34.0620117 C8.06201172,34.0620117 7.55712891,34.4487305 7.40136719,34.6850586 L7.34765625,34.6850586 L7.53564453,32.5151367 L10.8442383,32.5151367 L10.8442383,31.5214844 L6.6171875,31.5214844 L6.29492188,35.7592773 L7.24023438,35.7592773 C7.42822266,35.4316406 7.88476562,35.0126953 8.62060547,35.0126953 C9.42089844,35.0126953 10.1245117,35.565918 10.1245117,36.4628906 C10.1245117,37.4726562 9.37255859,38.0258789 8.63134766,38.0258789 C7.97607422,38.0258789 7.31542969,37.7358398 7.18115234,37.0698242 L6.13916016,37.0698242 Z M18.4980469,38.8530273 L19.7548828,38.8530273 L17.8481445,35.96875 L19.7495117,33.1811523 L18.5302734,33.1811523 L17.2573242,35.1953125 L17.2089844,35.1953125 L15.9736328,33.1811523 L14.6899414,33.1811523 L16.5751953,36.0439453 L14.722168,38.8530273 L15.9145508,38.8530273 L17.1875,36.8334961 L17.2250977,36.8334961 L18.4980469,38.8530273 Z M23.2460938,31.5214844 L23.2460938,32.5205078 L26.9091797,32.5205078 L26.9091797,32.5849609 L23.8691406,38.8530273 L25.0292969,38.8530273 L28.0263672,32.5527344 L28.0263672,31.5214844 L23.2460938,31.5214844 Z M29.3852539,37.0698242 C29.449707,38.1762695 30.4272461,39.003418 31.8291016,39.003418 C33.3974609,39.003418 34.4663086,37.972168 34.4663086,36.4306641 C34.4663086,34.9267578 33.3974609,34.0620117 32.1245117,34.0620117 C31.3081055,34.0620117 30.8032227,34.4487305 30.6474609,34.6850586 L30.59375,34.6850586 L30.7817383,32.5151367 L34.090332,32.5151367 L34.090332,31.5214844 L29.8632812,31.5214844 L29.5410156,35.7592773 L30.4863281,35.7592773 C30.6743164,35.4316406 31.1308594,35.0126953 31.8666992,35.0126953 C32.6669922,35.0126953 33.3706055,35.565918 33.3706055,36.4628906 C33.3706055,37.4726562 32.6186523,38.0258789 31.8774414,38.0258789 C31.222168,38.0258789 30.5615234,37.7358398 30.4272461,37.0698242 L29.3852539,37.0698242 Z" id="Area-75-x-75" fill-opacity="0.38" fill="#000000"></path>
                        <path d="M17.2352905,0 L17.2352905,13.0384048" id="Line" stroke="#E1E1E1" stroke-linecap="round" stroke-linejoin="round"></path>
                        <path id="Line-decoration-1" d="M20.2352905,-1.8369702e-16 L14.2352905,1.8369702e-16" stroke="#E1E1E1" stroke-linecap="round" stroke-linejoin="round"></path>
                        <path d="M16.2352905,60.0384048 L16.2352905,47" id="Line-Copy" stroke="#E1E1E1" stroke-linecap="round" stroke-linejoin="round"></path>
                        <path id="Line-Copy-decoration-1" d="M13.2352905,60.0384048 L19.2352905,60.0384048" stroke="#E1E1E1" stroke-linecap="round" stroke-linejoin="round"></path>
                    </g>
                </g>
            </g>
        </g>
    </g>
</svg>