<svg xmlns="http://www.w3.org/2000/svg" xmlns:xlink="http://www.w3.org/1999/xlink" width="33" height="21" viewBox="0 0 33 21">
    <defs>
        <path id="a" d="M2.088 2.229H0V.14h2.088v2.088z"/>
    </defs>
    <g fill="none" fill-rule="evenodd">
        <path fill="#FEFEFE" d="M31.404.057a.587.587 0 0 1 .807.192.587.587 0 1 1-.999.62.59.59 0 0 1 .192-.812"/>
        <path fill="#FEFEFE" d="M30.798.423a.597.597 0 1 1 .625 1.016.597.597 0 0 1-.625-1.016"/>
        <path fill="#FEFEFE" d="M30.192.789a.605.605 0 0 1 .831.197.604.604 0 0 1-.192.833.609.609 0 0 1-.837-.194.608.608 0 0 1 .198-.836"/>
        <path fill="#FEFEFE" d="M29.586 1.154A.614.614 0 1 1 30.23 2.2a.614.614 0 0 1-.644-1.046"/>
        <path fill="#FEFEFE" d="M28.98 1.52a.623.623 0 1 1 .653 1.062.623.623 0 0 1-.653-1.062"/>
        <path fill="#FEFEFE" d="M28.373 1.885a.632.632 0 1 1 .663 1.077.632.632 0 0 1-.663-1.077"/>
        <path fill="#FEFEFE" d="M27.767 2.251a.641.641 0 1 1 .673 1.092.641.641 0 0 1-.673-1.092"/>
        <path fill="#FEFEFE" d="M27.161 2.617a.65.65 0 1 1 .682 1.106.65.65 0 0 1-.682-1.106"/>
        <path fill="#FEFEFE" d="M26.555 2.982a.66.66 0 1 1 .692 1.123.66.66 0 0 1-.692-1.123"/>
        <path fill="#FEFEFE" d="M25.95 3.348a.668.668 0 1 1 .7 1.137.668.668 0 0 1-.7-1.137"/>
        <path fill="#FEFEFE" d="M25.343 3.714a.677.677 0 1 1 .71 1.152.677.677 0 0 1-.71-1.152"/>
        <path fill="#FEFEFE" d="M24.737 4.08a.686.686 0 1 1 .72 1.167.686.686 0 0 1-.72-1.168"/>
        <path fill="#FEFEFE" d="M24.13 4.445a.695.695 0 1 1 .73 1.183.695.695 0 0 1-.73-1.183"/>
        <path fill="#FEFEFE" d="M23.525 4.81a.704.704 0 1 1 .739 1.199.704.704 0 0 1-.74-1.199"/>
        <path fill="#FEFEFE" d="M22.919 5.176a.713.713 0 1 1 .748 1.214.713.713 0 0 1-.748-1.214"/>
        <path fill="#FEFEFE" d="M22.313 5.542a.722.722 0 1 1 .758 1.228.722.722 0 0 1-.758-1.228"/>
        <path fill="#FEFEFE" d="M21.707 5.907a.73.73 0 1 1 .767 1.244.73.73 0 0 1-.767-1.244"/>
        <path fill="#FEFEFE" d="M21.1 6.273a.74.74 0 1 1 .777 1.26.74.74 0 0 1-.776-1.26"/>
        <path fill="#FEFEFE" d="M20.494 6.639a.749.749 0 1 1 .787 1.274.749.749 0 0 1-.787-1.274"/>
        <path fill="#FEFEFE" d="M19.888 7.004a.758.758 0 1 1 .796 1.29.758.758 0 0 1-.796-1.29"/>
        <path fill="#FEFEFE" d="M19.282 7.37a.766.766 0 1 1 .806 1.304.766.766 0 0 1-.806-1.304"/>
        <path fill="#FEFEFE" d="M18.676 7.735a.776.776 0 1 1 .815 1.32.776.776 0 0 1-.815-1.32"/>
        <path fill="#FEFEFE" d="M18.07 8.101a.784.784 0 1 1 .825 1.334.784.784 0 0 1-.825-1.334"/>
        <path fill="#FEFEFE" d="M17.464 8.467a.793.793 0 1 1 .834 1.35.793.793 0 0 1-.834-1.35"/>
        <path fill="#FEFEFE" d="M16.858 8.832a.802.802 0 1 1 .844 1.366.802.802 0 0 1-.844-1.366"/>
        <path fill="#FEFEFE" d="M16.252 9.198a.811.811 0 1 1 .853 1.38.811.811 0 0 1-.853-1.38"/>
        <path fill="#FEFEFE" d="M15.646 9.564a.82.82 0 1 1 .862 1.395.82.82 0 0 1-.862-1.395"/>
        <path fill="#FEFEFE" d="M15.04 9.93a.83.83 0 1 1 .872 1.41.83.83 0 0 1-.872-1.41"/>
        <path fill="#FEFEFE" d="M14.434 10.295a.838.838 0 1 1 .881 1.426.838.838 0 0 1-.881-1.426"/>
        <path fill="#FEFEFE" d="M13.828 10.66a.847.847 0 1 1 .89 1.442.847.847 0 0 1-.89-1.441"/>
        <path fill="#FEFEFE" d="M13.222 11.026a.856.856 0 1 1 .9 1.456.856.856 0 0 1-.9-1.456"/>
        <path fill="#FEFEFE" d="M12.615 11.392a.865.865 0 1 1 .91 1.471.865.865 0 0 1-.91-1.471"/>
        <path fill="#FEFEFE" d="M12.01 11.757a.874.874 0 1 1 .92 1.487.874.874 0 0 1-.92-1.487"/>
        <path fill="#FEFEFE" d="M11.403 12.123a.883.883 0 1 1 .93 1.502.883.883 0 0 1-.93-1.502"/>
        <path fill="#FEFEFE" d="M10.797 12.489a.892.892 0 1 1 .94 1.516.892.892 0 0 1-.94-1.516"/>
        <path fill="#FEFEFE" d="M10.191 12.854a.901.901 0 1 1 .948 1.533.901.901 0 0 1-.948-1.533"/>
        <path fill="#FEFEFE" d="M9.585 13.22a.91.91 0 1 1 .958 1.548.91.91 0 0 1-.958-1.548"/>
        <path fill="#FEFEFE" d="M8.979 13.586a.919.919 0 1 1 .967 1.562.919.919 0 0 1-.967-1.562"/>
        <path fill="#FEFEFE" d="M8.373 13.951a.928.928 0 1 1 .977 1.577.928.928 0 0 1-.977-1.577"/>
        <path fill="#FEFEFE" d="M7.767 14.317a.937.937 0 1 1 .986 1.592.937.937 0 0 1-.986-1.592"/>
        <path fill="#FEFEFE" d="M7.16 14.682a.946.946 0 1 1 .996 1.609.946.946 0 0 1-.995-1.609"/>
        <path fill="#FEFEFE" d="M6.555 15.048a.955.955 0 1 1 1.005 1.623.955.955 0 0 1-1.005-1.623"/>
        <path fill="#FEFEFE" d="M5.949 15.414a.964.964 0 1 1 1.014 1.638.964.964 0 0 1-1.014-1.638"/>
        <path fill="#FEFEFE" d="M5.342 15.78a.973.973 0 1 1 1.025 1.653.973.973 0 0 1-1.025-1.654"/>
        <path fill="#FEFEFE" d="M4.736 16.145a.982.982 0 1 1 1.034 1.67.982.982 0 0 1-1.034-1.67"/>
        <path fill="#FEFEFE" d="M4.13 16.51a.99.99 0 1 1 1.044 1.685.99.99 0 0 1-1.044-1.684"/>
        <path fill="#FEFEFE" d="M3.524 16.876a1 1 0 1 1 1.053 1.7 1 1 0 0 1-1.053-1.7"/>
        <path fill="#FEFEFE" d="M2.918 17.242a1.009 1.009 0 1 1 1.063 1.715 1.009 1.009 0 0 1-1.063-1.715"/>
        <path fill="#FEFEFE" d="M2.312 17.607a1.018 1.018 0 1 1 1.072 1.73 1.018 1.018 0 0 1-1.072-1.73"/>
        <path fill="#FEFEFE" d="M1.706 17.973a1.027 1.027 0 1 1 1.082 1.746 1.027 1.027 0 0 1-1.082-1.746"/>
        <path fill="#FEFEFE" d="M1.1 18.339a1.036 1.036 0 1 1 1.09 1.76 1.036 1.036 0 0 1-1.09-1.76"/>
        <g transform="translate(0 18.407)">
            <mask id="b" fill="#fff">
                <use xlink:href="#a"/>
            </mask>
            <path fill="#FEFEFE" d="M.494.298a1.044 1.044 0 1 1 1.1 1.775A1.044 1.044 0 0 1 .494.298" mask="url(#b)"/>
        </g>
    </g>
</svg>
