<svg xmlns="http://www.w3.org/2000/svg" width="149" height="119" viewBox="0 0 149 119">
    <g fill="none" fill-rule="evenodd">
        <path fill="#FFF" d="M54.11 78.857a6.853 6.853 0 1 1 11.363 7.665 6.853 6.853 0 0 1-11.362-7.665"/>
        <path fill="#648EB8" d="M55.794 54.12l11.34 7.65-1.35 2-11.34-7.649zM62.87 43.63l11.34 7.649-1.35 2-11.34-7.648z"/>
        <path fill="#265380" d="M71.37 37.063a2.311 2.311 0 0 1 .623 3.207L54.746 65.838a2.308 2.308 0 0 1-3.206.623L1.544 32.74a2.311 2.311 0 0 1-.623-3.208L18.167 3.964a2.31 2.31 0 0 1 3.207-.624l49.995 33.723z"/>
        <path fill="#83A9CF" d="M70.655 38.121c.473.319.598.963.28 1.436L53.687 65.124a1.034 1.034 0 0 1-1.435.28L2.258 31.68a1.034 1.034 0 0 1-.28-1.435L19.226 4.677c.32-.471.963-.597 1.435-.278L70.655 38.12z"/>
        <path fill="#265380" d="M12.111 28.98l-3.6 5.339-5.172-3.488 3.6-5.338zM11.08 19.352L7.785 24.24l5.172 3.488 3.296-4.887zM17.716 20.671l3.286-4.871-5.172-3.49-3.286 4.873zM25.448 9.209l-3.6 5.338-5.172-3.489 3.6-5.338zM18.406 33.227l-3.6 5.337-5.173-3.488 3.6-5.338zM17.375 23.598l-3.296 4.887 5.171 3.489 3.297-4.888zM24.01 24.917l3.286-4.872-5.171-3.49-3.286 4.874zM31.742 13.454l-3.6 5.338-5.172-3.488 3.6-5.338zM24.7 37.472l-3.6 5.338-5.172-3.49 3.6-5.336zM23.67 27.844l-3.297 4.887 5.172 3.488 3.296-4.887zM30.305 29.163l3.286-4.872-5.172-3.49-3.286 4.873zM38.037 17.7l-3.6 5.338-5.173-3.489 3.6-5.338zM30.994 41.718l-3.6 5.338-5.172-3.489 3.6-5.338zM29.964 32.09l-3.297 4.887 5.172 3.488 3.296-4.887zM36.6 33.408l3.285-4.871-5.172-3.49-3.285 4.873zM44.331 21.945l-3.6 5.338-5.172-3.488 3.6-5.338zM37.289 45.963l-3.6 5.338-5.172-3.488 3.6-5.338zM36.258 36.335l-3.296 4.887 5.171 3.488 3.297-4.887zM42.894 37.654l3.286-4.872-5.172-3.49-3.286 4.873zM50.625 26.191l-3.6 5.338-5.172-3.488 3.6-5.338zM43.583 50.209l-3.6 5.338-5.172-3.488 3.6-5.338zM42.552 40.58l-3.296 4.888 5.172 3.488 3.296-4.887zM49.188 41.9l3.286-4.872-5.172-3.49-3.286 4.873zM56.92 30.437l-3.6 5.338-5.172-3.489 3.6-5.338zM49.878 54.455l-3.601 5.338-5.172-3.489 3.6-5.338zM48.847 44.826l-3.297 4.887 5.173 3.488 3.295-4.887zM55.482 46.145l3.286-4.872-5.172-3.489-3.285 4.873zM63.214 34.682l-3.6 5.338-5.172-3.488 3.6-5.338zM56.172 58.7l-3.6 5.338L47.4 60.55l3.6-5.338zM55.141 49.072l-3.296 4.887 5.172 3.488 3.296-4.887zM61.777 50.39l3.286-4.871-5.172-3.49-3.286 4.873zM69.508 38.928l-3.6 5.338-5.172-3.489 3.6-5.338z"/>
        <path fill="#648EB8" d="M87.777 75.694l-11.34-7.65-1.35 2.001 11.34 7.65zM94.853 65.203l-11.34-7.649-1.35 2 11.34 7.65z"/>
        <path fill="#265380" d="M97.758 54.862a2.311 2.311 0 0 0-3.207.624L77.304 81.055a2.31 2.31 0 0 0 .624 3.206l49.995 33.723a2.31 2.31 0 0 0 3.208-.624l17.246-25.569a2.31 2.31 0 0 0-.623-3.206L97.758 54.862z"/>
        <path fill="#83A9CF" d="M97.044 55.92a1.034 1.034 0 0 0-1.434.28L78.363 81.768a1.034 1.034 0 0 0 .28 1.435l49.995 33.722a1.035 1.035 0 0 0 1.435-.278l17.246-25.57a1.036 1.036 0 0 0-.279-1.434L97.044 55.921z"/>
        <path fill="#265380" d="M127.45 106.778l-3.6 5.338 5.171 3.488 3.6-5.338zM136.763 104.127l-3.296 4.887-5.172-3.489 3.297-4.887zM133.055 98.468l3.286-4.871 5.173 3.488-3.287 4.872zM140.787 87.005l-3.6 5.338 5.17 3.489 3.601-5.338zM121.156 102.532l-3.6 5.338 5.17 3.489 3.601-5.338zM130.47 99.881l-3.297 4.887-5.172-3.49 3.296-4.885zM126.76 94.223l3.287-4.872 5.172 3.488-3.287 4.872zM134.492 82.76l-3.6 5.338 5.172 3.488 3.6-5.338zM114.861 98.287l-3.6 5.338 5.172 3.488 3.6-5.338zM124.175 95.635l-3.297 4.888-5.172-3.49 3.297-4.886zM120.466 89.977l3.286-4.871 5.173 3.488-3.287 4.872zM128.198 78.514l-3.6 5.338 5.171 3.489 3.6-5.338zM108.567 94.041l-3.6 5.338 5.171 3.488 3.6-5.338zM117.88 91.39l-3.296 4.887-5.172-3.49 3.297-4.886zM114.172 85.732l3.286-4.872 5.173 3.488-3.287 4.872zM121.904 74.269l-3.6 5.338 5.17 3.488 3.601-5.338zM102.272 89.796l-3.6 5.337 5.172 3.489 3.6-5.338zM111.586 87.144l-3.296 4.887-5.172-3.488 3.296-4.887zM107.877 81.486l3.286-4.872 5.173 3.488-3.287 4.872zM115.61 70.023l-3.601 5.338 5.171 3.488 3.6-5.338zM95.978 85.55l-3.6 5.338 5.171 3.488 3.6-5.338zM105.292 82.899l-3.297 4.887-5.172-3.489 3.297-4.887zM101.583 77.24l3.286-4.871 5.173 3.488-3.287 4.872zM109.315 65.778l-3.6 5.338 5.171 3.488 3.6-5.338zM89.684 81.304l-3.6 5.338 5.171 3.489 3.6-5.338zM98.997 78.653l-3.296 4.887-5.172-3.488 3.297-4.887zM95.289 72.995l3.286-4.872 5.172 3.488-3.287 4.872zM103.02 61.532l-3.6 5.338 5.172 3.488 3.6-5.338zM83.39 77.059l-3.601 5.338 5.172 3.488 3.6-5.338zM92.703 74.407l-3.297 4.888-5.171-3.489 3.296-4.887zM88.994 68.75l3.286-4.872 5.173 3.488-3.287 4.871zM96.726 57.286l-3.6 5.338 5.171 3.489 3.6-5.338zM102.124 31.669l-6.002 8.897-10.885-7.342 6.001-8.898z"/>
        <path fill="#648EB8" d="M101.4 31.18l-6.002 8.898-.553-.373 6.001-8.898zM99.625 29.983l-6.002 8.898-.553-.373 6.001-8.898zM97.85 28.786l-6.002 8.898-.553-.374 6.001-8.897zM96.075 27.589l-6.002 8.897-.553-.373 6.001-8.897zM94.3 26.392l-6.002 8.897-.553-.373 6.001-8.898zM92.525 25.194l-6.002 8.898-.553-.373 6.001-8.898z"/>
        <path fill="#265380" d="M82.954 60.088l-6.001 8.897-10.885-7.342 6.001-8.897z"/>
        <path fill="#648EB8" d="M82.23 59.6l-6 8.897-.554-.373 6.001-8.897zM80.456 58.403L74.454 67.3l-.553-.373 6.001-8.898zM78.68 57.205l-6 8.898-.554-.373 6.001-8.898zM76.906 56.008l-6.002 8.898-.553-.374 6.001-8.897zM75.13 54.81l-6 8.898-.554-.373 6.001-8.898zM73.356 53.614l-6.002 8.897-.553-.373 6.001-8.898z"/>
        <path fill="#83A9CF" d="M111.123 7.562l-.452-.305-.452-.305-8.868 11.195 1.357.915 1.358.916z"/>
        <path fill="#FFF1A1" d="M113.199 8.246a2.648 2.648 0 1 1-4.392-2.96 2.648 2.648 0 0 1 4.392 2.96"/>
        <path fill="#83A9CF" d="M82.946 3.046C80.728 13.61 84.917 24.942 94.419 31.35c9.501 6.409 21.578 6.05 30.542.034L82.946 3.045z"/>
        <path fill="#648EB8" d="M98.003 38.633l-4.057 6.015-11.679-7.876 4.057-6.015zM73.454 74.762l-7.562 11.21-11.431-7.71 7.562-11.21z"/>
        <path fill="#83A9CF" d="M95.589 41.19a1.852 1.852 0 0 1 .5 2.572L83.19 62.883a1.852 1.852 0 0 1-2.571.5l-10.73-7.238a1.854 1.854 0 0 1-.5-2.571l12.897-19.122a1.852 1.852 0 0 1 2.571-.5l10.73 7.238z"/>
        <path fill="#648EB8" d="M88.433 45.355a.82.82 0 0 1 .22 1.138l-5.714 8.473a.82.82 0 0 1-1.139.221l-4.754-3.207a.82.82 0 0 1-.222-1.138l5.715-8.473a.82.82 0 0 1 1.139-.221l4.755 3.207z"/>
        <path fill="#83A9CF" d="M78.613 66.358a1.852 1.852 0 0 1 .5 2.572l-8.419 12.48a1.85 1.85 0 0 1-2.57.499l-10.73-7.237a1.852 1.852 0 0 1-.5-2.571l8.417-12.48a1.852 1.852 0 0 1 2.571-.5l10.73 7.237z"/>
        <path fill="#648EB8" d="M94.07 46.753l.597-.884-13.802-9.309-.596.884zM84.776 60.532l.596-.883-13.801-9.31-.596.884zM72.106 79.316l.596-.883-13.801-9.308-.596.882z"/>
        <path fill="#FFF" d="M75.34 54.734a1.796 1.796 0 0 1 .485 2.492 1.796 1.796 0 0 1-2.492.484 1.798 1.798 0 0 1-.484-2.492 1.796 1.796 0 0 1 2.491-.484M77.803 57.243c.499.336.631 1.016.295 1.516a1.094 1.094 0 0 1-1.517.295 1.094 1.094 0 0 1-.294-1.516 1.094 1.094 0 0 1 1.516-.295M80.076 58.776c.499.336.63 1.016.295 1.516a1.094 1.094 0 0 1-1.517.295 1.094 1.094 0 0 1-.294-1.516 1.094 1.094 0 0 1 1.516-.295"/>
        <path fill="#FF3977" d="M75.444 56.969a1.336 1.336 0 1 1-2.215-1.493 1.336 1.336 0 0 1 2.215 1.493"/>
        <path fill="#265380" d="M77.717 58.502a.632.632 0 1 1-1.048-.706.632.632 0 0 1 1.048.706M79.99 60.035a.632.632 0 1 1-1.048-.706.632.632 0 0 1 1.048.706"/>
        <path fill="#FFF" d="M89.83 41.387a1.137 1.137 0 1 1 1.273-1.884 1.137 1.137 0 0 1-1.273 1.884"/>
        <path fill="#90C" d="M89.765 39.972a.845.845 0 1 1 1.401.945.845.845 0 0 1-1.401-.945"/>
        <path fill="#FFF" d="M86.833 39.366a1.137 1.137 0 1 1 1.273-1.884 1.137 1.137 0 0 1-1.273 1.884"/>
        <path fill="#90C" d="M86.768 37.95a.845.845 0 1 1 1.401.946.845.845 0 0 1-1.401-.945"/>
        <path fill="#265380" d="M65.577 66.103a1.52 1.52 0 1 1-1.698 2.52 1.52 1.52 0 0 1 1.698-2.52"/>
        <path fill="#648EB8" d="M74.072 71.226c.26.175.33.529.153.79L72.6 74.427a.57.57 0 0 1-.79.154l-3.294-2.224a.568.568 0 0 1-.154-.79l1.625-2.41a.57.57 0 0 1 .79-.154l3.296 2.223z"/>
        <path fill="#FFF" d="M82.632 1.197a1.358 1.358 0 0 1 1.884-.366l41.911 28.27a1.358 1.358 0 0 1-1.517 2.25L82.998 3.08a1.358 1.358 0 0 1-.366-1.884"/>
        <path fill="#265380" d="M82.612 52.065a.643.643 0 0 1-.719 1.065l-.682-.46a.643.643 0 0 1 .719-1.065l.682.46zM83.928 50.114a.643.643 0 0 1-.719 1.065l-.682-.46a.641.641 0 1 1 .719-1.065l.682.46zM85.244 48.163a.643.643 0 0 1-.719 1.065l-.682-.46a.641.641 0 1 1 .719-1.065l.682.46zM86.56 46.212a.643.643 0 0 1-.719 1.065l-.682-.46a.643.643 0 0 1 .719-1.066l.682.46zM78.985 50.394a.611.611 0 1 1 1.015.682.611.611 0 0 1-1.015-.682M80.301 48.443a.611.611 0 1 1 1.014.682.611.611 0 0 1-1.014-.682M81.617 46.492a.611.611 0 1 1 1.014.682.611.611 0 0 1-1.014-.682M82.933 44.54a.611.611 0 1 1 1.014.683.611.611 0 0 1-1.014-.682"/>
        <path fill="#83A9CF" d="M53.658 78.258c.255-.377.742-.493 1.09-.258l11.28 7.608c.349.235.424.73.17 1.108-.255.377-.743.494-1.091.259l-11.28-7.609c-.348-.235-.423-.73-.17-1.108"/>
        <path fill="#FFF" d="M47.38 86.047c.3.202.531.505.619.857.636 2.56 2.278 4.841 4.624 6.423 2.341 1.58 5.066 2.249 7.673 1.884.696-.097 1.424.374 1.627 1.052.203.677-.197 1.306-.892 1.403-3.302.46-6.755-.387-9.722-2.389-2.975-2.006-5.056-4.897-5.86-8.138-.17-.681.264-1.286.968-1.35.34-.033.683.068.964.258"/>
        <path fill="#FFF" d="M51.331 84.747c.3.203.531.505.619.857.418 1.681 1.495 3.178 3.036 4.218 1.537 1.036 3.326 1.475 5.037 1.236.695-.096 1.425.374 1.626 1.051.203.678-.196 1.306-.892 1.403-2.407.337-4.923-.281-7.086-1.741-2.168-1.462-3.685-3.569-4.272-5.931-.17-.682.265-1.287.969-1.353.34-.03.683.07.963.26"/>
    </g>
</svg>
