<svg xmlns="http://www.w3.org/2000/svg" xmlns:xlink="http://www.w3.org/1999/xlink" width="43" height="28" viewBox="0 0 43 28">
    <defs>
        <path id="a" d="M2.699 2.88H0V.182h2.699V2.88z"/>
    </defs>
    <g fill="none" fill-rule="evenodd">
        <path fill="#FEFEFE" d="M41.088.613A.76.76 0 0 1 42.13.86a.759.759 0 1 1-1.291.802.763.763 0 0 1 .248-1.049"/>
        <path fill="#FEFEFE" d="M40.304 1.086a.77.77 0 0 1 1.06.25.77.77 0 1 1-1.311.815.774.774 0 0 1 .251-1.065"/>
        <path fill="#FEFEFE" d="M39.521 1.558a.782.782 0 0 1 1.075.255.781.781 0 0 1-.248 1.076.787.787 0 0 1-1.082-.25.786.786 0 0 1 .255-1.08"/>
        <path fill="#FEFEFE" d="M38.738 2.03a.794.794 0 0 1 1.091.259.794.794 0 0 1-.252 1.093.798.798 0 0 1-1.098-.254.797.797 0 0 1 .259-1.097"/>
        <path fill="#FEFEFE" d="M37.954 2.503a.806.806 0 1 1 .845 1.373.806.806 0 0 1-.845-1.373"/>
        <path fill="#FEFEFE" d="M37.171 2.976a.817.817 0 0 1 1.123.266.817.817 0 1 1-1.39.862.82.82 0 0 1 .267-1.128"/>
        <path fill="#FEFEFE" d="M36.388 3.448a.829.829 0 0 1 1.139.27.828.828 0 1 1-1.41.875.832.832 0 0 1 .27-1.145"/>
        <path fill="#FEFEFE" d="M35.604 3.921a.84.84 0 0 1 1.156.273.84.84 0 1 1-1.43.887.843.843 0 0 1 .274-1.16"/>
        <path fill="#FEFEFE" d="M34.821 4.394a.852.852 0 0 1 1.171.276.852.852 0 1 1-1.448.9.855.855 0 0 1 .277-1.176"/>
        <path fill="#FEFEFE" d="M34.038 4.866a.863.863 0 1 1 .906 1.47.863.863 0 0 1-.906-1.47"/>
        <path fill="#FEFEFE" d="M33.255 5.339a.875.875 0 0 1 1.203.284.875.875 0 1 1-1.203-.284"/>
        <path fill="#FEFEFE" d="M32.471 5.811a.886.886 0 0 1 1.219.288.886.886 0 1 1-1.508.936.89.89 0 0 1 .29-1.224"/>
        <path fill="#FEFEFE" d="M31.688 6.284a.899.899 0 1 1 .943 1.53.899.899 0 0 1-.943-1.53"/>
        <path fill="#FEFEFE" d="M30.905 6.756a.91.91 0 1 1 .954 1.549.91.91 0 0 1-.954-1.549"/>
        <path fill="#FEFEFE" d="M30.121 7.229a.921.921 0 1 1 .967 1.568.921.921 0 0 1-.967-1.568"/>
        <path fill="#FEFEFE" d="M29.338 7.701a.933.933 0 1 1 .98 1.588.933.933 0 0 1-.98-1.588"/>
        <path fill="#FEFEFE" d="M28.554 8.174a.945.945 0 1 1 .992 1.608.945.945 0 0 1-.992-1.608"/>
        <path fill="#FEFEFE" d="M27.771 8.646a.956.956 0 1 1 1.004 1.628.956.956 0 0 1-1.004-1.628"/>
        <path fill="#FEFEFE" d="M26.988 9.119a.968.968 0 1 1 1.016 1.647.968.968 0 0 1-1.016-1.647"/>
        <path fill="#FEFEFE" d="M26.204 9.591a.98.98 0 1 1 1.03 1.667.98.98 0 0 1-1.03-1.667"/>
        <path fill="#FEFEFE" d="M25.421 10.064a.99.99 0 1 1 1.041 1.686.99.99 0 0 1-1.04-1.686"/>
        <path fill="#FEFEFE" d="M24.638 10.537a1.003 1.003 0 1 1 1.053 1.706 1.003 1.003 0 0 1-1.053-1.706"/>
        <path fill="#FEFEFE" d="M23.855 11.01a1.014 1.014 0 1 1 1.066 1.724 1.014 1.014 0 0 1-1.066-1.725"/>
        <path fill="#FEFEFE" d="M23.071 11.482a1.026 1.026 0 1 1 1.078 1.745 1.026 1.026 0 0 1-1.078-1.745"/>
        <path fill="#FEFEFE" d="M22.288 11.954a1.037 1.037 0 1 1 1.09 1.765 1.037 1.037 0 0 1-1.09-1.765"/>
        <path fill="#FEFEFE" d="M21.505 12.427a1.049 1.049 0 1 1 1.102 1.784 1.049 1.049 0 0 1-1.102-1.784"/>
        <path fill="#FEFEFE" d="M20.721 12.9a1.06 1.06 0 1 1 1.115 1.803 1.06 1.06 0 0 1-1.115-1.804"/>
        <path fill="#FEFEFE" d="M19.938 13.372a1.072 1.072 0 1 1 1.127 1.824 1.072 1.072 0 0 1-1.127-1.824"/>
        <path fill="#FEFEFE" d="M19.155 13.845a1.083 1.083 0 1 1 1.14 1.843 1.083 1.083 0 0 1-1.14-1.843"/>
        <path fill="#FEFEFE" d="M18.371 14.317a1.095 1.095 0 1 1 1.152 1.863 1.095 1.095 0 0 1-1.152-1.863"/>
        <path fill="#FEFEFE" d="M17.588 14.79a1.106 1.106 0 1 1 1.164 1.88 1.106 1.106 0 0 1-1.164-1.88"/>
        <path fill="#FEFEFE" d="M16.805 15.262a1.118 1.118 0 1 1 1.176 1.902 1.118 1.118 0 0 1-1.176-1.902"/>
        <path fill="#FEFEFE" d="M16.021 15.735a1.13 1.13 0 1 1 1.19 1.92 1.13 1.13 0 0 1-1.19-1.92"/>
        <path fill="#FEFEFE" d="M15.238 16.207a1.141 1.141 0 1 1 1.201 1.942 1.141 1.141 0 0 1-1.201-1.942"/>
        <path fill="#FEFEFE" d="M14.455 16.68a1.153 1.153 0 1 1 1.213 1.96 1.153 1.153 0 0 1-1.213-1.96"/>
        <path fill="#FEFEFE" d="M13.671 17.153a1.165 1.165 0 1 1 1.226 1.98 1.165 1.165 0 0 1-1.226-1.98"/>
        <path fill="#FEFEFE" d="M12.888 17.625a1.176 1.176 0 1 1 1.238 2 1.176 1.176 0 0 1-1.238-2"/>
        <path fill="#FEFEFE" d="M12.105 18.098a1.187 1.187 0 1 1 1.25 2.019 1.187 1.187 0 0 1-1.25-2.02"/>
        <path fill="#FEFEFE" d="M11.321 18.57a1.199 1.199 0 1 1 1.263 2.038 1.199 1.199 0 0 1-1.263-2.038"/>
        <path fill="#FEFEFE" d="M10.538 19.043a1.21 1.21 0 1 1 1.275 2.058 1.21 1.21 0 0 1-1.275-2.058"/>
        <path fill="#FEFEFE" d="M9.755 19.515a1.223 1.223 0 1 1 1.287 2.08 1.223 1.223 0 0 1-1.287-2.08"/>
        <path fill="#FEFEFE" d="M8.971 19.988a1.234 1.234 0 1 1 1.3 2.098 1.234 1.234 0 0 1-1.3-2.098"/>
        <path fill="#FEFEFE" d="M8.188 20.46A1.245 1.245 0 1 1 9.5 22.578a1.245 1.245 0 0 1-1.312-2.118"/>
        <path fill="#FEFEFE" d="M7.405 20.933a1.257 1.257 0 1 1 1.323 2.138 1.257 1.257 0 0 1-1.323-2.138"/>
        <path fill="#FEFEFE" d="M6.621 21.405a1.269 1.269 0 1 1 1.336 2.158 1.269 1.269 0 0 1-1.336-2.158"/>
        <path fill="#FEFEFE" d="M5.838 21.878a1.28 1.28 0 1 1 1.349 2.177 1.28 1.28 0 0 1-1.349-2.177"/>
        <path fill="#FEFEFE" d="M5.055 22.35a1.292 1.292 0 1 1 1.36 2.197 1.292 1.292 0 0 1-1.36-2.197"/>
        <path fill="#FEFEFE" d="M4.271 22.823a1.304 1.304 0 1 1 1.374 2.216 1.304 1.304 0 0 1-1.374-2.216"/>
        <path fill="#FEFEFE" d="M3.488 23.296a1.315 1.315 0 1 1 1.385 2.235 1.315 1.315 0 0 1-1.385-2.235"/>
        <path fill="#FEFEFE" d="M2.705 23.768a1.327 1.327 0 1 1 1.398 2.256 1.327 1.327 0 0 1-1.398-2.256"/>
        <path fill="#FEFEFE" d="M1.921 24.24a1.338 1.338 0 1 1 1.41 2.276 1.338 1.338 0 0 1-1.41-2.275"/>
        <g transform="translate(.5 24.328)">
            <mask id="b" fill="#fff">
                <use xlink:href="#a"/>
            </mask>
            <path fill="#FEFEFE" d="M.638.385a1.35 1.35 0 1 1 1.423 2.294A1.35 1.35 0 0 1 .638.385" mask="url(#b)"/>
        </g>
    </g>
</svg>
