<svg xmlns="http://www.w3.org/2000/svg" xmlns:xlink="http://www.w3.org/1999/xlink" width="87" height="55" viewBox="0 0 87 55">
    <defs>
        <path id="a" d="M5.56 5.935H0V.375h5.56v5.56z"/>
    </defs>
    <g fill="none" fill-rule="evenodd">
        <path fill="#FEFEFE" d="M84.123.233a1.564 1.564 0 0 1 2.15.51c.456.73.235 1.699-.496 2.152-.74.459-1.71.231-2.165-.5a1.572 1.572 0 0 1 .511-2.162"/>
        <path fill="#FEFEFE" d="M82.51 1.206a1.588 1.588 0 0 1 2.182.517 1.588 1.588 0 0 1-.505 2.186 1.597 1.597 0 0 1-2.196-.508 1.595 1.595 0 0 1 .519-2.195"/>
        <path fill="#FEFEFE" d="M80.896 2.18a1.61 1.61 0 0 1 2.215.525 1.61 1.61 0 0 1-.512 2.218 1.62 1.62 0 0 1-2.23-.516 1.619 1.619 0 0 1 .527-2.227"/>
        <path fill="#FEFEFE" d="M79.282 3.154a1.636 1.636 0 0 1 2.248.532 1.635 1.635 0 0 1-.52 2.251 1.644 1.644 0 0 1-2.262-.523 1.643 1.643 0 0 1 .534-2.26"/>
        <path fill="#FEFEFE" d="M77.668 4.127a1.66 1.66 0 0 1 2.281.54 1.66 1.66 0 0 1-.528 2.284 1.668 1.668 0 0 1-2.295-.531 1.667 1.667 0 0 1 .542-2.293"/>
        <path fill="#FEFEFE" d="M76.054 5.101a1.683 1.683 0 0 1 2.314.548c.49.787.252 1.827-.535 2.317a1.692 1.692 0 0 1-2.328-.54 1.69 1.69 0 0 1 .55-2.325"/>
        <path fill="#FEFEFE" d="M74.44 6.075a1.707 1.707 0 0 1 2.347.554 1.707 1.707 0 0 1-.543 2.35c-.807.5-1.865.252-2.36-.547a1.714 1.714 0 0 1 .556-2.357"/>
        <path fill="#FEFEFE" d="M72.826 7.048a1.731 1.731 0 0 1 2.38.563 1.73 1.73 0 0 1-.551 2.382 1.74 1.74 0 0 1-2.393-.554 1.737 1.737 0 0 1 .564-2.39"/>
        <path fill="#FEFEFE" d="M71.212 8.022a1.755 1.755 0 0 1 2.413.57c.511.82.262 1.906-.558 2.416a1.763 1.763 0 0 1-2.427-.563 1.762 1.762 0 0 1 .572-2.423"/>
        <path fill="#FEFEFE" d="M69.598 8.996a1.779 1.779 0 0 1 2.446.577 1.778 1.778 0 0 1-.567 2.448 1.786 1.786 0 0 1-2.458-.57 1.785 1.785 0 0 1 .58-2.455"/>
        <path fill="#FEFEFE" d="M67.985 9.97a1.802 1.802 0 0 1 2.478.585 1.802 1.802 0 0 1-.575 2.48 1.81 1.81 0 0 1-2.49-.578 1.808 1.808 0 0 1 .587-2.488"/>
        <path fill="#FEFEFE" d="M66.37 10.943a1.826 1.826 0 0 1 2.512.593 1.826 1.826 0 0 1-.582 2.514 1.835 1.835 0 0 1-2.524-.586 1.832 1.832 0 0 1 .594-2.521"/>
        <path fill="#FEFEFE" d="M64.757 11.916a1.851 1.851 0 0 1 2.545.6 1.85 1.85 0 0 1-.591 2.547 1.858 1.858 0 0 1-2.556-.593 1.856 1.856 0 0 1 .602-2.554"/>
        <path fill="#FEFEFE" d="M63.143 12.89a1.874 1.874 0 0 1 2.577.608 1.874 1.874 0 0 1-.598 2.58 1.881 1.881 0 0 1-2.589-.602 1.88 1.88 0 0 1 .61-2.586"/>
        <path fill="#FEFEFE" d="M61.53 13.863a1.898 1.898 0 0 1 2.61.616 1.898 1.898 0 0 1-.607 2.613c-.895.555-2.07.279-2.622-.61a1.905 1.905 0 0 1 .618-2.619"/>
        <path fill="#FEFEFE" d="M59.915 14.837a1.922 1.922 0 0 1 2.643.624 1.922 1.922 0 1 1-3.267 2.028c-.56-.9-.283-2.09.624-2.652"/>
        <path fill="#FEFEFE" d="M58.301 15.81a1.946 1.946 0 0 1 2.676.632c.566.91.29 2.113-.622 2.678a1.953 1.953 0 0 1-2.686-.624 1.952 1.952 0 0 1 .632-2.686"/>
        <path fill="#FEFEFE" d="M56.687 16.784a1.97 1.97 0 0 1 2.71.639 1.97 1.97 0 0 1-.63 2.71 1.978 1.978 0 0 1-2.72-.631 1.975 1.975 0 0 1 .64-2.718"/>
        <path fill="#FEFEFE" d="M55.074 17.758a1.994 1.994 0 0 1 2.741.646 1.994 1.994 0 1 1-3.389 2.104 2 2 0 0 1 .648-2.75"/>
        <path fill="#FEFEFE" d="M53.46 18.731a2.018 2.018 0 0 1 2.774.654c.587.944.3 2.191-.645 2.776-.95.59-2.199.297-2.785-.647a2.023 2.023 0 0 1 .655-2.783"/>
        <path fill="#FEFEFE" d="M51.845 19.705a2.041 2.041 0 0 1 2.808.661 2.04 2.04 0 0 1-.653 2.81c-.961.596-2.224.3-2.818-.655a2.047 2.047 0 0 1 .663-2.816"/>
        <path fill="#FEFEFE" d="M50.232 20.679a2.066 2.066 0 1 1 2.17 3.515 2.066 2.066 0 0 1-2.17-3.515"/>
        <path fill="#FEFEFE" d="M48.618 21.652a2.09 2.09 0 1 1-.678 2.88 2.095 2.095 0 0 1 .678-2.88"/>
        <path fill="#FEFEFE" d="M47.004 22.626a2.113 2.113 0 0 1 2.907.685 2.113 2.113 0 1 1-3.593 2.228 2.118 2.118 0 0 1 .686-2.913"/>
        <path fill="#FEFEFE" d="M45.39 23.6c1-.622 2.319-.31 2.94.691a2.136 2.136 0 1 1-3.633 2.255 2.141 2.141 0 0 1 .693-2.947"/>
        <path fill="#FEFEFE" d="M43.776 24.573a2.16 2.16 0 0 1 2.972.7 2.161 2.161 0 1 1-2.972-.7"/>
        <path fill="#FEFEFE" d="M42.162 25.547a2.184 2.184 0 0 1 3.005.707 2.184 2.184 0 1 1-3.005-.707"/>
        <path fill="#FEFEFE" d="M40.548 26.52a2.21 2.21 0 1 1 2.323 3.759 2.21 2.21 0 0 1-2.323-3.759"/>
        <path fill="#FEFEFE" d="M38.934 27.494a2.232 2.232 0 1 1 2.348 3.797 2.232 2.232 0 0 1-2.348-3.797"/>
        <path fill="#FEFEFE" d="M37.32 28.468a2.256 2.256 0 1 1 2.374 3.838 2.256 2.256 0 0 1-2.373-3.838"/>
        <path fill="#FEFEFE" d="M35.707 29.441a2.28 2.28 0 1 1-.739 3.142 2.283 2.283 0 0 1 .739-3.142"/>
        <path fill="#FEFEFE" d="M34.093 30.415a2.304 2.304 0 1 1 2.424 3.919 2.304 2.304 0 0 1-2.424-3.919"/>
        <path fill="#FEFEFE" d="M32.479 31.389a2.328 2.328 0 0 1 2.456 3.956 2.333 2.333 0 0 1-3.21-.75 2.331 2.331 0 0 1 .754-3.206"/>
        <path fill="#FEFEFE" d="M30.865 32.362a2.352 2.352 0 1 1 2.475 4 2.352 2.352 0 0 1-2.475-4"/>
        <path fill="#FEFEFE" d="M29.251 33.336a2.375 2.375 0 1 1 2.5 4.038 2.375 2.375 0 0 1-2.5-4.038"/>
        <path fill="#FEFEFE" d="M27.637 34.31a2.4 2.4 0 1 1 2.526 4.08 2.4 2.4 0 0 1-2.526-4.08"/>
        <path fill="#FEFEFE" d="M26.023 35.283a2.423 2.423 0 0 1 2.556 4.118 2.429 2.429 0 0 1-3.34-.78 2.426 2.426 0 0 1 .784-3.338"/>
        <path fill="#FEFEFE" d="M24.41 36.257a2.447 2.447 0 1 1 2.575 4.16 2.447 2.447 0 0 1-2.576-4.16"/>
        <path fill="#FEFEFE" d="M22.796 37.23a2.47 2.47 0 1 1 2.601 4.2 2.47 2.47 0 0 1-2.601-4.2"/>
        <path fill="#FEFEFE" d="M21.181 38.203a2.494 2.494 0 1 1 2.627 4.24 2.494 2.494 0 0 1-2.627-4.24"/>
        <path fill="#FEFEFE" d="M19.568 39.177a2.519 2.519 0 0 1 2.656 4.28 2.524 2.524 0 0 1-3.47-.81 2.522 2.522 0 0 1 .814-3.47"/>
        <path fill="#FEFEFE" d="M17.954 40.15a2.542 2.542 0 1 1 2.677 4.324 2.542 2.542 0 0 1-2.677-4.323"/>
        <path fill="#FEFEFE" d="M16.34 41.124a2.566 2.566 0 1 1 2.702 4.363 2.566 2.566 0 0 1-2.702-4.363"/>
        <path fill="#FEFEFE" d="M14.726 42.098a2.59 2.59 0 0 1 2.73 4.4 2.595 2.595 0 0 1-3.567-.833 2.593 2.593 0 0 1 .837-3.567"/>
        <path fill="#FEFEFE" d="M13.112 43.072a2.614 2.614 0 0 1 2.756 4.44 2.618 2.618 0 0 1-3.6-.84 2.617 2.617 0 0 1 .844-3.6"/>
        <path fill="#FEFEFE" d="M11.498 44.045a2.639 2.639 0 0 1 2.781 4.482 2.642 2.642 0 0 1-3.633-.85 2.64 2.64 0 0 1 .852-3.632"/>
        <path fill="#FEFEFE" d="M9.884 45.019a2.662 2.662 0 0 1 2.806 4.522 2.666 2.666 0 0 1-3.665-.857 2.664 2.664 0 0 1 .86-3.665"/>
        <path fill="#FEFEFE" d="M8.27 45.993a2.686 2.686 0 0 1 2.832 4.562 2.69 2.69 0 0 1-3.699-.865 2.687 2.687 0 0 1 .867-3.697"/>
        <path fill="#FEFEFE" d="M6.656 46.966a2.71 2.71 0 0 1 2.857 4.603 2.713 2.713 0 0 1-3.731-.872 2.711 2.711 0 0 1 .874-3.73"/>
        <path fill="#FEFEFE" d="M5.043 47.94a2.734 2.734 0 0 1 3.762.881c.794 1.28.4 2.967-.88 3.762a2.736 2.736 0 0 1-3.764-.88 2.735 2.735 0 0 1 .882-3.763"/>
        <path fill="#FEFEFE" d="M3.429 48.913a2.758 2.758 0 0 1 3.795.89 2.759 2.759 0 0 1-.889 3.794 2.76 2.76 0 0 1-3.796-.888 2.758 2.758 0 0 1 .89-3.796"/>
        <g transform="translate(.5 49.094)">
            <mask id="b" fill="#fff">
                <use xlink:href="#a"/>
            </mask>
            <path fill="#FEFEFE" d="M1.315.793a2.78 2.78 0 0 1 2.932 4.724 2.785 2.785 0 0 1-3.83-.895 2.783 2.783 0 0 1 .898-3.83" mask="url(#b)"/>
        </g>
    </g>
</svg>
