<svg xmlns="http://www.w3.org/2000/svg" xmlns:xlink="http://www.w3.org/1999/xlink" width="334" height="581" viewBox="0 0 334 581">
    <defs>
        <rect id="a" width="320" height="567" rx="4"/>
        <filter id="b" width="106.9%" height="103.9%" x="-3.4%" y="-2.1%" filterUnits="objectBoundingBox">
            <feOffset dy="-1" in="SourceAlpha" result="shadowOffsetOuter1"/>
            <feGaussianBlur in="shadowOffsetOuter1" result="shadowBlurOuter1" stdDeviation="3.5"/>
            <feColorMatrix in="shadowBlurOuter1" values="0 0 0 0 0 0 0 0 0 0 0 0 0 0 0 0 0 0 0.15 0"/>
        </filter>
        <path id="e" d="M0 0h320v72H0z"/>
        <filter id="d" width="106.9%" height="130.6%" x="-3.4%" y="-16.7%" filterUnits="objectBoundingBox">
            <feOffset dy="-1" in="SourceAlpha" result="shadowOffsetOuter1"/>
            <feGaussianBlur in="shadowOffsetOuter1" result="shadowBlurOuter1" stdDeviation="3.5"/>
            <feColorMatrix in="shadowBlurOuter1" values="0 0 0 0 0 0 0 0 0 0 0 0 0 0 0 0 0 0 0.15 0"/>
        </filter>
        <path id="g" d="M320 0H0v48h320z"/>
        <filter id="f" width="103.8%" height="125%" x="-1.9%" y="-6.2%" filterUnits="objectBoundingBox">
            <feOffset dy="3" in="SourceAlpha" result="shadowOffsetOuter1"/>
            <feGaussianBlur in="shadowOffsetOuter1" result="shadowBlurOuter1" stdDeviation="1.5"/>
            <feColorMatrix in="shadowBlurOuter1" values="0 0 0 0 0 0 0 0 0 0 0 0 0 0 0 0 0 0 0.18 0"/>
        </filter>
        <path id="i" d="M0 .6h320V404H0z"/>
        <filter id="h" width="106.9%" height="105.5%" x="-3.4%" y="-3%" filterUnits="objectBoundingBox">
            <feOffset dy="-1" in="SourceAlpha" result="shadowOffsetOuter1"/>
            <feGaussianBlur in="shadowOffsetOuter1" result="shadowBlurOuter1" stdDeviation="3.5"/>
            <feColorMatrix in="shadowBlurOuter1" values="0 0 0 0 0 0 0 0 0 0 0 0 0 0 0 0 0 0 0.15 0"/>
        </filter>
    </defs>
    <g fill="none" fill-rule="evenodd" transform="translate(7 8)">
        <mask id="c" fill="#fff">
            <use xlink:href="#a"/>
        </mask>
        <use fill="#000" filter="url(#b)" xlink:href="#a"/>
        <use fill="#FFF" xlink:href="#a"/>
        <g mask="url(#c)">
            <g transform="translate(-.598 .148)">
                <use fill="#000" filter="url(#d)" xlink:href="#e"/>
                <use fill="#42B549" xlink:href="#e"/>
                <path fill="#FFF" d="M24.85 39L16 47.52 24.719 56l2.016-2.047-6.701-6.518L27 41.091z"/>
                <g fill="#FFF">
                    <path d="M291.494 5.5h19.512c.82 0 1.494.674 1.494 1.505v6.49c0 .837-.669 1.505-1.494 1.505h-19.512c-.82 0-1.494-.674-1.494-1.505v-6.49c0-.837.669-1.505 1.494-1.505zM313 8.5h.75c.417 0 .75.332.75.742v2.016a.748.748 0 0 1-.75.742H313V8.5zM291.508 6c-.557 0-1.008.457-1.008 1.008v6.484c0 .557.45 1.008 1.008 1.008h19.484c.557 0 1.008-.457 1.008-1.008V7.008c0-.557-.45-1.008-1.008-1.008h-19.484zm-.001.5h19.486c.277 0 .507.22.507.492v6.516a.497.497 0 0 1-.507.492h-19.486a.502.502 0 0 1-.507-.492V6.992c0-.276.227-.492.507-.492zM9.25 13a2.75 2.75 0 1 1 0-5.5 2.75 2.75 0 0 1 0 5.5zm7 0a2.75 2.75 0 1 1 0-5.5 2.75 2.75 0 0 1 0 5.5zm7 0a2.75 2.75 0 1 1 0-5.5 2.75 2.75 0 0 1 0 5.5zm7 0a2.75 2.75 0 1 1 0-5.5 2.75 2.75 0 0 1 0 5.5zm7 0a2.75 2.75 0 1 1 0-5.5 2.75 2.75 0 0 1 0 5.5z"/>
                </g>
                <rect width="132" height="6" x="52.434" y="43.251" fill="#FFF" rx="3"/>
            </g>
            <g transform="translate(-.598 70.642)">
                <use fill="#000" filter="url(#f)" xlink:href="#g"/>
                <use fill="#42B549" xlink:href="#g"/>
            </g>
            <path d="M104.902 70.642h91v48h-91z"/>
            <path fill="#FFF" fill-opacity=".54" d="M106.882 94.13v1.067c0 1.693.797 2.484 2.016 2.484 1.19 0 1.805-.744 1.805-1.606h1.177v.088c0 1.266-.978 2.643-3.023 2.643-1.969 0-3.193-1.277-3.193-3.604v-1.084c0-2.29 1.248-3.632 3.205-3.632 1.963 0 3.011 1.347 3.011 2.748v.088h-1.177c0-.856-.639-1.717-1.828-1.717-1.19 0-1.993.855-1.993 2.525zm8.116-.012v1.114c0 1.67.88 2.455 2.051 2.455 1.178 0 2.063-.785 2.063-2.455v-1.114c0-1.67-.885-2.52-2.063-2.52-1.172 0-2.05.85-2.05 2.52zm-1.218 1.108v-1.102c0-2.273 1.277-3.638 3.281-3.638 2.004 0 3.27 1.37 3.27 3.638v1.102c0 2.262-1.284 3.58-3.293 3.58-2.004 0-3.258-1.318-3.258-3.58zm9.985 3.416h-1.172v-7.998h1.096l3.844 5.789h.058v-5.79h1.172v7.999h-1.096l-3.85-5.807h-.052v5.807zm10.354 0h-1.207v-6.885h-2.373v-1.113h5.953v1.113h-2.373v6.885zm9.066-1.102v1.102h-4.916v-7.998h4.916v1.101h-3.715v2.303h3.504v1.055h-3.504v2.437h3.715zm3.487 1.102H145.5v-7.998h1.096l3.843 5.789h.059v-5.79h1.172v7.999h-1.096l-3.85-5.807h-.052v5.807zm10.354 0h-1.207v-6.885h-2.373v-1.113h5.953v1.113h-2.373v6.885zm8.193-5.701h-1.16v-.059c0-1.219.873-2.396 2.59-2.396 1.547 0 2.56.949 2.56 2.209 0 1.043-.638 1.722-1.377 2.537l-2.044 2.25v.07h3.562v1.09h-5.256v-.809l2.988-3.31c.44-.48.909-1.02.909-1.717 0-.756-.586-1.248-1.371-1.248-.885 0-1.4.615-1.4 1.318v.065z"/>
            <path d="M15.902 70.642h90v48h-90z"/>
            <path fill="#FFF" d="M18.052 94.154v1.02c0 1.61.739 2.378 1.875 2.378 1.114 0 1.688-.72 1.688-1.564h1.37v.123c0 1.341-1.054 2.689-3.093 2.689-2.033 0-3.275-1.307-3.275-3.627v-1.031c0-2.291 1.254-3.656 3.281-3.656 1.975 0 3.088 1.324 3.088 2.789v.123h-1.371c0-.838-.592-1.659-1.705-1.659-1.114 0-1.858.815-1.858 2.415zm8.18-.018v1.072c0 1.594.815 2.356 1.923 2.356 1.113 0 1.922-.762 1.922-2.356v-1.072c0-1.594-.809-2.414-1.922-2.414-1.108 0-1.922.82-1.922 2.414zm-1.435 1.066v-1.054c0-2.274 1.29-3.662 3.364-3.662 2.086 0 3.357 1.394 3.357 3.662v1.054c0 2.262-1.289 3.598-3.37 3.598-2.08 0-3.35-1.336-3.35-3.598zm10.255 3.44H33.7v-7.998h1.218l3.657 5.513h.064v-5.513h1.354v7.998h-1.22l-3.661-5.537h-.059v5.537zm10.395 0H44.03V91.88h-2.314v-1.236h6.047v1.236h-2.315v6.762zm9.083-1.213v1.213h-5.045v-7.998h5.045v1.213h-3.638v2.156h3.427v1.148h-3.427v2.268h3.638zm3.599 1.213h-1.354v-7.998h1.219l3.656 5.513h.065v-5.513h1.353v7.998H61.85l-3.662-5.537h-.058v5.537zm10.395 0h-1.418V91.88h-2.314v-1.236h6.047v1.236h-2.315v6.762zm10.256 0h-1.407v-6.563h-.064l-1.828 1.301v-1.365l1.892-1.371h1.407v7.998zM15.902 115.642h58v3h-58z"/>
        </g>
        <g mask="url(#c)">
            <path fill="#FFF" fill-opacity=".65" d="M-.598-.43h320v571h-320z"/>
            <g transform="translate(-.598 167.57)">
                <use fill="#000" filter="url(#h)" xlink:href="#i"/>
                <use fill="#FFF" xlink:href="#i"/>
            </g>
            <path fill="#FFF" d="M2.402 167.57h314v48h-314z"/>
            <path stroke="#E0E0E0" d="M2.402 216.07h314"/>
            <g>
                <path fill="#000" fill-opacity=".54" d="M63.722 197.57h-1.89v-9.016h-3.086v-1.648h8.062v1.648h-3.086v9.016zm4.664 0v-8.274h1.844v8.274h-1.844zm-.273-10.743c0-.64.476-1.101 1.187-1.101.727 0 1.211.46 1.211 1.101 0 .633-.484 1.094-1.21 1.094-.704 0-1.188-.46-1.188-1.094zm5.367 2.54v-2.063h1.797v2.063h1.852v1.468h-1.852v4.196c0 .859.344 1.109 1.25 1.109.242 0 .547-.016.687-.031v1.43a8.29 8.29 0 0 1-1.14.085c-2.031 0-2.625-.71-2.625-2.39v-4.399H72.19v-1.468h1.29zm5.813 8.203v-11.43h1.843v11.43h-1.843zm7.765.14c-2.273 0-3.695-1.367-3.695-3.758v-1.046c0-2.407 1.555-3.758 3.594-3.758 2.093 0 3.57 1.445 3.57 3.758v.96h-5.344v.399c0 1.133.696 1.953 1.867 1.953.883 0 1.5-.414 1.61-.93h1.781c-.094.993-1.11 2.422-3.383 2.422zm-1.875-5.039h3.547v-.094c0-1.18-.703-1.96-1.766-1.96-1.07 0-1.78.78-1.78 1.96v.094zm14.39-3.523c2.196 0 3.712 1.437 3.712 3.773v.985c0 2.437-1.516 3.804-3.711 3.804-2.219 0-3.719-1.351-3.719-3.797v-.984c0-2.281 1.516-3.781 3.719-3.781zm.009 1.508c-1.203 0-1.868 1.023-1.868 2.328v.898c0 1.297.618 2.328 1.868 2.328 1.242 0 1.843-1.023 1.843-2.328v-.898c0-1.313-.64-2.328-1.843-2.328zm6.547 6.914v-6.735h-1.368v-1.468h1.368v-.829c0-1.648.804-2.336 2.757-2.336.493 0 .938.047 1.086.063v1.39a8.086 8.086 0 0 0-.758-.038c-.89 0-1.28.265-1.28 1.078v.672h1.874v1.468h-1.844v6.735h-1.835zm11.32 0h-1.89v-10.664h1.89v10.664zm2.664 0v-8.274h1.805v1.469h.093c.211-.648.82-1.594 2.477-1.594 1.664 0 2.773.93 2.773 2.836v5.563h-1.843v-5.024c0-1.234-.649-1.765-1.586-1.765-1.22 0-1.875.906-1.875 2.195v4.594h-1.844zm10.39 0v-6.735h-1.367v-1.468h1.368v-.829c0-1.648.804-2.336 2.757-2.336.493 0 .938.047 1.086.063v1.39a8.086 8.086 0 0 0-.758-.038c-.89 0-1.28.265-1.28 1.078v.672h1.874v1.468h-1.844v6.735h-1.835zm8.766-8.422c2.195 0 3.711 1.437 3.711 3.773v.985c0 2.437-1.516 3.804-3.71 3.804-2.22 0-3.72-1.351-3.72-3.797v-.984c0-2.281 1.516-3.781 3.72-3.781zm.008 1.508c-1.203 0-1.867 1.023-1.867 2.328v.898c0 1.297.617 2.328 1.867 2.328 1.242 0 1.844-1.023 1.844-2.328v-.898c0-1.313-.64-2.328-1.844-2.328zm5.969 6.914v-8.274h1.843v1.29h.094c.18-.555.781-1.415 2.14-1.415.25 0 .446.024.61.055v1.664c-.156-.047-.469-.063-.765-.063-1.383 0-2.04.805-2.04 1.915v4.828h-1.882zm6.43 0v-8.274h1.804v1.352h.094c.187-.602.75-1.477 2.25-1.477 1.25 0 2.023.664 2.281 1.547h.078c.297-.766 1.094-1.547 2.508-1.547 1.68 0 2.68.977 2.68 2.61v5.789h-1.844v-5.211c0-1.055-.57-1.61-1.516-1.61-.898 0-1.593.664-1.593 1.743v5.078h-1.79v-5.172c0-1.07-.632-1.649-1.546-1.649-.899 0-1.563.633-1.563 1.727v5.094h-1.844zm16.492.125c-1.61 0-2.72-.977-2.72-2.524 0-1.476 1.024-2.46 2.93-2.46h2.07v-.759c0-.882-.577-1.304-1.491-1.304-.907 0-1.32.375-1.446.906h-1.75c.102-1.367 1.11-2.383 3.243-2.383 1.796 0 3.28.735 3.28 2.82v5.579h-1.75v-1.063h-.085c-.352.625-1.063 1.188-2.281 1.188zm.578-1.438c.945 0 1.703-.617 1.703-1.469v-.875h-1.735c-.976 0-1.414.485-1.414 1.141 0 .82.696 1.203 1.446 1.203zm6.57-6.89v-2.063h1.797v2.063h1.851v1.468h-1.851v4.196c0 .859.344 1.109 1.25 1.109.242 0 .547-.016.687-.031v1.43a8.29 8.29 0 0 1-1.14.085c-2.031 0-2.625-.71-2.625-2.39v-4.399h-1.258v-1.468h1.289zm5.922 8.203v-8.274h1.844v8.274h-1.844zm-.274-10.743c0-.64.477-1.101 1.188-1.101.727 0 1.21.46 1.21 1.101 0 .633-.483 1.094-1.21 1.094-.703 0-1.188-.46-1.188-1.094zm8.172 2.32c2.196 0 3.711 1.438 3.711 3.774v.985c0 2.437-1.515 3.804-3.71 3.804-2.22 0-3.72-1.351-3.72-3.797v-.984c0-2.281 1.516-3.781 3.72-3.781zm.008 1.509c-1.203 0-1.867 1.023-1.867 2.328v.898c0 1.297.617 2.328 1.867 2.328 1.242 0 1.844-1.023 1.844-2.328v-.898c0-1.313-.64-2.328-1.844-2.328zm5.875 6.914v-8.274h1.805v1.469h.094c.21-.648.82-1.594 2.476-1.594 1.664 0 2.774.93 2.774 2.836v5.563h-1.844v-5.024c0-1.234-.649-1.765-1.586-1.765-1.219 0-1.875.906-1.875 2.195v4.594h-1.844z"/>
                <g stroke="#BDBDBD" stroke-linecap="round" stroke-linejoin="round" stroke-width="1.5" style="mix-blend-mode:darken">
                    <path d="M26.402 199.57l16-16M26.402 183.57l16 16"/>
                </g>
            </g>
        </g>
    </g>
</svg>
