<svg xmlns="http://www.w3.org/2000/svg" xmlns:xlink="http://www.w3.org/1999/xlink" width="334" height="581" viewBox="0 0 334 581">
    <defs>
        <rect id="a" width="320" height="567" rx="4"/>
        <filter id="b" width="106.9%" height="103.9%" x="-3.4%" y="-2.1%" filterUnits="objectBoundingBox">
            <feOffset dy="-1" in="SourceAlpha" result="shadowOffsetOuter1"/>
            <feGaussianBlur in="shadowOffsetOuter1" result="shadowBlurOuter1" stdDeviation="3.5"/>
            <feColorMatrix in="shadowBlurOuter1" values="0 0 0 0 0 0 0 0 0 0 0 0 0 0 0 0 0 0 0.15 0"/>
        </filter>
    </defs>
    <g fill="none" fill-rule="evenodd" transform="translate(7 8)">
        <mask id="c" fill="#fff">
            <use xlink:href="#a"/>
        </mask>
        <use fill="#000" filter="url(#b)" xlink:href="#a"/>
        <use fill="#FFF" xlink:href="#a"/>
        <g mask="url(#c)">
            <path fill="#FFF" d="M-.112.523h320v48h-320z"/>
            <path stroke="#E0E0E0" d="M-.112 49.023h320"/>
            <g>
                <g stroke="#BDBDBD" stroke-linecap="round" stroke-linejoin="round" stroke-width="1.5" style="mix-blend-mode:darken">
                    <path d="M23.888 32.523l16-16M23.888 16.523l16 16"/>
                </g>
                <path fill="#000" fill-opacity=".54" d="M61.208 30.523h-1.89v-9.015H56.23v-1.649h8.063v1.649h-3.086v9.015zm4.664 0V22.25h1.844v8.273h-1.844zm-.273-10.742c0-.64.476-1.101 1.187-1.101.727 0 1.211.46 1.211 1.101 0 .633-.484 1.094-1.211 1.094-.703 0-1.187-.461-1.187-1.094zm5.367 2.54v-2.063h1.797v2.062h1.851v1.469h-1.851v4.195c0 .86.343 1.11 1.25 1.11.242 0 .546-.016.687-.032v1.43a8.29 8.29 0 0 1-1.14.086c-2.032 0-2.626-.711-2.626-2.39v-4.4h-1.257V22.32h1.289zm5.812 8.202v-11.43h1.844v11.43h-1.844zm7.766.14c-2.274 0-3.695-1.366-3.695-3.757V25.86c0-2.406 1.554-3.758 3.593-3.758 2.094 0 3.57 1.446 3.57 3.758v.961H82.67v.399c0 1.132.695 1.953 1.867 1.953.883 0 1.5-.414 1.61-.93h1.78c-.093.992-1.109 2.422-3.382 2.422zm-1.875-5.038h3.547v-.094c0-1.18-.703-1.96-1.766-1.96-1.07 0-1.781.78-1.781 1.96v.094zm14.39-3.524c2.196 0 3.711 1.438 3.711 3.774v.984c0 2.438-1.515 3.805-3.71 3.805-2.22 0-3.72-1.352-3.72-3.797v-.984c0-2.282 1.516-3.782 3.72-3.782zm.008 1.508c-1.203 0-1.867 1.024-1.867 2.328v.899c0 1.297.617 2.328 1.867 2.328 1.242 0 1.844-1.024 1.844-2.328v-.899c0-1.312-.64-2.328-1.844-2.328zm6.547 6.914V23.79h-1.367V22.32h1.367v-.828c0-1.648.805-2.336 2.758-2.336.492 0 .937.047 1.086.063v1.39a8.086 8.086 0 0 0-.758-.039c-.89 0-1.281.266-1.281 1.078v.672h1.875v1.469h-1.844v6.734h-1.836zm11.32 0h-1.89V19.86h1.89v10.664zm2.665 0V22.25h1.804v1.469h.094c.21-.649.82-1.594 2.477-1.594 1.664 0 2.773.93 2.773 2.836v5.562h-1.844V25.5c0-1.235-.648-1.766-1.586-1.766-1.218 0-1.875.906-1.875 2.196v4.593H117.6zm10.39 0V23.79h-1.367V22.32h1.367v-.828c0-1.648.805-2.336 2.758-2.336.492 0 .937.047 1.086.063v1.39a8.086 8.086 0 0 0-.758-.039c-.89 0-1.281.266-1.281 1.078v.672h1.875v1.469h-1.844v6.734h-1.836zm8.766-8.422c2.195 0 3.71 1.438 3.71 3.774v.984c0 2.438-1.515 3.805-3.71 3.805-2.219 0-3.719-1.352-3.719-3.797v-.984c0-2.282 1.516-3.782 3.719-3.782zm.008 1.508c-1.204 0-1.868 1.024-1.868 2.328v.899c0 1.297.618 2.328 1.868 2.328 1.242 0 1.843-1.024 1.843-2.328v-.899c0-1.312-.64-2.328-1.843-2.328zm5.968 6.914V22.25h1.844v1.289h.094c.18-.555.781-1.414 2.14-1.414.25 0 .446.023.61.055v1.664c-.156-.047-.469-.063-.766-.063-1.383 0-2.039.805-2.039 1.914v4.828h-1.883zm6.43 0V22.25h1.805V23.6h.093c.188-.601.75-1.476 2.25-1.476 1.25 0 2.024.664 2.282 1.547h.078c.297-.766 1.094-1.547 2.508-1.547 1.68 0 2.68.976 2.68 2.61v5.788h-1.844v-5.21c0-1.055-.57-1.61-1.516-1.61-.898 0-1.594.664-1.594 1.742v5.078h-1.789v-5.172c0-1.07-.633-1.648-1.547-1.648-.898 0-1.562.633-1.562 1.727v5.093h-1.844zm16.492.125c-1.61 0-2.719-.976-2.719-2.523 0-1.477 1.024-2.461 2.93-2.461h2.07v-.758c0-.883-.578-1.305-1.492-1.305-.906 0-1.32.375-1.445.907h-1.75c.102-1.368 1.11-2.383 3.242-2.383 1.797 0 3.281.734 3.281 2.82v5.578h-1.75v-1.062h-.086c-.351.625-1.062 1.187-2.28 1.187zm.578-1.437c.946 0 1.703-.617 1.703-1.469v-.875H166.2c-.976 0-1.414.484-1.414 1.14 0 .821.695 1.204 1.445 1.204zm6.57-6.89v-2.063h1.798v2.062h1.851v1.469H174.6v4.195c0 .86.343 1.11 1.25 1.11.242 0 .546-.016.687-.032v1.43a8.29 8.29 0 0 1-1.14.086c-2.032 0-2.626-.711-2.626-2.39v-4.4h-1.257V22.32h1.289zm5.923 8.202V22.25h1.843v8.273h-1.843zm-.274-10.742c0-.64.477-1.101 1.188-1.101.726 0 1.21.46 1.21 1.101 0 .633-.484 1.094-1.21 1.094-.704 0-1.188-.461-1.188-1.094zm8.172 2.32c2.195 0 3.71 1.438 3.71 3.774v.984c0 2.438-1.515 3.805-3.71 3.805-2.219 0-3.719-1.352-3.719-3.797v-.984c0-2.282 1.516-3.782 3.719-3.782zm.008 1.508c-1.203 0-1.867 1.024-1.867 2.328v.899c0 1.297.617 2.328 1.867 2.328 1.242 0 1.844-1.024 1.844-2.328v-.899c0-1.312-.641-2.328-1.844-2.328zm5.875 6.914V22.25h1.804v1.469h.094c.211-.649.82-1.594 2.477-1.594 1.664 0 2.773.93 2.773 2.836v5.562h-1.844V25.5c0-1.235-.648-1.766-1.585-1.766-1.22 0-1.875.906-1.875 2.196v4.593h-1.844z"/>
            </g>
        </g>
    </g>
</svg>
