<svg xmlns="http://www.w3.org/2000/svg" xmlns:xlink="http://www.w3.org/1999/xlink" width="504" height="264" viewBox="0 0 504 264">
    <defs>
        <path id="b" d="M0 .108h320V250H0z"/>
        <filter id="a" width="106.9%" height="108.8%" x="-3.4%" y="-4.8%" filterUnits="objectBoundingBox">
            <feOffset dy="-1" in="SourceAlpha" result="shadowOffsetOuter1"/>
            <feGaussianBlur in="shadowOffsetOuter1" result="shadowBlurOuter1" stdDeviation="3.5"/>
            <feColorMatrix in="shadowBlurOuter1" values="0 0 0 0 0 0 0 0 0 0 0 0 0 0 0 0 0 0 0.15 0"/>
        </filter>
    </defs>
    <g fill="none" fill-rule="evenodd">
        <g transform="translate(8 8)">
            <use fill="#000" filter="url(#a)" xlink:href="#b"/>
            <use fill="#FFF" xlink:href="#b"/>
        </g>
        <path fill="#FFF" d="M8 8.108h314v49.5H8z"/>
        <path stroke="#E0E0E0" d="M9 57.608h318.813"/>
        <path fill="#000" fill-opacity=".54" d="M69.32 38.108h-1.89v-9.016h-3.086v-1.648h8.062v1.648H69.32v9.016zm4.664 0v-8.274h1.844v8.274h-1.844zm-.273-10.742c0-.641.477-1.102 1.187-1.102.727 0 1.211.46 1.211 1.102 0 .632-.484 1.093-1.21 1.093-.704 0-1.188-.46-1.188-1.093zm5.367 2.539v-2.063h1.797v2.063h1.852v1.468h-1.852v4.196c0 .86.344 1.11 1.25 1.11.242 0 .547-.017.688-.032v1.43a8.29 8.29 0 0 1-1.141.085c-2.031 0-2.625-.71-2.625-2.39v-4.399h-1.258v-1.468h1.29zm5.813 8.203v-11.43h1.843v11.43h-1.843zm7.765.14c-2.273 0-3.695-1.367-3.695-3.757v-1.047c0-2.407 1.555-3.758 3.594-3.758 2.093 0 3.57 1.445 3.57 3.758v.96h-5.344v.4c0 1.132.696 1.952 1.867 1.952.883 0 1.5-.414 1.61-.93h1.781c-.094.993-1.11 2.422-3.383 2.422zm-1.875-5.039h3.547v-.093c0-1.18-.703-1.961-1.766-1.961-1.07 0-1.78.78-1.78 1.96v.094zm14.39-3.523c2.196 0 3.712 1.437 3.712 3.773v.985c0 2.437-1.516 3.804-3.711 3.804-2.219 0-3.719-1.351-3.719-3.797v-.984c0-2.281 1.516-3.781 3.719-3.781zm.009 1.508c-1.203 0-1.868 1.023-1.868 2.328v.898c0 1.297.618 2.328 1.868 2.328 1.242 0 1.843-1.023 1.843-2.328v-.898c0-1.313-.64-2.328-1.843-2.328zm6.547 6.914v-6.735h-1.368v-1.468h1.368v-.829c0-1.648.804-2.335 2.757-2.335.493 0 .938.046 1.086.062v1.39a8.086 8.086 0 0 0-.757-.038c-.891 0-1.282.265-1.282 1.078v.672h1.875v1.468h-1.844v6.735h-1.835zm11.32 0h-1.89V27.444h1.89v10.664zm2.664 0v-8.274h1.805v1.47h.093c.211-.65.82-1.595 2.477-1.595 1.664 0 2.773.93 2.773 2.836v5.563h-1.843v-5.024c0-1.234-.649-1.765-1.586-1.765-1.22 0-1.875.906-1.875 2.195v4.594h-1.844zm10.39 0v-6.735h-1.367v-1.468h1.368v-.829c0-1.648.804-2.335 2.757-2.335.493 0 .938.046 1.086.062v1.39a8.086 8.086 0 0 0-.757-.038c-.891 0-1.282.265-1.282 1.078v.672h1.875v1.468h-1.844v6.735h-1.835zm8.766-8.422c2.196 0 3.711 1.437 3.711 3.773v.985c0 2.437-1.516 3.804-3.71 3.804-2.22 0-3.72-1.351-3.72-3.797v-.984c0-2.281 1.516-3.781 3.72-3.781zm.008 1.508c-1.203 0-1.867 1.023-1.867 2.328v.898c0 1.297.617 2.328 1.867 2.328 1.242 0 1.844-1.023 1.844-2.328v-.898c0-1.313-.64-2.328-1.844-2.328zm5.969 6.914v-8.274h1.844v1.29h.093c.18-.555.781-1.415 2.14-1.415.25 0 .446.024.61.055v1.664c-.156-.047-.469-.062-.765-.062-1.383 0-2.04.804-2.04 1.914v4.828h-1.882zm6.43 0v-8.274h1.804v1.352h.094c.187-.602.75-1.477 2.25-1.477 1.25 0 2.023.664 2.281 1.547h.078c.297-.765 1.094-1.547 2.508-1.547 1.68 0 2.68.977 2.68 2.61v5.789h-1.844v-5.211c0-1.055-.57-1.61-1.516-1.61-.898 0-1.593.664-1.593 1.743v5.078h-1.79v-5.172c0-1.07-.632-1.649-1.546-1.649-.899 0-1.563.633-1.563 1.727v5.094h-1.844zm16.492.125c-1.61 0-2.72-.977-2.72-2.524 0-1.476 1.024-2.46 2.93-2.46h2.07v-.758c0-.883-.577-1.305-1.491-1.305-.907 0-1.32.375-1.446.906h-1.75c.102-1.367 1.11-2.383 3.243-2.383 1.796 0 3.28.735 3.28 2.82v5.579h-1.75v-1.063h-.085c-.352.625-1.063 1.188-2.281 1.188zm.578-1.438c.945 0 1.703-.617 1.703-1.469v-.875h-1.734c-.977 0-1.415.485-1.415 1.141 0 .82.696 1.203 1.446 1.203zm6.57-6.89v-2.063h1.797v2.063h1.851v1.468h-1.851v4.196c0 .86.344 1.11 1.25 1.11.242 0 .547-.017.687-.032v1.43a8.29 8.29 0 0 1-1.14.085c-2.031 0-2.625-.71-2.625-2.39v-4.399h-1.258v-1.468h1.29zm5.922 8.203v-8.274h1.844v8.274h-1.844zm-.274-10.742c0-.641.477-1.102 1.188-1.102.727 0 1.21.46 1.21 1.102 0 .632-.483 1.093-1.21 1.093-.703 0-1.188-.46-1.188-1.093zm8.172 2.32c2.196 0 3.711 1.437 3.711 3.773v.985c0 2.437-1.515 3.804-3.71 3.804-2.22 0-3.72-1.351-3.72-3.797v-.984c0-2.281 1.516-3.781 3.72-3.781zm.008 1.508c-1.203 0-1.867 1.023-1.867 2.328v.898c0 1.297.617 2.328 1.867 2.328 1.242 0 1.844-1.023 1.844-2.328v-.898c0-1.313-.64-2.328-1.844-2.328zm5.875 6.914v-8.274h1.805v1.47h.094c.21-.65.82-1.595 2.476-1.595 1.664 0 2.774.93 2.774 2.836v5.563h-1.844v-5.024c0-1.234-.649-1.765-1.586-1.765-1.219 0-1.875.906-1.875 2.195v4.594h-1.844z"/>
        <g stroke="#BDBDBD" stroke-linecap="round" stroke-linejoin="round" stroke-width="1.5" style="mix-blend-mode:darken">
            <path d="M32 40.108l16-16M32 24.108l16 16"/>
        </g>
        <text fill="#FF5722" font-family="ProximaNova-Regular, Proxima Nova" font-size="14" transform="translate(0 4)">
            <tspan x="351" y="137">varies based on the case</tspan>
        </text>
        <g transform="translate(46 4)">
            <path fill="#50E3C2" d="M11 29h8v1h-8z"/>
            <path fill="#50E3C2" d="M11 27h1v5h-1zM18 27h1v5h-1z"/>
            <rect width="29" height="22" fill="#50E3C2" rx="2"/>
            <path fill="#50E3C2" d="M11 22l4-4 4 4-4 4z"/>
            <text fill="#FFF" font-family="HelveticaNeue, Helvetica Neue" font-size="12">
                <tspan x="4.498" y="15">8px</tspan>
            </text>
        </g>
        <g transform="translate(183 6)">
            <path fill="#50E3C2" d="M2 3h1v16H2z"/>
            <path fill="#50E3C2" d="M0 3h5v1H0zM0 18h5v1H0z"/>
            <rect width="35" height="22" x="8" fill="#50E3C2" rx="2"/>
            <path fill="#50E3C2" d="M4 11l4-4 4 4-4 4z"/>
            <text fill="#FFF" font-family="HelveticaNeue, Helvetica Neue" font-size="12">
                <tspan x="12.162" y="15">16px</tspan>
            </text>
        </g>
        <g transform="translate(183 40)">
            <path fill="#50E3C2" d="M2 1h1v17H2z"/>
            <path fill="#50E3C2" d="M0 1h5v1H0zM0 17h5v1H0z"/>
            <rect width="35" height="22" x="9" fill="#50E3C2" rx="2"/>
            <path fill="#50E3C2" d="M5 11l4-4 4 4-4 4z"/>
            <text fill="#FFF" font-family="HelveticaNeue, Helvetica Neue" font-size="12">
                <tspan x="13.162" y="15">16px</tspan>
            </text>
        </g>
        <g transform="translate(0 4)">
            <path fill="#50E3C2" d="M9 29h16v1H9z"/>
            <path fill="#50E3C2" d="M9 27h1v5H9zM24 27h1v5h-1z"/>
            <rect width="35" height="22" fill="#50E3C2" rx="2"/>
            <path fill="#50E3C2" d="M14 22l4-4 4 4-4 4z"/>
            <text fill="#FFF" font-family="HelveticaNeue, Helvetica Neue" font-size="12">
                <tspan x="4.162" y="15">16px</tspan>
            </text>
        </g>
        <g fill="#F50">
            <path d="M346 9h1v249.892h-1z"/>
            <path d="M344 9h5v1h-5zM344 257.892h5v1h-5z"/>
        </g>
    </g>
</svg>
