<svg xmlns="http://www.w3.org/2000/svg" xmlns:xlink="http://www.w3.org/1999/xlink" width="258px" height="165px" viewBox="0 0 458 290">
    <defs>
        <rect id="a" width="458" height="290" rx="4"/>
        <path id="d" d="M13.15 293.192h141.515V43.64H13.151v249.552zm52.682-268.66a2.678 2.678 0 0 1 2.682 2.674c0 1.478-1.2 2.676-2.682 2.676a2.679 2.679 0 0 1-2.682-2.676c0-1.477 1.2-2.675 2.682-2.675zm7.358 1.404h25.873c.7 0 1.274.572 1.274 1.27 0 .7-.574 1.27-1.274 1.27H73.19c-.7 0-1.274-.57-1.274-1.27 0-.698.574-1.27 1.274-1.27zm93.092 76.05c0-25.83.014-51.662-.027-77.493-.003-2.091-.19-4.226-.636-6.266C163.465 8.364 154.822.123 142.86.163c-26.732.09-53.464.028-80.196.028C49.1.19 35.538.196 21.975.188c-5.523-.003-10.12 2.08-13.874 6.074-1.833 1.949-3.246 4.175-4.337 6.611-1.568 3.5-2.257 7.185-2.27 10.998-.02 6.47-.005 12.94-.005 19.41v1.792C.07 45.75.032 45.768.023 47.13c-.018 2.99.024 5.98-.022 8.97-.017 1.064.28 1.805 1.384 2v21.592c-1.444.082-1.368 1.09-1.368 2.042C.014 87.42.032 93.105 0 98.79c-.006 1.115.123 2.05 1.398 2.292v7.31c-1.185.057-1.393.776-1.39 1.723.016 5.93.018 11.862 0 17.792-.003.965.268 1.635 1.48 1.717v184.131c0 .638-.01 1.275.003 1.912.107 5.417 1.449 10.472 4.61 14.937 3.86 5.45 8.996 8.67 15.861 8.67 40.443.006 80.886.006 121.328-.009 1.273 0 2.57-.06 3.813-.303 8.307-1.62 14.04-6.439 17.36-14.15 1.397-3.246 1.824-6.683 1.823-10.196-.007-70.877-.005-141.754-.005-212.63z"/>
        <filter id="c" width="115%" height="107.4%" x="-6.9%" y="-3.4%" filterUnits="objectBoundingBox">
            <feOffset dx="1" dy="1" in="SourceAlpha" result="shadowOffsetOuter1"/>
            <feGaussianBlur in="shadowOffsetOuter1" result="shadowBlurOuter1" stdDeviation="4"/>
            <feColorMatrix in="shadowBlurOuter1" values="0 0 0 0 0 0 0 0 0 0 0 0 0 0 0 0 0 0 0.15 0"/>
        </filter>
        <path id="f" d="M146.624 231.667H21.8a1.334 1.334 0 0 1-1.336-1.332v-58.286c0-.736.599-1.332 1.336-1.332h124.823c.738 0 1.336.596 1.336 1.332v58.286c0 .736-.598 1.332-1.336 1.332"/>
        <filter id="e" width="117.3%" height="136.1%" x="-7.8%" y="-11.5%" filterUnits="objectBoundingBox">
            <feOffset dx="1" dy="4" in="SourceAlpha" result="shadowOffsetOuter1"/>
            <feGaussianBlur in="shadowOffsetOuter1" result="shadowBlurOuter1" stdDeviation="3"/>
            <feColorMatrix in="shadowBlurOuter1" values="0 0 0 0 0 0 0 0 0 0 0 0 0 0 0 0 0 0 0.15 0"/>
        </filter>
        <path id="h" d="M107.23 10.406H2.02a2.001 2.001 0 0 1-2.004-2V2.325C.016 1.22.913.326 2.02.326h105.21c1.107 0 2.004.894 2.004 1.998v6.083a2.001 2.001 0 0 1-2.004 1.999"/>
        <filter id="g" width="116.5%" height="278.6%" x="-8.2%" y="-59.5%" filterUnits="objectBoundingBox">
            <feOffset dy="3" in="SourceAlpha" result="shadowOffsetOuter1"/>
            <feGaussianBlur in="shadowOffsetOuter1" result="shadowBlurOuter1" stdDeviation="2.5"/>
            <feColorMatrix in="shadowBlurOuter1" values="0 0 0 0 0 0 0 0 0 0 0 0 0 0 0 0 0 0 0.15 0"/>
        </filter>
        <linearGradient id="i" x1="50%" x2="50%" y1="0%" y2="50%">
            <stop offset="0%" stop-color="#FFF" stop-opacity="0"/>
            <stop offset="100%" stop-color="#FFF"/>
        </linearGradient>
    </defs>
    <g fill="none" fill-rule="evenodd">
        <mask id="b" fill="#fff">
            <use xlink:href="#a"/>
        </mask>
        <use fill="#F8F8F8" xlink:href="#a"/>
        <g mask="url(#b)">
            <g transform="translate(107 28.127)">
                <use fill="#000" filter="url(#c)" xlink:href="#d"/>
                <use fill="#FEFEFE" xlink:href="#d"/>
            </g>
            <path fill="#D0D2D3" d="M172.832 54.063c.703 0 1.274.569 1.274 1.27 0 .702-.57 1.271-1.274 1.271a1.272 1.272 0 0 1-1.274-1.27c0-.702.57-1.271 1.274-1.271m0 3.946a2.679 2.679 0 0 0 2.682-2.676c0-1.477-1.2-2.674-2.682-2.674a2.678 2.678 0 0 0-2.682 2.674c0 1.478 1.2 2.676 2.682 2.676"/>
            <path fill="#BBBDBF" d="M172.832 56.604c.703 0 1.274-.569 1.274-1.27 0-.703-.57-1.27-1.274-1.27-.703 0-1.274.567-1.274 1.27 0 .701.57 1.27 1.274 1.27"/>
            <path fill="#D0D2D3" d="M180.19 56.604h25.873c.7 0 1.274-.571 1.274-1.27 0-.7-.573-1.27-1.274-1.27H180.19c-.7 0-1.274.57-1.274 1.27 0 .699.573 1.27 1.274 1.27"/>
            <path fill="#FFF" d="M120.15 321.32h141.515V71.766H120.151z"/>
            <path fill="#42B449" d="M120.15 109.14h141.515V71.768H120.151z"/>
            <path fill="#F8F8F8" d="M120.15 192.182h141.515v-83.04H120.151z"/>
            <g transform="translate(107 28.127)">
                <use fill="#000" filter="url(#e)" xlink:href="#f"/>
                <use fill="#F1F1F2" xlink:href="#f"/>
            </g>
            <path fill="#F1F1F2" d="M120.15 314.544h141.515v-48.179H120.151z"/>
            <g transform="translate(126.782 78.264)">
                <use fill="#000" filter="url(#g)" xlink:href="#h"/>
                <use fill="#E5E6E7" xlink:href="#h"/>
            </g>
            <path fill="#E5E6E7" d="M147.835 102.327h-19.702a1.334 1.334 0 0 1-1.336-1.332v-.043c0-.736.599-1.333 1.336-1.333h19.702c.739 0 1.336.597 1.336 1.333v.043c0 .736-.597 1.332-1.336 1.332M183.568 102.327h-19.703a1.334 1.334 0 0 1-1.335-1.332v-.043c0-.736.598-1.333 1.335-1.333h19.703c.738 0 1.336.597 1.336 1.333v.043c0 .736-.598 1.332-1.336 1.332M219.3 102.327h-19.702a1.334 1.334 0 0 1-1.336-1.332v-.043c0-.736.598-1.333 1.336-1.333H219.3c.738 0 1.336.597 1.336 1.333v.043c0 .736-.598 1.332-1.336 1.332M253.697 102.327H235.33a1.334 1.334 0 0 1-1.336-1.332v-.043c0-.736.599-1.333 1.336-1.333h18.367c.738 0 1.335.597 1.335 1.333v.043c0 .736-.597 1.332-1.335 1.332M254.619 83.63a5.046 5.046 0 0 1-5.053 5.04 5.046 5.046 0 0 1-5.053-5.04 5.046 5.046 0 0 1 5.053-5.04 5.046 5.046 0 0 1 5.053 5.04M163.669 169.3c.318.19.702.308 1.086.314l16.218.023 39.46.053a2.119 2.119 0 0 0 1.935-1.238 2.071 2.071 0 0 0-.286-2.26l-21.165-25.448c-.416-.52-1.064-.793-1.73-.777-.65.03-1.266.343-1.654.88L185.607 157.4l-6.83-8.417a2.093 2.093 0 0 0-1.718-.773 2.176 2.176 0 0 0-1.691.88l-12.335 17.129a2.092 2.092 0 0 0-.17 2.213c.177.383.474.673.806.869M217.902 144.85c3.663.002 6.626-2.954 6.633-6.601.007-3.65-2.961-6.61-6.612-6.616-3.66-.004-6.634 2.946-6.64 6.595-.003 3.653 2.958 6.61 6.619 6.622"/>
            <path fill="#D0D2D3" d="M148.503 206.86h-13.407a1.334 1.334 0 0 1-1.336-1.333v-.043c0-.736.597-1.332 1.336-1.332h13.407c.738 0 1.336.596 1.336 1.332v.043c0 .737-.598 1.333-1.336 1.333M173.286 206.86h-13.408a1.334 1.334 0 0 1-1.336-1.333v-.043c0-.736.598-1.332 1.336-1.332h13.408c.738 0 1.336.596 1.336 1.332v.043c0 .737-.598 1.333-1.336 1.333M153.116 221.547h-18.02a1.334 1.334 0 0 1-1.337-1.332v-.044c0-.736.599-1.332 1.336-1.332h18.021c.738 0 1.336.596 1.336 1.332v.044c0 .736-.598 1.332-1.336 1.332M230.79 227.065h-96.02a1.334 1.334 0 0 1-1.336-1.332v-.044c0-.736.598-1.332 1.336-1.332h96.02c.738 0 1.336.596 1.336 1.332v.044c0 .736-.598 1.332-1.336 1.332M146.437 275.28h-18.021a1.334 1.334 0 0 1-1.336-1.332v-.043c0-.736.598-1.333 1.336-1.333h18.021c.738 0 1.336.597 1.336 1.333v.043c0 .736-.598 1.333-1.336 1.333"/>
            <path fill="#F69B22" d="M246.731 253.743H136.22a2.001 2.001 0 0 1-2.004-1.999v-10.183c0-1.104.897-1.999 2.004-1.999h110.512c1.107 0 2.004.895 2.004 1.999v10.183a2.001 2.001 0 0 1-2.004 1.999"/>
            <path fill="#D0D2D3" d="M198.068 206.86h-13.407a1.334 1.334 0 0 1-1.336-1.333v-.043c0-.736.598-1.332 1.336-1.332h13.407c.739 0 1.336.596 1.336 1.332v.043c0 .737-.597 1.333-1.336 1.333M222.851 206.86h-13.408a1.334 1.334 0 0 1-1.336-1.333v-.043c0-.736.598-1.332 1.336-1.332h13.408c.738 0 1.336.596 1.336 1.332v.043c0 .737-.598 1.333-1.336 1.333M247.634 206.86h-13.408a1.334 1.334 0 0 1-1.336-1.333v-.043c0-.736.598-1.332 1.336-1.332h13.408c.738 0 1.335.596 1.335 1.332v.043c0 .737-.597 1.333-1.335 1.333"/>
            <path stroke="#E5E6E7" d="M127.465 212.168h127.567"/>
            <path stroke="#D0D2D3" stroke-width=".5" d="M134.196 233.487h115.441"/>
            <g fill="#D0D2D3">
                <path d="M146.406 295.437h-18.273a1.334 1.334 0 0 1-1.336-1.332v-10.721c0-.736.599-1.333 1.336-1.333h18.273c.738 0 1.336.597 1.336 1.333v10.72c0 .737-.598 1.333-1.336 1.333M182.12 295.437h-18.273a1.334 1.334 0 0 1-1.336-1.332v-10.721c0-.736.599-1.333 1.336-1.333h18.273c.738 0 1.336.597 1.336 1.333v10.72c0 .737-.598 1.333-1.336 1.333M217.834 295.437H199.56a1.334 1.334 0 0 1-1.336-1.332v-10.721c0-.736.598-1.333 1.336-1.333h18.273c.738 0 1.336.597 1.336 1.333v10.72c0 .737-.598 1.333-1.336 1.333M253.548 295.437h-18.273a1.334 1.334 0 0 1-1.336-1.332v-10.721c0-.736.598-1.333 1.336-1.333h18.273c.738 0 1.335.597 1.335 1.333v10.72c0 .737-.597 1.333-1.335 1.333"/>
            </g>
            <path fill="#BBBDBF" d="M187.332 187.007c0 .945-.767 1.71-1.714 1.71a1.713 1.713 0 0 1-1.715-1.71c0-.945.768-1.71 1.715-1.71.947 0 1.714.765 1.714 1.71"/>
            <path fill="#F0F0F1" d="M194.011 187.007c0 .945-.767 1.71-1.714 1.71a1.713 1.713 0 0 1-1.715-1.71c0-.945.768-1.71 1.715-1.71.947 0 1.714.765 1.714 1.71M200.69 187.007c0 .945-.767 1.71-1.714 1.71a1.713 1.713 0 0 1-1.715-1.71c0-.945.769-1.71 1.715-1.71.947 0 1.715.765 1.715 1.71"/>
            <path fill="#F05F68" d="M120.189 80.215h6.647v6.63h-6.647zM120.189 208.173h6.647v6.63h-6.647zM186.976 192.224h6.647v6.63h-6.647z"/>
            <path fill="#4A90E2" d="M169.663 89.239h9.971v9.946h-9.971zM149.305 200.3h9.971v9.946h-9.971z"/>
            <path fill="#BD71FF" d="M220.764 95.87h13.295v13.261h-13.295z"/>
            <path fill="#F05F68" d="M186.976 259.859h6.647v6.63h-6.647zM254.798 80.215h6.647v6.63h-6.647zM254.798 208.173h6.647v6.63h-6.647z"/>
            <path fill="url(#i)" d="M.128 190.781h171.679V350.77H.128z" transform="translate(107 28)"/>
            <path fill="#F05F68" d="M321.57 86h-1.377v-5.531c0-.66.016-1.184.047-1.57-.09.093-.2.197-.33.31-.132.113-.57.473-1.316 1.078l-.692-.873 2.52-1.98h1.148V86zm2.83-3.65c0-3.352 1.366-5.028 4.096-5.028.43 0 .793.033 1.09.1v1.148a3.72 3.72 0 0 0-1.031-.129c-.918 0-1.608.246-2.069.739-.46.492-.71 1.28-.75 2.367h.07c.184-.317.442-.562.774-.735.332-.174.723-.261 1.172-.261.777 0 1.383.238 1.816.715.434.476.65 1.123.65 1.94 0 .898-.25 1.607-.752 2.129-.502.521-1.187.782-2.054.782-.613 0-1.146-.147-1.6-.442-.453-.295-.801-.725-1.045-1.29-.245-.564-.367-1.242-.367-2.035zm2.989 2.63c.472 0 .837-.152 1.092-.457.256-.304.384-.74.384-1.306 0-.492-.12-.88-.36-1.16-.24-.282-.6-.422-1.081-.422-.297 0-.57.063-.82.19s-.448.301-.592.522c-.145.22-.217.446-.217.676 0 .551.15 1.015.448 1.392.299.377.68.565 1.146.565zm7.582 1.137c-.82 0-1.457-.295-1.91-.885h-.082c.054.547.082.88.082.997v2.654h-1.377V79.52h1.113c.031.12.096.41.193.867h.07c.43-.657 1.075-.985 1.934-.985.809 0 1.439.293 1.89.88.451.585.677 1.407.677 2.466 0 1.059-.23 1.885-.689 2.479-.459.593-1.093.89-1.901.89zm-.334-5.59c-.547 0-.947.16-1.199.48-.251.321-.377.833-.377 1.536v.205c0 .79.125 1.36.375 1.714.25.353.658.53 1.224.53.477 0 .844-.195 1.102-.586.258-.39.386-.947.386-1.67 0-.726-.127-1.276-.383-1.65-.256-.372-.632-.559-1.128-.559zm5.965 2.162l-2.174-3.17h1.57l1.477 2.268 1.488-2.267h1.558l-2.18 3.17 2.292 3.31h-1.559l-1.6-2.426L339.882 86h-1.559l2.28-3.31zM347.146 86h-1.376v-9.117h1.376V86zM313.57 216h-1.377v-5.531c0-.66.016-1.184.047-1.57-.09.093-.2.197-.33.31-.132.113-.57.473-1.316 1.078l-.692-.873 2.52-1.98h1.148V216zm2.83-3.65c0-3.352 1.366-5.028 4.096-5.028.43 0 .793.033 1.09.1v1.148a3.72 3.72 0 0 0-1.031-.129c-.918 0-1.608.246-2.069.739-.46.492-.71 1.28-.75 2.367h.07c.184-.317.442-.562.774-.735.332-.174.723-.261 1.172-.261.777 0 1.383.238 1.816.715.434.476.65 1.123.65 1.94 0 .898-.25 1.607-.752 2.129-.502.521-1.187.782-2.054.782-.613 0-1.146-.147-1.6-.442-.453-.295-.801-.725-1.045-1.29-.245-.564-.367-1.242-.367-2.035zm2.989 2.63c.472 0 .837-.152 1.092-.457.256-.304.384-.74.384-1.306 0-.492-.12-.88-.36-1.16-.24-.282-.6-.422-1.081-.422-.297 0-.57.063-.82.19s-.448.301-.592.522c-.145.22-.217.446-.217.676 0 .551.15 1.015.448 1.392.299.377.68.565 1.146.565zm7.582 1.137c-.82 0-1.457-.295-1.91-.885h-.082c.054.547.082.88.082.997v2.654h-1.377v-9.363h1.113c.031.12.096.41.193.867h.07c.43-.657 1.075-.985 1.934-.985.809 0 1.439.293 1.89.88.451.585.677 1.407.677 2.466 0 1.059-.23 1.885-.689 2.479-.459.593-1.093.89-1.901.89zm-.334-5.59c-.547 0-.947.16-1.199.48-.251.321-.377.833-.377 1.536v.205c0 .79.125 1.36.375 1.714.25.353.658.53 1.224.53.477 0 .844-.195 1.102-.586.258-.39.386-.947.386-1.67 0-.726-.127-1.276-.383-1.65-.256-.372-.632-.559-1.128-.559zm5.965 2.162l-2.174-3.17h1.57l1.477 2.268 1.488-2.267h1.558l-2.18 3.17 2.292 3.31h-1.559l-1.6-2.426-1.593 2.426h-1.559l2.28-3.31zm6.544 3.311h-1.376v-9.117h1.376V216z"/>
            <path fill="#4A90E2" d="M360.334 98h-5.807v-1.043l2.21-2.22c.652-.669 1.084-1.142 1.297-1.422.213-.279.368-.542.466-.788.098-.246.146-.51.146-.79 0-.387-.116-.692-.348-.915-.233-.222-.554-.334-.964-.334-.328 0-.646.06-.952.182-.307.121-.661.34-1.064.656l-.744-.908c.477-.402.94-.688 1.389-.855.45-.168.928-.252 1.435-.252.797 0 1.436.208 1.916.624.48.416.721.975.721 1.678 0 .387-.07.754-.208 1.102a4.477 4.477 0 0 1-.639 1.075c-.287.37-.764.868-1.432 1.497l-1.488 1.442v.058h4.066V98zm7.154-1.87h-1.154V98h-1.342v-1.87h-3.914v-1.06l3.914-5.66h1.342v5.578h1.154v1.143zm-2.496-1.142v-2.15c0-.766.02-1.393.059-1.881h-.047c-.11.258-.281.57-.516.938l-2.127 3.093h2.631zm6.979 3.13c-.82 0-1.457-.296-1.91-.886h-.082c.054.547.082.88.082.997v2.654h-1.377V91.52h1.113c.031.12.096.41.193.867h.07c.43-.657 1.075-.985 1.934-.985.809 0 1.439.293 1.89.88.451.585.677 1.407.677 2.466 0 1.059-.23 1.885-.689 2.479-.459.593-1.093.89-1.901.89zm-.334-5.59c-.547 0-.947.16-1.199.48-.251.32-.377.832-.377 1.535v.205c0 .79.125 1.36.375 1.714.25.353.658.53 1.224.53.477 0 .844-.195 1.102-.586.258-.39.386-.947.386-1.67 0-.726-.127-1.276-.383-1.65-.256-.372-.632-.559-1.128-.559zm5.965 2.161l-2.174-3.17h1.57l1.477 2.268 1.488-2.267h1.558l-2.18 3.17 2.292 3.31h-1.559l-1.6-2.426L376.882 98h-1.559l2.28-3.31zM384.146 98h-1.376v-9.117h1.376V98z"/>
            <path fill="#BD71FF" d="M315.012 100.402c0 .543-.158.995-.475 1.357-.316.361-.762.604-1.336.73v.046c.688.086 1.203.3 1.547.642.344.342.516.796.516 1.362 0 .824-.291 1.46-.873 1.907-.582.448-1.41.671-2.485.671-.949 0-1.75-.154-2.402-.463v-1.224a5.487 5.487 0 0 0 2.326.562c.664 0 1.16-.123 1.488-.369.328-.246.493-.627.493-1.143 0-.457-.182-.792-.545-1.007-.364-.215-.934-.323-1.711-.323h-.744v-1.119h.755c1.368 0 2.051-.472 2.051-1.418 0-.367-.119-.65-.357-.85-.239-.199-.59-.298-1.055-.298-.324 0-.637.046-.937.138-.301.091-.657.27-1.067.536l-.674-.961c.786-.578 1.698-.867 2.737-.867.863 0 1.537.185 2.021.556.485.371.727.883.727 1.535zm7.172 6.598h-5.807v-1.043l2.209-2.22c.652-.669 1.085-1.142 1.298-1.422.213-.279.368-.542.466-.788.097-.246.146-.51.146-.79 0-.387-.116-.692-.349-.915-.232-.222-.553-.334-.963-.334-.329 0-.646.06-.953.182-.306.121-.66.34-1.063.656l-.744-.908c.476-.402.94-.688 1.388-.856.45-.167.928-.251 1.436-.251.797 0 1.436.208 1.916.624.48.416.72.975.72 1.678 0 .387-.069.754-.207 1.102a4.477 4.477 0 0 1-.639 1.075c-.287.37-.765.868-1.433 1.497l-1.488 1.442v.058h4.067V107zm4.787.117c-.82 0-1.457-.295-1.91-.885h-.082c.054.547.082.88.082.997v2.654h-1.377v-9.363h1.113c.031.12.096.41.193.867h.07c.43-.657 1.075-.985 1.934-.985.809 0 1.439.293 1.89.88.451.585.677 1.407.677 2.466 0 1.059-.23 1.885-.689 2.479-.459.593-1.093.89-1.901.89zm-.334-5.59c-.547 0-.947.16-1.199.48-.251.321-.377.833-.377 1.536v.205c0 .79.125 1.36.375 1.714.25.353.658.53 1.224.53.477 0 .844-.195 1.102-.586.258-.39.386-.947.386-1.67 0-.726-.127-1.276-.383-1.65-.256-.372-.632-.559-1.128-.559zm5.965 2.162l-2.174-3.17h1.57l1.477 2.268 1.488-2.267h1.558l-2.18 3.17 2.292 3.31h-1.559l-1.6-2.426-1.593 2.426h-1.559l2.28-3.31zm6.544 3.311h-1.376v-9.117h1.376V107z"/>
            <path stroke="#F05F68" stroke-dasharray="1,6" stroke-linecap="round" stroke-linejoin="bevel" stroke-width="2" d="M259.206 82.5h53.383M259.207 212.5H305"/>
            <path stroke="#BD71FF" stroke-dasharray="1,6" stroke-linecap="round" stroke-linejoin="bevel" stroke-width="2" d="M232.209 102.5h72.582"/>
            <path stroke="#4A90E2" stroke-dasharray="1,6" stroke-linecap="round" stroke-linejoin="bevel" stroke-width="2" d="M176.207 94.5h173.618"/>
        </g>
    </g>
</svg>
