<svg xmlns="http://www.w3.org/2000/svg" width="258px" height="165px" viewBox="0 0 458 290">
    <g fill="none" fill-rule="evenodd">
        <rect width="458" height="290" fill="#F8F8F8" rx="4"/>
        <g transform="translate(105 48)">
            <path stroke="#BDBDBD" stroke-dasharray="4,4" stroke-linecap="square" stroke-width="1.5" d="M95.5.5v164.027"/>
            <rect width="96" height="96" y="52" fill="#E0E0E0" rx="4"/>
            <path stroke="#BDBDBD" stroke-dasharray="4,4" stroke-linecap="square" stroke-width="1.5" d="M153.5.5v164.027"/>
            <rect width="96" height="96" x="152" y="52" fill="#E0E0E0" rx="4"/>
            <g transform="translate(99 12)">
                <path fill="#BDBDBD" d="M0 8h1v5H0zM50 8h1v5h-1z"/>
                <path fill="#BDBDBD" d="M0 10h50v1H0z"/>
                <path fill="#50E3C2" d="M21 11l4-4 4 4-4 4z"/>
                <rect width="35" height="22" x="7" fill="#BDBDBD" rx="2"/>
                <path fill="#FFF" d="M16.802 7.536H13.37l-.456 2.448.024.024c.184-.208.422-.362.714-.462.292-.1.582-.15.87-.15.376 0 .732.06 1.068.18.336.12.628.302.876.546.248.244.444.548.588.912.144.364.216.79.216 1.278 0 .36-.062.71-.186 1.05-.124.34-.31.642-.558.906a2.674 2.674 0 0 1-.93.63c-.372.156-.806.234-1.302.234-.368 0-.714-.054-1.038-.162a2.66 2.66 0 0 1-.858-.468 2.18 2.18 0 0 1-.588-.762 2.507 2.507 0 0 1-.228-1.032h1.02c.016.216.07.418.162.606a1.6 1.6 0 0 0 .924.816c.212.076.446.114.702.114.24 0 .47-.042.69-.126.22-.084.412-.21.576-.378a1.81 1.81 0 0 0 .39-.63c.096-.252.144-.546.144-.882 0-.28-.046-.538-.138-.774a1.8 1.8 0 0 0-.39-.612 1.765 1.765 0 0 0-.606-.402 2.068 2.068 0 0 0-.786-.144c-.336 0-.634.074-.894.222-.26.148-.49.342-.69.582l-.876-.048.792-4.416h4.2v.9zm6 1.128c-.048-.384-.196-.692-.444-.924-.248-.232-.576-.348-.984-.348-.432 0-.78.106-1.044.318-.264.212-.47.48-.618.804-.148.324-.25.674-.306 1.05a8.62 8.62 0 0 0-.096 1.056l.024.024c.24-.392.538-.676.894-.852a2.74 2.74 0 0 1 1.23-.264c.408 0 .774.07 1.098.21.324.14.596.334.816.582.22.248.39.54.51.876.12.336.18.7.18 1.092 0 .312-.048.636-.144.972a2.61 2.61 0 0 1-.474.918c-.22.276-.512.504-.876.684-.364.18-.814.27-1.35.27-.632 0-1.14-.128-1.524-.384a2.62 2.62 0 0 1-.888-.984c-.208-.4-.346-.84-.414-1.32a9.925 9.925 0 0 1-.102-1.392c0-.584.05-1.15.15-1.698.1-.548.27-1.034.51-1.458.24-.424.56-.764.96-1.02.4-.256.904-.384 1.512-.384.704 0 1.264.186 1.68.558.416.372.656.91.72 1.614h-1.02zm-1.536 1.764a1.655 1.655 0 0 0-1.308.558 1.697 1.697 0 0 0-.342.612 2.432 2.432 0 0 0-.114.75c0 .264.04.512.12.744.08.232.194.432.342.6.148.168.332.302.552.402.22.1.47.15.75.15s.526-.05.738-.15c.212-.1.39-.238.534-.414.144-.176.254-.378.33-.606.076-.228.114-.466.114-.714 0-.264-.034-.514-.102-.75a1.653 1.653 0 0 0-.318-.612 1.596 1.596 0 0 0-.54-.414 1.724 1.724 0 0 0-.756-.156zm4.044-1.632h1.02v.84h.024c.168-.344.432-.594.792-.75.36-.156.756-.234 1.188-.234.48 0 .898.088 1.254.264.356.176.652.414.888.714s.414.646.534 1.038c.12.392.18.808.18 1.248 0 .44-.058.856-.174 1.248a2.938 2.938 0 0 1-.528 1.026 2.49 2.49 0 0 1-.888.69c-.356.168-.77.252-1.242.252a3.066 3.066 0 0 1-1.068-.204 2.18 2.18 0 0 1-.522-.294 1.643 1.643 0 0 1-.414-.462h-.024v3.192h-1.02V8.796zm4.8 3.048c0-.288-.038-.57-.114-.846a2.283 2.283 0 0 0-.348-.738 1.705 1.705 0 0 0-.6-.516 1.822 1.822 0 0 0-.858-.192c-.344 0-.636.068-.876.204-.24.136-.436.314-.588.534-.152.22-.262.47-.33.75a3.597 3.597 0 0 0 .006 1.734c.072.284.186.534.342.75.156.216.358.39.606.522s.548.198.9.198.646-.068.882-.204a1.64 1.64 0 0 0 .57-.54 2.35 2.35 0 0 0 .312-.768c.064-.288.096-.584.096-.888zm3.948-.108l-2.16-2.94h1.308l1.488 2.172 1.548-2.172h1.224l-2.136 2.856L37.73 15h-1.308l-1.728-2.568L32.966 15H31.73l2.328-3.264z"/>
            </g>
        </g>
    </g>
</svg>
