<?xml version="1.0" encoding="UTF-8"?>
<svg width="334px" height="582px" viewBox="0 0 334 582" version="1.1" xmlns="http://www.w3.org/2000/svg" xmlns:xlink="http://www.w3.org/1999/xlink">
    <!-- Generator: Sketch 48.1 (47250) - http://www.bohemiancoding.com/sketch -->
    <title>Group 6</title>
    <desc>Created with Sketch.</desc>
    <defs>
        <rect id="path-1" x="0.547235089" y="0.482578353" width="320" height="568"></rect>
        <filter x="-3.4%" y="-2.1%" width="106.9%" height="103.9%" filterUnits="objectBoundingBox" id="filter-2">
            <feOffset dx="0" dy="-1" in="SourceAlpha" result="shadowOffsetOuter1"></feOffset>
            <feGaussianBlur stdDeviation="3.5" in="shadowOffsetOuter1" result="shadowBlurOuter1"></feGaussianBlur>
            <feColorMatrix values="0 0 0 0 0   0 0 0 0 0   0 0 0 0 0  0 0 0 0.15 0" type="matrix" in="shadowBlurOuter1"></feColorMatrix>
        </filter>
        <rect id="path-3" x="0" y="0" width="320" height="72"></rect>
        <filter x="-3.4%" y="-16.7%" width="106.9%" height="130.6%" filterUnits="objectBoundingBox" id="filter-4">
            <feOffset dx="0" dy="-1" in="SourceAlpha" result="shadowOffsetOuter1"></feOffset>
            <feGaussianBlur stdDeviation="3.5" in="shadowOffsetOuter1" result="shadowBlurOuter1"></feGaussianBlur>
            <feColorMatrix values="0 0 0 0 0   0 0 0 0 0   0 0 0 0 0  0 0 0 0.15 0" type="matrix" in="shadowBlurOuter1"></feColorMatrix>
        </filter>
    </defs>
    <g id="toaster" stroke="none" stroke-width="1" fill="none" fill-rule="evenodd" transform="translate(-795.000000, -1196.000000)">
        <g id="Content" transform="translate(388.000000, 362.000000)">
            <g id="Type" transform="translate(0.000000, 705.000000)">
                <g id="Group-6" transform="translate(413.000000, 137.000000)">
                    <g id="Rectangle-10">
                        <use fill="black" fill-opacity="1" filter="url(#filter-2)" xlink:href="#path-1"></use>
                        <use fill="#FFFFFF" fill-rule="evenodd" xlink:href="#path-1"></use>
                    </g>
                    <g id="Group-4" transform="translate(0.547235, 511.482578)">
                        <g id="Group-3">
                            <g id="Bottom-Navigation">
                                <g id="background-bottom-nav">
                                    <rect id="Rectangle" fill-opacity="0.720000029" fill="#F9F9F9" x="0.990712074" y="1" width="317.027864" height="56"></rect>
                                    <path d="M0.495356037,1.5 L319.721481,1.5" id="Line-2" stroke="#E0E0E0" stroke-linecap="square"></path>
                                </g>
                                <g id="home" transform="translate(1.981424, 1.000000)">
                                    <rect id="Rectangle" x="0" y="0" width="63.4055728" height="56"></rect>
                                </g>
                            </g>
                            <g id="Group-2" transform="translate(0.000000, 2.000000)">
                                <rect id="Rectangle-9" x="0" y="0.680614907" width="64" height="54.3193851"></rect>
                                <g id="Group" transform="translate(18.500000, 11.340307)">
                                    <rect id="Rectangle-8-Copy" fill="#C0C0C0" x="0.190345218" y="28.5127211" width="26.7070311" height="3.70456778" rx="1.85228389"></rect>
                                    <circle id="Oval-2" fill="#D8D8D8" cx="13.5438608" cy="9.5" r="9"></circle>
                                </g>
                            </g>
                        </g>
                        <g id="Group-2-Copy" transform="translate(64.000000, 2.000000)">
                            <rect id="Rectangle-9" x="0" y="0.680614907" width="64" height="54.3193851"></rect>
                            <g id="Group" transform="translate(18.500000, 11.340307)">
                                <rect id="Rectangle-8-Copy" fill="#C0C0C0" x="0.190345218" y="28.5127211" width="26.7070311" height="3.70456778" rx="1.85228389"></rect>
                                <circle id="Oval-2" fill="#D8D8D8" cx="13.5438608" cy="9.5" r="9"></circle>
                            </g>
                        </g>
                        <g id="Group-2-Copy-2" transform="translate(128.000000, 2.000000)">
                            <rect id="Rectangle-9" x="0" y="0.680614907" width="64" height="54.3193851"></rect>
                            <g id="Group" transform="translate(18.500000, 11.340307)">
                                <rect id="Rectangle-8-Copy" fill="#C0C0C0" x="0.190345218" y="28.5127211" width="26.7070311" height="3.70456778" rx="1.85228389"></rect>
                                <circle id="Oval-2" fill="#D8D8D8" cx="13.5438608" cy="9.5" r="9"></circle>
                            </g>
                        </g>
                        <g id="Group-2-Copy-3" transform="translate(192.000000, 2.000000)">
                            <rect id="Rectangle-9" x="0" y="0.680614907" width="64" height="54.3193851"></rect>
                            <g id="Group" transform="translate(18.500000, 11.340307)">
                                <rect id="Rectangle-8-Copy" fill="#C0C0C0" x="0.190345218" y="28.5127211" width="26.7070311" height="3.70456778" rx="1.85228389"></rect>
                                <circle id="Oval-2" fill="#D8D8D8" cx="13.5438608" cy="9.5" r="9"></circle>
                            </g>
                        </g>
                        <g id="Group-2-Copy-4" transform="translate(256.000000, 2.000000)">
                            <rect id="Rectangle-9" x="0" y="0.680614907" width="64" height="54.3193851"></rect>
                            <g id="Group" transform="translate(18.500000, 11.340307)">
                                <rect id="Rectangle-8-Copy" fill="#C0C0C0" x="0.190345218" y="28.5127211" width="26.7070311" height="3.70456778" rx="1.85228389"></rect>
                                <circle id="Oval-2" fill="#D8D8D8" cx="13.5438608" cy="9.5" r="9"></circle>
                            </g>
                        </g>
                    </g>
                    <g id="Navigation-Bar/iOS/Single-Line" transform="translate(0.547235, 0.482578)">
                        <g id="Header-nav" stroke-width="1">
                            <g id="Rectangle-2">
                                <use fill="black" fill-opacity="1" filter="url(#filter-4)" xlink:href="#path-3"></use>
                                <use fill="#FFFFFF" fill-rule="evenodd" xlink:href="#path-3"></use>
                            </g>
                            <g id="Icon/iOS/Back-Button" transform="translate(16.000000, 39.000000)" fill="#DBDBDB">
                                <polygon id="Page-1" points="8.85 0 0 8.52091081 8.719 17 10.735 14.9526861 4.034 8.43532239 11 2.09108073"></polygon>
                            </g>
                            <g id="Status-Bar/White/100%" transform="translate(6.000000, 5.000000)">
                                <path d="M141.900391,10.6933594 C140.464844,10.6933594 139.398438,9.84375 139.128906,8.484375 L140.212891,8.484375 C140.441406,9.27539062 141.080078,9.75585938 141.912109,9.75585938 C143.289062,9.75585938 144.068359,8.53710938 144.126953,6.28710938 L144.033203,6.28710938 C143.617188,7.10742188 142.791016,7.58789062 141.783203,7.58789062 C140.171875,7.58789062 139.005859,6.3984375 139.005859,4.7578125 C139.005859,3.05859375 140.236328,1.84570312 141.970703,1.84570312 C143.236328,1.84570312 144.214844,2.51953125 144.742188,3.76757812 C145.017578,4.41210938 145.152344,5.19140625 145.152344,6.12304688 C145.152344,9.02929688 143.96875,10.6933594 141.900391,10.6933594 Z M141.970703,6.67382812 C143.089844,6.67382812 143.892578,5.87695312 143.892578,4.7578125 C143.892578,3.62695312 143.066406,2.77148438 141.982422,2.77148438 C140.898438,2.77148438 140.072266,3.61523438 140.072266,4.72265625 C140.072266,5.87695312 140.851562,6.67382812 141.970703,6.67382812 Z M147.683594,9.53320312 C148.105469,9.53320312 148.445312,9.1875 148.445312,8.77148438 C148.445312,8.34960938 148.105469,8.00976562 147.683594,8.00976562 C147.267578,8.00976562 146.921875,8.34960938 146.921875,8.77148438 C146.921875,9.1875 147.267578,9.53320312 147.683594,9.53320312 Z M147.683594,5.02734375 C148.105469,5.02734375 148.445312,4.68164062 148.445312,4.265625 C148.445312,3.84375 148.105469,3.50390625 147.683594,3.50390625 C147.267578,3.50390625 146.921875,3.84375 146.921875,4.265625 C146.921875,4.68164062 147.267578,5.02734375 147.683594,5.02734375 Z M154.269531,10.5 L154.269531,8.74804688 L150.150391,8.74804688 L150.150391,7.78710938 C150.90625,6.4453125 152.248047,4.32421875 153.771484,2.04492188 L155.300781,2.04492188 L155.300781,7.8046875 L156.501953,7.8046875 L156.501953,8.74804688 L155.300781,8.74804688 L155.300781,10.5 L154.269531,10.5 Z M151.228516,7.74023438 L151.228516,7.81054688 L154.275391,7.81054688 L154.275391,3.0234375 L154.205078,3.0234375 C153.337891,4.28320312 152.236328,6.02929688 151.228516,7.74023438 Z M160.152344,10.5 L161.207031,10.5 L161.207031,2.04492188 L160.158203,2.04492188 L157.908203,3.66210938 L157.908203,4.77539062 L160.058594,3.21679688 L160.152344,3.21679688 L160.152344,10.5 Z M172.744141,10.5 L171.894531,8.08007812 L168.53125,8.08007812 L167.681641,10.5 L166.574219,10.5 L169.691406,2.04492188 L170.734375,2.04492188 L173.851562,10.5 L172.744141,10.5 Z M170.166016,3.41015625 L168.841797,7.18359375 L171.583984,7.18359375 L170.259766,3.41015625 L170.166016,3.41015625 Z M176.318359,10.5 L176.318359,4.04296875 L176.388672,4.04296875 L179.054688,10.4414062 L179.945312,10.4414062 L182.611328,4.04296875 L182.681641,4.04296875 L182.681641,10.5 L183.666016,10.5 L183.666016,2.04492188 L182.441406,2.04492188 L179.546875,9.04101562 L179.453125,9.04101562 L176.558594,2.04492188 L175.333984,2.04492188 L175.333984,10.5 L176.318359,10.5 Z" id="9:41-AM" fill="#FFFFFF"></path>
                                <g id="Pin-Right" transform="translate(251.000000, 0.000000)" fill="#DBDBDB">
                                    <path d="M34.4937128,0.5 L54.0062872,0.5 C54.8266197,0.5 55.5,1.17394722 55.5,2.00530324 L55.5,8.49469676 C55.5,9.33197845 54.831242,10 54.0062872,10 L34.4937128,10 C33.6733803,10 33,9.32605278 33,8.49469676 L33,2.00530324 C33,1.16802155 33.668758,0.5 34.4937128,0.5 Z M56,3.5 L56.75,3.5 C57.1671014,3.5 57.5,3.83232111 57.5,4.24225998 L57.5,6.25774002 C57.5,6.66440529 57.1642136,7 56.75,7 L56,7 L56,3.5 Z M34.5081524,1 C33.9513652,1 33.5,1.45699692 33.5,2.00844055 L33.5,8.49155945 C33.5,9.04850578 33.9490581,9.5 34.5081524,9.5 L53.9918476,9.5 C54.5486348,9.5 55,9.04300308 55,8.49155945 L55,2.00844055 C55,1.45149422 54.5509419,1 53.9918476,1 L34.5081524,1 Z M34.5067444,1.5 L53.9932556,1.5 C54.2697754,1.5 54.5,1.72031886 54.5,1.99209595 L54.5,8.50790405 C54.5,8.78362799 54.2731228,9 53.9932556,9 L34.5067444,9 C34.2302246,9 34,8.77968114 34,8.50790405 L34,1.99209595 C34,1.71637201 34.2268772,1.5 34.5067444,1.5 Z" id="Battery"></path>
                                </g>
                                <g id="Signal" fill="#DBDBDB">
                                    <path d="M3.25,8 C1.73121694,8 0.5,6.76878306 0.5,5.25 C0.5,3.73121694 1.73121694,2.5 3.25,2.5 C4.76878306,2.5 6,3.73121694 6,5.25 C6,6.76878306 4.76878306,8 3.25,8 Z M10.25,8 C8.73121694,8 7.5,6.76878306 7.5,5.25 C7.5,3.73121694 8.73121694,2.5 10.25,2.5 C11.7687831,2.5 13,3.73121694 13,5.25 C13,6.76878306 11.7687831,8 10.25,8 Z M17.25,8 C15.7312169,8 14.5,6.76878306 14.5,5.25 C14.5,3.73121694 15.7312169,2.5 17.25,2.5 C18.7687831,2.5 20,3.73121694 20,5.25 C20,6.76878306 18.7687831,8 17.25,8 Z M24.25,8 C22.7312169,8 21.5,6.76878306 21.5,5.25 C21.5,3.73121694 22.7312169,2.5 24.25,2.5 C25.7687831,2.5 27,3.73121694 27,5.25 C27,6.76878306 25.7687831,8 24.25,8 Z M31.25,8 C29.7312169,8 28.5,6.76878306 28.5,5.25 C28.5,3.73121694 29.7312169,2.5 31.25,2.5 C32.7687831,2.5 34,3.73121694 34,5.25 C34,6.76878306 32.7687831,8 31.25,8 Z" id="Mobile-Signal"></path>
                                </g>
                            </g>
                        </g>
                        <rect id="Rectangle-8-Copy" fill="#DBDBDB" x="52.433518" y="43.2507278" width="132" height="6" rx="3"></rect>
                    </g>
                    <g id="Toaster" transform="translate(0.547235, 432.915040)">
                        <rect id="Rectangle" fill="#F3FEF3" x="0" y="0" width="320" height="80"></rect>
                        <rect id="Rectangle-Copy" fill="#87D58B" x="0" y="0" width="320" height="1"></rect>
                        <g id="Group" transform="translate(16.000000, 27.000000)" fill="#000000">
                            <path d="M3.66796875,9 L2.73632812,9 L2.73632812,1.84570312 L0.287109375,1.84570312 L0.287109375,1.00195312 L6.1171875,1.00195312 L6.1171875,1.84570312 L3.66796875,1.84570312 L3.66796875,9 Z M7.5,9 L7.5,0.345703125 L8.41992188,0.345703125 L8.41992188,3.97851562 L8.46679688,3.97851562 C8.58984375,3.55664062 9.08789062,2.75390625 10.3886719,2.75390625 C11.578125,2.75390625 12.4628906,3.42773437 12.4628906,4.79296875 L12.4628906,9 L11.5429688,9 L11.5429688,5.09765625 C11.5429688,4.11328125 10.9980469,3.56835938 10.1132812,3.56835938 C8.98828125,3.56835938 8.41992188,4.45898438 8.41992188,5.57226562 L8.41992188,9 L7.5,9 Z M16.8632812,9.09960938 C15.2285156,9.09960938 14.2851562,8.0390625 14.2851562,6.42773438 L14.2851562,5.43164062 C14.2851562,3.80273438 15.328125,2.75390625 16.7871094,2.75390625 C18.2460937,2.75390625 19.2890625,3.80273438 19.2890625,5.43164062 L19.2890625,6.18164062 L15.2109375,6.18164062 L15.2109375,6.49804688 C15.2109375,7.49414062 15.7734375,8.28515625 16.8574219,8.28515625 C17.6074219,8.28515625 18.1054687,7.92773438 18.2226562,7.546875 L19.2011719,7.546875 C19.1015625,8.17382812 18.3632812,9.09960938 16.8632812,9.09960938 Z M15.2109375,5.46679688 L18.3632812,5.46679688 L18.3632812,5.35546875 C18.3632812,4.27734375 17.7363281,3.56835938 16.7871094,3.56835938 C15.8378906,3.56835938 15.2109375,4.27734375 15.2109375,5.35546875 L15.2109375,5.46679688 Z M23.5253906,6.45703125 L23.5253906,5.37890625 C23.5253906,3.79101562 24.4921875,2.75390625 26.0449219,2.75390625 C27.5625,2.75390625 28.3242188,3.69726562 28.3535156,4.55273438 L27.4335938,4.55273438 C27.3632812,4.20703125 27.0761719,3.59179688 26.0566406,3.59179688 C24.9902344,3.59179688 24.4453125,4.30664062 24.4453125,5.41992188 L24.4453125,6.46875 C24.4453125,7.55859375 25.0546875,8.26171875 26.0566406,8.26171875 C27.0117188,8.26171875 27.3632812,7.83398438 27.4804688,7.37695312 L28.4003906,7.37695312 C28.359375,8.203125 27.6503906,9.09960938 26.0449219,9.09960938 C24.4921875,9.09960938 23.5253906,8.07421875 23.5253906,6.45703125 Z M32.4433594,2.75390625 C33.9257812,2.75390625 35.0507812,3.7265625 35.0507812,5.4375 L35.0507812,6.41015625 C35.0507812,8.12109375 33.9257812,9.09960938 32.4433594,9.09960938 C30.9316406,9.09960938 29.8300781,8.13867188 29.8300781,6.41015625 L29.8300781,5.4375 C29.8300781,3.79101562 30.9550781,2.75390625 32.4433594,2.75390625 Z M32.4492187,3.56835938 C31.4238281,3.56835938 30.75,4.36523438 30.75,5.54296875 L30.75,6.31640625 C30.75,7.5234375 31.3828125,8.28515625 32.4492187,8.28515625 C33.5097656,8.28515625 34.1308594,7.5234375 34.1308594,6.31640625 L34.1308594,5.54296875 C34.1308594,4.36523438 33.4804687,3.56835938 32.4492187,3.56835938 Z M36.9023438,9 L36.9023438,2.85351563 L37.8222656,2.85351563 L37.8222656,3.97851562 L37.8691406,3.97851562 C38.0273438,3.4921875 38.4375,2.75390625 39.7441406,2.75390625 C40.9863281,2.75390625 41.8417969,3.41601563 41.8417969,4.78125 L41.8417969,9 L40.921875,9 L40.921875,5.0859375 C40.921875,4.1015625 40.4179688,3.56835938 39.5273438,3.56835938 C38.3671875,3.56835938 37.8222656,4.46484375 37.8222656,5.57226562 L37.8222656,9 L36.9023438,9 Z M44.2792969,2.85351562 L44.2792969,1.30664062 L45.1992187,1.30664062 L45.1992187,2.85351562 L46.59375,2.85351562 L46.59375,3.62109375 L45.1992187,3.62109375 L45.1992187,7.33007812 C45.1992187,8.0859375 45.4394531,8.2734375 46.21875,8.2734375 C46.359375,8.2734375 46.5996094,8.25585937 46.6933594,8.24414062 L46.6933594,9.01171875 C46.6113281,9.02929687 46.1777344,9.05859375 45.984375,9.05859375 C44.5429687,9.05859375 44.2792969,8.484375 44.2792969,7.28320312 L44.2792969,3.62109375 L43.3417969,3.62109375 L43.3417969,2.85351562 L44.2792969,2.85351562 Z M50.6601562,9.09960938 C49.0253906,9.09960938 48.0820312,8.0390625 48.0820312,6.42773438 L48.0820312,5.43164062 C48.0820312,3.80273438 49.125,2.75390625 50.5839844,2.75390625 C52.0429687,2.75390625 53.0859375,3.80273438 53.0859375,5.43164062 L53.0859375,6.18164062 L49.0078125,6.18164062 L49.0078125,6.49804688 C49.0078125,7.49414062 49.5703125,8.28515625 50.6542969,8.28515625 C51.4042969,8.28515625 51.9023437,7.92773438 52.0195312,7.546875 L52.9980469,7.546875 C52.8984375,8.17382812 52.1601562,9.09960938 50.6601562,9.09960938 Z M49.0078125,5.46679688 L52.1601562,5.46679688 L52.1601562,5.35546875 C52.1601562,4.27734375 51.5332031,3.56835938 50.5839844,3.56835938 C49.6347656,3.56835938 49.0078125,4.27734375 49.0078125,5.35546875 L49.0078125,5.46679688 Z M54.9023438,9 L54.9023438,2.85351563 L55.8222656,2.85351563 L55.8222656,3.97851562 L55.8691406,3.97851562 C56.0273438,3.4921875 56.4375,2.75390625 57.7441406,2.75390625 C58.9863281,2.75390625 59.8417969,3.41601563 59.8417969,4.78125 L59.8417969,9 L58.921875,9 L58.921875,5.0859375 C58.921875,4.1015625 58.4179688,3.56835938 57.5273438,3.56835938 C56.3671875,3.56835938 55.8222656,4.46484375 55.8222656,5.57226562 L55.8222656,9 L54.9023438,9 Z M62.2792969,2.85351562 L62.2792969,1.30664062 L63.1992187,1.30664062 L63.1992187,2.85351562 L64.59375,2.85351562 L64.59375,3.62109375 L63.1992187,3.62109375 L63.1992187,7.33007812 C63.1992187,8.0859375 63.4394531,8.2734375 64.21875,8.2734375 C64.359375,8.2734375 64.5996094,8.25585937 64.6933594,8.24414062 L64.6933594,9.01171875 C64.6113281,9.02929687 64.1777344,9.05859375 63.984375,9.05859375 C62.5429687,9.05859375 62.2792969,8.484375 62.2792969,7.28320312 L62.2792969,3.62109375 L61.3417969,3.62109375 L61.3417969,2.85351562 L62.2792969,2.85351562 Z M71.2558594,10.4941406 C72.3925781,10.4941406 72.9550781,9.87890625 72.9550781,8.87109375 L72.9550781,7.92773438 L72.9023438,7.92773438 C72.65625,8.45507812 72.0234375,8.88867188 71.1738281,8.88867188 C69.8085938,8.88867188 68.71875,7.92773438 68.71875,6.34570312 L68.71875,5.30859375 C68.71875,3.7265625 69.8027344,2.75390625 71.1679688,2.75390625 C72.09375,2.75390625 72.7558594,3.28710938 72.9609375,3.7734375 L73.0019531,3.7734375 L73.0019531,2.85351562 L73.875,2.85351562 L73.875,8.85351562 C73.875,10.5351562 72.8320312,11.3085938 71.2148438,11.3085938 C69.6679688,11.3085938 68.9472656,10.5527344 68.8535156,9.65625 L69.8144531,9.65625 C69.8964844,10.1074219 70.40625,10.4941406 71.2558594,10.4941406 Z M71.3496094,3.56835938 C70.2890625,3.56835938 69.6386719,4.36523438 69.6386719,5.52539062 L69.6386719,6.12890625 C69.6386719,7.28320312 70.3535156,8.07421875 71.3613281,8.07421875 C72.3984375,8.07421875 72.9550781,7.21875 72.9550781,6.33398438 L72.9550781,5.34375 C72.9550781,4.43554688 72.3632812,3.56835938 71.3496094,3.56835938 Z M78.3398438,2.75390625 C79.8222656,2.75390625 80.9472656,3.7265625 80.9472656,5.4375 L80.9472656,6.41015625 C80.9472656,8.12109375 79.8222656,9.09960938 78.3398438,9.09960938 C76.828125,9.09960938 75.7265625,8.13867188 75.7265625,6.41015625 L75.7265625,5.4375 C75.7265625,3.79101562 76.8515625,2.75390625 78.3398438,2.75390625 Z M78.3457031,3.56835938 C77.3203125,3.56835938 76.6464844,4.36523438 76.6464844,5.54296875 L76.6464844,6.31640625 C76.6464844,7.5234375 77.2792969,8.28515625 78.3457031,8.28515625 C79.40625,8.28515625 80.0273438,7.5234375 80.0273438,6.31640625 L80.0273438,5.54296875 C80.0273438,4.36523438 79.3769531,3.56835938 78.3457031,3.56835938 Z M85.0722656,9.09960938 C83.4375,9.09960938 82.4941406,8.0390625 82.4941406,6.42773438 L82.4941406,5.43164062 C82.4941406,3.80273438 83.5371094,2.75390625 84.9960937,2.75390625 C86.4550781,2.75390625 87.4980469,3.80273438 87.4980469,5.43164062 L87.4980469,6.18164062 L83.4199219,6.18164062 L83.4199219,6.49804688 C83.4199219,7.49414062 83.9824219,8.28515625 85.0664062,8.28515625 C85.8164062,8.28515625 86.3144531,7.92773438 86.4316406,7.546875 L87.4101562,7.546875 C87.3105469,8.17382812 86.5722656,9.09960938 85.0722656,9.09960938 Z M83.4199219,5.46679688 L86.5722656,5.46679688 L86.5722656,5.35546875 C86.5722656,4.27734375 85.9453125,3.56835938 84.9960937,3.56835938 C84.046875,3.56835938 83.4199219,4.27734375 83.4199219,5.35546875 L83.4199219,5.46679688 Z M89.0039062,4.59960938 C89.0039062,3.31640625 90.0820312,2.75390625 91.2480469,2.75390625 C92.5546875,2.75390625 93.4042969,3.45117188 93.4042969,4.453125 L92.5371094,4.453125 C92.5019531,4.00195312 92.0800781,3.52148438 91.2070312,3.52148438 C90.4570312,3.52148438 89.90625,3.8671875 89.90625,4.5 C89.90625,5.26171875 90.7089844,5.36132812 91.4121094,5.49023438 C92.5664062,5.6953125 93.5566406,5.98828125 93.5566406,7.20117188 C93.5566406,8.41992188 92.5722656,9.09960938 91.1542969,9.09960938 C89.8417969,9.09960938 88.8984375,8.51367188 88.8984375,7.41210938 L89.8007812,7.41210938 C89.8886719,7.98632812 90.28125,8.33789062 91.1953125,8.33789062 C92.2265625,8.33789062 92.6484375,7.875 92.6484375,7.3125 C92.6484375,6.59765625 91.9746094,6.45703125 91.1015625,6.28710938 C89.9472656,6.046875 89.0039062,5.8125 89.0039062,4.59960938 Z M98.0917969,9 L98.0917969,0.345703125 L99.0117187,0.345703125 L99.0117187,3.97851562 L99.0585937,3.97851562 C99.1816406,3.55664062 99.6796875,2.75390625 100.980469,2.75390625 C102.169922,2.75390625 103.054687,3.42773437 103.054687,4.79296875 L103.054687,9 L102.134766,9 L102.134766,5.09765625 C102.134766,4.11328125 101.589844,3.56835938 100.705078,3.56835938 C99.5800781,3.56835938 99.0117187,4.45898438 99.0117187,5.57226562 L99.0117187,9 L98.0917969,9 Z M107.455078,9.09960938 C105.820312,9.09960938 104.876953,8.0390625 104.876953,6.42773438 L104.876953,5.43164062 C104.876953,3.80273438 105.919922,2.75390625 107.378906,2.75390625 C108.837891,2.75390625 109.880859,3.80273438 109.880859,5.43164062 L109.880859,6.18164062 L105.802734,6.18164062 L105.802734,6.49804688 C105.802734,7.49414062 106.365234,8.28515625 107.449219,8.28515625 C108.199219,8.28515625 108.697266,7.92773438 108.814453,7.546875 L109.792969,7.546875 C109.693359,8.17382812 108.955078,9.09960938 107.455078,9.09960938 Z M105.802734,5.46679688 L108.955078,5.46679688 L108.955078,5.35546875 C108.955078,4.27734375 108.328125,3.56835938 107.378906,3.56835938 C106.429688,3.56835938 105.802734,4.27734375 105.802734,5.35546875 L105.802734,5.46679688 Z M111.802734,9 L111.802734,2.85351563 L112.722656,2.85351563 L112.722656,3.796875 L112.769531,3.796875 C112.927734,3.39257813 113.373047,2.75976563 114.492187,2.75976563 C114.603516,2.75976563 114.726562,2.77148438 114.849609,2.78320313 L114.849609,3.63867188 C114.75,3.62109375 114.556641,3.61523438 114.380859,3.61523438 C113.279297,3.61523438 112.722656,4.28320312 112.722656,5.11523438 L112.722656,9 L111.802734,9 Z M118.582031,9.09960938 C116.947266,9.09960938 116.003906,8.0390625 116.003906,6.42773438 L116.003906,5.43164062 C116.003906,3.80273438 117.046875,2.75390625 118.505859,2.75390625 C119.964844,2.75390625 121.007812,3.80273438 121.007812,5.43164062 L121.007812,6.18164062 L116.929688,6.18164062 L116.929688,6.49804688 C116.929688,7.49414062 117.492188,8.28515625 118.576172,8.28515625 C119.326172,8.28515625 119.824219,7.92773438 119.941406,7.546875 L120.919922,7.546875 C120.820312,8.17382812 120.082031,9.09960938 118.582031,9.09960938 Z M116.929687,5.46679688 L120.082031,5.46679688 L120.082031,5.35546875 C120.082031,4.27734375 119.455078,3.56835938 118.505859,3.56835938 C117.556641,3.56835938 116.929687,4.27734375 116.929687,5.35546875 L116.929687,5.46679688 Z M122.742187,11.2324219 L122.021484,11.2324219 L122.835937,8.02148438 L123.931641,8.02148438 L122.742187,11.2324219 Z M133.382812,2.85351563 L133.382812,9 L132.462891,9 L132.462891,7.98046875 L132.410156,7.98046875 C132.234375,8.484375 131.654297,9.09960938 130.576172,9.09960938 C129.345703,9.09960938 128.460937,8.56640625 128.460937,7.1484375 L128.460937,2.85351563 L129.380859,2.85351563 L129.380859,6.89648438 C129.380859,7.93945312 130.007812,8.28515625 130.787109,8.28515625 C131.742187,8.28515625 132.462891,7.58203125 132.462891,6.77929688 L132.462891,2.85351563 L133.382812,2.85351563 Z M135.228516,4.59960938 C135.228516,3.31640625 136.306641,2.75390625 137.472656,2.75390625 C138.779297,2.75390625 139.628906,3.45117188 139.628906,4.453125 L138.761719,4.453125 C138.726562,4.00195312 138.304687,3.52148438 137.431641,3.52148438 C136.681641,3.52148438 136.130859,3.8671875 136.130859,4.5 C136.130859,5.26171875 136.933594,5.36132812 137.636719,5.49023438 C138.791016,5.6953125 139.78125,5.98828125 139.78125,7.20117188 C139.78125,8.41992188 138.796875,9.09960938 137.378906,9.09960938 C136.066406,9.09960938 135.123047,8.51367188 135.123047,7.41210938 L136.025391,7.41210938 C136.113281,7.98632812 136.505859,8.33789062 137.419922,8.33789062 C138.451172,8.33789062 138.873047,7.875 138.873047,7.3125 C138.873047,6.59765625 138.199219,6.45703125 137.326172,6.28710938 C136.171875,6.046875 135.228516,5.8125 135.228516,4.59960938 Z M143.847656,9.09960938 C142.212891,9.09960938 141.269531,8.0390625 141.269531,6.42773438 L141.269531,5.43164062 C141.269531,3.80273438 142.3125,2.75390625 143.771484,2.75390625 C145.230469,2.75390625 146.273438,3.80273438 146.273438,5.43164062 L146.273438,6.18164062 L142.195312,6.18164062 L142.195312,6.49804688 C142.195312,7.49414062 142.757812,8.28515625 143.841797,8.28515625 C144.591797,8.28515625 145.089844,7.92773438 145.207031,7.546875 L146.185547,7.546875 C146.085938,8.17382812 145.347656,9.09960938 143.847656,9.09960938 Z M142.195312,5.46679688 L145.347656,5.46679688 L145.347656,5.35546875 C145.347656,4.27734375 144.720703,3.56835938 143.771484,3.56835938 C142.822266,3.56835938 142.195312,4.27734375 142.195312,5.35546875 L142.195312,5.46679688 Z M150.919922,9 L150.919922,2.85351563 L151.839844,2.85351563 L151.839844,3.796875 L151.886719,3.796875 C152.044922,3.39257813 152.490234,2.75976563 153.609375,2.75976563 C153.720703,2.75976563 153.84375,2.77148438 153.966797,2.78320313 L153.966797,3.63867188 C153.867188,3.62109375 153.673828,3.61523438 153.498047,3.61523438 C152.396484,3.61523438 151.839844,4.28320312 151.839844,5.11523438 L151.839844,9 L150.919922,9 Z M157.699219,9.09960938 C156.064453,9.09960938 155.121094,8.0390625 155.121094,6.42773438 L155.121094,5.43164062 C155.121094,3.80273438 156.164062,2.75390625 157.623047,2.75390625 C159.082031,2.75390625 160.125,3.80273438 160.125,5.43164062 L160.125,6.18164062 L156.046875,6.18164062 L156.046875,6.49804688 C156.046875,7.49414062 156.609375,8.28515625 157.693359,8.28515625 C158.443359,8.28515625 158.941406,7.92773438 159.058594,7.546875 L160.037109,7.546875 C159.9375,8.17382812 159.199219,9.09960938 157.699219,9.09960938 Z M156.046875,5.46679688 L159.199219,5.46679688 L159.199219,5.35546875 C159.199219,4.27734375 158.572266,3.56835938 157.623047,3.56835938 C156.673828,3.56835938 156.046875,4.27734375 156.046875,5.35546875 L156.046875,5.46679688 Z M164.044922,2.74804688 C165.064453,2.74804688 165.632812,3.24609375 165.832031,3.75 L165.878906,3.75 L165.878906,0.345703125 L166.798828,0.345703125 L166.798828,9 L165.925781,9 L165.925781,8.02148438 L165.878906,8.02148438 C165.738281,8.52539062 165.09375,9.09375 164.015625,9.09375 C162.591797,9.09375 161.636719,8.109375 161.636719,6.5625 L161.636719,5.28515625 C161.636719,3.77929688 162.574219,2.74804688 164.044922,2.74804688 Z M164.167969,3.5625 C163.171875,3.5625 162.556641,4.28320312 162.556641,5.51367188 L162.556641,6.31640625 C162.556641,7.5703125 163.189453,8.27929688 164.203125,8.27929688 C165.222656,8.27929688 165.878906,7.55859375 165.878906,6.42773438 L165.878906,5.27929688 C165.878906,4.29492188 165.169922,3.5625 164.167969,3.5625 Z M171.392578,6.45703125 L171.392578,5.37890625 C171.392578,3.79101562 172.359375,2.75390625 173.912109,2.75390625 C175.429688,2.75390625 176.191406,3.69726562 176.220703,4.55273438 L175.300781,4.55273438 C175.230469,4.20703125 174.943359,3.59179688 173.923828,3.59179688 C172.857422,3.59179688 172.3125,4.30664062 172.3125,5.41992188 L172.3125,6.46875 C172.3125,7.55859375 172.921875,8.26171875 173.923828,8.26171875 C174.878906,8.26171875 175.230469,7.83398438 175.347656,7.37695312 L176.267578,7.37695312 C176.226562,8.203125 175.517578,9.09960938 173.912109,9.09960938 C172.359375,9.09960938 171.392578,8.07421875 171.392578,6.45703125 Z M180.310547,2.75390625 C181.792969,2.75390625 182.917969,3.7265625 182.917969,5.4375 L182.917969,6.41015625 C182.917969,8.12109375 181.792969,9.09960938 180.310547,9.09960938 C178.798828,9.09960938 177.697266,8.13867188 177.697266,6.41015625 L177.697266,5.4375 C177.697266,3.79101562 178.822266,2.75390625 180.310547,2.75390625 Z M180.316406,3.56835938 C179.291016,3.56835938 178.617188,4.36523438 178.617188,5.54296875 L178.617188,6.31640625 C178.617188,7.5234375 179.25,8.28515625 180.316406,8.28515625 C181.376953,8.28515625 181.998047,7.5234375 181.998047,6.31640625 L181.998047,5.54296875 C181.998047,4.36523438 181.347656,3.56835938 180.316406,3.56835938 Z M184.804688,9 L184.804688,0.345703125 L185.724609,0.345703125 L185.724609,9 L184.804688,9 Z M190.224609,2.75390625 C191.707031,2.75390625 192.832031,3.7265625 192.832031,5.4375 L192.832031,6.41015625 C192.832031,8.12109375 191.707031,9.09960938 190.224609,9.09960938 C188.712891,9.09960938 187.611328,8.13867188 187.611328,6.41015625 L187.611328,5.4375 C187.611328,3.79101562 188.736328,2.75390625 190.224609,2.75390625 Z M190.230469,3.56835938 C189.205078,3.56835938 188.53125,4.36523438 188.53125,5.54296875 L188.53125,6.31640625 C188.53125,7.5234375 189.164062,8.28515625 190.230469,8.28515625 C191.291016,8.28515625 191.912109,7.5234375 191.912109,6.31640625 L191.912109,5.54296875 C191.912109,4.36523438 191.261719,3.56835938 190.230469,3.56835938 Z M194.789062,9 L194.789062,2.85351563 L195.708984,2.85351563 L195.708984,3.796875 L195.755859,3.796875 C195.914062,3.39257813 196.359375,2.75976563 197.478516,2.75976563 C197.589844,2.75976563 197.712891,2.77148438 197.835938,2.78320313 L197.835938,3.63867188 C197.736328,3.62109375 197.542969,3.61523438 197.367188,3.61523438 C196.265625,3.61523438 195.708984,4.28320312 195.708984,5.11523438 L195.708984,9 L194.789062,9 Z M202.541016,9 L202.541016,3.62109375 L201.498047,3.62109375 L201.498047,2.85351562 L202.541016,2.85351562 L202.541016,2.23828125 C202.541016,1.07226562 203.085937,0.521484375 204.416016,0.521484375 C204.679687,0.521484375 204.966797,0.544921875 205.072266,0.556640625 L205.072266,1.3359375 C204.978516,1.32421875 204.673828,1.3125 204.527344,1.3125 C203.777344,1.3125 203.460937,1.53515625 203.460937,2.30859375 L203.460937,2.85351562 L204.896484,2.85351562 L204.896484,3.62109375 L203.460937,3.62109375 L203.460937,9 L202.541016,9 Z M208.722656,2.75390625 C210.205078,2.75390625 211.330078,3.7265625 211.330078,5.4375 L211.330078,6.41015625 C211.330078,8.12109375 210.205078,9.09960938 208.722656,9.09960938 C207.210937,9.09960938 206.109375,8.13867188 206.109375,6.41015625 L206.109375,5.4375 C206.109375,3.79101562 207.234375,2.75390625 208.722656,2.75390625 Z M208.728516,3.56835938 C207.703125,3.56835938 207.029297,4.36523438 207.029297,5.54296875 L207.029297,6.31640625 C207.029297,7.5234375 207.662109,8.28515625 208.728516,8.28515625 C209.789062,8.28515625 210.410156,7.5234375 210.410156,6.31640625 L210.410156,5.54296875 C210.410156,4.36523438 209.759766,3.56835938 208.728516,3.56835938 Z M213.287109,9 L213.287109,2.85351563 L214.207031,2.85351563 L214.207031,3.796875 L214.253906,3.796875 C214.412109,3.39257813 214.857422,2.75976563 215.976562,2.75976563 C216.087891,2.75976563 216.210938,2.77148438 216.333984,2.78320313 L216.333984,3.63867188 C216.234375,3.62109375 216.041016,3.61523438 215.865234,3.61523438 C214.763672,3.61523438 214.207031,4.28320312 214.207031,5.11523438 L214.207031,9 L213.287109,9 Z M2.72460937,25.0996094 C1.53515625,25.0996094 0.720703125,24.34375 0.720703125,23.2128906 C0.720703125,22.1464844 1.46484375,21.4140625 2.87109375,21.4140625 L4.51171875,21.4140625 L4.51171875,20.7871094 C4.51171875,19.9492188 3.984375,19.5683594 3.14648437,19.5683594 C2.32617187,19.5683594 1.98632812,19.8789062 1.8515625,20.3183594 L0.955078125,20.3183594 C1.0546875,19.2695312 1.90429687,18.7539062 3.1875,18.7539062 C4.41796875,18.7539062 5.44335937,19.2929688 5.44335937,20.78125 L5.44335937,25 L4.55273437,25 L4.55273437,24.1738281 L4.51171875,24.1738281 C4.1953125,24.6777344 3.6328125,25.0996094 2.72460937,25.0996094 Z M2.95898438,24.2851562 C3.84375,24.2851562 4.51171875,23.6816406 4.51171875,22.8847656 L4.51171875,22.1816406 L2.88867188,22.1816406 C2.015625,22.1816406 1.66992188,22.6210938 1.66992188,23.1953125 C1.66992188,23.9453125 2.28515625,24.2851562 2.95898438,24.2851562 Z M7.5703125,25 L7.5703125,18.8535156 L8.49023438,18.8535156 L8.49023438,19.9785156 L8.53710938,19.9785156 C8.6953125,19.4921875 9.10546875,18.7539062 10.4121094,18.7539062 C11.6542969,18.7539062 12.5097656,19.4160156 12.5097656,20.78125 L12.5097656,25 L11.5898438,25 L11.5898438,21.0859375 C11.5898438,20.1015625 11.0859375,19.5683594 10.1953125,19.5683594 C9.03515625,19.5683594 8.49023438,20.4648438 8.49023438,21.5722656 L8.49023438,25 L7.5703125,25 Z M19.4179688,18.8535156 L17.1972656,25.0644531 L17.0390625,25.4921875 C16.7109375,26.3828125 16.3007812,27.2558594 15.0585938,27.2558594 C14.8535156,27.2558594 14.6191406,27.2324219 14.4667969,27.2089844 L14.4667969,26.4296875 C14.5605469,26.4472656 14.7773438,26.4589844 14.9121094,26.4589844 C15.6386719,26.4589844 15.9492188,26.0957031 16.1308594,25.4511719 L16.2304688,25.0996094 L13.9394531,18.8535156 L14.9648438,18.8535156 L16.6816406,24.0449219 L16.7226562,24.0449219 L18.4394531,18.8535156 L19.4179688,18.8535156 Z M25.9628906,25.0996094 C24.328125,25.0996094 23.3847656,24.0390625 23.3847656,22.4277344 L23.3847656,21.4316406 C23.3847656,19.8027344 24.4277344,18.7539062 25.8867187,18.7539062 C27.3457031,18.7539062 28.3886719,19.8027344 28.3886719,21.4316406 L28.3886719,22.1816406 L24.3105469,22.1816406 L24.3105469,22.4980469 C24.3105469,23.4941406 24.8730469,24.2851562 25.9570312,24.2851562 C26.7070312,24.2851562 27.2050781,23.9277344 27.3222656,23.546875 L28.3007812,23.546875 C28.2011719,24.1738281 27.4628906,25.0996094 25.9628906,25.0996094 Z M24.3105469,21.4667969 L27.4628906,21.4667969 L27.4628906,21.3554687 C27.4628906,20.2773437 26.8359375,19.5683594 25.8867188,19.5683594 C24.9375,19.5683594 24.3105469,20.2773437 24.3105469,21.3554687 L24.3105469,21.4667969 Z M30.3105469,25 L30.3105469,18.8535156 L31.2304687,18.8535156 L31.2304687,19.796875 L31.2773437,19.796875 C31.4355469,19.3925781 31.8808594,18.7597656 33,18.7597656 C33.1113281,18.7597656 33.234375,18.7714844 33.3574219,18.7832031 L33.3574219,19.6386719 C33.2578125,19.6210937 33.0644531,19.6152344 32.8886719,19.6152344 C31.7871094,19.6152344 31.2304687,20.2832031 31.2304687,21.1152344 L31.2304687,25 L30.3105469,25 Z M34.921875,25 L34.921875,18.8535156 L35.8417969,18.8535156 L35.8417969,19.796875 L35.8886719,19.796875 C36.046875,19.3925781 36.4921875,18.7597656 37.6113281,18.7597656 C37.7226562,18.7597656 37.8457031,18.7714844 37.96875,18.7832031 L37.96875,19.6386719 C37.8691406,19.6210937 37.6757812,19.6152344 37.5,19.6152344 C36.3984375,19.6152344 35.8417969,20.2832031 35.8417969,21.1152344 L35.8417969,25 L34.921875,25 Z M41.7363281,18.7539062 C43.21875,18.7539062 44.34375,19.7265625 44.34375,21.4375 L44.34375,22.4101562 C44.34375,24.1210938 43.21875,25.0996094 41.7363281,25.0996094 C40.2246094,25.0996094 39.1230469,24.1386719 39.1230469,22.4101562 L39.1230469,21.4375 C39.1230469,19.7910156 40.2480469,18.7539062 41.7363281,18.7539062 Z M41.7421875,19.5683594 C40.7167969,19.5683594 40.0429688,20.3652344 40.0429688,21.5429687 L40.0429688,22.3164062 C40.0429688,23.5234375 40.6757812,24.2851562 41.7421875,24.2851562 C42.8027344,24.2851562 43.4238281,23.5234375 43.4238281,22.3164062 L43.4238281,21.5429687 C43.4238281,20.3652344 42.7734375,19.5683594 41.7421875,19.5683594 Z M46.3007812,25 L46.3007812,18.8535156 L47.2207031,18.8535156 L47.2207031,19.796875 L47.2675781,19.796875 C47.4257812,19.3925781 47.8710937,18.7597656 48.9902344,18.7597656 C49.1015625,18.7597656 49.2246094,18.7714844 49.3476562,18.7832031 L49.3476562,19.6386719 C49.2480469,19.6210937 49.0546875,19.6152344 48.8789062,19.6152344 C47.7773437,19.6152344 47.2207031,20.2832031 47.2207031,21.1152344 L47.2207031,25 L46.3007812,25 Z M50.4960938,20.5996094 C50.4960938,19.3164062 51.5742188,18.7539062 52.7402344,18.7539062 C54.046875,18.7539062 54.8964844,19.4511719 54.8964844,20.453125 L54.0292969,20.453125 C53.9941406,20.0019531 53.5722656,19.5214844 52.6992188,19.5214844 C51.9492188,19.5214844 51.3984375,19.8671875 51.3984375,20.5 C51.3984375,21.2617188 52.2011719,21.3613281 52.9042969,21.4902344 C54.0585938,21.6953125 55.0488281,21.9882812 55.0488281,23.2011719 C55.0488281,24.4199219 54.0644531,25.0996094 52.6464844,25.0996094 C51.3339844,25.0996094 50.390625,24.5136719 50.390625,23.4121094 L51.2929688,23.4121094 C51.3808594,23.9863281 51.7734375,24.3378906 52.6875,24.3378906 C53.71875,24.3378906 54.140625,23.875 54.140625,23.3125 C54.140625,22.5976562 53.4667969,22.4570312 52.59375,22.2871094 C51.4394531,22.046875 50.4960938,21.8125 50.4960938,20.5996094 Z M56.6425781,27.2324219 L55.921875,27.2324219 L56.7363281,24.0214844 L57.8320312,24.0214844 L56.6425781,27.2324219 Z M64.0546875,25.0996094 C62.8652344,25.0996094 62.0507812,24.34375 62.0507812,23.2128906 C62.0507812,22.1464844 62.7949219,21.4140625 64.2011719,21.4140625 L65.8417969,21.4140625 L65.8417969,20.7871094 C65.8417969,19.9492188 65.3144531,19.5683594 64.4765625,19.5683594 C63.65625,19.5683594 63.3164062,19.8789062 63.1816406,20.3183594 L62.2851562,20.3183594 C62.3847656,19.2695312 63.234375,18.7539062 64.5175781,18.7539062 C65.7480469,18.7539062 66.7734375,19.2929688 66.7734375,20.78125 L66.7734375,25 L65.8828125,25 L65.8828125,24.1738281 L65.8417969,24.1738281 C65.5253906,24.6777344 64.9628906,25.0996094 64.0546875,25.0996094 Z M64.2890625,24.2851562 C65.1738281,24.2851562 65.8417969,23.6816406 65.8417969,22.8847656 L65.8417969,22.1816406 L64.21875,22.1816406 C63.3457031,22.1816406 63,22.6210938 63,23.1953125 C63,23.9453125 63.6152344,24.2851562 64.2890625,24.2851562 Z M68.9003906,25 L68.9003906,18.8535156 L69.8203125,18.8535156 L69.8203125,19.9785156 L69.8671875,19.9785156 C70.0253906,19.4921875 70.4355469,18.7539062 71.7421875,18.7539062 C72.984375,18.7539062 73.8398437,19.4160156 73.8398437,20.78125 L73.8398437,25 L72.9199219,25 L72.9199219,21.0859375 C72.9199219,20.1015625 72.4160156,19.5683594 71.5253906,19.5683594 C70.3652344,19.5683594 69.8203125,20.4648438 69.8203125,21.5722656 L69.8203125,25 L68.9003906,25 Z M78.0703125,18.7480469 C79.0898438,18.7480469 79.6582031,19.2460938 79.8574219,19.75 L79.9042969,19.75 L79.9042969,16.3457031 L80.8242188,16.3457031 L80.8242188,25 L79.9511719,25 L79.9511719,24.0214844 L79.9042969,24.0214844 C79.7636719,24.5253906 79.1191406,25.09375 78.0410156,25.09375 C76.6171875,25.09375 75.6621094,24.109375 75.6621094,22.5625 L75.6621094,21.2851562 C75.6621094,19.7792969 76.5996094,18.7480469 78.0703125,18.7480469 Z M78.1933594,19.5625 C77.1972656,19.5625 76.5820312,20.2832031 76.5820312,21.5136719 L76.5820312,22.3164062 C76.5820312,23.5703125 77.2148438,24.2792969 78.2285156,24.2792969 C79.2480469,24.2792969 79.9042969,23.5585938 79.9042969,22.4277344 L79.9042969,21.2792969 C79.9042969,20.2949219 79.1953125,19.5625 78.1933594,19.5625 Z M85.6523437,25 L85.6523437,18.8125 L86.8242187,18.8125 L86.8242187,19.8144531 L86.8828125,19.8144531 C87.0234375,19.3691406 87.4277344,18.71875 88.5585937,18.71875 C89.4960937,18.71875 90.0761719,19.2167969 90.2695312,19.8789062 L90.3222656,19.8789062 C90.5625,19.2871094 91.1542969,18.71875 92.203125,18.71875 C93.4628906,18.71875 94.2246094,19.4335938 94.2246094,20.6640625 L94.2246094,25 L93.0410156,25 L93.0410156,21.0332031 C93.0410156,20.2480469 92.6015625,19.7851562 91.8164062,19.7851562 C91.0839844,19.7851562 90.5214844,20.3242188 90.5214844,21.1503906 L90.5214844,25 L89.3613281,25 L89.3613281,21.0683594 C89.3613281,20.265625 88.8691406,19.7851562 88.1132812,19.7851562 C87.375,19.7851562 86.8359375,20.3066406 86.8359375,21.1386719 L86.8359375,25 L85.6523437,25 Z M97.8984375,25.0996094 C96.703125,25.0996094 95.8769531,24.3554688 95.8769531,23.2011719 C95.8769531,22.1113281 96.6328125,21.3730469 98.0566406,21.3730469 L99.6445312,21.3730469 L99.6445312,20.7871094 C99.6445312,20.0664062 99.1699219,19.7324219 98.4199219,19.7324219 C97.6757812,19.7324219 97.3535156,20.0253906 97.2421875,20.4355469 L96.1113281,20.4355469 C96.1933594,19.4042969 96.9960937,18.71875 98.4550781,18.71875 C99.7558594,18.71875 100.828125,19.2636719 100.828125,20.8046875 L100.828125,25 L99.6972656,25 L99.6972656,24.1972656 L99.6445312,24.1972656 C99.3574219,24.671875 98.8125,25.0996094 97.8984375,25.0996094 Z M98.25,24.1035156 C99.0351562,24.1035156 99.6445312,23.59375 99.6445312,22.9023437 L99.6445312,22.234375 L98.203125,22.234375 C97.4121094,22.234375 97.0722656,22.6210937 97.0722656,23.1367187 C97.0722656,23.7929687 97.6347656,24.1035156 98.25,24.1035156 Z M106.365234,25 L104.976562,22.796875 L104.935547,22.796875 L103.546875,25 L102.246094,25 L104.267578,21.9355469 L102.210938,18.8125 L103.611328,18.8125 L104.958984,21.0097656 L105.011719,21.0097656 L106.400391,18.8125 L107.730469,18.8125 L105.65625,21.8535156 L107.736328,25 L106.365234,25 Z M109.318359,25 L109.318359,18.8125 L110.501953,18.8125 L110.501953,25 L109.318359,25 Z M109.101562,16.9433594 C109.101562,16.4863281 109.435547,16.1582031 109.904297,16.1582031 C110.390625,16.1582031 110.724609,16.4863281 110.724609,16.9433594 C110.724609,17.3945312 110.390625,17.7226562 109.904297,17.7226562 C109.441406,17.7226562 109.101562,17.3945312 109.101562,16.9433594 Z M112.658203,25 L112.658203,18.8125 L113.830078,18.8125 L113.830078,19.8144531 L113.888672,19.8144531 C114.029297,19.3691406 114.433594,18.71875 115.564453,18.71875 C116.501953,18.71875 117.082031,19.2167969 117.275391,19.8789062 L117.328125,19.8789062 C117.568359,19.2871094 118.160156,18.71875 119.208984,18.71875 C120.46875,18.71875 121.230469,19.4335938 121.230469,20.6640625 L121.230469,25 L120.046875,25 L120.046875,21.0332031 C120.046875,20.2480469 119.607422,19.7851562 118.822266,19.7851562 C118.089844,19.7851562 117.527344,20.3242188 117.527344,21.1503906 L117.527344,25 L116.367188,25 L116.367188,21.0683594 C116.367188,20.265625 115.875,19.7851562 115.119141,19.7851562 C114.380859,19.7851562 113.841797,20.3066406 113.841797,21.1386719 L113.841797,25 L112.658203,25 Z M128.34375,18.8125 L128.34375,25 L127.177734,25 L127.177734,23.96875 L127.113281,23.96875 C126.943359,24.4667969 126.369141,25.0996094 125.285156,25.0996094 C124.048828,25.0996094 123.181641,24.5078125 123.181641,23.0605469 L123.181641,18.8125 L124.365234,18.8125 L124.365234,22.7265625 C124.365234,23.7167969 124.957031,24.015625 125.654297,24.015625 C126.503906,24.015625 127.166016,23.4121094 127.166016,22.6328125 L127.166016,18.8125 L128.34375,18.8125 Z M130.365234,25 L130.365234,18.8125 L131.537109,18.8125 L131.537109,19.8144531 L131.595703,19.8144531 C131.736328,19.3691406 132.140625,18.71875 133.271484,18.71875 C134.208984,18.71875 134.789062,19.2167969 134.982422,19.8789062 L135.035156,19.8789062 C135.275391,19.2871094 135.867188,18.71875 136.916016,18.71875 C138.175781,18.71875 138.9375,19.4335938 138.9375,20.6640625 L138.9375,25 L137.753906,25 L137.753906,21.0332031 C137.753906,20.2480469 137.314453,19.7851562 136.529297,19.7851562 C135.796875,19.7851562 135.234375,20.3242188 135.234375,21.1503906 L135.234375,25 L134.074219,25 L134.074219,21.0683594 C134.074219,20.265625 133.582031,19.7851562 132.826172,19.7851562 C132.087891,19.7851562 131.548828,20.3066406 131.548828,21.1386719 L131.548828,25 L130.365234,25 Z M144.615234,19.2988281 L143.455078,19.2988281 L143.455078,19.2402344 C143.455078,18.0214844 144.328125,16.84375 146.044922,16.84375 C147.591797,16.84375 148.605469,17.7929688 148.605469,19.0527344 C148.605469,20.0957031 147.966797,20.7753906 147.228516,21.5898438 L145.183594,23.8398438 L145.183594,23.9101562 L148.746094,23.9101562 L148.746094,25 L143.490234,25 L143.490234,24.1914062 L146.478516,20.8808594 C146.917969,20.4003906 147.386719,19.8613281 147.386719,19.1640625 C147.386719,18.4082031 146.800781,17.9160156 146.015625,17.9160156 C145.130859,17.9160156 144.615234,18.53125 144.615234,19.234375 L144.615234,19.2988281 Z M153.175781,25 L153.175781,16.4042969 L154.359375,16.4042969 L154.359375,25 L153.175781,25 Z M156.556641,25 L156.556641,18.8125 L157.740234,18.8125 L157.740234,25 L156.556641,25 Z M156.339844,16.9433594 C156.339844,16.4863281 156.673828,16.1582031 157.142578,16.1582031 C157.628906,16.1582031 157.962891,16.4863281 157.962891,16.9433594 C157.962891,17.3945312 157.628906,17.7226562 157.142578,17.7226562 C156.679688,17.7226562 156.339844,17.3945312 156.339844,16.9433594 Z M159.896484,25 L159.896484,18.8125 L161.068359,18.8125 L161.068359,19.9199219 L161.126953,19.9199219 C161.285156,19.4394531 161.71875,18.71875 162.990234,18.71875 C164.238281,18.71875 165.082031,19.4042969 165.082031,20.8105469 L165.082031,25 L163.898438,25 L163.898438,21.1855469 C163.898438,20.2421875 163.400391,19.8027344 162.621094,19.8027344 C161.595703,19.8027344 161.080078,20.5527344 161.080078,21.5605469 L161.080078,25 L159.896484,25 Z M169.464844,25.1054687 C167.789062,25.1054687 166.775391,24.0683594 166.775391,22.328125 L166.775391,21.4785156 C166.775391,19.7324219 167.888672,18.7070312 169.382812,18.7070312 C170.90625,18.7070312 171.990234,19.7792969 171.990234,21.4785156 L171.990234,22.2109375 L167.947266,22.2109375 L167.947266,22.515625 C167.947266,23.4121094 168.486328,24.0800781 169.453125,24.0800781 C170.15625,24.0800781 170.630859,23.7519531 170.730469,23.3710937 L171.914062,23.3710937 C171.826172,24.0800781 171.076172,25.1054687 169.464844,25.1054687 Z M167.947266,21.3730469 L170.824219,21.3730469 L170.824219,21.2851562 C170.824219,20.3417969 170.255859,19.7148438 169.388672,19.7148438 C168.521484,19.7148438 167.947266,20.3417969 167.947266,21.2851562 L167.947266,21.3730469 Z M173.408203,20.6054687 C173.408203,19.2695312 174.527344,18.7070312 175.757812,18.7070312 C177.099609,18.7070312 178.007812,19.3867187 178.007812,20.4765625 L176.929687,20.4765625 C176.888672,20.0664062 176.507812,19.6445312 175.722656,19.6445312 C175.03125,19.6445312 174.544922,19.9550781 174.544922,20.4941406 C174.544922,21.1914062 175.40625,21.2792969 176.097656,21.4023437 C177.246094,21.6015625 178.171875,21.9648437 178.171875,23.1367187 C178.171875,24.3847656 177.181641,25.1054687 175.658203,25.1054687 C174.234375,25.1054687 173.291016,24.4433594 173.291016,23.3417969 L174.445312,23.3417969 C174.521484,23.8457031 174.890625,24.1738281 175.716797,24.1738281 C176.636719,24.1738281 177.017578,23.7753906 177.017578,23.2832031 C177.017578,22.6328125 176.320312,22.5273437 175.470703,22.3632812 C174.333984,22.1347656 173.408203,21.8242187 173.408203,20.6054687 Z" id="The-content-goes-her" fill-opacity="0.54"></path>
                            <path d="M236.900391,12.5117188 L236.900391,13.53125 C236.900391,15.1425781 237.638672,15.9101562 238.775391,15.9101562 C239.888672,15.9101562 240.462891,15.1894531 240.462891,14.3457031 L241.833984,14.3457031 L241.833984,14.46875 C241.833984,15.8105469 240.779297,17.1582031 238.740234,17.1582031 C236.707031,17.1582031 235.464844,15.8515625 235.464844,13.53125 L235.464844,12.5 C235.464844,10.2089844 236.71875,8.84375 238.746094,8.84375 C240.720703,8.84375 241.833984,10.1679688 241.833984,11.6328125 L241.833984,11.7558594 L240.462891,11.7558594 C240.462891,10.9179688 239.871094,10.0976562 238.757812,10.0976562 C237.644531,10.0976562 236.900391,10.9121094 236.900391,12.5117188 Z M246.492188,17 L245.074219,17 L245.074219,10.2382812 L242.759766,10.2382812 L242.759766,9.00195312 L248.806641,9.00195312 L248.806641,10.2382812 L246.492188,10.2382812 L246.492188,17 Z M250.066406,17 L248.636719,17 L251.367188,9.00195312 L252.978516,9.00195312 L255.703125,17 L254.185547,17 L253.505859,14.8730469 L250.751953,14.8730469 L250.066406,17 Z M252.164062,10.4609375 L252.099609,10.4609375 L251.056641,13.765625 L253.201172,13.765625 L252.164062,10.4609375 Z M268.757812,17 L267.339844,17 L267.339844,13.5195312 L263.783203,13.5195312 L263.783203,17 L262.365234,17 L262.365234,9.00195312 L263.783203,9.00195312 L263.783203,12.2832031 L267.339844,12.2832031 L267.339844,9.00195312 L268.757812,9.00195312 L268.757812,17 Z M273.234375,17.1054688 C271.529297,17.1054688 270.462891,16.0800781 270.462891,14.2871094 L270.462891,13.5019531 C270.462891,11.6972656 271.628906,10.6835938 273.158203,10.6835938 C274.728516,10.6835938 275.835938,11.7675781 275.835938,13.5019531 L275.835938,14.2226562 L271.828125,14.2226562 L271.828125,14.5214844 C271.828125,15.3710938 272.349609,15.9863281 273.228516,15.9863281 C273.890625,15.9863281 274.353516,15.6757812 274.435547,15.2890625 L275.771484,15.2890625 C275.701172,16.0332031 274.939453,17.1054688 273.234375,17.1054688 Z M271.828125,13.3261719 L274.488281,13.3261719 L274.488281,13.2558594 C274.488281,12.3710938 273.960938,11.7851562 273.164062,11.7851562 C272.361328,11.7851562 271.828125,12.3710938 271.828125,13.2558594 L271.828125,13.3261719 Z M277.511719,17 L277.511719,10.7949219 L278.894531,10.7949219 L278.894531,11.7617188 L278.964844,11.7617188 C279.099609,11.3457031 279.550781,10.7011719 280.570312,10.7011719 C280.757812,10.7011719 280.904297,10.71875 281.027344,10.7421875 L281.027344,11.9902344 C280.910156,11.9550781 280.675781,11.9433594 280.453125,11.9433594 C279.416016,11.9433594 278.923828,12.546875 278.923828,13.3789062 L278.923828,17 L277.511719,17 Z M284.753906,17.1054688 C283.048828,17.1054688 281.982422,16.0800781 281.982422,14.2871094 L281.982422,13.5019531 C281.982422,11.6972656 283.148438,10.6835938 284.677734,10.6835938 C286.248047,10.6835938 287.355469,11.7675781 287.355469,13.5019531 L287.355469,14.2226562 L283.347656,14.2226562 L283.347656,14.5214844 C283.347656,15.3710938 283.869141,15.9863281 284.748047,15.9863281 C285.410156,15.9863281 285.873047,15.6757812 285.955078,15.2890625 L287.291016,15.2890625 C287.220703,16.0332031 286.458984,17.1054688 284.753906,17.1054688 Z M283.347656,13.3261719 L286.007812,13.3261719 L286.007812,13.2558594 C286.007812,12.3710938 285.480469,11.7851562 284.683594,11.7851562 C283.880859,11.7851562 283.347656,12.3710938 283.347656,13.2558594 L283.347656,13.3261719 Z" id="CTA-Here" fill-opacity="0.7"></path>
                        </g>
                    </g>
                </g>
            </g>
        </g>
    </g>
</svg>