<?xml version="1.0" encoding="UTF-8"?>
<svg width="369px" height="82px" viewBox="0 0 369 82" version="1.1" xmlns="http://www.w3.org/2000/svg" xmlns:xlink="http://www.w3.org/1999/xlink">
    <!-- Generator: Sketch 48.1 (47250) - http://www.bohemiancoding.com/sketch -->
    <title>Group 5</title>
    <desc>Created with Sketch.</desc>
    <defs></defs>
    <g id="toaster" stroke="none" stroke-width="1" fill="none" fill-rule="evenodd" transform="translate(-394.000000, -1884.000000)">
        <g id="Content" transform="translate(388.000000, 362.000000)">
            <g id="Spec" transform="translate(0.000000, 1462.000000)">
                <g id="Group-5" transform="translate(6.000000, 60.906900)">
                    <g id="Toaster" transform="translate(9.740492, 0.181798)">
                        <rect id="Rectangle" fill="#FDEBEC" x="0" y="0" width="320" height="80"></rect>
                        <rect id="Rectangle-Copy" fill="#F05F68" x="0" y="0" width="320" height="1"></rect>
                        <g id="Group" transform="translate(16.000000, 27.000000)" fill="#000000">
                            <path d="M3.66796875,9 L2.73632812,9 L2.73632812,1.84570312 L0.287109375,1.84570312 L0.287109375,1.00195312 L6.1171875,1.00195312 L6.1171875,1.84570312 L3.66796875,1.84570312 L3.66796875,9 Z M7.5,9 L7.5,0.345703125 L8.41992188,0.345703125 L8.41992188,3.97851562 L8.46679688,3.97851562 C8.58984375,3.55664062 9.08789062,2.75390625 10.3886719,2.75390625 C11.578125,2.75390625 12.4628906,3.42773437 12.4628906,4.79296875 L12.4628906,9 L11.5429688,9 L11.5429688,5.09765625 C11.5429688,4.11328125 10.9980469,3.56835938 10.1132812,3.56835938 C8.98828125,3.56835938 8.41992188,4.45898438 8.41992188,5.57226562 L8.41992188,9 L7.5,9 Z M16.8632812,9.09960938 C15.2285156,9.09960938 14.2851562,8.0390625 14.2851562,6.42773438 L14.2851562,5.43164062 C14.2851562,3.80273438 15.328125,2.75390625 16.7871094,2.75390625 C18.2460937,2.75390625 19.2890625,3.80273438 19.2890625,5.43164062 L19.2890625,6.18164062 L15.2109375,6.18164062 L15.2109375,6.49804688 C15.2109375,7.49414062 15.7734375,8.28515625 16.8574219,8.28515625 C17.6074219,8.28515625 18.1054687,7.92773438 18.2226562,7.546875 L19.2011719,7.546875 C19.1015625,8.17382812 18.3632812,9.09960938 16.8632812,9.09960938 Z M15.2109375,5.46679688 L18.3632812,5.46679688 L18.3632812,5.35546875 C18.3632812,4.27734375 17.7363281,3.56835938 16.7871094,3.56835938 C15.8378906,3.56835938 15.2109375,4.27734375 15.2109375,5.35546875 L15.2109375,5.46679688 Z M23.5253906,6.45703125 L23.5253906,5.37890625 C23.5253906,3.79101562 24.4921875,2.75390625 26.0449219,2.75390625 C27.5625,2.75390625 28.3242188,3.69726562 28.3535156,4.55273438 L27.4335938,4.55273438 C27.3632812,4.20703125 27.0761719,3.59179688 26.0566406,3.59179688 C24.9902344,3.59179688 24.4453125,4.30664062 24.4453125,5.41992188 L24.4453125,6.46875 C24.4453125,7.55859375 25.0546875,8.26171875 26.0566406,8.26171875 C27.0117188,8.26171875 27.3632812,7.83398438 27.4804688,7.37695312 L28.4003906,7.37695312 C28.359375,8.203125 27.6503906,9.09960938 26.0449219,9.09960938 C24.4921875,9.09960938 23.5253906,8.07421875 23.5253906,6.45703125 Z M32.4433594,2.75390625 C33.9257812,2.75390625 35.0507812,3.7265625 35.0507812,5.4375 L35.0507812,6.41015625 C35.0507812,8.12109375 33.9257812,9.09960938 32.4433594,9.09960938 C30.9316406,9.09960938 29.8300781,8.13867188 29.8300781,6.41015625 L29.8300781,5.4375 C29.8300781,3.79101562 30.9550781,2.75390625 32.4433594,2.75390625 Z M32.4492187,3.56835938 C31.4238281,3.56835938 30.75,4.36523438 30.75,5.54296875 L30.75,6.31640625 C30.75,7.5234375 31.3828125,8.28515625 32.4492187,8.28515625 C33.5097656,8.28515625 34.1308594,7.5234375 34.1308594,6.31640625 L34.1308594,5.54296875 C34.1308594,4.36523438 33.4804687,3.56835938 32.4492187,3.56835938 Z M36.9023438,9 L36.9023438,2.85351563 L37.8222656,2.85351563 L37.8222656,3.97851562 L37.8691406,3.97851562 C38.0273438,3.4921875 38.4375,2.75390625 39.7441406,2.75390625 C40.9863281,2.75390625 41.8417969,3.41601563 41.8417969,4.78125 L41.8417969,9 L40.921875,9 L40.921875,5.0859375 C40.921875,4.1015625 40.4179688,3.56835938 39.5273438,3.56835938 C38.3671875,3.56835938 37.8222656,4.46484375 37.8222656,5.57226562 L37.8222656,9 L36.9023438,9 Z M44.2792969,2.85351562 L44.2792969,1.30664062 L45.1992187,1.30664062 L45.1992187,2.85351562 L46.59375,2.85351562 L46.59375,3.62109375 L45.1992187,3.62109375 L45.1992187,7.33007812 C45.1992187,8.0859375 45.4394531,8.2734375 46.21875,8.2734375 C46.359375,8.2734375 46.5996094,8.25585937 46.6933594,8.24414062 L46.6933594,9.01171875 C46.6113281,9.02929687 46.1777344,9.05859375 45.984375,9.05859375 C44.5429687,9.05859375 44.2792969,8.484375 44.2792969,7.28320312 L44.2792969,3.62109375 L43.3417969,3.62109375 L43.3417969,2.85351562 L44.2792969,2.85351562 Z M50.6601562,9.09960938 C49.0253906,9.09960938 48.0820312,8.0390625 48.0820312,6.42773438 L48.0820312,5.43164062 C48.0820312,3.80273438 49.125,2.75390625 50.5839844,2.75390625 C52.0429687,2.75390625 53.0859375,3.80273438 53.0859375,5.43164062 L53.0859375,6.18164062 L49.0078125,6.18164062 L49.0078125,6.49804688 C49.0078125,7.49414062 49.5703125,8.28515625 50.6542969,8.28515625 C51.4042969,8.28515625 51.9023437,7.92773438 52.0195312,7.546875 L52.9980469,7.546875 C52.8984375,8.17382812 52.1601562,9.09960938 50.6601562,9.09960938 Z M49.0078125,5.46679688 L52.1601562,5.46679688 L52.1601562,5.35546875 C52.1601562,4.27734375 51.5332031,3.56835938 50.5839844,3.56835938 C49.6347656,3.56835938 49.0078125,4.27734375 49.0078125,5.35546875 L49.0078125,5.46679688 Z M54.9023438,9 L54.9023438,2.85351563 L55.8222656,2.85351563 L55.8222656,3.97851562 L55.8691406,3.97851562 C56.0273438,3.4921875 56.4375,2.75390625 57.7441406,2.75390625 C58.9863281,2.75390625 59.8417969,3.41601563 59.8417969,4.78125 L59.8417969,9 L58.921875,9 L58.921875,5.0859375 C58.921875,4.1015625 58.4179688,3.56835938 57.5273438,3.56835938 C56.3671875,3.56835938 55.8222656,4.46484375 55.8222656,5.57226562 L55.8222656,9 L54.9023438,9 Z M62.2792969,2.85351562 L62.2792969,1.30664062 L63.1992187,1.30664062 L63.1992187,2.85351562 L64.59375,2.85351562 L64.59375,3.62109375 L63.1992187,3.62109375 L63.1992187,7.33007812 C63.1992187,8.0859375 63.4394531,8.2734375 64.21875,8.2734375 C64.359375,8.2734375 64.5996094,8.25585937 64.6933594,8.24414062 L64.6933594,9.01171875 C64.6113281,9.02929687 64.1777344,9.05859375 63.984375,9.05859375 C62.5429687,9.05859375 62.2792969,8.484375 62.2792969,7.28320312 L62.2792969,3.62109375 L61.3417969,3.62109375 L61.3417969,2.85351562 L62.2792969,2.85351562 Z M71.2558594,10.4941406 C72.3925781,10.4941406 72.9550781,9.87890625 72.9550781,8.87109375 L72.9550781,7.92773438 L72.9023438,7.92773438 C72.65625,8.45507812 72.0234375,8.88867188 71.1738281,8.88867188 C69.8085938,8.88867188 68.71875,7.92773438 68.71875,6.34570312 L68.71875,5.30859375 C68.71875,3.7265625 69.8027344,2.75390625 71.1679688,2.75390625 C72.09375,2.75390625 72.7558594,3.28710938 72.9609375,3.7734375 L73.0019531,3.7734375 L73.0019531,2.85351562 L73.875,2.85351562 L73.875,8.85351562 C73.875,10.5351562 72.8320312,11.3085938 71.2148438,11.3085938 C69.6679688,11.3085938 68.9472656,10.5527344 68.8535156,9.65625 L69.8144531,9.65625 C69.8964844,10.1074219 70.40625,10.4941406 71.2558594,10.4941406 Z M71.3496094,3.56835938 C70.2890625,3.56835938 69.6386719,4.36523438 69.6386719,5.52539062 L69.6386719,6.12890625 C69.6386719,7.28320312 70.3535156,8.07421875 71.3613281,8.07421875 C72.3984375,8.07421875 72.9550781,7.21875 72.9550781,6.33398438 L72.9550781,5.34375 C72.9550781,4.43554688 72.3632812,3.56835938 71.3496094,3.56835938 Z M78.3398438,2.75390625 C79.8222656,2.75390625 80.9472656,3.7265625 80.9472656,5.4375 L80.9472656,6.41015625 C80.9472656,8.12109375 79.8222656,9.09960938 78.3398438,9.09960938 C76.828125,9.09960938 75.7265625,8.13867188 75.7265625,6.41015625 L75.7265625,5.4375 C75.7265625,3.79101562 76.8515625,2.75390625 78.3398438,2.75390625 Z M78.3457031,3.56835938 C77.3203125,3.56835938 76.6464844,4.36523438 76.6464844,5.54296875 L76.6464844,6.31640625 C76.6464844,7.5234375 77.2792969,8.28515625 78.3457031,8.28515625 C79.40625,8.28515625 80.0273438,7.5234375 80.0273438,6.31640625 L80.0273438,5.54296875 C80.0273438,4.36523438 79.3769531,3.56835938 78.3457031,3.56835938 Z M85.0722656,9.09960938 C83.4375,9.09960938 82.4941406,8.0390625 82.4941406,6.42773438 L82.4941406,5.43164062 C82.4941406,3.80273438 83.5371094,2.75390625 84.9960937,2.75390625 C86.4550781,2.75390625 87.4980469,3.80273438 87.4980469,5.43164062 L87.4980469,6.18164062 L83.4199219,6.18164062 L83.4199219,6.49804688 C83.4199219,7.49414062 83.9824219,8.28515625 85.0664062,8.28515625 C85.8164062,8.28515625 86.3144531,7.92773438 86.4316406,7.546875 L87.4101562,7.546875 C87.3105469,8.17382812 86.5722656,9.09960938 85.0722656,9.09960938 Z M83.4199219,5.46679688 L86.5722656,5.46679688 L86.5722656,5.35546875 C86.5722656,4.27734375 85.9453125,3.56835938 84.9960937,3.56835938 C84.046875,3.56835938 83.4199219,4.27734375 83.4199219,5.35546875 L83.4199219,5.46679688 Z M89.0039062,4.59960938 C89.0039062,3.31640625 90.0820312,2.75390625 91.2480469,2.75390625 C92.5546875,2.75390625 93.4042969,3.45117188 93.4042969,4.453125 L92.5371094,4.453125 C92.5019531,4.00195312 92.0800781,3.52148438 91.2070312,3.52148438 C90.4570312,3.52148438 89.90625,3.8671875 89.90625,4.5 C89.90625,5.26171875 90.7089844,5.36132812 91.4121094,5.49023438 C92.5664062,5.6953125 93.5566406,5.98828125 93.5566406,7.20117188 C93.5566406,8.41992188 92.5722656,9.09960938 91.1542969,9.09960938 C89.8417969,9.09960938 88.8984375,8.51367188 88.8984375,7.41210938 L89.8007812,7.41210938 C89.8886719,7.98632812 90.28125,8.33789062 91.1953125,8.33789062 C92.2265625,8.33789062 92.6484375,7.875 92.6484375,7.3125 C92.6484375,6.59765625 91.9746094,6.45703125 91.1015625,6.28710938 C89.9472656,6.046875 89.0039062,5.8125 89.0039062,4.59960938 Z M98.0917969,9 L98.0917969,0.345703125 L99.0117187,0.345703125 L99.0117187,3.97851562 L99.0585937,3.97851562 C99.1816406,3.55664062 99.6796875,2.75390625 100.980469,2.75390625 C102.169922,2.75390625 103.054687,3.42773437 103.054687,4.79296875 L103.054687,9 L102.134766,9 L102.134766,5.09765625 C102.134766,4.11328125 101.589844,3.56835938 100.705078,3.56835938 C99.5800781,3.56835938 99.0117187,4.45898438 99.0117187,5.57226562 L99.0117187,9 L98.0917969,9 Z M107.455078,9.09960938 C105.820312,9.09960938 104.876953,8.0390625 104.876953,6.42773438 L104.876953,5.43164062 C104.876953,3.80273438 105.919922,2.75390625 107.378906,2.75390625 C108.837891,2.75390625 109.880859,3.80273438 109.880859,5.43164062 L109.880859,6.18164062 L105.802734,6.18164062 L105.802734,6.49804688 C105.802734,7.49414062 106.365234,8.28515625 107.449219,8.28515625 C108.199219,8.28515625 108.697266,7.92773438 108.814453,7.546875 L109.792969,7.546875 C109.693359,8.17382812 108.955078,9.09960938 107.455078,9.09960938 Z M105.802734,5.46679688 L108.955078,5.46679688 L108.955078,5.35546875 C108.955078,4.27734375 108.328125,3.56835938 107.378906,3.56835938 C106.429688,3.56835938 105.802734,4.27734375 105.802734,5.35546875 L105.802734,5.46679688 Z M111.802734,9 L111.802734,2.85351563 L112.722656,2.85351563 L112.722656,3.796875 L112.769531,3.796875 C112.927734,3.39257813 113.373047,2.75976563 114.492187,2.75976563 C114.603516,2.75976563 114.726562,2.77148438 114.849609,2.78320313 L114.849609,3.63867188 C114.75,3.62109375 114.556641,3.61523438 114.380859,3.61523438 C113.279297,3.61523438 112.722656,4.28320312 112.722656,5.11523438 L112.722656,9 L111.802734,9 Z M118.582031,9.09960938 C116.947266,9.09960938 116.003906,8.0390625 116.003906,6.42773438 L116.003906,5.43164062 C116.003906,3.80273438 117.046875,2.75390625 118.505859,2.75390625 C119.964844,2.75390625 121.007812,3.80273438 121.007812,5.43164062 L121.007812,6.18164062 L116.929688,6.18164062 L116.929688,6.49804688 C116.929688,7.49414062 117.492188,8.28515625 118.576172,8.28515625 C119.326172,8.28515625 119.824219,7.92773438 119.941406,7.546875 L120.919922,7.546875 C120.820312,8.17382812 120.082031,9.09960938 118.582031,9.09960938 Z M116.929687,5.46679688 L120.082031,5.46679688 L120.082031,5.35546875 C120.082031,4.27734375 119.455078,3.56835938 118.505859,3.56835938 C117.556641,3.56835938 116.929687,4.27734375 116.929687,5.35546875 L116.929687,5.46679688 Z M122.742187,11.2324219 L122.021484,11.2324219 L122.835937,8.02148438 L123.931641,8.02148438 L122.742187,11.2324219 Z M133.382812,2.85351563 L133.382812,9 L132.462891,9 L132.462891,7.98046875 L132.410156,7.98046875 C132.234375,8.484375 131.654297,9.09960938 130.576172,9.09960938 C129.345703,9.09960938 128.460937,8.56640625 128.460937,7.1484375 L128.460937,2.85351563 L129.380859,2.85351563 L129.380859,6.89648438 C129.380859,7.93945312 130.007812,8.28515625 130.787109,8.28515625 C131.742187,8.28515625 132.462891,7.58203125 132.462891,6.77929688 L132.462891,2.85351563 L133.382812,2.85351563 Z M135.228516,4.59960938 C135.228516,3.31640625 136.306641,2.75390625 137.472656,2.75390625 C138.779297,2.75390625 139.628906,3.45117188 139.628906,4.453125 L138.761719,4.453125 C138.726562,4.00195312 138.304687,3.52148438 137.431641,3.52148438 C136.681641,3.52148438 136.130859,3.8671875 136.130859,4.5 C136.130859,5.26171875 136.933594,5.36132812 137.636719,5.49023438 C138.791016,5.6953125 139.78125,5.98828125 139.78125,7.20117188 C139.78125,8.41992188 138.796875,9.09960938 137.378906,9.09960938 C136.066406,9.09960938 135.123047,8.51367188 135.123047,7.41210938 L136.025391,7.41210938 C136.113281,7.98632812 136.505859,8.33789062 137.419922,8.33789062 C138.451172,8.33789062 138.873047,7.875 138.873047,7.3125 C138.873047,6.59765625 138.199219,6.45703125 137.326172,6.28710938 C136.171875,6.046875 135.228516,5.8125 135.228516,4.59960938 Z M143.847656,9.09960938 C142.212891,9.09960938 141.269531,8.0390625 141.269531,6.42773438 L141.269531,5.43164062 C141.269531,3.80273438 142.3125,2.75390625 143.771484,2.75390625 C145.230469,2.75390625 146.273438,3.80273438 146.273438,5.43164062 L146.273438,6.18164062 L142.195312,6.18164062 L142.195312,6.49804688 C142.195312,7.49414062 142.757812,8.28515625 143.841797,8.28515625 C144.591797,8.28515625 145.089844,7.92773438 145.207031,7.546875 L146.185547,7.546875 C146.085938,8.17382812 145.347656,9.09960938 143.847656,9.09960938 Z M142.195312,5.46679688 L145.347656,5.46679688 L145.347656,5.35546875 C145.347656,4.27734375 144.720703,3.56835938 143.771484,3.56835938 C142.822266,3.56835938 142.195312,4.27734375 142.195312,5.35546875 L142.195312,5.46679688 Z M150.919922,9 L150.919922,2.85351563 L151.839844,2.85351563 L151.839844,3.796875 L151.886719,3.796875 C152.044922,3.39257813 152.490234,2.75976563 153.609375,2.75976563 C153.720703,2.75976563 153.84375,2.77148438 153.966797,2.78320313 L153.966797,3.63867188 C153.867188,3.62109375 153.673828,3.61523438 153.498047,3.61523438 C152.396484,3.61523438 151.839844,4.28320312 151.839844,5.11523438 L151.839844,9 L150.919922,9 Z M157.699219,9.09960938 C156.064453,9.09960938 155.121094,8.0390625 155.121094,6.42773438 L155.121094,5.43164062 C155.121094,3.80273438 156.164062,2.75390625 157.623047,2.75390625 C159.082031,2.75390625 160.125,3.80273438 160.125,5.43164062 L160.125,6.18164062 L156.046875,6.18164062 L156.046875,6.49804688 C156.046875,7.49414062 156.609375,8.28515625 157.693359,8.28515625 C158.443359,8.28515625 158.941406,7.92773438 159.058594,7.546875 L160.037109,7.546875 C159.9375,8.17382812 159.199219,9.09960938 157.699219,9.09960938 Z M156.046875,5.46679688 L159.199219,5.46679688 L159.199219,5.35546875 C159.199219,4.27734375 158.572266,3.56835938 157.623047,3.56835938 C156.673828,3.56835938 156.046875,4.27734375 156.046875,5.35546875 L156.046875,5.46679688 Z M164.044922,2.74804688 C165.064453,2.74804688 165.632812,3.24609375 165.832031,3.75 L165.878906,3.75 L165.878906,0.345703125 L166.798828,0.345703125 L166.798828,9 L165.925781,9 L165.925781,8.02148438 L165.878906,8.02148438 C165.738281,8.52539062 165.09375,9.09375 164.015625,9.09375 C162.591797,9.09375 161.636719,8.109375 161.636719,6.5625 L161.636719,5.28515625 C161.636719,3.77929688 162.574219,2.74804688 164.044922,2.74804688 Z M164.167969,3.5625 C163.171875,3.5625 162.556641,4.28320312 162.556641,5.51367188 L162.556641,6.31640625 C162.556641,7.5703125 163.189453,8.27929688 164.203125,8.27929688 C165.222656,8.27929688 165.878906,7.55859375 165.878906,6.42773438 L165.878906,5.27929688 C165.878906,4.29492188 165.169922,3.5625 164.167969,3.5625 Z M171.392578,6.45703125 L171.392578,5.37890625 C171.392578,3.79101562 172.359375,2.75390625 173.912109,2.75390625 C175.429688,2.75390625 176.191406,3.69726562 176.220703,4.55273438 L175.300781,4.55273438 C175.230469,4.20703125 174.943359,3.59179688 173.923828,3.59179688 C172.857422,3.59179688 172.3125,4.30664062 172.3125,5.41992188 L172.3125,6.46875 C172.3125,7.55859375 172.921875,8.26171875 173.923828,8.26171875 C174.878906,8.26171875 175.230469,7.83398438 175.347656,7.37695312 L176.267578,7.37695312 C176.226562,8.203125 175.517578,9.09960938 173.912109,9.09960938 C172.359375,9.09960938 171.392578,8.07421875 171.392578,6.45703125 Z M180.310547,2.75390625 C181.792969,2.75390625 182.917969,3.7265625 182.917969,5.4375 L182.917969,6.41015625 C182.917969,8.12109375 181.792969,9.09960938 180.310547,9.09960938 C178.798828,9.09960938 177.697266,8.13867188 177.697266,6.41015625 L177.697266,5.4375 C177.697266,3.79101562 178.822266,2.75390625 180.310547,2.75390625 Z M180.316406,3.56835938 C179.291016,3.56835938 178.617188,4.36523438 178.617188,5.54296875 L178.617188,6.31640625 C178.617188,7.5234375 179.25,8.28515625 180.316406,8.28515625 C181.376953,8.28515625 181.998047,7.5234375 181.998047,6.31640625 L181.998047,5.54296875 C181.998047,4.36523438 181.347656,3.56835938 180.316406,3.56835938 Z M184.804688,9 L184.804688,0.345703125 L185.724609,0.345703125 L185.724609,9 L184.804688,9 Z M190.224609,2.75390625 C191.707031,2.75390625 192.832031,3.7265625 192.832031,5.4375 L192.832031,6.41015625 C192.832031,8.12109375 191.707031,9.09960938 190.224609,9.09960938 C188.712891,9.09960938 187.611328,8.13867188 187.611328,6.41015625 L187.611328,5.4375 C187.611328,3.79101562 188.736328,2.75390625 190.224609,2.75390625 Z M190.230469,3.56835938 C189.205078,3.56835938 188.53125,4.36523438 188.53125,5.54296875 L188.53125,6.31640625 C188.53125,7.5234375 189.164062,8.28515625 190.230469,8.28515625 C191.291016,8.28515625 191.912109,7.5234375 191.912109,6.31640625 L191.912109,5.54296875 C191.912109,4.36523438 191.261719,3.56835938 190.230469,3.56835938 Z M194.789062,9 L194.789062,2.85351563 L195.708984,2.85351563 L195.708984,3.796875 L195.755859,3.796875 C195.914062,3.39257813 196.359375,2.75976563 197.478516,2.75976563 C197.589844,2.75976563 197.712891,2.77148438 197.835938,2.78320313 L197.835938,3.63867188 C197.736328,3.62109375 197.542969,3.61523438 197.367188,3.61523438 C196.265625,3.61523438 195.708984,4.28320312 195.708984,5.11523438 L195.708984,9 L194.789062,9 Z M202.541016,9 L202.541016,3.62109375 L201.498047,3.62109375 L201.498047,2.85351562 L202.541016,2.85351562 L202.541016,2.23828125 C202.541016,1.07226562 203.085937,0.521484375 204.416016,0.521484375 C204.679687,0.521484375 204.966797,0.544921875 205.072266,0.556640625 L205.072266,1.3359375 C204.978516,1.32421875 204.673828,1.3125 204.527344,1.3125 C203.777344,1.3125 203.460937,1.53515625 203.460937,2.30859375 L203.460937,2.85351562 L204.896484,2.85351562 L204.896484,3.62109375 L203.460937,3.62109375 L203.460937,9 L202.541016,9 Z M208.722656,2.75390625 C210.205078,2.75390625 211.330078,3.7265625 211.330078,5.4375 L211.330078,6.41015625 C211.330078,8.12109375 210.205078,9.09960938 208.722656,9.09960938 C207.210937,9.09960938 206.109375,8.13867188 206.109375,6.41015625 L206.109375,5.4375 C206.109375,3.79101562 207.234375,2.75390625 208.722656,2.75390625 Z M208.728516,3.56835938 C207.703125,3.56835938 207.029297,4.36523438 207.029297,5.54296875 L207.029297,6.31640625 C207.029297,7.5234375 207.662109,8.28515625 208.728516,8.28515625 C209.789062,8.28515625 210.410156,7.5234375 210.410156,6.31640625 L210.410156,5.54296875 C210.410156,4.36523438 209.759766,3.56835938 208.728516,3.56835938 Z M213.287109,9 L213.287109,2.85351563 L214.207031,2.85351563 L214.207031,3.796875 L214.253906,3.796875 C214.412109,3.39257813 214.857422,2.75976563 215.976562,2.75976563 C216.087891,2.75976563 216.210938,2.77148438 216.333984,2.78320313 L216.333984,3.63867188 C216.234375,3.62109375 216.041016,3.61523438 215.865234,3.61523438 C214.763672,3.61523438 214.207031,4.28320312 214.207031,5.11523438 L214.207031,9 L213.287109,9 Z M2.72460937,25.0996094 C1.53515625,25.0996094 0.720703125,24.34375 0.720703125,23.2128906 C0.720703125,22.1464844 1.46484375,21.4140625 2.87109375,21.4140625 L4.51171875,21.4140625 L4.51171875,20.7871094 C4.51171875,19.9492188 3.984375,19.5683594 3.14648437,19.5683594 C2.32617187,19.5683594 1.98632812,19.8789062 1.8515625,20.3183594 L0.955078125,20.3183594 C1.0546875,19.2695312 1.90429687,18.7539062 3.1875,18.7539062 C4.41796875,18.7539062 5.44335937,19.2929688 5.44335937,20.78125 L5.44335937,25 L4.55273437,25 L4.55273437,24.1738281 L4.51171875,24.1738281 C4.1953125,24.6777344 3.6328125,25.0996094 2.72460937,25.0996094 Z M2.95898438,24.2851562 C3.84375,24.2851562 4.51171875,23.6816406 4.51171875,22.8847656 L4.51171875,22.1816406 L2.88867188,22.1816406 C2.015625,22.1816406 1.66992188,22.6210938 1.66992188,23.1953125 C1.66992188,23.9453125 2.28515625,24.2851562 2.95898438,24.2851562 Z M7.5703125,25 L7.5703125,18.8535156 L8.49023438,18.8535156 L8.49023438,19.9785156 L8.53710938,19.9785156 C8.6953125,19.4921875 9.10546875,18.7539062 10.4121094,18.7539062 C11.6542969,18.7539062 12.5097656,19.4160156 12.5097656,20.78125 L12.5097656,25 L11.5898438,25 L11.5898438,21.0859375 C11.5898438,20.1015625 11.0859375,19.5683594 10.1953125,19.5683594 C9.03515625,19.5683594 8.49023438,20.4648438 8.49023438,21.5722656 L8.49023438,25 L7.5703125,25 Z M19.4179688,18.8535156 L17.1972656,25.0644531 L17.0390625,25.4921875 C16.7109375,26.3828125 16.3007812,27.2558594 15.0585938,27.2558594 C14.8535156,27.2558594 14.6191406,27.2324219 14.4667969,27.2089844 L14.4667969,26.4296875 C14.5605469,26.4472656 14.7773438,26.4589844 14.9121094,26.4589844 C15.6386719,26.4589844 15.9492188,26.0957031 16.1308594,25.4511719 L16.2304688,25.0996094 L13.9394531,18.8535156 L14.9648438,18.8535156 L16.6816406,24.0449219 L16.7226562,24.0449219 L18.4394531,18.8535156 L19.4179688,18.8535156 Z M25.9628906,25.0996094 C24.328125,25.0996094 23.3847656,24.0390625 23.3847656,22.4277344 L23.3847656,21.4316406 C23.3847656,19.8027344 24.4277344,18.7539062 25.8867187,18.7539062 C27.3457031,18.7539062 28.3886719,19.8027344 28.3886719,21.4316406 L28.3886719,22.1816406 L24.3105469,22.1816406 L24.3105469,22.4980469 C24.3105469,23.4941406 24.8730469,24.2851562 25.9570312,24.2851562 C26.7070312,24.2851562 27.2050781,23.9277344 27.3222656,23.546875 L28.3007812,23.546875 C28.2011719,24.1738281 27.4628906,25.0996094 25.9628906,25.0996094 Z M24.3105469,21.4667969 L27.4628906,21.4667969 L27.4628906,21.3554687 C27.4628906,20.2773437 26.8359375,19.5683594 25.8867188,19.5683594 C24.9375,19.5683594 24.3105469,20.2773437 24.3105469,21.3554687 L24.3105469,21.4667969 Z M30.3105469,25 L30.3105469,18.8535156 L31.2304687,18.8535156 L31.2304687,19.796875 L31.2773437,19.796875 C31.4355469,19.3925781 31.8808594,18.7597656 33,18.7597656 C33.1113281,18.7597656 33.234375,18.7714844 33.3574219,18.7832031 L33.3574219,19.6386719 C33.2578125,19.6210937 33.0644531,19.6152344 32.8886719,19.6152344 C31.7871094,19.6152344 31.2304687,20.2832031 31.2304687,21.1152344 L31.2304687,25 L30.3105469,25 Z M34.921875,25 L34.921875,18.8535156 L35.8417969,18.8535156 L35.8417969,19.796875 L35.8886719,19.796875 C36.046875,19.3925781 36.4921875,18.7597656 37.6113281,18.7597656 C37.7226562,18.7597656 37.8457031,18.7714844 37.96875,18.7832031 L37.96875,19.6386719 C37.8691406,19.6210937 37.6757812,19.6152344 37.5,19.6152344 C36.3984375,19.6152344 35.8417969,20.2832031 35.8417969,21.1152344 L35.8417969,25 L34.921875,25 Z M41.7363281,18.7539062 C43.21875,18.7539062 44.34375,19.7265625 44.34375,21.4375 L44.34375,22.4101562 C44.34375,24.1210938 43.21875,25.0996094 41.7363281,25.0996094 C40.2246094,25.0996094 39.1230469,24.1386719 39.1230469,22.4101562 L39.1230469,21.4375 C39.1230469,19.7910156 40.2480469,18.7539062 41.7363281,18.7539062 Z M41.7421875,19.5683594 C40.7167969,19.5683594 40.0429688,20.3652344 40.0429688,21.5429687 L40.0429688,22.3164062 C40.0429688,23.5234375 40.6757812,24.2851562 41.7421875,24.2851562 C42.8027344,24.2851562 43.4238281,23.5234375 43.4238281,22.3164062 L43.4238281,21.5429687 C43.4238281,20.3652344 42.7734375,19.5683594 41.7421875,19.5683594 Z M46.3007812,25 L46.3007812,18.8535156 L47.2207031,18.8535156 L47.2207031,19.796875 L47.2675781,19.796875 C47.4257812,19.3925781 47.8710937,18.7597656 48.9902344,18.7597656 C49.1015625,18.7597656 49.2246094,18.7714844 49.3476562,18.7832031 L49.3476562,19.6386719 C49.2480469,19.6210937 49.0546875,19.6152344 48.8789062,19.6152344 C47.7773437,19.6152344 47.2207031,20.2832031 47.2207031,21.1152344 L47.2207031,25 L46.3007812,25 Z M50.4960938,20.5996094 C50.4960938,19.3164062 51.5742188,18.7539062 52.7402344,18.7539062 C54.046875,18.7539062 54.8964844,19.4511719 54.8964844,20.453125 L54.0292969,20.453125 C53.9941406,20.0019531 53.5722656,19.5214844 52.6992188,19.5214844 C51.9492188,19.5214844 51.3984375,19.8671875 51.3984375,20.5 C51.3984375,21.2617188 52.2011719,21.3613281 52.9042969,21.4902344 C54.0585938,21.6953125 55.0488281,21.9882812 55.0488281,23.2011719 C55.0488281,24.4199219 54.0644531,25.0996094 52.6464844,25.0996094 C51.3339844,25.0996094 50.390625,24.5136719 50.390625,23.4121094 L51.2929688,23.4121094 C51.3808594,23.9863281 51.7734375,24.3378906 52.6875,24.3378906 C53.71875,24.3378906 54.140625,23.875 54.140625,23.3125 C54.140625,22.5976562 53.4667969,22.4570312 52.59375,22.2871094 C51.4394531,22.046875 50.4960938,21.8125 50.4960938,20.5996094 Z M56.6425781,27.2324219 L55.921875,27.2324219 L56.7363281,24.0214844 L57.8320312,24.0214844 L56.6425781,27.2324219 Z M64.0546875,25.0996094 C62.8652344,25.0996094 62.0507812,24.34375 62.0507812,23.2128906 C62.0507812,22.1464844 62.7949219,21.4140625 64.2011719,21.4140625 L65.8417969,21.4140625 L65.8417969,20.7871094 C65.8417969,19.9492188 65.3144531,19.5683594 64.4765625,19.5683594 C63.65625,19.5683594 63.3164062,19.8789062 63.1816406,20.3183594 L62.2851562,20.3183594 C62.3847656,19.2695312 63.234375,18.7539062 64.5175781,18.7539062 C65.7480469,18.7539062 66.7734375,19.2929688 66.7734375,20.78125 L66.7734375,25 L65.8828125,25 L65.8828125,24.1738281 L65.8417969,24.1738281 C65.5253906,24.6777344 64.9628906,25.0996094 64.0546875,25.0996094 Z M64.2890625,24.2851562 C65.1738281,24.2851562 65.8417969,23.6816406 65.8417969,22.8847656 L65.8417969,22.1816406 L64.21875,22.1816406 C63.3457031,22.1816406 63,22.6210938 63,23.1953125 C63,23.9453125 63.6152344,24.2851562 64.2890625,24.2851562 Z M68.9003906,25 L68.9003906,18.8535156 L69.8203125,18.8535156 L69.8203125,19.9785156 L69.8671875,19.9785156 C70.0253906,19.4921875 70.4355469,18.7539062 71.7421875,18.7539062 C72.984375,18.7539062 73.8398437,19.4160156 73.8398437,20.78125 L73.8398437,25 L72.9199219,25 L72.9199219,21.0859375 C72.9199219,20.1015625 72.4160156,19.5683594 71.5253906,19.5683594 C70.3652344,19.5683594 69.8203125,20.4648438 69.8203125,21.5722656 L69.8203125,25 L68.9003906,25 Z M78.0703125,18.7480469 C79.0898438,18.7480469 79.6582031,19.2460938 79.8574219,19.75 L79.9042969,19.75 L79.9042969,16.3457031 L80.8242188,16.3457031 L80.8242188,25 L79.9511719,25 L79.9511719,24.0214844 L79.9042969,24.0214844 C79.7636719,24.5253906 79.1191406,25.09375 78.0410156,25.09375 C76.6171875,25.09375 75.6621094,24.109375 75.6621094,22.5625 L75.6621094,21.2851562 C75.6621094,19.7792969 76.5996094,18.7480469 78.0703125,18.7480469 Z M78.1933594,19.5625 C77.1972656,19.5625 76.5820312,20.2832031 76.5820312,21.5136719 L76.5820312,22.3164062 C76.5820312,23.5703125 77.2148438,24.2792969 78.2285156,24.2792969 C79.2480469,24.2792969 79.9042969,23.5585938 79.9042969,22.4277344 L79.9042969,21.2792969 C79.9042969,20.2949219 79.1953125,19.5625 78.1933594,19.5625 Z M85.6523437,25 L85.6523437,18.8125 L86.8242187,18.8125 L86.8242187,19.8144531 L86.8828125,19.8144531 C87.0234375,19.3691406 87.4277344,18.71875 88.5585937,18.71875 C89.4960937,18.71875 90.0761719,19.2167969 90.2695312,19.8789062 L90.3222656,19.8789062 C90.5625,19.2871094 91.1542969,18.71875 92.203125,18.71875 C93.4628906,18.71875 94.2246094,19.4335938 94.2246094,20.6640625 L94.2246094,25 L93.0410156,25 L93.0410156,21.0332031 C93.0410156,20.2480469 92.6015625,19.7851562 91.8164062,19.7851562 C91.0839844,19.7851562 90.5214844,20.3242188 90.5214844,21.1503906 L90.5214844,25 L89.3613281,25 L89.3613281,21.0683594 C89.3613281,20.265625 88.8691406,19.7851562 88.1132812,19.7851562 C87.375,19.7851562 86.8359375,20.3066406 86.8359375,21.1386719 L86.8359375,25 L85.6523437,25 Z M97.8984375,25.0996094 C96.703125,25.0996094 95.8769531,24.3554688 95.8769531,23.2011719 C95.8769531,22.1113281 96.6328125,21.3730469 98.0566406,21.3730469 L99.6445312,21.3730469 L99.6445312,20.7871094 C99.6445312,20.0664062 99.1699219,19.7324219 98.4199219,19.7324219 C97.6757812,19.7324219 97.3535156,20.0253906 97.2421875,20.4355469 L96.1113281,20.4355469 C96.1933594,19.4042969 96.9960937,18.71875 98.4550781,18.71875 C99.7558594,18.71875 100.828125,19.2636719 100.828125,20.8046875 L100.828125,25 L99.6972656,25 L99.6972656,24.1972656 L99.6445312,24.1972656 C99.3574219,24.671875 98.8125,25.0996094 97.8984375,25.0996094 Z M98.25,24.1035156 C99.0351562,24.1035156 99.6445312,23.59375 99.6445312,22.9023437 L99.6445312,22.234375 L98.203125,22.234375 C97.4121094,22.234375 97.0722656,22.6210937 97.0722656,23.1367187 C97.0722656,23.7929687 97.6347656,24.1035156 98.25,24.1035156 Z M106.365234,25 L104.976562,22.796875 L104.935547,22.796875 L103.546875,25 L102.246094,25 L104.267578,21.9355469 L102.210938,18.8125 L103.611328,18.8125 L104.958984,21.0097656 L105.011719,21.0097656 L106.400391,18.8125 L107.730469,18.8125 L105.65625,21.8535156 L107.736328,25 L106.365234,25 Z M109.318359,25 L109.318359,18.8125 L110.501953,18.8125 L110.501953,25 L109.318359,25 Z M109.101562,16.9433594 C109.101562,16.4863281 109.435547,16.1582031 109.904297,16.1582031 C110.390625,16.1582031 110.724609,16.4863281 110.724609,16.9433594 C110.724609,17.3945312 110.390625,17.7226562 109.904297,17.7226562 C109.441406,17.7226562 109.101562,17.3945312 109.101562,16.9433594 Z M112.658203,25 L112.658203,18.8125 L113.830078,18.8125 L113.830078,19.8144531 L113.888672,19.8144531 C114.029297,19.3691406 114.433594,18.71875 115.564453,18.71875 C116.501953,18.71875 117.082031,19.2167969 117.275391,19.8789062 L117.328125,19.8789062 C117.568359,19.2871094 118.160156,18.71875 119.208984,18.71875 C120.46875,18.71875 121.230469,19.4335938 121.230469,20.6640625 L121.230469,25 L120.046875,25 L120.046875,21.0332031 C120.046875,20.2480469 119.607422,19.7851562 118.822266,19.7851562 C118.089844,19.7851562 117.527344,20.3242188 117.527344,21.1503906 L117.527344,25 L116.367188,25 L116.367188,21.0683594 C116.367188,20.265625 115.875,19.7851562 115.119141,19.7851562 C114.380859,19.7851562 113.841797,20.3066406 113.841797,21.1386719 L113.841797,25 L112.658203,25 Z M128.34375,18.8125 L128.34375,25 L127.177734,25 L127.177734,23.96875 L127.113281,23.96875 C126.943359,24.4667969 126.369141,25.0996094 125.285156,25.0996094 C124.048828,25.0996094 123.181641,24.5078125 123.181641,23.0605469 L123.181641,18.8125 L124.365234,18.8125 L124.365234,22.7265625 C124.365234,23.7167969 124.957031,24.015625 125.654297,24.015625 C126.503906,24.015625 127.166016,23.4121094 127.166016,22.6328125 L127.166016,18.8125 L128.34375,18.8125 Z M130.365234,25 L130.365234,18.8125 L131.537109,18.8125 L131.537109,19.8144531 L131.595703,19.8144531 C131.736328,19.3691406 132.140625,18.71875 133.271484,18.71875 C134.208984,18.71875 134.789062,19.2167969 134.982422,19.8789062 L135.035156,19.8789062 C135.275391,19.2871094 135.867188,18.71875 136.916016,18.71875 C138.175781,18.71875 138.9375,19.4335938 138.9375,20.6640625 L138.9375,25 L137.753906,25 L137.753906,21.0332031 C137.753906,20.2480469 137.314453,19.7851562 136.529297,19.7851562 C135.796875,19.7851562 135.234375,20.3242188 135.234375,21.1503906 L135.234375,25 L134.074219,25 L134.074219,21.0683594 C134.074219,20.265625 133.582031,19.7851562 132.826172,19.7851562 C132.087891,19.7851562 131.548828,20.3066406 131.548828,21.1386719 L131.548828,25 L130.365234,25 Z M144.615234,19.2988281 L143.455078,19.2988281 L143.455078,19.2402344 C143.455078,18.0214844 144.328125,16.84375 146.044922,16.84375 C147.591797,16.84375 148.605469,17.7929688 148.605469,19.0527344 C148.605469,20.0957031 147.966797,20.7753906 147.228516,21.5898438 L145.183594,23.8398438 L145.183594,23.9101562 L148.746094,23.9101562 L148.746094,25 L143.490234,25 L143.490234,24.1914062 L146.478516,20.8808594 C146.917969,20.4003906 147.386719,19.8613281 147.386719,19.1640625 C147.386719,18.4082031 146.800781,17.9160156 146.015625,17.9160156 C145.130859,17.9160156 144.615234,18.53125 144.615234,19.234375 L144.615234,19.2988281 Z M153.175781,25 L153.175781,16.4042969 L154.359375,16.4042969 L154.359375,25 L153.175781,25 Z M156.556641,25 L156.556641,18.8125 L157.740234,18.8125 L157.740234,25 L156.556641,25 Z M156.339844,16.9433594 C156.339844,16.4863281 156.673828,16.1582031 157.142578,16.1582031 C157.628906,16.1582031 157.962891,16.4863281 157.962891,16.9433594 C157.962891,17.3945312 157.628906,17.7226562 157.142578,17.7226562 C156.679688,17.7226562 156.339844,17.3945312 156.339844,16.9433594 Z M159.896484,25 L159.896484,18.8125 L161.068359,18.8125 L161.068359,19.9199219 L161.126953,19.9199219 C161.285156,19.4394531 161.71875,18.71875 162.990234,18.71875 C164.238281,18.71875 165.082031,19.4042969 165.082031,20.8105469 L165.082031,25 L163.898438,25 L163.898438,21.1855469 C163.898438,20.2421875 163.400391,19.8027344 162.621094,19.8027344 C161.595703,19.8027344 161.080078,20.5527344 161.080078,21.5605469 L161.080078,25 L159.896484,25 Z M169.464844,25.1054687 C167.789062,25.1054687 166.775391,24.0683594 166.775391,22.328125 L166.775391,21.4785156 C166.775391,19.7324219 167.888672,18.7070312 169.382812,18.7070312 C170.90625,18.7070312 171.990234,19.7792969 171.990234,21.4785156 L171.990234,22.2109375 L167.947266,22.2109375 L167.947266,22.515625 C167.947266,23.4121094 168.486328,24.0800781 169.453125,24.0800781 C170.15625,24.0800781 170.630859,23.7519531 170.730469,23.3710937 L171.914062,23.3710937 C171.826172,24.0800781 171.076172,25.1054687 169.464844,25.1054687 Z M167.947266,21.3730469 L170.824219,21.3730469 L170.824219,21.2851562 C170.824219,20.3417969 170.255859,19.7148438 169.388672,19.7148438 C168.521484,19.7148438 167.947266,20.3417969 167.947266,21.2851562 L167.947266,21.3730469 Z M173.408203,20.6054687 C173.408203,19.2695312 174.527344,18.7070312 175.757812,18.7070312 C177.099609,18.7070312 178.007812,19.3867187 178.007812,20.4765625 L176.929687,20.4765625 C176.888672,20.0664062 176.507812,19.6445312 175.722656,19.6445312 C175.03125,19.6445312 174.544922,19.9550781 174.544922,20.4941406 C174.544922,21.1914062 175.40625,21.2792969 176.097656,21.4023437 C177.246094,21.6015625 178.171875,21.9648437 178.171875,23.1367187 C178.171875,24.3847656 177.181641,25.1054687 175.658203,25.1054687 C174.234375,25.1054687 173.291016,24.4433594 173.291016,23.3417969 L174.445312,23.3417969 C174.521484,23.8457031 174.890625,24.1738281 175.716797,24.1738281 C176.636719,24.1738281 177.017578,23.7753906 177.017578,23.2832031 C177.017578,22.6328125 176.320312,22.5273437 175.470703,22.3632812 C174.333984,22.1347656 173.408203,21.8242187 173.408203,20.6054687 Z" id="The-content-goes-her" fill-opacity="0.54"></path>
                            <path d="M236.900391,12.5117188 L236.900391,13.53125 C236.900391,15.1425781 237.638672,15.9101562 238.775391,15.9101562 C239.888672,15.9101562 240.462891,15.1894531 240.462891,14.3457031 L241.833984,14.3457031 L241.833984,14.46875 C241.833984,15.8105469 240.779297,17.1582031 238.740234,17.1582031 C236.707031,17.1582031 235.464844,15.8515625 235.464844,13.53125 L235.464844,12.5 C235.464844,10.2089844 236.71875,8.84375 238.746094,8.84375 C240.720703,8.84375 241.833984,10.1679688 241.833984,11.6328125 L241.833984,11.7558594 L240.462891,11.7558594 C240.462891,10.9179688 239.871094,10.0976562 238.757812,10.0976562 C237.644531,10.0976562 236.900391,10.9121094 236.900391,12.5117188 Z M246.492188,17 L245.074219,17 L245.074219,10.2382812 L242.759766,10.2382812 L242.759766,9.00195312 L248.806641,9.00195312 L248.806641,10.2382812 L246.492188,10.2382812 L246.492188,17 Z M250.066406,17 L248.636719,17 L251.367188,9.00195312 L252.978516,9.00195312 L255.703125,17 L254.185547,17 L253.505859,14.8730469 L250.751953,14.8730469 L250.066406,17 Z M252.164062,10.4609375 L252.099609,10.4609375 L251.056641,13.765625 L253.201172,13.765625 L252.164062,10.4609375 Z M268.757812,17 L267.339844,17 L267.339844,13.5195312 L263.783203,13.5195312 L263.783203,17 L262.365234,17 L262.365234,9.00195312 L263.783203,9.00195312 L263.783203,12.2832031 L267.339844,12.2832031 L267.339844,9.00195312 L268.757812,9.00195312 L268.757812,17 Z M273.234375,17.1054688 C271.529297,17.1054688 270.462891,16.0800781 270.462891,14.2871094 L270.462891,13.5019531 C270.462891,11.6972656 271.628906,10.6835938 273.158203,10.6835938 C274.728516,10.6835938 275.835938,11.7675781 275.835938,13.5019531 L275.835938,14.2226562 L271.828125,14.2226562 L271.828125,14.5214844 C271.828125,15.3710938 272.349609,15.9863281 273.228516,15.9863281 C273.890625,15.9863281 274.353516,15.6757812 274.435547,15.2890625 L275.771484,15.2890625 C275.701172,16.0332031 274.939453,17.1054688 273.234375,17.1054688 Z M271.828125,13.3261719 L274.488281,13.3261719 L274.488281,13.2558594 C274.488281,12.3710938 273.960938,11.7851562 273.164062,11.7851562 C272.361328,11.7851562 271.828125,12.3710938 271.828125,13.2558594 L271.828125,13.3261719 Z M277.511719,17 L277.511719,10.7949219 L278.894531,10.7949219 L278.894531,11.7617188 L278.964844,11.7617188 C279.099609,11.3457031 279.550781,10.7011719 280.570312,10.7011719 C280.757812,10.7011719 280.904297,10.71875 281.027344,10.7421875 L281.027344,11.9902344 C280.910156,11.9550781 280.675781,11.9433594 280.453125,11.9433594 C279.416016,11.9433594 278.923828,12.546875 278.923828,13.3789062 L278.923828,17 L277.511719,17 Z M284.753906,17.1054688 C283.048828,17.1054688 281.982422,16.0800781 281.982422,14.2871094 L281.982422,13.5019531 C281.982422,11.6972656 283.148438,10.6835938 284.677734,10.6835938 C286.248047,10.6835938 287.355469,11.7675781 287.355469,13.5019531 L287.355469,14.2226562 L283.347656,14.2226562 L283.347656,14.5214844 C283.347656,15.3710938 283.869141,15.9863281 284.748047,15.9863281 C285.410156,15.9863281 285.873047,15.6757812 285.955078,15.2890625 L287.291016,15.2890625 C287.220703,16.0332031 286.458984,17.1054688 284.753906,17.1054688 Z M283.347656,13.3261719 L286.007812,13.3261719 L286.007812,13.2558594 C286.007812,12.3710938 285.480469,11.7851562 284.683594,11.7851562 C283.880859,11.7851562 283.347656,12.3710938 283.347656,13.2558594 L283.347656,13.3261719 Z" id="CTA-Here" fill-opacity="0.7"></path>
                        </g>
                    </g>
                    <g id="TOP#34BA2F43-909F-48EB-AACD-F8448BFC154F#5D689357-CA97-4EF3-B73A-4BC97FD74381" transform="translate(135.000000, 0.000000)">
                        <rect id="ruler-start" fill="#50E3C2" x="0" y="0" width="5" height="1"></rect>
                        <rect id="ruler-end" fill="#50E3C2" x="0" y="23" width="5" height="1"></rect>
                        <rect id="ruler-line" fill="#50E3C2" x="2" y="0" width="1" height="24"></rect>
                        <polygon id="label-arrow" fill="#50E3C2" points="5 12 9 8 13 12 9 16"></polygon>
                        <rect id="label-box" fill="#50E3C2" x="9" y="1" width="35" height="22" rx="2"></rect>
                        <path d="M13.69,10.504 C13.6659999,10.0719978 13.7099994,9.67200184 13.822,9.304 C13.9340006,8.93599816 14.1079988,8.61800134 14.344,8.35 C14.5800012,8.08199866 14.8739982,7.87200076 15.226,7.72 C15.5780018,7.56799924 15.9779978,7.492 16.426,7.492 C16.7940018,7.492 17.1399984,7.54599946 17.464,7.654 C17.7880016,7.76200054 18.0699988,7.91799898 18.31,8.122 C18.5500012,8.32600102 18.7399993,8.57999848 18.88,8.884 C19.0200007,9.18800152 19.09,9.539998 19.09,9.94 C19.09,10.3160019 19.0320006,10.6479986 18.916,10.936 C18.7999994,11.2240014 18.646001,11.4819989 18.454,11.71 C18.261999,11.9380011 18.0420012,12.1439991 17.794,12.328 C17.5459988,12.5120009 17.2900013,12.6879992 17.026,12.856 C16.7619987,13.0160008 16.4980013,13.1739992 16.234,13.33 C15.9699987,13.4860008 15.7280011,13.6519991 15.508,13.828 C15.2879989,14.0040009 15.1000008,14.193999 14.944,14.398 C14.7879992,14.602001 14.6860002,14.8359987 14.638,15.1 L19.006,15.1 L19.006,16 L13.45,16 C13.4900002,15.4959975 13.5799993,15.0660018 13.72,14.71 C13.8600007,14.3539982 14.0379989,14.0440013 14.254,13.78 C14.4700011,13.5159987 14.7139986,13.284001 14.986,13.084 C15.2580014,12.883999 15.5419985,12.6960009 15.838,12.52 C16.1980018,12.2959989 16.5139986,12.0900009 16.786,11.902 C17.0580014,11.7139991 17.2839991,11.524001 17.464,11.332 C17.6440009,11.139999 17.7799995,10.9320011 17.872,10.708 C17.9640005,10.4839989 18.01,10.2240015 18.01,9.928 C18.01,9.69599884 17.9660004,9.48600094 17.878,9.298 C17.7899996,9.10999906 17.6720007,8.94800068 17.524,8.812 C17.3759993,8.67599932 17.202001,8.57200036 17.002,8.5 C16.801999,8.42799964 16.5900011,8.392 16.366,8.392 C16.0699985,8.392 15.8160011,8.45399938 15.604,8.578 C15.3919989,8.70200062 15.2180007,8.863999 15.082,9.064 C14.9459993,9.264001 14.8480003,9.48999874 14.788,9.742 C14.7279997,9.99400126 14.702,10.2479987 14.71,10.504 L13.69,10.504 Z M23.902,13.108 L23.902,8.944 L23.878,8.944 L21.046,13.108 L23.902,13.108 Z M24.862,13.108 L26.014,13.108 L26.014,14.008 L24.862,14.008 L24.862,16 L23.902,16 L23.902,14.008 L20.17,14.008 L20.17,13.024 L24.046,7.492 L24.862,7.492 L24.862,13.108 Z M27.31,9.796 L28.33,9.796 L28.33,10.636 L28.354,10.636 C28.5220008,10.2919983 28.7859982,10.0420008 29.146,9.886 C29.5060018,9.72999922 29.9019978,9.652 30.334,9.652 C30.8140024,9.652 31.2319982,9.73999912 31.588,9.916 C31.9440018,10.0920009 32.2399988,10.3299985 32.476,10.63 C32.7120012,10.9300015 32.8899994,11.275998 33.01,11.668 C33.1300006,12.060002 33.19,12.4759978 33.19,12.916 C33.19,13.3560022 33.1320006,13.771998 33.016,14.164 C32.8999994,14.556002 32.7240012,14.8979985 32.488,15.19 C32.2519988,15.4820015 31.9560018,15.7119992 31.6,15.88 C31.2439982,16.0480008 30.8300024,16.132 30.358,16.132 C30.2059992,16.132 30.0360009,16.1160002 29.848,16.084 C29.6599991,16.0519998 29.4740009,16.0000004 29.29,15.928 C29.1059991,15.8559996 28.9320008,15.7580006 28.768,15.634 C28.6039992,15.5099994 28.4660006,15.3560009 28.354,15.172 L28.33,15.172 L28.33,18.364 L27.31,18.364 L27.31,9.796 Z M32.11,12.844 C32.11,12.5559986 32.0720004,12.2740014 31.996,11.998 C31.9199996,11.7219986 31.8040008,11.4760011 31.648,11.26 C31.4919992,11.0439989 31.2920012,10.8720006 31.048,10.744 C30.8039988,10.6159994 30.5180016,10.552 30.19,10.552 C29.8459983,10.552 29.5540012,10.6199993 29.314,10.756 C29.0739988,10.8920007 28.8780008,11.0699989 28.726,11.29 C28.5739992,11.5100011 28.4640003,11.7599986 28.396,12.04 C28.3279997,12.3200014 28.294,12.6039986 28.294,12.892 C28.294,13.1960015 28.3299996,13.4899986 28.402,13.774 C28.4740004,14.0580014 28.5879992,14.3079989 28.744,14.524 C28.9000008,14.7400011 29.1019988,14.9139993 29.35,15.046 C29.5980012,15.1780007 29.8979982,15.244 30.25,15.244 C30.6020018,15.244 30.8959988,15.1760007 31.132,15.04 C31.3680012,14.9039993 31.5579993,14.7240011 31.702,14.5 C31.8460007,14.2759989 31.9499997,14.0200014 32.014,13.732 C32.0780003,13.4439986 32.11,13.1480015 32.11,12.844 Z M36.058,12.736 L33.898,9.796 L35.206,9.796 L36.694,11.968 L38.242,9.796 L39.466,9.796 L37.33,12.652 L39.73,16 L38.422,16 L36.694,13.432 L34.966,16 L33.73,16 L36.058,12.736 Z" id="label-text" fill="#FFFFFF"></path>
                    </g>
                    <g id="BOTTOM#34BA2F43-909F-48EB-AACD-F8448BFC154F#5D689357-CA97-4EF3-B73A-4BC97FD74381" transform="translate(135.000000, 56.000000)">
                        <rect id="ruler-start" fill="#50E3C2" x="0" y="0" width="5" height="1"></rect>
                        <rect id="ruler-end" fill="#50E3C2" x="0" y="23" width="5" height="1"></rect>
                        <rect id="ruler-line" fill="#50E3C2" x="2" y="0" width="1" height="24"></rect>
                        <polygon id="label-arrow" fill="#50E3C2" points="5 12 9 8 13 12 9 16"></polygon>
                        <rect id="label-box" fill="#50E3C2" x="9" y="1" width="35" height="22" rx="2"></rect>
                        <path d="M13.69,10.504 C13.6659999,10.0719978 13.7099994,9.67200184 13.822,9.304 C13.9340006,8.93599816 14.1079988,8.61800134 14.344,8.35 C14.5800012,8.08199866 14.8739982,7.87200076 15.226,7.72 C15.5780018,7.56799924 15.9779978,7.492 16.426,7.492 C16.7940018,7.492 17.1399984,7.54599946 17.464,7.654 C17.7880016,7.76200054 18.0699988,7.91799898 18.31,8.122 C18.5500012,8.32600102 18.7399993,8.57999848 18.88,8.884 C19.0200007,9.18800152 19.09,9.539998 19.09,9.94 C19.09,10.3160019 19.0320006,10.6479986 18.916,10.936 C18.7999994,11.2240014 18.646001,11.4819989 18.454,11.71 C18.261999,11.9380011 18.0420012,12.1439991 17.794,12.328 C17.5459988,12.5120009 17.2900013,12.6879992 17.026,12.856 C16.7619987,13.0160008 16.4980013,13.1739992 16.234,13.33 C15.9699987,13.4860008 15.7280011,13.6519991 15.508,13.828 C15.2879989,14.0040009 15.1000008,14.193999 14.944,14.398 C14.7879992,14.602001 14.6860002,14.8359987 14.638,15.1 L19.006,15.1 L19.006,16 L13.45,16 C13.4900002,15.4959975 13.5799993,15.0660018 13.72,14.71 C13.8600007,14.3539982 14.0379989,14.0440013 14.254,13.78 C14.4700011,13.5159987 14.7139986,13.284001 14.986,13.084 C15.2580014,12.883999 15.5419985,12.6960009 15.838,12.52 C16.1980018,12.2959989 16.5139986,12.0900009 16.786,11.902 C17.0580014,11.7139991 17.2839991,11.524001 17.464,11.332 C17.6440009,11.139999 17.7799995,10.9320011 17.872,10.708 C17.9640005,10.4839989 18.01,10.2240015 18.01,9.928 C18.01,9.69599884 17.9660004,9.48600094 17.878,9.298 C17.7899996,9.10999906 17.6720007,8.94800068 17.524,8.812 C17.3759993,8.67599932 17.202001,8.57200036 17.002,8.5 C16.801999,8.42799964 16.5900011,8.392 16.366,8.392 C16.0699985,8.392 15.8160011,8.45399938 15.604,8.578 C15.3919989,8.70200062 15.2180007,8.863999 15.082,9.064 C14.9459993,9.264001 14.8480003,9.48999874 14.788,9.742 C14.7279997,9.99400126 14.702,10.2479987 14.71,10.504 L13.69,10.504 Z M23.902,13.108 L23.902,8.944 L23.878,8.944 L21.046,13.108 L23.902,13.108 Z M24.862,13.108 L26.014,13.108 L26.014,14.008 L24.862,14.008 L24.862,16 L23.902,16 L23.902,14.008 L20.17,14.008 L20.17,13.024 L24.046,7.492 L24.862,7.492 L24.862,13.108 Z M27.31,9.796 L28.33,9.796 L28.33,10.636 L28.354,10.636 C28.5220008,10.2919983 28.7859982,10.0420008 29.146,9.886 C29.5060018,9.72999922 29.9019978,9.652 30.334,9.652 C30.8140024,9.652 31.2319982,9.73999912 31.588,9.916 C31.9440018,10.0920009 32.2399988,10.3299985 32.476,10.63 C32.7120012,10.9300015 32.8899994,11.275998 33.01,11.668 C33.1300006,12.060002 33.19,12.4759978 33.19,12.916 C33.19,13.3560022 33.1320006,13.771998 33.016,14.164 C32.8999994,14.556002 32.7240012,14.8979985 32.488,15.19 C32.2519988,15.4820015 31.9560018,15.7119992 31.6,15.88 C31.2439982,16.0480008 30.8300024,16.132 30.358,16.132 C30.2059992,16.132 30.0360009,16.1160002 29.848,16.084 C29.6599991,16.0519998 29.4740009,16.0000004 29.29,15.928 C29.1059991,15.8559996 28.9320008,15.7580006 28.768,15.634 C28.6039992,15.5099994 28.4660006,15.3560009 28.354,15.172 L28.33,15.172 L28.33,18.364 L27.31,18.364 L27.31,9.796 Z M32.11,12.844 C32.11,12.5559986 32.0720004,12.2740014 31.996,11.998 C31.9199996,11.7219986 31.8040008,11.4760011 31.648,11.26 C31.4919992,11.0439989 31.2920012,10.8720006 31.048,10.744 C30.8039988,10.6159994 30.5180016,10.552 30.19,10.552 C29.8459983,10.552 29.5540012,10.6199993 29.314,10.756 C29.0739988,10.8920007 28.8780008,11.0699989 28.726,11.29 C28.5739992,11.5100011 28.4640003,11.7599986 28.396,12.04 C28.3279997,12.3200014 28.294,12.6039986 28.294,12.892 C28.294,13.1960015 28.3299996,13.4899986 28.402,13.774 C28.4740004,14.0580014 28.5879992,14.3079989 28.744,14.524 C28.9000008,14.7400011 29.1019988,14.9139993 29.35,15.046 C29.5980012,15.1780007 29.8979982,15.244 30.25,15.244 C30.6020018,15.244 30.8959988,15.1760007 31.132,15.04 C31.3680012,14.9039993 31.5579993,14.7240011 31.702,14.5 C31.8460007,14.2759989 31.9499997,14.0200014 32.014,13.732 C32.0780003,13.4439986 32.11,13.1480015 32.11,12.844 Z M36.058,12.736 L33.898,9.796 L35.206,9.796 L36.694,11.968 L38.242,9.796 L39.466,9.796 L37.33,12.652 L39.73,16 L38.422,16 L36.694,13.432 L34.966,16 L33.73,16 L36.058,12.736 Z" id="label-text" fill="#FFFFFF"></path>
                    </g>
                    <g id="LEFT#34BA2F43-909F-48EB-AACD-F8448BFC154F#5D689357-CA97-4EF3-B73A-4BC97FD74381" transform="translate(0.000000, 11.000000)">
                        <rect id="ruler-start" fill="#50E3C2" x="10" y="26" width="1" height="5"></rect>
                        <rect id="ruler-end" fill="#50E3C2" x="25" y="26" width="1" height="5"></rect>
                        <rect id="ruler-line" fill="#50E3C2" x="10" y="28" width="16" height="1"></rect>
                        <polygon id="label-arrow" fill="#50E3C2" points="14 22 18 18 22 22 18 26"></polygon>
                        <rect id="label-box" fill="#50E3C2" x="0" y="0" width="35" height="22" rx="2"></rect>
                        <path d="M8.434,15 L7.414,15 L7.414,8.904 L5.206,8.904 L5.206,8.088 C5.49400144,8.088 5.77399864,8.06600022 6.046,8.022 C6.31800136,7.97799978 6.5639989,7.8960006 6.784,7.776 C7.0040011,7.6559994 7.18999924,7.49200104 7.342,7.284 C7.49400076,7.07599896 7.59799972,6.8120016 7.654,6.492 L8.434,6.492 L8.434,15 Z M15.802,8.664 C15.7539998,8.27999808 15.6060012,7.97200116 15.358,7.74 C15.1099988,7.50799884 14.782002,7.392 14.374,7.392 C13.9419978,7.392 13.5940013,7.49799894 13.33,7.71 C13.0659987,7.92200106 12.8600007,8.18999838 12.712,8.514 C12.5639993,8.83800162 12.4620003,9.18799812 12.406,9.564 C12.3499997,9.94000188 12.318,10.2919984 12.31,10.62 L12.334,10.644 C12.5740012,10.251998 12.8719982,9.96800088 13.228,9.792 C13.5840018,9.61599912 13.9939977,9.528 14.458,9.528 C14.866002,9.528 15.2319984,9.5979993 15.556,9.738 C15.8800016,9.8780007 16.1519989,10.0719988 16.372,10.32 C16.5920011,10.5680012 16.7619994,10.8599983 16.882,11.196 C17.0020006,11.5320017 17.062,11.895998 17.062,12.288 C17.062,12.6000016 17.0140005,12.9239983 16.918,13.26 C16.8219995,13.5960017 16.6640011,13.9019986 16.444,14.178 C16.2239989,14.4540014 15.9320018,14.6819991 15.568,14.862 C15.2039982,15.0420009 14.7540027,15.132 14.218,15.132 C13.5859968,15.132 13.0780019,15.0040013 12.694,14.748 C12.3099981,14.4919987 12.014001,14.164002 11.806,13.764 C11.597999,13.363998 11.4600003,12.9240024 11.392,12.444 C11.3239997,11.9639976 11.29,11.5000022 11.29,11.052 C11.29,10.4679971 11.3399995,9.90200274 11.44,9.354 C11.5400005,8.80599726 11.7099988,8.32000212 11.95,7.896 C12.1900012,7.47199788 12.509998,7.13200128 12.91,6.876 C13.310002,6.61999872 13.813997,6.492 14.422,6.492 C15.1260035,6.492 15.6859979,6.67799814 16.102,7.05 C16.5180021,7.42200186 16.7579997,7.95999648 16.822,8.664 L15.802,8.664 Z M14.266,10.428 C13.9779986,10.428 13.7260011,10.4779995 13.51,10.578 C13.2939989,10.6780005 13.1100008,10.8139991 12.958,10.986 C12.8059992,11.1580009 12.6920004,11.3619988 12.616,11.598 C12.5399996,11.8340012 12.502,12.0839987 12.502,12.348 C12.502,12.6120013 12.5419996,12.8599988 12.622,13.092 C12.7020004,13.3240012 12.8159993,13.5239992 12.964,13.692 C13.1120007,13.8600008 13.2959989,13.9939995 13.516,14.094 C13.7360011,14.1940005 13.9859986,14.244 14.266,14.244 C14.5460014,14.244 14.7919989,14.1940005 15.004,14.094 C15.2160011,13.9939995 15.3939993,13.8560009 15.538,13.68 C15.6820007,13.5039991 15.7919996,13.3020011 15.868,13.074 C15.9440004,12.8459989 15.982,12.6080012 15.982,12.36 C15.982,12.0959987 15.9480003,11.8460012 15.88,11.61 C15.8119997,11.3739988 15.7060007,11.1700009 15.562,10.998 C15.4179993,10.8259991 15.2380011,10.6880005 15.022,10.584 C14.8059989,10.4799995 14.5540014,10.428 14.266,10.428 Z M18.31,8.796 L19.33,8.796 L19.33,9.636 L19.354,9.636 C19.5220008,9.29199828 19.7859982,9.04200078 20.146,8.886 C20.5060018,8.72999922 20.9019978,8.652 21.334,8.652 C21.8140024,8.652 22.2319982,8.73999912 22.588,8.916 C22.9440018,9.09200088 23.2399988,9.3299985 23.476,9.63 C23.7120012,9.9300015 23.8899994,10.275998 24.01,10.668 C24.1300006,11.060002 24.19,11.4759978 24.19,11.916 C24.19,12.3560022 24.1320006,12.771998 24.016,13.164 C23.8999994,13.556002 23.7240012,13.8979985 23.488,14.19 C23.2519988,14.4820015 22.9560018,14.7119992 22.6,14.88 C22.2439982,15.0480008 21.8300024,15.132 21.358,15.132 C21.2059992,15.132 21.0360009,15.1160002 20.848,15.084 C20.6599991,15.0519998 20.4740009,15.0000004 20.29,14.928 C20.1059991,14.8559996 19.9320008,14.7580006 19.768,14.634 C19.6039992,14.5099994 19.4660006,14.3560009 19.354,14.172 L19.33,14.172 L19.33,17.364 L18.31,17.364 L18.31,8.796 Z M23.11,11.844 C23.11,11.5559986 23.0720004,11.2740014 22.996,10.998 C22.9199996,10.7219986 22.8040008,10.4760011 22.648,10.26 C22.4919992,10.0439989 22.2920012,9.87200064 22.048,9.744 C21.8039988,9.61599936 21.5180016,9.552 21.19,9.552 C20.8459983,9.552 20.5540012,9.61999932 20.314,9.756 C20.0739988,9.89200068 19.8780008,10.0699989 19.726,10.29 C19.5739992,10.5100011 19.4640003,10.7599986 19.396,11.04 C19.3279997,11.3200014 19.294,11.6039986 19.294,11.892 C19.294,12.1960015 19.3299996,12.4899986 19.402,12.774 C19.4740004,13.0580014 19.5879992,13.3079989 19.744,13.524 C19.9000008,13.7400011 20.1019988,13.9139993 20.35,14.046 C20.5980012,14.1780007 20.8979982,14.244 21.25,14.244 C21.6020018,14.244 21.8959988,14.1760007 22.132,14.04 C22.3680012,13.9039993 22.5579993,13.7240011 22.702,13.5 C22.8460007,13.2759989 22.9499997,13.0200014 23.014,12.732 C23.0780003,12.4439986 23.11,12.1480015 23.11,11.844 Z M27.058,11.736 L24.898,8.796 L26.206,8.796 L27.694,10.968 L29.242,8.796 L30.466,8.796 L28.33,11.652 L30.73,15 L29.422,15 L27.694,12.432 L25.966,15 L24.73,15 L27.058,11.736 Z" id="label-text" fill="#FFFFFF"></path>
                    </g>
                    <g id="HORIZONTAL#E4546A3D-5A9E-436C-A86A-69A1178BF450#34BA2F43-909F-48EB-AACD-F8448BFC154F" transform="translate(238.000000, 11.000000)">
                        <rect id="ruler-start" fill="#50E3C2" x="11" y="26" width="1" height="5"></rect>
                        <rect id="ruler-end" fill="#50E3C2" x="18" y="26" width="1" height="5"></rect>
                        <rect id="ruler-line" fill="#50E3C2" x="11" y="28" width="8" height="1"></rect>
                        <polygon id="label-arrow" fill="#50E3C2" points="11 22 15 18 19 22 15 26"></polygon>
                        <rect id="label-box" fill="#50E3C2" x="0" y="0" width="29" height="22" rx="2"></rect>
                        <path d="M6.358,8.7 C6.358,8.93200116 6.3979996,9.13399914 6.478,9.306 C6.5580004,9.47800086 6.66599932,9.61999944 6.802,9.732 C6.93800068,9.84400056 7.09799908,9.92799972 7.282,9.984 C7.46600092,10.0400003 7.66199896,10.068 7.87,10.068 C8.27800204,10.068 8.61399868,9.9480012 8.878,9.708 C9.14200132,9.4679988 9.274,9.13200216 9.274,8.7 C9.274,8.26799784 9.14000134,7.9420011 8.872,7.722 C8.60399866,7.5019989 8.26200208,7.392 7.846,7.392 C7.645999,7.392 7.45400092,7.41999972 7.27,7.476 C7.08599908,7.53200028 6.92800066,7.61599944 6.796,7.728 C6.66399934,7.84000056 6.5580004,7.9759992 6.478,8.136 C6.3979996,8.2960008 6.358,8.48399892 6.358,8.7 Z M5.278,8.664 C5.278,8.31199824 5.34599932,8.00200134 5.482,7.734 C5.61800068,7.46599866 5.80199884,7.24000092 6.034,7.056 C6.26600116,6.87199908 6.5319985,6.73200048 6.832,6.636 C7.1320015,6.53999952 7.44599836,6.492 7.774,6.492 C8.23800232,6.492 8.63399836,6.55399938 8.962,6.678 C9.29000164,6.80200062 9.55599898,6.96599898 9.76,7.17 C9.96400102,7.37400102 10.1139995,7.6059987 10.21,7.866 C10.3060005,8.1260013 10.354,8.39199864 10.354,8.664 C10.354,9.04800192 10.2480011,9.39799842 10.036,9.714 C9.82399894,10.0300016 9.5380018,10.2679992 9.178,10.428 C9.69000256,10.5880008 10.0699988,10.8499982 10.318,11.214 C10.5660012,11.5780018 10.69,12.0239974 10.69,12.552 C10.69,12.9680021 10.6160007,13.3359984 10.468,13.656 C10.3199993,13.9760016 10.1200013,14.2459989 9.868,14.466 C9.61599874,14.6860011 9.31800172,14.8519994 8.974,14.964 C8.62999828,15.0760006 8.26200196,15.132 7.87,15.132 C7.46199796,15.132 7.08200176,15.0800005 6.73,14.976 C6.37799824,14.8719995 6.0720013,14.7120011 5.812,14.496 C5.5519987,14.2799989 5.34800074,14.0100016 5.2,13.686 C5.05199926,13.3619984 4.978,12.9840022 4.978,12.552 C4.978,12.0479975 5.10599872,11.6100019 5.362,11.238 C5.61800128,10.8659981 5.9859976,10.5960008 6.466,10.428 C6.1059982,10.2839993 5.81800108,10.0500016 5.602,9.726 C5.38599892,9.40199838 5.278,9.04800192 5.278,8.664 Z M6.058,12.6 C6.058,13.1120026 6.2279983,13.5139985 6.568,13.806 C6.9080017,14.0980015 7.34199736,14.244 7.87,14.244 C8.12600128,14.244 8.35999894,14.2020004 8.572,14.118 C8.78400106,14.0339996 8.96799922,13.9180007 9.124,13.77 C9.28000078,13.6219993 9.39999958,13.448001 9.484,13.248 C9.56800042,13.047999 9.61,12.8280012 9.61,12.588 C9.61,12.3559988 9.56400046,12.142001 9.472,11.946 C9.37999954,11.749999 9.2540008,11.5800007 9.094,11.436 C8.9339992,11.2919993 8.74800106,11.1780004 8.536,11.094 C8.32399894,11.0099996 8.0980012,10.968 7.858,10.968 C7.60999876,10.968 7.3760011,11.0059996 7.156,11.082 C6.9359989,11.1580004 6.74400082,11.2679993 6.58,11.412 C6.41599918,11.5560007 6.28800046,11.727999 6.196,11.928 C6.10399954,12.128001 6.058,12.3519988 6.058,12.6 Z M11.974,8.796 L12.994,8.796 L12.994,9.636 L13.018,9.636 C13.1860008,9.29199828 13.4499982,9.04200078 13.81,8.886 C14.1700018,8.72999922 14.5659978,8.652 14.998,8.652 C15.4780024,8.652 15.8959982,8.73999912 16.252,8.916 C16.6080018,9.09200088 16.9039988,9.3299985 17.14,9.63 C17.3760012,9.9300015 17.5539994,10.275998 17.674,10.668 C17.7940006,11.060002 17.854,11.4759978 17.854,11.916 C17.854,12.3560022 17.7960006,12.771998 17.68,13.164 C17.5639994,13.556002 17.3880012,13.8979985 17.152,14.19 C16.9159988,14.4820015 16.6200018,14.7119992 16.264,14.88 C15.9079982,15.0480008 15.4940024,15.132 15.022,15.132 C14.8699992,15.132 14.7000009,15.1160002 14.512,15.084 C14.3239991,15.0519998 14.1380009,15.0000004 13.954,14.928 C13.7699991,14.8559996 13.5960008,14.7580006 13.432,14.634 C13.2679992,14.5099994 13.1300006,14.3560009 13.018,14.172 L12.994,14.172 L12.994,17.364 L11.974,17.364 L11.974,8.796 Z M16.774,11.844 C16.774,11.5559986 16.7360004,11.2740014 16.66,10.998 C16.5839996,10.7219986 16.4680008,10.4760011 16.312,10.26 C16.1559992,10.0439989 15.9560012,9.87200064 15.712,9.744 C15.4679988,9.61599936 15.1820016,9.552 14.854,9.552 C14.5099983,9.552 14.2180012,9.61999932 13.978,9.756 C13.7379988,9.89200068 13.5420008,10.0699989 13.39,10.29 C13.2379992,10.5100011 13.1280003,10.7599986 13.06,11.04 C12.9919997,11.3200014 12.958,11.6039986 12.958,11.892 C12.958,12.1960015 12.9939996,12.4899986 13.066,12.774 C13.1380004,13.0580014 13.2519992,13.3079989 13.408,13.524 C13.5640008,13.7400011 13.7659988,13.9139993 14.014,14.046 C14.2620012,14.1780007 14.5619982,14.244 14.914,14.244 C15.2660018,14.244 15.5599988,14.1760007 15.796,14.04 C16.0320012,13.9039993 16.2219993,13.7240011 16.366,13.5 C16.5100007,13.2759989 16.6139997,13.0200014 16.678,12.732 C16.7420003,12.4439986 16.774,12.1480015 16.774,11.844 Z M20.722,11.736 L18.562,8.796 L19.87,8.796 L21.358,10.968 L22.906,8.796 L24.13,8.796 L21.994,11.652 L24.394,15 L23.086,15 L21.358,12.432 L19.63,15 L18.394,15 L20.722,11.736 Z" id="label-text" fill="#FFFFFF"></path>
                    </g>
                    <g id="#spacing-right-E4546A3D-5A9E-436C-A86A-69A1178BF450-5D689357-CA97-4EF3-B73A-4BC97FD74381" transform="translate(304.740492, 11.000000)">
                        <rect id="line" fill="#50E3C2" x="9" y="29" width="16" height="1"></rect>
                        <rect id="start" fill="#50E3C2" x="9" y="27" width="1" height="5"></rect>
                        <rect id="end" fill="#50E3C2" x="24" y="27" width="1" height="5"></rect>
                        <rect id="box" fill="#50E3C2" x="0" y="0" width="35" height="22" rx="2"></rect>
                        <polygon id="arrow" fill="#50E3C2" points="14 22 18 18 22 22 18 26"></polygon>
                        <path d="M8.434,15 L7.414,15 L7.414,8.904 L5.206,8.904 L5.206,8.088 C5.49400144,8.088 5.77399864,8.06600022 6.046,8.022 C6.31800136,7.97799978 6.5639989,7.8960006 6.784,7.776 C7.0040011,7.6559994 7.18999924,7.49200104 7.342,7.284 C7.49400076,7.07599896 7.59799972,6.8120016 7.654,6.492 L8.434,6.492 L8.434,15 Z M15.802,8.664 C15.7539998,8.27999808 15.6060012,7.97200116 15.358,7.74 C15.1099988,7.50799884 14.782002,7.392 14.374,7.392 C13.9419978,7.392 13.5940013,7.49799894 13.33,7.71 C13.0659987,7.92200106 12.8600007,8.18999838 12.712,8.514 C12.5639993,8.83800162 12.4620003,9.18799812 12.406,9.564 C12.3499997,9.94000188 12.318,10.2919984 12.31,10.62 L12.334,10.644 C12.5740012,10.251998 12.8719982,9.96800088 13.228,9.792 C13.5840018,9.61599912 13.9939977,9.528 14.458,9.528 C14.866002,9.528 15.2319984,9.5979993 15.556,9.738 C15.8800016,9.8780007 16.1519989,10.0719988 16.372,10.32 C16.5920011,10.5680012 16.7619994,10.8599983 16.882,11.196 C17.0020006,11.5320017 17.062,11.895998 17.062,12.288 C17.062,12.6000016 17.0140005,12.9239983 16.918,13.26 C16.8219995,13.5960017 16.6640011,13.9019986 16.444,14.178 C16.2239989,14.4540014 15.9320018,14.6819991 15.568,14.862 C15.2039982,15.0420009 14.7540027,15.132 14.218,15.132 C13.5859968,15.132 13.0780019,15.0040013 12.694,14.748 C12.3099981,14.4919987 12.014001,14.164002 11.806,13.764 C11.597999,13.363998 11.4600003,12.9240024 11.392,12.444 C11.3239997,11.9639976 11.29,11.5000022 11.29,11.052 C11.29,10.4679971 11.3399995,9.90200274 11.44,9.354 C11.5400005,8.80599726 11.7099988,8.32000212 11.95,7.896 C12.1900012,7.47199788 12.509998,7.13200128 12.91,6.876 C13.310002,6.61999872 13.813997,6.492 14.422,6.492 C15.1260035,6.492 15.6859979,6.67799814 16.102,7.05 C16.5180021,7.42200186 16.7579997,7.95999648 16.822,8.664 L15.802,8.664 Z M14.266,10.428 C13.9779986,10.428 13.7260011,10.4779995 13.51,10.578 C13.2939989,10.6780005 13.1100008,10.8139991 12.958,10.986 C12.8059992,11.1580009 12.6920004,11.3619988 12.616,11.598 C12.5399996,11.8340012 12.502,12.0839987 12.502,12.348 C12.502,12.6120013 12.5419996,12.8599988 12.622,13.092 C12.7020004,13.3240012 12.8159993,13.5239992 12.964,13.692 C13.1120007,13.8600008 13.2959989,13.9939995 13.516,14.094 C13.7360011,14.1940005 13.9859986,14.244 14.266,14.244 C14.5460014,14.244 14.7919989,14.1940005 15.004,14.094 C15.2160011,13.9939995 15.3939993,13.8560009 15.538,13.68 C15.6820007,13.5039991 15.7919996,13.3020011 15.868,13.074 C15.9440004,12.8459989 15.982,12.6080012 15.982,12.36 C15.982,12.0959987 15.9480003,11.8460012 15.88,11.61 C15.8119997,11.3739988 15.7060007,11.1700009 15.562,10.998 C15.4179993,10.8259991 15.2380011,10.6880005 15.022,10.584 C14.8059989,10.4799995 14.5540014,10.428 14.266,10.428 Z M18.31,8.796 L19.33,8.796 L19.33,9.636 L19.354,9.636 C19.5220008,9.29199828 19.7859982,9.04200078 20.146,8.886 C20.5060018,8.72999922 20.9019978,8.652 21.334,8.652 C21.8140024,8.652 22.2319982,8.73999912 22.588,8.916 C22.9440018,9.09200088 23.2399988,9.3299985 23.476,9.63 C23.7120012,9.9300015 23.8899994,10.275998 24.01,10.668 C24.1300006,11.060002 24.19,11.4759978 24.19,11.916 C24.19,12.3560022 24.1320006,12.771998 24.016,13.164 C23.8999994,13.556002 23.7240012,13.8979985 23.488,14.19 C23.2519988,14.4820015 22.9560018,14.7119992 22.6,14.88 C22.2439982,15.0480008 21.8300024,15.132 21.358,15.132 C21.2059992,15.132 21.0360009,15.1160002 20.848,15.084 C20.6599991,15.0519998 20.4740009,15.0000004 20.29,14.928 C20.1059991,14.8559996 19.9320008,14.7580006 19.768,14.634 C19.6039992,14.5099994 19.4660006,14.3560009 19.354,14.172 L19.33,14.172 L19.33,17.364 L18.31,17.364 L18.31,8.796 Z M23.11,11.844 C23.11,11.5559986 23.0720004,11.2740014 22.996,10.998 C22.9199996,10.7219986 22.8040008,10.4760011 22.648,10.26 C22.4919992,10.0439989 22.2920012,9.87200064 22.048,9.744 C21.8039988,9.61599936 21.5180016,9.552 21.19,9.552 C20.8459983,9.552 20.5540012,9.61999932 20.314,9.756 C20.0739988,9.89200068 19.8780008,10.0699989 19.726,10.29 C19.5739992,10.5100011 19.4640003,10.7599986 19.396,11.04 C19.3279997,11.3200014 19.294,11.6039986 19.294,11.892 C19.294,12.1960015 19.3299996,12.4899986 19.402,12.774 C19.4740004,13.0580014 19.5879992,13.3079989 19.744,13.524 C19.9000008,13.7400011 20.1019988,13.9139993 20.35,14.046 C20.5980012,14.1780007 20.8979982,14.244 21.25,14.244 C21.6020018,14.244 21.8959988,14.1760007 22.132,14.04 C22.3680012,13.9039993 22.5579993,13.7240011 22.702,13.5 C22.8460007,13.2759989 22.9499997,13.0200014 23.014,12.732 C23.0780003,12.4439986 23.11,12.1480015 23.11,11.844 Z M27.058,11.736 L24.898,8.796 L26.206,8.796 L27.694,10.968 L29.242,8.796 L30.466,8.796 L28.33,11.652 L30.73,15 L29.422,15 L27.694,12.432 L25.966,15 L24.73,15 L27.058,11.736 Z" id="Text" fill="#FFFFFF"></path>
                    </g>
                    <g id="#height-right-5D689357-CA97-4EF3-B73A-4BC97FD74381" transform="translate(333.500000, 0.482578)">
                        <rect id="line" fill="#FF5500" x="17" y="0" width="1" height="80"></rect>
                        <rect id="start" fill="#FF5500" x="15" y="0" width="5" height="1"></rect>
                        <rect id="end" fill="#FF5500" x="15" y="79" width="5" height="1"></rect>
                        <rect id="box" fill="#FF5500" x="0" y="45.6940625" width="35" height="22" rx="2"></rect>
                        <path d="M6.022,54.3940625 C6.022,54.6260636 6.0619996,54.8280616 6.142,55.0000625 C6.2220004,55.1720633 6.32999932,55.3140619 6.466,55.4260625 C6.60200068,55.538063 6.76199908,55.6220622 6.946,55.6780625 C7.13000092,55.7340627 7.32599896,55.7620625 7.534,55.7620625 C7.94200204,55.7620625 8.27799868,55.6420637 8.542,55.4020625 C8.80600132,55.1620613 8.938,54.8260646 8.938,54.3940625 C8.938,53.9620603 8.80400134,53.6360636 8.536,53.4160625 C8.26799866,53.1960614 7.92600208,53.0860625 7.51,53.0860625 C7.309999,53.0860625 7.11800092,53.1140622 6.934,53.1700625 C6.74999908,53.2260627 6.59200066,53.3100619 6.46,53.4220625 C6.32799934,53.534063 6.2220004,53.6700617 6.142,53.8300625 C6.0619996,53.9900633 6.022,54.1780614 6.022,54.3940625 Z M4.942,54.3580625 C4.942,54.0060607 5.00999932,53.6960638 5.146,53.4280625 C5.28200068,53.1600611 5.46599884,52.9340634 5.698,52.7500625 C5.93000116,52.5660615 6.1959985,52.4260629 6.496,52.3300625 C6.7960015,52.234062 7.10999836,52.1860625 7.438,52.1860625 C7.90200232,52.1860625 8.29799836,52.2480618 8.626,52.3720625 C8.95400164,52.4960631 9.21999898,52.6600614 9.424,52.8640625 C9.62800102,53.0680635 9.77799952,53.3000612 9.874,53.5600625 C9.97000048,53.8200638 10.018,54.0860611 10.018,54.3580625 C10.018,54.7420644 9.91200106,55.0920609 9.7,55.4080625 C9.48799894,55.724064 9.2020018,55.9620617 8.842,56.1220625 C9.35400256,56.2820633 9.73399876,56.5440606 9.982,56.9080625 C10.2300012,57.2720643 10.354,57.7180598 10.354,58.2460625 C10.354,58.6620645 10.2800007,59.0300609 10.132,59.3500625 C9.98399926,59.6700641 9.78400126,59.9400614 9.532,60.1600625 C9.27999874,60.3800636 8.98200172,60.5460619 8.638,60.6580625 C8.29399828,60.770063 7.92600196,60.8260625 7.534,60.8260625 C7.12599796,60.8260625 6.74600176,60.774063 6.394,60.6700625 C6.04199824,60.5660619 5.7360013,60.4060635 5.476,60.1900625 C5.2159987,59.9740614 5.01200074,59.7040641 4.864,59.3800625 C4.71599926,59.0560608 4.642,58.6780646 4.642,58.2460625 C4.642,57.7420599 4.76999872,57.3040643 5.026,56.9320625 C5.28200128,56.5600606 5.6499976,56.2900633 6.13,56.1220625 C5.7699982,55.9780617 5.48200108,55.7440641 5.266,55.4200625 C5.04999892,55.0960608 4.942,54.7420644 4.942,54.3580625 Z M5.722,58.2940625 C5.722,58.806065 5.8919983,59.208061 6.232,59.5000625 C6.5720017,59.7920639 7.00599736,59.9380625 7.534,59.9380625 C7.79000128,59.9380625 8.02399894,59.8960629 8.236,59.8120625 C8.44800106,59.728062 8.63199922,59.6120632 8.788,59.4640625 C8.94400078,59.3160617 9.06399958,59.1420635 9.148,58.9420625 C9.23200042,58.7420615 9.274,58.5220637 9.274,58.2820625 C9.274,58.0500613 9.22800046,57.8360634 9.136,57.6400625 C9.04399954,57.4440615 8.9180008,57.2740632 8.758,57.1300625 C8.5979992,56.9860617 8.41200106,56.8720629 8.2,56.7880625 C7.98799894,56.704062 7.7620012,56.6620625 7.522,56.6620625 C7.27399876,56.6620625 7.0400011,56.7000621 6.82,56.7760625 C6.5999989,56.8520628 6.40800082,56.9620617 6.244,57.1060625 C6.07999918,57.2500632 5.95200046,57.4220615 5.86,57.6220625 C5.76799954,57.8220635 5.722,58.0460612 5.722,58.2940625 Z M12.418,56.5060625 C12.418,56.8260641 12.4279999,57.1840605 12.448,57.5800625 C12.4680001,57.9760644 12.5319995,58.3480607 12.64,58.6960625 C12.7480005,59.0440642 12.9219988,59.3380613 13.162,59.5780625 C13.4020012,59.8180637 13.7379978,59.9380625 14.17,59.9380625 C14.6020022,59.9380625 14.9379988,59.8180637 15.178,59.5780625 C15.4180012,59.3380613 15.5919995,59.0440642 15.7,58.6960625 C15.8080005,58.3480607 15.8719999,57.9760644 15.892,57.5800625 C15.9120001,57.1840605 15.922,56.8260641 15.922,56.5060625 C15.922,56.2980614 15.92,56.0680637 15.916,55.8160625 C15.912,55.5640612 15.8920002,55.3120637 15.856,55.0600625 C15.8199998,54.8080612 15.7680003,54.5620637 15.7,54.3220625 C15.6319997,54.0820613 15.5320007,53.8720634 15.4,53.6920625 C15.2679993,53.5120616 15.102001,53.366063 14.902,53.2540625 C14.701999,53.1420619 14.4580014,53.0860625 14.17,53.0860625 C13.8819986,53.0860625 13.638001,53.1420619 13.438,53.2540625 C13.237999,53.366063 13.0720007,53.5120616 12.94,53.6920625 C12.8079993,53.8720634 12.7080003,54.0820613 12.64,54.3220625 C12.5719997,54.5620637 12.5200002,54.8080612 12.484,55.0600625 C12.4479998,55.3120637 12.428,55.5640612 12.424,55.8160625 C12.42,56.0680637 12.418,56.2980614 12.418,56.5060625 Z M11.338,56.5180625 C11.338,56.2060609 11.3459999,55.8820641 11.362,55.5460625 C11.3780001,55.2100608 11.4179997,54.8820641 11.482,54.5620625 C11.5460003,54.2420609 11.6379994,53.9380639 11.758,53.6500625 C11.8780006,53.362061 12.041999,53.1100635 12.25,52.8940625 C12.458001,52.6780614 12.7199984,52.5060631 13.036,52.3780625 C13.3520016,52.2500618 13.7299978,52.1860625 14.17,52.1860625 C14.6100022,52.1860625 14.9879984,52.2500618 15.304,52.3780625 C15.6200016,52.5060631 15.881999,52.6780614 16.09,52.8940625 C16.298001,53.1100635 16.4619994,53.362061 16.582,53.6500625 C16.7020006,53.9380639 16.7939997,54.2420609 16.858,54.5620625 C16.9220003,54.8820641 16.9619999,55.2100608 16.978,55.5460625 C16.9940001,55.8820641 17.002,56.2060609 17.002,56.5180625 C17.002,56.830064 16.9940001,57.1540608 16.978,57.4900625 C16.9619999,57.8260641 16.9220003,58.1540609 16.858,58.4740625 C16.7939997,58.7940641 16.7020006,59.096061 16.582,59.3800625 C16.4619994,59.6640639 16.298001,59.9140614 16.09,60.1300625 C15.881999,60.3460635 15.6220016,60.5160618 15.31,60.6400625 C14.9979984,60.7640631 14.6180022,60.8260625 14.17,60.8260625 C13.7299978,60.8260625 13.3520016,60.7640631 13.036,60.6400625 C12.7199984,60.5160618 12.458001,60.3460635 12.25,60.1300625 C12.041999,59.9140614 11.8780006,59.6640639 11.758,59.3800625 C11.6379994,59.096061 11.5460003,58.7940641 11.482,58.4740625 C11.4179997,58.1540609 11.3780001,57.8260641 11.362,57.4900625 C11.3459999,57.1540608 11.338,56.830064 11.338,56.5180625 Z M18.31,54.4900625 L19.33,54.4900625 L19.33,55.3300625 L19.354,55.3300625 C19.5220008,54.9860607 19.7859982,54.7360632 20.146,54.5800625 C20.5060018,54.4240617 20.9019978,54.3460625 21.334,54.3460625 C21.8140024,54.3460625 22.2319982,54.4340616 22.588,54.6100625 C22.9440018,54.7860633 23.2399988,55.024061 23.476,55.3240625 C23.7120012,55.624064 23.8899994,55.9700605 24.01,56.3620625 C24.1300006,56.7540644 24.19,57.1700603 24.19,57.6100625 C24.19,58.0500647 24.1320006,58.4660605 24.016,58.8580625 C23.8999994,59.2500644 23.7240012,59.592061 23.488,59.8840625 C23.2519988,60.1760639 22.9560018,60.4060616 22.6,60.5740625 C22.2439982,60.7420633 21.8300024,60.8260625 21.358,60.8260625 C21.2059992,60.8260625 21.0360009,60.8100626 20.848,60.7780625 C20.6599991,60.7460623 20.4740009,60.6940628 20.29,60.6220625 C20.1059991,60.5500621 19.9320008,60.4520631 19.768,60.3280625 C19.6039992,60.2040618 19.4660006,60.0500634 19.354,59.8660625 L19.33,59.8660625 L19.33,63.0580625 L18.31,63.0580625 L18.31,54.4900625 Z M23.11,57.5380625 C23.11,57.250061 23.0720004,56.9680638 22.996,56.6920625 C22.9199996,56.4160611 22.8040008,56.1700635 22.648,55.9540625 C22.4919992,55.7380614 22.2920012,55.5660631 22.048,55.4380625 C21.8039988,55.3100618 21.5180016,55.2460625 21.19,55.2460625 C20.8459983,55.2460625 20.5540012,55.3140618 20.314,55.4500625 C20.0739988,55.5860631 19.8780008,55.7640614 19.726,55.9840625 C19.5739992,56.2040636 19.4640003,56.4540611 19.396,56.7340625 C19.3279997,57.0140639 19.294,57.298061 19.294,57.5860625 C19.294,57.890064 19.3299996,58.184061 19.402,58.4680625 C19.4740004,58.7520639 19.5879992,59.0020614 19.744,59.2180625 C19.9000008,59.4340635 20.1019988,59.6080618 20.35,59.7400625 C20.5980012,59.8720631 20.8979982,59.9380625 21.25,59.9380625 C21.6020018,59.9380625 21.8959988,59.8700631 22.132,59.7340625 C22.3680012,59.5980618 22.5579993,59.4180636 22.702,59.1940625 C22.8460007,58.9700613 22.9499997,58.7140639 23.014,58.4260625 C23.0780003,58.138061 23.11,57.842064 23.11,57.5380625 Z M27.058,57.4300625 L24.898,54.4900625 L26.206,54.4900625 L27.694,56.6620625 L29.242,54.4900625 L30.466,54.4900625 L28.33,57.3460625 L30.73,60.6940625 L29.422,60.6940625 L27.694,58.1260625 L25.966,60.6940625 L24.73,60.6940625 L27.058,57.4300625 Z" id="Text" fill="#FFFFFF"></path>
                    </g>
                </g>
            </g>
        </g>
    </g>
</svg>