<svg xmlns="http://www.w3.org/2000/svg" xmlns:xlink="http://www.w3.org/1999/xlink" width="339" height="86" viewBox="0 0 339 86">
    <defs>
        <rect id="b" width="320" height="72" rx="4"/>
        <filter id="a" width="106.9%" height="130.6%" x="-3.4%" y="-16.7%" filterUnits="objectBoundingBox">
            <feOffset dy="-1" in="SourceAlpha" result="shadowOffsetOuter1"/>
            <feGaussianBlur in="shadowOffsetOuter1" result="shadowBlurOuter1" stdDeviation="3.5"/>
            <feColorMatrix in="shadowBlurOuter1" values="0 0 0 0 0 0 0 0 0 0 0 0 0 0 0 0 0 0 0.15 0"/>
        </filter>
    </defs>
    <g fill="none" fill-rule="evenodd">
        <g transform="translate(9 8)">
            <use fill="#000" filter="url(#a)" xlink:href="#b"/>
            <use fill="#FFF" xlink:href="#b"/>
        </g>
        <path fill="#000" fill-opacity=".7" d="M65.57 60h-2.265v-8.71H60.32v-1.954h8.235v1.953H65.57V60zm7.063.148c-2.32 0-3.844-1.343-3.844-3.875v-.882c0-2.54 1.656-3.86 3.734-3.86 2.188 0 3.711 1.469 3.711 3.86v.937h-5.289v.39c0 1.024.664 1.704 1.68 1.704.813 0 1.398-.383 1.484-.899h2.055c-.07 1.086-1.102 2.625-3.531 2.625zM70.945 55h3.172v-.07c0-1.032-.625-1.72-1.578-1.72-.953 0-1.594.688-1.594 1.72V55zm11.93 5l-1.54-2.71h-.085L79.703 60h-2.328l2.555-4.14-2.649-4.18h2.54l1.507 2.695h.094l1.547-2.695h2.414l-2.703 4.117L85.328 60h-2.453zm4.602-8.21v-2.063h2.132v2.062h1.836v1.734H89.61v3.758c0 .774.352 1.024 1.18 1.024.273 0 .57-.016.719-.032v1.672c-.164.032-.75.094-1.258.094-2.086 0-2.82-.68-2.82-2.398v-4.118h-1.266V51.79h1.313zm18.03 1.015h-2.202c-.133-1.07-.97-1.711-2.094-1.711-1.344 0-2.305.922-2.305 2.906v1.281c0 1.703.656 2.969 2.328 2.969 1.32 0 2.141-.82 2.141-1.797v-.562h-2.086v-1.696h4.234v2.094c0 1.766-1.125 3.914-4.32 3.914-3.18 0-4.578-2.133-4.578-4.914v-1.312c0-2.914 1.71-4.836 4.617-4.836 2.813 0 4.195 1.812 4.266 3.664zm5.72-1.274c2.312 0 3.835 1.508 3.835 3.875v.813c0 2.515-1.523 3.93-3.835 3.93-2.344 0-3.86-1.399-3.86-3.922v-.813c0-2.328 1.531-3.883 3.86-3.883zm0 1.742c-1.11 0-1.633 1-1.633 2.157v.812c0 1.133.484 2.164 1.633 2.164 1.14 0 1.617-1.023 1.617-2.164v-.812c0-1.164-.516-2.157-1.617-2.157zm9.304 6.875c-2.32 0-3.844-1.343-3.844-3.875v-.882c0-2.54 1.657-3.86 3.735-3.86 2.187 0 3.71 1.469 3.71 3.86v.937h-5.288v.39c0 1.024.664 1.704 1.68 1.704.812 0 1.398-.383 1.484-.899h2.055c-.07 1.086-1.102 2.625-3.532 2.625zM118.844 55h3.172v-.07c0-1.032-.625-1.72-1.579-1.72-.953 0-1.593.688-1.593 1.72V55zm6.96-.844c0-1.883 1.594-2.625 3.391-2.625 1.883 0 3.22.867 3.22 2.469h-1.938c-.055-.46-.477-.938-1.32-.938-.782 0-1.259.368-1.259.915 0 .812 1.274.921 2.165 1.07 1.53.258 2.609.86 2.609 2.36 0 1.702-1.336 2.741-3.61 2.741-2.164 0-3.421-1-3.421-2.484h2.132c.07.555.516.945 1.391.945.969 0 1.375-.422 1.375-.937 0-.758-.984-.844-2.055-1.047-1.476-.29-2.68-.844-2.68-2.469zM147.11 60h-2.265v-4.46h-4.297V60h-2.266V49.336h2.266v4.266h4.297v-4.266h2.265V60zm5.961.148c-2.32 0-3.843-1.343-3.843-3.875v-.882c0-2.54 1.656-3.86 3.734-3.86 2.187 0 3.71 1.469 3.71 3.86v.937h-5.288v.39c0 1.024.664 1.704 1.68 1.704.812 0 1.398-.383 1.484-.899h2.055c-.07 1.086-1.102 2.625-3.532 2.625zM151.383 55h3.172v-.07c0-1.032-.625-1.72-1.578-1.72-.954 0-1.594.688-1.594 1.72V55zm7.336 5v-8.32h2.203v1.312h.11c.155-.57.765-1.43 2.046-1.43.305 0 .524.024.688.063v1.969c-.164-.063-.508-.094-.844-.094-1.328 0-1.945.758-1.945 1.875V60h-2.258zm10.023.148c-2.32 0-3.844-1.343-3.844-3.875v-.882c0-2.54 1.657-3.86 3.735-3.86 2.187 0 3.71 1.469 3.71 3.86v.937h-5.288v.39c0 1.024.664 1.704 1.68 1.704.812 0 1.398-.383 1.484-.899h2.054c-.07 1.086-1.101 2.625-3.53 2.625zM167.055 55h3.172v-.07c0-1.032-.625-1.72-1.579-1.72-.953 0-1.593.688-1.593 1.72V55z"/>
        <path fill="#666" d="M33.85 47L25 55.52 33.719 64l2.016-2.047-6.701-6.518L36 49.091z"/>
        <path fill="#FFF" d="M157.9 25.693c-1.435 0-2.502-.85-2.771-2.209h1.084c.228.791.867 1.272 1.7 1.272 1.376 0 2.155-1.219 2.214-3.469h-.094c-.416.82-1.242 1.3-2.25 1.3-1.611 0-2.777-1.189-2.777-2.83 0-1.698 1.23-2.911 2.965-2.911 1.265 0 2.244.674 2.771 1.922.276.644.41 1.423.41 2.355 0 2.906-1.183 4.57-3.252 4.57zm.07-4.02c1.12 0 1.923-.796 1.923-1.915 0-1.131-.827-1.987-1.91-1.987-1.085 0-1.91.844-1.91 1.952 0 1.154.779 1.95 1.898 1.95zm5.714 2.86a.764.764 0 0 0 .761-.762.76.76 0 0 0-.761-.761.764.764 0 0 0-.762.761c0 .416.346.762.762.762zm0-4.506a.764.764 0 0 0 .761-.761.76.76 0 0 0-.761-.762.764.764 0 0 0-.762.762c0 .416.346.761.762.761zm6.586 5.473v-1.752h-4.12v-.96c.756-1.343 2.098-3.464 3.621-5.743h1.53v5.76h1.201v.943h-1.201V25.5h-1.031zm-3.041-2.76v.07h3.046v-4.787h-.07c-.867 1.26-1.969 3.006-2.976 4.717zm8.923 2.76h1.055v-8.455h-1.049l-2.25 1.617v1.113l2.15-1.558h.094V25.5zm12.592 0l-.85-2.42h-3.363l-.85 2.42h-1.107l3.117-8.455h1.043l3.118 8.455h-1.108zm-2.578-7.09l-1.324 3.774h2.742l-1.324-3.774h-.094zm6.152 7.09v-6.457h.07l2.667 6.398h.89l2.666-6.398h.07V25.5h.985v-8.455h-1.225l-2.894 6.996h-.094l-2.894-6.996h-1.225V25.5h.984z"/>
        <path fill="#DBDBDB" d="M301.494 15.5h19.512c.82 0 1.494.674 1.494 1.505v6.49c0 .837-.669 1.505-1.494 1.505h-19.512c-.82 0-1.494-.674-1.494-1.505v-6.49c0-.837.669-1.505 1.494-1.505zm21.506 3h.75c.417 0 .75.332.75.742v2.016a.748.748 0 0 1-.75.742H323v-3.5zM301.508 16c-.557 0-1.008.457-1.008 1.008v6.484c0 .557.45 1.008 1.008 1.008h19.484c.557 0 1.008-.457 1.008-1.008v-6.484c0-.557-.45-1.008-1.008-1.008h-19.484zm-.001.5h19.486c.277 0 .507.22.507.492v6.516a.497.497 0 0 1-.507.492h-19.486a.502.502 0 0 1-.507-.492v-6.516c0-.276.227-.492.507-.492zM19.25 23a2.75 2.75 0 1 1 0-5.5 2.75 2.75 0 0 1 0 5.5zm7 0a2.75 2.75 0 1 1 0-5.5 2.75 2.75 0 0 1 0 5.5zm7 0a2.75 2.75 0 1 1 0-5.5 2.75 2.75 0 0 1 0 5.5zm7 0a2.75 2.75 0 1 1 0-5.5 2.75 2.75 0 0 1 0 5.5zm7 0a2.75 2.75 0 1 1 0-5.5 2.75 2.75 0 0 1 0 5.5z"/>
        <text fill="#000" fill-opacity=".7" font-family="SanFranciscoText-Regular, San Francisco Text" font-size="14" transform="translate(0 8)">
            <tspan x="271" y="48">Action</tspan>
        </text>
        <g transform="translate(0 54)">
            <path fill="#50E3C2" d="M9 2h16v1H9z"/>
            <path fill="#50E3C2" d="M9 0h1v5H9zM24 0h1v5h-1z"/>
            <rect width="35" height="22" y="8" fill="#50E3C2" rx="2"/>
            <path fill="#50E3C2" d="M14 8l4-4 4 4-4 4z"/>
            <path fill="#FFF" d="M8.434 23h-1.02v-6.096H5.206v-.816c.288 0 .568-.022.84-.066.272-.044.518-.126.738-.246.22-.12.406-.284.558-.492a1.87 1.87 0 0 0 .312-.792h.78V23zm7.368-6.336c-.048-.384-.196-.692-.444-.924-.248-.232-.576-.348-.984-.348-.432 0-.78.106-1.044.318-.264.212-.47.48-.618.804-.148.324-.25.674-.306 1.05a8.62 8.62 0 0 0-.096 1.056l.024.024c.24-.392.538-.676.894-.852a2.74 2.74 0 0 1 1.23-.264c.408 0 .774.07 1.098.21.324.14.596.334.816.582.22.248.39.54.51.876.12.336.18.7.18 1.092 0 .312-.048.636-.144.972a2.61 2.61 0 0 1-.474.918c-.22.276-.512.504-.876.684-.364.18-.814.27-1.35.27-.632 0-1.14-.128-1.524-.384a2.62 2.62 0 0 1-.888-.984c-.208-.4-.346-.84-.414-1.32a9.925 9.925 0 0 1-.102-1.392c0-.584.05-1.15.15-1.698.1-.548.27-1.034.51-1.458.24-.424.56-.764.96-1.02.4-.256.904-.384 1.512-.384.704 0 1.264.186 1.68.558.416.372.656.91.72 1.614h-1.02zm-1.536 1.764a1.655 1.655 0 0 0-1.308.558 1.697 1.697 0 0 0-.342.612 2.432 2.432 0 0 0-.114.75c0 .264.04.512.12.744.08.232.194.432.342.6.148.168.332.302.552.402.22.1.47.15.75.15s.526-.05.738-.15c.212-.1.39-.238.534-.414.144-.176.254-.378.33-.606.076-.228.114-.466.114-.714 0-.264-.034-.514-.102-.75a1.653 1.653 0 0 0-.318-.612 1.596 1.596 0 0 0-.54-.414 1.724 1.724 0 0 0-.756-.156zm4.044-1.632h1.02v.84h.024c.168-.344.432-.594.792-.75.36-.156.756-.234 1.188-.234.48 0 .898.088 1.254.264.356.176.652.414.888.714s.414.646.534 1.038c.12.392.18.808.18 1.248 0 .44-.058.856-.174 1.248a2.938 2.938 0 0 1-.528 1.026 2.49 2.49 0 0 1-.888.69c-.356.168-.77.252-1.242.252a3.066 3.066 0 0 1-1.068-.204 2.18 2.18 0 0 1-.522-.294 1.643 1.643 0 0 1-.414-.462h-.024v3.192h-1.02v-8.568zm4.8 3.048c0-.288-.038-.57-.114-.846a2.283 2.283 0 0 0-.348-.738 1.705 1.705 0 0 0-.6-.516 1.822 1.822 0 0 0-.858-.192c-.344 0-.636.068-.876.204-.24.136-.436.314-.588.534-.152.22-.262.47-.33.75a3.597 3.597 0 0 0 .006 1.734c.072.284.186.534.342.75.156.216.358.39.606.522s.548.198.9.198.646-.068.882-.204a1.64 1.64 0 0 0 .57-.54 2.35 2.35 0 0 0 .312-.768c.064-.288.096-.584.096-.888zm3.948-.108l-2.16-2.94h1.308l1.488 2.172 1.548-2.172h1.224l-2.136 2.856L30.73 23h-1.308l-1.728-2.568L25.966 23H24.73l2.328-3.264z"/>
        </g>
        <g transform="translate(26 23)">
            <path fill="#50E3C2" d="M10 33h24.32v1H10z"/>
            <path fill="#50E3C2" d="M10 31h1v5h-1zM33.32 31h1v5h-1z"/>
            <rect width="45" height="22" fill="#50E3C2" rx="2"/>
            <path fill="#50E3C2" d="M18 22l4-4 4 4-4 4z"/>
            <path fill="#FFF" d="M10.69 8.504a3.44 3.44 0 0 1 .132-1.2c.112-.368.286-.686.522-.954a2.45 2.45 0 0 1 .882-.63 3 3 0 0 1 1.2-.228c.368 0 .714.054 1.038.162.324.108.606.264.846.468.24.204.43.458.57.762.14.304.21.656.21 1.056 0 .376-.058.708-.174.996-.116.288-.27.546-.462.774a3.884 3.884 0 0 1-.66.618c-.248.184-.504.36-.768.528-.264.16-.528.318-.792.474a6.248 6.248 0 0 0-.726.498c-.22.176-.408.366-.564.57a1.612 1.612 0 0 0-.306.702h4.368v.9H10.45c.04-.504.13-.934.27-1.29a3.45 3.45 0 0 1 .534-.93c.216-.264.46-.496.732-.696.272-.2.556-.388.852-.564.36-.224.676-.43.948-.618.272-.188.498-.378.678-.57.18-.192.316-.4.408-.624.092-.224.138-.484.138-.78 0-.232-.044-.442-.132-.63a1.525 1.525 0 0 0-.876-.798 1.863 1.863 0 0 0-.636-.108c-.296 0-.55.062-.762.186a1.599 1.599 0 0 0-.522.486 2.03 2.03 0 0 0-.294.678c-.06.252-.086.506-.078.762h-1.02zm10.212 2.604V6.944h-.024l-2.832 4.164h2.856zm.96 0h1.152v.9h-1.152V14h-.96v-1.992H17.17v-.984l3.876-5.532h.816v5.616zm2.448-3.312h1.02v.84h.024c.168-.344.432-.594.792-.75.36-.156.756-.234 1.188-.234.48 0 .898.088 1.254.264.356.176.652.414.888.714s.414.646.534 1.038c.12.392.18.808.18 1.248 0 .44-.058.856-.174 1.248a2.938 2.938 0 0 1-.528 1.026 2.49 2.49 0 0 1-.888.69c-.356.168-.77.252-1.242.252a3.066 3.066 0 0 1-1.068-.204 2.18 2.18 0 0 1-.522-.294 1.643 1.643 0 0 1-.414-.462h-.024v3.192h-1.02V7.796zm4.8 3.048c0-.288-.038-.57-.114-.846a2.283 2.283 0 0 0-.348-.738 1.705 1.705 0 0 0-.6-.516 1.822 1.822 0 0 0-.858-.192c-.344 0-.636.068-.876.204-.24.136-.436.314-.588.534-.152.22-.262.47-.33.75a3.597 3.597 0 0 0 .006 1.734c.072.284.186.534.342.75.156.216.358.39.606.522s.548.198.9.198.646-.068.882-.204a1.64 1.64 0 0 0 .57-.54 2.35 2.35 0 0 0 .312-.768c.064-.288.096-.584.096-.888zm3.948-.108l-2.16-2.94h1.308l1.488 2.172 1.548-2.172h1.224l-2.136 2.856L36.73 14h-1.308l-1.728-2.568L31.966 14H30.73l2.328-3.264z"/>
        </g>
        <g transform="translate(304 50)">
            <path fill="#50E3C2" d="M9 2h16v1H9z"/>
            <path fill="#50E3C2" d="M9 0h1v5H9zM24 0h1v5h-1z"/>
            <rect width="35" height="22" y="8" fill="#50E3C2" rx="2"/>
            <path fill="#50E3C2" d="M14 8l4-4 4 4-4 4z"/>
            <path fill="#FFF" d="M8.434 23h-1.02v-6.096H5.206v-.816c.288 0 .568-.022.84-.066.272-.044.518-.126.738-.246.22-.12.406-.284.558-.492a1.87 1.87 0 0 0 .312-.792h.78V23zm7.368-6.336c-.048-.384-.196-.692-.444-.924-.248-.232-.576-.348-.984-.348-.432 0-.78.106-1.044.318-.264.212-.47.48-.618.804-.148.324-.25.674-.306 1.05a8.62 8.62 0 0 0-.096 1.056l.024.024c.24-.392.538-.676.894-.852a2.74 2.74 0 0 1 1.23-.264c.408 0 .774.07 1.098.21.324.14.596.334.816.582.22.248.39.54.51.876.12.336.18.7.18 1.092 0 .312-.048.636-.144.972a2.61 2.61 0 0 1-.474.918c-.22.276-.512.504-.876.684-.364.18-.814.27-1.35.27-.632 0-1.14-.128-1.524-.384a2.62 2.62 0 0 1-.888-.984c-.208-.4-.346-.84-.414-1.32a9.925 9.925 0 0 1-.102-1.392c0-.584.05-1.15.15-1.698.1-.548.27-1.034.51-1.458.24-.424.56-.764.96-1.02.4-.256.904-.384 1.512-.384.704 0 1.264.186 1.68.558.416.372.656.91.72 1.614h-1.02zm-1.536 1.764a1.655 1.655 0 0 0-1.308.558 1.697 1.697 0 0 0-.342.612 2.432 2.432 0 0 0-.114.75c0 .264.04.512.12.744.08.232.194.432.342.6.148.168.332.302.552.402.22.1.47.15.75.15s.526-.05.738-.15c.212-.1.39-.238.534-.414.144-.176.254-.378.33-.606.076-.228.114-.466.114-.714 0-.264-.034-.514-.102-.75a1.653 1.653 0 0 0-.318-.612 1.596 1.596 0 0 0-.54-.414 1.724 1.724 0 0 0-.756-.156zm4.044-1.632h1.02v.84h.024c.168-.344.432-.594.792-.75.36-.156.756-.234 1.188-.234.48 0 .898.088 1.254.264.356.176.652.414.888.714s.414.646.534 1.038c.12.392.18.808.18 1.248 0 .44-.058.856-.174 1.248a2.938 2.938 0 0 1-.528 1.026 2.49 2.49 0 0 1-.888.69c-.356.168-.77.252-1.242.252a3.066 3.066 0 0 1-1.068-.204 2.18 2.18 0 0 1-.522-.294 1.643 1.643 0 0 1-.414-.462h-.024v3.192h-1.02v-8.568zm4.8 3.048c0-.288-.038-.57-.114-.846a2.283 2.283 0 0 0-.348-.738 1.705 1.705 0 0 0-.6-.516 1.822 1.822 0 0 0-.858-.192c-.344 0-.636.068-.876.204-.24.136-.436.314-.588.534-.152.22-.262.47-.33.75a3.597 3.597 0 0 0 .006 1.734c.072.284.186.534.342.75.156.216.358.39.606.522s.548.198.9.198.646-.068.882-.204a1.64 1.64 0 0 0 .57-.54 2.35 2.35 0 0 0 .312-.768c.064-.288.096-.584.096-.888zm3.948-.108l-2.16-2.94h1.308l1.488 2.172 1.548-2.172h1.224l-2.136 2.856L30.73 23h-1.308l-1.728-2.568L25.966 23H24.73l2.328-3.264z"/>
        </g>
    </g>
</svg>
