<svg xmlns="http://www.w3.org/2000/svg" xmlns:xlink="http://www.w3.org/1999/xlink" width="368" height="576" viewBox="0 0 368 576">
    <defs>
        <filter id="a" width="103.6%" height="102.3%" x="-1.8%" y="-1%" filterUnits="objectBoundingBox">
            <feOffset dy="1" in="SourceAlpha" result="shadowOffsetOuter1"/>
            <feGaussianBlur in="shadowOffsetOuter1" result="shadowBlurOuter1" stdDeviation="2"/>
            <feColorMatrix in="shadowBlurOuter1" result="shadowMatrixOuter1" values="0 0 0 0 0 0 0 0 0 0 0 0 0 0 0 0 0 0 0.12 0"/>
            <feMerge>
                <feMergeNode in="shadowMatrixOuter1"/>
                <feMergeNode in="SourceGraphic"/>
            </feMerge>
        </filter>
        <path id="b" d="M0 0h360v568H0z"/>
        <rect id="d" width="324" height="355.5" rx="8"/>
        <filter id="e" width="108%" height="107.3%" x="-3.4%" y="-3.1%" filterUnits="objectBoundingBox">
            <feOffset dx="2" dy="2" in="SourceAlpha" result="shadowOffsetOuter1"/>
            <feGaussianBlur in="shadowOffsetOuter1" result="shadowBlurOuter1" stdDeviation="4"/>
            <feColorMatrix in="shadowBlurOuter1" values="0 0 0 0 0 0 0 0 0 0 0 0 0 0 0 0 0 0 0.15 0"/>
        </filter>
        <linearGradient id="g" x1="125.959%" x2="56.495%" y1="50%" y2="50%">
            <stop offset="0%" stop-color="#F8F8F8"/>
            <stop offset="100%" stop-color="#E0E0E0"/>
        </linearGradient>
        <circle id="i" cx="14.5" cy="14.5" r="14"/>
        <filter id="h" width="167.9%" height="175%" x="-33.9%" y="-12.5%" filterUnits="objectBoundingBox">
            <feMorphology in="SourceAlpha" operator="dilate" radius=".5" result="shadowSpreadOuter1"/>
            <feOffset dy="3" in="shadowSpreadOuter1" result="shadowOffsetOuter1"/>
            <feGaussianBlur in="shadowOffsetOuter1" result="shadowBlurOuter1" stdDeviation="1.5"/>
            <feComposite in="shadowBlurOuter1" in2="SourceAlpha" operator="out" result="shadowBlurOuter1"/>
            <feColorMatrix in="shadowBlurOuter1" result="shadowMatrixOuter1" values="0 0 0 0 0 0 0 0 0 0 0 0 0 0 0 0 0 0 0.05 0"/>
            <feMorphology in="SourceAlpha" operator="dilate" radius=".5" result="shadowSpreadOuter2"/>
            <feOffset dy="2" in="shadowSpreadOuter2" result="shadowOffsetOuter2"/>
            <feGaussianBlur in="shadowOffsetOuter2" result="shadowBlurOuter2" stdDeviation="1"/>
            <feComposite in="shadowBlurOuter2" in2="SourceAlpha" operator="out" result="shadowBlurOuter2"/>
            <feColorMatrix in="shadowBlurOuter2" result="shadowMatrixOuter2" values="0 0 0 0 0 0 0 0 0 0 0 0 0 0 0 0 0 0 0.2 0"/>
            <feMorphology in="SourceAlpha" operator="dilate" radius=".5" result="shadowSpreadOuter3"/>
            <feOffset dy="3" in="shadowSpreadOuter3" result="shadowOffsetOuter3"/>
            <feGaussianBlur in="shadowOffsetOuter3" result="shadowBlurOuter3" stdDeviation=".5"/>
            <feComposite in="shadowBlurOuter3" in2="SourceAlpha" operator="out" result="shadowBlurOuter3"/>
            <feColorMatrix in="shadowBlurOuter3" result="shadowMatrixOuter3" values="0 0 0 0 0 0 0 0 0 0 0 0 0 0 0 0 0 0 0.0510643116 0"/>
            <feMerge>
                <feMergeNode in="shadowMatrixOuter1"/>
                <feMergeNode in="shadowMatrixOuter2"/>
                <feMergeNode in="shadowMatrixOuter3"/>
            </feMerge>
        </filter>
        <rect id="j" width="67.5" height="81" rx="3"/>
        <filter id="k" width="117.8%" height="114.8%" x="-8.9%" y="-6.2%" filterUnits="objectBoundingBox">
            <feMorphology in="SourceAlpha" operator="dilate" radius="2.5" result="shadowSpreadOuter1"/>
            <feOffset dy="1" in="shadowSpreadOuter1" result="shadowOffsetOuter1"/>
            <feGaussianBlur in="shadowOffsetOuter1" result="shadowBlurOuter1" stdDeviation="1"/>
            <feComposite in="shadowBlurOuter1" in2="SourceAlpha" operator="out" result="shadowBlurOuter1"/>
            <feColorMatrix in="shadowBlurOuter1" values="0 0 0 0 0 0 0 0 0 0 0 0 0 0 0 0 0 0 0.12 0"/>
        </filter>
        <rect id="l" width="324" height="355.5" rx="8"/>
        <filter id="m" width="108%" height="107.3%" x="-3.4%" y="-3.1%" filterUnits="objectBoundingBox">
            <feOffset dx="2" dy="2" in="SourceAlpha" result="shadowOffsetOuter1"/>
            <feGaussianBlur in="shadowOffsetOuter1" result="shadowBlurOuter1" stdDeviation="4"/>
            <feColorMatrix in="shadowBlurOuter1" values="0 0 0 0 0 0 0 0 0 0 0 0 0 0 0 0 0 0 0.15 0"/>
        </filter>
        <path id="p" d="M0 0h360v81H0z"/>
        <filter id="o" width="106.1%" height="127.2%" x="-3.1%" y="-14.8%" filterUnits="objectBoundingBox">
            <feOffset dy="-1" in="SourceAlpha" result="shadowOffsetOuter1"/>
            <feGaussianBlur in="shadowOffsetOuter1" result="shadowBlurOuter1" stdDeviation="3.5"/>
            <feColorMatrix in="shadowBlurOuter1" values="0 0 0 0 0 0 0 0 0 0 0 0 0 0 0 0 0 0 0.15 0"/>
        </filter>
    </defs>
    <g fill="none" fill-rule="evenodd" filter="url(#a)" transform="translate(4 3)">
        <mask id="c" fill="#fff">
            <use xlink:href="#b"/>
        </mask>
        <use fill="#FFF" xlink:href="#b"/>
        <g mask="url(#c)">
            <g transform="translate(18 129.375)">
                <mask id="f" fill="#fff">
                    <use xlink:href="#d"/>
                </mask>
                <use fill="#000" filter="url(#e)" xlink:href="#d"/>
                <use fill="#FFF" xlink:href="#d"/>
                <g mask="url(#f)">
                    <path fill="#FFF" d="M0 266.625h324v73.108H0z"/>
                    <text fill="#000" fill-opacity=".7" font-family="CircularStd-Book, Circular Std" font-size="16" font-weight="300" letter-spacing="-.386" transform="translate(0 266.625)">
                        <tspan x="16" y="44.554">Lorem Ipsum</tspan>
                    </text>
                    <path stroke="#E0E0E0" stroke-linecap="square" stroke-width=".5" d="M16.1 339.733h305.888"/>
                    <g transform="translate(259.69 288.679)">
                        <rect width="49.5" height="26" x=".5" y="2" fill="url(#g)" rx="13"/>
                        <use fill="#000" filter="url(#h)" xlink:href="#i"/>
                        <use fill="#FFF" xlink:href="#i"/>
                        <circle cx="14.5" cy="14.5" r="14.25" stroke="#E0E0E0" stroke-width=".5"/>
                        <path stroke="#BDBDBD" stroke-linecap="round" stroke-linejoin="round" stroke-width="2" d="M9.635 19.025l9.39-9.39M9.635 9.635l9.39 9.39"/>
                    </g>
                </g>
                <g mask="url(#f)">
                    <path fill="#FFF" d="M0 193.5h324v72H0z"/>
                    <text fill="#000" fill-opacity=".7" font-family="CircularStd-Book, Circular Std" font-size="16" font-weight="300" letter-spacing="-.386" transform="translate(0 193.5)">
                        <tspan x="16" y="44">Lorem Ipsum</tspan>
                    </text>
                    <path stroke="#E0E0E0" stroke-linecap="square" stroke-width=".5" d="M16.1 265.5h305.888"/>
                    <g>
                        <path fill="#BDBDBD" d="M299.584 224.5l1.5-1.5 6.5 6.5-6.5 6.5-1.5-1.5 5-5z"/>
                    </g>
                </g>
                <g mask="url(#f)">
                    <g transform="translate(15.114 91.125)">
                        <use fill="#000" filter="url(#k)" xlink:href="#j"/>
                        <use fill="#D8D8D8" xlink:href="#j"/>
                        <rect width="70" height="83.5" x="-1.25" y="-1.25" stroke="#FFF" stroke-width="2.5" rx="3"/>
                    </g>
                    <text font-family="CircularStd-Bold, Circular Std" font-size="16" font-weight="bold" letter-spacing="-.386" transform="translate(15.114 85.5)">
                        <tspan x="80.292" y="18.5" fill="#42B549">Lorem ipsum dolor sit </tspan> <tspan x="80.292" y="38.5" fill="#42B549">amet</tspan>
                    </text>
                    <path fill="#686872" d="M292.244 114.75a2.25 2.25 0 1 1 0-4.5 2.25 2.25 0 0 1 0 4.5zm7.165 0a2.25 2.25 0 1 1 0-4.5 2.25 2.25 0 0 1 0 4.5zm7.165 0a2.25 2.25 0 1 1 0-4.5 2.25 2.25 0 0 1 0 4.5z"/>
                    <text font-family="CircularStd-Book, Circular Std" font-size="16" font-weight="300" letter-spacing="-.386" transform="translate(15.114 85.5)">
                        <tspan x="80.003" y="66.5" fill="#FF5722">LoremIpsum</tspan>
                    </text>
                    <text fill-opacity=".38" font-family="CircularStd-Book, Circular Std" font-size="12" font-weight="300" letter-spacing="-.289" transform="translate(15.114 85.5)">
                        <tspan x="80.003" y="85" fill="#000">Lorem Ipsum</tspan>
                    </text>
                </g>
                <g mask="url(#f)">
                    <path fill="#FFF" d="M0 0h324v66.375H0z"/>
                    <g stroke="#BDBDBD" stroke-linecap="round" stroke-linejoin="round" stroke-width="1.5" style="mix-blend-mode:darken">
                        <path d="M286.216 40.781l15.113-15.187M286.216 25.594l15.113 15.187"/>
                    </g>
                    <text fill="#42B549" font-family="SFUIText-Medium, SF UI Text" font-size="16" font-weight="400" letter-spacing="-.386" transform="translate(18 18)">
                        <tspan x="0" y="22.188">Lorem Ipsum</tspan>
                    </text>
                    <path stroke="#E0E0E0" stroke-linecap="square" stroke-width=".5" d="M16.1 66.375h305.888"/>
                </g>
            </g>
        </g>
        <g mask="url(#c)">
            <g transform="translate(18 502.875)">
                <mask id="n" fill="#fff">
                    <use xlink:href="#l"/>
                </mask>
                <use fill="#000" filter="url(#m)" xlink:href="#l"/>
                <use fill="#FFF" xlink:href="#l"/>
                <g mask="url(#n)">
                    <path fill="#FFF" d="M0 0h324v66.375H0z"/>
                    <g stroke="#BDBDBD" stroke-linecap="round" stroke-linejoin="round" stroke-width="1.5" style="mix-blend-mode:darken">
                        <path d="M286.216 40.781l15.113-15.187M286.216 25.594l15.113 15.187"/>
                    </g>
                    <text fill="#42B549" font-family="SFUIText-Medium, SF UI Text" font-size="16" font-weight="400" letter-spacing="-.386" transform="translate(18 18)">
                        <tspan x="0" y="22.188">Lorem Ipsum</tspan>
                    </text>
                    <path stroke="#E0E0E0" stroke-linecap="square" stroke-width=".5" d="M16.1 66.375h305.888"/>
                </g>
            </g>
        </g>
        <g mask="url(#c)">
            <g transform="translate(1.125)">
                <use fill="#000" filter="url(#o)" xlink:href="#p"/>
                <use fill="#FFF" xlink:href="#p"/>
                <path fill="#DBDBDB" d="M27.956 43.875L18 53.461 27.809 63l2.268-2.303-7.539-7.332 7.837-7.138z"/>
                <g>
                    <path fill="#FFF" d="M166.388 17.655c-1.615 0-2.815-.956-3.118-2.485h1.22c.257.89.975 1.43 1.911 1.43 1.55 0 2.426-1.37 2.492-3.902h-.106c-.468.923-1.397 1.463-2.53 1.463-1.814 0-3.125-1.338-3.125-3.183 0-1.912 1.384-3.277 3.335-3.277 1.424 0 2.525.758 3.118 2.163.31.725.461 1.601.461 2.65 0 3.269-1.331 5.141-3.658 5.141zm.079-4.522c1.26 0 2.162-.896 2.162-2.155 0-1.273-.93-2.235-2.149-2.235-1.22 0-2.149.95-2.149 2.195 0 1.299.877 2.195 2.136 2.195zm6.427 3.217a.86.86 0 0 0 .857-.857.855.855 0 0 0-.857-.857.86.86 0 0 0-.857.857c0 .468.389.857.857.857zm0-5.07a.86.86 0 0 0 .857-.856.855.855 0 0 0-.857-.857.86.86 0 0 0-.857.857c0 .468.389.857.857.857zm7.41 6.158v-1.971h-4.635v-1.082c.85-1.509 2.36-3.895 4.074-6.46h1.72v6.48h1.352v1.062h-1.352v1.97h-1.16zm-3.422-3.105v.079h3.428V9.026h-.08c-.975 1.418-2.214 3.382-3.348 5.307zm10.04 3.104h1.186V7.927h-1.18l-2.531 1.819v1.252l2.419-1.753h.105v8.194zm14.165 0l-.956-2.722h-3.783l-.956 2.723h-1.246l3.507-9.512h1.173l3.507 9.511h-1.246zm-2.9-7.976l-1.49 4.246h3.085l-1.49-4.246h-.105zm6.921 7.976v-7.264h.08l2.999 7.199h1.001l3-7.199h.079v7.265h1.107V7.925h-1.377l-3.257 7.87h-.105l-3.257-7.87h-1.377v9.511h1.107z"/>
                    <path fill="#DBDBDB" d="M330.869 6.125h19.512c.82 0 1.494.674 1.494 1.505v6.49c0 .837-.669 1.505-1.494 1.505H330.87c-.82 0-1.494-.674-1.494-1.505V7.63c0-.837.669-1.505 1.494-1.505zm21.506 3h.75c.417 0 .75.332.75.742v2.016a.748.748 0 0 1-.75.742h-.75v-3.5zm-21.492-2.5c-.557 0-1.008.457-1.008 1.008v6.484c0 .557.45 1.008 1.008 1.008h19.484c.557 0 1.008-.457 1.008-1.008V7.633c0-.557-.45-1.008-1.008-1.008h-19.484zm-.001.5h19.486c.277 0 .507.22.507.492v6.516a.497.497 0 0 1-.507.492h-19.486a.502.502 0 0 1-.507-.492V7.617c0-.276.227-.492.507-.492zM10 14.281a2.75 2.75 0 1 1 0-5.5 2.75 2.75 0 0 1 0 5.5zm7 0a2.75 2.75 0 1 1 0-5.5 2.75 2.75 0 0 1 0 5.5zm7 0a2.75 2.75 0 1 1 0-5.5 2.75 2.75 0 0 1 0 5.5zm7 0a2.75 2.75 0 1 1 0-5.5 2.75 2.75 0 0 1 0 5.5zm7 0a2.75 2.75 0 1 1 0-5.5 2.75 2.75 0 0 1 0 5.5z"/>
                </g>
                <rect width="148.5" height="6.75" x="54.988" y="48.657" fill="#DBDBDB" rx="3"/>
            </g>
        </g>
        <path stroke="#DBDBDB" stroke-linecap="round" stroke-width="8" d="M26.438 109.688h97.314" mask="url(#c)"/>
    </g>
</svg>
