<?xml version="1.0" encoding="UTF-8"?>
<svg width="360px" height="345px" viewBox="0 0 360 345" version="1.1" xmlns="http://www.w3.org/2000/svg" xmlns:xlink="http://www.w3.org/1999/xlink">
    <!-- Generator: Sketch 48.2 (47327) - http://www.bohemiancoding.com/sketch -->
    <title>Group 7</title>
    <desc>Created with Sketch.</desc>
    <defs>
        <rect id="path-1" x="0" y="0" width="288" height="220" rx="4"></rect>
        <filter x="-3.5%" y="-3.6%" width="106.9%" height="109.1%" filterUnits="objectBoundingBox" id="filter-2">
            <feOffset dx="0" dy="2" in="SourceAlpha" result="shadowOffsetOuter1"></feOffset>
            <feGaussianBlur stdDeviation="3" in="shadowOffsetOuter1" result="shadowBlurOuter1"></feGaussianBlur>
            <feColorMatrix values="0 0 0 0 0   0 0 0 0 0   0 0 0 0 0  0 0 0 0.12 0" type="matrix" in="shadowBlurOuter1"></feColorMatrix>
        </filter>
    </defs>
    <g id="CEKUNIFY-Website---Detail---Bottom-Navigation-Copy-6" stroke="none" stroke-width="1" fill="none" fill-rule="evenodd" transform="translate(-1170.000000, -913.000000)">
        <g id="Group-5" transform="translate(386.000000, 913.000000)">
            <g id="Group-7" transform="translate(784.000000, 0.000000)">
                <g id="Group-6">
                    <rect id="Rectangle-7-Copy" fill="#F8F8F8" x="0" y="0" width="360" height="268" rx="4"></rect>
                    <g id="Cards" transform="translate(36.000000, 24.000000)">
                        <g id="Rectangle">
                            <use fill="black" fill-opacity="1" filter="url(#filter-2)" xlink:href="#path-1"></use>
                            <use fill="#FFFFFF" fill-rule="evenodd" xlink:href="#path-1"></use>
                        </g>
                    </g>
                    <g id="#width-top-DBBDC70E-C13B-4EDA-A8E6-6A6CBC589011" transform="translate(36.000000, 9.000000)">
                        <rect id="line" fill="#FF5500" x="0" y="11" width="288" height="1"></rect>
                        <rect id="start" fill="#FF5500" x="0" y="9" width="1" height="5"></rect>
                        <rect id="end" fill="#FF5500" x="287" y="9" width="1" height="5"></rect>
                        <rect id="box" fill="#FF5500" x="115.327738" y="0" width="55.3445245" height="22" rx="2"></rect>
                        <path d="M127.64,15 L126.344,15 L123.332,6.432 L124.556,6.432 L127.004,13.86 L127.028,13.86 L129.5,6.432 L130.688,6.432 L127.64,15 Z M136.268,14.976 C136.091999,15.0800005 135.848002,15.132 135.536,15.132 C135.271999,15.132 135.062001,15.0580007 134.906,14.91 C134.749999,14.7619993 134.672,14.5200017 134.672,14.184 C134.391999,14.5200017 134.066002,14.7619993 133.694,14.91 C133.321998,15.0580007 132.920002,15.132 132.488,15.132 C132.207999,15.132 131.942001,15.1000003 131.69,15.036 C131.437999,14.9719997 131.220001,14.8720007 131.036,14.736 C130.851999,14.5999993 130.706001,14.4220011 130.598,14.202 C130.489999,13.9819989 130.436,13.7160016 130.436,13.404 C130.436,13.0519982 130.495999,12.7640011 130.616,12.54 C130.736001,12.3159989 130.893999,12.1340007 131.09,11.994 C131.286001,11.8539993 131.509999,11.7480004 131.762,11.676 C132.014001,11.6039996 132.271999,11.5440002 132.536,11.496 C132.816001,11.4399997 133.081999,11.3980001 133.334,11.37 C133.586001,11.3419999 133.807999,11.3020003 134,11.25 C134.192001,11.1979997 134.343999,11.1220005 134.456,11.022 C134.568001,10.9219995 134.624,10.776001 134.624,10.584 C134.624,10.3599989 134.582,10.1800007 134.498,10.044 C134.414,9.90799932 134.306001,9.80400036 134.174,9.732 C134.041999,9.65999964 133.894001,9.61200012 133.73,9.588 C133.565999,9.56399988 133.404001,9.552 133.244,9.552 C132.811998,9.552 132.452001,9.63399918 132.164,9.798 C131.875999,9.96200082 131.72,10.2719977 131.696,10.728 L130.676,10.728 C130.692,10.3439981 130.771999,10.0200013 130.916,9.756 C131.060001,9.49199868 131.251999,9.27800082 131.492,9.114 C131.732001,8.94999918 132.005998,8.83200036 132.314,8.76 C132.622002,8.68799964 132.951998,8.652 133.304,8.652 C133.584001,8.652 133.861999,8.6719998 134.138,8.712 C134.414001,8.7520002 134.663999,8.83399938 134.888,8.958 C135.112001,9.08200062 135.291999,9.25599888 135.428,9.48 C135.564001,9.70400112 135.632,9.9959982 135.632,10.356 L135.632,13.548 C135.632,13.7880012 135.646,13.9639994 135.674,14.076 C135.702,14.1880006 135.795999,14.244 135.956,14.244 C136.044,14.244 136.147999,14.2240002 136.268,14.184 L136.268,14.976 Z M134.612,11.796 C134.483999,11.8920005 134.316001,11.9619998 134.108,12.006 C133.899999,12.0500002 133.682001,12.0859999 133.454,12.114 C133.225999,12.1420001 132.996001,12.1739998 132.764,12.21 C132.531999,12.2460002 132.324001,12.3039996 132.14,12.384 C131.955999,12.4640004 131.806001,12.5779993 131.69,12.726 C131.573999,12.8740007 131.516,13.0759987 131.516,13.332 C131.516,13.5000008 131.55,13.6419994 131.618,13.758 C131.686,13.8740006 131.773999,13.9679996 131.882,14.04 C131.990001,14.1120004 132.115999,14.1639998 132.26,14.196 C132.404001,14.2280002 132.555999,14.244 132.716,14.244 C133.052002,14.244 133.339999,14.1980005 133.58,14.106 C133.820001,14.0139995 134.015999,13.8980007 134.168,13.758 C134.320001,13.6179993 134.432,13.4660008 134.504,13.302 C134.576,13.1379992 134.612,12.9840007 134.612,12.84 L134.612,11.796 Z M137.18,8.796 L138.14,8.796 L138.14,10.104 L138.164,10.104 C138.412001,9.59999748 138.715998,9.2280012 139.076,8.988 C139.436002,8.7479988 139.891997,8.63599992 140.444,8.652 L140.444,9.732 C140.035998,9.732 139.688001,9.78799944 139.4,9.9 C139.111999,10.0120006 138.880001,10.1759989 138.704,10.392 C138.527999,10.6080011 138.4,10.8699985 138.32,11.178 C138.24,11.4860015 138.2,11.839998 138.2,12.24 L138.2,15 L137.18,15 L137.18,8.796 Z M142.292,7.68 L141.272,7.68 L141.272,6.432 L142.292,6.432 L142.292,7.68 Z M141.272,8.796 L142.292,8.796 L142.292,15 L141.272,15 L141.272,8.796 Z M144.62,11.904 C144.62,12.2800019 144.669999,12.6139985 144.77,12.906 C144.870001,13.1980015 145.007999,13.441999 145.184,13.638 C145.360001,13.834001 145.565999,13.9839995 145.802,14.088 C146.038001,14.1920005 146.287999,14.244 146.552,14.244 C146.816001,14.244 147.065999,14.1920005 147.302,14.088 C147.538001,13.9839995 147.743999,13.834001 147.92,13.638 C148.096001,13.441999 148.234,13.1980015 148.334,12.906 C148.434,12.6139985 148.484,12.2800019 148.484,11.904 C148.484,11.5279981 148.434,11.1940015 148.334,10.902 C148.234,10.6099985 148.096001,10.364001 147.92,10.164 C147.743999,9.963999 147.538001,9.81200052 147.302,9.708 C147.065999,9.60399948 146.816001,9.552 146.552,9.552 C146.287999,9.552 146.038001,9.60399948 145.802,9.708 C145.565999,9.81200052 145.360001,9.963999 145.184,10.164 C145.007999,10.364001 144.870001,10.6099985 144.77,10.902 C144.669999,11.1940015 144.62,11.5279981 144.62,11.904 Z M143.54,11.904 C143.54,11.4479977 143.603999,11.022002 143.732,10.626 C143.860001,10.229998 144.051999,9.88600146 144.308,9.594 C144.564001,9.30199854 144.879998,9.07200084 145.256,8.904 C145.632002,8.73599916 146.063998,8.652 146.552,8.652 C147.048002,8.652 147.481998,8.73599916 147.854,8.904 C148.226002,9.07200084 148.539999,9.30199854 148.796,9.594 C149.052001,9.88600146 149.243999,10.229998 149.372,10.626 C149.500001,11.022002 149.564,11.4479977 149.564,11.904 C149.564,12.3600023 149.500001,12.783998 149.372,13.176 C149.243999,13.568002 149.052001,13.9099985 148.796,14.202 C148.539999,14.4940015 148.226002,14.7219992 147.854,14.886 C147.481998,15.0500008 147.048002,15.132 146.552,15.132 C146.063998,15.132 145.632002,15.0500008 145.256,14.886 C144.879998,14.7219992 144.564001,14.4940015 144.308,14.202 C144.051999,13.9099985 143.860001,13.568002 143.732,13.176 C143.603999,12.783998 143.54,12.3600023 143.54,11.904 Z M155.9,15 L154.94,15 L154.94,14.016 L154.916,14.016 C154.699999,14.4000019 154.424002,14.6819991 154.088,14.862 C153.751998,15.0420009 153.356002,15.132 152.9,15.132 C152.491998,15.132 152.152001,15.0780005 151.88,14.97 C151.607999,14.8619995 151.388001,14.708001 151.22,14.508 C151.051999,14.307999 150.934,14.0700014 150.866,13.794 C150.798,13.5179986 150.764,13.2120017 150.764,12.876 L150.764,8.796 L151.784,8.796 L151.784,12.996 C151.784,13.3800019 151.895999,13.6839989 152.12,13.908 C152.344001,14.1320011 152.651998,14.244 153.044,14.244 C153.356002,14.244 153.625999,14.1960005 153.854,14.1 C154.082001,14.0039995 154.271999,13.8680009 154.424,13.692 C154.576001,13.5159991 154.69,13.3100012 154.766,13.074 C154.842,12.8379988 154.88,12.5800014 154.88,12.3 L154.88,8.796 L155.9,8.796 L155.9,15 Z M158.06,13.044 C158.068,13.2680011 158.12,13.4579992 158.216,13.614 C158.312,13.7700008 158.437999,13.8939995 158.594,13.986 C158.750001,14.0780005 158.925999,14.1439998 159.122,14.184 C159.318001,14.2240002 159.519999,14.244 159.728,14.244 C159.888001,14.244 160.055999,14.2320001 160.232,14.208 C160.408001,14.1839999 160.569999,14.1400003 160.718,14.076 C160.866001,14.0119997 160.988,13.9180006 161.084,13.794 C161.18,13.6699994 161.228,13.512001 161.228,13.32 C161.228,13.0559987 161.128001,12.8560007 160.928,12.72 C160.727999,12.5839993 160.478002,12.4740004 160.178,12.39 C159.877998,12.3059996 159.552002,12.2300003 159.2,12.162 C158.847998,12.0939997 158.522001,11.9980006 158.222,11.874 C157.921999,11.7499994 157.672001,11.5760011 157.472,11.352 C157.271999,11.1279989 157.172,10.816002 157.172,10.416 C157.172,10.1039984 157.241999,9.83600112 157.382,9.612 C157.522001,9.38799888 157.701999,9.2060007 157.922,9.066 C158.142001,8.9259993 158.389999,8.82200034 158.666,8.754 C158.942001,8.68599966 159.215999,8.652 159.488,8.652 C159.840002,8.652 160.163999,8.6819997 160.46,8.742 C160.756001,8.8020003 161.017999,8.90599926 161.246,9.054 C161.474001,9.20200074 161.655999,9.40199874 161.792,9.654 C161.928001,9.90600126 162.008,10.2199981 162.032,10.596 L161.012,10.596 C160.996,10.395999 160.944,10.2300007 160.856,10.098 C160.768,9.96599934 160.656001,9.8600004 160.52,9.78 C160.383999,9.6999996 160.234001,9.64200018 160.07,9.606 C159.905999,9.56999982 159.740001,9.552 159.572,9.552 C159.419999,9.552 159.266001,9.56399988 159.11,9.588 C158.953999,9.61200012 158.812001,9.6539997 158.684,9.714 C158.555999,9.7740003 158.452,9.8539995 158.372,9.954 C158.292,10.0540005 158.252,10.1839992 158.252,10.344 C158.252,10.5200009 158.313999,10.6659994 158.438,10.782 C158.562001,10.8980006 158.719999,10.9939996 158.912,11.07 C159.104001,11.1460004 159.319999,11.2099997 159.56,11.262 C159.800001,11.3140003 160.039999,11.3679997 160.28,11.424 C160.536001,11.4800003 160.785999,11.5479996 161.03,11.628 C161.274001,11.7080004 161.489999,11.8139993 161.678,11.946 C161.866001,12.0780007 162.017999,12.243999 162.134,12.444 C162.250001,12.644001 162.308,12.8919985 162.308,13.188 C162.308,13.5640019 162.230001,13.8759988 162.074,14.124 C161.917999,14.3720012 161.714001,14.5719992 161.462,14.724 C161.209999,14.8760008 160.926002,14.9819997 160.61,15.042 C160.293998,15.1020003 159.980002,15.132 159.668,15.132 C159.323998,15.132 158.996002,15.0960004 158.684,15.024 C158.371998,14.9519996 158.096001,14.8340008 157.856,14.67 C157.615999,14.5059992 157.424001,14.2900013 157.28,14.022 C157.135999,13.7539987 157.056,13.4280019 157.04,13.044 L158.06,13.044 Z" id="Various" fill="#FFFFFF"></path>
                    </g>
                    <g id="#height-right-DBBDC70E-C13B-4EDA-A8E6-6A6CBC589011" transform="translate(296.000000, 24.000000)">
                        <rect id="line" fill="#FF5500" x="31" y="0" width="1" height="220"></rect>
                        <rect id="start" fill="#FF5500" x="29" y="0" width="5" height="1"></rect>
                        <rect id="end" fill="#FF5500" x="29" y="219" width="5" height="1"></rect>
                        <rect id="box" fill="#FF5500" x="0.389241284" y="99" width="61.2215174" height="22" rx="2"></rect>
                        <path d="M15.64,114 L14.344,114 L11.332,105.432 L12.556,105.432 L15.004,112.86 L15.028,112.86 L17.5,105.432 L18.688,105.432 L15.64,114 Z M24.268,113.976 C24.0919991,114.080001 23.8480016,114.132 23.536,114.132 C23.2719987,114.132 23.0620008,114.058001 22.906,113.91 C22.7499992,113.761999 22.672,113.520002 22.672,113.184 C22.3919986,113.520002 22.0660019,113.761999 21.694,113.91 C21.3219981,114.058001 20.9200022,114.132 20.488,114.132 C20.2079986,114.132 19.9420013,114.1 19.69,114.036 C19.4379987,113.972 19.2200009,113.872001 19.036,113.736 C18.8519991,113.599999 18.7060005,113.422001 18.598,113.202 C18.4899995,112.981999 18.436,112.716002 18.436,112.404 C18.436,112.051998 18.4959994,111.764001 18.616,111.54 C18.7360006,111.315999 18.893999,111.134001 19.09,110.994 C19.286001,110.853999 19.5099987,110.748 19.762,110.676 C20.0140013,110.604 20.2719987,110.544 20.536,110.496 C20.8160014,110.44 21.0819987,110.398 21.334,110.37 C21.5860013,110.342 21.807999,110.302 22,110.25 C22.192001,110.198 22.3439994,110.122 22.456,110.022 C22.5680006,109.921999 22.624,109.776001 22.624,109.584 C22.624,109.359999 22.5820004,109.180001 22.498,109.044 C22.4139996,108.907999 22.3060007,108.804 22.174,108.732 C22.0419993,108.66 21.8940008,108.612 21.73,108.588 C21.5659992,108.564 21.4040008,108.552 21.244,108.552 C20.8119978,108.552 20.4520014,108.633999 20.164,108.798 C19.8759986,108.962001 19.7200001,109.271998 19.696,109.728 L18.676,109.728 C18.6920001,109.343998 18.7719993,109.020001 18.916,108.756 C19.0600007,108.491999 19.2519988,108.278001 19.492,108.114 C19.7320012,107.949999 20.0059985,107.832 20.314,107.76 C20.6220015,107.688 20.9519982,107.652 21.304,107.652 C21.5840014,107.652 21.8619986,107.672 22.138,107.712 C22.4140014,107.752 22.6639989,107.833999 22.888,107.958 C23.1120011,108.082001 23.2919993,108.255999 23.428,108.48 C23.5640007,108.704001 23.632,108.995998 23.632,109.356 L23.632,112.548 C23.632,112.788001 23.6459999,112.963999 23.674,113.076 C23.7020001,113.188001 23.7959992,113.244 23.956,113.244 C24.0440004,113.244 24.1479994,113.224 24.268,113.184 L24.268,113.976 Z M22.612,110.796 C22.4839994,110.892 22.316001,110.962 22.108,111.006 C21.899999,111.05 21.6820011,111.086 21.454,111.114 C21.2259989,111.142 20.9960012,111.174 20.764,111.21 C20.5319988,111.246 20.3240009,111.304 20.14,111.384 C19.9559991,111.464 19.8060006,111.577999 19.69,111.726 C19.5739994,111.874001 19.516,112.075999 19.516,112.332 C19.516,112.500001 19.5499997,112.641999 19.618,112.758 C19.6860003,112.874001 19.7739995,112.968 19.882,113.04 C19.9900005,113.112 20.1159993,113.164 20.26,113.196 C20.4040007,113.228 20.5559992,113.244 20.716,113.244 C21.0520017,113.244 21.3399988,113.198 21.58,113.106 C21.8200012,113.014 22.0159992,112.898001 22.168,112.758 C22.3200008,112.617999 22.4319996,112.466001 22.504,112.302 C22.5760004,112.137999 22.612,111.984001 22.612,111.84 L22.612,110.796 Z M25.18,107.796 L26.14,107.796 L26.14,109.104 L26.164,109.104 C26.4120012,108.599997 26.7159982,108.228001 27.076,107.988 C27.4360018,107.747999 27.8919972,107.636 28.444,107.652 L28.444,108.732 C28.035998,108.732 27.6880014,108.787999 27.4,108.9 C27.1119986,109.012001 26.8800009,109.175999 26.704,109.392 C26.5279991,109.608001 26.4000004,109.869998 26.32,110.178 C26.2399996,110.486002 26.2,110.839998 26.2,111.24 L26.2,114 L25.18,114 L25.18,107.796 Z M30.292,106.68 L29.272,106.68 L29.272,105.432 L30.292,105.432 L30.292,106.68 Z M29.272,107.796 L30.292,107.796 L30.292,114 L29.272,114 L29.272,107.796 Z M32.62,110.904 C32.62,111.280002 32.6699995,111.613999 32.77,111.906 C32.8700005,112.198001 33.0079991,112.441999 33.184,112.638 C33.3600009,112.834001 33.5659988,112.983999 33.802,113.088 C34.0380012,113.192001 34.2879987,113.244 34.552,113.244 C34.8160013,113.244 35.0659988,113.192001 35.302,113.088 C35.5380012,112.983999 35.7439991,112.834001 35.92,112.638 C36.0960009,112.441999 36.2339995,112.198001 36.334,111.906 C36.4340005,111.613999 36.484,111.280002 36.484,110.904 C36.484,110.527998 36.4340005,110.194001 36.334,109.902 C36.2339995,109.609999 36.0960009,109.364001 35.92,109.164 C35.7439991,108.963999 35.5380012,108.812001 35.302,108.708 C35.0659988,108.603999 34.8160013,108.552 34.552,108.552 C34.2879987,108.552 34.0380012,108.603999 33.802,108.708 C33.5659988,108.812001 33.3600009,108.963999 33.184,109.164 C33.0079991,109.364001 32.8700005,109.609999 32.77,109.902 C32.6699995,110.194001 32.62,110.527998 32.62,110.904 Z M31.54,110.904 C31.54,110.447998 31.6039994,110.022002 31.732,109.626 C31.8600006,109.229998 32.0519987,108.886001 32.308,108.594 C32.5640013,108.301999 32.8799981,108.072001 33.256,107.904 C33.6320019,107.735999 34.0639976,107.652 34.552,107.652 C35.0480025,107.652 35.4819981,107.735999 35.854,107.904 C36.2260019,108.072001 36.5399987,108.301999 36.796,108.594 C37.0520013,108.886001 37.2439994,109.229998 37.372,109.626 C37.5000006,110.022002 37.564,110.447998 37.564,110.904 C37.564,111.360002 37.5000006,111.783998 37.372,112.176 C37.2439994,112.568002 37.0520013,112.909999 36.796,113.202 C36.5399987,113.494001 36.2260019,113.721999 35.854,113.886 C35.4819981,114.050001 35.0480025,114.132 34.552,114.132 C34.0639976,114.132 33.6320019,114.050001 33.256,113.886 C32.8799981,113.721999 32.5640013,113.494001 32.308,113.202 C32.0519987,112.909999 31.8600006,112.568002 31.732,112.176 C31.6039994,111.783998 31.54,111.360002 31.54,110.904 Z M43.9,114 L42.94,114 L42.94,113.016 L42.916,113.016 C42.6999989,113.400002 42.4240017,113.681999 42.088,113.862 C41.7519983,114.042001 41.3560023,114.132 40.9,114.132 C40.491998,114.132 40.1520014,114.078001 39.88,113.97 C39.6079986,113.861999 39.3880008,113.708001 39.22,113.508 C39.0519992,113.307999 38.9340003,113.070001 38.866,112.794 C38.7979997,112.517999 38.764,112.212002 38.764,111.876 L38.764,107.796 L39.784,107.796 L39.784,111.996 C39.784,112.380002 39.8959989,112.683999 40.12,112.908 C40.3440011,113.132001 40.651998,113.244 41.044,113.244 C41.3560016,113.244 41.6259989,113.196 41.854,113.1 C42.0820011,113.004 42.2719992,112.868001 42.424,112.692 C42.5760008,112.515999 42.6899996,112.310001 42.766,112.074 C42.8420004,111.837999 42.88,111.580001 42.88,111.3 L42.88,107.796 L43.9,107.796 L43.9,114 Z M46.06,112.044 C46.068,112.268001 46.1199995,112.457999 46.216,112.614 C46.3120005,112.770001 46.4379992,112.894 46.594,112.986 C46.7500008,113.078 46.925999,113.144 47.122,113.184 C47.318001,113.224 47.519999,113.244 47.728,113.244 C47.8880008,113.244 48.0559991,113.232 48.232,113.208 C48.4080009,113.184 48.5699993,113.14 48.718,113.076 C48.8660007,113.012 48.9879995,112.918001 49.084,112.794 C49.1800005,112.669999 49.228,112.512001 49.228,112.32 C49.228,112.055999 49.128001,111.856001 48.928,111.72 C48.727999,111.583999 48.4780015,111.474 48.178,111.39 C47.8779985,111.306 47.5520018,111.23 47.2,111.162 C46.8479982,111.094 46.5220015,110.998001 46.222,110.874 C45.9219985,110.749999 45.672001,110.576001 45.472,110.352 C45.271999,110.127999 45.172,109.816002 45.172,109.416 C45.172,109.103998 45.2419993,108.836001 45.382,108.612 C45.5220007,108.387999 45.7019989,108.206001 45.922,108.066 C46.1420011,107.925999 46.3899986,107.822 46.666,107.754 C46.9420014,107.686 47.2159986,107.652 47.488,107.652 C47.8400018,107.652 48.1639985,107.682 48.46,107.742 C48.7560015,107.802 49.0179989,107.905999 49.246,108.054 C49.4740011,108.202001 49.6559993,108.401999 49.792,108.654 C49.9280007,108.906001 50.0079999,109.219998 50.032,109.596 L49.012,109.596 C48.9959999,109.395999 48.9440004,109.230001 48.856,109.098 C48.7679996,108.965999 48.6560007,108.86 48.52,108.78 C48.3839993,108.7 48.2340008,108.642 48.07,108.606 C47.9059992,108.57 47.7400008,108.552 47.572,108.552 C47.4199992,108.552 47.2660008,108.564 47.11,108.588 C46.9539992,108.612 46.8120006,108.654 46.684,108.714 C46.5559994,108.774 46.4520004,108.854 46.372,108.954 C46.2919996,109.054001 46.252,109.183999 46.252,109.344 C46.252,109.520001 46.3139994,109.665999 46.438,109.782 C46.5620006,109.898001 46.719999,109.994 46.912,110.07 C47.104001,110.146 47.3199988,110.21 47.56,110.262 C47.8000012,110.314 48.0399988,110.368 48.28,110.424 C48.5360013,110.48 48.7859988,110.548 49.03,110.628 C49.2740012,110.708 49.4899991,110.813999 49.678,110.946 C49.8660009,111.078001 50.0179994,111.243999 50.134,111.444 C50.2500006,111.644001 50.308,111.891999 50.308,112.188 C50.308,112.564002 50.2300008,112.875999 50.074,113.124 C49.9179992,113.372001 49.7140013,113.571999 49.462,113.724 C49.2099987,113.876001 48.9260016,113.982 48.61,114.042 C48.2939984,114.102 47.9800016,114.132 47.668,114.132 C47.3239983,114.132 46.9960016,114.096 46.684,114.024 C46.3719984,113.952 46.0960012,113.834001 45.856,113.67 C45.6159988,113.505999 45.4240007,113.290001 45.28,113.022 C45.1359993,112.753999 45.0560001,112.428002 45.04,112.044 L46.06,112.044 Z" id="Various" fill="#FFFFFF"></path>
                    </g>
                </g>
                <path d="M5.628,290.21 C2.856,290.21 0.546,288.208 0.546,285.044 C0.546,281.88 2.94,279.864 5.6,279.864 C8.344,279.864 9.758,281.544 10.15,283.154 L8.33,283.728 C8.092,282.776 7.322,281.726 5.6,281.726 C4.116,281.726 2.548,282.79 2.548,285.044 C2.548,287.158 4.032,288.32 5.628,288.32 C7.322,288.32 8.148,287.214 8.414,286.29 L10.22,286.836 C9.842,288.362 8.414,290.21 5.628,290.21 Z M14.546,288.516 C15.456,288.516 16.296,287.858 16.296,286.556 C16.296,285.254 15.456,284.596 14.546,284.596 C13.636,284.596 12.796,285.254 12.796,286.556 C12.796,287.844 13.636,288.516 14.546,288.516 Z M14.546,282.902 C16.604,282.902 18.158,284.428 18.158,286.556 C18.158,288.67 16.604,290.21 14.546,290.21 C12.488,290.21 10.934,288.67 10.934,286.556 C10.934,284.428 12.488,282.902 14.546,282.902 Z M21.49,290 L19.628,290 L19.628,279.864 L21.49,279.864 L21.49,290 Z M26.572,288.516 C27.482,288.516 28.322,287.858 28.322,286.556 C28.322,285.254 27.482,284.596 26.572,284.596 C25.662,284.596 24.822,285.254 24.822,286.556 C24.822,287.844 25.662,288.516 26.572,288.516 Z M26.572,282.902 C28.63,282.902 30.184,284.428 30.184,286.556 C30.184,288.67 28.63,290.21 26.572,290.21 C24.514,290.21 22.96,288.67 22.96,286.556 C22.96,284.428 24.514,282.902 26.572,282.902 Z M35.854,283.084 L35.854,284.96 C35.644,284.918 35.462,284.904 35.294,284.904 C34.342,284.904 33.516,285.366 33.516,286.85 L33.516,290 L31.654,290 L31.654,283.112 L33.46,283.112 L33.46,284.134 C33.88,283.224 34.832,283.056 35.42,283.056 C35.574,283.056 35.714,283.07 35.854,283.084 Z M40.194,285.492 C40.194,282.286 41.496,280.144 43.134,278.534 L44.212,279.528 C42.714,281.124 41.762,282.972 41.762,285.492 C41.762,288.012 42.714,289.874 44.212,291.47 L43.134,292.45 C41.496,290.854 40.194,288.698 40.194,285.492 Z M53.55,290 L51.604,290 L51.604,285.884 L47.278,285.884 L47.278,290 L45.346,290 L45.346,280.074 L47.278,280.074 L47.278,284.064 L51.604,284.064 L51.604,280.074 L53.55,280.074 L53.55,290 Z M62.034,290 L55.818,290 L55.818,280.074 L62.034,280.074 L62.034,281.894 L57.75,281.894 L57.75,284.162 L61.628,284.162 L61.628,285.884 L57.75,285.884 L57.75,288.18 L62.034,288.18 L62.034,290 Z M71.988,280.074 L68.74,285.044 L72.002,290 L69.664,290 L67.522,286.57 L65.366,290 L63.098,290 L66.36,285.03 L63.112,280.074 L65.436,280.074 L67.564,283.504 L69.734,280.074 L71.988,280.074 Z M76.37,285.492 C76.37,288.698 75.068,290.854 73.43,292.45 L72.352,291.47 C73.85,289.874 74.802,288.012 74.802,285.492 C74.802,282.972 73.85,281.124 72.352,279.528 L73.43,278.534 C75.068,280.144 76.37,282.286 76.37,285.492 Z M7.322,308 L1.26,308 L1.26,298.074 L2.632,298.074 L2.632,306.712 L7.322,306.712 L7.322,308 Z M8.372,306.194 C8.372,304.99 9.254,304.318 10.416,304.15 L12.236,303.884 C12.642,303.828 12.754,303.618 12.754,303.38 C12.754,302.722 12.32,302.176 11.298,302.176 C10.374,302.176 9.856,302.75 9.772,303.534 L8.512,303.24 C8.652,301.952 9.814,301.056 11.27,301.056 C13.286,301.056 14.07,302.204 14.07,303.52 L14.07,306.894 C14.07,307.482 14.126,307.832 14.154,308 L12.866,308 C12.838,307.832 12.796,307.58 12.796,307.09 C12.502,307.566 11.83,308.21 10.626,308.21 C9.254,308.21 8.372,307.258 8.372,306.194 Z M10.808,307.104 C11.886,307.104 12.754,306.586 12.754,305.116 L12.754,304.808 L10.696,305.116 C10.136,305.2 9.716,305.522 9.716,306.124 C9.716,306.628 10.136,307.104 10.808,307.104 Z M17.416,308 L16.114,308 L16.114,297.864 L17.416,297.864 L17.416,302.218 C17.738,301.616 18.522,301.07 19.642,301.07 C21.686,301.07 22.736,302.638 22.736,304.598 C22.736,306.6 21.602,308.182 19.6,308.182 C18.606,308.182 17.836,307.748 17.416,307.02 L17.416,308 Z M21.392,304.598 C21.392,303.142 20.622,302.232 19.404,302.232 C18.242,302.232 17.402,303.142 17.402,304.598 C17.402,306.054 18.242,307.006 19.404,307.006 C20.608,307.006 21.392,306.054 21.392,304.598 Z M25.27,303.94 L28.952,303.94 C28.924,302.974 28.294,302.218 27.104,302.218 C25.998,302.218 25.326,303.072 25.27,303.94 Z M29.148,305.69 L30.282,306.082 C29.904,307.272 28.826,308.21 27.258,308.21 C25.452,308.21 23.87,306.894 23.87,304.612 C23.87,302.498 25.396,301.056 27.09,301.056 C29.162,301.056 30.324,302.484 30.324,304.584 C30.324,304.752 30.31,304.92 30.296,305.004 L25.228,305.004 C25.256,306.208 26.124,307.048 27.258,307.048 C28.35,307.048 28.896,306.446 29.148,305.69 Z M33.32,308 L32.004,308 L32.004,297.864 L33.32,297.864 L33.32,308 Z M39.004,307.104 C39.004,306.558 39.424,306.124 39.97,306.124 C40.516,306.124 40.95,306.558 40.95,307.104 C40.95,307.65 40.516,308.07 39.97,308.07 C39.424,308.07 39.004,307.65 39.004,307.104 Z M38.99,302.176 C38.99,301.63 39.41,301.196 39.956,301.196 C40.502,301.196 40.936,301.63 40.936,302.176 C40.936,302.722 40.502,303.142 39.956,303.142 C39.41,303.142 38.99,302.722 38.99,302.176 Z M47.558,303.464 C47.558,304.85 47.81,305.83 48.356,306.404 C48.706,306.768 49.154,306.992 49.798,306.992 C50.442,306.992 50.89,306.768 51.24,306.404 C51.786,305.83 52.038,304.85 52.038,303.464 C52.038,302.078 51.786,301.098 51.24,300.524 C50.89,300.16 50.442,299.936 49.798,299.936 C49.154,299.936 48.706,300.16 48.356,300.524 C47.81,301.098 47.558,302.078 47.558,303.464 Z M46.2,303.464 C46.2,302.218 46.41,301.07 47.012,300.174 C47.6,299.292 48.51,298.718 49.798,298.718 C51.086,298.718 51.996,299.292 52.584,300.174 C53.186,301.07 53.396,302.218 53.396,303.464 C53.396,304.71 53.186,305.858 52.584,306.754 C51.996,307.636 51.086,308.21 49.798,308.21 C48.51,308.21 47.6,307.636 47.012,306.754 C46.41,305.858 46.2,304.71 46.2,303.464 Z M56.084,303.464 C56.084,304.85 56.336,305.83 56.882,306.404 C57.232,306.768 57.68,306.992 58.324,306.992 C58.968,306.992 59.416,306.768 59.766,306.404 C60.312,305.83 60.564,304.85 60.564,303.464 C60.564,302.078 60.312,301.098 59.766,300.524 C59.416,300.16 58.968,299.936 58.324,299.936 C57.68,299.936 57.232,300.16 56.882,300.524 C56.336,301.098 56.084,302.078 56.084,303.464 Z M54.726,303.464 C54.726,302.218 54.936,301.07 55.538,300.174 C56.126,299.292 57.036,298.718 58.324,298.718 C59.612,298.718 60.522,299.292 61.11,300.174 C61.712,301.07 61.922,302.218 61.922,303.464 C61.922,304.71 61.712,305.858 61.11,306.754 C60.522,307.636 59.612,308.21 58.324,308.21 C57.036,308.21 56.126,307.636 55.538,306.754 C54.936,305.858 54.726,304.71 54.726,303.464 Z M64.61,303.464 C64.61,304.85 64.862,305.83 65.408,306.404 C65.758,306.768 66.206,306.992 66.85,306.992 C67.494,306.992 67.942,306.768 68.292,306.404 C68.838,305.83 69.09,304.85 69.09,303.464 C69.09,302.078 68.838,301.098 68.292,300.524 C67.942,300.16 67.494,299.936 66.85,299.936 C66.206,299.936 65.758,300.16 65.408,300.524 C64.862,301.098 64.61,302.078 64.61,303.464 Z M63.252,303.464 C63.252,302.218 63.462,301.07 64.064,300.174 C64.652,299.292 65.562,298.718 66.85,298.718 C68.138,298.718 69.048,299.292 69.636,300.174 C70.238,301.07 70.448,302.218 70.448,303.464 C70.448,304.71 70.238,305.858 69.636,306.754 C69.048,307.636 68.138,308.21 66.85,308.21 C65.562,308.21 64.652,307.636 64.064,306.754 C63.462,305.858 63.252,304.71 63.252,303.464 Z M73.136,303.464 C73.136,304.85 73.388,305.83 73.934,306.404 C74.284,306.768 74.732,306.992 75.376,306.992 C76.02,306.992 76.468,306.768 76.818,306.404 C77.364,305.83 77.616,304.85 77.616,303.464 C77.616,302.078 77.364,301.098 76.818,300.524 C76.468,300.16 76.02,299.936 75.376,299.936 C74.732,299.936 74.284,300.16 73.934,300.524 C73.388,301.098 73.136,302.078 73.136,303.464 Z M71.778,303.464 C71.778,302.218 71.988,301.07 72.59,300.174 C73.178,299.292 74.088,298.718 75.376,298.718 C76.664,298.718 77.574,299.292 78.162,300.174 C78.764,301.07 78.974,302.218 78.974,303.464 C78.974,304.71 78.764,305.858 78.162,306.754 C77.574,307.636 76.664,308.21 75.376,308.21 C74.088,308.21 73.178,307.636 72.59,306.754 C71.988,305.858 71.778,304.71 71.778,303.464 Z M81.662,303.464 C81.662,304.85 81.914,305.83 82.46,306.404 C82.81,306.768 83.258,306.992 83.902,306.992 C84.546,306.992 84.994,306.768 85.344,306.404 C85.89,305.83 86.142,304.85 86.142,303.464 C86.142,302.078 85.89,301.098 85.344,300.524 C84.994,300.16 84.546,299.936 83.902,299.936 C83.258,299.936 82.81,300.16 82.46,300.524 C81.914,301.098 81.662,302.078 81.662,303.464 Z M80.304,303.464 C80.304,302.218 80.514,301.07 81.116,300.174 C81.704,299.292 82.614,298.718 83.902,298.718 C85.19,298.718 86.1,299.292 86.688,300.174 C87.29,301.07 87.5,302.218 87.5,303.464 C87.5,304.71 87.29,305.858 86.688,306.754 C86.1,307.636 85.19,308.21 83.902,308.21 C82.614,308.21 81.704,307.636 81.116,306.754 C80.514,305.858 80.304,304.71 80.304,303.464 Z M93.73,303.03 C93.73,305.62 95.466,306.95 97.314,306.95 C99.162,306.95 100.898,305.62 100.898,303.03 C100.898,300.44 99.162,299.124 97.314,299.124 C95.466,299.124 93.73,300.44 93.73,303.03 Z M92.33,303.03 C92.33,299.712 94.822,297.864 97.314,297.864 C99.806,297.864 102.298,299.712 102.298,303.03 C102.298,306.348 99.806,308.21 97.314,308.21 C94.822,308.21 92.33,306.348 92.33,303.03 Z M105.35,310.66 L104.048,310.66 L104.048,301.266 L105.322,301.266 L105.322,302.316 C105.686,301.644 106.484,301.112 107.576,301.112 C109.592,301.112 110.67,302.666 110.67,304.626 C110.67,306.628 109.508,308.182 107.534,308.182 C106.498,308.182 105.714,307.692 105.35,307.09 L105.35,310.66 Z M109.326,304.626 C109.326,303.282 108.57,302.274 107.338,302.274 C106.134,302.274 105.336,303.282 105.336,304.626 C105.336,306.012 106.134,307.006 107.338,307.006 C108.556,307.006 109.326,306.012 109.326,304.626 Z M111.93,306.194 C111.93,304.99 112.812,304.318 113.974,304.15 L115.794,303.884 C116.2,303.828 116.312,303.618 116.312,303.38 C116.312,302.722 115.878,302.176 114.856,302.176 C113.932,302.176 113.414,302.75 113.33,303.534 L112.07,303.24 C112.21,301.952 113.372,301.056 114.828,301.056 C116.844,301.056 117.628,302.204 117.628,303.52 L117.628,306.894 C117.628,307.482 117.684,307.832 117.712,308 L116.424,308 C116.396,307.832 116.354,307.58 116.354,307.09 C116.06,307.566 115.388,308.21 114.184,308.21 C112.812,308.21 111.93,307.258 111.93,306.194 Z M114.366,307.104 C115.444,307.104 116.312,306.586 116.312,305.116 L116.312,304.808 L114.254,305.116 C113.694,305.2 113.274,305.522 113.274,306.124 C113.274,306.628 113.694,307.104 114.366,307.104 Z M122.5,302.274 C121.436,302.274 120.456,303.058 120.456,304.626 C120.456,306.166 121.422,306.992 122.514,306.992 C123.774,306.992 124.236,306.138 124.39,305.606 L125.552,306.11 C125.23,307.076 124.264,308.21 122.514,308.21 C120.554,308.21 119.112,306.67 119.112,304.626 C119.112,302.526 120.582,301.056 122.5,301.056 C124.292,301.056 125.216,302.176 125.496,303.198 L124.306,303.702 C124.138,303.044 123.648,302.274 122.5,302.274 Z M128.394,308 L127.092,308 L127.092,301.266 L128.394,301.266 L128.394,308 Z M126.798,298.718 C126.798,298.186 127.218,297.766 127.736,297.766 C128.268,297.766 128.688,298.186 128.688,298.718 C128.688,299.236 128.268,299.656 127.736,299.656 C127.218,299.656 126.798,299.236 126.798,298.718 Z M132.398,299.138 L132.398,301.266 L133.854,301.266 L133.854,302.456 L132.398,302.456 L132.398,305.956 C132.398,306.572 132.65,306.88 133.336,306.88 C133.504,306.88 133.742,306.852 133.854,306.824 L133.854,307.944 C133.742,307.986 133.406,308.07 132.958,308.07 C131.81,308.07 131.082,307.37 131.082,306.152 L131.082,302.456 L129.794,302.456 L129.794,301.266 L130.158,301.266 C130.886,301.266 131.194,300.818 131.194,300.23 L131.194,299.138 L132.398,299.138 Z M137.354,310.814 L135.912,310.814 L137.592,307.258 L134.694,301.266 L136.206,301.266 L138.306,305.914 L140.322,301.266 L141.736,301.266 L137.354,310.814 Z M145.866,305.536 L147.182,305.144 C147.266,306.264 148.092,307.02 149.226,307.02 C150.304,307.02 151.172,306.306 151.172,305.186 C151.172,303.94 150.262,303.31 149.212,303.31 C148.568,303.31 147.952,303.562 147.56,303.968 C147.084,303.786 146.678,303.604 146.216,303.436 L147.392,298.928 L152.18,298.928 L152.18,300.188 L148.302,300.188 L147.63,302.792 C148.036,302.344 148.764,302.12 149.478,302.12 C151.256,302.12 152.558,303.254 152.558,305.13 C152.558,306.838 151.242,308.224 149.226,308.224 C147.294,308.224 145.992,306.964 145.866,305.536 Z M153.538,305.956 L153.538,304.374 L157.43,298.928 L159.32,298.928 L159.32,304.682 L160.874,304.682 L160.874,305.956 L159.32,305.956 L159.32,308 L157.99,308 L157.99,305.956 L153.538,305.956 Z M157.99,304.682 L157.99,300.244 L154.798,304.682 L157.99,304.682 Z M2.632,320.708 L4.62,320.708 C5.81,320.708 6.538,320.05 6.538,319.028 C6.538,317.978 5.81,317.306 4.62,317.306 L2.632,317.306 L2.632,320.708 Z M4.872,321.94 L2.632,321.94 L2.632,326 L1.26,326 L1.26,316.074 L4.872,316.074 C6.706,316.074 7.938,317.348 7.938,319.014 C7.938,320.694 6.706,321.94 4.872,321.94 Z M10.654,326 L9.338,326 L9.338,315.864 L10.654,315.864 L10.654,326 Z M12.474,324.194 C12.474,322.99 13.356,322.318 14.518,322.15 L16.338,321.884 C16.744,321.828 16.856,321.618 16.856,321.38 C16.856,320.722 16.422,320.176 15.4,320.176 C14.476,320.176 13.958,320.75 13.874,321.534 L12.614,321.24 C12.754,319.952 13.916,319.056 15.372,319.056 C17.388,319.056 18.172,320.204 18.172,321.52 L18.172,324.894 C18.172,325.482 18.228,325.832 18.256,326 L16.968,326 C16.94,325.832 16.898,325.58 16.898,325.09 C16.604,325.566 15.932,326.21 14.728,326.21 C13.356,326.21 12.474,325.258 12.474,324.194 Z M14.91,325.104 C15.988,325.104 16.856,324.586 16.856,323.116 L16.856,322.808 L14.798,323.116 C14.238,323.2 13.818,323.522 13.818,324.124 C13.818,324.628 14.238,325.104 14.91,325.104 Z M23.044,320.274 C21.98,320.274 21,321.058 21,322.626 C21,324.166 21.966,324.992 23.058,324.992 C24.318,324.992 24.78,324.138 24.934,323.606 L26.096,324.11 C25.774,325.076 24.808,326.21 23.058,326.21 C21.098,326.21 19.656,324.67 19.656,322.626 C19.656,320.526 21.126,319.056 23.044,319.056 C24.836,319.056 25.76,320.176 26.04,321.198 L24.85,321.702 C24.682,321.044 24.192,320.274 23.044,320.274 Z M28.42,321.94 L32.102,321.94 C32.074,320.974 31.444,320.218 30.254,320.218 C29.148,320.218 28.476,321.072 28.42,321.94 Z M32.298,323.69 L33.432,324.082 C33.054,325.272 31.976,326.21 30.408,326.21 C28.602,326.21 27.02,324.894 27.02,322.612 C27.02,320.498 28.546,319.056 30.24,319.056 C32.312,319.056 33.474,320.484 33.474,322.584 C33.474,322.752 33.46,322.92 33.446,323.004 L28.378,323.004 C28.406,324.208 29.274,325.048 30.408,325.048 C31.5,325.048 32.046,324.446 32.298,323.69 Z M36.47,322.038 L36.47,326 L35.154,326 L35.154,315.864 L36.47,315.864 L36.47,320.05 C36.96,319.336 37.744,319.07 38.514,319.07 C40.124,319.07 40.922,320.232 40.922,321.73 L40.922,326 L39.606,326 L39.606,321.954 C39.606,321.016 39.214,320.26 38.038,320.26 C37.03,320.26 36.498,321.044 36.47,322.038 Z M45.906,325.034 C47.026,325.034 48.006,324.194 48.006,322.626 C48.006,321.072 47.026,320.232 45.906,320.232 C44.786,320.232 43.806,321.072 43.806,322.626 C43.806,324.194 44.786,325.034 45.906,325.034 Z M45.906,319.056 C47.922,319.056 49.35,320.582 49.35,322.626 C49.35,324.684 47.922,326.21 45.906,326.21 C43.89,326.21 42.462,324.684 42.462,322.626 C42.462,320.582 43.89,319.056 45.906,319.056 Z M52.346,326 L51.03,326 L51.03,315.864 L52.346,315.864 L52.346,326 Z M55.37,322.612 C55.37,323.998 56.084,325.02 57.344,325.02 C58.548,325.02 59.29,323.97 59.29,322.584 C59.29,321.198 58.562,320.246 57.358,320.246 C56.154,320.246 55.37,321.226 55.37,322.612 Z M59.304,325.09 L59.304,324.978 C58.982,325.622 58.268,326.182 57.218,326.182 C55.244,326.182 54.026,324.614 54.026,322.612 C54.026,320.708 55.314,319.084 57.218,319.084 C58.408,319.084 59.052,319.672 59.276,320.218 L59.276,315.864 L60.578,315.864 L60.578,324.754 C60.578,325.398 60.634,325.888 60.648,326 L59.374,326 C59.346,325.846 59.304,325.496 59.304,325.09 Z M63.672,321.94 L67.354,321.94 C67.326,320.974 66.696,320.218 65.506,320.218 C64.4,320.218 63.728,321.072 63.672,321.94 Z M67.55,323.69 L68.684,324.082 C68.306,325.272 67.228,326.21 65.66,326.21 C63.854,326.21 62.272,324.894 62.272,322.612 C62.272,320.498 63.798,319.056 65.492,319.056 C67.564,319.056 68.726,320.484 68.726,322.584 C68.726,322.752 68.712,322.92 68.698,323.004 L63.63,323.004 C63.658,324.208 64.526,325.048 65.66,325.048 C66.752,325.048 67.298,324.446 67.55,323.69 Z M74.144,319.196 L74.144,320.596 C73.948,320.568 73.752,320.554 73.57,320.554 C72.464,320.554 71.722,321.142 71.722,322.626 L71.722,326 L70.406,326 L70.406,319.266 L71.694,319.266 L71.694,320.442 C72.184,319.406 73.024,319.154 73.71,319.154 C73.892,319.154 74.074,319.182 74.144,319.196 Z M78.988,325.104 C78.988,324.558 79.408,324.124 79.954,324.124 C80.5,324.124 80.934,324.558 80.934,325.104 C80.934,325.65 80.5,326.07 79.954,326.07 C79.408,326.07 78.988,325.65 78.988,325.104 Z M78.974,320.176 C78.974,319.63 79.394,319.196 79.94,319.196 C80.486,319.196 80.92,319.63 80.92,320.176 C80.92,320.722 80.486,321.142 79.94,321.142 C79.394,321.142 78.974,320.722 78.974,320.176 Z M87.542,321.464 C87.542,322.85 87.794,323.83 88.34,324.404 C88.69,324.768 89.138,324.992 89.782,324.992 C90.426,324.992 90.874,324.768 91.224,324.404 C91.77,323.83 92.022,322.85 92.022,321.464 C92.022,320.078 91.77,319.098 91.224,318.524 C90.874,318.16 90.426,317.936 89.782,317.936 C89.138,317.936 88.69,318.16 88.34,318.524 C87.794,319.098 87.542,320.078 87.542,321.464 Z M86.184,321.464 C86.184,320.218 86.394,319.07 86.996,318.174 C87.584,317.292 88.494,316.718 89.782,316.718 C91.07,316.718 91.98,317.292 92.568,318.174 C93.17,319.07 93.38,320.218 93.38,321.464 C93.38,322.71 93.17,323.858 92.568,324.754 C91.98,325.636 91.07,326.21 89.782,326.21 C88.494,326.21 87.584,325.636 86.996,324.754 C86.394,323.858 86.184,322.71 86.184,321.464 Z M96.068,321.464 C96.068,322.85 96.32,323.83 96.866,324.404 C97.216,324.768 97.664,324.992 98.308,324.992 C98.952,324.992 99.4,324.768 99.75,324.404 C100.296,323.83 100.548,322.85 100.548,321.464 C100.548,320.078 100.296,319.098 99.75,318.524 C99.4,318.16 98.952,317.936 98.308,317.936 C97.664,317.936 97.216,318.16 96.866,318.524 C96.32,319.098 96.068,320.078 96.068,321.464 Z M94.71,321.464 C94.71,320.218 94.92,319.07 95.522,318.174 C96.11,317.292 97.02,316.718 98.308,316.718 C99.596,316.718 100.506,317.292 101.094,318.174 C101.696,319.07 101.906,320.218 101.906,321.464 C101.906,322.71 101.696,323.858 101.094,324.754 C100.506,325.636 99.596,326.21 98.308,326.21 C97.02,326.21 96.11,325.636 95.522,324.754 C94.92,323.858 94.71,322.71 94.71,321.464 Z M104.594,321.464 C104.594,322.85 104.846,323.83 105.392,324.404 C105.742,324.768 106.19,324.992 106.834,324.992 C107.478,324.992 107.926,324.768 108.276,324.404 C108.822,323.83 109.074,322.85 109.074,321.464 C109.074,320.078 108.822,319.098 108.276,318.524 C107.926,318.16 107.478,317.936 106.834,317.936 C106.19,317.936 105.742,318.16 105.392,318.524 C104.846,319.098 104.594,320.078 104.594,321.464 Z M103.236,321.464 C103.236,320.218 103.446,319.07 104.048,318.174 C104.636,317.292 105.546,316.718 106.834,316.718 C108.122,316.718 109.032,317.292 109.62,318.174 C110.222,319.07 110.432,320.218 110.432,321.464 C110.432,322.71 110.222,323.858 109.62,324.754 C109.032,325.636 108.122,326.21 106.834,326.21 C105.546,326.21 104.636,325.636 104.048,324.754 C103.446,323.858 103.236,322.71 103.236,321.464 Z M113.12,321.464 C113.12,322.85 113.372,323.83 113.918,324.404 C114.268,324.768 114.716,324.992 115.36,324.992 C116.004,324.992 116.452,324.768 116.802,324.404 C117.348,323.83 117.6,322.85 117.6,321.464 C117.6,320.078 117.348,319.098 116.802,318.524 C116.452,318.16 116.004,317.936 115.36,317.936 C114.716,317.936 114.268,318.16 113.918,318.524 C113.372,319.098 113.12,320.078 113.12,321.464 Z M111.762,321.464 C111.762,320.218 111.972,319.07 112.574,318.174 C113.162,317.292 114.072,316.718 115.36,316.718 C116.648,316.718 117.558,317.292 118.146,318.174 C118.748,319.07 118.958,320.218 118.958,321.464 C118.958,322.71 118.748,323.858 118.146,324.754 C117.558,325.636 116.648,326.21 115.36,326.21 C114.072,326.21 113.162,325.636 112.574,324.754 C111.972,323.858 111.762,322.71 111.762,321.464 Z M121.646,321.464 C121.646,322.85 121.898,323.83 122.444,324.404 C122.794,324.768 123.242,324.992 123.886,324.992 C124.53,324.992 124.978,324.768 125.328,324.404 C125.874,323.83 126.126,322.85 126.126,321.464 C126.126,320.078 125.874,319.098 125.328,318.524 C124.978,318.16 124.53,317.936 123.886,317.936 C123.242,317.936 122.794,318.16 122.444,318.524 C121.898,319.098 121.646,320.078 121.646,321.464 Z M120.288,321.464 C120.288,320.218 120.498,319.07 121.1,318.174 C121.688,317.292 122.598,316.718 123.886,316.718 C125.174,316.718 126.084,317.292 126.672,318.174 C127.274,319.07 127.484,320.218 127.484,321.464 C127.484,322.71 127.274,323.858 126.672,324.754 C126.084,325.636 125.174,326.21 123.886,326.21 C122.598,326.21 121.688,325.636 121.1,324.754 C120.498,323.858 120.288,322.71 120.288,321.464 Z M133.714,321.03 C133.714,323.62 135.45,324.95 137.298,324.95 C139.146,324.95 140.882,323.62 140.882,321.03 C140.882,318.44 139.146,317.124 137.298,317.124 C135.45,317.124 133.714,318.44 133.714,321.03 Z M132.314,321.03 C132.314,317.712 134.806,315.864 137.298,315.864 C139.79,315.864 142.282,317.712 142.282,321.03 C142.282,324.348 139.79,326.21 137.298,326.21 C134.806,326.21 132.314,324.348 132.314,321.03 Z M145.334,328.66 L144.032,328.66 L144.032,319.266 L145.306,319.266 L145.306,320.316 C145.67,319.644 146.468,319.112 147.56,319.112 C149.576,319.112 150.654,320.666 150.654,322.626 C150.654,324.628 149.492,326.182 147.518,326.182 C146.482,326.182 145.698,325.692 145.334,325.09 L145.334,328.66 Z M149.31,322.626 C149.31,321.282 148.554,320.274 147.322,320.274 C146.118,320.274 145.32,321.282 145.32,322.626 C145.32,324.012 146.118,325.006 147.322,325.006 C148.54,325.006 149.31,324.012 149.31,322.626 Z M151.914,324.194 C151.914,322.99 152.796,322.318 153.958,322.15 L155.778,321.884 C156.184,321.828 156.296,321.618 156.296,321.38 C156.296,320.722 155.862,320.176 154.84,320.176 C153.916,320.176 153.398,320.75 153.314,321.534 L152.054,321.24 C152.194,319.952 153.356,319.056 154.812,319.056 C156.828,319.056 157.612,320.204 157.612,321.52 L157.612,324.894 C157.612,325.482 157.668,325.832 157.696,326 L156.408,326 C156.38,325.832 156.338,325.58 156.338,325.09 C156.044,325.566 155.372,326.21 154.168,326.21 C152.796,326.21 151.914,325.258 151.914,324.194 Z M154.35,325.104 C155.428,325.104 156.296,324.586 156.296,323.116 L156.296,322.808 L154.238,323.116 C153.678,323.2 153.258,323.522 153.258,324.124 C153.258,324.628 153.678,325.104 154.35,325.104 Z M162.484,320.274 C161.42,320.274 160.44,321.058 160.44,322.626 C160.44,324.166 161.406,324.992 162.498,324.992 C163.758,324.992 164.22,324.138 164.374,323.606 L165.536,324.11 C165.214,325.076 164.248,326.21 162.498,326.21 C160.538,326.21 159.096,324.67 159.096,322.626 C159.096,320.526 160.566,319.056 162.484,319.056 C164.276,319.056 165.2,320.176 165.48,321.198 L164.29,321.702 C164.122,321.044 163.632,320.274 162.484,320.274 Z M168.378,326 L167.076,326 L167.076,319.266 L168.378,319.266 L168.378,326 Z M166.782,316.718 C166.782,316.186 167.202,315.766 167.72,315.766 C168.252,315.766 168.672,316.186 168.672,316.718 C168.672,317.236 168.252,317.656 167.72,317.656 C167.202,317.656 166.782,317.236 166.782,316.718 Z M172.382,317.138 L172.382,319.266 L173.838,319.266 L173.838,320.456 L172.382,320.456 L172.382,323.956 C172.382,324.572 172.634,324.88 173.32,324.88 C173.488,324.88 173.726,324.852 173.838,324.824 L173.838,325.944 C173.726,325.986 173.39,326.07 172.942,326.07 C171.794,326.07 171.066,325.37 171.066,324.152 L171.066,320.456 L169.778,320.456 L169.778,319.266 L170.142,319.266 C170.87,319.266 171.178,318.818 171.178,318.23 L171.178,317.138 L172.382,317.138 Z M177.338,328.814 L175.896,328.814 L177.576,325.258 L174.678,319.266 L176.19,319.266 L178.29,323.914 L180.306,319.266 L181.72,319.266 L177.338,328.814 Z M189.252,326 L187.908,326 L187.908,319.602 L185.71,319.602 L185.71,318.636 C186.97,318.608 187.838,317.908 188.048,316.928 L189.252,316.928 L189.252,326 Z M194.222,320.792 C195.188,320.778 195.902,320.19 195.902,319.308 C195.902,318.496 195.244,317.852 194.222,317.852 C193.2,317.852 192.542,318.496 192.542,319.308 C192.542,320.19 193.256,320.778 194.222,320.792 Z M194.222,325.02 C195.44,325.02 196.126,324.348 196.126,323.494 C196.126,322.626 195.426,321.94 194.222,321.94 C193.018,321.94 192.318,322.626 192.318,323.494 C192.318,324.348 193.004,325.02 194.222,325.02 Z M194.222,326.21 C192.136,326.21 190.932,325.062 190.932,323.606 C190.932,322.5 191.688,321.688 192.654,321.366 C191.828,321.058 191.17,320.246 191.17,319.238 C191.17,317.754 192.486,316.718 194.222,316.718 C195.958,316.718 197.274,317.754 197.274,319.238 C197.274,320.218 196.63,321.058 195.79,321.366 C196.756,321.674 197.512,322.5 197.512,323.606 C197.512,325.062 196.308,326.21 194.222,326.21 Z M200.004,319.028 C200.004,319.672 200.48,320.134 201.082,320.134 C201.698,320.134 202.16,319.672 202.16,319.028 C202.16,318.398 201.698,317.936 201.082,317.936 C200.48,317.936 200.004,318.398 200.004,319.028 Z M198.842,319.028 C198.842,317.796 199.878,316.83 201.082,316.83 C202.286,316.83 203.336,317.796 203.336,319.028 C203.336,320.274 202.286,321.24 201.082,321.24 C199.878,321.24 198.842,320.274 198.842,319.028 Z M205.548,323.9 C205.548,324.544 206.024,325.006 206.626,325.006 C207.242,325.006 207.704,324.544 207.704,323.9 C207.704,323.27 207.242,322.808 206.626,322.808 C206.024,322.808 205.548,323.27 205.548,323.9 Z M204.386,323.9 C204.386,322.668 205.422,321.702 206.626,321.702 C207.83,321.702 208.88,322.668 208.88,323.9 C208.88,325.146 207.83,326.112 206.626,326.112 C205.422,326.112 204.386,325.146 204.386,323.9 Z M201.25,326 L199.962,326 L206.486,316.928 L207.746,316.928 L201.25,326 Z M7.322,344 L1.26,344 L1.26,334.074 L2.632,334.074 L2.632,342.712 L7.322,342.712 L7.322,344 Z M10.094,344 L8.792,344 L8.792,337.266 L10.094,337.266 L10.094,344 Z M8.498,334.718 C8.498,334.186 8.918,333.766 9.436,333.766 C9.968,333.766 10.388,334.186 10.388,334.718 C10.388,335.236 9.968,335.656 9.436,335.656 C8.918,335.656 8.498,335.236 8.498,334.718 Z M13.65,340.108 L13.65,344 L12.334,344 L12.334,337.266 L13.622,337.266 L13.622,338.232 C14.112,337.392 14.91,337.07 15.694,337.07 C17.304,337.07 18.102,338.232 18.102,339.73 L18.102,344 L16.786,344 L16.786,339.954 C16.786,339.016 16.394,338.26 15.218,338.26 C14.182,338.26 13.65,339.086 13.65,340.108 Z M21.056,339.94 L24.738,339.94 C24.71,338.974 24.08,338.218 22.89,338.218 C21.784,338.218 21.112,339.072 21.056,339.94 Z M24.934,341.69 L26.068,342.082 C25.69,343.272 24.612,344.21 23.044,344.21 C21.238,344.21 19.656,342.894 19.656,340.612 C19.656,338.498 21.182,337.056 22.876,337.056 C24.948,337.056 26.11,338.484 26.11,340.584 C26.11,340.752 26.096,340.92 26.082,341.004 L21.014,341.004 C21.042,342.208 21.91,343.048 23.044,343.048 C24.136,343.048 24.682,342.446 24.934,341.69 Z M31.234,343.104 C31.234,342.558 31.654,342.124 32.2,342.124 C32.746,342.124 33.18,342.558 33.18,343.104 C33.18,343.65 32.746,344.07 32.2,344.07 C31.654,344.07 31.234,343.65 31.234,343.104 Z M31.22,338.176 C31.22,337.63 31.64,337.196 32.186,337.196 C32.732,337.196 33.166,337.63 33.166,338.176 C33.166,338.722 32.732,339.142 32.186,339.142 C31.64,339.142 31.22,338.722 31.22,338.176 Z M45.024,344 L38.99,344 L38.99,334.074 L45.024,334.074 L45.024,335.348 L40.362,335.348 L40.362,338.4 L44.59,338.4 L44.59,339.688 L40.362,339.688 L40.362,342.726 L45.024,342.726 L45.024,344 Z M47.922,339.464 C47.922,340.85 48.174,341.83 48.72,342.404 C49.07,342.768 49.518,342.992 50.162,342.992 C50.806,342.992 51.254,342.768 51.604,342.404 C52.15,341.83 52.402,340.85 52.402,339.464 C52.402,338.078 52.15,337.098 51.604,336.524 C51.254,336.16 50.806,335.936 50.162,335.936 C49.518,335.936 49.07,336.16 48.72,336.524 C48.174,337.098 47.922,338.078 47.922,339.464 Z M46.564,339.464 C46.564,338.218 46.774,337.07 47.376,336.174 C47.964,335.292 48.874,334.718 50.162,334.718 C51.45,334.718 52.36,335.292 52.948,336.174 C53.55,337.07 53.76,338.218 53.76,339.464 C53.76,340.71 53.55,341.858 52.948,342.754 C52.36,343.636 51.45,344.21 50.162,344.21 C48.874,344.21 47.964,343.636 47.376,342.754 C46.774,341.858 46.564,340.71 46.564,339.464 Z M61.754,344 L55.72,344 L55.72,334.074 L61.754,334.074 L61.754,335.348 L57.092,335.348 L57.092,338.4 L61.32,338.4 L61.32,339.688 L57.092,339.688 L57.092,342.726 L61.754,342.726 L61.754,344 Z M64.652,339.464 C64.652,340.85 64.904,341.83 65.45,342.404 C65.8,342.768 66.248,342.992 66.892,342.992 C67.536,342.992 67.984,342.768 68.334,342.404 C68.88,341.83 69.132,340.85 69.132,339.464 C69.132,338.078 68.88,337.098 68.334,336.524 C67.984,336.16 67.536,335.936 66.892,335.936 C66.248,335.936 65.8,336.16 65.45,336.524 C64.904,337.098 64.652,338.078 64.652,339.464 Z M63.294,339.464 C63.294,338.218 63.504,337.07 64.106,336.174 C64.694,335.292 65.604,334.718 66.892,334.718 C68.18,334.718 69.09,335.292 69.678,336.174 C70.28,337.07 70.49,338.218 70.49,339.464 C70.49,340.71 70.28,341.858 69.678,342.754 C69.09,343.636 68.18,344.21 66.892,344.21 C65.604,344.21 64.694,343.636 64.106,342.754 C63.504,341.858 63.294,340.71 63.294,339.464 Z M78.484,344 L72.45,344 L72.45,334.074 L78.484,334.074 L78.484,335.348 L73.822,335.348 L73.822,338.4 L78.05,338.4 L78.05,339.688 L73.822,339.688 L73.822,342.726 L78.484,342.726 L78.484,344 Z M81.382,339.464 C81.382,340.85 81.634,341.83 82.18,342.404 C82.53,342.768 82.978,342.992 83.622,342.992 C84.266,342.992 84.714,342.768 85.064,342.404 C85.61,341.83 85.862,340.85 85.862,339.464 C85.862,338.078 85.61,337.098 85.064,336.524 C84.714,336.16 84.266,335.936 83.622,335.936 C82.978,335.936 82.53,336.16 82.18,336.524 C81.634,337.098 81.382,338.078 81.382,339.464 Z M80.024,339.464 C80.024,338.218 80.234,337.07 80.836,336.174 C81.424,335.292 82.334,334.718 83.622,334.718 C84.91,334.718 85.82,335.292 86.408,336.174 C87.01,337.07 87.22,338.218 87.22,339.464 C87.22,340.71 87.01,341.858 86.408,342.754 C85.82,343.636 84.91,344.21 83.622,344.21 C82.334,344.21 81.424,343.636 80.836,342.754 C80.234,341.858 80.024,340.71 80.024,339.464 Z" id="Color-(HEX)-Label-:" fill-opacity="0.38" fill="#000000"></path>
            </g>
        </g>
    </g>
</svg>