<?xml version="1.0" encoding="UTF-8"?>
<svg width="361px" height="181px" viewBox="0 0 361 181" version="1.1" xmlns="http://www.w3.org/2000/svg" xmlns:xlink="http://www.w3.org/1999/xlink">
    <!-- Generator: Sketch 48.2 (47327) - http://www.bohemiancoding.com/sketch -->
    <title>Group 12</title>
    <desc>Created with Sketch.</desc>
    <defs>
        <path d="M3.55833548,0.359806452 C1.65753548,0.359806452 0.119935484,1.89900645 0.119935484,3.79820645 L0.119935484,20.9214065 C0.119935484,22.8222065 1.65913548,24.3598065 3.55833548,24.3598065 L20.6815355,24.3598065 C22.5823355,24.3598065 24.1199355,22.8206065 24.1199355,20.9214065 L24.1199355,3.79820645 C24.1199355,1.89740645 22.5807355,0.359806452 20.6815355,0.359806452 L3.55833548,0.359806452 Z" id="path-1"></path>
        <linearGradient x1="50%" y1="116.404904%" x2="50%" y2="24.9502911%" id="linearGradient-3">
            <stop stop-color="#77DB80" offset="0%"></stop>
            <stop stop-color="#42B549" offset="100%"></stop>
        </linearGradient>
    </defs>
    <g id="CEKUNIFY-Website---Detail---Bottom-Navigation" stroke="none" stroke-width="1" fill="none" fill-rule="evenodd" transform="translate(-386.000000, -1659.000000)">
        <g id="Group-4-Copy" transform="translate(386.000000, 1559.500000)">
            <g id="Group-7" transform="translate(0.000000, 100.000000)">
                <g id="Group-12">
                    <rect id="Rectangle-7" fill="#F8F8F8" x="0.75" y="0.123437814" width="360" height="180" rx="4"></rect>
                    <g id="Group-6" transform="translate(131.250000, 76.123438)">
                        <g id="Group">
                            <g id="Page-1" transform="translate(72.250000, 0.704083)">
                                <g id="Group-3" transform="translate(0.000000, 0.360645)">
                                    <mask id="mask-2" fill="white">
                                        <use xlink:href="#path-1"></use>
                                    </mask>
                                    <g id="Clip-2"></g>
                                    <polygon id="Fill-1" fill="url(#linearGradient-3)" mask="url(#mask-2)" points="-8.866 34.5061935 34.268 34.5061935 34.268 -8.62696774 -8.866 -8.62696774"></polygon>
                                </g>
                                <path d="M18.8115126,8.17432548 C19.2020369,7.78380119 19.8352018,7.78380119 20.2257261,8.17432548 C20.6162504,8.56484977 20.6162504,9.19801475 20.2257261,9.58853904 L11.3874036,18.4268616 C10.9969034,18.8173618 10.3637861,18.8173894 9.9732518,18.4269234 L5.17499374,13.6295041 C4.78443531,13.2390139 4.78437997,12.6058489 5.17487013,12.2152905 C5.56536028,11.8247321 6.19852526,11.8246767 6.58908368,12.2151669 L10.680235,16.3056031 L18.8115126,8.17432548 Z" id="Stroke-4" fill="#FFFFFF" fill-rule="nonzero"></path>
                            </g>
                            <path d="M0.973514296,5.5619978 L0.973514296,22.6848778 C0.973514296,24.1708726 2.17668304,25.3734378 3.66207428,25.3734378 L20.7849543,25.3734378 C22.2712645,25.3734378 23.4735143,24.1707858 23.4735143,22.6848778 L23.4735143,5.5619978 C23.4735143,4.0762044 22.2705465,2.87343781 20.7849543,2.87343781 L3.66207428,2.87343781 C2.17607954,2.87343781 0.973514296,4.07660656 0.973514296,5.5619978 Z M-0.526485704,5.5619978 C-0.526485704,3.24834785 1.3474839,1.37343781 3.66207428,1.37343781 L20.7849543,1.37343781 C23.0989175,1.37343781 24.9735143,3.24772111 24.9735143,5.5619978 L24.9735143,22.6848778 C24.9735143,24.9991006 23.099804,26.8734378 20.7849543,26.8734378 L3.66207428,26.8734378 C1.34842434,26.8734378 -0.526485704,24.9994682 -0.526485704,22.6848778 L-0.526485704,5.5619978 Z" id="Stroke-4" fill="#BDBDBD" fill-rule="nonzero"></path>
                        </g>
                    </g>
                    <g id="#width-top-202B63D7-0EF3-4D99-A6CC-D0D0D7C0B629" transform="translate(126.473514, 46.500000)">
                        <rect id="line" fill="#FF5500" x="5" y="28" width="24" height="1"></rect>
                        <rect id="start" fill="#FF5500" x="5" y="26" width="1" height="5"></rect>
                        <rect id="end" fill="#FF5500" x="28" y="26" width="1" height="5"></rect>
                        <rect id="box" fill="#FF5500" x="0" y="0" width="35" height="22" rx="2"></rect>
                        <polygon id="arrow" fill="#FF5500" points="14 22 18 18 22 22 18 26"></polygon>
                        <path d="M4.69,9.504 C4.66599988,9.07199784 4.70999944,8.67200184 4.822,8.304 C4.93400056,7.93599816 5.10799882,7.61800134 5.344,7.35 C5.58000118,7.08199866 5.87399824,6.87200076 6.226,6.72 C6.57800176,6.56799924 6.97799776,6.492 7.426,6.492 C7.79400184,6.492 8.13999838,6.54599946 8.464,6.654 C8.78800162,6.76200054 9.0699988,6.91799898 9.31,7.122 C9.5500012,7.32600102 9.7399993,7.57999848 9.88,7.884 C10.0200007,8.18800152 10.09,8.539998 10.09,8.94 C10.09,9.31600188 10.0320006,9.64799856 9.916,9.936 C9.79999942,10.2240014 9.64600096,10.4819989 9.454,10.71 C9.26199904,10.9380011 9.04200124,11.1439991 8.794,11.328 C8.54599876,11.5120009 8.29000132,11.6879992 8.026,11.856 C7.76199868,12.0160008 7.49800132,12.1739992 7.234,12.33 C6.96999868,12.4860008 6.7280011,12.6519991 6.508,12.828 C6.2879989,13.0040009 6.10000078,13.193999 5.944,13.398 C5.78799922,13.602001 5.68600024,13.8359987 5.638,14.1 L10.006,14.1 L10.006,15 L4.45,15 C4.4900002,14.4959975 4.5799993,14.0660018 4.72,13.71 C4.8600007,13.3539982 5.03799892,13.0440013 5.254,12.78 C5.47000108,12.5159987 5.71399864,12.284001 5.986,12.084 C6.25800136,11.883999 6.54199852,11.6960009 6.838,11.52 C7.1980018,11.2959989 7.51399864,11.0900009 7.786,10.902 C8.05800136,10.7139991 8.2839991,10.524001 8.464,10.332 C8.6440009,10.139999 8.77999954,9.93200112 8.872,9.708 C8.96400046,9.48399888 9.01,9.22400148 9.01,8.928 C9.01,8.69599884 8.96600044,8.48600094 8.878,8.298 C8.78999956,8.10999906 8.67200074,7.94800068 8.524,7.812 C8.37599926,7.67599932 8.202001,7.57200036 8.002,7.5 C7.801999,7.42799964 7.59000112,7.392 7.366,7.392 C7.06999852,7.392 6.81600106,7.45399938 6.604,7.578 C6.39199894,7.70200062 6.21800068,7.863999 6.082,8.064 C5.94599932,8.264001 5.8480003,8.48999874 5.788,8.742 C5.7279997,8.99400126 5.70199996,9.24799872 5.71,9.504 L4.69,9.504 Z M14.902,12.108 L14.902,7.944 L14.878,7.944 L12.046,12.108 L14.902,12.108 Z M15.862,12.108 L17.014,12.108 L17.014,13.008 L15.862,13.008 L15.862,15 L14.902,15 L14.902,13.008 L11.17,13.008 L11.17,12.024 L15.046,6.492 L15.862,6.492 L15.862,12.108 Z M18.31,8.796 L19.33,8.796 L19.33,9.636 L19.354,9.636 C19.5220008,9.29199828 19.7859982,9.04200078 20.146,8.886 C20.5060018,8.72999922 20.9019978,8.652 21.334,8.652 C21.8140024,8.652 22.2319982,8.73999912 22.588,8.916 C22.9440018,9.09200088 23.2399988,9.3299985 23.476,9.63 C23.7120012,9.9300015 23.8899994,10.275998 24.01,10.668 C24.1300006,11.060002 24.19,11.4759978 24.19,11.916 C24.19,12.3560022 24.1320006,12.771998 24.016,13.164 C23.8999994,13.556002 23.7240012,13.8979985 23.488,14.19 C23.2519988,14.4820015 22.9560018,14.7119992 22.6,14.88 C22.2439982,15.0480008 21.8300024,15.132 21.358,15.132 C21.2059992,15.132 21.0360009,15.1160002 20.848,15.084 C20.6599991,15.0519998 20.4740009,15.0000004 20.29,14.928 C20.1059991,14.8559996 19.9320008,14.7580006 19.768,14.634 C19.6039992,14.5099994 19.4660006,14.3560009 19.354,14.172 L19.33,14.172 L19.33,17.364 L18.31,17.364 L18.31,8.796 Z M23.11,11.844 C23.11,11.5559986 23.0720004,11.2740014 22.996,10.998 C22.9199996,10.7219986 22.8040008,10.4760011 22.648,10.26 C22.4919992,10.0439989 22.2920012,9.87200064 22.048,9.744 C21.8039988,9.61599936 21.5180016,9.552 21.19,9.552 C20.8459983,9.552 20.5540012,9.61999932 20.314,9.756 C20.0739988,9.89200068 19.8780008,10.0699989 19.726,10.29 C19.5739992,10.5100011 19.4640003,10.7599986 19.396,11.04 C19.3279997,11.3200014 19.294,11.6039986 19.294,11.892 C19.294,12.1960015 19.3299996,12.4899986 19.402,12.774 C19.4740004,13.0580014 19.5879992,13.3079989 19.744,13.524 C19.9000008,13.7400011 20.1019988,13.9139993 20.35,14.046 C20.5980012,14.1780007 20.8979982,14.244 21.25,14.244 C21.6020018,14.244 21.8959988,14.1760007 22.132,14.04 C22.3680012,13.9039993 22.5579993,13.7240011 22.702,13.5 C22.8460007,13.2759989 22.9499997,13.0200014 23.014,12.732 C23.0780003,12.4439986 23.11,12.1480015 23.11,11.844 Z M27.058,11.736 L24.898,8.796 L26.206,8.796 L27.694,10.968 L29.242,8.796 L30.466,8.796 L28.33,11.652 L30.73,15 L29.422,15 L27.694,12.432 L25.966,15 L24.73,15 L27.058,11.736 Z" id="Text" fill="#FFFFFF"></path>
                    </g>
                    <g id="#height-left-202B63D7-0EF3-4D99-A6CC-D0D0D7C0B629" transform="translate(86.000000, 78.246876)">
                        <rect id="line" fill="#FF5500" x="41" y="0" width="1" height="24"></rect>
                        <rect id="start" fill="#FF5500" x="39" y="0" width="5" height="1"></rect>
                        <rect id="end" fill="#FF5500" x="39" y="23" width="5" height="1"></rect>
                        <rect id="box" fill="#FF5500" x="0" y="1" width="35" height="22" rx="2"></rect>
                        <polygon id="arrow" fill="#FF5500" points="31 12 35 8 39 12 35 16"></polygon>
                        <path d="M4.69,10.504 C4.66599988,10.0719978 4.70999944,9.67200184 4.822,9.304 C4.93400056,8.93599816 5.10799882,8.61800134 5.344,8.35 C5.58000118,8.08199866 5.87399824,7.87200076 6.226,7.72 C6.57800176,7.56799924 6.97799776,7.492 7.426,7.492 C7.79400184,7.492 8.13999838,7.54599946 8.464,7.654 C8.78800162,7.76200054 9.0699988,7.91799898 9.31,8.122 C9.5500012,8.32600102 9.7399993,8.57999848 9.88,8.884 C10.0200007,9.18800152 10.09,9.539998 10.09,9.94 C10.09,10.3160019 10.0320006,10.6479986 9.916,10.936 C9.79999942,11.2240014 9.64600096,11.4819989 9.454,11.71 C9.26199904,11.9380011 9.04200124,12.1439991 8.794,12.328 C8.54599876,12.5120009 8.29000132,12.6879992 8.026,12.856 C7.76199868,13.0160008 7.49800132,13.1739992 7.234,13.33 C6.96999868,13.4860008 6.7280011,13.6519991 6.508,13.828 C6.2879989,14.0040009 6.10000078,14.193999 5.944,14.398 C5.78799922,14.602001 5.68600024,14.8359987 5.638,15.1 L10.006,15.1 L10.006,16 L4.45,16 C4.4900002,15.4959975 4.5799993,15.0660018 4.72,14.71 C4.8600007,14.3539982 5.03799892,14.0440013 5.254,13.78 C5.47000108,13.5159987 5.71399864,13.284001 5.986,13.084 C6.25800136,12.883999 6.54199852,12.6960009 6.838,12.52 C7.1980018,12.2959989 7.51399864,12.0900009 7.786,11.902 C8.05800136,11.7139991 8.2839991,11.524001 8.464,11.332 C8.6440009,11.139999 8.77999954,10.9320011 8.872,10.708 C8.96400046,10.4839989 9.01,10.2240015 9.01,9.928 C9.01,9.69599884 8.96600044,9.48600094 8.878,9.298 C8.78999956,9.10999906 8.67200074,8.94800068 8.524,8.812 C8.37599926,8.67599932 8.202001,8.57200036 8.002,8.5 C7.801999,8.42799964 7.59000112,8.392 7.366,8.392 C7.06999852,8.392 6.81600106,8.45399938 6.604,8.578 C6.39199894,8.70200062 6.21800068,8.863999 6.082,9.064 C5.94599932,9.264001 5.8480003,9.48999874 5.788,9.742 C5.7279997,9.99400126 5.70199996,10.2479987 5.71,10.504 L4.69,10.504 Z M14.902,13.108 L14.902,8.944 L14.878,8.944 L12.046,13.108 L14.902,13.108 Z M15.862,13.108 L17.014,13.108 L17.014,14.008 L15.862,14.008 L15.862,16 L14.902,16 L14.902,14.008 L11.17,14.008 L11.17,13.024 L15.046,7.492 L15.862,7.492 L15.862,13.108 Z M18.31,9.796 L19.33,9.796 L19.33,10.636 L19.354,10.636 C19.5220008,10.2919983 19.7859982,10.0420008 20.146,9.886 C20.5060018,9.72999922 20.9019978,9.652 21.334,9.652 C21.8140024,9.652 22.2319982,9.73999912 22.588,9.916 C22.9440018,10.0920009 23.2399988,10.3299985 23.476,10.63 C23.7120012,10.9300015 23.8899994,11.275998 24.01,11.668 C24.1300006,12.060002 24.19,12.4759978 24.19,12.916 C24.19,13.3560022 24.1320006,13.771998 24.016,14.164 C23.8999994,14.556002 23.7240012,14.8979985 23.488,15.19 C23.2519988,15.4820015 22.9560018,15.7119992 22.6,15.88 C22.2439982,16.0480008 21.8300024,16.132 21.358,16.132 C21.2059992,16.132 21.0360009,16.1160002 20.848,16.084 C20.6599991,16.0519998 20.4740009,16.0000004 20.29,15.928 C20.1059991,15.8559996 19.9320008,15.7580006 19.768,15.634 C19.6039992,15.5099994 19.4660006,15.3560009 19.354,15.172 L19.33,15.172 L19.33,18.364 L18.31,18.364 L18.31,9.796 Z M23.11,12.844 C23.11,12.5559986 23.0720004,12.2740014 22.996,11.998 C22.9199996,11.7219986 22.8040008,11.4760011 22.648,11.26 C22.4919992,11.0439989 22.2920012,10.8720006 22.048,10.744 C21.8039988,10.6159994 21.5180016,10.552 21.19,10.552 C20.8459983,10.552 20.5540012,10.6199993 20.314,10.756 C20.0739988,10.8920007 19.8780008,11.0699989 19.726,11.29 C19.5739992,11.5100011 19.4640003,11.7599986 19.396,12.04 C19.3279997,12.3200014 19.294,12.6039986 19.294,12.892 C19.294,13.1960015 19.3299996,13.4899986 19.402,13.774 C19.4740004,14.0580014 19.5879992,14.3079989 19.744,14.524 C19.9000008,14.7400011 20.1019988,14.9139993 20.35,15.046 C20.5980012,15.1780007 20.8979982,15.244 21.25,15.244 C21.6020018,15.244 21.8959988,15.1760007 22.132,15.04 C22.3680012,14.9039993 22.5579993,14.7240011 22.702,14.5 C22.8460007,14.2759989 22.9499997,14.0200014 23.014,13.732 C23.0780003,13.4439986 23.11,13.1480015 23.11,12.844 Z M27.058,12.736 L24.898,9.796 L26.206,9.796 L27.694,11.968 L29.242,9.796 L30.466,9.796 L28.33,12.652 L30.73,16 L29.422,16 L27.694,13.432 L25.966,16 L24.73,16 L27.058,12.736 Z" id="Text" fill="#FFFFFF"></path>
                    </g>
                    <g id="#width-top-43814820-44A7-4039-A2FD-062A93070C39" transform="translate(198.619935, 45.500000)">
                        <rect id="line" fill="#FF5500" x="5" y="28" width="24" height="1"></rect>
                        <rect id="start" fill="#FF5500" x="5" y="26" width="1" height="5"></rect>
                        <rect id="end" fill="#FF5500" x="28" y="26" width="1" height="5"></rect>
                        <rect id="box" fill="#FF5500" x="0" y="0" width="35" height="22" rx="2"></rect>
                        <polygon id="arrow" fill="#FF5500" points="14 22 18 18 22 22 18 26"></polygon>
                        <path d="M4.69,9.504 C4.66599988,9.07199784 4.70999944,8.67200184 4.822,8.304 C4.93400056,7.93599816 5.10799882,7.61800134 5.344,7.35 C5.58000118,7.08199866 5.87399824,6.87200076 6.226,6.72 C6.57800176,6.56799924 6.97799776,6.492 7.426,6.492 C7.79400184,6.492 8.13999838,6.54599946 8.464,6.654 C8.78800162,6.76200054 9.0699988,6.91799898 9.31,7.122 C9.5500012,7.32600102 9.7399993,7.57999848 9.88,7.884 C10.0200007,8.18800152 10.09,8.539998 10.09,8.94 C10.09,9.31600188 10.0320006,9.64799856 9.916,9.936 C9.79999942,10.2240014 9.64600096,10.4819989 9.454,10.71 C9.26199904,10.9380011 9.04200124,11.1439991 8.794,11.328 C8.54599876,11.5120009 8.29000132,11.6879992 8.026,11.856 C7.76199868,12.0160008 7.49800132,12.1739992 7.234,12.33 C6.96999868,12.4860008 6.7280011,12.6519991 6.508,12.828 C6.2879989,13.0040009 6.10000078,13.193999 5.944,13.398 C5.78799922,13.602001 5.68600024,13.8359987 5.638,14.1 L10.006,14.1 L10.006,15 L4.45,15 C4.4900002,14.4959975 4.5799993,14.0660018 4.72,13.71 C4.8600007,13.3539982 5.03799892,13.0440013 5.254,12.78 C5.47000108,12.5159987 5.71399864,12.284001 5.986,12.084 C6.25800136,11.883999 6.54199852,11.6960009 6.838,11.52 C7.1980018,11.2959989 7.51399864,11.0900009 7.786,10.902 C8.05800136,10.7139991 8.2839991,10.524001 8.464,10.332 C8.6440009,10.139999 8.77999954,9.93200112 8.872,9.708 C8.96400046,9.48399888 9.01,9.22400148 9.01,8.928 C9.01,8.69599884 8.96600044,8.48600094 8.878,8.298 C8.78999956,8.10999906 8.67200074,7.94800068 8.524,7.812 C8.37599926,7.67599932 8.202001,7.57200036 8.002,7.5 C7.801999,7.42799964 7.59000112,7.392 7.366,7.392 C7.06999852,7.392 6.81600106,7.45399938 6.604,7.578 C6.39199894,7.70200062 6.21800068,7.863999 6.082,8.064 C5.94599932,8.264001 5.8480003,8.48999874 5.788,8.742 C5.7279997,8.99400126 5.70199996,9.24799872 5.71,9.504 L4.69,9.504 Z M14.902,12.108 L14.902,7.944 L14.878,7.944 L12.046,12.108 L14.902,12.108 Z M15.862,12.108 L17.014,12.108 L17.014,13.008 L15.862,13.008 L15.862,15 L14.902,15 L14.902,13.008 L11.17,13.008 L11.17,12.024 L15.046,6.492 L15.862,6.492 L15.862,12.108 Z M18.31,8.796 L19.33,8.796 L19.33,9.636 L19.354,9.636 C19.5220008,9.29199828 19.7859982,9.04200078 20.146,8.886 C20.5060018,8.72999922 20.9019978,8.652 21.334,8.652 C21.8140024,8.652 22.2319982,8.73999912 22.588,8.916 C22.9440018,9.09200088 23.2399988,9.3299985 23.476,9.63 C23.7120012,9.9300015 23.8899994,10.275998 24.01,10.668 C24.1300006,11.060002 24.19,11.4759978 24.19,11.916 C24.19,12.3560022 24.1320006,12.771998 24.016,13.164 C23.8999994,13.556002 23.7240012,13.8979985 23.488,14.19 C23.2519988,14.4820015 22.9560018,14.7119992 22.6,14.88 C22.2439982,15.0480008 21.8300024,15.132 21.358,15.132 C21.2059992,15.132 21.0360009,15.1160002 20.848,15.084 C20.6599991,15.0519998 20.4740009,15.0000004 20.29,14.928 C20.1059991,14.8559996 19.9320008,14.7580006 19.768,14.634 C19.6039992,14.5099994 19.4660006,14.3560009 19.354,14.172 L19.33,14.172 L19.33,17.364 L18.31,17.364 L18.31,8.796 Z M23.11,11.844 C23.11,11.5559986 23.0720004,11.2740014 22.996,10.998 C22.9199996,10.7219986 22.8040008,10.4760011 22.648,10.26 C22.4919992,10.0439989 22.2920012,9.87200064 22.048,9.744 C21.8039988,9.61599936 21.5180016,9.552 21.19,9.552 C20.8459983,9.552 20.5540012,9.61999932 20.314,9.756 C20.0739988,9.89200068 19.8780008,10.0699989 19.726,10.29 C19.5739992,10.5100011 19.4640003,10.7599986 19.396,11.04 C19.3279997,11.3200014 19.294,11.6039986 19.294,11.892 C19.294,12.1960015 19.3299996,12.4899986 19.402,12.774 C19.4740004,13.0580014 19.5879992,13.3079989 19.744,13.524 C19.9000008,13.7400011 20.1019988,13.9139993 20.35,14.046 C20.5980012,14.1780007 20.8979982,14.244 21.25,14.244 C21.6020018,14.244 21.8959988,14.1760007 22.132,14.04 C22.3680012,13.9039993 22.5579993,13.7240011 22.702,13.5 C22.8460007,13.2759989 22.9499997,13.0200014 23.014,12.732 C23.0780003,12.4439986 23.11,12.1480015 23.11,11.844 Z M27.058,11.736 L24.898,8.796 L26.206,8.796 L27.694,10.968 L29.242,8.796 L30.466,8.796 L28.33,11.652 L30.73,15 L29.422,15 L27.694,12.432 L25.966,15 L24.73,15 L27.058,11.736 Z" id="Text" fill="#FFFFFF"></path>
                    </g>
                    <g id="#height-right-43814820-44A7-4039-A2FD-062A93070C39" transform="translate(229.000000, 77.547972)">
                        <rect id="line" fill="#FF5500" x="2" y="0" width="1" height="24"></rect>
                        <rect id="start" fill="#FF5500" x="0" y="0" width="5" height="1"></rect>
                        <rect id="end" fill="#FF5500" x="0" y="23" width="5" height="1"></rect>
                        <rect id="box" fill="#FF5500" x="9" y="1" width="35" height="22" rx="2"></rect>
                        <polygon id="arrow" fill="#FF5500" points="5 12 9 8 13 12 9 16"></polygon>
                        <path d="M13.69,10.504 C13.6659999,10.0719978 13.7099994,9.67200184 13.822,9.304 C13.9340006,8.93599816 14.1079988,8.61800134 14.344,8.35 C14.5800012,8.08199866 14.8739982,7.87200076 15.226,7.72 C15.5780018,7.56799924 15.9779978,7.492 16.426,7.492 C16.7940018,7.492 17.1399984,7.54599946 17.464,7.654 C17.7880016,7.76200054 18.0699988,7.91799898 18.31,8.122 C18.5500012,8.32600102 18.7399993,8.57999848 18.88,8.884 C19.0200007,9.18800152 19.09,9.539998 19.09,9.94 C19.09,10.3160019 19.0320006,10.6479986 18.916,10.936 C18.7999994,11.2240014 18.646001,11.4819989 18.454,11.71 C18.261999,11.9380011 18.0420012,12.1439991 17.794,12.328 C17.5459988,12.5120009 17.2900013,12.6879992 17.026,12.856 C16.7619987,13.0160008 16.4980013,13.1739992 16.234,13.33 C15.9699987,13.4860008 15.7280011,13.6519991 15.508,13.828 C15.2879989,14.0040009 15.1000008,14.193999 14.944,14.398 C14.7879992,14.602001 14.6860002,14.8359987 14.638,15.1 L19.006,15.1 L19.006,16 L13.45,16 C13.4900002,15.4959975 13.5799993,15.0660018 13.72,14.71 C13.8600007,14.3539982 14.0379989,14.0440013 14.254,13.78 C14.4700011,13.5159987 14.7139986,13.284001 14.986,13.084 C15.2580014,12.883999 15.5419985,12.6960009 15.838,12.52 C16.1980018,12.2959989 16.5139986,12.0900009 16.786,11.902 C17.0580014,11.7139991 17.2839991,11.524001 17.464,11.332 C17.6440009,11.139999 17.7799995,10.9320011 17.872,10.708 C17.9640005,10.4839989 18.01,10.2240015 18.01,9.928 C18.01,9.69599884 17.9660004,9.48600094 17.878,9.298 C17.7899996,9.10999906 17.6720007,8.94800068 17.524,8.812 C17.3759993,8.67599932 17.202001,8.57200036 17.002,8.5 C16.801999,8.42799964 16.5900011,8.392 16.366,8.392 C16.0699985,8.392 15.8160011,8.45399938 15.604,8.578 C15.3919989,8.70200062 15.2180007,8.863999 15.082,9.064 C14.9459993,9.264001 14.8480003,9.48999874 14.788,9.742 C14.7279997,9.99400126 14.702,10.2479987 14.71,10.504 L13.69,10.504 Z M23.902,13.108 L23.902,8.944 L23.878,8.944 L21.046,13.108 L23.902,13.108 Z M24.862,13.108 L26.014,13.108 L26.014,14.008 L24.862,14.008 L24.862,16 L23.902,16 L23.902,14.008 L20.17,14.008 L20.17,13.024 L24.046,7.492 L24.862,7.492 L24.862,13.108 Z M27.31,9.796 L28.33,9.796 L28.33,10.636 L28.354,10.636 C28.5220008,10.2919983 28.7859982,10.0420008 29.146,9.886 C29.5060018,9.72999922 29.9019978,9.652 30.334,9.652 C30.8140024,9.652 31.2319982,9.73999912 31.588,9.916 C31.9440018,10.0920009 32.2399988,10.3299985 32.476,10.63 C32.7120012,10.9300015 32.8899994,11.275998 33.01,11.668 C33.1300006,12.060002 33.19,12.4759978 33.19,12.916 C33.19,13.3560022 33.1320006,13.771998 33.016,14.164 C32.8999994,14.556002 32.7240012,14.8979985 32.488,15.19 C32.2519988,15.4820015 31.9560018,15.7119992 31.6,15.88 C31.2439982,16.0480008 30.8300024,16.132 30.358,16.132 C30.2059992,16.132 30.0360009,16.1160002 29.848,16.084 C29.6599991,16.0519998 29.4740009,16.0000004 29.29,15.928 C29.1059991,15.8559996 28.9320008,15.7580006 28.768,15.634 C28.6039992,15.5099994 28.4660006,15.3560009 28.354,15.172 L28.33,15.172 L28.33,18.364 L27.31,18.364 L27.31,9.796 Z M32.11,12.844 C32.11,12.5559986 32.0720004,12.2740014 31.996,11.998 C31.9199996,11.7219986 31.8040008,11.4760011 31.648,11.26 C31.4919992,11.0439989 31.2920012,10.8720006 31.048,10.744 C30.8039988,10.6159994 30.5180016,10.552 30.19,10.552 C29.8459983,10.552 29.5540012,10.6199993 29.314,10.756 C29.0739988,10.8920007 28.8780008,11.0699989 28.726,11.29 C28.5739992,11.5100011 28.4640003,11.7599986 28.396,12.04 C28.3279997,12.3200014 28.294,12.6039986 28.294,12.892 C28.294,13.1960015 28.3299996,13.4899986 28.402,13.774 C28.4740004,14.0580014 28.5879992,14.3079989 28.744,14.524 C28.9000008,14.7400011 29.1019988,14.9139993 29.35,15.046 C29.5980012,15.1780007 29.8979982,15.244 30.25,15.244 C30.6020018,15.244 30.8959988,15.1760007 31.132,15.04 C31.3680012,14.9039993 31.5579993,14.7240011 31.702,14.5 C31.8460007,14.2759989 31.9499997,14.0200014 32.014,13.732 C32.0780003,13.4439986 32.11,13.1480015 32.11,12.844 Z M36.058,12.736 L33.898,9.796 L35.206,9.796 L36.694,11.968 L38.242,9.796 L39.466,9.796 L37.33,12.652 L39.73,16 L38.422,16 L36.694,13.432 L34.966,16 L33.73,16 L36.058,12.736 Z" id="Text" fill="#FFFFFF"></path>
                    </g>
                </g>
            </g>
        </g>
    </g>
</svg>