<svg xmlns="http://www.w3.org/2000/svg" xmlns:xlink="http://www.w3.org/1999/xlink" width="361" height="181" viewBox="0 0 361 181">
    <defs>
        <path id="a" d="M3.725.36A3.603 3.603 0 0 0 .12 3.965v17.951a3.603 3.603 0 0 0 3.605 3.605h17.951a3.603 3.603 0 0 0 3.605-3.605V3.965A3.603 3.603 0 0 0 21.676.36H3.725z"/>
        <linearGradient id="b" x1="50%" x2="50%" y1="116.405%" y2="24.95%">
            <stop offset="0%" stop-color="#77DB80"/>
            <stop offset="100%" stop-color="#42B549"/>
        </linearGradient>
    </defs>
    <g fill="none" fill-rule="evenodd">
        <rect width="360" height="180" x=".75" y=".123" fill="#F8F8F8" rx="4"/>
        <g transform="translate(203.5 77.188)">
            <mask id="c" fill="#fff">
                <use xlink:href="#a"/>
            </mask>
            <path fill="url(#b)" d="M-8.866 34.506h43.134V-8.627H-8.866z" mask="url(#c)"/>
        </g>
        <path stroke="#FFF" stroke-linecap="round" stroke-linejoin="round" stroke-width="2" d="M223.019 85.709l-8.839 8.838-4.798-4.797"/>
        <path stroke="#BDBDBD" stroke-width="1.5" d="M131.474 81.685a3.437 3.437 0 0 1 3.438-3.438h17.123c1.9 0 3.439 1.538 3.439 3.438v17.123c0 1.9-1.538 3.439-3.439 3.439h-17.123a3.437 3.437 0 0 1-3.438-3.439V81.685z"/>
    </g>
</svg>
