<?xml version="1.0" encoding="UTF-8"?>
<svg width="361px" height="181px" viewBox="0 0 361 181" version="1.1" xmlns="http://www.w3.org/2000/svg" xmlns:xlink="http://www.w3.org/1999/xlink">
    <!-- Generator: Sketch 48.2 (47327) - http://www.bohemiancoding.com/sketch -->
    <title>Group 18</title>
    <desc>Created with Sketch.</desc>
    <defs>
        <linearGradient x1="50%" y1="0%" x2="50%" y2="137.685033%" id="linearGradient-1">
            <stop stop-color="#42B549" offset="0%"></stop>
            <stop stop-color="#87D58B" offset="100%"></stop>
        </linearGradient>
    </defs>
    <g id="CEKUNIFY-Website---Detail---Bottom-Navigation" stroke="none" stroke-width="1" fill="none" fill-rule="evenodd" transform="translate(-779.000000, -1659.000000)">
        <g id="Group-4-Copy" transform="translate(386.000000, 1559.500000)">
            <g id="Group-16" transform="translate(393.000000, 100.000000)">
                <g id="Group-18">
                    <g id="Group-13">
                        <g id="Group-7">
                            <g id="Group-17">
                                <rect id="Rectangle-7" fill="#F8F8F8" x="0.75" y="0.123437814" width="360" height="180" rx="4"></rect>
                                <circle id="Oval" fill="url(#linearGradient-1)" cx="218.047317" cy="90.2333277" r="9.5"></circle>
                                <path d="M218.047317,103.483328 C210.729544,103.483328 204.797317,97.5511006 204.797317,90.2333277 C204.797317,82.9155548 210.729544,76.9833277 218.047317,76.9833277 C225.36509,76.9833277 231.297317,82.9155548 231.297317,90.2333277 C231.297317,97.5511006 225.36509,103.483328 218.047317,103.483328 Z M218.047317,101.983328 C224.536663,101.983328 229.797317,96.7226735 229.797317,90.2333277 C229.797317,83.7439819 224.536663,78.4833277 218.047317,78.4833277 C211.557971,78.4833277 206.297317,83.7439819 206.297317,90.2333277 C206.297317,96.7226735 211.557971,101.983328 218.047317,101.983328 Z" id="Oval-Copy" fill="#42B549" fill-rule="nonzero"></path>
                                <path d="M144.218692,103.483328 C136.900919,103.483328 130.968692,97.5511006 130.968692,90.2333277 C130.968692,82.9155548 136.900919,76.9833277 144.218692,76.9833277 C151.536465,76.9833277 157.468692,82.9155548 157.468692,90.2333277 C157.468692,97.5511006 151.536465,103.483328 144.218692,103.483328 Z M144.218692,101.983328 C150.708038,101.983328 155.968692,96.7226735 155.968692,90.2333277 C155.968692,83.7439819 150.708038,78.4833277 144.218692,78.4833277 C137.729346,78.4833277 132.468692,83.7439819 132.468692,90.2333277 C132.468692,96.7226735 137.729346,101.983328 144.218692,101.983328 Z" id="Oval-Copy" fill="#BDBDBD" fill-rule="nonzero"></path>
                                <rect id="line" fill="#FF5500" x="131.718692" y="73.5" width="25" height="1"></rect>
                                <rect id="box" fill="#FF5500" x="126.718692" y="45.5" width="35" height="22" rx="2"></rect>
                                <rect id="box" fill="#FF5500" x="87" y="79.7333277" width="35" height="22" rx="2"></rect>
                                <rect id="box" fill="#FF5500" x="241" y="79.2333277" width="35" height="22" rx="2"></rect>
                                <rect id="box" fill="#FF5500" x="200.547317" y="45.5" width="35" height="22" rx="2"></rect>
                            </g>
                        </g>
                    </g>
                    <g id="Group-8-Copy" transform="translate(130.750000, 75.623438)">
                        <g id="Group" transform="translate(73.797317, 0.609890)"></g>
                    </g>
                    <g id="#width-top-59DE0611-C82A-464C-AD3F-AF7034793CA6" transform="translate(126.718692, 45.500000)">
                        <rect id="start" fill="#FF5500" x="5" y="26" width="1" height="5"></rect>
                        <rect id="end" fill="#FF5500" x="29" y="26" width="1" height="5"></rect>
                        <polygon id="arrow" fill="#FF5500" points="14 22 18 18 22 22 18 26"></polygon>
                        <path d="M4.69,9.504 C4.66599988,9.07199784 4.70999944,8.67200184 4.822,8.304 C4.93400056,7.93599816 5.10799882,7.61800134 5.344,7.35 C5.58000118,7.08199866 5.87399824,6.87200076 6.226,6.72 C6.57800176,6.56799924 6.97799776,6.492 7.426,6.492 C7.79400184,6.492 8.13999838,6.54599946 8.464,6.654 C8.78800162,6.76200054 9.0699988,6.91799898 9.31,7.122 C9.5500012,7.32600102 9.7399993,7.57999848 9.88,7.884 C10.0200007,8.18800152 10.09,8.539998 10.09,8.94 C10.09,9.31600188 10.0320006,9.64799856 9.916,9.936 C9.79999942,10.2240014 9.64600096,10.4819989 9.454,10.71 C9.26199904,10.9380011 9.04200124,11.1439991 8.794,11.328 C8.54599876,11.5120009 8.29000132,11.6879992 8.026,11.856 C7.76199868,12.0160008 7.49800132,12.1739992 7.234,12.33 C6.96999868,12.4860008 6.7280011,12.6519991 6.508,12.828 C6.2879989,13.0040009 6.10000078,13.193999 5.944,13.398 C5.78799922,13.602001 5.68600024,13.8359987 5.638,14.1 L10.006,14.1 L10.006,15 L4.45,15 C4.4900002,14.4959975 4.5799993,14.0660018 4.72,13.71 C4.8600007,13.3539982 5.03799892,13.0440013 5.254,12.78 C5.47000108,12.5159987 5.71399864,12.284001 5.986,12.084 C6.25800136,11.883999 6.54199852,11.6960009 6.838,11.52 C7.1980018,11.2959989 7.51399864,11.0900009 7.786,10.902 C8.05800136,10.7139991 8.2839991,10.524001 8.464,10.332 C8.6440009,10.139999 8.77999954,9.93200112 8.872,9.708 C8.96400046,9.48399888 9.01,9.22400148 9.01,8.928 C9.01,8.69599884 8.96600044,8.48600094 8.878,8.298 C8.78999956,8.10999906 8.67200074,7.94800068 8.524,7.812 C8.37599926,7.67599932 8.202001,7.57200036 8.002,7.5 C7.801999,7.42799964 7.59000112,7.392 7.366,7.392 C7.06999852,7.392 6.81600106,7.45399938 6.604,7.578 C6.39199894,7.70200062 6.21800068,7.863999 6.082,8.064 C5.94599932,8.264001 5.8480003,8.48999874 5.788,8.742 C5.7279997,8.99400126 5.70199996,9.24799872 5.71,9.504 L4.69,9.504 Z M14.902,12.108 L14.902,7.944 L14.878,7.944 L12.046,12.108 L14.902,12.108 Z M15.862,12.108 L17.014,12.108 L17.014,13.008 L15.862,13.008 L15.862,15 L14.902,15 L14.902,13.008 L11.17,13.008 L11.17,12.024 L15.046,6.492 L15.862,6.492 L15.862,12.108 Z M18.31,8.796 L19.33,8.796 L19.33,9.636 L19.354,9.636 C19.5220008,9.29199828 19.7859982,9.04200078 20.146,8.886 C20.5060018,8.72999922 20.9019978,8.652 21.334,8.652 C21.8140024,8.652 22.2319982,8.73999912 22.588,8.916 C22.9440018,9.09200088 23.2399988,9.3299985 23.476,9.63 C23.7120012,9.9300015 23.8899994,10.275998 24.01,10.668 C24.1300006,11.060002 24.19,11.4759978 24.19,11.916 C24.19,12.3560022 24.1320006,12.771998 24.016,13.164 C23.8999994,13.556002 23.7240012,13.8979985 23.488,14.19 C23.2519988,14.4820015 22.9560018,14.7119992 22.6,14.88 C22.2439982,15.0480008 21.8300024,15.132 21.358,15.132 C21.2059992,15.132 21.0360009,15.1160002 20.848,15.084 C20.6599991,15.0519998 20.4740009,15.0000004 20.29,14.928 C20.1059991,14.8559996 19.9320008,14.7580006 19.768,14.634 C19.6039992,14.5099994 19.4660006,14.3560009 19.354,14.172 L19.33,14.172 L19.33,17.364 L18.31,17.364 L18.31,8.796 Z M23.11,11.844 C23.11,11.5559986 23.0720004,11.2740014 22.996,10.998 C22.9199996,10.7219986 22.8040008,10.4760011 22.648,10.26 C22.4919992,10.0439989 22.2920012,9.87200064 22.048,9.744 C21.8039988,9.61599936 21.5180016,9.552 21.19,9.552 C20.8459983,9.552 20.5540012,9.61999932 20.314,9.756 C20.0739988,9.89200068 19.8780008,10.0699989 19.726,10.29 C19.5739992,10.5100011 19.4640003,10.7599986 19.396,11.04 C19.3279997,11.3200014 19.294,11.6039986 19.294,11.892 C19.294,12.1960015 19.3299996,12.4899986 19.402,12.774 C19.4740004,13.0580014 19.5879992,13.3079989 19.744,13.524 C19.9000008,13.7400011 20.1019988,13.9139993 20.35,14.046 C20.5980012,14.1780007 20.8979982,14.244 21.25,14.244 C21.6020018,14.244 21.8959988,14.1760007 22.132,14.04 C22.3680012,13.9039993 22.5579993,13.7240011 22.702,13.5 C22.8460007,13.2759989 22.9499997,13.0200014 23.014,12.732 C23.0780003,12.4439986 23.11,12.1480015 23.11,11.844 Z M27.058,11.736 L24.898,8.796 L26.206,8.796 L27.694,10.968 L29.242,8.796 L30.466,8.796 L28.33,11.652 L30.73,15 L29.422,15 L27.694,12.432 L25.966,15 L24.73,15 L27.058,11.736 Z" id="24px" fill="#FFFFFF"></path>
                    </g>
                    <g id="#height-left-59DE0611-C82A-464C-AD3F-AF7034793CA6" transform="translate(87.000000, 77.733328)">
                        <rect id="line" fill="#FF5500" x="41" y="0" width="1" height="25"></rect>
                        <rect id="start" fill="#FF5500" x="39" y="0" width="5" height="1"></rect>
                        <rect id="end" fill="#FF5500" x="39" y="24" width="5" height="1"></rect>
                        <polygon id="arrow" fill="#FF5500" points="31 13 35 9 39 13 35 17"></polygon>
                        <path d="M4.69,11.504 C4.66599988,11.0719978 4.70999944,10.6720018 4.822,10.304 C4.93400056,9.93599816 5.10799882,9.61800134 5.344,9.35 C5.58000118,9.08199866 5.87399824,8.87200076 6.226,8.72 C6.57800176,8.56799924 6.97799776,8.492 7.426,8.492 C7.79400184,8.492 8.13999838,8.54599946 8.464,8.654 C8.78800162,8.76200054 9.0699988,8.91799898 9.31,9.122 C9.5500012,9.32600102 9.7399993,9.57999848 9.88,9.884 C10.0200007,10.1880015 10.09,10.539998 10.09,10.94 C10.09,11.3160019 10.0320006,11.6479986 9.916,11.936 C9.79999942,12.2240014 9.64600096,12.4819989 9.454,12.71 C9.26199904,12.9380011 9.04200124,13.1439991 8.794,13.328 C8.54599876,13.5120009 8.29000132,13.6879992 8.026,13.856 C7.76199868,14.0160008 7.49800132,14.1739992 7.234,14.33 C6.96999868,14.4860008 6.7280011,14.6519991 6.508,14.828 C6.2879989,15.0040009 6.10000078,15.193999 5.944,15.398 C5.78799922,15.602001 5.68600024,15.8359987 5.638,16.1 L10.006,16.1 L10.006,17 L4.45,17 C4.4900002,16.4959975 4.5799993,16.0660018 4.72,15.71 C4.8600007,15.3539982 5.03799892,15.0440013 5.254,14.78 C5.47000108,14.5159987 5.71399864,14.284001 5.986,14.084 C6.25800136,13.883999 6.54199852,13.6960009 6.838,13.52 C7.1980018,13.2959989 7.51399864,13.0900009 7.786,12.902 C8.05800136,12.7139991 8.2839991,12.524001 8.464,12.332 C8.6440009,12.139999 8.77999954,11.9320011 8.872,11.708 C8.96400046,11.4839989 9.01,11.2240015 9.01,10.928 C9.01,10.6959988 8.96600044,10.4860009 8.878,10.298 C8.78999956,10.1099991 8.67200074,9.94800068 8.524,9.812 C8.37599926,9.67599932 8.202001,9.57200036 8.002,9.5 C7.801999,9.42799964 7.59000112,9.392 7.366,9.392 C7.06999852,9.392 6.81600106,9.45399938 6.604,9.578 C6.39199894,9.70200062 6.21800068,9.863999 6.082,10.064 C5.94599932,10.264001 5.8480003,10.4899987 5.788,10.742 C5.7279997,10.9940013 5.70199996,11.2479987 5.71,11.504 L4.69,11.504 Z M14.902,14.108 L14.902,9.944 L14.878,9.944 L12.046,14.108 L14.902,14.108 Z M15.862,14.108 L17.014,14.108 L17.014,15.008 L15.862,15.008 L15.862,17 L14.902,17 L14.902,15.008 L11.17,15.008 L11.17,14.024 L15.046,8.492 L15.862,8.492 L15.862,14.108 Z M18.31,10.796 L19.33,10.796 L19.33,11.636 L19.354,11.636 C19.5220008,11.2919983 19.7859982,11.0420008 20.146,10.886 C20.5060018,10.7299992 20.9019978,10.652 21.334,10.652 C21.8140024,10.652 22.2319982,10.7399991 22.588,10.916 C22.9440018,11.0920009 23.2399988,11.3299985 23.476,11.63 C23.7120012,11.9300015 23.8899994,12.275998 24.01,12.668 C24.1300006,13.060002 24.19,13.4759978 24.19,13.916 C24.19,14.3560022 24.1320006,14.771998 24.016,15.164 C23.8999994,15.556002 23.7240012,15.8979985 23.488,16.19 C23.2519988,16.4820015 22.9560018,16.7119992 22.6,16.88 C22.2439982,17.0480008 21.8300024,17.132 21.358,17.132 C21.2059992,17.132 21.0360009,17.1160002 20.848,17.084 C20.6599991,17.0519998 20.4740009,17.0000004 20.29,16.928 C20.1059991,16.8559996 19.9320008,16.7580006 19.768,16.634 C19.6039992,16.5099994 19.4660006,16.3560009 19.354,16.172 L19.33,16.172 L19.33,19.364 L18.31,19.364 L18.31,10.796 Z M23.11,13.844 C23.11,13.5559986 23.0720004,13.2740014 22.996,12.998 C22.9199996,12.7219986 22.8040008,12.4760011 22.648,12.26 C22.4919992,12.0439989 22.2920012,11.8720006 22.048,11.744 C21.8039988,11.6159994 21.5180016,11.552 21.19,11.552 C20.8459983,11.552 20.5540012,11.6199993 20.314,11.756 C20.0739988,11.8920007 19.8780008,12.0699989 19.726,12.29 C19.5739992,12.5100011 19.4640003,12.7599986 19.396,13.04 C19.3279997,13.3200014 19.294,13.6039986 19.294,13.892 C19.294,14.1960015 19.3299996,14.4899986 19.402,14.774 C19.4740004,15.0580014 19.5879992,15.3079989 19.744,15.524 C19.9000008,15.7400011 20.1019988,15.9139993 20.35,16.046 C20.5980012,16.1780007 20.8979982,16.244 21.25,16.244 C21.6020018,16.244 21.8959988,16.1760007 22.132,16.04 C22.3680012,15.9039993 22.5579993,15.7240011 22.702,15.5 C22.8460007,15.2759989 22.9499997,15.0200014 23.014,14.732 C23.0780003,14.4439986 23.11,14.1480015 23.11,13.844 Z M27.058,13.736 L24.898,10.796 L26.206,10.796 L27.694,12.968 L29.242,10.796 L30.466,10.796 L28.33,13.652 L30.73,17 L29.422,17 L27.694,14.432 L25.966,17 L24.73,17 L27.058,13.736 Z" id="24px" fill="#FFFFFF"></path>
                    </g>
                    <g id="#height-right-049F0C27-0209-48F7-B636-AAB31DC846EF" transform="translate(232.000000, 77.233328)">
                        <rect id="line" fill="#FF5500" x="2" y="0" width="1" height="26"></rect>
                        <rect id="start" fill="#FF5500" x="0" y="0" width="5" height="1"></rect>
                        <rect id="end" fill="#FF5500" x="0" y="25" width="5" height="1"></rect>
                        <polygon id="arrow" fill="#FF5500" points="5 13 9 9 13 13 9 17"></polygon>
                        <path d="M13.69,11.504 C13.6659999,11.0719978 13.7099994,10.6720018 13.822,10.304 C13.9340006,9.93599816 14.1079988,9.61800134 14.344,9.35 C14.5800012,9.08199866 14.8739982,8.87200076 15.226,8.72 C15.5780018,8.56799924 15.9779978,8.492 16.426,8.492 C16.7940018,8.492 17.1399984,8.54599946 17.464,8.654 C17.7880016,8.76200054 18.0699988,8.91799898 18.31,9.122 C18.5500012,9.32600102 18.7399993,9.57999848 18.88,9.884 C19.0200007,10.1880015 19.09,10.539998 19.09,10.94 C19.09,11.3160019 19.0320006,11.6479986 18.916,11.936 C18.7999994,12.2240014 18.646001,12.4819989 18.454,12.71 C18.261999,12.9380011 18.0420012,13.1439991 17.794,13.328 C17.5459988,13.5120009 17.2900013,13.6879992 17.026,13.856 C16.7619987,14.0160008 16.4980013,14.1739992 16.234,14.33 C15.9699987,14.4860008 15.7280011,14.6519991 15.508,14.828 C15.2879989,15.0040009 15.1000008,15.193999 14.944,15.398 C14.7879992,15.602001 14.6860002,15.8359987 14.638,16.1 L19.006,16.1 L19.006,17 L13.45,17 C13.4900002,16.4959975 13.5799993,16.0660018 13.72,15.71 C13.8600007,15.3539982 14.0379989,15.0440013 14.254,14.78 C14.4700011,14.5159987 14.7139986,14.284001 14.986,14.084 C15.2580014,13.883999 15.5419985,13.6960009 15.838,13.52 C16.1980018,13.2959989 16.5139986,13.0900009 16.786,12.902 C17.0580014,12.7139991 17.2839991,12.524001 17.464,12.332 C17.6440009,12.139999 17.7799995,11.9320011 17.872,11.708 C17.9640005,11.4839989 18.01,11.2240015 18.01,10.928 C18.01,10.6959988 17.9660004,10.4860009 17.878,10.298 C17.7899996,10.1099991 17.6720007,9.94800068 17.524,9.812 C17.3759993,9.67599932 17.202001,9.57200036 17.002,9.5 C16.801999,9.42799964 16.5900011,9.392 16.366,9.392 C16.0699985,9.392 15.8160011,9.45399938 15.604,9.578 C15.3919989,9.70200062 15.2180007,9.863999 15.082,10.064 C14.9459993,10.264001 14.8480003,10.4899987 14.788,10.742 C14.7279997,10.9940013 14.702,11.2479987 14.71,11.504 L13.69,11.504 Z M23.902,14.108 L23.902,9.944 L23.878,9.944 L21.046,14.108 L23.902,14.108 Z M24.862,14.108 L26.014,14.108 L26.014,15.008 L24.862,15.008 L24.862,17 L23.902,17 L23.902,15.008 L20.17,15.008 L20.17,14.024 L24.046,8.492 L24.862,8.492 L24.862,14.108 Z M27.31,10.796 L28.33,10.796 L28.33,11.636 L28.354,11.636 C28.5220008,11.2919983 28.7859982,11.0420008 29.146,10.886 C29.5060018,10.7299992 29.9019978,10.652 30.334,10.652 C30.8140024,10.652 31.2319982,10.7399991 31.588,10.916 C31.9440018,11.0920009 32.2399988,11.3299985 32.476,11.63 C32.7120012,11.9300015 32.8899994,12.275998 33.01,12.668 C33.1300006,13.060002 33.19,13.4759978 33.19,13.916 C33.19,14.3560022 33.1320006,14.771998 33.016,15.164 C32.8999994,15.556002 32.7240012,15.8979985 32.488,16.19 C32.2519988,16.4820015 31.9560018,16.7119992 31.6,16.88 C31.2439982,17.0480008 30.8300024,17.132 30.358,17.132 C30.2059992,17.132 30.0360009,17.1160002 29.848,17.084 C29.6599991,17.0519998 29.4740009,17.0000004 29.29,16.928 C29.1059991,16.8559996 28.9320008,16.7580006 28.768,16.634 C28.6039992,16.5099994 28.4660006,16.3560009 28.354,16.172 L28.33,16.172 L28.33,19.364 L27.31,19.364 L27.31,10.796 Z M32.11,13.844 C32.11,13.5559986 32.0720004,13.2740014 31.996,12.998 C31.9199996,12.7219986 31.8040008,12.4760011 31.648,12.26 C31.4919992,12.0439989 31.2920012,11.8720006 31.048,11.744 C30.8039988,11.6159994 30.5180016,11.552 30.19,11.552 C29.8459983,11.552 29.5540012,11.6199993 29.314,11.756 C29.0739988,11.8920007 28.8780008,12.0699989 28.726,12.29 C28.5739992,12.5100011 28.4640003,12.7599986 28.396,13.04 C28.3279997,13.3200014 28.294,13.6039986 28.294,13.892 C28.294,14.1960015 28.3299996,14.4899986 28.402,14.774 C28.4740004,15.0580014 28.5879992,15.3079989 28.744,15.524 C28.9000008,15.7400011 29.1019988,15.9139993 29.35,16.046 C29.5980012,16.1780007 29.8979982,16.244 30.25,16.244 C30.6020018,16.244 30.8959988,16.1760007 31.132,16.04 C31.3680012,15.9039993 31.5579993,15.7240011 31.702,15.5 C31.8460007,15.2759989 31.9499997,15.0200014 32.014,14.732 C32.0780003,14.4439986 32.11,14.1480015 32.11,13.844 Z M36.058,13.736 L33.898,10.796 L35.206,10.796 L36.694,12.968 L38.242,10.796 L39.466,10.796 L37.33,13.652 L39.73,17 L38.422,17 L36.694,14.432 L34.966,17 L33.73,17 L36.058,13.736 Z" id="24px" fill="#FFFFFF"></path>
                    </g>
                    <g id="#width-top-049F0C27-0209-48F7-B636-AAB31DC846EF" transform="translate(200.547317, 45.500000)">
                        <rect id="line" fill="#FF5500" x="5" y="28" width="25" height="1"></rect>
                        <rect id="start" fill="#FF5500" x="5" y="26" width="1" height="5"></rect>
                        <rect id="end" fill="#FF5500" x="29" y="26" width="1" height="5"></rect>
                        <polygon id="arrow" fill="#FF5500" points="14 22 18 18 22 22 18 26"></polygon>
                        <path d="M4.69,9.504 C4.66599988,9.07199784 4.70999944,8.67200184 4.822,8.304 C4.93400056,7.93599816 5.10799882,7.61800134 5.344,7.35 C5.58000118,7.08199866 5.87399824,6.87200076 6.226,6.72 C6.57800176,6.56799924 6.97799776,6.492 7.426,6.492 C7.79400184,6.492 8.13999838,6.54599946 8.464,6.654 C8.78800162,6.76200054 9.0699988,6.91799898 9.31,7.122 C9.5500012,7.32600102 9.7399993,7.57999848 9.88,7.884 C10.0200007,8.18800152 10.09,8.539998 10.09,8.94 C10.09,9.31600188 10.0320006,9.64799856 9.916,9.936 C9.79999942,10.2240014 9.64600096,10.4819989 9.454,10.71 C9.26199904,10.9380011 9.04200124,11.1439991 8.794,11.328 C8.54599876,11.5120009 8.29000132,11.6879992 8.026,11.856 C7.76199868,12.0160008 7.49800132,12.1739992 7.234,12.33 C6.96999868,12.4860008 6.7280011,12.6519991 6.508,12.828 C6.2879989,13.0040009 6.10000078,13.193999 5.944,13.398 C5.78799922,13.602001 5.68600024,13.8359987 5.638,14.1 L10.006,14.1 L10.006,15 L4.45,15 C4.4900002,14.4959975 4.5799993,14.0660018 4.72,13.71 C4.8600007,13.3539982 5.03799892,13.0440013 5.254,12.78 C5.47000108,12.5159987 5.71399864,12.284001 5.986,12.084 C6.25800136,11.883999 6.54199852,11.6960009 6.838,11.52 C7.1980018,11.2959989 7.51399864,11.0900009 7.786,10.902 C8.05800136,10.7139991 8.2839991,10.524001 8.464,10.332 C8.6440009,10.139999 8.77999954,9.93200112 8.872,9.708 C8.96400046,9.48399888 9.01,9.22400148 9.01,8.928 C9.01,8.69599884 8.96600044,8.48600094 8.878,8.298 C8.78999956,8.10999906 8.67200074,7.94800068 8.524,7.812 C8.37599926,7.67599932 8.202001,7.57200036 8.002,7.5 C7.801999,7.42799964 7.59000112,7.392 7.366,7.392 C7.06999852,7.392 6.81600106,7.45399938 6.604,7.578 C6.39199894,7.70200062 6.21800068,7.863999 6.082,8.064 C5.94599932,8.264001 5.8480003,8.48999874 5.788,8.742 C5.7279997,8.99400126 5.70199996,9.24799872 5.71,9.504 L4.69,9.504 Z M16.474,7.536 L13.042,7.536 L12.586,9.984 L12.61,10.008 C12.7940009,9.79999896 13.0319985,9.6460005 13.324,9.546 C13.6160015,9.4459995 13.9059986,9.396 14.194,9.396 C14.5700019,9.396 14.9259983,9.4559994 15.262,9.576 C15.5980017,9.6960006 15.8899988,9.87799878 16.138,10.122 C16.3860012,10.3660012 16.5819993,10.6699982 16.726,11.034 C16.8700007,11.3980018 16.942,11.8239976 16.942,12.312 C16.942,12.6720018 16.8800006,13.0219983 16.756,13.362 C16.6319994,13.7020017 16.4460012,14.0039987 16.198,14.268 C15.9499988,14.5320013 15.6400019,14.7419992 15.268,14.898 C14.8959981,15.0540008 14.4620025,15.132 13.966,15.132 C13.5979982,15.132 13.2520016,15.0780005 12.928,14.97 C12.6039984,14.8619995 12.3180012,14.706001 12.07,14.502 C11.8219988,14.297999 11.6260007,14.0440015 11.482,13.74 C11.3379993,13.4359985 11.262,13.0920019 11.254,12.708 L12.274,12.708 C12.2900001,12.9240011 12.3439995,13.1259991 12.436,13.314 C12.5280005,13.5020009 12.6519992,13.6659993 12.808,13.806 C12.9640008,13.9460007 13.1479989,14.0539996 13.36,14.13 C13.5720011,14.2060004 13.8059987,14.244 14.062,14.244 C14.3020012,14.244 14.5319989,14.2020004 14.752,14.118 C14.9720011,14.0339996 15.1639992,13.9080008 15.328,13.74 C15.4920008,13.5719992 15.6219995,13.3620013 15.718,13.11 C15.8140005,12.8579987 15.862,12.5640017 15.862,12.228 C15.862,11.9479986 15.8160005,11.6900012 15.724,11.454 C15.6319995,11.2179988 15.5020008,11.0140009 15.334,10.842 C15.1659992,10.6699991 14.9640012,10.5360005 14.728,10.44 C14.4919988,10.3439995 14.2300014,10.296 13.942,10.296 C13.6059983,10.296 13.3080013,10.3699993 13.048,10.518 C12.7879987,10.6660007 12.558001,10.8599988 12.358,11.1 L11.482,11.052 L12.274,6.636 L16.474,6.636 L16.474,7.536 Z M18.31,8.796 L19.33,8.796 L19.33,9.636 L19.354,9.636 C19.5220008,9.29199828 19.7859982,9.04200078 20.146,8.886 C20.5060018,8.72999922 20.9019978,8.652 21.334,8.652 C21.8140024,8.652 22.2319982,8.73999912 22.588,8.916 C22.9440018,9.09200088 23.2399988,9.3299985 23.476,9.63 C23.7120012,9.9300015 23.8899994,10.275998 24.01,10.668 C24.1300006,11.060002 24.19,11.4759978 24.19,11.916 C24.19,12.3560022 24.1320006,12.771998 24.016,13.164 C23.8999994,13.556002 23.7240012,13.8979985 23.488,14.19 C23.2519988,14.4820015 22.9560018,14.7119992 22.6,14.88 C22.2439982,15.0480008 21.8300024,15.132 21.358,15.132 C21.2059992,15.132 21.0360009,15.1160002 20.848,15.084 C20.6599991,15.0519998 20.4740009,15.0000004 20.29,14.928 C20.1059991,14.8559996 19.9320008,14.7580006 19.768,14.634 C19.6039992,14.5099994 19.4660006,14.3560009 19.354,14.172 L19.33,14.172 L19.33,17.364 L18.31,17.364 L18.31,8.796 Z M23.11,11.844 C23.11,11.5559986 23.0720004,11.2740014 22.996,10.998 C22.9199996,10.7219986 22.8040008,10.4760011 22.648,10.26 C22.4919992,10.0439989 22.2920012,9.87200064 22.048,9.744 C21.8039988,9.61599936 21.5180016,9.552 21.19,9.552 C20.8459983,9.552 20.5540012,9.61999932 20.314,9.756 C20.0739988,9.89200068 19.8780008,10.0699989 19.726,10.29 C19.5739992,10.5100011 19.4640003,10.7599986 19.396,11.04 C19.3279997,11.3200014 19.294,11.6039986 19.294,11.892 C19.294,12.1960015 19.3299996,12.4899986 19.402,12.774 C19.4740004,13.0580014 19.5879992,13.3079989 19.744,13.524 C19.9000008,13.7400011 20.1019988,13.9139993 20.35,14.046 C20.5980012,14.1780007 20.8979982,14.244 21.25,14.244 C21.6020018,14.244 21.8959988,14.1760007 22.132,14.04 C22.3680012,13.9039993 22.5579993,13.7240011 22.702,13.5 C22.8460007,13.2759989 22.9499997,13.0200014 23.014,12.732 C23.0780003,12.4439986 23.11,12.1480015 23.11,11.844 Z M27.058,11.736 L24.898,8.796 L26.206,8.796 L27.694,10.968 L29.242,8.796 L30.466,8.796 L28.33,11.652 L30.73,15 L29.422,15 L27.694,12.432 L25.966,15 L24.73,15 L27.058,11.736 Z" id="Text" fill="#FFFFFF"></path>
                    </g>
                </g>
            </g>
        </g>
    </g>
</svg>