<svg xmlns="http://www.w3.org/2000/svg" width="16" height="16" viewBox="0 0 16 16">
    <g fill="#FFF" fill-rule="nonzero">
        <path d="M11.234 0H4.766A4.772 4.772 0 0 0 0 4.766v6.468A4.772 4.772 0 0 0 4.766 16h6.468A4.772 4.772 0 0 0 16 11.234V4.766A4.772 4.772 0 0 0 11.234 0zm3.156 11.234a3.157 3.157 0 0 1-3.156 3.156H4.766a3.157 3.157 0 0 1-3.156-3.156V4.766A3.157 3.157 0 0 1 4.766 1.61h6.468a3.157 3.157 0 0 1 3.156 3.156v6.468z"/>
        <path d="M8 3.765A4.24 4.24 0 0 0 3.765 8 4.24 4.24 0 0 0 8 12.235 4.24 4.24 0 0 0 12.235 8 4.24 4.24 0 0 0 8 3.765zm0 6.823a2.588 2.588 0 1 1 0-5.176 2.588 2.588 0 0 1 0 5.176z"/>
        <circle cx="12.235" cy="3.765" r="1"/>
    </g>
</svg>
