<svg xmlns="http://www.w3.org/2000/svg" width="540" height="160" viewBox="0 0 540 160">
    <g fill="none" fill-rule="evenodd">
        <rect width="540" height="160" fill="#F8F8F8" rx="4"/>
        <path d="M126 46h288v64H126z"/>
        <path stroke="#D50000" d="M126 91h288"/>
        <path fill="#D50000" d="M132.31 109.05v.95h-5.238v-8.455h5.239v.95h-4.184v2.712h3.967v.938h-3.967v2.906h4.184zm1.782.95v-6.316h.96v.937h.094c.094-.309.305-.56.633-.756a2.146 2.146 0 0 1 1.12-.293 4.382 4.382 0 0 1 .503.03v1.007a4.014 4.014 0 0 0-.645-.059c-.48 0-.876.145-1.189.434-.312.29-.468.657-.468 1.102V110h-1.008zm4.687 0v-6.316h.961v.937h.094c.094-.309.305-.56.633-.756a2.146 2.146 0 0 1 1.119-.293 4.382 4.382 0 0 1 .504.03v1.007a4.014 4.014 0 0 0-.645-.059c-.48 0-.877.145-1.19.434-.312.29-.468.657-.468 1.102V110h-1.008zm6.99.111c-.898 0-1.608-.292-2.13-.876-.52-.584-.782-1.381-.782-2.393 0-1.016.261-1.815.783-2.397.521-.582 1.231-.873 2.13-.873.898 0 1.608.291 2.13.873.52.582.782 1.381.782 2.397 0 1.012-.261 1.81-.783 2.393-.521.584-1.231.876-2.13.876zm0-.908c.598 0 1.06-.207 1.383-.621.325-.414.487-.994.487-1.74 0-.75-.162-1.331-.487-1.743-.324-.412-.785-.619-1.382-.619-.598 0-1.06.207-1.383.619-.325.412-.487.993-.487 1.743 0 .746.162 1.326.487 1.74.324.414.785.621 1.383.621zm4.495.797v-6.316h.96v.937h.094c.094-.309.305-.56.633-.756a2.146 2.146 0 0 1 1.12-.293 4.382 4.382 0 0 1 .503.03v1.007a4.014 4.014 0 0 0-.645-.059c-.48 0-.876.145-1.189.434-.312.29-.469.657-.469 1.102V110h-1.007zm16.418 0h-.985v-6.457h-.07l-2.666 6.398h-.89l-2.667-6.398h-.07V110h-.984v-8.455h1.224l2.895 6.996h.093l2.895-6.996h1.225V110zm4.547-5.537c-.504 0-.918.17-1.243.51-.324.34-.506.789-.545 1.347h3.48c-.01-.558-.171-1.007-.48-1.347-.308-.34-.712-.51-1.212-.51zm1.664 3.902h1.007a2.21 2.21 0 0 1-.925 1.28c-.465.311-1.043.466-1.735.466-.875 0-1.568-.294-2.08-.882-.512-.587-.767-1.381-.767-2.381 0-.993.257-1.786.773-2.382.516-.596 1.207-.894 2.074-.894.852 0 1.522.284 2.01.853.488.568.732 1.343.732 2.323v.387h-4.54v.047c.027.625.204 1.12.53 1.488.326.367.757.55 1.292.55.406 0 .746-.073 1.02-.219.273-.147.476-.358.609-.636zm2.525-2.953c0-.523.225-.96.674-1.312.449-.352 1.01-.528 1.681-.528.665 0 1.21.153 1.638.457.428.305.675.717.741 1.237h-.996a1.011 1.011 0 0 0-.457-.61c-.238-.152-.549-.228-.931-.228-.375 0-.692.087-.95.26-.257.174-.386.402-.386.683 0 .215.09.394.27.536.179.143.454.259.825.349l.973.234c.594.145 1.036.353 1.327.624.291.272.437.634.437 1.087 0 .567-.243 1.027-.727 1.38-.484.354-1.086.53-1.805.53-.703 0-1.279-.156-1.728-.468-.45-.313-.701-.73-.756-1.254h1.037c.086.265.254.477.504.635.25.159.576.238.979.238.425 0 .775-.092 1.048-.276.274-.183.41-.42.41-.709a.7.7 0 0 0-.248-.548c-.166-.146-.417-.26-.753-.342l-1.084-.264c-.59-.144-1.025-.352-1.304-.621-.28-.27-.419-.633-.419-1.09zm6.164 0c0-.523.225-.96.674-1.312.45-.352 1.01-.528 1.681-.528.665 0 1.21.153 1.638.457.428.305.675.717.741 1.237h-.996a1.011 1.011 0 0 0-.457-.61c-.238-.152-.549-.228-.931-.228-.375 0-.692.087-.95.26-.257.174-.386.402-.386.683 0 .215.09.394.27.536.179.143.454.259.825.349l.973.234c.594.145 1.036.353 1.327.624.291.272.437.634.437 1.087 0 .567-.242 1.027-.727 1.38-.484.354-1.086.53-1.805.53-.703 0-1.279-.156-1.728-.468-.45-.313-.701-.73-.756-1.254h1.037c.086.265.254.477.504.635.25.159.576.238.979.238.425 0 .775-.092 1.048-.276.274-.183.41-.42.41-.709a.7.7 0 0 0-.248-.548c-.166-.146-.417-.26-.753-.342l-1.084-.264c-.59-.144-1.025-.352-1.304-.621-.28-.27-.419-.633-.419-1.09zm8.373 3.815c.52 0 .95-.152 1.292-.455.342-.302.513-.678.513-1.127v-.58l-1.7.11c-.921.063-1.382.407-1.382 1.032 0 .32.12.57.363.75.242.18.547.27.914.27zm-.187.884c-.614 0-1.122-.169-1.527-.507-.404-.337-.606-.795-.606-1.374 0-1.156.767-1.779 2.302-1.869l1.823-.111v-.574c0-.805-.477-1.207-1.43-1.207-.379 0-.693.068-.943.205a.937.937 0 0 0-.48.58h-1.02c.066-.508.328-.915.785-1.222.457-.306 1.021-.46 1.693-.46.77 0 1.363.187 1.779.56.416.373.624.888.624 1.544V110h-.961v-.932h-.094a2.077 2.077 0 0 1-.809.774c-.336.18-.715.27-1.136.27zm7.418-1.095c.585 0 1.044-.206 1.376-.619.333-.412.499-.961.499-1.649 0-.687-.167-1.237-.501-1.65-.334-.411-.792-.618-1.374-.618-.586 0-1.038.207-1.354.619-.316.412-.475.962-.475 1.649 0 .688.159 1.237.475 1.65.316.412.768.618 1.354.618zm.046 3.41c-.761 0-1.374-.157-1.836-.472-.463-.314-.734-.733-.812-1.257h1.066c.055.258.22.464.493.618.273.155.636.232 1.09.232.566 0 1.008-.132 1.327-.396.318-.263.477-.628.477-1.092v-1.243h-.094c-.199.348-.47.617-.814.806-.344.19-.733.284-1.166.284-.817 0-1.462-.29-1.937-.87-.474-.58-.712-1.343-.712-2.288 0-.945.239-1.71.715-2.297.477-.586 1.121-.879 1.934-.879.441 0 .845.1 1.21.302.365.201.638.472.817.812h.094v-1.002h.96v6.427c0 .707-.252 1.27-.758 1.688-.506.418-1.19.627-2.054.627zm7.23-7.963c-.503 0-.917.17-1.241.51-.325.34-.506.789-.545 1.347h3.48c-.011-.558-.172-1.007-.48-1.347-.309-.34-.713-.51-1.213-.51zm1.665 3.902h1.008a2.21 2.21 0 0 1-.926 1.28c-.465.311-1.043.466-1.734.466-.875 0-1.569-.294-2.08-.882-.512-.587-.768-1.381-.768-2.381 0-.993.258-1.786.773-2.382.516-.596 1.207-.894 2.075-.894.851 0 1.521.284 2.01.853.488.568.732 1.343.732 2.323v.387h-4.541v.047c.027.625.204 1.12.53 1.488.326.367.757.55 1.292.55.406 0 .746-.073 1.02-.219.273-.147.476-.358.609-.636z"/>
        <path fill="#000" fill-opacity=".7" d="M128.836 81h-1.406V69.727h1.406V81zm2.39 0v-8.422h1.282v1.328h.125c.213-.463.527-.825.941-1.086.414-.26.944-.39 1.59-.39.948 0 1.676.27 2.184.808.507.54.761 1.309.761 2.309V81h-1.343v-5.125c0-.76-.163-1.323-.489-1.688-.325-.364-.824-.546-1.496-.546s-1.208.21-1.61.632c-.4.422-.6 1.003-.6 1.743V81h-1.344zm13.126-8.57c1.072 0 1.93.396 2.574 1.187.643.792.965 1.85.965 3.172 0 1.318-.322 2.374-.965 3.168s-1.502 1.191-2.574 1.191c-.6 0-1.13-.125-1.594-.375a2.44 2.44 0 0 1-1.04-1.039h-.124v4.079h-1.344V72.578h1.281v1.406h.125c.271-.484.645-.864 1.121-1.14a3.084 3.084 0 0 1 1.575-.414zm-.32 7.507c.775 0 1.38-.278 1.816-.835.435-.558.652-1.329.652-2.313 0-.984-.217-1.755-.652-2.312-.435-.558-1.038-.836-1.809-.836-.76 0-1.365.282-1.812.847-.448.565-.672 1.332-.672 2.301 0 .964.224 1.73.672 2.297.447.568 1.049.852 1.804.852zm12.468-7.359V81h-1.281v-1.32h-.125c-.209.468-.534.83-.977 1.086-.443.255-.987.382-1.633.382-.942 0-1.657-.27-2.144-.812-.487-.542-.73-1.31-.73-2.305v-5.453h1.343v5.125c0 .755.15 1.314.45 1.676.299.362.784.543 1.456.543.745 0 1.314-.208 1.707-.625.394-.417.59-.995.59-1.734v-4.985h1.344zm2.781-2.18h1.344v2.18h1.875v1.125h-1.875v4.766c0 .495.099.854.297 1.078.198.224.515.336.953.336.12 0 .223-.003.309-.008s.191-.013.316-.023v1.132a4.041 4.041 0 0 1-.79.079c-.864 0-1.485-.175-1.862-.524-.378-.349-.567-.924-.567-1.727v-5.109h-1.36v-1.125h1.36v-2.18zm9.703 0h1.344v2.18h1.875v1.125h-1.875v4.766c0 .495.1.854.297 1.078.198.224.516.336.953.336.12 0 .223-.003.309-.008s.191-.013.316-.023v1.132a4.041 4.041 0 0 1-.789.079c-.865 0-1.486-.175-1.863-.524-.378-.349-.567-.924-.567-1.727v-5.109h-1.359v-1.125h1.36v-2.18zm8.18 3.22c-.672 0-1.224.226-1.656.679-.432.453-.675 1.052-.727 1.797h4.64c-.015-.745-.228-1.344-.64-1.797-.411-.453-.95-.68-1.617-.68zm2.219 5.202h1.344a2.946 2.946 0 0 1-1.235 1.707c-.62.414-1.39.621-2.312.621-1.167 0-2.091-.391-2.774-1.175-.682-.784-1.023-1.843-1.023-3.176 0-1.323.344-2.382 1.031-3.176.688-.794 1.61-1.191 2.766-1.191 1.135 0 2.028.379 2.68 1.136.65.758.976 1.79.976 3.098v.516h-6.055v.062c.037.834.272 1.495.707 1.985.435.49 1.01.734 1.723.734.542 0 .995-.098 1.36-.293.364-.195.635-.478.812-.848zm5.922-1h-.125l-2 3.18h-1.524l2.883-4.21-2.914-4.212h1.602l2 3.133h.125l1.976-3.133h1.524l-2.86 4.156L188.891 81h-1.594l-1.992-3.18zm5.672-7.422h1.343v2.18h1.875v1.125h-1.875v4.766c0 .495.1.854.297 1.078.198.224.516.336.953.336.12 0 .223-.003.309-.008s.191-.013.316-.023v1.132a4.041 4.041 0 0 1-.789.079c-.864 0-1.485-.175-1.863-.524-.378-.349-.566-.924-.566-1.727v-5.109h-1.36v-1.125h1.36v-2.18zm19.734 2.18l-.238.852c-.16.567-.356 1.27-.59 2.105l-.703 2.508-.59 2.105-.238.852h-1.368l-1.882-6.516h-.125L203.102 81h-1.36l-2.36-8.422h1.36l1.656 6.734h.125l1.883-6.734h1.29l1.882 6.734h.125l1.656-6.734h1.352zM212.227 81v-8.422h1.343V81h-1.343zm.671-10.133a.902.902 0 0 1-.66-.277.902.902 0 0 1-.277-.66c0-.26.092-.482.277-.664a.908.908 0 0 1 .66-.274c.26 0 .482.091.665.274a.904.904 0 0 1 .273.664.908.908 0 0 1-.274.66.898.898 0 0 1-.664.277zm3.485-.469h1.344v2.18h1.875v1.125h-1.875v4.766c0 .495.099.854.296 1.078.198.224.516.336.954.336.12 0 .222-.003.308-.008s.192-.013.317-.023v1.132a4.041 4.041 0 0 1-.79.079c-.864 0-1.485-.175-1.863-.524-.377-.349-.566-.924-.566-1.727v-5.109h-1.36v-1.125h1.36v-2.18zM221.398 81V69.234h1.344v4.672h.125c.214-.463.538-.825.973-1.086.435-.26.975-.39 1.62-.39.892 0 1.599.272 2.122.816.523.544.785 1.311.785 2.3V81h-1.344v-5.125c0-.745-.165-1.303-.496-1.676-.33-.372-.813-.558-1.449-.558-.755 0-1.333.217-1.734.652-.401.435-.602 1.01-.602 1.723V81h-1.344zm13.313 0v-8.422h1.281v1.328h.125a2.28 2.28 0 0 1 .899-1.09c.406-.257.89-.386 1.453-.386.573 0 1.056.136 1.449.41.393.273.686.629.879 1.066h.125c.229-.448.57-.806 1.023-1.074.453-.268.972-.402 1.555-.402.86 0 1.52.237 1.984.71.464.475.696 1.154.696 2.04V81h-1.344v-5.508c0-.62-.147-1.083-.441-1.39-.295-.308-.739-.461-1.333-.461-.583 0-1.054.19-1.414.57-.359.38-.539.838-.539 1.375V81h-1.343v-5.719c0-.5-.16-.898-.48-1.195-.321-.297-.747-.445-1.278-.445-.552 0-1.016.208-1.39.625-.376.416-.563.921-.563 1.515V81h-1.344zm16.203-1.031c.693 0 1.267-.202 1.723-.606.455-.403.683-.905.683-1.504v-.773l-2.265.148c-1.23.084-1.844.542-1.844 1.375 0 .427.161.76.484 1 .323.24.73.36 1.22.36zm-.25 1.18c-.818 0-1.496-.226-2.035-.676-.54-.45-.809-1.062-.809-1.832 0-1.542 1.024-2.373 3.07-2.493l2.43-.148v-.766c0-1.073-.635-1.609-1.906-1.609-.505 0-.924.091-1.258.273-.333.183-.547.44-.64.774h-1.36c.089-.677.438-1.22 1.047-1.629.61-.409 1.362-.613 2.258-.613 1.026 0 1.816.248 2.371.746.555.497.832 1.183.832 2.058V81h-1.281v-1.242h-.125a2.77 2.77 0 0 1-1.078 1.031c-.448.24-.953.36-1.516.36zm9.156-3.329h-.125l-2 3.18h-1.523l2.883-4.21-2.914-4.212h1.601l2 3.133h.125l1.977-3.133h1.523l-2.86 4.156 2.9 4.266h-1.594l-1.993-3.18zm16.282-2.664h-1.36a2.017 2.017 0 0 0-.715-1.07c-.367-.297-.853-.445-1.457-.445-.755 0-1.355.28-1.8.843-.446.563-.668 1.32-.668 2.274 0 .974.224 1.747.671 2.32.448.573 1.047.86 1.797.86.568 0 1.04-.128 1.418-.383.378-.256.63-.62.754-1.094h1.36a3.044 3.044 0 0 1-1.094 1.922c-.61.51-1.42.765-2.43.765-1.177 0-2.116-.397-2.816-1.191-.7-.794-1.051-1.86-1.051-3.2 0-1.312.349-2.361 1.047-3.148.698-.786 1.635-1.18 2.812-1.18 1.026 0 1.843.268 2.45.801.606.534.967 1.176 1.082 1.926zm1.75 5.844V69.234h1.343v4.672h.125c.214-.463.538-.825.973-1.086.435-.26.975-.39 1.621-.39.89 0 1.598.272 2.121.816.524.544.785 1.311.785 2.3V81h-1.343v-5.125c0-.745-.166-1.303-.497-1.676-.33-.372-.813-.558-1.449-.558-.755 0-1.333.217-1.734.652-.401.435-.602 1.01-.602 1.723V81h-1.343zm11.703-1.031c.692 0 1.267-.202 1.722-.606.456-.403.684-.905.684-1.504v-.773l-2.266.148c-1.229.084-1.843.542-1.843 1.375 0 .427.161.76.484 1 .323.24.73.36 1.219.36zm-.25 1.18c-.818 0-1.496-.226-2.035-.676-.54-.45-.81-1.062-.81-1.832 0-1.542 1.024-2.373 3.071-2.493l2.43-.148v-.766c0-1.073-.635-1.609-1.906-1.609-.506 0-.925.091-1.258.273-.333.183-.547.44-.64.774h-1.36c.088-.677.437-1.22 1.047-1.629.61-.409 1.362-.613 2.258-.613 1.026 0 1.816.248 2.37.746.555.497.833 1.183.833 2.058V81h-1.282v-1.242h-.125a2.77 2.77 0 0 1-1.078 1.031c-.448.24-.953.36-1.515.36zm6.172-.149v-8.422h1.28v1.25h.126c.125-.411.406-.747.844-1.008.437-.26.934-.39 1.492-.39a5.843 5.843 0 0 1 .672.039v1.344a2.53 2.53 0 0 0-.368-.051 5.352 5.352 0 0 0-.492-.028c-.64 0-1.169.193-1.586.579-.416.385-.625.874-.625 1.468V81h-1.343zm8.375-1.031c.692 0 1.266-.202 1.722-.606.456-.403.684-.905.684-1.504v-.773l-2.266.148c-1.229.084-1.844.542-1.844 1.375 0 .427.162.76.485 1 .323.24.729.36 1.219.36zm-.25 1.18c-.818 0-1.497-.226-2.036-.676-.539-.45-.808-1.062-.808-1.832 0-1.542 1.023-2.373 3.07-2.493l2.43-.148v-.766c0-1.073-.636-1.609-1.906-1.609-.506 0-.925.091-1.258.273-.334.183-.547.44-.64.774h-1.36c.088-.677.437-1.22 1.047-1.629.609-.409 1.362-.613 2.257-.613 1.026 0 1.817.248 2.372.746.554.497.832 1.183.832 2.058V81h-1.282v-1.242h-.125a2.77 2.77 0 0 1-1.078 1.031c-.448.24-.953.36-1.515.36zm13.14-5.993h-1.36a2.017 2.017 0 0 0-.714-1.07c-.367-.297-.853-.445-1.457-.445-.755 0-1.356.28-1.8.843-.446.563-.669 1.32-.669 2.274 0 .974.224 1.747.672 2.32.448.573 1.047.86 1.797.86.568 0 1.04-.128 1.418-.383.378-.256.629-.62.754-1.094h1.36a3.044 3.044 0 0 1-1.095 1.922c-.609.51-1.419.765-2.43.765-1.176 0-2.115-.397-2.816-1.191-.7-.794-1.05-1.86-1.05-3.2 0-1.312.349-2.361 1.046-3.148.698-.786 1.636-1.18 2.813-1.18 1.026 0 1.842.268 2.45.801.606.534.967 1.176 1.081 1.926zm2.39-4.758h1.345v2.18h1.875v1.125h-1.875v4.766c0 .495.099.854.296 1.078.198.224.516.336.954.336.12 0 .222-.003.308-.008s.192-.013.317-.023v1.132a4.041 4.041 0 0 1-.79.079c-.864 0-1.485-.175-1.863-.524-.377-.349-.566-.924-.566-1.727v-5.109h-1.36v-1.125h1.36v-2.18zm8.18 3.22c-.671 0-1.223.226-1.656.679-.432.453-.674 1.052-.726 1.797h4.64c-.015-.745-.229-1.344-.64-1.797-.412-.453-.95-.68-1.618-.68zm2.22 5.202h1.343a2.946 2.946 0 0 1-1.234 1.707c-.62.414-1.391.621-2.313.621-1.167 0-2.091-.391-2.773-1.175-.683-.784-1.024-1.843-1.024-3.176 0-1.323.344-2.382 1.031-3.176.688-.794 1.61-1.191 2.766-1.191 1.136 0 2.029.379 2.68 1.136.65.758.976 1.79.976 3.098v.516h-6.054v.062c.036.834.272 1.495.707 1.985.435.49 1.009.734 1.722.734.542 0 .995-.098 1.36-.293.364-.195.635-.478.812-.848zm3.25 2.18v-8.422h1.28v1.25h.125c.126-.411.407-.747.844-1.008.438-.26.935-.39 1.492-.39a5.843 5.843 0 0 1 .672.039v1.344a2.53 2.53 0 0 0-.367-.051 5.352 5.352 0 0 0-.492-.028c-.64 0-1.17.193-1.586.579-.417.385-.625.874-.625 1.468V81h-1.344zm10.062 0V69.234h1.344V81h-1.344zm3.672 0v-8.422h1.343V81h-1.343zm.671-10.133a.902.902 0 0 1-.66-.277.902.902 0 0 1-.277-.66c0-.26.092-.482.277-.664a.908.908 0 0 1 .66-.274c.26 0 .482.091.665.274a.904.904 0 0 1 .273.664.908.908 0 0 1-.273.66.898.898 0 0 1-.664.277zm4.47 5.39l.37-.37c.248-.248.552-.555.914-.922a433.9 433.9 0 0 1 2-2.016l.371-.37h1.649l-3.625 3.609L357.203 81h-1.71l-3.157-3.945-.805.75V81h-1.344V69.234h1.344v7.024h.125zm9.796-2.64c-.672 0-1.224.227-1.656.68-.432.453-.675 1.052-.727 1.797h4.64c-.015-.745-.228-1.344-.64-1.797-.411-.453-.95-.68-1.617-.68zm2.219 5.203h1.344a2.946 2.946 0 0 1-1.235 1.707c-.62.414-1.39.621-2.312.621-1.167 0-2.091-.391-2.774-1.175-.682-.784-1.023-1.843-1.023-3.176 0-1.323.344-2.382 1.031-3.176.688-.794 1.61-1.191 2.766-1.191 1.135 0 2.028.379 2.68 1.136.65.758.976 1.79.976 3.098v.516h-6.055v.062c.037.834.272 1.495.707 1.985.435.49 1.01.734 1.723.734.542 0 .995-.098 1.36-.293.364-.195.635-.478.812-.848zm8.015-8.422h1.344v2.18h1.875v1.125h-1.875v4.766c0 .495.1.854.297 1.078.198.224.516.336.953.336.12 0 .223-.003.309-.008s.191-.013.316-.023v1.132a4.041 4.041 0 0 1-.789.079c-.864 0-1.485-.175-1.863-.524-.378-.349-.566-.924-.566-1.727v-5.109h-1.36v-1.125h1.36v-2.18zM376.704 81V69.234h1.344v4.672h.125c.213-.463.538-.825.973-1.086.434-.26.975-.39 1.62-.39.891 0 1.598.272 2.122.816.523.544.785 1.311.785 2.3V81h-1.344v-5.125c0-.745-.165-1.303-.496-1.676-.33-.372-.814-.558-1.45-.558-.754 0-1.333.217-1.734.652-.4.435-.601 1.01-.601 1.723V81h-1.344zm9.14 0v-8.422h1.344V81h-1.343zm.673-10.133a.902.902 0 0 1-.66-.277.902.902 0 0 1-.278-.66c0-.26.093-.482.277-.664a.908.908 0 0 1 .66-.274c.261 0 .482.091.665.274a.904.904 0 0 1 .273.664.908.908 0 0 1-.273.66.898.898 0 0 1-.664.277zm2.726 4.016c0-.698.3-1.281.899-1.75.599-.469 1.346-.703 2.242-.703.885 0 1.613.203 2.183.61.57.405.9.955.989 1.647h-1.328a1.349 1.349 0 0 0-.61-.812c-.318-.203-.732-.305-1.242-.305-.5 0-.922.116-1.266.348-.343.232-.515.535-.515.91 0 .287.12.525.36.715.239.19.606.345 1.1.465l1.298.312c.791.193 1.381.47 1.77.832.387.362.581.845.581 1.45 0 .755-.323 1.368-.969 1.84-.645.47-1.448.706-2.406.706-.937 0-1.706-.208-2.305-.625-.599-.416-.934-.974-1.007-1.671h1.382c.115.354.339.636.672.847.334.211.769.317 1.305.317.568 0 1.034-.123 1.398-.368.365-.244.547-.56.547-.945a.934.934 0 0 0-.332-.73c-.221-.196-.556-.348-1.004-.457l-1.445-.352c-.786-.193-1.366-.469-1.738-.828-.373-.36-.559-.844-.559-1.453z"/>
        <path fill="#000" fill-opacity=".54" d="M132.205 58.05V59h-5.133v-8.455h1.055v7.506h4.078zm3.498.177c.52 0 .95-.152 1.292-.455.342-.302.513-.678.513-1.127v-.58l-1.7.11c-.921.063-1.382.407-1.382 1.032 0 .32.12.57.363.75.242.18.547.27.914.27zm-.187.884c-.614 0-1.122-.169-1.527-.507-.404-.337-.606-.795-.606-1.374 0-1.156.767-1.779 2.303-1.869l1.822-.111v-.574c0-.805-.477-1.207-1.43-1.207-.379 0-.693.068-.943.205a.937.937 0 0 0-.48.58h-1.02c.066-.508.328-.915.785-1.222.457-.306 1.021-.46 1.693-.46.77 0 1.363.187 1.779.56.416.373.624.888.624 1.544V59h-.961v-.932h-.094a2.077 2.077 0 0 1-.809.774c-.336.18-.714.27-1.136.27zm8.004 0c-.438 0-.835-.098-1.193-.296a2.116 2.116 0 0 1-.835-.823h-.094V59h-.96v-8.824h1.007v3.504h.094c.172-.34.437-.61.794-.809.357-.2.753-.299 1.187-.299.804 0 1.447.297 1.927.89.48.595.721 1.388.721 2.38 0 .988-.241 1.78-.724 2.376-.482.595-1.124.893-1.924.893zm-.235-5.63c-.574 0-1.028.21-1.362.632-.334.422-.501.998-.501 1.729 0 .73.167 1.306.5 1.728.335.422.789.633 1.363.633.578 0 1.03-.209 1.354-.627.324-.418.486-.996.486-1.734s-.162-1.317-.486-1.735c-.325-.418-.776-.627-1.354-.627zm6.985-.018c-.504 0-.918.17-1.243.51-.324.34-.506.789-.545 1.347h3.48c-.01-.558-.171-1.007-.48-1.347-.308-.34-.712-.51-1.212-.51zm1.664 3.902h1.007a2.21 2.21 0 0 1-.925 1.28c-.465.311-1.043.466-1.735.466-.875 0-1.568-.294-2.08-.882-.512-.587-.767-1.381-.767-2.381 0-.993.257-1.786.773-2.382.516-.596 1.207-.894 2.074-.894.852 0 1.522.284 2.01.853.488.568.732 1.343.732 2.323v.387h-4.54v.047c.027.625.204 1.12.53 1.488.326.367.757.55 1.292.55.406 0 .746-.073 1.02-.219.273-.147.476-.358.609-.636zm2.73 1.635v-8.824h1.008V59h-1.008z"/>
    </g>
</svg>
