<svg xmlns="http://www.w3.org/2000/svg" xmlns:xlink="http://www.w3.org/1999/xlink" width="361" height="319" viewBox="0 0 361 319">
    <defs>
        <path id="a" d="M116.945 0h38.111v16h-38.111z"/>
    </defs>
    <g fill="none" fill-rule="evenodd">
        <rect width="360" height="240" x=".5" fill="#F8F8F8" rx="4"/>
        <path d="M56 95.5h288v48H56z"/>
        <path stroke="#42B549" d="M56 142.5h273.504"/>
        <path fill="#000" fill-opacity=".54" d="M62.205 106.55v.95h-5.133v-8.455h1.055v7.506h4.078zm3.498.177c.52 0 .95-.152 1.292-.455.342-.302.513-.678.513-1.127v-.58l-1.7.11c-.921.063-1.382.407-1.382 1.032 0 .32.12.57.363.75.242.18.547.27.914.27zm-.187.884c-.614 0-1.122-.169-1.527-.507-.404-.337-.606-.795-.606-1.374 0-1.156.767-1.779 2.303-1.869l1.822-.111v-.574c0-.805-.477-1.207-1.43-1.207-.379 0-.693.068-.943.205a.937.937 0 0 0-.48.58h-1.02c.066-.508.328-.915.785-1.222.457-.306 1.021-.46 1.693-.46.77 0 1.363.187 1.779.56.416.373.624.888.624 1.544v4.324h-.961v-.932h-.094a2.077 2.077 0 0 1-.809.774c-.336.18-.714.27-1.136.27zm8.004 0c-.438 0-.835-.098-1.193-.296a2.116 2.116 0 0 1-.835-.823h-.094v1.008h-.96v-8.824h1.007v3.504h.094c.172-.34.437-.61.794-.809.357-.2.753-.299 1.187-.299.804 0 1.447.297 1.927.89.48.595.721 1.388.721 2.38 0 .988-.241 1.78-.724 2.376-.482.595-1.124.893-1.924.893zm-.235-5.63c-.574 0-1.028.21-1.362.632-.334.422-.501.998-.501 1.729 0 .73.167 1.306.5 1.728.335.422.789.633 1.363.633.578 0 1.03-.209 1.354-.627.324-.418.486-.996.486-1.734s-.162-1.317-.486-1.735c-.325-.418-.776-.627-1.354-.627zm6.985-.018c-.504 0-.918.17-1.243.51-.324.34-.506.789-.545 1.347h3.48c-.01-.558-.171-1.007-.48-1.347-.308-.34-.712-.51-1.212-.51zm1.664 3.902h1.007a2.21 2.21 0 0 1-.925 1.28c-.465.311-1.043.466-1.735.466-.875 0-1.568-.294-2.08-.882-.512-.587-.767-1.381-.767-2.381 0-.993.257-1.786.773-2.382.516-.596 1.207-.894 2.074-.894.852 0 1.522.284 2.01.853.488.568.732 1.343.732 2.323v.387h-4.54v.047c.027.625.204 1.12.53 1.488.326.367.757.55 1.292.55.406 0 .746-.073 1.02-.219.273-.147.476-.358.609-.636zm2.73 1.635v-8.824h1.008v8.824h-1.008z"/>
        <path fill="#000" fill-opacity=".7" d="M58.836 132.5H57.43v-11.273h1.406V132.5zm2.39 0v-8.422h1.282v1.328h.125c.213-.463.527-.825.941-1.086.414-.26.944-.39 1.59-.39.948 0 1.676.27 2.184.808.507.54.761 1.309.761 2.309v5.453h-1.343v-5.125c0-.76-.163-1.323-.489-1.688-.325-.364-.824-.546-1.496-.546s-1.208.21-1.61.632c-.4.422-.6 1.003-.6 1.743v4.984h-1.344zm13.126-8.57c1.072 0 1.93.396 2.574 1.187.643.792.965 1.85.965 3.172 0 1.318-.322 2.374-.965 3.168s-1.502 1.191-2.574 1.191c-.6 0-1.13-.125-1.594-.375a2.44 2.44 0 0 1-1.04-1.039h-.124v4.078H70.25v-11.234h1.281v1.406h.125c.271-.484.645-.864 1.121-1.14a3.084 3.084 0 0 1 1.575-.414zm-.32 7.507c.775 0 1.38-.278 1.816-.835.435-.558.652-1.329.652-2.313 0-.984-.217-1.755-.652-2.312-.435-.558-1.038-.836-1.809-.836-.76 0-1.365.282-1.812.847-.448.565-.672 1.332-.672 2.301 0 .964.224 1.73.672 2.297.447.568 1.049.851 1.804.851zm12.468-7.359v8.422h-1.281v-1.32h-.125c-.209.468-.534.83-.977 1.086-.443.255-.987.382-1.633.382-.942 0-1.657-.27-2.144-.812-.487-.542-.73-1.31-.73-2.305v-5.453h1.343v5.125c0 .755.15 1.314.45 1.676.299.362.784.543 1.456.543.745 0 1.314-.208 1.707-.625.394-.417.59-.995.59-1.734v-4.985H86.5zm2.781-2.18h1.344v2.18H92.5v1.125h-1.875v4.766c0 .495.099.854.297 1.078.198.224.515.336.953.336.12 0 .223-.003.309-.008s.191-.013.316-.023v1.132a4.041 4.041 0 0 1-.79.078c-.864 0-1.485-.174-1.862-.523-.378-.349-.567-.924-.567-1.726v-5.11h-1.36v-1.125h1.36v-2.18z"/>
        <g transform="translate(23 77.5)">
            <path fill="#50E3C2" d="M37 35h1v4h-1z"/>
            <path fill="#50E3C2" d="M35 35h5v1h-5zM35 38h5v1h-5z"/>
            <rect width="29" height="22" y="26" fill="#50E3C2" rx="2"/>
            <path fill="#50E3C2" d="M25 37l4-4 4 4-4 4z"/>
            <path fill="#FFF" d="M8.566 38.108v-4.164h-.024L5.71 38.108h2.856zm.96 0h1.152v.9H9.526V41h-.96v-1.992H4.834v-.984l3.876-5.532h.816v5.616zm2.448-3.312h1.02v.84h.024c.168-.344.432-.594.792-.75.36-.156.756-.234 1.188-.234.48 0 .898.088 1.254.264.356.176.652.414.888.714s.414.646.534 1.038c.12.392.18.808.18 1.248 0 .44-.058.856-.174 1.248a2.938 2.938 0 0 1-.528 1.026 2.49 2.49 0 0 1-.888.69c-.356.168-.77.252-1.242.252a3.066 3.066 0 0 1-1.068-.204 2.18 2.18 0 0 1-.522-.294 1.643 1.643 0 0 1-.414-.462h-.024v3.192h-1.02v-8.568zm4.8 3.048c0-.288-.038-.57-.114-.846a2.283 2.283 0 0 0-.348-.738 1.705 1.705 0 0 0-.6-.516 1.822 1.822 0 0 0-.858-.192c-.344 0-.636.068-.876.204-.24.136-.436.314-.588.534-.152.22-.262.47-.33.75a3.597 3.597 0 0 0 .006 1.734c.072.284.186.534.342.75.156.216.358.39.606.522s.548.198.9.198.646-.068.882-.204a1.64 1.64 0 0 0 .57-.54 2.35 2.35 0 0 0 .312-.768c.064-.288.096-.584.096-.888zm3.948-.108l-2.16-2.94h1.308l1.488 2.172 1.548-2.172h1.224l-2.136 2.856 2.4 3.348h-1.308l-1.728-2.568L19.63 41h-1.236l2.328-3.264z"/>
            <path fill="#50E3C2" d="M37 60h1v4h-1z"/>
            <path fill="#50E3C2" d="M35 60h5v1h-5zM35 63h5v1h-5z"/>
            <rect width="29" height="22" y="51" fill="#50E3C2" rx="2"/>
            <path fill="#50E3C2" d="M25 62l4-4 4 4-4 4z"/>
            <path fill="#FFF" d="M8.566 63.108v-4.164h-.024L5.71 63.108h2.856zm.96 0h1.152v.9H9.526V66h-.96v-1.992H4.834v-.984l3.876-5.532h.816v5.616zm2.448-3.312h1.02v.84h.024c.168-.344.432-.594.792-.75.36-.156.756-.234 1.188-.234.48 0 .898.088 1.254.264.356.176.652.414.888.714s.414.646.534 1.038c.12.392.18.808.18 1.248 0 .44-.058.856-.174 1.248a2.938 2.938 0 0 1-.528 1.026 2.49 2.49 0 0 1-.888.69c-.356.168-.77.252-1.242.252a3.066 3.066 0 0 1-1.068-.204 2.18 2.18 0 0 1-.522-.294 1.643 1.643 0 0 1-.414-.462h-.024v3.192h-1.02v-8.568zm4.8 3.048c0-.288-.038-.57-.114-.846a2.283 2.283 0 0 0-.348-.738 1.705 1.705 0 0 0-.6-.516 1.822 1.822 0 0 0-.858-.192c-.344 0-.636.068-.876.204-.24.136-.436.314-.588.534-.152.22-.262.47-.33.75a3.597 3.597 0 0 0 .006 1.734c.072.284.186.534.342.75.156.216.358.39.606.522s.548.198.9.198.646-.068.882-.204a1.64 1.64 0 0 0 .57-.54 2.35 2.35 0 0 0 .312-.768c.064-.288.096-.584.096-.888zm3.948-.108l-2.16-2.94h1.308l1.488 2.172 1.548-2.172h1.224l-2.136 2.856 2.4 3.348h-1.308l-1.728-2.568L19.63 66h-1.236l2.328-3.264z"/>
            <path fill="#50E3C2" d="M37 7h1v8h-1z"/>
            <path fill="#50E3C2" d="M35 7h5v1h-5zM35 14h5v1h-5z"/>
            <rect width="29" height="22" fill="#50E3C2" rx="2"/>
            <path fill="#50E3C2" d="M25 11l4-4 4 4-4 4z"/>
            <path fill="#FFF" d="M6.358 8.7c0 .232.04.434.12.606.08.172.188.314.324.426.136.112.296.196.48.252.184.056.38.084.588.084.408 0 .744-.12 1.008-.36s.396-.576.396-1.008c0-.432-.134-.758-.402-.978-.268-.22-.61-.33-1.026-.33-.2 0-.392.028-.576.084-.184.056-.342.14-.474.252a1.278 1.278 0 0 0-.318.408c-.08.16-.12.348-.12.564zm-1.08-.036c0-.352.068-.662.204-.93.136-.268.32-.494.552-.678.232-.184.498-.324.798-.42.3-.096.614-.144.942-.144.464 0 .86.062 1.188.186.328.124.594.288.798.492.204.204.354.436.45.696.096.26.144.526.144.798 0 .384-.106.734-.318 1.05a1.976 1.976 0 0 1-.858.714c.512.16.892.422 1.14.786.248.364.372.81.372 1.338 0 .416-.074.784-.222 1.104-.148.32-.348.59-.6.81-.252.22-.55.386-.894.498a3.545 3.545 0 0 1-1.104.168c-.408 0-.788-.052-1.14-.156a2.547 2.547 0 0 1-.918-.48 2.253 2.253 0 0 1-.612-.81 2.706 2.706 0 0 1-.222-1.134c0-.504.128-.942.384-1.314.256-.372.624-.642 1.104-.81a1.835 1.835 0 0 1-.864-.702 1.876 1.876 0 0 1-.324-1.062zm.78 3.936c0 .512.17.914.51 1.206.34.292.774.438 1.302.438.256 0 .49-.042.702-.126.212-.084.396-.2.552-.348.156-.148.276-.322.36-.522.084-.2.126-.42.126-.66 0-.232-.046-.446-.138-.642a1.585 1.585 0 0 0-.378-.51 1.837 1.837 0 0 0-1.236-.468c-.248 0-.482.038-.702.114-.22.076-.412.186-.576.33a1.53 1.53 0 0 0-.522 1.188zm5.916-3.804h1.02v.84h.024c.168-.344.432-.594.792-.75.36-.156.756-.234 1.188-.234.48 0 .898.088 1.254.264.356.176.652.414.888.714s.414.646.534 1.038c.12.392.18.808.18 1.248 0 .44-.058.856-.174 1.248a2.938 2.938 0 0 1-.528 1.026 2.49 2.49 0 0 1-.888.69c-.356.168-.77.252-1.242.252a3.066 3.066 0 0 1-1.068-.204 2.18 2.18 0 0 1-.522-.294 1.643 1.643 0 0 1-.414-.462h-.024v3.192h-1.02V8.796zm4.8 3.048c0-.288-.038-.57-.114-.846a2.283 2.283 0 0 0-.348-.738 1.705 1.705 0 0 0-.6-.516 1.822 1.822 0 0 0-.858-.192c-.344 0-.636.068-.876.204-.24.136-.436.314-.588.534-.152.22-.262.47-.33.75a3.597 3.597 0 0 0 .006 1.734c.072.284.186.534.342.75.156.216.358.39.606.522s.548.198.9.198.646-.068.882-.204a1.64 1.64 0 0 0 .57-.54 2.35 2.35 0 0 0 .312-.768c.064-.288.096-.584.096-.888zm3.948-.108l-2.16-2.94h1.308l1.488 2.172 1.548-2.172h1.224l-2.136 2.856 2.4 3.348h-1.308l-1.728-2.568L19.63 15h-1.236l2.328-3.264z"/>
        </g>
        <path fill="#F50" d="M56 150.5h274v1H56z"/>
        <path fill="#F50" d="M56 148.5h1v5h-1zM329 148.5h1v5h-1z"/>
        <g transform="translate(56 143.5)">
            <use fill="#F8F8F8" xlink:href="#a"/>
            <path stroke="#F8F8F8" d="M117.445.5h37.111v15h-37.111z"/>
        </g>
        <text fill="#FF5722" font-family="HelveticaNeue, Helvetica Neue" font-size="12" transform="translate(56 143.5)">
            <tspan x="119.89" y="11">Varies</tspan>
        </text>
        <path fill="#000" fill-opacity=".38" d="M5.094 262h-1.96v-9.926h1.96V262zm3.99-3.962V262H7.222v-6.888h1.806v.854c.42-.714 1.246-1.036 1.988-1.036 1.708 0 2.492 1.218 2.492 2.73V262h-1.862v-4.018c0-.77-.378-1.372-1.274-1.372-.812 0-1.288.63-1.288 1.428zm8.176 6.622h-1.862v-9.548h1.806v.84c.308-.532 1.078-.994 2.114-.994 2.016 0 3.178 1.54 3.178 3.584 0 2.086-1.302 3.626-3.248 3.626-.952 0-1.652-.378-1.988-.84v3.332zm3.402-6.104c0-1.218-.756-1.932-1.708-1.932s-1.722.714-1.722 1.932.77 1.946 1.722 1.946 1.708-.714 1.708-1.946zM28.446 262a4.715 4.715 0 0 1-.056-.742c-.378.644-1.176.924-1.904.924-1.666 0-2.618-1.218-2.618-2.716v-4.354h1.862v3.976c0 .77.392 1.386 1.26 1.386.826 0 1.302-.56 1.302-1.358v-4.004h1.862v5.642c0 .532.042 1.008.07 1.246h-1.778zm5.992-8.946v2.058h1.386v1.652h-1.386v2.884c0 .602.28.798.812.798.224 0 .476-.028.574-.056v1.54c-.168.07-.504.168-1.05.168-1.344 0-2.184-.798-2.184-2.128v-3.206h-1.246v-1.652h.35c.728 0 1.064-.476 1.064-1.092v-.966h1.68zm8.946-1.106l-4.97 10.178h-1.68l4.956-10.178h1.694zM46.464 262h-1.946v-9.926h6.272v1.834h-4.34v2.45h3.864v1.778h-3.85V262zm8.428-1.484c.91 0 1.75-.658 1.75-1.96s-.84-1.96-1.75-1.96-1.75.658-1.75 1.96c0 1.288.84 1.96 1.75 1.96zm0-5.614c2.058 0 3.612 1.526 3.612 3.654 0 2.114-1.554 3.654-3.612 3.654s-3.612-1.54-3.612-3.654c0-2.128 1.554-3.654 3.612-3.654zm8.176 1.722c-.952 0-1.75.686-1.75 1.932s.812 1.946 1.764 1.946 1.428-.63 1.582-1.162l1.638.546c-.308 1.148-1.386 2.324-3.22 2.324-2.03 0-3.626-1.54-3.626-3.654 0-2.128 1.568-3.654 3.57-3.654 1.876 0 2.94 1.162 3.234 2.324l-1.666.56c-.168-.574-.602-1.162-1.526-1.162zM72.07 262a4.715 4.715 0 0 1-.056-.742c-.378.644-1.176.924-1.904.924-1.666 0-2.618-1.218-2.618-2.716v-4.354h1.862v3.976c0 .77.392 1.386 1.26 1.386.826 0 1.302-.56 1.302-1.358v-4.004h1.862v5.642c0 .532.042 1.008.07 1.246H72.07zm3.108-1.918l1.596-.35c.042.546.448 1.05 1.26 1.05.616 0 .91-.322.91-.686 0-.308-.21-.56-.742-.672l-.91-.21c-1.33-.294-1.932-1.092-1.932-2.058 0-1.232 1.092-2.254 2.576-2.254 1.96 0 2.618 1.246 2.702 1.988l-1.554.35c-.056-.406-.35-.924-1.134-.924-.49 0-.882.294-.882.686 0 .336.252.546.63.616l.98.21c1.358.28 2.044 1.106 2.044 2.114 0 1.12-.868 2.268-2.674 2.268-2.072 0-2.786-1.344-2.87-2.128zM9.322 280H3.26v-9.926h1.372v8.638h4.69V280zm1.05-1.806c0-1.204.882-1.876 2.044-2.044l1.82-.266c.406-.056.518-.266.518-.504 0-.658-.434-1.204-1.456-1.204-.924 0-1.442.574-1.526 1.358l-1.26-.294c.14-1.288 1.302-2.184 2.758-2.184 2.016 0 2.8 1.148 2.8 2.464v3.374c0 .588.056.938.084 1.106h-1.288a4.926 4.926 0 0 1-.07-.91c-.294.476-.966 1.12-2.17 1.12-1.372 0-2.254-.952-2.254-2.016zm2.436.91c1.078 0 1.946-.518 1.946-1.988v-.308l-2.058.308c-.56.084-.98.406-.98 1.008 0 .504.42.98 1.092.98zm6.608.896h-1.302v-10.136h1.302v4.354c.322-.602 1.106-1.148 2.226-1.148 2.044 0 3.094 1.568 3.094 3.528 0 2.002-1.134 3.584-3.136 3.584-.994 0-1.764-.434-2.184-1.162v.98zm3.976-3.402c0-1.456-.77-2.366-1.988-2.366-1.162 0-2.002.91-2.002 2.366s.84 2.408 2.002 2.408c1.204 0 1.988-.952 1.988-2.408zm3.878-.658h3.682c-.028-.966-.658-1.722-1.848-1.722-1.106 0-1.778.854-1.834 1.722zm3.878 1.75l1.134.392c-.378 1.19-1.456 2.128-3.024 2.128-1.806 0-3.388-1.316-3.388-3.598 0-2.114 1.526-3.556 3.22-3.556 2.072 0 3.234 1.428 3.234 3.528 0 .168-.014.336-.028.42h-5.068c.028 1.204.896 2.044 2.03 2.044 1.092 0 1.638-.602 1.89-1.358zM35.32 280h-1.316v-10.136h1.316V280zm12.208-7.672l-1.232.434c-.112-.714-.714-1.694-2.1-1.694-1.12 0-1.918.728-1.918 1.652 0 .714.434 1.26 1.274 1.442l1.484.322c1.652.364 2.576 1.4 2.576 2.786 0 1.54-1.316 2.94-3.43 2.94-2.394 0-3.528-1.54-3.71-2.954l1.316-.42c.098 1.106.882 2.128 2.38 2.128 1.372 0 2.044-.714 2.044-1.582 0-.714-.49-1.33-1.484-1.54l-1.414-.308c-1.414-.308-2.422-1.232-2.422-2.716 0-1.554 1.442-2.954 3.276-2.954 2.24 0 3.136 1.386 3.36 2.464zM50.594 280h-1.302v-6.734h1.302V280zm-1.596-9.282c0-.532.42-.952.938-.952.532 0 .952.42.952.952 0 .518-.42.938-.952.938a.938.938 0 0 1-.938-.938zm8.68 9.282h-5.404v-1.148l3.696-4.396h-3.64v-1.19h5.278v1.148l-3.696 4.396h3.766V280zm2.534-4.06h3.682c-.028-.966-.658-1.722-1.848-1.722-1.106 0-1.778.854-1.834 1.722zm3.878 1.75l1.134.392c-.378 1.19-1.456 2.128-3.024 2.128-1.806 0-3.388-1.316-3.388-3.598 0-2.114 1.526-3.556 3.22-3.556 2.072 0 3.234 1.428 3.234 3.528 0 .168-.014.336-.028.42H60.17c.028 1.204.896 2.044 2.03 2.044 1.092 0 1.638-.602 1.89-1.358zm9.128 2.31h-1.344v-6.398h-2.198v-.966c1.26-.028 2.128-.728 2.338-1.708h1.204V280zm3.094-5.81l-1.372-.168c-.014-.126-.014-.252-.014-.364 0-1.554 1.148-2.94 3.136-2.94 1.946 0 3.066 1.274 3.066 2.786 0 1.19-.672 2.142-1.708 2.8l-1.792 1.148c-.518.336-.98.714-1.106 1.274h4.662V280h-6.356c.028-1.484.616-2.618 2.156-3.612l1.512-.98c.854-.546 1.246-1.19 1.246-1.89 0-.826-.56-1.596-1.708-1.596-1.19 0-1.75.826-1.75 1.862 0 .126.014.266.028.406zm11.354 8.47h-1.302v-9.394h1.274v1.05c.364-.672 1.162-1.204 2.254-1.204 2.016 0 3.094 1.554 3.094 3.514 0 2.002-1.162 3.556-3.136 3.556-1.036 0-1.82-.49-2.184-1.092v3.57zm3.976-6.034c0-1.344-.756-2.352-1.988-2.352-1.204 0-2.002 1.008-2.002 2.352 0 1.386.798 2.38 2.002 2.38 1.218 0 1.988-.994 1.988-2.38zM93.546 280l2.506-3.43-2.422-3.304h1.596l1.652 2.366 1.624-2.366h1.554l-2.394 3.304c.406.546 2.072 2.884 2.478 3.43h-1.582l-1.736-2.478L95.114 280h-1.568zm7.714-.896c0-.504.434-.938 1.022-.938.602 0 1.134.448 1.134 1.33 0 1.848-1.204 2.618-2.072 2.73v-.728c.686-.154 1.148-.84 1.162-1.512a.61.61 0 0 1-.308.07c-.518 0-.938-.35-.938-.952zm12.194 1.106c-2.562 0-4.928-1.862-4.928-5.18 0-3.318 2.464-5.166 4.928-5.166 2.268 0 3.864 1.232 4.368 3.15l-1.274.448c-.378-1.498-1.47-2.338-3.094-2.338-1.806 0-3.528 1.316-3.528 3.906s1.722 3.92 3.528 3.92c1.694 0 2.758-1.022 3.164-2.38l1.218.448c-.532 1.862-2.1 3.192-4.382 3.192zm8.666-1.176c1.12 0 2.1-.84 2.1-2.408 0-1.554-.98-2.394-2.1-2.394s-2.1.84-2.1 2.394c0 1.568.98 2.408 2.1 2.408zm0-5.978c2.016 0 3.444 1.526 3.444 3.57 0 2.058-1.428 3.584-3.444 3.584s-3.444-1.526-3.444-3.584c0-2.044 1.428-3.57 3.444-3.57zm6.44 6.944h-1.316v-10.136h1.316V280zm5.124-.966c1.12 0 2.1-.84 2.1-2.408 0-1.554-.98-2.394-2.1-2.394s-2.1.84-2.1 2.394c0 1.568.98 2.408 2.1 2.408zm0-5.978c2.016 0 3.444 1.526 3.444 3.57 0 2.058-1.428 3.584-3.444 3.584s-3.444-1.526-3.444-3.584c0-2.044 1.428-3.57 3.444-3.57zm8.862.14v1.4a4.107 4.107 0 0 0-.574-.042c-1.106 0-1.848.588-1.848 2.072V280h-1.316v-6.734h1.288v1.176c.49-1.036 1.33-1.288 2.016-1.288.182 0 .364.028.434.042zm5.838 2.268c0 1.386.252 2.366.798 2.94.35.364.798.588 1.442.588.644 0 1.092-.224 1.442-.588.546-.574.798-1.554.798-2.94s-.252-2.366-.798-2.94c-.35-.364-.798-.588-1.442-.588-.644 0-1.092.224-1.442.588-.546.574-.798 1.554-.798 2.94zm-1.358 0c0-1.246.21-2.394.812-3.29.588-.882 1.498-1.456 2.786-1.456s2.198.574 2.786 1.456c.602.896.812 2.044.812 3.29s-.21 2.394-.812 3.29c-.588.882-1.498 1.456-2.786 1.456s-2.198-.574-2.786-1.456c-.602-.896-.812-2.044-.812-3.29zm9.884 0c0 1.386.252 2.366.798 2.94.35.364.798.588 1.442.588.644 0 1.092-.224 1.442-.588.546-.574.798-1.554.798-2.94s-.252-2.366-.798-2.94c-.35-.364-.798-.588-1.442-.588-.644 0-1.092.224-1.442.588-.546.574-.798 1.554-.798 2.94zm-1.358 0c0-1.246.21-2.394.812-3.29.588-.882 1.498-1.456 2.786-1.456s2.198.574 2.786 1.456c.602.896.812 2.044.812 3.29s-.21 2.394-.812 3.29c-.588.882-1.498 1.456-2.786 1.456s-2.198-.574-2.786-1.456c-.602-.896-.812-2.044-.812-3.29zm9.884 0c0 1.386.252 2.366.798 2.94.35.364.798.588 1.442.588.644 0 1.092-.224 1.442-.588.546-.574.798-1.554.798-2.94s-.252-2.366-.798-2.94c-.35-.364-.798-.588-1.442-.588-.644 0-1.092.224-1.442.588-.546.574-.798 1.554-.798 2.94zm-1.358 0c0-1.246.21-2.394.812-3.29.588-.882 1.498-1.456 2.786-1.456s2.198.574 2.786 1.456c.602.896.812 2.044.812 3.29s-.21 2.394-.812 3.29c-.588.882-1.498 1.456-2.786 1.456s-2.198-.574-2.786-1.456c-.602-.896-.812-2.044-.812-3.29zm9.884 0c0 1.386.252 2.366.798 2.94.35.364.798.588 1.442.588.644 0 1.092-.224 1.442-.588.546-.574.798-1.554.798-2.94s-.252-2.366-.798-2.94c-.35-.364-.798-.588-1.442-.588-.644 0-1.092.224-1.442.588-.546.574-.798 1.554-.798 2.94zm-1.358 0c0-1.246.21-2.394.812-3.29.588-.882 1.498-1.456 2.786-1.456s2.198.574 2.786 1.456c.602.896.812 2.044.812 3.29s-.21 2.394-.812 3.29c-.588.882-1.498 1.456-2.786 1.456s-2.198-.574-2.786-1.456c-.602-.896-.812-2.044-.812-3.29zm9.884 0c0 1.386.252 2.366.798 2.94.35.364.798.588 1.442.588.644 0 1.092-.224 1.442-.588.546-.574.798-1.554.798-2.94s-.252-2.366-.798-2.94c-.35-.364-.798-.588-1.442-.588-.644 0-1.092.224-1.442.588-.546.574-.798 1.554-.798 2.94zm-1.358 0c0-1.246.21-2.394.812-3.29.588-.882 1.498-1.456 2.786-1.456s2.198.574 2.786 1.456c.602.896.812 2.044.812 3.29s-.21 2.394-.812 3.29c-.588.882-1.498 1.456-2.786 1.456s-2.198-.574-2.786-1.456c-.602-.896-.812-2.044-.812-3.29zm9.884 0c0 1.386.252 2.366.798 2.94.35.364.798.588 1.442.588.644 0 1.092-.224 1.442-.588.546-.574.798-1.554.798-2.94s-.252-2.366-.798-2.94c-.35-.364-.798-.588-1.442-.588-.644 0-1.092.224-1.442.588-.546.574-.798 1.554-.798 2.94zm-1.358 0c0-1.246.21-2.394.812-3.29.588-.882 1.498-1.456 2.786-1.456s2.198.574 2.786 1.456c.602.896.812 2.044.812 3.29s-.21 2.394-.812 3.29c-.588.882-1.498 1.456-2.786 1.456s-2.198-.574-2.786-1.456c-.602-.896-.812-2.044-.812-3.29zm11.886 2.072l1.316-.392c.084 1.12.91 1.876 2.044 1.876 1.078 0 1.946-.714 1.946-1.834 0-1.246-.91-1.876-1.96-1.876-.644 0-1.26.252-1.652.658-.476-.182-.882-.364-1.344-.532l1.176-4.508h4.788v1.26h-3.878l-.672 2.604c.406-.448 1.134-.672 1.848-.672 1.778 0 3.08 1.134 3.08 3.01 0 1.708-1.316 3.094-3.332 3.094-1.932 0-3.234-1.26-3.36-2.688zm7.672.42v-1.582l3.892-5.446h1.89v5.754h1.554v1.274h-1.554V280h-1.33v-2.044h-4.452zm4.452-1.274v-4.438l-3.192 4.438h3.192zm4.886-3.654c0 .644.476 1.106 1.078 1.106.616 0 1.078-.462 1.078-1.106 0-.63-.462-1.092-1.078-1.092-.602 0-1.078.462-1.078 1.092zm-1.162 0c0-1.232 1.036-2.198 2.24-2.198 1.204 0 2.254.966 2.254 2.198 0 1.246-1.05 2.212-2.254 2.212s-2.24-.966-2.24-2.212zm6.706 4.872c0 .644.476 1.106 1.078 1.106.616 0 1.078-.462 1.078-1.106 0-.63-.462-1.092-1.078-1.092-.602 0-1.078.462-1.078 1.092zm-1.162 0c0-1.232 1.036-2.198 2.24-2.198 1.204 0 2.254.966 2.254 2.198 0 1.246-1.05 2.212-2.254 2.212s-2.24-.966-2.24-2.212zm-3.136 2.1h-1.288l6.524-9.072h1.26L219.798 280zM4.66 298h-1.4v-9.926h1.4V298zm3.696-3.892V298H7.04v-6.734h1.288v.966c.49-.84 1.288-1.162 2.072-1.162 1.61 0 2.408 1.162 2.408 2.66V298h-1.316v-4.046c0-.938-.392-1.694-1.568-1.694-1.036 0-1.568.826-1.568 1.848zm7.854 6.552h-1.302v-9.394h1.274v1.05c.364-.672 1.162-1.204 2.254-1.204 2.016 0 3.094 1.554 3.094 3.514 0 2.002-1.162 3.556-3.136 3.556-1.036 0-1.82-.49-2.184-1.092v3.57zm3.976-6.034c0-1.344-.756-2.352-1.988-2.352-1.204 0-2.002 1.008-2.002 2.352 0 1.386.798 2.38 2.002 2.38 1.218 0 1.988-.994 1.988-2.38zm7.392 2.562c-.364.7-1.204 1.022-1.988 1.022-1.568 0-2.52-1.176-2.52-2.702v-4.242h1.316v4.046c0 .924.42 1.736 1.526 1.736 1.064 0 1.596-.7 1.596-1.722v-4.06h1.316v5.488c0 .532.042 1.008.07 1.246h-1.26a5.962 5.962 0 0 1-.056-.812zm5.25-8.05v2.128h1.456v1.19h-1.456v3.5c0 .616.252.924.938.924.168 0 .406-.028.518-.056v1.12a2.88 2.88 0 0 1-.896.126c-1.148 0-1.876-.7-1.876-1.918v-3.696h-1.288v-1.19h.364c.728 0 1.036-.448 1.036-1.036v-1.092h1.204zm13.734.21h-3.318V298h-1.372v-8.652h-3.318v-1.274h8.008v1.274zm.784 4.592h3.682c-.028-.966-.658-1.722-1.848-1.722-1.106 0-1.778.854-1.834 1.722zm3.878 1.75l1.134.392c-.378 1.19-1.456 2.128-3.024 2.128-1.806 0-3.388-1.316-3.388-3.598 0-2.114 1.526-3.556 3.22-3.556 2.072 0 3.234 1.428 3.234 3.528 0 .168-.014.336-.028.42h-5.068c.028 1.204.896 2.044 2.03 2.044 1.092 0 1.638-.602 1.89-1.358zM53.03 298l2.506-3.43-2.422-3.304h1.596l1.652 2.366 1.624-2.366h1.554l-2.394 3.304c.406.546 2.072 2.884 2.478 3.43h-1.582l-1.736-2.478L54.598 298H53.03zm9.688-8.862v2.128h1.456v1.19h-1.456v3.5c0 .616.252.924.938.924.168 0 .406-.028.518-.056v1.12a2.88 2.88 0 0 1-.896.126c-1.148 0-1.876-.7-1.876-1.918v-3.696h-1.288v-1.19h.364c.728 0 1.036-.448 1.036-1.036v-1.092h1.204zm13.174 1.19l-1.232.434c-.112-.714-.714-1.694-2.1-1.694-1.12 0-1.918.728-1.918 1.652 0 .714.434 1.26 1.274 1.442l1.484.322c1.652.364 2.576 1.4 2.576 2.786 0 1.54-1.316 2.94-3.43 2.94-2.394 0-3.528-1.54-3.71-2.954l1.316-.42c.098 1.106.882 2.128 2.38 2.128 1.372 0 2.044-.714 2.044-1.582 0-.714-.49-1.33-1.484-1.54l-1.414-.308c-1.414-.308-2.422-1.232-2.422-2.716 0-1.554 1.442-2.954 3.276-2.954 2.24 0 3.136 1.386 3.36 2.464zM78.958 298h-1.302v-6.734h1.302V298zm-1.596-9.282c0-.532.42-.952.938-.952.532 0 .952.42.952.952 0 .518-.42.938-.952.938a.938.938 0 0 1-.938-.938zm8.68 9.282h-5.404v-1.148l3.696-4.396h-3.64v-1.19h5.278v1.148l-3.696 4.396h3.766V298zm2.534-4.06h3.682c-.028-.966-.658-1.722-1.848-1.722-1.106 0-1.778.854-1.834 1.722zm3.878 1.75l1.134.392c-.378 1.19-1.456 2.128-3.024 2.128-1.806 0-3.388-1.316-3.388-3.598 0-2.114 1.526-3.556 3.22-3.556 2.072 0 3.234 1.428 3.234 3.528 0 .168-.014.336-.028.42h-5.068c.028 1.204.896 2.044 2.03 2.044 1.092 0 1.638-.602 1.89-1.358zm9.128 2.31h-1.344v-6.398H98.04v-.966c1.26-.028 2.128-.728 2.338-1.708h1.204V298zm8.47-8.778l-.42 1.12c-.336-.196-.938-.392-1.624-.392-1.89 0-3.08 1.386-3.192 3.248.364-.602 1.19-1.176 2.394-1.176 1.792 0 3.108 1.12 3.108 3.094 0 1.946-1.582 3.094-3.36 3.094-1.736 0-3.542-1.204-3.542-4.2 0-3.374 2.03-5.292 4.676-5.292.826 0 1.54.21 1.96.504zm-5.04 5.894c0 1.19.966 1.904 1.96 1.904 1.064 0 1.96-.7 1.96-1.904 0-1.218-.91-1.918-1.96-1.918-1.05 0-1.96.7-1.96 1.918zm8.232 5.544h-1.302v-9.394h1.274v1.05c.364-.672 1.162-1.204 2.254-1.204 2.016 0 3.094 1.554 3.094 3.514 0 2.002-1.162 3.556-3.136 3.556-1.036 0-1.82-.49-2.184-1.092v3.57zm3.976-6.034c0-1.344-.756-2.352-1.988-2.352-1.204 0-2.002 1.008-2.002 2.352 0 1.386.798 2.38 2.002 2.38 1.218 0 1.988-.994 1.988-2.38zm1.904 3.374l2.506-3.43-2.422-3.304h1.596l1.652 2.366 1.624-2.366h1.554l-2.394 3.304c.406.546 2.072 2.884 2.478 3.43h-1.582l-1.736-2.478-1.708 2.478h-1.568zm7.714-.896c0-.504.434-.938 1.022-.938.602 0 1.134.448 1.134 1.33 0 1.848-1.204 2.618-2.072 2.73v-.728c.686-.154 1.148-.84 1.162-1.512a.61.61 0 0 1-.308.07c-.518 0-.938-.35-.938-.952zm12.194 1.106c-2.562 0-4.928-1.862-4.928-5.18 0-3.318 2.464-5.166 4.928-5.166 2.268 0 3.864 1.232 4.368 3.15l-1.274.448c-.378-1.498-1.47-2.338-3.094-2.338-1.806 0-3.528 1.316-3.528 3.906s1.722 3.92 3.528 3.92c1.694 0 2.758-1.022 3.164-2.38l1.218.448c-.532 1.862-2.1 3.192-4.382 3.192zm8.666-1.176c1.12 0 2.1-.84 2.1-2.408 0-1.554-.98-2.394-2.1-2.394s-2.1.84-2.1 2.394c0 1.568.98 2.408 2.1 2.408zm0-5.978c2.016 0 3.444 1.526 3.444 3.57 0 2.058-1.428 3.584-3.444 3.584s-3.444-1.526-3.444-3.584c0-2.044 1.428-3.57 3.444-3.57zm6.44 6.944h-1.316v-10.136h1.316V298zm5.124-.966c1.12 0 2.1-.84 2.1-2.408 0-1.554-.98-2.394-2.1-2.394s-2.1.84-2.1 2.394c0 1.568.98 2.408 2.1 2.408zm0-5.978c2.016 0 3.444 1.526 3.444 3.57 0 2.058-1.428 3.584-3.444 3.584s-3.444-1.526-3.444-3.584c0-2.044 1.428-3.57 3.444-3.57zm8.862.14v1.4a4.107 4.107 0 0 0-.574-.042c-1.106 0-1.848.588-1.848 2.072V298h-1.316v-6.734h1.288v1.176c.49-1.036 1.33-1.288 2.016-1.288.182 0 .364.028.434.042zm5.838 2.268c0 1.386.252 2.366.798 2.94.35.364.798.588 1.442.588.644 0 1.092-.224 1.442-.588.546-.574.798-1.554.798-2.94s-.252-2.366-.798-2.94c-.35-.364-.798-.588-1.442-.588-.644 0-1.092.224-1.442.588-.546.574-.798 1.554-.798 2.94zm-1.358 0c0-1.246.21-2.394.812-3.29.588-.882 1.498-1.456 2.786-1.456s2.198.574 2.786 1.456c.602.896.812 2.044.812 3.29s-.21 2.394-.812 3.29c-.588.882-1.498 1.456-2.786 1.456s-2.198-.574-2.786-1.456c-.602-.896-.812-2.044-.812-3.29zm9.884 0c0 1.386.252 2.366.798 2.94.35.364.798.588 1.442.588.644 0 1.092-.224 1.442-.588.546-.574.798-1.554.798-2.94s-.252-2.366-.798-2.94c-.35-.364-.798-.588-1.442-.588-.644 0-1.092.224-1.442.588-.546.574-.798 1.554-.798 2.94zm-1.358 0c0-1.246.21-2.394.812-3.29.588-.882 1.498-1.456 2.786-1.456s2.198.574 2.786 1.456c.602.896.812 2.044.812 3.29s-.21 2.394-.812 3.29c-.588.882-1.498 1.456-2.786 1.456s-2.198-.574-2.786-1.456c-.602-.896-.812-2.044-.812-3.29zm9.884 0c0 1.386.252 2.366.798 2.94.35.364.798.588 1.442.588.644 0 1.092-.224 1.442-.588.546-.574.798-1.554.798-2.94s-.252-2.366-.798-2.94c-.35-.364-.798-.588-1.442-.588-.644 0-1.092.224-1.442.588-.546.574-.798 1.554-.798 2.94zm-1.358 0c0-1.246.21-2.394.812-3.29.588-.882 1.498-1.456 2.786-1.456s2.198.574 2.786 1.456c.602.896.812 2.044.812 3.29s-.21 2.394-.812 3.29c-.588.882-1.498 1.456-2.786 1.456s-2.198-.574-2.786-1.456c-.602-.896-.812-2.044-.812-3.29zm9.884 0c0 1.386.252 2.366.798 2.94.35.364.798.588 1.442.588.644 0 1.092-.224 1.442-.588.546-.574.798-1.554.798-2.94s-.252-2.366-.798-2.94c-.35-.364-.798-.588-1.442-.588-.644 0-1.092.224-1.442.588-.546.574-.798 1.554-.798 2.94zm-1.358 0c0-1.246.21-2.394.812-3.29.588-.882 1.498-1.456 2.786-1.456s2.198.574 2.786 1.456c.602.896.812 2.044.812 3.29s-.21 2.394-.812 3.29c-.588.882-1.498 1.456-2.786 1.456s-2.198-.574-2.786-1.456c-.602-.896-.812-2.044-.812-3.29zm9.884 0c0 1.386.252 2.366.798 2.94.35.364.798.588 1.442.588.644 0 1.092-.224 1.442-.588.546-.574.798-1.554.798-2.94s-.252-2.366-.798-2.94c-.35-.364-.798-.588-1.442-.588-.644 0-1.092.224-1.442.588-.546.574-.798 1.554-.798 2.94zm-1.358 0c0-1.246.21-2.394.812-3.29.588-.882 1.498-1.456 2.786-1.456s2.198.574 2.786 1.456c.602.896.812 2.044.812 3.29s-.21 2.394-.812 3.29c-.588.882-1.498 1.456-2.786 1.456s-2.198-.574-2.786-1.456c-.602-.896-.812-2.044-.812-3.29zm9.884 0c0 1.386.252 2.366.798 2.94.35.364.798.588 1.442.588.644 0 1.092-.224 1.442-.588.546-.574.798-1.554.798-2.94s-.252-2.366-.798-2.94c-.35-.364-.798-.588-1.442-.588-.644 0-1.092.224-1.442.588-.546.574-.798 1.554-.798 2.94zm-1.358 0c0-1.246.21-2.394.812-3.29.588-.882 1.498-1.456 2.786-1.456s2.198.574 2.786 1.456c.602.896.812 2.044.812 3.29s-.21 2.394-.812 3.29c-.588.882-1.498 1.456-2.786 1.456s-2.198-.574-2.786-1.456c-.602-.896-.812-2.044-.812-3.29zm18.088-4.536v1.316c-.84.672-3.402 2.954-3.836 7.756h-1.414c.406-5.278 3.738-7.812 3.738-7.812h-5.11v-1.26h6.622zm1.778 4.536c0 1.386.252 2.366.798 2.94.35.364.798.588 1.442.588.644 0 1.092-.224 1.442-.588.546-.574.798-1.554.798-2.94s-.252-2.366-.798-2.94c-.35-.364-.798-.588-1.442-.588-.644 0-1.092.224-1.442.588-.546.574-.798 1.554-.798 2.94zm-1.358 0c0-1.246.21-2.394.812-3.29.588-.882 1.498-1.456 2.786-1.456s2.198.574 2.786 1.456c.602.896.812 2.044.812 3.29s-.21 2.394-.812 3.29c-.588.882-1.498 1.456-2.786 1.456s-2.198-.574-2.786-1.456c-.602-.896-.812-2.044-.812-3.29zm9.548-2.436c0 .644.476 1.106 1.078 1.106.616 0 1.078-.462 1.078-1.106 0-.63-.462-1.092-1.078-1.092-.602 0-1.078.462-1.078 1.092zm-1.162 0c0-1.232 1.036-2.198 2.24-2.198 1.204 0 2.254.966 2.254 2.198 0 1.246-1.05 2.212-2.254 2.212s-2.24-.966-2.24-2.212zm6.706 4.872c0 .644.476 1.106 1.078 1.106.616 0 1.078-.462 1.078-1.106 0-.63-.462-1.092-1.078-1.092-.602 0-1.078.462-1.078 1.092zm-1.162 0c0-1.232 1.036-2.198 2.24-2.198 1.204 0 2.254.966 2.254 2.198 0 1.246-1.05 2.212-2.254 2.212s-2.24-.966-2.24-2.212zm-3.136 2.1h-1.288l6.524-9.072h1.26L244.536 298zM4.66 316h-1.4v-9.926h1.4V316zm3.696-3.892V316H7.04v-6.734h1.288v.966c.49-.84 1.288-1.162 2.072-1.162 1.61 0 2.408 1.162 2.408 2.66V316h-1.316v-4.046c0-.938-.392-1.694-1.568-1.694-1.036 0-1.568.826-1.568 1.848zm7.854 6.552h-1.302v-9.394h1.274v1.05c.364-.672 1.162-1.204 2.254-1.204 2.016 0 3.094 1.554 3.094 3.514 0 2.002-1.162 3.556-3.136 3.556-1.036 0-1.82-.49-2.184-1.092v3.57zm3.976-6.034c0-1.344-.756-2.352-1.988-2.352-1.204 0-2.002 1.008-2.002 2.352 0 1.386.798 2.38 2.002 2.38 1.218 0 1.988-.994 1.988-2.38zm7.392 2.562c-.364.7-1.204 1.022-1.988 1.022-1.568 0-2.52-1.176-2.52-2.702v-4.242h1.316v4.046c0 .924.42 1.736 1.526 1.736 1.064 0 1.596-.7 1.596-1.722v-4.06h1.316v5.488c0 .532.042 1.008.07 1.246h-1.26a5.962 5.962 0 0 1-.056-.812zm5.25-8.05v2.128h1.456v1.19h-1.456v3.5c0 .616.252.924.938.924.168 0 .406-.028.518-.056v1.12a2.88 2.88 0 0 1-.896.126c-1.148 0-1.876-.7-1.876-1.918v-3.696h-1.288v-1.19h.364c.728 0 1.036-.448 1.036-1.036v-1.092h1.204zM45.736 316h-6.062v-9.926h1.372v8.638h4.69V316zm2.772 0h-1.302v-6.734h1.302V316zm-1.596-9.282c0-.532.42-.952.938-.952.532 0 .952.42.952.952 0 .518-.42.938-.952.938a.938.938 0 0 1-.938-.938zm5.152 5.39V316h-1.316v-6.734h1.288v.966c.49-.84 1.288-1.162 2.072-1.162 1.61 0 2.408 1.162 2.408 2.66V316H55.2v-4.046c0-.938-.392-1.694-1.568-1.694-1.036 0-1.568.826-1.568 1.848zm7.406-.168h3.682c-.028-.966-.658-1.722-1.848-1.722-1.106 0-1.778.854-1.834 1.722zm3.878 1.75l1.134.392c-.378 1.19-1.456 2.128-3.024 2.128-1.806 0-3.388-1.316-3.388-3.598 0-2.114 1.526-3.556 3.22-3.556 2.072 0 3.234 1.428 3.234 3.528 0 .168-.014.336-.028.42h-5.068c.028 1.204.896 2.044 2.03 2.044 1.092 0 1.638-.602 1.89-1.358zm10.794 2.52c-2.562 0-4.928-1.862-4.928-5.18 0-3.318 2.464-5.166 4.928-5.166 2.268 0 3.864 1.232 4.368 3.15l-1.274.448c-.378-1.498-1.47-2.338-3.094-2.338-1.806 0-3.528 1.316-3.528 3.906s1.722 3.92 3.528 3.92c1.694 0 2.758-1.022 3.164-2.38l1.218.448c-.532 1.862-2.1 3.192-4.382 3.192zm8.666-1.176c1.12 0 2.1-.84 2.1-2.408 0-1.554-.98-2.394-2.1-2.394s-2.1.84-2.1 2.394c0 1.568.98 2.408 2.1 2.408zm0-5.978c2.016 0 3.444 1.526 3.444 3.57 0 2.058-1.428 3.584-3.444 3.584s-3.444-1.526-3.444-3.584c0-2.044 1.428-3.57 3.444-3.57zm6.44 6.944h-1.316v-10.136h1.316V316zm5.124-.966c1.12 0 2.1-.84 2.1-2.408 0-1.554-.98-2.394-2.1-2.394s-2.1.84-2.1 2.394c0 1.568.98 2.408 2.1 2.408zm0-5.978c2.016 0 3.444 1.526 3.444 3.57 0 2.058-1.428 3.584-3.444 3.584s-3.444-1.526-3.444-3.584c0-2.044 1.428-3.57 3.444-3.57zm8.862.14v1.4a4.107 4.107 0 0 0-.574-.042c-1.106 0-1.848.588-1.848 2.072V316h-1.316v-6.734h1.288v1.176c.49-1.036 1.33-1.288 2.016-1.288.182 0 .364.028.434.042zm4.844 5.908c0-.546.42-.98.966-.98s.98.434.98.98a.962.962 0 0 1-.98.966.95.95 0 0 1-.966-.966zm-.014-4.928c0-.546.42-.98.966-.98s.98.434.98.98a.962.962 0 0 1-.98.966.95.95 0 0 1-.966-.966zm7 3.78v-1.582l3.892-5.446h1.89v5.754h1.554v1.274h-1.554V316h-1.33v-2.044h-4.452zm4.452-1.274v-4.438l-3.192 4.438h3.192zm5.068-2.492l-1.372-.168c-.014-.126-.014-.252-.014-.364 0-1.554 1.148-2.94 3.136-2.94 1.946 0 3.066 1.274 3.066 2.786 0 1.19-.672 2.142-1.708 2.8l-1.792 1.148c-.518.336-.98.714-1.106 1.274h4.662V316H123.1c.028-1.484.616-2.618 2.156-3.612l1.512-.98c.854-.546 1.246-1.19 1.246-1.89 0-.826-.56-1.596-1.708-1.596-1.19 0-1.75.826-1.75 1.862 0 .126.014.266.028.406zm6.692-4.116h3.234c1.89 0 2.996 1.12 2.996 2.688 0 1.064-.616 1.82-1.484 2.142 1.134.28 1.792 1.288 1.792 2.394 0 1.568-1.246 2.702-3.066 2.702h-3.472v-9.926zm1.372 4.34h1.708c1.106 0 1.764-.658 1.764-1.582 0-.938-.686-1.554-1.82-1.554h-1.652v3.136zm0 4.382h1.904c1.106 0 1.862-.616 1.862-1.582 0-.952-.602-1.624-1.806-1.624h-1.96v3.206zm6.286-1.26l1.316-.392c.084 1.12.91 1.876 2.044 1.876 1.078 0 1.946-.714 1.946-1.834 0-1.246-.91-1.876-1.96-1.876-.644 0-1.26.252-1.652.658-.476-.182-.882-.364-1.344-.532l1.176-4.508h4.788v1.26h-3.878l-.672 2.604c.406-.448 1.134-.672 1.848-.672 1.778 0 3.08 1.134 3.08 3.01 0 1.708-1.316 3.094-3.332 3.094-1.932 0-3.234-1.26-3.36-2.688zm7.672.42v-1.582l3.892-5.446h1.89v5.754h1.554v1.274h-1.554V316h-1.33v-2.044h-4.452zm4.452-1.274v-4.438l-3.192 4.438h3.192zm3.892 2.996l.448-1.134c.392.238 1.064.434 1.652.434 2.198 0 3.094-1.442 3.15-3.22-.322.602-1.12 1.162-2.352 1.162-1.568 0-3.136-1.064-3.136-3.066 0-1.876 1.568-3.136 3.346-3.136s3.528 1.274 3.528 4.172c0 3.332-1.484 5.32-4.536 5.32-.7 0-1.652-.224-2.1-.532zm5.068-5.852c0-1.176-.966-1.904-1.96-1.904-1.008 0-1.96.714-1.96 1.904 0 1.232.924 1.918 1.96 1.918 1.008 0 1.96-.714 1.96-1.918zm9.66 6.174h-1.344v-6.398h-2.198v-.966c1.26-.028 2.128-.728 2.338-1.708h1.204V316zm3.178-4.536c0 1.386.252 2.366.798 2.94.35.364.798.588 1.442.588.644 0 1.092-.224 1.442-.588.546-.574.798-1.554.798-2.94s-.252-2.366-.798-2.94c-.35-.364-.798-.588-1.442-.588-.644 0-1.092.224-1.442.588-.546.574-.798 1.554-.798 2.94zm-1.358 0c0-1.246.21-2.394.812-3.29.588-.882 1.498-1.456 2.786-1.456s2.198.574 2.786 1.456c.602.896.812 2.044.812 3.29s-.21 2.394-.812 3.29c-.588.882-1.498 1.456-2.786 1.456s-2.198-.574-2.786-1.456c-.602-.896-.812-2.044-.812-3.29zm9.884 0c0 1.386.252 2.366.798 2.94.35.364.798.588 1.442.588.644 0 1.092-.224 1.442-.588.546-.574.798-1.554.798-2.94s-.252-2.366-.798-2.94c-.35-.364-.798-.588-1.442-.588-.644 0-1.092.224-1.442.588-.546.574-.798 1.554-.798 2.94zm-1.358 0c0-1.246.21-2.394.812-3.29.588-.882 1.498-1.456 2.786-1.456s2.198.574 2.786 1.456c.602.896.812 2.044.812 3.29s-.21 2.394-.812 3.29c-.588.882-1.498 1.456-2.786 1.456s-2.198-.574-2.786-1.456c-.602-.896-.812-2.044-.812-3.29zm9.548-2.436c0 .644.476 1.106 1.078 1.106.616 0 1.078-.462 1.078-1.106 0-.63-.462-1.092-1.078-1.092-.602 0-1.078.462-1.078 1.092zm-1.162 0c0-1.232 1.036-2.198 2.24-2.198 1.204 0 2.254.966 2.254 2.198 0 1.246-1.05 2.212-2.254 2.212s-2.24-.966-2.24-2.212zm6.706 4.872c0 .644.476 1.106 1.078 1.106.616 0 1.078-.462 1.078-1.106 0-.63-.462-1.092-1.078-1.092-.602 0-1.078.462-1.078 1.092zm-1.162 0c0-1.232 1.036-2.198 2.24-2.198 1.204 0 2.254.966 2.254 2.198 0 1.246-1.05 2.212-2.254 2.212s-2.24-.966-2.24-2.212zm-3.136 2.1h-1.288l6.524-9.072h1.26L190.818 316z"/>
    </g>
</svg>
