<svg xmlns="http://www.w3.org/2000/svg" width="360" height="240" viewBox="0 0 360 240">
    <g fill="none" fill-rule="evenodd">
        <rect width="360" height="240" fill="#F8F8F8" rx="4"/>
        <path d="M36 88h288v64H36z"/>
        <path stroke="#42B549" d="M36 133h288"/>
        <path fill="#000" fill-opacity=".38" d="M294.299 151.2c-1.904 0-3-1.618-3-4.43 0-2.79 1.107-4.424 3-4.424 1.88 0 2.988 1.64 2.988 4.441 0 2.807-1.09 4.412-2.988 4.412zm0-.92c1.248 0 1.928-1.243 1.928-3.51 0-2.245-.692-3.499-1.928-3.499s-1.94 1.266-1.94 3.499c0 2.261.692 3.51 1.94 3.51zm8.39 2.624h-.878l2.578-10.36h.89l-2.59 10.36zm10.061-1.705c-1.6 0-2.748-.99-2.842-2.449h1.037c.094.914.82 1.523 1.817 1.523 1.13 0 1.886-.773 1.886-1.933 0-1.16-.761-1.951-1.869-1.951-.767 0-1.4.345-1.746.949h-.99l.463-4.793h4.717v.943h-3.891l-.24 2.713h.094c.41-.48 1.007-.72 1.787-.72 1.605 0 2.73 1.165 2.73 2.83 0 1.716-1.201 2.888-2.953 2.888zm7.477 0c-1.905 0-3-1.617-3-4.43 0-2.789 1.107-4.423 3-4.423 1.88 0 2.988 1.64 2.988 4.441 0 2.807-1.09 4.412-2.988 4.412zm0-.92c1.248 0 1.927-1.242 1.927-3.51 0-2.244-.691-3.498-1.927-3.498-1.237 0-1.94 1.266-1.94 3.499 0 2.261.692 3.51 1.94 3.51z"/>
        <path fill="#000" fill-opacity=".7" d="M41.766 123h-1.407v-10.008h-3.632v-1.265h8.671v1.265h-3.632V123zm7.117-7.383c-.672 0-1.224.227-1.656.68-.433.453-.675 1.052-.727 1.797h4.64c-.015-.745-.229-1.344-.64-1.797-.411-.453-.95-.68-1.617-.68zm2.219 5.203h1.343a2.946 2.946 0 0 1-1.234 1.707c-.62.414-1.39.621-2.313.621-1.166 0-2.09-.391-2.773-1.175-.682-.784-1.023-1.843-1.023-3.176 0-1.323.343-2.382 1.03-3.176.688-.794 1.61-1.191 2.766-1.191 1.136 0 2.03.379 2.68 1.136.651.758.977 1.79.977 3.098v.516H46.5v.062c.036.834.272 1.495.707 1.985.435.49 1.01.734 1.723.734.541 0 .994-.098 1.36-.293.364-.195.634-.478.812-.848zm5.921-1h-.125l-2 3.18h-1.523l2.883-4.21-2.914-4.212h1.601l2 3.133h.125l1.977-3.133h1.523l-2.86 4.156 2.9 4.266h-1.594l-1.993-3.18zm5.672-7.422h1.344v2.18h1.875v1.125H64.04v4.766c0 .495.099.854.297 1.078.198.224.516.336.953.336.12 0 .223-.003.309-.008s.191-.013.316-.023v1.132a4.041 4.041 0 0 1-.789.079c-.865 0-1.486-.175-1.863-.524-.378-.349-.567-.924-.567-1.727v-5.109h-1.36v-1.125h1.36v-2.18zm12.547 9.29c.781 0 1.393-.275 1.836-.825.443-.55.664-1.282.664-2.199 0-.917-.222-1.65-.668-2.2-.445-.549-1.056-.823-1.832-.823-.781 0-1.383.274-1.805.824-.421.55-.632 1.282-.632 2.2 0 .916.21 1.649.632 2.198.422.55 1.024.825 1.805.825zm.063 4.546c-1.016 0-1.832-.21-2.45-.629-.617-.419-.977-.977-1.082-1.675h1.422c.073.343.292.618.657.824.364.206.849.308 1.453.308.755 0 1.345-.175 1.77-.527.424-.351.636-.837.636-1.457v-1.656h-.125a2.778 2.778 0 0 1-1.086 1.074 3.167 3.167 0 0 1-1.555.379c-1.088 0-1.949-.387-2.582-1.16-.633-.774-.949-1.79-.949-3.05 0-1.261.318-2.282.953-3.063.636-.782 1.495-1.172 2.578-1.172.589 0 1.127.134 1.614.402.487.268.85.629 1.09 1.082h.124v-1.336h1.282v8.57c0 .943-.338 1.693-1.012 2.25-.675.558-1.587.836-2.738.836zm9.43-3.086c-1.199 0-2.145-.389-2.84-1.168-.696-.778-1.043-1.842-1.043-3.19 0-1.355.347-2.42 1.043-3.196.695-.776 1.641-1.164 2.84-1.164 1.197 0 2.144.388 2.84 1.164.695.776 1.042 1.84 1.042 3.195 0 1.349-.347 2.413-1.043 3.191-.695.78-1.642 1.168-2.84 1.168zm0-1.21c.796 0 1.41-.277 1.843-.829.432-.552.649-1.325.649-2.32 0-1-.217-1.775-.649-2.324-.432-.55-1.047-.824-1.844-.824-.797 0-1.411.274-1.843.824-.433.55-.649 1.324-.649 2.324 0 .995.216 1.768.649 2.32.432.552 1.046.829 1.843.829zm9.038-6.32c-.671 0-1.224.226-1.656.679-.432.453-.674 1.052-.726 1.797h4.64c-.015-.745-.229-1.344-.64-1.797-.412-.453-.95-.68-1.618-.68zm2.22 5.202h1.343a2.946 2.946 0 0 1-1.234 1.707c-.62.414-1.391.621-2.313.621-1.167 0-2.091-.391-2.773-1.175-.683-.784-1.024-1.843-1.024-3.176 0-1.323.344-2.382 1.031-3.176.688-.794 1.61-1.191 2.766-1.191 1.135 0 2.029.379 2.68 1.136.65.758.976 1.79.976 3.098v.516h-6.054v.062c.036.834.272 1.495.707 1.985.435.49 1.009.734 1.722.734.542 0 .995-.098 1.36-.293.364-.195.635-.478.812-.848zm3.054-3.937c0-.698.3-1.281.898-1.75.6-.469 1.347-.703 2.243-.703.885 0 1.613.203 2.183.61.57.405.9.955.988 1.647h-1.328a1.349 1.349 0 0 0-.61-.812c-.317-.203-.73-.305-1.241-.305-.5 0-.922.116-1.266.348-.344.232-.516.535-.516.91 0 .287.12.525.36.715.24.19.607.345 1.101.465l1.297.312c.792.193 1.382.47 1.77.832.388.362.582.845.582 1.45 0 .755-.323 1.368-.969 1.84-.646.47-1.448.706-2.406.706-.938 0-1.706-.208-2.305-.625-.599-.416-.935-.974-1.008-1.671h1.383c.115.354.339.636.672.847.333.211.768.317 1.305.317.567 0 1.034-.123 1.398-.368.365-.244.547-.56.547-.945a.934.934 0 0 0-.332-.73c-.221-.196-.556-.348-1.004-.457l-1.445-.352c-.787-.193-1.366-.469-1.739-.828-.372-.36-.558-.844-.558-1.453zM111.586 123v-11.766h1.344v4.672h.125c.213-.463.537-.825.972-1.086.435-.26.976-.39 1.621-.39.891 0 1.598.272 2.122.816.523.544.785 1.311.785 2.3V123h-1.344v-5.125c0-.745-.165-1.303-.496-1.676-.33-.372-.814-.558-1.45-.558-.755 0-1.333.217-1.734.652-.4.435-.601 1.01-.601 1.723V123h-1.344zm12.469-7.383c-.672 0-1.224.227-1.657.68-.432.453-.674 1.052-.726 1.797h4.64c-.015-.745-.229-1.344-.64-1.797-.412-.453-.95-.68-1.617-.68zm2.218 5.203h1.344a2.946 2.946 0 0 1-1.234 1.707c-.62.414-1.39.621-2.313.621-1.166 0-2.09-.391-2.773-1.175-.682-.784-1.024-1.843-1.024-3.176 0-1.323.344-2.382 1.032-3.176.687-.794 1.61-1.191 2.765-1.191 1.136 0 2.029.379 2.68 1.136.651.758.977 1.79.977 3.098v.516h-6.055v.062c.036.834.272 1.495.707 1.985.435.49 1.009.734 1.723.734.541 0 .994-.098 1.359-.293.365-.195.635-.478.812-.848zm3.25 2.18v-8.422h1.282v1.25h.125c.125-.411.406-.747.843-1.008.438-.26.935-.39 1.493-.39a5.843 5.843 0 0 1 .672.039v1.344a2.53 2.53 0 0 0-.368-.051 5.352 5.352 0 0 0-.492-.028c-.64 0-1.17.193-1.586.579-.416.385-.625.874-.625 1.468V123h-1.344zm8.907-7.383c-.672 0-1.224.227-1.657.68-.432.453-.674 1.052-.726 1.797h4.64c-.015-.745-.229-1.344-.64-1.797-.412-.453-.95-.68-1.617-.68zm2.218 5.203h1.344a2.946 2.946 0 0 1-1.234 1.707c-.62.414-1.39.621-2.313.621-1.166 0-2.09-.391-2.773-1.175-.682-.784-1.024-1.843-1.024-3.176 0-1.323.344-2.382 1.032-3.176.687-.794 1.61-1.191 2.765-1.191 1.136 0 2.029.379 2.68 1.136.651.758.977 1.79.977 3.098v.516h-6.055v.062c.036.834.272 1.495.707 1.985.435.49 1.009.734 1.723.734.541 0 .994-.098 1.359-.293.365-.195.635-.478.812-.848z"/>
        <path fill="#000" fill-opacity=".38" d="M42.205 99.05v.95h-5.133v-8.455h1.055v7.506h4.078zm3.498.177c.52 0 .95-.152 1.292-.455.342-.302.513-.678.513-1.127v-.58l-1.7.11c-.921.063-1.382.407-1.382 1.032 0 .32.12.57.363.75.242.18.547.27.914.27zm-.187.884c-.614 0-1.122-.169-1.527-.507-.404-.337-.606-.795-.606-1.374 0-1.156.767-1.779 2.303-1.869l1.822-.111v-.574c0-.805-.477-1.207-1.43-1.207-.379 0-.693.068-.943.205a.937.937 0 0 0-.48.58h-1.02c.066-.508.328-.915.785-1.222.457-.306 1.021-.46 1.693-.46.77 0 1.363.187 1.779.56.416.373.624.888.624 1.544V100h-.961v-.932h-.094a2.077 2.077 0 0 1-.809.774c-.336.18-.714.27-1.136.27zm8.004 0c-.438 0-.835-.098-1.193-.296a2.116 2.116 0 0 1-.835-.823h-.094V100h-.96v-8.824h1.007v3.504h.094c.172-.34.437-.61.794-.809.357-.2.753-.299 1.187-.299.804 0 1.447.297 1.927.89.48.595.721 1.388.721 2.38 0 .988-.241 1.78-.724 2.376-.482.595-1.124.893-1.924.893zm-.235-5.63c-.574 0-1.028.21-1.362.632-.334.422-.501.998-.501 1.729 0 .73.167 1.306.5 1.728.335.422.789.633 1.363.633.578 0 1.03-.209 1.354-.627.324-.418.486-.996.486-1.734s-.162-1.317-.486-1.735c-.325-.418-.776-.627-1.354-.627zm6.985-.018c-.504 0-.918.17-1.243.51-.324.34-.506.789-.545 1.347h3.48c-.01-.558-.171-1.007-.48-1.347-.308-.34-.712-.51-1.212-.51zm1.664 3.902h1.007a2.21 2.21 0 0 1-.925 1.28c-.465.311-1.043.466-1.735.466-.875 0-1.568-.294-2.08-.882-.512-.587-.767-1.381-.767-2.381 0-.993.257-1.786.773-2.382.516-.596 1.207-.894 2.074-.894.852 0 1.522.284 2.01.853.488.568.732 1.343.732 2.323v.387h-4.54v.047c.027.625.204 1.12.53 1.488.326.367.757.55 1.292.55.406 0 .746-.073 1.02-.219.273-.147.476-.358.609-.636zm2.73 1.635v-8.824h1.008V100h-1.008z"/>
        <g transform="translate(315 126.654)">
            <path fill="#50E3C2" d="M2 9h1v4H2z"/>
            <path fill="#50E3C2" d="M0 9h5v1H0zM0 12h5v1H0z"/>
            <rect width="29" height="22" x="11" fill="#50E3C2" rx="2"/>
            <path fill="#50E3C2" d="M7 11l4-4 4 4-4 4z"/>
            <path fill="#FFF" d="M19.566 12.108V7.944h-.024l-2.832 4.164h2.856zm.96 0h1.152v.9h-1.152V15h-.96v-1.992h-3.732v-.984l3.876-5.532h.816v5.616zm2.448-3.312h1.02v.84h.024c.168-.344.432-.594.792-.75.36-.156.756-.234 1.188-.234.48 0 .898.088 1.254.264.356.176.652.414.888.714s.414.646.534 1.038c.12.392.18.808.18 1.248 0 .44-.058.856-.174 1.248a2.938 2.938 0 0 1-.528 1.026 2.49 2.49 0 0 1-.888.69c-.356.168-.77.252-1.242.252a3.066 3.066 0 0 1-1.068-.204 2.18 2.18 0 0 1-.522-.294 1.643 1.643 0 0 1-.414-.462h-.024v3.192h-1.02V8.796zm4.8 3.048c0-.288-.038-.57-.114-.846a2.283 2.283 0 0 0-.348-.738 1.705 1.705 0 0 0-.6-.516 1.822 1.822 0 0 0-.858-.192c-.344 0-.636.068-.876.204-.24.136-.436.314-.588.534-.152.22-.262.47-.33.75a3.597 3.597 0 0 0 .006 1.734c.072.284.186.534.342.75.156.216.358.39.606.522s.548.198.9.198.646-.068.882-.204a1.64 1.64 0 0 0 .57-.54 2.35 2.35 0 0 0 .312-.768c.064-.288.096-.584.096-.888zm3.948-.108l-2.16-2.94h1.308l1.488 2.172 1.548-2.172h1.224l-2.136 2.856 2.4 3.348h-1.308l-1.728-2.568L30.63 15h-1.236l2.328-3.264z"/>
        </g>
    </g>
</svg>
