<svg xmlns="http://www.w3.org/2000/svg" xmlns:xlink="http://www.w3.org/1999/xlink" width="540" height="161" viewBox="0 0 540 161">
    <defs>
        <path id="a" d="M116.945 51.149h38.111v16h-38.111z"/>
    </defs>
    <g fill="none" fill-rule="evenodd" transform="translate(0 .351)">
        <rect width="540" height="160" fill="#F8F8F8" rx="4"/>
        <path fill="#F50" d="M126 104.149h274v1H126z"/>
        <path fill="#F50" d="M126 102.149h1v5h-1zM399 102.149h1v5h-1z"/>
        <g transform="translate(126 46)">
            <use fill="#F8F8F8" xlink:href="#a"/>
            <path stroke="#F8F8F8" d="M117.445 51.649h37.111v15h-37.111z"/>
        </g>
        <text fill="#FF5722" font-family="HelveticaNeue, Helvetica Neue" font-size="12" transform="translate(126 46)">
            <tspan x="119.89" y="62.149">Varies</tspan>
        </text>
        <path d="M126 46.5h288v48H126z"/>
        <path stroke="#E0E0E0" d="M126 93.5h273.508"/>
        <path fill="#000" fill-opacity=".54" d="M132.205 57.55v.95h-5.133v-8.455h1.055v7.506h4.078zm3.498.177c.52 0 .95-.152 1.292-.455.342-.302.513-.678.513-1.127v-.58l-1.7.11c-.921.063-1.382.407-1.382 1.032 0 .32.12.57.363.75.242.18.547.27.914.27zm-.187.884c-.614 0-1.122-.169-1.527-.507-.404-.337-.606-.795-.606-1.374 0-1.156.767-1.779 2.303-1.869l1.822-.111v-.574c0-.805-.477-1.207-1.43-1.207-.379 0-.693.068-.943.205a.937.937 0 0 0-.48.58h-1.02c.066-.508.328-.915.785-1.222.457-.306 1.021-.46 1.693-.46.77 0 1.363.187 1.779.56.416.373.624.888.624 1.544V58.5h-.961v-.932h-.094a2.077 2.077 0 0 1-.809.774c-.336.18-.714.27-1.136.27zm8.004 0c-.438 0-.835-.098-1.193-.296a2.116 2.116 0 0 1-.835-.823h-.094V58.5h-.96v-8.824h1.007v3.504h.094c.172-.34.437-.61.794-.809.357-.2.753-.299 1.187-.299.804 0 1.447.297 1.927.89.48.595.721 1.388.721 2.38 0 .988-.241 1.78-.724 2.376-.482.595-1.124.893-1.924.893zm-.235-5.63c-.574 0-1.028.21-1.362.632-.334.422-.501.998-.501 1.729 0 .73.167 1.306.5 1.728.335.422.789.633 1.363.633.578 0 1.03-.209 1.354-.627.324-.418.486-.996.486-1.734s-.162-1.317-.486-1.735c-.325-.418-.776-.627-1.354-.627zm6.985-.018c-.504 0-.918.17-1.243.51-.324.34-.506.789-.545 1.347h3.48c-.01-.558-.171-1.007-.48-1.347-.308-.34-.712-.51-1.212-.51zm1.664 3.902h1.007a2.21 2.21 0 0 1-.925 1.28c-.465.311-1.043.466-1.735.466-.875 0-1.568-.294-2.08-.882-.512-.587-.767-1.381-.767-2.381 0-.993.257-1.786.773-2.382.516-.596 1.207-.894 2.074-.894.852 0 1.522.284 2.01.853.488.568.732 1.343.732 2.323v.387h-4.54v.047c.027.625.204 1.12.53 1.488.326.367.757.55 1.292.55.406 0 .746-.073 1.02-.219.273-.147.476-.358.609-.636zm2.73 1.635v-8.824h1.008V58.5h-1.008z"/>
    </g>
</svg>
