<svg xmlns="http://www.w3.org/2000/svg" xmlns:xlink="http://www.w3.org/1999/xlink" width="360" height="240" viewBox="0 0 360 240">
    <defs>
        <path id="a" d="M0 0h24v24H0z"/>
        <mask id="b" width="24" height="24" x="0" y="0" fill="#fff">
            <use xlink:href="#a"/>
        </mask>
    </defs>
    <g fill="none" fill-rule="evenodd">
        <rect width="360" height="240" fill="#F8F8F8" rx="4"/>
        <path d="M15.5 102.5h288v48h-288z"/>
        <path stroke="#E0E0E0" d="M15.5 149.5h288"/>
        <path fill="#000" fill-opacity=".7" d="M21.398 133.055l-1.828-1.235.125 2.18h-1.062l.125-2.188-1.828 1.243-.524-.907 1.953-1.023-1.953-1.031.524-.922 1.828 1.273-.125-2.218h1.062l-.125 2.218 1.828-1.273.524.922-1.945 1.031 1.945 1.023-.524.907zm7.032 0l-1.828-1.235.125 2.18h-1.063l.125-2.188-1.828 1.243-.523-.907 1.953-1.023-1.953-1.031.523-.922 1.828 1.273-.125-2.218h1.063l-.125 2.218 1.828-1.273.523.922-1.945 1.031 1.945 1.023-.523.907zm7.03 0l-1.827-1.235.125 2.18h-1.063l.125-2.188-1.828 1.243-.523-.907 1.953-1.023-1.953-1.031.523-.922 1.828 1.273-.125-2.218h1.063l-.125 2.218 1.828-1.273.523.922-1.945 1.031 1.945 1.023-.523.907zm7.032 0l-1.828-1.235.125 2.18h-1.062l.125-2.188-1.829 1.243-.523-.907 1.953-1.023-1.953-1.031.523-.922 1.829 1.273-.125-2.218h1.062l-.125 2.218 1.828-1.273.524.922-1.946 1.031 1.946 1.023-.524.907zm7.031 0l-1.828-1.235.125 2.18h-1.062l.125-2.188-1.828 1.243-.524-.907 1.953-1.023-1.953-1.031.524-.922 1.828 1.273-.125-2.218h1.062l-.125 2.218 1.828-1.273.524.922-1.945 1.031 1.945 1.023-.524.907zm7.032 0l-1.828-1.235.125 2.18h-1.063l.125-2.188-1.828 1.243-.523-.907 1.953-1.023-1.953-1.031.523-.922 1.828 1.273-.125-2.218h1.063l-.125 2.218 1.828-1.273.523.922-1.945 1.031 1.945 1.023-.523.907zm7.03 0l-1.827-1.235.125 2.18H60.82l.125-2.188-1.828 1.243-.523-.907 1.953-1.023-1.953-1.031.523-.922 1.828 1.273-.125-2.218h1.063l-.125 2.218 1.828-1.273.523.922-1.945 1.031 1.945 1.023-.523.907zm7.032 0l-1.828-1.235.125 2.18h-1.062l.125-2.188-1.829 1.243-.523-.907 1.953-1.023-1.953-1.031.523-.922 1.829 1.273-.125-2.218h1.062l-.125 2.218 1.828-1.273.524.922-1.946 1.031 1.946 1.023-.524.907zm7.031 0l-1.828-1.235.125 2.18h-1.062l.125-2.188-1.828 1.243-.524-.907 1.953-1.023-1.953-1.031.524-.922 1.828 1.273-.125-2.218h1.062l-.125 2.218 1.828-1.273.524.922-1.945 1.031 1.945 1.023-.524.907zm7.032 0l-1.828-1.235.125 2.18h-1.063l.125-2.188-1.828 1.243-.523-.907 1.953-1.023-1.954-1.031.524-.922 1.828 1.273-.125-2.218h1.063l-.125 2.218 1.828-1.273.523.922-1.945 1.031 1.945 1.023-.523.907zm7.03 0l-1.827-1.235.125 2.18h-1.063l.125-2.188-1.828 1.243-.523-.907 1.953-1.023-1.953-1.031.523-.922 1.828 1.273-.125-2.218h1.063l-.125 2.218 1.828-1.273.523.922-1.945 1.031 1.945 1.023-.523.907z"/>
        <g transform="translate(275.5 121.5)">
            <use stroke="#E0E0E0" stroke-dasharray="4" stroke-width="2" mask="url(#b)" xlink:href="#a"/>
            <path fill="#666" fill-rule="nonzero" d="M11.62 16.25a.63.63 0 0 1-.47-.25l-6-7a.63.63 0 0 1 .95-.78l5.52 6.45 5.53-6.45a.63.63 0 1 1 .95.78l-6 7a.63.63 0 0 1-.48.25z"/>
        </g>
        <path fill="#000" fill-opacity=".54" d="M16.572 106.045h3.194c.8 0 1.452.255 1.954.765s.753 1.167.753 1.971c0 .79-.255 1.437-.765 1.943-.51.505-1.161.758-1.954.758h-2.127v3.018h-1.055v-8.455zm1.055.937v3.563h1.863c.602 0 1.069-.154 1.4-.463.333-.309.499-.742.499-1.3 0-.583-.163-1.028-.49-1.337-.326-.308-.795-.463-1.409-.463h-1.863zm8.15 6.745c.52 0 .95-.152 1.292-.455.342-.302.513-.678.513-1.127v-.58l-1.7.11c-.921.063-1.382.407-1.382 1.032 0 .32.121.57.363.75.242.18.547.27.914.27zm-.187.884c-.613 0-1.122-.169-1.527-.507-.404-.337-.606-.795-.606-1.374 0-1.156.768-1.779 2.303-1.869l1.822-.111v-.574c0-.805-.477-1.207-1.43-1.207-.379 0-.693.068-.943.205a.937.937 0 0 0-.48.58h-1.02c.066-.508.328-.915.785-1.222.457-.306 1.022-.46 1.694-.46.769 0 1.362.187 1.778.56.416.373.624.888.624 1.544v4.324h-.961v-.932h-.094a2.077 2.077 0 0 1-.808.774c-.336.18-.715.27-1.137.27zm4.717-4.699c0-.523.224-.96.673-1.312.45-.352 1.01-.528 1.682-.528.664 0 1.21.153 1.638.457.428.305.675.717.741 1.237h-.996a1.011 1.011 0 0 0-.457-.61c-.238-.152-.549-.228-.932-.228-.375 0-.691.087-.949.26-.258.174-.387.402-.387.683 0 .215.09.394.27.536.18.143.455.259.826.349l.973.234c.593.145 1.036.353 1.327.624.29.272.436.634.436 1.087 0 .567-.242 1.027-.726 1.38-.485.354-1.086.53-1.805.53-.703 0-1.28-.156-1.728-.468-.45-.313-.702-.73-.756-1.254h1.037c.086.265.254.477.504.635.25.159.576.238.978.238.426 0 .776-.092 1.05-.276.273-.183.41-.42.41-.709a.7.7 0 0 0-.25-.548c-.166-.146-.417-.26-.753-.342l-1.084-.264c-.59-.144-1.024-.352-1.303-.621-.28-.27-.42-.633-.42-1.09zm6.164 0c0-.523.224-.96.674-1.312.449-.352 1.01-.528 1.681-.528.664 0 1.21.153 1.638.457.428.305.675.717.741 1.237h-.996a1.011 1.011 0 0 0-.457-.61c-.238-.152-.549-.228-.932-.228-.375 0-.691.087-.949.26-.258.174-.387.402-.387.683 0 .215.09.394.27.536.18.143.455.259.826.349l.973.234c.593.145 1.036.353 1.327.624.29.272.436.634.436 1.087 0 .567-.242 1.027-.726 1.38-.485.354-1.086.53-1.805.53-.703 0-1.28-.156-1.728-.468-.45-.313-.702-.73-.756-1.254h1.037c.086.265.254.477.504.635.25.159.576.238.978.238.426 0 .776-.092 1.05-.276.273-.183.41-.42.41-.709a.7.7 0 0 0-.25-.548c-.166-.146-.417-.26-.753-.342l-1.084-.264c-.59-.144-1.024-.352-1.303-.621-.28-.27-.42-.633-.42-1.09zm14.197-1.728l-.179.638-.442 1.58-.527 1.88-.443 1.58-.179.638h-1.025l-1.412-4.887h-.094l-1.406 4.887h-1.02l-1.77-6.316h1.02l1.243 5.05h.093l1.412-5.05h.967l1.412 5.05h.094l1.242-5.05h1.014zm3.709 6.427c-.898 0-1.608-.292-2.13-.876-.521-.584-.782-1.381-.782-2.393 0-1.016.26-1.815.782-2.397.522-.582 1.232-.873 2.13-.873.898 0 1.608.291 2.13.873.521.582.782 1.381.782 2.397 0 1.012-.26 1.81-.782 2.393-.522.584-1.232.876-2.13.876zm0-.908c.598 0 1.059-.207 1.383-.621.324-.414.486-.994.486-1.74 0-.75-.162-1.331-.486-1.743-.324-.412-.785-.619-1.383-.619s-1.059.207-1.383.619c-.324.412-.486.993-.486 1.743 0 .746.162 1.326.486 1.74.324.414.785.621 1.383.621zm4.494.797v-6.316h.961v.937h.094c.094-.309.304-.56.633-.756a2.146 2.146 0 0 1 1.119-.293 4.382 4.382 0 0 1 .504.03v1.007a4.014 4.014 0 0 0-.645-.059c-.48 0-.877.145-1.19.434-.312.29-.468.657-.468 1.102v3.914H58.87zm6.733.111c-.81 0-1.454-.297-1.934-.89-.48-.594-.72-1.387-.72-2.38 0-.991.241-1.784.726-2.378.484-.594 1.127-.89 1.928-.89.44 0 .836.097 1.186.292.35.196.614.467.794.815h.088v-3.504h1.008v8.824h-.961v-1.008h-.094a2.12 2.12 0 0 1-.832.823 2.41 2.41 0 0 1-1.19.296zm.234-5.63c-.574 0-1.025.21-1.354.63-.328.42-.492.996-.492 1.73 0 .74.163 1.317.49 1.735.326.418.778.627 1.356.627.574 0 1.027-.21 1.36-.633.331-.422.497-.998.497-1.728 0-.723-.167-1.297-.5-1.723-.335-.426-.787-.639-1.357-.639z"/>
        <g transform="translate(294 136.5)">
            <path fill="#50E3C2" d="M2 9h1v3H2z"/>
            <path fill="#50E3C2" d="M0 9h5v1H0zM0 11h5v1H0z"/>
            <rect width="29" height="22" x="12" fill="#50E3C2" rx="2"/>
            <path fill="#50E3C2" d="M8 11l4-4 4 4-4 4z"/>
            <path fill="#FFF" d="M20.566 12.108V7.944h-.024l-2.832 4.164h2.856zm.96 0h1.152v.9h-1.152V15h-.96v-1.992h-3.732v-.984l3.876-5.532h.816v5.616zm2.448-3.312h1.02v.84h.024c.168-.344.432-.594.792-.75.36-.156.756-.234 1.188-.234.48 0 .898.088 1.254.264.356.176.652.414.888.714s.414.646.534 1.038c.12.392.18.808.18 1.248 0 .44-.058.856-.174 1.248a2.938 2.938 0 0 1-.528 1.026 2.49 2.49 0 0 1-.888.69c-.356.168-.77.252-1.242.252a3.066 3.066 0 0 1-1.068-.204 2.18 2.18 0 0 1-.522-.294 1.643 1.643 0 0 1-.414-.462h-.024v3.192h-1.02V8.796zm4.8 3.048c0-.288-.038-.57-.114-.846a2.283 2.283 0 0 0-.348-.738 1.705 1.705 0 0 0-.6-.516 1.822 1.822 0 0 0-.858-.192c-.344 0-.636.068-.876.204-.24.136-.436.314-.588.534-.152.22-.262.47-.33.75a3.597 3.597 0 0 0 .006 1.734c.072.284.186.534.342.75.156.216.358.39.606.522s.548.198.9.198.646-.068.882-.204a1.64 1.64 0 0 0 .57-.54 2.35 2.35 0 0 0 .312-.768c.064-.288.096-.584.096-.888zm3.948-.108l-2.16-2.94h1.308l1.488 2.172 1.548-2.172h1.224l-2.136 2.856 2.4 3.348h-1.308l-1.728-2.568L31.63 15h-1.236l2.328-3.264z"/>
        </g>
    </g>
</svg>
