<svg xmlns="http://www.w3.org/2000/svg" width="540" height="160" viewBox="0 0 540 160">
    <g fill="none" fill-rule="evenodd">
        <rect width="540" height="160" fill="#F8F8F8" rx="4"/>
        <path d="M126 56h288v48H126z"/>
        <path stroke="#42B549" d="M126 103h288"/>
        <path fill="#000" fill-opacity=".7" d="M128.836 93h-1.406V81.727h1.406V93zm2.39 0v-8.422h1.282v1.328h.125c.213-.463.527-.825.941-1.086.414-.26.944-.39 1.59-.39.948 0 1.676.27 2.184.808.507.54.761 1.309.761 2.309V93h-1.343v-5.125c0-.76-.163-1.323-.489-1.688-.325-.364-.824-.546-1.496-.546s-1.208.21-1.61.632c-.4.422-.6 1.003-.6 1.743V93h-1.344zm13.126-8.57c1.072 0 1.93.396 2.574 1.187.643.792.965 1.85.965 3.172 0 1.318-.322 2.374-.965 3.168s-1.502 1.191-2.574 1.191c-.6 0-1.13-.125-1.594-.375a2.44 2.44 0 0 1-1.04-1.039h-.124v4.079h-1.344V84.578h1.281v1.406h.125c.271-.484.645-.864 1.121-1.14a3.084 3.084 0 0 1 1.575-.414zm-.32 7.507c.775 0 1.38-.278 1.816-.835.435-.558.652-1.329.652-2.313 0-.984-.217-1.755-.652-2.312-.435-.558-1.038-.836-1.809-.836-.76 0-1.365.282-1.812.847-.448.565-.672 1.332-.672 2.301 0 .964.224 1.73.672 2.297.447.568 1.049.852 1.804.852zm12.468-7.359V93h-1.281v-1.32h-.125c-.209.468-.534.83-.977 1.086-.443.255-.987.382-1.633.382-.942 0-1.657-.27-2.144-.812-.487-.542-.73-1.31-.73-2.305v-5.453h1.343v5.125c0 .755.15 1.314.45 1.676.299.362.784.543 1.456.543.745 0 1.314-.208 1.707-.625.394-.417.59-.995.59-1.734v-4.985h1.344zm2.781-2.18h1.344v2.18h1.875v1.125h-1.875v4.766c0 .495.099.854.297 1.078.198.224.515.336.953.336.12 0 .223-.003.309-.008s.191-.013.316-.023v1.132a4.041 4.041 0 0 1-.79.079c-.864 0-1.485-.175-1.862-.524-.378-.349-.567-.924-.567-1.727v-5.109h-1.36v-1.125h1.36v-2.18z"/>
        <path stroke="#42B549" d="M167 95V79"/>
        <path fill="#000" fill-opacity=".38" d="M132.205 67.05V68h-5.133v-8.455h1.055v7.506h4.078zm3.498.177c.52 0 .95-.152 1.292-.455.342-.302.513-.678.513-1.127v-.58l-1.7.11c-.921.063-1.382.407-1.382 1.032 0 .32.12.57.363.75.242.18.547.27.914.27zm-.187.884c-.614 0-1.122-.169-1.527-.507-.404-.337-.606-.795-.606-1.374 0-1.156.767-1.779 2.303-1.869l1.822-.111v-.574c0-.805-.477-1.207-1.43-1.207-.379 0-.693.068-.943.205a.937.937 0 0 0-.48.58h-1.02c.066-.508.328-.915.785-1.222.457-.306 1.021-.46 1.693-.46.77 0 1.363.187 1.779.56.416.373.624.888.624 1.544V68h-.961v-.932h-.094a2.077 2.077 0 0 1-.809.774c-.336.18-.714.27-1.136.27zm8.004 0c-.438 0-.835-.098-1.193-.296a2.116 2.116 0 0 1-.835-.823h-.094V68h-.96v-8.824h1.007v3.504h.094c.172-.34.437-.61.794-.809.357-.2.753-.299 1.187-.299.804 0 1.447.297 1.927.89.48.595.721 1.388.721 2.38 0 .988-.241 1.78-.724 2.376-.482.595-1.124.893-1.924.893zm-.235-5.63c-.574 0-1.028.21-1.362.632-.334.422-.501.998-.501 1.729 0 .73.167 1.306.5 1.728.335.422.789.633 1.363.633.578 0 1.03-.209 1.354-.627.324-.418.486-.996.486-1.734s-.162-1.317-.486-1.735c-.325-.418-.776-.627-1.354-.627zm6.985-.018c-.504 0-.918.17-1.243.51-.324.34-.506.789-.545 1.347h3.48c-.01-.558-.171-1.007-.48-1.347-.308-.34-.712-.51-1.212-.51zm1.664 3.902h1.007a2.21 2.21 0 0 1-.925 1.28c-.465.311-1.043.466-1.735.466-.875 0-1.568-.294-2.08-.882-.512-.587-.767-1.381-.767-2.381 0-.993.257-1.786.773-2.382.516-.596 1.207-.894 2.074-.894.852 0 1.522.284 2.01.853.488.568.732 1.343.732 2.323v.387h-4.54v.047c.027.625.204 1.12.53 1.488.326.367.757.55 1.292.55.406 0 .746-.073 1.02-.219.273-.147.476-.358.609-.636zm2.73 1.635v-8.824h1.008V68h-1.008z"/>
    </g>
</svg>
