<svg xmlns="http://www.w3.org/2000/svg" width="360" height="319" viewBox="0 0 360 319">
    <g fill="none" fill-rule="evenodd">
        <rect width="360" height="240" fill="#F8F8F8" rx="4"/>
        <path d="M52.5 76.5h288v64h-288z"/>
        <path stroke="#E0E0E0" d="M52.5 121.5h288"/>
        <path fill="#000" fill-opacity=".38" d="M53.572 132.045h3.194c.8 0 1.452.255 1.954.765s.753 1.167.753 1.971c0 .79-.255 1.437-.765 1.943-.51.505-1.161.758-1.954.758h-2.127v3.018h-1.055v-8.455zm1.055.937v3.563h1.863c.602 0 1.069-.154 1.4-.463.333-.309.499-.742.499-1.3 0-.583-.163-1.028-.49-1.337-.326-.308-.795-.463-1.409-.463h-1.863zm6.498 7.518v-8.824h1.008v8.824h-1.008zm4.91-.773c.52 0 .95-.152 1.292-.455.342-.302.513-.678.513-1.127v-.58l-1.7.11c-.921.063-1.382.407-1.382 1.032 0 .32.12.57.363.75.242.18.547.27.914.27zm-.187.884c-.614 0-1.122-.169-1.527-.507-.404-.337-.606-.795-.606-1.374 0-1.156.767-1.779 2.303-1.869l1.822-.111v-.574c0-.805-.477-1.207-1.43-1.207-.379 0-.693.068-.943.205a.937.937 0 0 0-.48.58h-1.02c.066-.508.328-.915.785-1.222.457-.306 1.021-.46 1.693-.46.77 0 1.363.187 1.779.56.416.373.624.888.624 1.544v4.324h-.961v-.932h-.094a2.077 2.077 0 0 1-.809.774c-.336.18-.714.27-1.136.27zm10.09-4.494h-1.02a1.513 1.513 0 0 0-.536-.803c-.276-.222-.64-.334-1.093-.334-.566 0-1.017.211-1.35.633-.335.422-.501.99-.501 1.705 0 .73.167 1.31.503 1.74.336.43.786.645 1.348.645.426 0 .78-.096 1.064-.287.283-.191.471-.465.565-.82h1.02a2.283 2.283 0 0 1-.82 1.441c-.458.383-1.065.574-1.823.574-.883 0-1.587-.298-2.112-.893-.526-.596-.788-1.396-.788-2.4 0-.984.261-1.771.785-2.361.523-.59 1.226-.885 2.11-.885.769 0 1.38.2 1.836.6.455.401.726.883.811 1.445zm4.007-1.154c-.504 0-.918.17-1.242.51-.324.34-.506.789-.545 1.347h3.48c-.011-.558-.171-1.007-.48-1.347-.308-.34-.713-.51-1.213-.51zm1.664 3.902h1.008a2.21 2.21 0 0 1-.926 1.28c-.464.311-1.043.466-1.734.466-.875 0-1.568-.294-2.08-.882-.512-.587-.768-1.381-.768-2.381 0-.993.258-1.786.774-2.382.515-.596 1.207-.894 2.074-.894.852 0 1.522.284 2.01.853.488.568.732 1.343.732 2.323v.387h-4.54v.047c.027.625.203 1.12.53 1.488.326.367.756.55 1.291.55.407 0 .747-.073 1.02-.219.273-.147.477-.358.61-.636zm6.48 1.635v-5.473h-1.048v-.843h1.049v-.704c0-.628.155-1.096.466-1.403.31-.306.766-.46 1.368-.46.125 0 .243.005.354.015.112.01.22.024.326.044v.82a1.602 1.602 0 0 0-.217-.023 5.428 5.428 0 0 0-.258-.006c-.363 0-.626.087-.788.26-.162.174-.243.435-.243.783v.674h1.447v.843h-1.447v5.473H88.09zm6.253.111c-.899 0-1.609-.292-2.13-.876-.522-.584-.782-1.381-.782-2.393 0-1.016.26-1.815.782-2.397.521-.582 1.231-.873 2.13-.873.898 0 1.608.291 2.13.873.521.582.782 1.381.782 2.397 0 1.012-.26 1.81-.782 2.393-.522.584-1.232.876-2.13.876zm0-.908c.597 0 1.058-.207 1.383-.621.324-.414.486-.994.486-1.74 0-.75-.162-1.331-.486-1.743-.325-.412-.786-.619-1.383-.619-.598 0-1.059.207-1.383.619-.324.412-.486.993-.486 1.743 0 .746.162 1.326.486 1.74.324.414.785.621 1.383.621zm4.494.797v-6.316h.96v.937h.095c.093-.309.304-.56.632-.756a2.146 2.146 0 0 1 1.12-.293 4.382 4.382 0 0 1 .503.03v1.007a4.014 4.014 0 0 0-.645-.059c-.48 0-.876.145-1.188.434-.313.29-.47.657-.47 1.102v3.914h-1.007zm7.98 0v-6.316h1.008v6.316h-1.008zm.504-7.6a.676.676 0 0 1-.495-.208.676.676 0 0 1-.208-.495c0-.195.07-.361.208-.498a.68.68 0 0 1 .495-.205c.196 0 .362.068.498.205a.678.678 0 0 1 .205.498.68.68 0 0 1-.205.495.673.673 0 0 1-.498.208zm2.426 7.6v-6.316h.961v.996h.094c.16-.348.395-.62.706-.815.31-.195.708-.293 1.192-.293.711 0 1.257.202 1.638.607.38.404.571.981.571 1.731v4.09H113.9v-3.844c0-.57-.122-.992-.366-1.265-.244-.274-.618-.41-1.122-.41-.504 0-.906.158-1.207.474-.3.316-.451.752-.451 1.307v3.738h-1.008zm7.424 0v-5.473h-1.049v-.843h1.049v-.704c0-.628.155-1.096.466-1.403.31-.306.766-.46 1.368-.46.125 0 .243.005.354.015.112.01.22.024.326.044v.82a1.602 1.602 0 0 0-.217-.023 5.428 5.428 0 0 0-.258-.006c-.363 0-.626.087-.788.26-.162.174-.243.435-.243.783v.674h1.447v.843h-1.447v5.473h-1.008zm6.252.111c-.899 0-1.609-.292-2.13-.876-.521-.584-.782-1.381-.782-2.393 0-1.016.26-1.815.782-2.397.521-.582 1.231-.873 2.13-.873.898 0 1.608.291 2.13.873.521.582.782 1.381.782 2.397 0 1.012-.26 1.81-.782 2.393-.522.584-1.232.876-2.13.876zm0-.908c.598 0 1.058-.207 1.383-.621.324-.414.486-.994.486-1.74 0-.75-.162-1.331-.486-1.743-.325-.412-.785-.619-1.383-.619s-1.059.207-1.383.619c-.324.412-.486.993-.486 1.743 0 .746.162 1.326.486 1.74.324.414.785.621 1.383.621zm4.494.797v-6.316h.961v.937h.094c.093-.309.304-.56.633-.756a2.146 2.146 0 0 1 1.119-.293 4.382 4.382 0 0 1 .504.03v1.007a4.014 4.014 0 0 0-.645-.059c-.48 0-.877.145-1.19.434-.312.29-.468.657-.468 1.102v3.914h-1.008zm4.688 0v-6.316h.96v.996h.094a1.71 1.71 0 0 1 .674-.818c.305-.193.668-.29 1.09-.29.43 0 .792.103 1.087.308.295.205.514.472.659.8h.094c.172-.336.427-.605.767-.806.34-.201.729-.302 1.166-.302.645 0 1.14.178 1.489.533.347.356.521.866.521 1.53v4.365h-1.008v-4.13c0-.466-.11-.813-.33-1.044-.221-.23-.554-.346-1-.346-.437 0-.79.143-1.06.428-.27.285-.405.63-.405 1.031v4.061h-1.007v-4.29c0-.374-.12-.673-.36-.896-.241-.222-.56-.334-.959-.334-.414 0-.762.157-1.043.47a1.639 1.639 0 0 0-.422 1.136v3.914h-1.007zm12.386-.773c.52 0 .95-.152 1.292-.455.342-.302.513-.678.513-1.127v-.58l-1.7.11c-.921.063-1.382.407-1.382 1.032 0 .32.121.57.363.75.242.18.547.27.914.27zm-.187.884c-.614 0-1.122-.169-1.527-.507-.404-.337-.606-.795-.606-1.374 0-1.156.767-1.779 2.303-1.869l1.822-.111v-.574c0-.805-.477-1.207-1.43-1.207-.379 0-.693.068-.943.205a.937.937 0 0 0-.48.58h-1.02c.066-.508.328-.915.785-1.222.457-.306 1.022-.46 1.693-.46.77 0 1.363.187 1.779.56.416.373.624.888.624 1.544v4.324h-.961v-.932h-.094a2.077 2.077 0 0 1-.809.774c-.335.18-.714.27-1.136.27zm5.285-8.062h1.008v1.635h1.406v.843h-1.406v3.575c0 .37.074.64.222.808.149.168.387.252.715.252.09 0 .167-.002.232-.006l.237-.017v.85a3.03 3.03 0 0 1-.592.058c-.648 0-1.114-.131-1.397-.393-.284-.261-.425-.693-.425-1.295v-3.832h-1.02v-.843h1.02v-1.635zm3.96 7.951v-6.316h1.009v6.316h-1.008zm.505-7.6a.676.676 0 0 1-.495-.208.676.676 0 0 1-.208-.495c0-.195.069-.361.208-.498a.68.68 0 0 1 .495-.205c.195 0 .361.068.498.205a.678.678 0 0 1 .205.498.68.68 0 0 1-.205.495.673.673 0 0 1-.498.208zm5.021 7.711c-.898 0-1.608-.292-2.13-.876-.521-.584-.782-1.381-.782-2.393 0-1.016.26-1.815.782-2.397.522-.582 1.232-.873 2.13-.873.899 0 1.609.291 2.13.873.522.582.782 1.381.782 2.397 0 1.012-.26 1.81-.782 2.393-.521.584-1.231.876-2.13.876zm0-.908c.598 0 1.059-.207 1.383-.621.324-.414.486-.994.486-1.74 0-.75-.162-1.331-.486-1.743-.324-.412-.785-.619-1.383-.619-.597 0-1.058.207-1.383.619-.324.412-.486.993-.486 1.743 0 .746.162 1.326.486 1.74.325.414.786.621 1.383.621zm4.494.797v-6.316h.961v.996h.094c.16-.348.396-.62.706-.815.31-.195.708-.293 1.192-.293.711 0 1.257.202 1.638.607.381.404.571.981.571 1.731v4.09h-1.007v-3.844c0-.57-.122-.992-.367-1.265-.244-.274-.618-.41-1.122-.41-.504 0-.906.158-1.207.474-.3.316-.45.752-.45 1.307v3.738h-1.009zm10.81-7.951h1.009v1.635h1.406v.843h-1.406v3.575c0 .37.074.64.222.808.149.168.387.252.715.252.09 0 .167-.002.232-.006l.237-.017v.85a3.03 3.03 0 0 1-.592.058c-.648 0-1.114-.131-1.397-.393-.283-.261-.425-.693-.425-1.295v-3.832h-1.02v-.843h1.02v-1.635zm6.37 2.414c-.504 0-.918.17-1.242.51-.324.34-.506.789-.545 1.347h3.48c-.011-.558-.171-1.007-.48-1.347-.309-.34-.713-.51-1.213-.51zm1.664 3.902h1.008a2.21 2.21 0 0 1-.926 1.28c-.465.311-1.043.466-1.734.466-.875 0-1.569-.294-2.08-.882-.512-.587-.768-1.381-.768-2.381 0-.993.258-1.786.774-2.382.515-.596 1.207-.894 2.074-.894.851 0 1.521.284 2.01.853.488.568.732 1.343.732 2.323v.387h-4.541v.047c.027.625.204 1.12.53 1.488.326.367.757.55 1.292.55.406 0 .746-.073 1.02-.219.273-.147.476-.358.61-.636zm4.676-.75h-.094l-1.5 2.385h-1.142l2.162-3.158-2.186-3.158h1.201l1.5 2.35h.094l1.482-2.35h1.143l-2.144 3.117 2.173 3.199h-1.195l-1.494-2.385zm4.488-5.566h1.008v1.635h1.406v.843h-1.406v3.575c0 .37.074.64.223.808.148.168.386.252.714.252.09 0 .167-.002.232-.006l.237-.017v.85a3.03 3.03 0 0 1-.592.058c-.648 0-1.114-.131-1.397-.393-.283-.261-.425-.693-.425-1.295v-3.832h-1.02v-.843h1.02v-1.635z"/>
        <path fill="#000" fill-opacity=".54" d="M58.705 88.55v.95h-5.133v-8.455h1.055v7.506h4.078zm3.498.177c.52 0 .95-.152 1.292-.455.342-.302.513-.678.513-1.127v-.58l-1.7.11c-.921.063-1.382.407-1.382 1.032 0 .32.12.57.363.75.242.18.547.27.914.27zm-.187.884c-.614 0-1.122-.169-1.527-.507-.404-.337-.606-.795-.606-1.374 0-1.156.767-1.779 2.303-1.869l1.822-.111v-.574c0-.805-.477-1.207-1.43-1.207-.379 0-.693.068-.943.205a.937.937 0 0 0-.48.58h-1.02c.066-.508.328-.915.785-1.222.457-.306 1.021-.46 1.693-.46.77 0 1.363.187 1.779.56.416.373.624.888.624 1.544V89.5h-.961v-.932h-.094a2.077 2.077 0 0 1-.809.774c-.336.18-.714.27-1.136.27zm8.004 0c-.438 0-.835-.098-1.193-.296a2.116 2.116 0 0 1-.835-.823h-.094V89.5h-.96v-8.824h1.007v3.504h.094c.172-.34.437-.61.794-.809.357-.2.753-.299 1.187-.299.804 0 1.447.297 1.927.89.48.595.721 1.388.721 2.38 0 .988-.241 1.78-.724 2.376-.482.595-1.124.893-1.924.893zm-.235-5.63c-.574 0-1.028.21-1.362.632-.334.422-.501.998-.501 1.729 0 .73.167 1.306.5 1.728.335.422.789.633 1.363.633.578 0 1.03-.209 1.354-.627.324-.418.486-.996.486-1.734s-.162-1.317-.486-1.735c-.325-.418-.776-.627-1.354-.627zm6.985-.018c-.504 0-.918.17-1.243.51-.324.34-.506.789-.545 1.347h3.48c-.01-.558-.171-1.007-.48-1.347-.308-.34-.712-.51-1.212-.51zm1.664 3.902h1.007a2.21 2.21 0 0 1-.925 1.28c-.465.311-1.043.466-1.735.466-.875 0-1.568-.294-2.08-.882-.512-.587-.767-1.381-.767-2.381 0-.993.257-1.786.773-2.382.516-.596 1.207-.894 2.074-.894.852 0 1.522.284 2.01.853.488.568.732 1.343.732 2.323v.387h-4.54v.047c.027.625.204 1.12.53 1.488.326.367.757.55 1.292.55.406 0 .746-.073 1.02-.219.273-.147.476-.358.609-.636zm2.73 1.635v-8.824h1.008V89.5h-1.008z"/>
        <g transform="translate(19.5 115.5)">
            <path fill="#50E3C2" d="M37 9h1v4h-1z"/>
            <path fill="#50E3C2" d="M35 9h5v1h-5zM35 12h5v1h-5z"/>
            <rect width="29" height="22" fill="#50E3C2" rx="2"/>
            <path fill="#50E3C2" d="M25 11l4-4 4 4-4 4z"/>
            <path fill="#FFF" d="M8.566 12.108V7.944h-.024L5.71 12.108h2.856zm.96 0h1.152v.9H9.526V15h-.96v-1.992H4.834v-.984L8.71 6.492h.816v5.616zm2.448-3.312h1.02v.84h.024c.168-.344.432-.594.792-.75.36-.156.756-.234 1.188-.234.48 0 .898.088 1.254.264.356.176.652.414.888.714s.414.646.534 1.038c.12.392.18.808.18 1.248 0 .44-.058.856-.174 1.248a2.938 2.938 0 0 1-.528 1.026 2.49 2.49 0 0 1-.888.69c-.356.168-.77.252-1.242.252a3.066 3.066 0 0 1-1.068-.204 2.18 2.18 0 0 1-.522-.294 1.643 1.643 0 0 1-.414-.462h-.024v3.192h-1.02V8.796zm4.8 3.048c0-.288-.038-.57-.114-.846a2.283 2.283 0 0 0-.348-.738 1.705 1.705 0 0 0-.6-.516 1.822 1.822 0 0 0-.858-.192c-.344 0-.636.068-.876.204-.24.136-.436.314-.588.534-.152.22-.262.47-.33.75a3.597 3.597 0 0 0 .006 1.734c.072.284.186.534.342.75.156.216.358.39.606.522s.548.198.9.198.646-.068.882-.204a1.64 1.64 0 0 0 .57-.54 2.35 2.35 0 0 0 .312-.768c.064-.288.096-.584.096-.888zm3.948-.108l-2.16-2.94h1.308l1.488 2.172 1.548-2.172h1.224l-2.136 2.856 2.4 3.348h-1.308l-1.728-2.568L19.63 15h-1.236l2.328-3.264z"/>
        </g>
        <g transform="translate(19.5 141.5)">
            <path fill="#50E3C2" d="M37 2h1v8h-1z"/>
            <path fill="#50E3C2" d="M35 2h5v1h-5zM35 9h5v1h-5z"/>
            <rect width="29" height="22" fill="#50E3C2" rx="2"/>
            <path fill="#50E3C2" d="M25 6l4-4 4 4-4 4z"/>
            <path fill="#FFF" d="M6.358 8.7c0 .232.04.434.12.606.08.172.188.314.324.426.136.112.296.196.48.252.184.056.38.084.588.084.408 0 .744-.12 1.008-.36s.396-.576.396-1.008c0-.432-.134-.758-.402-.978-.268-.22-.61-.33-1.026-.33-.2 0-.392.028-.576.084-.184.056-.342.14-.474.252a1.278 1.278 0 0 0-.318.408c-.08.16-.12.348-.12.564zm-1.08-.036c0-.352.068-.662.204-.93.136-.268.32-.494.552-.678.232-.184.498-.324.798-.42.3-.096.614-.144.942-.144.464 0 .86.062 1.188.186.328.124.594.288.798.492.204.204.354.436.45.696.096.26.144.526.144.798 0 .384-.106.734-.318 1.05a1.976 1.976 0 0 1-.858.714c.512.16.892.422 1.14.786.248.364.372.81.372 1.338 0 .416-.074.784-.222 1.104-.148.32-.348.59-.6.81-.252.22-.55.386-.894.498a3.545 3.545 0 0 1-1.104.168c-.408 0-.788-.052-1.14-.156a2.547 2.547 0 0 1-.918-.48 2.253 2.253 0 0 1-.612-.81 2.706 2.706 0 0 1-.222-1.134c0-.504.128-.942.384-1.314.256-.372.624-.642 1.104-.81a1.835 1.835 0 0 1-.864-.702 1.876 1.876 0 0 1-.324-1.062zm.78 3.936c0 .512.17.914.51 1.206.34.292.774.438 1.302.438.256 0 .49-.042.702-.126.212-.084.396-.2.552-.348.156-.148.276-.322.36-.522.084-.2.126-.42.126-.66 0-.232-.046-.446-.138-.642a1.585 1.585 0 0 0-.378-.51 1.837 1.837 0 0 0-1.236-.468c-.248 0-.482.038-.702.114-.22.076-.412.186-.576.33a1.53 1.53 0 0 0-.522 1.188zm5.916-3.804h1.02v.84h.024c.168-.344.432-.594.792-.75.36-.156.756-.234 1.188-.234.48 0 .898.088 1.254.264.356.176.652.414.888.714s.414.646.534 1.038c.12.392.18.808.18 1.248 0 .44-.058.856-.174 1.248a2.938 2.938 0 0 1-.528 1.026 2.49 2.49 0 0 1-.888.69c-.356.168-.77.252-1.242.252a3.066 3.066 0 0 1-1.068-.204 2.18 2.18 0 0 1-.522-.294 1.643 1.643 0 0 1-.414-.462h-.024v3.192h-1.02V8.796zm4.8 3.048c0-.288-.038-.57-.114-.846a2.283 2.283 0 0 0-.348-.738 1.705 1.705 0 0 0-.6-.516 1.822 1.822 0 0 0-.858-.192c-.344 0-.636.068-.876.204-.24.136-.436.314-.588.534-.152.22-.262.47-.33.75a3.597 3.597 0 0 0 .006 1.734c.072.284.186.534.342.75.156.216.358.39.606.522s.548.198.9.198.646-.068.882-.204a1.64 1.64 0 0 0 .57-.54 2.35 2.35 0 0 0 .312-.768c.064-.288.096-.584.096-.888zm3.948-.108l-2.16-2.94h1.308l1.488 2.172 1.548-2.172h1.224l-2.136 2.856 2.4 3.348h-1.308l-1.728-2.568L19.63 15h-1.236l2.328-3.264z"/>
        </g>
        <path fill="#000" fill-opacity=".38" d="M9.812 254.44l-1.736.532c-.098-.546-.546-1.4-1.806-1.4-.938 0-1.554.602-1.554 1.26 0 .546.35.98 1.078 1.12l1.386.266c1.806.35 2.772 1.526 2.772 2.926 0 1.526-1.274 3.066-3.584 3.066-2.632 0-3.794-1.694-3.948-3.108l1.792-.476c.084.98.77 1.862 2.17 1.862 1.036 0 1.61-.518 1.61-1.218 0-.574-.434-1.022-1.204-1.176l-1.386-.28c-1.582-.322-2.604-1.344-2.604-2.842 0-1.764 1.582-3.108 3.458-3.108 2.408 0 3.332 1.456 3.556 2.576zm3.29 10.22H11.24v-9.548h1.806v.84c.308-.532 1.078-.994 2.114-.994 2.016 0 3.178 1.54 3.178 3.584 0 2.086-1.302 3.626-3.248 3.626-.952 0-1.652-.378-1.988-.84v3.332zm3.402-6.104c0-1.218-.756-1.932-1.708-1.932s-1.722.714-1.722 1.932.77 1.946 1.722 1.946 1.708-.714 1.708-1.946zm4.662-.784h3.08c-.028-.686-.476-1.358-1.54-1.358-.966 0-1.498.728-1.54 1.358zm3.262 1.792l1.554.462c-.35 1.19-1.442 2.184-3.136 2.184-1.89 0-3.556-1.358-3.556-3.682 0-2.198 1.624-3.626 3.388-3.626 2.128 0 3.402 1.358 3.402 3.57 0 .266-.028.546-.028.574h-4.928c.042.91.812 1.568 1.736 1.568.868 0 1.344-.434 1.568-1.05zm6.216-2.94c-.952 0-1.75.686-1.75 1.932s.812 1.946 1.764 1.946 1.428-.63 1.582-1.162l1.638.546c-.308 1.148-1.386 2.324-3.22 2.324-2.03 0-3.626-1.54-3.626-3.654 0-2.128 1.568-3.654 3.57-3.654 1.876 0 2.94 1.162 3.234 2.324l-1.666.56c-.168-.574-.602-1.162-1.526-1.162zm4.018 3.458l1.596-.35c.042.546.448 1.05 1.26 1.05.616 0 .91-.322.91-.686 0-.308-.21-.56-.742-.672l-.91-.21c-1.33-.294-1.932-1.092-1.932-2.058 0-1.232 1.092-2.254 2.576-2.254 1.96 0 2.618 1.246 2.702 1.988l-1.554.35c-.056-.406-.35-.924-1.134-.924-.49 0-.882.294-.882.686 0 .336.252.546.63.616l.98.21c1.358.28 2.044 1.106 2.044 2.114 0 1.12-.868 2.268-2.674 2.268-2.072 0-2.786-1.344-2.87-2.128zM11.072 280H9.7v-4.41H4.632V280H3.26v-9.926h1.372v4.242H9.7v-4.242h1.372V280zm3.234-4.06h3.682c-.028-.966-.658-1.722-1.848-1.722-1.106 0-1.778.854-1.834 1.722zm3.878 1.75l1.134.392c-.378 1.19-1.456 2.128-3.024 2.128-1.806 0-3.388-1.316-3.388-3.598 0-2.114 1.526-3.556 3.22-3.556 2.072 0 3.234 1.428 3.234 3.528 0 .168-.014.336-.028.42h-5.068c.028 1.204.896 2.044 2.03 2.044 1.092 0 1.638-.602 1.89-1.358zm4.172 2.31H21.04v-10.136h1.316V280zm3.542 2.66h-1.302v-9.394h1.274v1.05c.364-.672 1.162-1.204 2.254-1.204 2.016 0 3.094 1.554 3.094 3.514 0 2.002-1.162 3.556-3.136 3.556-1.036 0-1.82-.49-2.184-1.092v3.57zm3.976-6.034c0-1.344-.756-2.352-1.988-2.352-1.204 0-2.002 1.008-2.002 2.352 0 1.386.798 2.38 2.002 2.38 1.218 0 1.988-.994 1.988-2.38zm3.878-.686h3.682c-.028-.966-.658-1.722-1.848-1.722-1.106 0-1.778.854-1.834 1.722zm3.878 1.75l1.134.392c-.378 1.19-1.456 2.128-3.024 2.128-1.806 0-3.388-1.316-3.388-3.598 0-2.114 1.526-3.556 3.22-3.556 2.072 0 3.234 1.428 3.234 3.528 0 .168-.014.336-.028.42H33.71c.028 1.204.896 2.044 2.03 2.044 1.092 0 1.638-.602 1.89-1.358zm6.594-4.494v1.4a4.107 4.107 0 0 0-.574-.042c-1.106 0-1.848.588-1.848 2.072V280h-1.316v-6.734h1.288v1.176c.49-1.036 1.33-1.288 2.016-1.288.182 0 .364.028.434.042zm11.928-1.848h-3.318V280h-1.372v-8.652h-3.318v-1.274h8.008v1.274zm.784 4.592h3.682c-.028-.966-.658-1.722-1.848-1.722-1.106 0-1.778.854-1.834 1.722zm3.878 1.75l1.134.392c-.378 1.19-1.456 2.128-3.024 2.128-1.806 0-3.388-1.316-3.388-3.598 0-2.114 1.526-3.556 3.22-3.556 2.072 0 3.234 1.428 3.234 3.528 0 .168-.014.336-.028.42h-5.068c.028 1.204.896 2.044 2.03 2.044 1.092 0 1.638-.602 1.89-1.358zM62.62 280l2.506-3.43-2.422-3.304H64.3l1.652 2.366 1.624-2.366h1.554l-2.394 3.304c.406.546 2.072 2.884 2.478 3.43h-1.582l-1.736-2.478L64.188 280H62.62zm9.688-8.862v2.128h1.456v1.19h-1.456v3.5c0 .616.252.924.938.924.168 0 .406-.028.518-.056v1.12a2.88 2.88 0 0 1-.896.126c-1.148 0-1.876-.7-1.876-1.918v-3.696h-1.288v-1.19h.364c.728 0 1.036-.448 1.036-1.036v-1.092h1.204zm13.174 1.19l-1.232.434c-.112-.714-.714-1.694-2.1-1.694-1.12 0-1.918.728-1.918 1.652 0 .714.434 1.26 1.274 1.442l1.484.322c1.652.364 2.576 1.4 2.576 2.786 0 1.54-1.316 2.94-3.43 2.94-2.394 0-3.528-1.54-3.71-2.954l1.316-.42c.098 1.106.882 2.128 2.38 2.128 1.372 0 2.044-.714 2.044-1.582 0-.714-.49-1.33-1.484-1.54l-1.414-.308c-1.414-.308-2.422-1.232-2.422-2.716 0-1.554 1.442-2.954 3.276-2.954 2.24 0 3.136 1.386 3.36 2.464zM88.548 280h-1.302v-6.734h1.302V280zm-1.596-9.282c0-.532.42-.952.938-.952.532 0 .952.42.952.952 0 .518-.42.938-.952.938a.938.938 0 0 1-.938-.938zm8.68 9.282h-5.404v-1.148l3.696-4.396h-3.64v-1.19h5.278v1.148l-3.696 4.396h3.766V280zm2.534-4.06h3.682c-.028-.966-.658-1.722-1.848-1.722-1.106 0-1.778.854-1.834 1.722zm3.878 1.75l1.134.392c-.378 1.19-1.456 2.128-3.024 2.128-1.806 0-3.388-1.316-3.388-3.598 0-2.114 1.526-3.556 3.22-3.556 2.072 0 3.234 1.428 3.234 3.528 0 .168-.014.336-.028.42h-5.068c.028 1.204.896 2.044 2.03 2.044 1.092 0 1.638-.602 1.89-1.358zm9.128 2.31h-1.344v-6.398h-2.198v-.966c1.26-.028 2.128-.728 2.338-1.708h1.204V280zm3.094-5.81l-1.372-.168c-.014-.126-.014-.252-.014-.364 0-1.554 1.148-2.94 3.136-2.94 1.946 0 3.066 1.274 3.066 2.786 0 1.19-.672 2.142-1.708 2.8l-1.792 1.148c-.518.336-.98.714-1.106 1.274h4.662V280h-6.356c.028-1.484.616-2.618 2.156-3.612l1.512-.98c.854-.546 1.246-1.19 1.246-1.89 0-.826-.56-1.596-1.708-1.596-1.19 0-1.75.826-1.75 1.862 0 .126.014.266.028.406zm7.854 8.47h-1.302v-9.394h1.274v1.05c.364-.672 1.162-1.204 2.254-1.204 2.016 0 3.094 1.554 3.094 3.514 0 2.002-1.162 3.556-3.136 3.556-1.036 0-1.82-.49-2.184-1.092v3.57zm3.976-6.034c0-1.344-.756-2.352-1.988-2.352-1.204 0-2.002 1.008-2.002 2.352 0 1.386.798 2.38 2.002 2.38 1.218 0 1.988-.994 1.988-2.38zM128 280l2.506-3.43-2.422-3.304h1.596l1.652 2.366 1.624-2.366h1.554l-2.394 3.304c.406.546 2.072 2.884 2.478 3.43h-1.582l-1.736-2.478-1.708 2.478H128zm7.714-.896c0-.504.434-.938 1.022-.938.602 0 1.134.448 1.134 1.33 0 1.848-1.204 2.618-2.072 2.73v-.728c.686-.154 1.148-.84 1.162-1.512a.61.61 0 0 1-.308.07c-.518 0-.938-.35-.938-.952zm12.194 1.106c-2.562 0-4.928-1.862-4.928-5.18 0-3.318 2.464-5.166 4.928-5.166 2.268 0 3.864 1.232 4.368 3.15l-1.274.448c-.378-1.498-1.47-2.338-3.094-2.338-1.806 0-3.528 1.316-3.528 3.906s1.722 3.92 3.528 3.92c1.694 0 2.758-1.022 3.164-2.38l1.218.448c-.532 1.862-2.1 3.192-4.382 3.192zm8.666-1.176c1.12 0 2.1-.84 2.1-2.408 0-1.554-.98-2.394-2.1-2.394s-2.1.84-2.1 2.394c0 1.568.98 2.408 2.1 2.408zm0-5.978c2.016 0 3.444 1.526 3.444 3.57 0 2.058-1.428 3.584-3.444 3.584s-3.444-1.526-3.444-3.584c0-2.044 1.428-3.57 3.444-3.57zm6.44 6.944h-1.316v-10.136h1.316V280zm5.124-.966c1.12 0 2.1-.84 2.1-2.408 0-1.554-.98-2.394-2.1-2.394s-2.1.84-2.1 2.394c0 1.568.98 2.408 2.1 2.408zm0-5.978c2.016 0 3.444 1.526 3.444 3.57 0 2.058-1.428 3.584-3.444 3.584s-3.444-1.526-3.444-3.584c0-2.044 1.428-3.57 3.444-3.57zm8.862.14v1.4a4.107 4.107 0 0 0-.574-.042c-1.106 0-1.848.588-1.848 2.072V280h-1.316v-6.734h1.288v1.176c.49-1.036 1.33-1.288 2.016-1.288.182 0 .364.028.434.042zm5.838 2.268c0 1.386.252 2.366.798 2.94.35.364.798.588 1.442.588.644 0 1.092-.224 1.442-.588.546-.574.798-1.554.798-2.94s-.252-2.366-.798-2.94c-.35-.364-.798-.588-1.442-.588-.644 0-1.092.224-1.442.588-.546.574-.798 1.554-.798 2.94zm-1.358 0c0-1.246.21-2.394.812-3.29.588-.882 1.498-1.456 2.786-1.456s2.198.574 2.786 1.456c.602.896.812 2.044.812 3.29s-.21 2.394-.812 3.29c-.588.882-1.498 1.456-2.786 1.456s-2.198-.574-2.786-1.456c-.602-.896-.812-2.044-.812-3.29zm9.884 0c0 1.386.252 2.366.798 2.94.35.364.798.588 1.442.588.644 0 1.092-.224 1.442-.588.546-.574.798-1.554.798-2.94s-.252-2.366-.798-2.94c-.35-.364-.798-.588-1.442-.588-.644 0-1.092.224-1.442.588-.546.574-.798 1.554-.798 2.94zm-1.358 0c0-1.246.21-2.394.812-3.29.588-.882 1.498-1.456 2.786-1.456s2.198.574 2.786 1.456c.602.896.812 2.044.812 3.29s-.21 2.394-.812 3.29c-.588.882-1.498 1.456-2.786 1.456s-2.198-.574-2.786-1.456c-.602-.896-.812-2.044-.812-3.29zm9.884 0c0 1.386.252 2.366.798 2.94.35.364.798.588 1.442.588.644 0 1.092-.224 1.442-.588.546-.574.798-1.554.798-2.94s-.252-2.366-.798-2.94c-.35-.364-.798-.588-1.442-.588-.644 0-1.092.224-1.442.588-.546.574-.798 1.554-.798 2.94zm-1.358 0c0-1.246.21-2.394.812-3.29.588-.882 1.498-1.456 2.786-1.456s2.198.574 2.786 1.456c.602.896.812 2.044.812 3.29s-.21 2.394-.812 3.29c-.588.882-1.498 1.456-2.786 1.456s-2.198-.574-2.786-1.456c-.602-.896-.812-2.044-.812-3.29zm9.884 0c0 1.386.252 2.366.798 2.94.35.364.798.588 1.442.588.644 0 1.092-.224 1.442-.588.546-.574.798-1.554.798-2.94s-.252-2.366-.798-2.94c-.35-.364-.798-.588-1.442-.588-.644 0-1.092.224-1.442.588-.546.574-.798 1.554-.798 2.94zm-1.358 0c0-1.246.21-2.394.812-3.29.588-.882 1.498-1.456 2.786-1.456s2.198.574 2.786 1.456c.602.896.812 2.044.812 3.29s-.21 2.394-.812 3.29c-.588.882-1.498 1.456-2.786 1.456s-2.198-.574-2.786-1.456c-.602-.896-.812-2.044-.812-3.29zm9.884 0c0 1.386.252 2.366.798 2.94.35.364.798.588 1.442.588.644 0 1.092-.224 1.442-.588.546-.574.798-1.554.798-2.94s-.252-2.366-.798-2.94c-.35-.364-.798-.588-1.442-.588-.644 0-1.092.224-1.442.588-.546.574-.798 1.554-.798 2.94zm-1.358 0c0-1.246.21-2.394.812-3.29.588-.882 1.498-1.456 2.786-1.456s2.198.574 2.786 1.456c.602.896.812 2.044.812 3.29s-.21 2.394-.812 3.29c-.588.882-1.498 1.456-2.786 1.456s-2.198-.574-2.786-1.456c-.602-.896-.812-2.044-.812-3.29zm9.884 0c0 1.386.252 2.366.798 2.94.35.364.798.588 1.442.588.644 0 1.092-.224 1.442-.588.546-.574.798-1.554.798-2.94s-.252-2.366-.798-2.94c-.35-.364-.798-.588-1.442-.588-.644 0-1.092.224-1.442.588-.546.574-.798 1.554-.798 2.94zm-1.358 0c0-1.246.21-2.394.812-3.29.588-.882 1.498-1.456 2.786-1.456s2.198.574 2.786 1.456c.602.896.812 2.044.812 3.29s-.21 2.394-.812 3.29c-.588.882-1.498 1.456-2.786 1.456s-2.198-.574-2.786-1.456c-.602-.896-.812-2.044-.812-3.29zm14.546.322l-.672-1.134 2.674-2.464h-4.34v-1.26h6.16v1.232l-2.59 2.394c1.33 0 2.8.896 2.8 2.758 0 1.526-1.176 2.912-3.29 2.912-2.1 0-3.29-1.372-3.374-2.856l1.344-.308c.056 1.204.924 1.96 2.016 1.96 1.246 0 1.918-.77 1.918-1.68 0-1.19-.952-1.694-1.848-1.694-.28 0-.56.056-.798.14zm8.512-.994c.966-.014 1.68-.602 1.68-1.484 0-.812-.658-1.456-1.68-1.456-1.022 0-1.68.644-1.68 1.456 0 .882.714 1.47 1.68 1.484zm0 4.228c1.218 0 1.904-.672 1.904-1.526 0-.868-.7-1.554-1.904-1.554s-1.904.686-1.904 1.554c0 .854.686 1.526 1.904 1.526zm0 1.19c-2.086 0-3.29-1.148-3.29-2.604 0-1.106.756-1.918 1.722-2.24a2.282 2.282 0 0 1-1.484-2.128c0-1.484 1.316-2.52 3.052-2.52s3.052 1.036 3.052 2.52c0 .98-.644 1.82-1.484 2.128.966.308 1.722 1.134 1.722 2.24 0 1.456-1.204 2.604-3.29 2.604zm5.782-7.182c0 .644.476 1.106 1.078 1.106.616 0 1.078-.462 1.078-1.106 0-.63-.462-1.092-1.078-1.092-.602 0-1.078.462-1.078 1.092zm-1.162 0c0-1.232 1.036-2.198 2.24-2.198 1.204 0 2.254.966 2.254 2.198 0 1.246-1.05 2.212-2.254 2.212s-2.24-.966-2.24-2.212zm6.706 4.872c0 .644.476 1.106 1.078 1.106.616 0 1.078-.462 1.078-1.106 0-.63-.462-1.092-1.078-1.092-.602 0-1.078.462-1.078 1.092zm-1.162 0c0-1.232 1.036-2.198 2.24-2.198 1.204 0 2.254.966 2.254 2.198 0 1.246-1.05 2.212-2.254 2.212s-2.24-.966-2.24-2.212zm-3.136 2.1h-1.288l6.524-9.072h1.26L254.196 280zM9.322 298H3.26v-9.926h1.372v8.638h4.69V298zm1.05-1.806c0-1.204.882-1.876 2.044-2.044l1.82-.266c.406-.056.518-.266.518-.504 0-.658-.434-1.204-1.456-1.204-.924 0-1.442.574-1.526 1.358l-1.26-.294c.14-1.288 1.302-2.184 2.758-2.184 2.016 0 2.8 1.148 2.8 2.464v3.374c0 .588.056.938.084 1.106h-1.288a4.926 4.926 0 0 1-.07-.91c-.294.476-.966 1.12-2.17 1.12-1.372 0-2.254-.952-2.254-2.016zm2.436.91c1.078 0 1.946-.518 1.946-1.988v-.308l-2.058.308c-.56.084-.98.406-.98 1.008 0 .504.42.98 1.092.98zm6.608.896h-1.302v-10.136h1.302v4.354c.322-.602 1.106-1.148 2.226-1.148 2.044 0 3.094 1.568 3.094 3.528 0 2.002-1.134 3.584-3.136 3.584-.994 0-1.764-.434-2.184-1.162v.98zm3.976-3.402c0-1.456-.77-2.366-1.988-2.366-1.162 0-2.002.91-2.002 2.366s.84 2.408 2.002 2.408c1.204 0 1.988-.952 1.988-2.408zm3.878-.658h3.682c-.028-.966-.658-1.722-1.848-1.722-1.106 0-1.778.854-1.834 1.722zm3.878 1.75l1.134.392c-.378 1.19-1.456 2.128-3.024 2.128-1.806 0-3.388-1.316-3.388-3.598 0-2.114 1.526-3.556 3.22-3.556 2.072 0 3.234 1.428 3.234 3.528 0 .168-.014.336-.028.42h-5.068c.028 1.204.896 2.044 2.03 2.044 1.092 0 1.638-.602 1.89-1.358zM35.32 298h-1.316v-10.136h1.316V298zm12.768-8.652H44.77V298h-1.372v-8.652H40.08v-1.274h8.008v1.274zm.784 4.592h3.682c-.028-.966-.658-1.722-1.848-1.722-1.106 0-1.778.854-1.834 1.722zm3.878 1.75l1.134.392c-.378 1.19-1.456 2.128-3.024 2.128-1.806 0-3.388-1.316-3.388-3.598 0-2.114 1.526-3.556 3.22-3.556 2.072 0 3.234 1.428 3.234 3.528 0 .168-.014.336-.028.42H48.83c.028 1.204.896 2.044 2.03 2.044 1.092 0 1.638-.602 1.89-1.358zm1.806 2.31l2.506-3.43-2.422-3.304h1.596l1.652 2.366 1.624-2.366h1.554l-2.394 3.304c.406.546 2.072 2.884 2.478 3.43h-1.582l-1.736-2.478L56.124 298h-1.568zm9.688-8.862v2.128H65.7v1.19h-1.456v3.5c0 .616.252.924.938.924.168 0 .406-.028.518-.056v1.12a2.88 2.88 0 0 1-.896.126c-1.148 0-1.876-.7-1.876-1.918v-3.696H61.64v-1.19h.364c.728 0 1.036-.448 1.036-1.036v-1.092h1.204zm13.174 1.19l-1.232.434c-.112-.714-.714-1.694-2.1-1.694-1.12 0-1.918.728-1.918 1.652 0 .714.434 1.26 1.274 1.442l1.484.322c1.652.364 2.576 1.4 2.576 2.786 0 1.54-1.316 2.94-3.43 2.94-2.394 0-3.528-1.54-3.71-2.954l1.316-.42c.098 1.106.882 2.128 2.38 2.128 1.372 0 2.044-.714 2.044-1.582 0-.714-.49-1.33-1.484-1.54l-1.414-.308c-1.414-.308-2.422-1.232-2.422-2.716 0-1.554 1.442-2.954 3.276-2.954 2.24 0 3.136 1.386 3.36 2.464zM80.484 298h-1.302v-6.734h1.302V298zm-1.596-9.282c0-.532.42-.952.938-.952.532 0 .952.42.952.952 0 .518-.42.938-.952.938a.938.938 0 0 1-.938-.938zm8.68 9.282h-5.404v-1.148l3.696-4.396h-3.64v-1.19h5.278v1.148l-3.696 4.396h3.766V298zm2.534-4.06h3.682c-.028-.966-.658-1.722-1.848-1.722-1.106 0-1.778.854-1.834 1.722zm3.878 1.75l1.134.392c-.378 1.19-1.456 2.128-3.024 2.128-1.806 0-3.388-1.316-3.388-3.598 0-2.114 1.526-3.556 3.22-3.556 2.072 0 3.234 1.428 3.234 3.528 0 .168-.014.336-.028.42H90.06c.028 1.204.896 2.044 2.03 2.044 1.092 0 1.638-.602 1.89-1.358zm9.128 2.31h-1.344v-6.398h-2.198v-.966c1.26-.028 2.128-.728 2.338-1.708h1.204V298zm3.094-5.81l-1.372-.168c-.014-.126-.014-.252-.014-.364 0-1.554 1.148-2.94 3.136-2.94 1.946 0 3.066 1.274 3.066 2.786 0 1.19-.672 2.142-1.708 2.8l-1.792 1.148c-.518.336-.98.714-1.106 1.274h4.662V298h-6.356c.028-1.484.616-2.618 2.156-3.612l1.512-.98c.854-.546 1.246-1.19 1.246-1.89 0-.826-.56-1.596-1.708-1.596-1.19 0-1.75.826-1.75 1.862 0 .126.014.266.028.406zm7.854 8.47h-1.302v-9.394h1.274v1.05c.364-.672 1.162-1.204 2.254-1.204 2.016 0 3.094 1.554 3.094 3.514 0 2.002-1.162 3.556-3.136 3.556-1.036 0-1.82-.49-2.184-1.092v3.57zm3.976-6.034c0-1.344-.756-2.352-1.988-2.352-1.204 0-2.002 1.008-2.002 2.352 0 1.386.798 2.38 2.002 2.38 1.218 0 1.988-.994 1.988-2.38zm1.904 3.374l2.506-3.43-2.422-3.304h1.596l1.652 2.366 1.624-2.366h1.554l-2.394 3.304c.406.546 2.072 2.884 2.478 3.43h-1.582l-1.736-2.478-1.708 2.478h-1.568zm7.714-.896c0-.504.434-.938 1.022-.938.602 0 1.134.448 1.134 1.33 0 1.848-1.204 2.618-2.072 2.73v-.728c.686-.154 1.148-.84 1.162-1.512a.61.61 0 0 1-.308.07c-.518 0-.938-.35-.938-.952zm12.194 1.106c-2.562 0-4.928-1.862-4.928-5.18 0-3.318 2.464-5.166 4.928-5.166 2.268 0 3.864 1.232 4.368 3.15l-1.274.448c-.378-1.498-1.47-2.338-3.094-2.338-1.806 0-3.528 1.316-3.528 3.906s1.722 3.92 3.528 3.92c1.694 0 2.758-1.022 3.164-2.38l1.218.448c-.532 1.862-2.1 3.192-4.382 3.192zm8.666-1.176c1.12 0 2.1-.84 2.1-2.408 0-1.554-.98-2.394-2.1-2.394s-2.1.84-2.1 2.394c0 1.568.98 2.408 2.1 2.408zm0-5.978c2.016 0 3.444 1.526 3.444 3.57 0 2.058-1.428 3.584-3.444 3.584s-3.444-1.526-3.444-3.584c0-2.044 1.428-3.57 3.444-3.57zm6.44 6.944h-1.316v-10.136h1.316V298zm5.124-.966c1.12 0 2.1-.84 2.1-2.408 0-1.554-.98-2.394-2.1-2.394s-2.1.84-2.1 2.394c0 1.568.98 2.408 2.1 2.408zm0-5.978c2.016 0 3.444 1.526 3.444 3.57 0 2.058-1.428 3.584-3.444 3.584s-3.444-1.526-3.444-3.584c0-2.044 1.428-3.57 3.444-3.57zm8.862.14v1.4a4.107 4.107 0 0 0-.574-.042c-1.106 0-1.848.588-1.848 2.072V298h-1.316v-6.734h1.288v1.176c.49-1.036 1.33-1.288 2.016-1.288.182 0 .364.028.434.042zm5.838 2.268c0 1.386.252 2.366.798 2.94.35.364.798.588 1.442.588.644 0 1.092-.224 1.442-.588.546-.574.798-1.554.798-2.94s-.252-2.366-.798-2.94c-.35-.364-.798-.588-1.442-.588-.644 0-1.092.224-1.442.588-.546.574-.798 1.554-.798 2.94zm-1.358 0c0-1.246.21-2.394.812-3.29.588-.882 1.498-1.456 2.786-1.456s2.198.574 2.786 1.456c.602.896.812 2.044.812 3.29s-.21 2.394-.812 3.29c-.588.882-1.498 1.456-2.786 1.456s-2.198-.574-2.786-1.456c-.602-.896-.812-2.044-.812-3.29zm9.884 0c0 1.386.252 2.366.798 2.94.35.364.798.588 1.442.588.644 0 1.092-.224 1.442-.588.546-.574.798-1.554.798-2.94s-.252-2.366-.798-2.94c-.35-.364-.798-.588-1.442-.588-.644 0-1.092.224-1.442.588-.546.574-.798 1.554-.798 2.94zm-1.358 0c0-1.246.21-2.394.812-3.29.588-.882 1.498-1.456 2.786-1.456s2.198.574 2.786 1.456c.602.896.812 2.044.812 3.29s-.21 2.394-.812 3.29c-.588.882-1.498 1.456-2.786 1.456s-2.198-.574-2.786-1.456c-.602-.896-.812-2.044-.812-3.29zm9.884 0c0 1.386.252 2.366.798 2.94.35.364.798.588 1.442.588.644 0 1.092-.224 1.442-.588.546-.574.798-1.554.798-2.94s-.252-2.366-.798-2.94c-.35-.364-.798-.588-1.442-.588-.644 0-1.092.224-1.442.588-.546.574-.798 1.554-.798 2.94zm-1.358 0c0-1.246.21-2.394.812-3.29.588-.882 1.498-1.456 2.786-1.456s2.198.574 2.786 1.456c.602.896.812 2.044.812 3.29s-.21 2.394-.812 3.29c-.588.882-1.498 1.456-2.786 1.456s-2.198-.574-2.786-1.456c-.602-.896-.812-2.044-.812-3.29zm9.884 0c0 1.386.252 2.366.798 2.94.35.364.798.588 1.442.588.644 0 1.092-.224 1.442-.588.546-.574.798-1.554.798-2.94s-.252-2.366-.798-2.94c-.35-.364-.798-.588-1.442-.588-.644 0-1.092.224-1.442.588-.546.574-.798 1.554-.798 2.94zm-1.358 0c0-1.246.21-2.394.812-3.29.588-.882 1.498-1.456 2.786-1.456s2.198.574 2.786 1.456c.602.896.812 2.044.812 3.29s-.21 2.394-.812 3.29c-.588.882-1.498 1.456-2.786 1.456s-2.198-.574-2.786-1.456c-.602-.896-.812-2.044-.812-3.29zm9.884 0c0 1.386.252 2.366.798 2.94.35.364.798.588 1.442.588.644 0 1.092-.224 1.442-.588.546-.574.798-1.554.798-2.94s-.252-2.366-.798-2.94c-.35-.364-.798-.588-1.442-.588-.644 0-1.092.224-1.442.588-.546.574-.798 1.554-.798 2.94zm-1.358 0c0-1.246.21-2.394.812-3.29.588-.882 1.498-1.456 2.786-1.456s2.198.574 2.786 1.456c.602.896.812 2.044.812 3.29s-.21 2.394-.812 3.29c-.588.882-1.498 1.456-2.786 1.456s-2.198-.574-2.786-1.456c-.602-.896-.812-2.044-.812-3.29zm9.884 0c0 1.386.252 2.366.798 2.94.35.364.798.588 1.442.588.644 0 1.092-.224 1.442-.588.546-.574.798-1.554.798-2.94s-.252-2.366-.798-2.94c-.35-.364-.798-.588-1.442-.588-.644 0-1.092.224-1.442.588-.546.574-.798 1.554-.798 2.94zm-1.358 0c0-1.246.21-2.394.812-3.29.588-.882 1.498-1.456 2.786-1.456s2.198.574 2.786 1.456c.602.896.812 2.044.812 3.29s-.21 2.394-.812 3.29c-.588.882-1.498 1.456-2.786 1.456s-2.198-.574-2.786-1.456c-.602-.896-.812-2.044-.812-3.29zm11.886 2.072l1.316-.392c.084 1.12.91 1.876 2.044 1.876 1.078 0 1.946-.714 1.946-1.834 0-1.246-.91-1.876-1.96-1.876-.644 0-1.26.252-1.652.658-.476-.182-.882-.364-1.344-.532l1.176-4.508h4.788v1.26h-3.878l-.672 2.604c.406-.448 1.134-.672 1.848-.672 1.778 0 3.08 1.134 3.08 3.01 0 1.708-1.316 3.094-3.332 3.094-1.932 0-3.234-1.26-3.36-2.688zm7.672.42v-1.582l3.892-5.446h1.89v5.754h1.554v1.274h-1.554V298h-1.33v-2.044h-4.452zm4.452-1.274v-4.438l-3.192 4.438h3.192zm4.886-3.654c0 .644.476 1.106 1.078 1.106.616 0 1.078-.462 1.078-1.106 0-.63-.462-1.092-1.078-1.092-.602 0-1.078.462-1.078 1.092zm-1.162 0c0-1.232 1.036-2.198 2.24-2.198 1.204 0 2.254.966 2.254 2.198 0 1.246-1.05 2.212-2.254 2.212s-2.24-.966-2.24-2.212zm6.706 4.872c0 .644.476 1.106 1.078 1.106.616 0 1.078-.462 1.078-1.106 0-.63-.462-1.092-1.078-1.092-.602 0-1.078.462-1.078 1.092zm-1.162 0c0-1.232 1.036-2.198 2.24-2.198 1.204 0 2.254.966 2.254 2.198 0 1.246-1.05 2.212-2.254 2.212s-2.24-.966-2.24-2.212zm-3.136 2.1H244.9l6.524-9.072h1.26L246.188 298zM4.66 316h-1.4v-9.926h1.4V316zm3.696-3.892V316H7.04v-6.734h1.288v.966c.49-.84 1.288-1.162 2.072-1.162 1.61 0 2.408 1.162 2.408 2.66V316h-1.316v-4.046c0-.938-.392-1.694-1.568-1.694-1.036 0-1.568.826-1.568 1.848zm7.854 6.552h-1.302v-9.394h1.274v1.05c.364-.672 1.162-1.204 2.254-1.204 2.016 0 3.094 1.554 3.094 3.514 0 2.002-1.162 3.556-3.136 3.556-1.036 0-1.82-.49-2.184-1.092v3.57zm3.976-6.034c0-1.344-.756-2.352-1.988-2.352-1.204 0-2.002 1.008-2.002 2.352 0 1.386.798 2.38 2.002 2.38 1.218 0 1.988-.994 1.988-2.38zm7.392 2.562c-.364.7-1.204 1.022-1.988 1.022-1.568 0-2.52-1.176-2.52-2.702v-4.242h1.316v4.046c0 .924.42 1.736 1.526 1.736 1.064 0 1.596-.7 1.596-1.722v-4.06h1.316v5.488c0 .532.042 1.008.07 1.246h-1.26a5.962 5.962 0 0 1-.056-.812zm5.25-8.05v2.128h1.456v1.19h-1.456v3.5c0 .616.252.924.938.924.168 0 .406-.028.518-.056v1.12a2.88 2.88 0 0 1-.896.126c-1.148 0-1.876-.7-1.876-1.918v-3.696h-1.288v-1.19h.364c.728 0 1.036-.448 1.036-1.036v-1.092h1.204zM45.736 316h-6.062v-9.926h1.372v8.638h4.69V316zm2.772 0h-1.302v-6.734h1.302V316zm-1.596-9.282c0-.532.42-.952.938-.952.532 0 .952.42.952.952 0 .518-.42.938-.952.938a.938.938 0 0 1-.938-.938zm5.152 5.39V316h-1.316v-6.734h1.288v.966c.49-.84 1.288-1.162 2.072-1.162 1.61 0 2.408 1.162 2.408 2.66V316H55.2v-4.046c0-.938-.392-1.694-1.568-1.694-1.036 0-1.568.826-1.568 1.848zm7.406-.168h3.682c-.028-.966-.658-1.722-1.848-1.722-1.106 0-1.778.854-1.834 1.722zm3.878 1.75l1.134.392c-.378 1.19-1.456 2.128-3.024 2.128-1.806 0-3.388-1.316-3.388-3.598 0-2.114 1.526-3.556 3.22-3.556 2.072 0 3.234 1.428 3.234 3.528 0 .168-.014.336-.028.42h-5.068c.028 1.204.896 2.044 2.03 2.044 1.092 0 1.638-.602 1.89-1.358zm10.794 2.52c-2.562 0-4.928-1.862-4.928-5.18 0-3.318 2.464-5.166 4.928-5.166 2.268 0 3.864 1.232 4.368 3.15l-1.274.448c-.378-1.498-1.47-2.338-3.094-2.338-1.806 0-3.528 1.316-3.528 3.906s1.722 3.92 3.528 3.92c1.694 0 2.758-1.022 3.164-2.38l1.218.448c-.532 1.862-2.1 3.192-4.382 3.192zm8.666-1.176c1.12 0 2.1-.84 2.1-2.408 0-1.554-.98-2.394-2.1-2.394s-2.1.84-2.1 2.394c0 1.568.98 2.408 2.1 2.408zm0-5.978c2.016 0 3.444 1.526 3.444 3.57 0 2.058-1.428 3.584-3.444 3.584s-3.444-1.526-3.444-3.584c0-2.044 1.428-3.57 3.444-3.57zm6.44 6.944h-1.316v-10.136h1.316V316zm5.124-.966c1.12 0 2.1-.84 2.1-2.408 0-1.554-.98-2.394-2.1-2.394s-2.1.84-2.1 2.394c0 1.568.98 2.408 2.1 2.408zm0-5.978c2.016 0 3.444 1.526 3.444 3.57 0 2.058-1.428 3.584-3.444 3.584s-3.444-1.526-3.444-3.584c0-2.044 1.428-3.57 3.444-3.57zm8.862.14v1.4a4.107 4.107 0 0 0-.574-.042c-1.106 0-1.848.588-1.848 2.072V316h-1.316v-6.734h1.288v1.176c.49-1.036 1.33-1.288 2.016-1.288.182 0 .364.028.434.042zM114.308 316h-6.034v-9.926h6.034v1.274h-4.662v3.052h4.228v1.288h-4.228v3.038h4.662V316zm2.898-4.536c0 1.386.252 2.366.798 2.94.35.364.798.588 1.442.588.644 0 1.092-.224 1.442-.588.546-.574.798-1.554.798-2.94s-.252-2.366-.798-2.94c-.35-.364-.798-.588-1.442-.588-.644 0-1.092.224-1.442.588-.546.574-.798 1.554-.798 2.94zm-1.358 0c0-1.246.21-2.394.812-3.29.588-.882 1.498-1.456 2.786-1.456s2.198.574 2.786 1.456c.602.896.812 2.044.812 3.29s-.21 2.394-.812 3.29c-.588.882-1.498 1.456-2.786 1.456s-2.198-.574-2.786-1.456c-.602-.896-.812-2.044-.812-3.29zm15.19 4.536h-6.034v-9.926h6.034v1.274h-4.662v3.052h4.228v1.288h-4.228v3.038h4.662V316zm2.898-4.536c0 1.386.252 2.366.798 2.94.35.364.798.588 1.442.588.644 0 1.092-.224 1.442-.588.546-.574.798-1.554.798-2.94s-.252-2.366-.798-2.94c-.35-.364-.798-.588-1.442-.588-.644 0-1.092.224-1.442.588-.546.574-.798 1.554-.798 2.94zm-1.358 0c0-1.246.21-2.394.812-3.29.588-.882 1.498-1.456 2.786-1.456s2.198.574 2.786 1.456c.602.896.812 2.044.812 3.29s-.21 2.394-.812 3.29c-.588.882-1.498 1.456-2.786 1.456s-2.198-.574-2.786-1.456c-.602-.896-.812-2.044-.812-3.29zm15.19 4.536h-6.034v-9.926h6.034v1.274h-4.662v3.052h4.228v1.288h-4.228v3.038h4.662V316zm2.898-4.536c0 1.386.252 2.366.798 2.94.35.364.798.588 1.442.588.644 0 1.092-.224 1.442-.588.546-.574.798-1.554.798-2.94s-.252-2.366-.798-2.94c-.35-.364-.798-.588-1.442-.588-.644 0-1.092.224-1.442.588-.546.574-.798 1.554-.798 2.94zm-1.358 0c0-1.246.21-2.394.812-3.29.588-.882 1.498-1.456 2.786-1.456s2.198.574 2.786 1.456c.602.896.812 2.044.812 3.29s-.21 2.394-.812 3.29c-.588.882-1.498 1.456-2.786 1.456s-2.198-.574-2.786-1.456c-.602-.896-.812-2.044-.812-3.29zM164.596 316h-1.344v-6.398h-2.198v-.966c1.26-.028 2.128-.728 2.338-1.708h1.204V316zm3.178-4.536c0 1.386.252 2.366.798 2.94.35.364.798.588 1.442.588.644 0 1.092-.224 1.442-.588.546-.574.798-1.554.798-2.94s-.252-2.366-.798-2.94c-.35-.364-.798-.588-1.442-.588-.644 0-1.092.224-1.442.588-.546.574-.798 1.554-.798 2.94zm-1.358 0c0-1.246.21-2.394.812-3.29.588-.882 1.498-1.456 2.786-1.456s2.198.574 2.786 1.456c.602.896.812 2.044.812 3.29s-.21 2.394-.812 3.29c-.588.882-1.498 1.456-2.786 1.456s-2.198-.574-2.786-1.456c-.602-.896-.812-2.044-.812-3.29zm9.884 0c0 1.386.252 2.366.798 2.94.35.364.798.588 1.442.588.644 0 1.092-.224 1.442-.588.546-.574.798-1.554.798-2.94s-.252-2.366-.798-2.94c-.35-.364-.798-.588-1.442-.588-.644 0-1.092.224-1.442.588-.546.574-.798 1.554-.798 2.94zm-1.358 0c0-1.246.21-2.394.812-3.29.588-.882 1.498-1.456 2.786-1.456s2.198.574 2.786 1.456c.602.896.812 2.044.812 3.29s-.21 2.394-.812 3.29c-.588.882-1.498 1.456-2.786 1.456s-2.198-.574-2.786-1.456c-.602-.896-.812-2.044-.812-3.29zm9.548-2.436c0 .644.476 1.106 1.078 1.106.616 0 1.078-.462 1.078-1.106 0-.63-.462-1.092-1.078-1.092-.602 0-1.078.462-1.078 1.092zm-1.162 0c0-1.232 1.036-2.198 2.24-2.198 1.204 0 2.254.966 2.254 2.198 0 1.246-1.05 2.212-2.254 2.212s-2.24-.966-2.24-2.212zm6.706 4.872c0 .644.476 1.106 1.078 1.106.616 0 1.078-.462 1.078-1.106 0-.63-.462-1.092-1.078-1.092-.602 0-1.078.462-1.078 1.092zm-1.162 0c0-1.232 1.036-2.198 2.24-2.198 1.204 0 2.254.966 2.254 2.198 0 1.246-1.05 2.212-2.254 2.212s-2.24-.966-2.24-2.212zm-3.136 2.1h-1.288l6.524-9.072h1.26L185.736 316z"/>
    </g>
</svg>
