<svg xmlns="http://www.w3.org/2000/svg" xmlns:xlink="http://www.w3.org/1999/xlink" width="360" height="301" viewBox="0 0 360 301">
    <defs>
        <path id="a" d="M116.945 0h38.111v16h-38.111z"/>
    </defs>
    <g fill="none" fill-rule="evenodd">
        <rect width="360" height="240" fill="#F8F8F8" rx="4"/>
        <path fill="#000" fill-opacity=".38" d="M9.812 254.44l-1.736.532c-.098-.546-.546-1.4-1.806-1.4-.938 0-1.554.602-1.554 1.26 0 .546.35.98 1.078 1.12l1.386.266c1.806.35 2.772 1.526 2.772 2.926 0 1.526-1.274 3.066-3.584 3.066-2.632 0-3.794-1.694-3.948-3.108l1.792-.476c.084.98.77 1.862 2.17 1.862 1.036 0 1.61-.518 1.61-1.218 0-.574-.434-1.022-1.204-1.176l-1.386-.28c-1.582-.322-2.604-1.344-2.604-2.842 0-1.764 1.582-3.108 3.458-3.108 2.408 0 3.332 1.456 3.556 2.576zm3.29 10.22H11.24v-9.548h1.806v.84c.308-.532 1.078-.994 2.114-.994 2.016 0 3.178 1.54 3.178 3.584 0 2.086-1.302 3.626-3.248 3.626-.952 0-1.652-.378-1.988-.84v3.332zm3.402-6.104c0-1.218-.756-1.932-1.708-1.932s-1.722.714-1.722 1.932.77 1.946 1.722 1.946 1.708-.714 1.708-1.946zm4.662-.784h3.08c-.028-.686-.476-1.358-1.54-1.358-.966 0-1.498.728-1.54 1.358zm3.262 1.792l1.554.462c-.35 1.19-1.442 2.184-3.136 2.184-1.89 0-3.556-1.358-3.556-3.682 0-2.198 1.624-3.626 3.388-3.626 2.128 0 3.402 1.358 3.402 3.57 0 .266-.028.546-.028.574h-4.928c.042.91.812 1.568 1.736 1.568.868 0 1.344-.434 1.568-1.05zm6.216-2.94c-.952 0-1.75.686-1.75 1.932s.812 1.946 1.764 1.946 1.428-.63 1.582-1.162l1.638.546c-.308 1.148-1.386 2.324-3.22 2.324-2.03 0-3.626-1.54-3.626-3.654 0-2.128 1.568-3.654 3.57-3.654 1.876 0 2.94 1.162 3.234 2.324l-1.666.56c-.168-.574-.602-1.162-1.526-1.162zm4.018 3.458l1.596-.35c.042.546.448 1.05 1.26 1.05.616 0 .91-.322.91-.686 0-.308-.21-.56-.742-.672l-.91-.21c-1.33-.294-1.932-1.092-1.932-2.058 0-1.232 1.092-2.254 2.576-2.254 1.96 0 2.618 1.246 2.702 1.988l-1.554.35c-.056-.406-.35-.924-1.134-.924-.49 0-.882.294-.882.686 0 .336.252.546.63.616l.98.21c1.358.28 2.044 1.106 2.044 2.114 0 1.12-.868 2.268-2.674 2.268-2.072 0-2.786-1.344-2.87-2.128zM7.558 280.21c-2.562 0-4.928-1.862-4.928-5.18 0-3.318 2.464-5.166 4.928-5.166 2.268 0 3.864 1.232 4.368 3.15l-1.274.448c-.378-1.498-1.47-2.338-3.094-2.338-1.806 0-3.528 1.316-3.528 3.906s1.722 3.92 3.528 3.92c1.694 0 2.758-1.022 3.164-2.38l1.218.448c-.532 1.862-2.1 3.192-4.382 3.192zm10.22-1.022c-.364.7-1.204 1.022-1.988 1.022-1.568 0-2.52-1.176-2.52-2.702v-4.242h1.316v4.046c0 .924.42 1.736 1.526 1.736 1.064 0 1.596-.7 1.596-1.722v-4.06h1.316v5.488c0 .532.042 1.008.07 1.246h-1.26a5.962 5.962 0 0 1-.056-.812zm7.224-5.992v1.4a4.107 4.107 0 0 0-.574-.042c-1.106 0-1.848.588-1.848 2.072V280h-1.316v-6.734h1.288v1.176c.49-1.036 1.33-1.288 2.016-1.288.182 0 .364.028.434.042zm.77 5.054l1.19-.42c.084.7.616 1.26 1.568 1.26.742 0 1.148-.42 1.148-.896 0-.42-.308-.742-.868-.868l-1.148-.252c-1.05-.224-1.68-.938-1.68-1.89 0-1.148 1.078-2.128 2.394-2.128 1.848 0 2.422 1.204 2.562 1.806l-1.162.434c-.056-.35-.336-1.12-1.4-1.12-.672 0-1.12.434-1.12.896 0 .406.252.7.77.812l1.092.238c1.218.266 1.862 1.008 1.862 2.002 0 .952-.798 2.086-2.464 2.086-1.848 0-2.632-1.19-2.744-1.96zm9.772.784c1.12 0 2.1-.84 2.1-2.408 0-1.554-.98-2.394-2.1-2.394s-2.1.84-2.1 2.394c0 1.568.98 2.408 2.1 2.408zm0-5.978c2.016 0 3.444 1.526 3.444 3.57 0 2.058-1.428 3.584-3.444 3.584s-3.444-1.526-3.444-3.584c0-2.044 1.428-3.57 3.444-3.57zm8.862.14v1.4a4.107 4.107 0 0 0-.574-.042c-1.106 0-1.848.588-1.848 2.072V280h-1.316v-6.734h1.288v1.176c.49-1.036 1.33-1.288 2.016-1.288.182 0 .364.028.434.042zM50.622 280h-1.316v-10.136h1.316V280zm3.542 0h-1.302v-6.734h1.302V280zm-1.596-9.282c0-.532.42-.952.938-.952.532 0 .952.42.952.952 0 .518-.42.938-.952.938a.938.938 0 0 1-.938-.938zm5.152 5.39V280h-1.316v-6.734h1.288v.966c.49-.84 1.288-1.162 2.072-1.162 1.61 0 2.408 1.162 2.408 2.66V280h-1.316v-4.046c0-.938-.392-1.694-1.568-1.694-1.036 0-1.568.826-1.568 1.848zm7.406-.168h3.682c-.028-.966-.658-1.722-1.848-1.722-1.106 0-1.778.854-1.834 1.722zm3.878 1.75l1.134.392c-.378 1.19-1.456 2.128-3.024 2.128-1.806 0-3.388-1.316-3.388-3.598 0-2.114 1.526-3.556 3.22-3.556 2.072 0 3.234 1.428 3.234 3.528 0 .168-.014.336-.028.42h-5.068c.028 1.204.896 2.044 2.03 2.044 1.092 0 1.638-.602 1.89-1.358zm7.672 2.31H75.36v-10.136h1.316V280zm3.094-4.06h3.682c-.028-.966-.658-1.722-1.848-1.722-1.106 0-1.778.854-1.834 1.722zm3.878 1.75l1.134.392c-.378 1.19-1.456 2.128-3.024 2.128-1.806 0-3.388-1.316-3.388-3.598 0-2.114 1.526-3.556 3.22-3.556 2.072 0 3.234 1.428 3.234 3.528 0 .168-.014.336-.028.42h-5.068c.028 1.204.896 2.044 2.03 2.044 1.092 0 1.638-.602 1.89-1.358zm4.172-1.582V280h-1.316v-6.734h1.288v.966c.49-.84 1.288-1.162 2.072-1.162 1.61 0 2.408 1.162 2.408 2.66V280h-1.316v-4.046c0-.938-.392-1.694-1.568-1.694-1.036 0-1.568.826-1.568 1.848zm6.062 4.256l1.274-.294c.098.938.812 1.652 1.834 1.652 1.414 0 2.058-.728 2.058-2.184v-.966c-.322.616-1.05 1.106-2.058 1.106-1.792 0-3.094-1.358-3.094-3.262 0-1.82 1.246-3.276 3.094-3.276 1.036 0 1.736.392 2.072 1.064v-.938h1.302v6.23c0 1.708-.84 3.374-3.374 3.374-1.68 0-2.94-1.064-3.108-2.506zm3.304-1.792c1.134 0 1.918-.854 1.918-2.156s-.784-2.156-1.918-2.156c-1.162 0-1.946.854-1.946 2.156 0 1.316.756 2.156 1.946 2.156zm7.042-7.434v2.128h1.456v1.19h-1.456v3.5c0 .616.252.924.938.924.168 0 .406-.028.518-.056v1.12a2.88 2.88 0 0 1-.896.126c-1.148 0-1.876-.7-1.876-1.918v-3.696h-1.288v-1.19h.364c.728 0 1.036-.448 1.036-1.036v-1.092h1.204zm4.522 4.9V280h-1.316v-10.136h1.316v4.186c.49-.714 1.274-.98 2.044-.98 1.61 0 2.408 1.162 2.408 2.66V280h-1.316v-4.046c0-.938-.392-1.694-1.568-1.694-1.008 0-1.54.784-1.568 1.778zM121.574 280h-1.344v-6.398h-2.198v-.966c1.26-.028 2.128-.728 2.338-1.708h1.204V280zm8.47-8.778l-.42 1.12c-.336-.196-.938-.392-1.624-.392-1.89 0-3.08 1.386-3.192 3.248.364-.602 1.19-1.176 2.394-1.176 1.792 0 3.108 1.12 3.108 3.094 0 1.946-1.582 3.094-3.36 3.094-1.736 0-3.542-1.204-3.542-4.2 0-3.374 2.03-5.292 4.676-5.292.826 0 1.54.21 1.96.504zm-5.04 5.894c0 1.19.966 1.904 1.96 1.904 1.064 0 1.96-.7 1.96-1.904 0-1.218-.91-1.918-1.96-1.918-1.05 0-1.96.7-1.96 1.918zm8.232 5.544h-1.302v-9.394h1.274v1.05c.364-.672 1.162-1.204 2.254-1.204 2.016 0 3.094 1.554 3.094 3.514 0 2.002-1.162 3.556-3.136 3.556-1.036 0-1.82-.49-2.184-1.092v3.57zm3.976-6.034c0-1.344-.756-2.352-1.988-2.352-1.204 0-2.002 1.008-2.002 2.352 0 1.386.798 2.38 2.002 2.38 1.218 0 1.988-.994 1.988-2.38zm1.904 3.374l2.506-3.43-2.422-3.304h1.596l1.652 2.366 1.624-2.366h1.554l-2.394 3.304c.406.546 2.072 2.884 2.478 3.43h-1.582l-1.736-2.478-1.708 2.478h-1.568zm7.714-.896c0-.504.434-.938 1.022-.938.602 0 1.134.448 1.134 1.33 0 1.848-1.204 2.618-2.072 2.73v-.728c.686-.154 1.148-.84 1.162-1.512a.61.61 0 0 1-.308.07c-.518 0-.938-.35-.938-.952zm12.194 1.106c-2.562 0-4.928-1.862-4.928-5.18 0-3.318 2.464-5.166 4.928-5.166 2.268 0 3.864 1.232 4.368 3.15l-1.274.448c-.378-1.498-1.47-2.338-3.094-2.338-1.806 0-3.528 1.316-3.528 3.906s1.722 3.92 3.528 3.92c1.694 0 2.758-1.022 3.164-2.38l1.218.448c-.532 1.862-2.1 3.192-4.382 3.192zm8.666-1.176c1.12 0 2.1-.84 2.1-2.408 0-1.554-.98-2.394-2.1-2.394s-2.1.84-2.1 2.394c0 1.568.98 2.408 2.1 2.408zm0-5.978c2.016 0 3.444 1.526 3.444 3.57 0 2.058-1.428 3.584-3.444 3.584s-3.444-1.526-3.444-3.584c0-2.044 1.428-3.57 3.444-3.57zm6.44 6.944h-1.316v-10.136h1.316V280zm5.124-.966c1.12 0 2.1-.84 2.1-2.408 0-1.554-.98-2.394-2.1-2.394s-2.1.84-2.1 2.394c0 1.568.98 2.408 2.1 2.408zm0-5.978c2.016 0 3.444 1.526 3.444 3.57 0 2.058-1.428 3.584-3.444 3.584s-3.444-1.526-3.444-3.584c0-2.044 1.428-3.57 3.444-3.57zm8.862.14v1.4a4.107 4.107 0 0 0-.574-.042c-1.106 0-1.848.588-1.848 2.072V280h-1.316v-6.734h1.288v1.176c.49-1.036 1.33-1.288 2.016-1.288.182 0 .364.028.434.042zm4.27 4.76v-1.582l3.892-5.446h1.89v5.754h1.554v1.274h-1.554V280h-1.33v-2.044h-4.452zm4.452-1.274v-4.438l-3.192 4.438h3.192zm5.068-2.492l-1.372-.168c-.014-.126-.014-.252-.014-.364 0-1.554 1.148-2.94 3.136-2.94 1.946 0 3.066 1.274 3.066 2.786 0 1.19-.672 2.142-1.708 2.8l-1.792 1.148c-.518.336-.98.714-1.106 1.274h4.662V280h-6.356c.028-1.484.616-2.618 2.156-3.612l1.512-.98c.854-.546 1.246-1.19 1.246-1.89 0-.826-.56-1.596-1.708-1.596-1.19 0-1.75.826-1.75 1.862 0 .126.014.266.028.406zm6.692-4.116h3.234c1.89 0 2.996 1.12 2.996 2.688 0 1.064-.616 1.82-1.484 2.142 1.134.28 1.792 1.288 1.792 2.394 0 1.568-1.246 2.702-3.066 2.702h-3.472v-9.926zm1.372 4.34h1.708c1.106 0 1.764-.658 1.764-1.582 0-.938-.686-1.554-1.82-1.554h-1.652v3.136zm0 4.382h1.904c1.106 0 1.862-.616 1.862-1.582 0-.952-.602-1.624-1.806-1.624h-1.96v3.206zm6.286-1.26l1.316-.392c.084 1.12.91 1.876 2.044 1.876 1.078 0 1.946-.714 1.946-1.834 0-1.246-.91-1.876-1.96-1.876-.644 0-1.26.252-1.652.658-.476-.182-.882-.364-1.344-.532l1.176-4.508h4.788v1.26h-3.878l-.672 2.604c.406-.448 1.134-.672 1.848-.672 1.778 0 3.08 1.134 3.08 3.01 0 1.708-1.316 3.094-3.332 3.094-1.932 0-3.234-1.26-3.36-2.688zm7.672.42v-1.582l3.892-5.446h1.89v5.754h1.554v1.274h-1.554V280h-1.33v-2.044h-4.452zm4.452-1.274v-4.438l-3.192 4.438h3.192zm3.892 2.996l.448-1.134c.392.238 1.064.434 1.652.434 2.198 0 3.094-1.442 3.15-3.22-.322.602-1.12 1.162-2.352 1.162-1.568 0-3.136-1.064-3.136-3.066 0-1.876 1.568-3.136 3.346-3.136s3.528 1.274 3.528 4.172c0 3.332-1.484 5.32-4.536 5.32-.7 0-1.652-.224-2.1-.532zm5.068-5.852c0-1.176-.966-1.904-1.96-1.904-1.008 0-1.96.714-1.96 1.904 0 1.232.924 1.918 1.96 1.918 1.008 0 1.96-.714 1.96-1.918zM247 280h-1.344v-6.398h-2.198v-.966c1.26-.028 2.128-.728 2.338-1.708H247V280zm3.178-4.536c0 1.386.252 2.366.798 2.94.35.364.798.588 1.442.588.644 0 1.092-.224 1.442-.588.546-.574.798-1.554.798-2.94s-.252-2.366-.798-2.94c-.35-.364-.798-.588-1.442-.588-.644 0-1.092.224-1.442.588-.546.574-.798 1.554-.798 2.94zm-1.358 0c0-1.246.21-2.394.812-3.29.588-.882 1.498-1.456 2.786-1.456s2.198.574 2.786 1.456c.602.896.812 2.044.812 3.29s-.21 2.394-.812 3.29c-.588.882-1.498 1.456-2.786 1.456s-2.198-.574-2.786-1.456c-.602-.896-.812-2.044-.812-3.29zm9.884 0c0 1.386.252 2.366.798 2.94.35.364.798.588 1.442.588.644 0 1.092-.224 1.442-.588.546-.574.798-1.554.798-2.94s-.252-2.366-.798-2.94c-.35-.364-.798-.588-1.442-.588-.644 0-1.092.224-1.442.588-.546.574-.798 1.554-.798 2.94zm-1.358 0c0-1.246.21-2.394.812-3.29.588-.882 1.498-1.456 2.786-1.456s2.198.574 2.786 1.456c.602.896.812 2.044.812 3.29s-.21 2.394-.812 3.29c-.588.882-1.498 1.456-2.786 1.456s-2.198-.574-2.786-1.456c-.602-.896-.812-2.044-.812-3.29zm9.548-2.436c0 .644.476 1.106 1.078 1.106.616 0 1.078-.462 1.078-1.106 0-.63-.462-1.092-1.078-1.092-.602 0-1.078.462-1.078 1.092zm-1.162 0c0-1.232 1.036-2.198 2.24-2.198 1.204 0 2.254.966 2.254 2.198 0 1.246-1.05 2.212-2.254 2.212s-2.24-.966-2.24-2.212zm6.706 4.872c0 .644.476 1.106 1.078 1.106.616 0 1.078-.462 1.078-1.106 0-.63-.462-1.092-1.078-1.092-.602 0-1.078.462-1.078 1.092zm-1.162 0c0-1.232 1.036-2.198 2.24-2.198 1.204 0 2.254.966 2.254 2.198 0 1.246-1.05 2.212-2.254 2.212s-2.24-.966-2.24-2.212zm-3.136 2.1h-1.288l6.524-9.072h1.26L268.14 280zM4.66 298h-1.4v-9.926h1.4V298zm3.696-3.892V298H7.04v-6.734h1.288v.966c.49-.84 1.288-1.162 2.072-1.162 1.61 0 2.408 1.162 2.408 2.66V298h-1.316v-4.046c0-.938-.392-1.694-1.568-1.694-1.036 0-1.568.826-1.568 1.848zm7.854 6.552h-1.302v-9.394h1.274v1.05c.364-.672 1.162-1.204 2.254-1.204 2.016 0 3.094 1.554 3.094 3.514 0 2.002-1.162 3.556-3.136 3.556-1.036 0-1.82-.49-2.184-1.092v3.57zm3.976-6.034c0-1.344-.756-2.352-1.988-2.352-1.204 0-2.002 1.008-2.002 2.352 0 1.386.798 2.38 2.002 2.38 1.218 0 1.988-.994 1.988-2.38zm7.392 2.562c-.364.7-1.204 1.022-1.988 1.022-1.568 0-2.52-1.176-2.52-2.702v-4.242h1.316v4.046c0 .924.42 1.736 1.526 1.736 1.064 0 1.596-.7 1.596-1.722v-4.06h1.316v5.488c0 .532.042 1.008.07 1.246h-1.26a5.962 5.962 0 0 1-.056-.812zm5.25-8.05v2.128h1.456v1.19h-1.456v3.5c0 .616.252.924.938.924.168 0 .406-.028.518-.056v1.12a2.88 2.88 0 0 1-.896.126c-1.148 0-1.876-.7-1.876-1.918v-3.696h-1.288v-1.19h.364c.728 0 1.036-.448 1.036-1.036v-1.092h1.204zM40.85 298h-1.316v-10.136h1.316V298zm3.542 0H43.09v-6.734h1.302V298zm-1.596-9.282c0-.532.42-.952.938-.952.532 0 .952.42.952.952 0 .518-.42.938-.952.938a.938.938 0 0 1-.938-.938zm5.152 5.39V298h-1.316v-6.734h1.288v.966c.49-.84 1.288-1.162 2.072-1.162 1.61 0 2.408 1.162 2.408 2.66V298h-1.316v-4.046c0-.938-.392-1.694-1.568-1.694-1.036 0-1.568.826-1.568 1.848zm7.406-.168h3.682c-.028-.966-.658-1.722-1.848-1.722-1.106 0-1.778.854-1.834 1.722zm3.878 1.75l1.134.392c-.378 1.19-1.456 2.128-3.024 2.128-1.806 0-3.388-1.316-3.388-3.598 0-2.114 1.526-3.556 3.22-3.556 2.072 0 3.234 1.428 3.234 3.528 0 .168-.014.336-.028.42h-5.068c.028 1.204.896 2.044 2.03 2.044 1.092 0 1.638-.602 1.89-1.358zm9.184-3.416c-1.064 0-2.044.784-2.044 2.352 0 1.54.966 2.366 2.058 2.366 1.26 0 1.722-.854 1.876-1.386l1.162.504c-.322.966-1.288 2.1-3.038 2.1-1.96 0-3.402-1.54-3.402-3.584 0-2.1 1.47-3.57 3.388-3.57 1.792 0 2.716 1.12 2.996 2.142l-1.19.504c-.168-.658-.658-1.428-1.806-1.428zm7.406 4.76c1.12 0 2.1-.84 2.1-2.408 0-1.554-.98-2.394-2.1-2.394s-2.1.84-2.1 2.394c0 1.568.98 2.408 2.1 2.408zm0-5.978c2.016 0 3.444 1.526 3.444 3.57 0 2.058-1.428 3.584-3.444 3.584s-3.444-1.526-3.444-3.584c0-2.044 1.428-3.57 3.444-3.57zm6.44 6.944h-1.316v-10.136h1.316V298zm5.124-.966c1.12 0 2.1-.84 2.1-2.408 0-1.554-.98-2.394-2.1-2.394s-2.1.84-2.1 2.394c0 1.568.98 2.408 2.1 2.408zm0-5.978c2.016 0 3.444 1.526 3.444 3.57 0 2.058-1.428 3.584-3.444 3.584s-3.444-1.526-3.444-3.584c0-2.044 1.428-3.57 3.444-3.57zm8.862.14v1.4a4.107 4.107 0 0 0-.574-.042c-1.106 0-1.848.588-1.848 2.072V298H92.51v-6.734h1.288v1.176c.49-1.036 1.33-1.288 2.016-1.288.182 0 .364.028.434.042zm4.27 4.76v-1.582l3.892-5.446h1.89v5.754h1.554v1.274H106.3V298h-1.33v-2.044h-4.452zm4.452-1.274v-4.438l-3.192 4.438h3.192zm5.068-2.492l-1.372-.168c-.014-.126-.014-.252-.014-.364 0-1.554 1.148-2.94 3.136-2.94 1.946 0 3.066 1.274 3.066 2.786 0 1.19-.672 2.142-1.708 2.8l-1.792 1.148c-.518.336-.98.714-1.106 1.274h4.662V298h-6.356c.028-1.484.616-2.618 2.156-3.612l1.512-.98c.854-.546 1.246-1.19 1.246-1.89 0-.826-.56-1.596-1.708-1.596-1.19 0-1.75.826-1.75 1.862 0 .126.014.266.028.406zm6.692-4.116h3.234c1.89 0 2.996 1.12 2.996 2.688 0 1.064-.616 1.82-1.484 2.142 1.134.28 1.792 1.288 1.792 2.394 0 1.568-1.246 2.702-3.066 2.702h-3.472v-9.926zm1.372 4.34h1.708c1.106 0 1.764-.658 1.764-1.582 0-.938-.686-1.554-1.82-1.554h-1.652v3.136zm0 4.382h1.904c1.106 0 1.862-.616 1.862-1.582 0-.952-.602-1.624-1.806-1.624h-1.96v3.206zm6.286-1.26l1.316-.392c.084 1.12.91 1.876 2.044 1.876 1.078 0 1.946-.714 1.946-1.834 0-1.246-.91-1.876-1.96-1.876-.644 0-1.26.252-1.652.658-.476-.182-.882-.364-1.344-.532l1.176-4.508h4.788v1.26h-3.878l-.672 2.604c.406-.448 1.134-.672 1.848-.672 1.778 0 3.08 1.134 3.08 3.01 0 1.708-1.316 3.094-3.332 3.094-1.932 0-3.234-1.26-3.36-2.688zm7.672.42v-1.582l3.892-5.446h1.89v5.754h1.554v1.274h-1.554V298h-1.33v-2.044h-4.452zm4.452-1.274v-4.438l-3.192 4.438h3.192zm3.892 2.996l.448-1.134c.392.238 1.064.434 1.652.434 2.198 0 3.094-1.442 3.15-3.22-.322.602-1.12 1.162-2.352 1.162-1.568 0-3.136-1.064-3.136-3.066 0-1.876 1.568-3.136 3.346-3.136s3.528 1.274 3.528 4.172c0 3.332-1.484 5.32-4.536 5.32-.7 0-1.652-.224-2.1-.532zm5.068-5.852c0-1.176-.966-1.904-1.96-1.904-1.008 0-1.96.714-1.96 1.904 0 1.232.924 1.918 1.96 1.918 1.008 0 1.96-.714 1.96-1.918zm9.66 6.174h-1.344v-6.398h-2.198v-.966c1.26-.028 2.128-.728 2.338-1.708h1.204V298zm3.178-4.536c0 1.386.252 2.366.798 2.94.35.364.798.588 1.442.588.644 0 1.092-.224 1.442-.588.546-.574.798-1.554.798-2.94s-.252-2.366-.798-2.94c-.35-.364-.798-.588-1.442-.588-.644 0-1.092.224-1.442.588-.546.574-.798 1.554-.798 2.94zm-1.358 0c0-1.246.21-2.394.812-3.29.588-.882 1.498-1.456 2.786-1.456s2.198.574 2.786 1.456c.602.896.812 2.044.812 3.29s-.21 2.394-.812 3.29c-.588.882-1.498 1.456-2.786 1.456s-2.198-.574-2.786-1.456c-.602-.896-.812-2.044-.812-3.29zm9.884 0c0 1.386.252 2.366.798 2.94.35.364.798.588 1.442.588.644 0 1.092-.224 1.442-.588.546-.574.798-1.554.798-2.94s-.252-2.366-.798-2.94c-.35-.364-.798-.588-1.442-.588-.644 0-1.092.224-1.442.588-.546.574-.798 1.554-.798 2.94zm-1.358 0c0-1.246.21-2.394.812-3.29.588-.882 1.498-1.456 2.786-1.456s2.198.574 2.786 1.456c.602.896.812 2.044.812 3.29s-.21 2.394-.812 3.29c-.588.882-1.498 1.456-2.786 1.456s-2.198-.574-2.786-1.456c-.602-.896-.812-2.044-.812-3.29zm9.548-2.436c0 .644.476 1.106 1.078 1.106.616 0 1.078-.462 1.078-1.106 0-.63-.462-1.092-1.078-1.092-.602 0-1.078.462-1.078 1.092zm-1.162 0c0-1.232 1.036-2.198 2.24-2.198 1.204 0 2.254.966 2.254 2.198 0 1.246-1.05 2.212-2.254 2.212s-2.24-.966-2.24-2.212zm6.706 4.872c0 .644.476 1.106 1.078 1.106.616 0 1.078-.462 1.078-1.106 0-.63-.462-1.092-1.078-1.092-.602 0-1.078.462-1.078 1.092zm-1.162 0c0-1.232 1.036-2.198 2.24-2.198 1.204 0 2.254.966 2.254 2.198 0 1.246-1.05 2.212-2.254 2.212s-2.24-.966-2.24-2.212zm-3.136 2.1h-1.288l6.524-9.072h1.26L176.272 298z"/>
        <path d="M65 87.5h274v48H65z"/>
        <path stroke="#42B549" d="M65 134.5h274.5"/>
        <path fill="#F50" d="M65 143.5h274v1H65z"/>
        <path fill="#F50" d="M65 141.5h1v5h-1zM338 141.5h1v5h-1z"/>
        <g transform="translate(65 136.5)">
            <use fill="#F8F8F8" xlink:href="#a"/>
            <path stroke="#F8F8F8" d="M117.445.5h37.111v15h-37.111z"/>
        </g>
        <text fill="#FF5722" font-family="HelveticaNeue, Helvetica Neue" font-size="12" transform="translate(65 136.5)">
            <tspan x="119.89" y="11">Varies</tspan>
        </text>
        <path stroke="#42B549" d="M66 127.5v-16"/>
        <path fill="#000" fill-opacity=".38" d="M71.205 98.55v.95h-5.133v-8.455h1.055v7.506h4.078zm3.498.177c.52 0 .95-.152 1.292-.455.342-.302.513-.678.513-1.127v-.58l-1.7.11c-.921.063-1.382.407-1.382 1.032 0 .32.12.57.363.75.242.18.547.27.914.27zm-.187.884c-.614 0-1.122-.169-1.527-.507-.404-.337-.606-.795-.606-1.374 0-1.156.767-1.779 2.303-1.869l1.822-.111v-.574c0-.805-.477-1.207-1.43-1.207-.379 0-.693.068-.943.205a.937.937 0 0 0-.48.58h-1.02c.066-.508.328-.915.785-1.222.457-.306 1.021-.46 1.693-.46.77 0 1.363.187 1.779.56.416.373.624.888.624 1.544V99.5h-.961v-.932h-.094a2.077 2.077 0 0 1-.809.774c-.336.18-.714.27-1.136.27zm8.004 0c-.438 0-.835-.098-1.193-.296a2.116 2.116 0 0 1-.835-.823h-.094V99.5h-.96v-8.824h1.007v3.504h.094c.172-.34.437-.61.794-.809.357-.2.753-.299 1.187-.299.804 0 1.447.297 1.927.89.48.595.721 1.388.721 2.38 0 .988-.241 1.78-.724 2.376-.482.595-1.124.893-1.924.893zm-.235-5.63c-.574 0-1.028.21-1.362.632-.334.422-.501.998-.501 1.729 0 .73.167 1.306.5 1.728.335.422.789.633 1.363.633.578 0 1.03-.209 1.354-.627.324-.418.486-.996.486-1.734s-.162-1.317-.486-1.735c-.325-.418-.776-.627-1.354-.627zm6.985-.018c-.504 0-.918.17-1.243.51-.324.34-.506.789-.545 1.347h3.48c-.01-.558-.171-1.007-.48-1.347-.308-.34-.712-.51-1.212-.51zm1.664 3.902h1.007a2.21 2.21 0 0 1-.925 1.28c-.465.311-1.043.466-1.735.466-.875 0-1.568-.294-2.08-.882-.512-.587-.767-1.381-.767-2.381 0-.993.257-1.786.773-2.382.516-.596 1.207-.894 2.074-.894.852 0 1.522.284 2.01.853.488.568.732 1.343.732 2.323v.387h-4.54v.047c.027.625.204 1.12.53 1.488.326.367.757.55 1.292.55.406 0 .746-.073 1.02-.219.273-.147.476-.358.609-.636zm2.73 1.635v-8.824h1.008V99.5h-1.008z"/>
        <g transform="translate(20 108.5)">
            <path fill="#F50" d="M41 3h1v16h-1z"/>
            <path fill="#F50" d="M39 3h5v1h-5zM39 18h5v1h-5z"/>
            <rect width="35" height="22" fill="#F50" rx="2"/>
            <path fill="#F50" d="M31 11l4-4 4 4-4 4z"/>
            <path fill="#FFF" d="M8.434 15h-1.02V8.904H5.206v-.816c.288 0 .568-.022.84-.066.272-.044.518-.126.738-.246.22-.12.406-.284.558-.492a1.87 1.87 0 0 0 .312-.792h.78V15zm7.368-6.336c-.048-.384-.196-.692-.444-.924-.248-.232-.576-.348-.984-.348-.432 0-.78.106-1.044.318-.264.212-.47.48-.618.804-.148.324-.25.674-.306 1.05a8.62 8.62 0 0 0-.096 1.056l.024.024c.24-.392.538-.676.894-.852a2.74 2.74 0 0 1 1.23-.264c.408 0 .774.07 1.098.21.324.14.596.334.816.582.22.248.39.54.51.876.12.336.18.7.18 1.092 0 .312-.048.636-.144.972a2.61 2.61 0 0 1-.474.918c-.22.276-.512.504-.876.684-.364.18-.814.27-1.35.27-.632 0-1.14-.128-1.524-.384a2.62 2.62 0 0 1-.888-.984c-.208-.4-.346-.84-.414-1.32a9.925 9.925 0 0 1-.102-1.392c0-.584.05-1.15.15-1.698.1-.548.27-1.034.51-1.458.24-.424.56-.764.96-1.02.4-.256.904-.384 1.512-.384.704 0 1.264.186 1.68.558.416.372.656.91.72 1.614h-1.02zm-1.536 1.764a1.655 1.655 0 0 0-1.308.558 1.697 1.697 0 0 0-.342.612 2.432 2.432 0 0 0-.114.75c0 .264.04.512.12.744.08.232.194.432.342.6.148.168.332.302.552.402.22.1.47.15.75.15s.526-.05.738-.15c.212-.1.39-.238.534-.414.144-.176.254-.378.33-.606.076-.228.114-.466.114-.714 0-.264-.034-.514-.102-.75a1.653 1.653 0 0 0-.318-.612 1.596 1.596 0 0 0-.54-.414 1.724 1.724 0 0 0-.756-.156zm4.044-1.632h1.02v.84h.024c.168-.344.432-.594.792-.75.36-.156.756-.234 1.188-.234.48 0 .898.088 1.254.264.356.176.652.414.888.714s.414.646.534 1.038c.12.392.18.808.18 1.248 0 .44-.058.856-.174 1.248a2.938 2.938 0 0 1-.528 1.026 2.49 2.49 0 0 1-.888.69c-.356.168-.77.252-1.242.252a3.066 3.066 0 0 1-1.068-.204 2.18 2.18 0 0 1-.522-.294 1.643 1.643 0 0 1-.414-.462h-.024v3.192h-1.02V8.796zm4.8 3.048c0-.288-.038-.57-.114-.846a2.283 2.283 0 0 0-.348-.738 1.705 1.705 0 0 0-.6-.516 1.822 1.822 0 0 0-.858-.192c-.344 0-.636.068-.876.204-.24.136-.436.314-.588.534-.152.22-.262.47-.33.75a3.597 3.597 0 0 0 .006 1.734c.072.284.186.534.342.75.156.216.358.39.606.522s.548.198.9.198.646-.068.882-.204a1.64 1.64 0 0 0 .57-.54 2.35 2.35 0 0 0 .312-.768c.064-.288.096-.584.096-.888zm3.948-.108l-2.16-2.94h1.308l1.488 2.172 1.548-2.172h1.224l-2.136 2.856L30.73 15h-1.308l-1.728-2.568L25.966 15H24.73l2.328-3.264z"/>
        </g>
    </g>
</svg>
