<svg xmlns="http://www.w3.org/2000/svg" xmlns:xlink="http://www.w3.org/1999/xlink" width="360" height="284" viewBox="0 0 360 284">
    <defs>
        <path id="a" d="M0 .025h288v59H0z"/>
        <path id="b" d="M0 0h256v64H0z"/>
    </defs>
    <g fill="none" fill-rule="evenodd">
        <g>
            <rect width="360" height="240" y=".975" fill="#F8F8F8" rx="4"/>
            <g transform="translate(36 88.975)">
                <mask id="c" fill="#fff">
                    <use xlink:href="#b"/>
                </mask>
                <path fill="#000" fill-opacity=".7" d="M2.883 23.727v7.304c0 1.703 1.117 2.938 3.07 2.938 1.953 0 3.07-1.235 3.07-2.938v-7.304h1.407v7.398c0 2.406-1.68 4.14-4.477 4.14-2.797 0-4.476-1.734-4.476-4.14v-7.398h1.406zM13.172 35v-8.422h1.281v1.328h.125c.422-.93 1.242-1.476 2.531-1.476 1.891 0 2.946 1.117 2.946 3.117V35H18.71v-5.125c0-1.516-.64-2.234-1.984-2.234-1.344 0-2.211.898-2.211 2.375V35h-1.344zm9.367 0v-8.422h1.344V35h-1.344zm.672-10.133a.94.94 0 0 1-.938-.937.94.94 0 0 1 .938-.938.94.94 0 0 1 .937.938.94.94 0 0 1-.937.937zM27.008 35v-7.297h-1.399v-1.125h1.399v-.82c0-1.727.898-2.445 2.523-2.445.266 0 .5.023.828.078v1.125c-.18-.04-.484-.07-.75-.07-.804 0-1.257.406-1.257 1.35v.782h1.93v1.125h-1.93V35h-1.344zm5.945 3.047c-.18 0-.414-.016-.601-.047v-1.148c.164.03.375.039.562.039.773 0 1.195-.368 1.547-1.383l.156-.5-3.117-8.43h1.453l2.313 6.93h.125l2.304-6.93h1.43l-3.29 8.938c-.718 1.953-1.39 2.53-2.882 2.53zM45.47 35v-8.422h1.343V35H45.47zm.672-10.133a.94.94 0 0 1-.938-.937.94.94 0 0 1 .938-.938.94.94 0 0 1 .937.938.94.94 0 0 1-.937.937zm7.336 1.563c2.148 0 3.539 1.71 3.539 4.36 0 2.632-1.399 4.358-3.54 4.358-1.203 0-2.171-.523-2.632-1.414h-.125v4.078h-1.344V26.578h1.281v1.406h.125c.54-.968 1.547-1.554 2.696-1.554zm-.32 7.508c1.546 0 2.468-1.18 2.468-3.149s-.922-3.148-2.46-3.148c-1.524 0-2.485 1.21-2.485 3.148 0 1.93.96 3.148 2.476 3.148zm5.773-5.055c0-1.399 1.351-2.453 3.14-2.453 1.766 0 2.992.875 3.172 2.258h-1.328c-.18-.672-.836-1.118-1.852-1.118-1 0-1.78.508-1.78 1.258 0 .578.468.938 1.46 1.18l1.297.312c1.586.383 2.352 1.07 2.352 2.282 0 1.507-1.461 2.546-3.375 2.546-1.875 0-3.164-.898-3.313-2.296h1.383c.227.71.898 1.164 1.977 1.164 1.132 0 1.945-.54 1.945-1.313 0-.578-.438-.969-1.336-1.187l-1.445-.352c-1.579-.383-2.297-1.062-2.297-2.281zm15.383-2.305V35H73.03v-1.32h-.125c-.422.937-1.32 1.468-2.61 1.468-1.89 0-2.874-1.125-2.874-3.117v-5.453h1.344v5.125c0 1.516.562 2.219 1.906 2.219 1.484 0 2.297-.883 2.297-2.36v-4.984h1.344zM76.843 35v-8.422h1.282v1.328h.125c.383-.937 1.227-1.476 2.352-1.476 1.14 0 1.937.601 2.328 1.476h.125c.453-.89 1.414-1.476 2.578-1.476 1.719 0 2.68.984 2.68 2.75V35h-1.344v-5.508c0-1.242-.586-1.851-1.774-1.851-1.172 0-1.953.875-1.953 1.945V35h-1.344v-5.719c0-1-.695-1.64-1.757-1.64-1.102 0-1.954.953-1.954 2.14V35h-1.343zm18.243-6.117c0-1.399 1.352-2.453 3.14-2.453 1.766 0 2.993.875 3.172 2.258h-1.328c-.18-.672-.836-1.118-1.851-1.118-1 0-1.781.508-1.781 1.258 0 .578.468.938 1.46 1.18l1.297.312c1.586.383 2.352 1.07 2.352 2.282 0 1.507-1.461 2.546-3.375 2.546-1.875 0-3.164-.898-3.313-2.296h1.383c.227.71.899 1.164 1.977 1.164 1.133 0 1.945-.54 1.945-1.313 0-.578-.437-.969-1.336-1.187l-1.445-.352c-1.578-.383-2.297-1.062-2.297-2.281zM103.688 35v-8.422h1.343V35h-1.344zm.671-10.133a.94.94 0 0 1-.937-.937.94.94 0 0 1 .937-.938.94.94 0 0 1 .938.938.94.94 0 0 1-.938.937zm3.04 4.016c0-1.399 1.351-2.453 3.14-2.453 1.766 0 2.992.875 3.172 2.258h-1.328c-.18-.672-.836-1.118-1.852-1.118-1 0-1.781.508-1.781 1.258 0 .578.469.938 1.46 1.18l1.298.312c1.586.383 2.351 1.07 2.351 2.282 0 1.507-1.46 2.546-3.375 2.546-1.875 0-3.164-.898-3.312-2.296h1.383c.226.71.898 1.164 1.976 1.164 1.133 0 1.946-.54 1.946-1.313 0-.578-.438-.969-1.336-1.187l-1.446-.352c-1.578-.383-2.297-1.062-2.297-2.281zm20.054.273h-1.36c-.218-.836-.96-1.515-2.171-1.515-1.516 0-2.469 1.21-2.469 3.117 0 1.945.969 3.18 2.469 3.18 1.133 0 1.922-.524 2.172-1.477h1.36c-.243 1.547-1.5 2.687-3.524 2.687-2.36 0-3.868-1.71-3.868-4.39 0-2.625 1.5-4.328 3.86-4.328 2.047 0 3.297 1.226 3.531 2.726zm5.445 5.992c-2.398 0-3.882-1.656-3.882-4.359 0-2.71 1.484-4.36 3.882-4.36 2.399 0 3.883 1.65 3.883 4.36 0 2.703-1.484 4.36-3.883 4.36zm0-1.21c1.594 0 2.493-1.157 2.493-3.149 0-2-.899-3.148-2.493-3.148-1.593 0-2.492 1.148-2.492 3.148 0 1.992.899 3.148 2.492 3.148zM138.891 35v-8.422h1.28v1.328h.126c.422-.93 1.242-1.476 2.531-1.476 1.89 0 2.945 1.117 2.945 3.117V35h-1.343v-5.125c0-1.516-.64-2.234-1.985-2.234-1.343 0-2.21.898-2.21 2.375V35h-1.344zm9.898-10.602h1.344v2.18h1.875v1.125h-1.875v4.766c0 .992.375 1.414 1.25 1.414.242 0 .375-.008.625-.031v1.132a4.501 4.501 0 0 1-.79.078c-1.734 0-2.429-.64-2.429-2.25v-5.109h-1.36v-1.125h1.36v-2.18zm8.492 3.22c-1.344 0-2.281.984-2.383 2.476h4.641c-.031-1.492-.922-2.477-2.258-2.477zm2.219 5.202h1.344c-.406 1.446-1.703 2.328-3.547 2.328-2.336 0-3.797-1.687-3.797-4.351 0-2.649 1.484-4.367 3.797-4.367 2.273 0 3.656 1.617 3.656 4.234v.516h-6.055v.062c.07 1.664 1 2.719 2.43 2.719 1.086 0 1.82-.398 2.172-1.14zm10.672 1.149c1.383 0 2.406-.907 2.406-2.11v-.773l-2.266.148c-1.28.086-1.843.532-1.843 1.375 0 .86.726 1.36 1.703 1.36zm-.25 1.18c-1.633 0-2.844-.97-2.844-2.508 0-1.508 1.11-2.375 3.07-2.493l2.43-.148v-.766c0-1.039-.648-1.609-1.906-1.609-1.008 0-1.711.383-1.899 1.047h-1.359c.18-1.352 1.508-2.242 3.305-2.242 2.054 0 3.203 1.054 3.203 2.804V35h-1.281v-1.242h-.125c-.547.898-1.47 1.39-2.594 1.39zm6.484-.149v-8.422h1.281v1.328h.125c.383-.937 1.227-1.476 2.352-1.476 1.14 0 1.938.601 2.328 1.476h.125c.453-.89 1.414-1.476 2.578-1.476 1.72 0 2.68.984 2.68 2.75V35h-1.344v-5.508c0-1.242-.586-1.851-1.773-1.851-1.172 0-1.953.875-1.953 1.945V35h-1.344v-5.719c0-1-.695-1.64-1.758-1.64-1.101 0-1.953.953-1.953 2.14V35h-1.344zm13.953 0v-8.422h1.344V35h-1.344zm.672-10.133a.94.94 0 0 1-.937-.937.94.94 0 0 1 .937-.938.94.94 0 0 1 .938.938.94.94 0 0 1-.938.937zm6.64 8.82c1.563 0 2.5-1.187 2.5-3.023s-.944-3.023-2.5-3.023c-1.562 0-2.437 1.187-2.437 3.023s.875 3.023 2.438 3.023zm.063 4.547c-2.03 0-3.328-.914-3.53-2.304h1.421c.148.687.898 1.133 2.11 1.133 1.507 0 2.406-.743 2.406-1.985v-1.656h-.125c-.532.93-1.485 1.453-2.641 1.453-2.18 0-3.531-1.688-3.531-4.21 0-2.524 1.367-4.235 3.531-4.235 1.18 0 2.219.578 2.703 1.484h.125v-1.336h1.281v8.57c0 1.883-1.453 3.086-3.75 3.086zm9.743-3.086c-2.399 0-3.883-1.656-3.883-4.359 0-2.71 1.484-4.36 3.883-4.36 2.398 0 3.882 1.65 3.882 4.36 0 2.703-1.484 4.36-3.882 4.36zm0-1.21c1.593 0 2.492-1.157 2.492-3.149 0-2-.899-3.148-2.492-3.148-1.594 0-2.493 1.148-2.493 3.148 0 1.992.899 3.148 2.493 3.148zm14.609-7.508c2.148 0 3.539 1.71 3.539 4.36 0 2.632-1.398 4.358-3.54 4.358-1.202 0-2.17-.523-2.632-1.414h-.125v4.078h-1.344V26.578h1.282v1.406h.125c.539-.968 1.547-1.554 2.695-1.554zm-.32 7.508c1.547 0 2.468-1.18 2.468-3.149s-.922-3.148-2.46-3.148c-1.524 0-2.485 1.21-2.485 3.148 0 1.93.961 3.148 2.477 3.148zm9.43 1.21c-2.4 0-3.883-1.656-3.883-4.359 0-2.71 1.484-4.36 3.882-4.36 2.399 0 3.883 1.65 3.883 4.36 0 2.703-1.484 4.36-3.883 4.36zm0-1.21c1.593 0 2.492-1.157 2.492-3.149 0-2-.899-3.148-2.493-3.148-1.593 0-2.492 1.148-2.492 3.148 0 1.992.899 3.148 2.492 3.148zM237.187 35v-8.422h1.28v1.25h.126c.25-.82 1.219-1.398 2.336-1.398.218 0 .5.015.672.039v1.343c-.11-.03-.594-.078-.86-.078-1.281 0-2.21.86-2.21 2.047V35h-1.345zm5.742-6.117c0-1.399 1.351-2.453 3.14-2.453 1.766 0 2.993.875 3.172 2.258h-1.328c-.18-.672-.836-1.118-1.851-1.118-1 0-1.782.508-1.782 1.258 0 .578.469.938 1.461 1.18l1.297.312c1.586.383 2.352 1.07 2.352 2.282 0 1.507-1.461 2.546-3.375 2.546-1.875 0-3.164-.898-3.313-2.296h1.383c.226.71.898 1.164 1.976 1.164 1.133 0 1.946-.54 1.946-1.313 0-.578-.438-.969-1.336-1.187l-1.445-.352c-1.579-.383-2.297-1.062-2.297-2.281zm11.93-1.266c-1.344 0-2.282.985-2.383 2.477h4.64c-.031-1.492-.922-2.477-2.258-2.477zm2.218 5.203h1.344c-.406 1.446-1.703 2.328-3.547 2.328-2.336 0-3.797-1.687-3.797-4.351 0-2.649 1.484-4.367 3.797-4.367 2.273 0 3.656 1.617 3.656 4.234v.516h-6.054v.062c.07 1.664 1 2.719 2.43 2.719 1.085 0 1.82-.398 2.171-1.14zm3.563 2.18v-8.422h1.28v1.328h.126c.383-.937 1.226-1.476 2.351-1.476 1.141 0 1.938.601 2.329 1.476h.125c.453-.89 1.414-1.476 2.578-1.476 1.718 0 2.68.984 2.68 2.75V35h-1.344v-5.508c0-1.242-.586-1.851-1.774-1.851-1.172 0-1.953.875-1.953 1.945V35h-1.344v-5.719c0-1-.695-1.64-1.757-1.64-1.102 0-1.954.953-1.954 2.14V35h-1.343z" mask="url(#c)"/>
            </g>
            <path stroke="#D50000" d="M294 127v-16M36 133.975h288"/>
            <path fill="#D50000" d="M288.785 148.174c-1.6 0-2.748-.99-2.842-2.45h1.037c.094.915.82 1.524 1.817 1.524 1.13 0 1.887-.773 1.887-1.933 0-1.16-.762-1.951-1.87-1.951-.767 0-1.4.345-1.746.949h-.99l.463-4.793h4.717v.943h-3.89l-.241 2.713h.094c.41-.48 1.008-.72 1.787-.72 1.605 0 2.73 1.165 2.73 2.83 0 1.716-1.2 2.888-2.953 2.888zm6.656-.2v-7.282h-.093l-2.15 1.558v-1.113l2.25-1.617h1.048v8.455h-1.055zm7.248 1.905h-.878l2.578-10.36h.89l-2.59 10.36zm10.061-1.705c-1.6 0-2.748-.99-2.842-2.45h1.037c.094.915.82 1.524 1.817 1.524 1.13 0 1.886-.773 1.886-1.933 0-1.16-.761-1.951-1.869-1.951-.767 0-1.4.345-1.746.949h-.99l.463-4.793h4.717v.943h-3.891l-.24 2.713h.094c.41-.48 1.007-.72 1.787-.72 1.605 0 2.73 1.165 2.73 2.83 0 1.716-1.201 2.888-2.953 2.888zm7.477 0c-1.905 0-3-1.617-3-4.43 0-2.789 1.107-4.423 3-4.423 1.88 0 2.988 1.64 2.988 4.441 0 2.807-1.09 4.412-2.988 4.412zm0-.92c1.248 0 1.927-1.242 1.927-3.51 0-2.244-.691-3.498-1.927-3.498-1.237 0-1.94 1.266-1.94 3.498 0 2.262.692 3.51 1.94 3.51z"/>
            <path fill="#000" fill-opacity=".38" d="M42.205 100.026v.949h-5.133V92.52h1.055v7.506h4.078zm3.498.175c.52 0 .95-.15 1.292-.454.342-.302.513-.678.513-1.128v-.58l-1.7.112c-.921.062-1.382.406-1.382 1.031 0 .32.12.57.363.75.242.18.547.27.914.27zm-.187.885c-.614 0-1.122-.169-1.527-.507-.404-.337-.606-.795-.606-1.374 0-1.156.767-1.779 2.303-1.869l1.822-.111v-.574c0-.805-.477-1.207-1.43-1.207-.379 0-.693.068-.943.205a.937.937 0 0 0-.48.58h-1.02c.066-.508.328-.915.785-1.222.457-.306 1.021-.46 1.693-.46.77 0 1.363.187 1.779.56.416.373.624.887.624 1.544v4.324h-.961v-.932h-.094a2.077 2.077 0 0 1-.809.774c-.336.18-.714.27-1.136.27zm8.004 0c-.438 0-.835-.098-1.193-.296a2.116 2.116 0 0 1-.835-.823h-.094v1.008h-.96V92.15h1.007v3.504h.094c.172-.34.437-.61.794-.809.357-.2.753-.299 1.187-.299.804 0 1.447.297 1.927.89.48.595.721 1.388.721 2.38 0 .988-.241 1.78-.724 2.376-.482.595-1.124.893-1.924.893zm-.235-5.63c-.574 0-1.028.21-1.362.632-.334.422-.501.998-.501 1.729 0 .73.167 1.306.5 1.728.335.422.789.633 1.363.633.578 0 1.03-.209 1.354-.627.324-.418.486-.996.486-1.734 0-.739-.162-1.317-.486-1.735-.325-.418-.776-.627-1.354-.627zm6.985-.018c-.504 0-.918.17-1.243.51-.324.34-.506.789-.545 1.347h3.48c-.01-.558-.171-1.008-.48-1.347-.308-.34-.712-.51-1.212-.51zm1.664 3.902h1.007a2.21 2.21 0 0 1-.925 1.28c-.465.311-1.043.466-1.735.466-.875 0-1.568-.294-2.08-.882-.512-.587-.767-1.381-.767-2.381 0-.993.257-1.787.773-2.382.516-.596 1.207-.894 2.074-.894.852 0 1.522.284 2.01.853.488.568.732 1.342.732 2.323v.387h-4.54v.047c.027.625.204 1.12.53 1.488.326.367.757.55 1.292.55.406 0 .746-.073 1.02-.22.273-.146.476-.358.609-.635zm2.73 1.635V92.15h1.008v8.824h-1.008z"/>
        </g>
        <path fill="#000" fill-opacity=".38" d="M7.812 255.44l-1.736.532c-.098-.546-.546-1.4-1.806-1.4-.938 0-1.554.602-1.554 1.26 0 .546.35.98 1.078 1.12l1.386.266c1.806.35 2.772 1.526 2.772 2.926 0 1.526-1.274 3.066-3.584 3.066-2.632 0-3.794-1.694-3.948-3.108l1.792-.476c.084.98.77 1.862 2.17 1.862 1.036 0 1.61-.518 1.61-1.218 0-.574-.434-1.022-1.204-1.176l-1.386-.28c-1.582-.322-2.604-1.344-2.604-2.842 0-1.764 1.582-3.108 3.458-3.108 2.408 0 3.332 1.456 3.556 2.576zm3.29 10.22H9.24v-9.548h1.806v.84c.308-.532 1.078-.994 2.114-.994 2.016 0 3.178 1.54 3.178 3.584 0 2.086-1.302 3.626-3.248 3.626-.952 0-1.652-.378-1.988-.84v3.332zm3.402-6.104c0-1.218-.756-1.932-1.708-1.932s-1.722.714-1.722 1.932.77 1.946 1.722 1.946 1.708-.714 1.708-1.946zm4.662-.784h3.08c-.028-.686-.476-1.358-1.54-1.358-.966 0-1.498.728-1.54 1.358zm3.262 1.792l1.554.462c-.35 1.19-1.442 2.184-3.136 2.184-1.89 0-3.556-1.358-3.556-3.682 0-2.198 1.624-3.626 3.388-3.626 2.128 0 3.402 1.358 3.402 3.57 0 .266-.028.546-.028.574h-4.928c.042.91.812 1.568 1.736 1.568.868 0 1.344-.434 1.568-1.05zm6.216-2.94c-.952 0-1.75.686-1.75 1.932s.812 1.946 1.764 1.946 1.428-.63 1.582-1.162l1.638.546c-.308 1.148-1.386 2.324-3.22 2.324-2.03 0-3.626-1.54-3.626-3.654 0-2.128 1.568-3.654 3.57-3.654 1.876 0 2.94 1.162 3.234 2.324l-1.666.56c-.168-.574-.602-1.162-1.526-1.162zm4.018 3.458l1.596-.35c.042.546.448 1.05 1.26 1.05.616 0 .91-.322.91-.686 0-.308-.21-.56-.742-.672l-.91-.21c-1.33-.294-1.932-1.092-1.932-2.058 0-1.232 1.092-2.254 2.576-2.254 1.96 0 2.618 1.246 2.702 1.988l-1.554.35c-.056-.406-.35-.924-1.134-.924-.49 0-.882.294-.882.686 0 .336.252.546.63.616l.98.21c1.358.28 2.044 1.106 2.044 2.114 0 1.12-.868 2.268-2.674 2.268-2.072 0-2.786-1.344-2.87-2.128zM10.29 278.928l2.142-7.854h1.414L11.018 281H9.604l-2.59-8.05L4.452 281H3.08l-2.87-9.926h1.414l2.184 7.77 2.492-7.77h1.442l2.548 7.854zm7.28 1.106c1.12 0 2.1-.84 2.1-2.408 0-1.554-.98-2.394-2.1-2.394s-2.1.84-2.1 2.394c0 1.568.98 2.408 2.1 2.408zm0-5.978c2.016 0 3.444 1.526 3.444 3.57 0 2.058-1.428 3.584-3.444 3.584s-3.444-1.526-3.444-3.584c0-2.044 1.428-3.57 3.444-3.57zm8.862.14v1.4a4.107 4.107 0 0 0-.574-.042c-1.106 0-1.848.588-1.848 2.072V281h-1.316v-6.734h1.288v1.176c.49-1.036 1.33-1.288 2.016-1.288.182 0 .364.028.434.042zm2.114 3.416c0 1.386.714 2.408 1.974 2.408 1.204 0 1.946-1.05 1.946-2.436s-.728-2.338-1.932-2.338-1.988.98-1.988 2.366zm3.934 2.478v-.112c-.322.644-1.036 1.204-2.086 1.204-1.974 0-3.192-1.568-3.192-3.57 0-1.904 1.288-3.528 3.192-3.528 1.19 0 1.834.588 2.058 1.134v-4.354h1.302v8.89c0 .644.056 1.134.07 1.246H32.55a5.64 5.64 0 0 1-.07-.91zm11.452 1.12c-2.562 0-4.928-1.862-4.928-5.18 0-3.318 2.464-5.166 4.928-5.166 2.268 0 3.864 1.232 4.368 3.15l-1.274.448c-.378-1.498-1.47-2.338-3.094-2.338-1.806 0-3.528 1.316-3.528 3.906s1.722 3.92 3.528 3.92c1.694 0 2.758-1.022 3.164-2.38l1.218.448c-.532 1.862-2.1 3.192-4.382 3.192zm8.666-1.176c1.12 0 2.1-.84 2.1-2.408 0-1.554-.98-2.394-2.1-2.394s-2.1.84-2.1 2.394c0 1.568.98 2.408 2.1 2.408zm0-5.978c2.016 0 3.444 1.526 3.444 3.57 0 2.058-1.428 3.584-3.444 3.584s-3.444-1.526-3.444-3.584c0-2.044 1.428-3.57 3.444-3.57zm9.492 6.132c-.364.7-1.204 1.022-1.988 1.022-1.568 0-2.52-1.176-2.52-2.702v-4.242h1.316v4.046c0 .924.42 1.736 1.526 1.736 1.064 0 1.596-.7 1.596-1.722v-4.06h1.316v5.488c0 .532.042 1.008.07 1.246h-1.26a5.962 5.962 0 0 1-.056-.812zm4.802-3.08V281h-1.316v-6.734h1.288v.966c.49-.84 1.288-1.162 2.072-1.162 1.61 0 2.408 1.162 2.408 2.66V281h-1.316v-4.046c0-.938-.392-1.694-1.568-1.694-1.036 0-1.568.826-1.568 1.848zm8.316-4.97v2.128h1.456v1.19h-1.456v3.5c0 .616.252.924.938.924.168 0 .406-.028.518-.056v1.12a2.88 2.88 0 0 1-.896.126c-1.148 0-1.876-.7-1.876-1.918v-3.696h-1.288v-1.19h.364c.728 0 1.036-.448 1.036-1.036v-1.092h1.204zm3.99 4.802h3.682c-.028-.966-.658-1.722-1.848-1.722-1.106 0-1.778.854-1.834 1.722zm3.878 1.75l1.134.392c-.378 1.19-1.456 2.128-3.024 2.128-1.806 0-3.388-1.316-3.388-3.598 0-2.114 1.526-3.556 3.22-3.556 2.072 0 3.234 1.428 3.234 3.528 0 .168-.014.336-.028.42h-5.068c.028 1.204.896 2.044 2.03 2.044 1.092 0 1.638-.602 1.89-1.358zm6.594-4.494v1.4a4.107 4.107 0 0 0-.574-.042c-1.106 0-1.848.588-1.848 2.072V281h-1.316v-6.734h1.288v1.176c.49-1.036 1.33-1.288 2.016-1.288.182 0 .364.028.434.042zm11.368-.868l-1.232.434c-.112-.714-.714-1.694-2.1-1.694-1.12 0-1.918.728-1.918 1.652 0 .714.434 1.26 1.274 1.442l1.484.322c1.652.364 2.576 1.4 2.576 2.786 0 1.54-1.316 2.94-3.43 2.94-2.394 0-3.528-1.54-3.71-2.954l1.316-.42c.098 1.106.882 2.128 2.38 2.128 1.372 0 2.044-.714 2.044-1.582 0-.714-.49-1.33-1.484-1.54l-1.414-.308c-1.414-.308-2.422-1.232-2.422-2.716 0-1.554 1.442-2.954 3.276-2.954 2.24 0 3.136 1.386 3.36 2.464zm3.066 7.672h-1.302v-6.734h1.302V281zm-1.596-9.282c0-.532.42-.952.938-.952.532 0 .952.42.952.952 0 .518-.42.938-.952.938a.938.938 0 0 1-.938-.938zm8.68 9.282h-5.404v-1.148l3.696-4.396h-3.64v-1.19h5.278v1.148l-3.696 4.396h3.766V281zm2.534-4.06h3.682c-.028-.966-.658-1.722-1.848-1.722-1.106 0-1.778.854-1.834 1.722zm3.878 1.75l1.134.392c-.378 1.19-1.456 2.128-3.024 2.128-1.806 0-3.388-1.316-3.388-3.598 0-2.114 1.526-3.556 3.22-3.556 2.072 0 3.234 1.428 3.234 3.528 0 .168-.014.336-.028.42h-5.068c.028 1.204.896 2.044 2.03 2.044 1.092 0 1.638-.602 1.89-1.358zm9.128 2.31h-1.344v-6.398h-2.198v-.966c1.26-.028 2.128-.728 2.338-1.708h1.204V281zm3.094-5.81l-1.372-.168c-.014-.126-.014-.252-.014-.364 0-1.554 1.148-2.94 3.136-2.94 1.946 0 3.066 1.274 3.066 2.786 0 1.19-.672 2.142-1.708 2.8l-1.792 1.148c-.518.336-.98.714-1.106 1.274h4.662V281h-6.356c.028-1.484.616-2.618 2.156-3.612l1.512-.98c.854-.546 1.246-1.19 1.246-1.89 0-.826-.56-1.596-1.708-1.596-1.19 0-1.75.826-1.75 1.862 0 .126.014.266.028.406zm7.854 8.47h-1.302v-9.394h1.274v1.05c.364-.672 1.162-1.204 2.254-1.204 2.016 0 3.094 1.554 3.094 3.514 0 2.002-1.162 3.556-3.136 3.556-1.036 0-1.82-.49-2.184-1.092v3.57zm3.976-6.034c0-1.344-.756-2.352-1.988-2.352-1.204 0-2.002 1.008-2.002 2.352 0 1.386.798 2.38 2.002 2.38 1.218 0 1.988-.994 1.988-2.38zm1.904 3.374l2.506-3.43-2.422-3.304h1.596l1.652 2.366 1.624-2.366h1.554l-2.394 3.304c.406.546 2.072 2.884 2.478 3.43h-1.582l-1.736-2.478-1.708 2.478h-1.568zm7.714-.896c0-.504.434-.938 1.022-.938.602 0 1.134.448 1.134 1.33 0 1.848-1.204 2.618-2.072 2.73v-.728c.686-.154 1.148-.84 1.162-1.512a.61.61 0 0 1-.308.07c-.518 0-.938-.35-.938-.952zm12.194 1.106c-2.562 0-4.928-1.862-4.928-5.18 0-3.318 2.464-5.166 4.928-5.166 2.268 0 3.864 1.232 4.368 3.15l-1.274.448c-.378-1.498-1.47-2.338-3.094-2.338-1.806 0-3.528 1.316-3.528 3.906s1.722 3.92 3.528 3.92c1.694 0 2.758-1.022 3.164-2.38l1.218.448c-.532 1.862-2.1 3.192-4.382 3.192zm8.666-1.176c1.12 0 2.1-.84 2.1-2.408 0-1.554-.98-2.394-2.1-2.394s-2.1.84-2.1 2.394c0 1.568.98 2.408 2.1 2.408zm0-5.978c2.016 0 3.444 1.526 3.444 3.57 0 2.058-1.428 3.584-3.444 3.584s-3.444-1.526-3.444-3.584c0-2.044 1.428-3.57 3.444-3.57zm6.44 6.944h-1.316v-10.136h1.316V281zm5.124-.966c1.12 0 2.1-.84 2.1-2.408 0-1.554-.98-2.394-2.1-2.394s-2.1.84-2.1 2.394c0 1.568.98 2.408 2.1 2.408zm0-5.978c2.016 0 3.444 1.526 3.444 3.57 0 2.058-1.428 3.584-3.444 3.584s-3.444-1.526-3.444-3.584c0-2.044 1.428-3.57 3.444-3.57zm8.862.14v1.4a4.107 4.107 0 0 0-.574-.042c-1.106 0-1.848.588-1.848 2.072V281h-1.316v-6.734h1.288v1.176c.49-1.036 1.33-1.288 2.016-1.288.182 0 .364.028.434.042zm5.838 2.268c0 1.386.252 2.366.798 2.94.35.364.798.588 1.442.588.644 0 1.092-.224 1.442-.588.546-.574.798-1.554.798-2.94s-.252-2.366-.798-2.94c-.35-.364-.798-.588-1.442-.588-.644 0-1.092.224-1.442.588-.546.574-.798 1.554-.798 2.94zm-1.358 0c0-1.246.21-2.394.812-3.29.588-.882 1.498-1.456 2.786-1.456s2.198.574 2.786 1.456c.602.896.812 2.044.812 3.29s-.21 2.394-.812 3.29c-.588.882-1.498 1.456-2.786 1.456s-2.198-.574-2.786-1.456c-.602-.896-.812-2.044-.812-3.29zm9.884 0c0 1.386.252 2.366.798 2.94.35.364.798.588 1.442.588.644 0 1.092-.224 1.442-.588.546-.574.798-1.554.798-2.94s-.252-2.366-.798-2.94c-.35-.364-.798-.588-1.442-.588-.644 0-1.092.224-1.442.588-.546.574-.798 1.554-.798 2.94zm-1.358 0c0-1.246.21-2.394.812-3.29.588-.882 1.498-1.456 2.786-1.456s2.198.574 2.786 1.456c.602.896.812 2.044.812 3.29s-.21 2.394-.812 3.29c-.588.882-1.498 1.456-2.786 1.456s-2.198-.574-2.786-1.456c-.602-.896-.812-2.044-.812-3.29zm9.884 0c0 1.386.252 2.366.798 2.94.35.364.798.588 1.442.588.644 0 1.092-.224 1.442-.588.546-.574.798-1.554.798-2.94s-.252-2.366-.798-2.94c-.35-.364-.798-.588-1.442-.588-.644 0-1.092.224-1.442.588-.546.574-.798 1.554-.798 2.94zm-1.358 0c0-1.246.21-2.394.812-3.29.588-.882 1.498-1.456 2.786-1.456s2.198.574 2.786 1.456c.602.896.812 2.044.812 3.29s-.21 2.394-.812 3.29c-.588.882-1.498 1.456-2.786 1.456s-2.198-.574-2.786-1.456c-.602-.896-.812-2.044-.812-3.29zm9.884 0c0 1.386.252 2.366.798 2.94.35.364.798.588 1.442.588.644 0 1.092-.224 1.442-.588.546-.574.798-1.554.798-2.94s-.252-2.366-.798-2.94c-.35-.364-.798-.588-1.442-.588-.644 0-1.092.224-1.442.588-.546.574-.798 1.554-.798 2.94zm-1.358 0c0-1.246.21-2.394.812-3.29.588-.882 1.498-1.456 2.786-1.456s2.198.574 2.786 1.456c.602.896.812 2.044.812 3.29s-.21 2.394-.812 3.29c-.588.882-1.498 1.456-2.786 1.456s-2.198-.574-2.786-1.456c-.602-.896-.812-2.044-.812-3.29zm9.884 0c0 1.386.252 2.366.798 2.94.35.364.798.588 1.442.588.644 0 1.092-.224 1.442-.588.546-.574.798-1.554.798-2.94s-.252-2.366-.798-2.94c-.35-.364-.798-.588-1.442-.588-.644 0-1.092.224-1.442.588-.546.574-.798 1.554-.798 2.94zm-1.358 0c0-1.246.21-2.394.812-3.29.588-.882 1.498-1.456 2.786-1.456s2.198.574 2.786 1.456c.602.896.812 2.044.812 3.29s-.21 2.394-.812 3.29c-.588.882-1.498 1.456-2.786 1.456s-2.198-.574-2.786-1.456c-.602-.896-.812-2.044-.812-3.29zm9.884 0c0 1.386.252 2.366.798 2.94.35.364.798.588 1.442.588.644 0 1.092-.224 1.442-.588.546-.574.798-1.554.798-2.94s-.252-2.366-.798-2.94c-.35-.364-.798-.588-1.442-.588-.644 0-1.092.224-1.442.588-.546.574-.798 1.554-.798 2.94zm-1.358 0c0-1.246.21-2.394.812-3.29.588-.882 1.498-1.456 2.786-1.456s2.198.574 2.786 1.456c.602.896.812 2.044.812 3.29s-.21 2.394-.812 3.29c-.588.882-1.498 1.456-2.786 1.456s-2.198-.574-2.786-1.456c-.602-.896-.812-2.044-.812-3.29zm14.546.322l-.672-1.134 2.674-2.464h-4.34v-1.26h6.16v1.232l-2.59 2.394c1.33 0 2.8.896 2.8 2.758 0 1.526-1.176 2.912-3.29 2.912-2.1 0-3.29-1.372-3.374-2.856l1.344-.308c.056 1.204.924 1.96 2.016 1.96 1.246 0 1.918-.77 1.918-1.68 0-1.19-.952-1.694-1.848-1.694-.28 0-.56.056-.798.14zm8.512-.994c.966-.014 1.68-.602 1.68-1.484 0-.812-.658-1.456-1.68-1.456-1.022 0-1.68.644-1.68 1.456 0 .882.714 1.47 1.68 1.484zm0 4.228c1.218 0 1.904-.672 1.904-1.526 0-.868-.7-1.554-1.904-1.554s-1.904.686-1.904 1.554c0 .854.686 1.526 1.904 1.526zm0 1.19c-2.086 0-3.29-1.148-3.29-2.604 0-1.106.756-1.918 1.722-2.24a2.282 2.282 0 0 1-1.484-2.128c0-1.484 1.316-2.52 3.052-2.52s3.052 1.036 3.052 2.52c0 .98-.644 1.82-1.484 2.128.966.308 1.722 1.134 1.722 2.24 0 1.456-1.204 2.604-3.29 2.604zm5.782-7.182c0 .644.476 1.106 1.078 1.106.616 0 1.078-.462 1.078-1.106 0-.63-.462-1.092-1.078-1.092-.602 0-1.078.462-1.078 1.092zm-1.162 0c0-1.232 1.036-2.198 2.24-2.198 1.204 0 2.254.966 2.254 2.198 0 1.246-1.05 2.212-2.254 2.212s-2.24-.966-2.24-2.212zm6.706 4.872c0 .644.476 1.106 1.078 1.106.616 0 1.078-.462 1.078-1.106 0-.63-.462-1.092-1.078-1.092-.602 0-1.078.462-1.078 1.092zm-1.162 0c0-1.232 1.036-2.198 2.24-2.198 1.204 0 2.254.966 2.254 2.198 0 1.246-1.05 2.212-2.254 2.212s-2.24-.966-2.24-2.212zm-3.136 2.1h-1.288l6.524-9.072h1.26L269.752 281z"/>
    </g>
</svg>
