<svg xmlns="http://www.w3.org/2000/svg" xmlns:xlink="http://www.w3.org/1999/xlink" width="361" height="299" viewBox="0 0 361 299">
    <defs>
        <path id="a" d="M0 0h24v24H0z"/>
        <mask id="b" width="24" height="24" x="0" y="0" fill="#fff">
            <use xlink:href="#a"/>
        </mask>
    </defs>
    <g fill="none" fill-rule="evenodd">
        <rect width="360" height="240" x=".5" fill="#F8F8F8" rx="4"/>
        <path d="M16 102.5h288v48H16z"/>
        <path stroke="#E0E0E0" d="M16 149.5h288"/>
        <path fill="#000" fill-opacity=".7" d="M21.898 133.055l-1.828-1.235.125 2.18h-1.062l.125-2.188-1.828 1.243-.524-.907 1.953-1.023-1.953-1.031.524-.922 1.828 1.273-.125-2.218h1.062l-.125 2.218 1.828-1.273.524.922-1.945 1.031 1.945 1.023-.524.907zm7.032 0l-1.828-1.235.125 2.18h-1.063l.125-2.188-1.828 1.243-.523-.907 1.953-1.023-1.953-1.031.523-.922 1.828 1.273-.125-2.218h1.063l-.125 2.218 1.828-1.273.523.922-1.945 1.031 1.945 1.023-.523.907zm7.03 0l-1.827-1.235.125 2.18h-1.063l.125-2.188-1.828 1.243-.523-.907 1.953-1.023-1.953-1.031.523-.922 1.828 1.273-.125-2.218h1.063l-.125 2.218 1.828-1.273.523.922-1.945 1.031 1.945 1.023-.523.907zm7.032 0l-1.828-1.235.125 2.18h-1.062l.125-2.188-1.829 1.243-.523-.907 1.953-1.023L38 130.094l.523-.922 1.829 1.273-.125-2.218h1.062l-.125 2.218 1.828-1.273.524.922-1.946 1.031 1.946 1.023-.524.907zm7.031 0l-1.828-1.235.125 2.18h-1.062l.125-2.188-1.828 1.243-.524-.907 1.953-1.023-1.953-1.031.524-.922 1.828 1.273-.125-2.218h1.062l-.125 2.218 1.828-1.273.524.922-1.945 1.031 1.945 1.023-.524.907zm7.032 0l-1.828-1.235.125 2.18h-1.063l.125-2.188-1.828 1.243-.523-.907 1.953-1.023-1.953-1.031.523-.922 1.828 1.273-.125-2.218h1.063l-.125 2.218 1.828-1.273.523.922-1.945 1.031 1.945 1.023-.523.907zm7.03 0l-1.827-1.235.125 2.18H61.32l.125-2.188-1.828 1.243-.523-.907 1.953-1.023-1.953-1.031.523-.922 1.828 1.273-.125-2.218h1.063l-.125 2.218 1.828-1.273.523.922-1.945 1.031 1.945 1.023-.523.907zm7.032 0l-1.828-1.235.125 2.18h-1.062l.125-2.188-1.829 1.243-.523-.907 1.953-1.023-1.953-1.031.523-.922 1.829 1.273-.125-2.218h1.062l-.125 2.218 1.828-1.273.524.922-1.946 1.031 1.946 1.023-.524.907zm7.031 0l-1.828-1.235.125 2.18h-1.062l.125-2.188-1.828 1.243-.524-.907 1.953-1.023-1.953-1.031.524-.922 1.828 1.273-.125-2.218h1.062l-.125 2.218 1.828-1.273.524.922-1.945 1.031 1.945 1.023-.524.907zm7.032 0l-1.828-1.235.125 2.18h-1.063l.125-2.188-1.828 1.243-.523-.907 1.953-1.023-1.954-1.031.524-.922 1.828 1.273-.125-2.218h1.063l-.125 2.218 1.828-1.273.523.922-1.945 1.031 1.945 1.023-.523.907zm7.03 0l-1.827-1.235.125 2.18h-1.063l.125-2.188-1.828 1.243-.523-.907 1.953-1.023-1.953-1.031.523-.922 1.828 1.273-.125-2.218h1.063l-.125 2.218 1.828-1.273.523.922-1.945 1.031 1.945 1.023-.523.907z"/>
        <g transform="translate(276 121.5)">
            <use stroke="#E0E0E0" stroke-dasharray="4" stroke-width="2" mask="url(#b)" xlink:href="#a"/>
            <path d="M4 4h16v16H4V4zm0 0h16v16H4V4zm0 0h16v16H4V4zm0 0h16v16H4V4z"/>
            <path fill="#666" d="M12 8.667A3.335 3.335 0 0 1 15.333 12c0 .433-.086.84-.24 1.22l1.947 1.947A7.878 7.878 0 0 0 19.327 12c-1.154-2.927-4-5-7.334-5-.933 0-1.826.167-2.653.467l1.44 1.44c.38-.154.787-.24 1.22-.24zm-6.667-1.82l1.52 1.52.307.306A7.87 7.87 0 0 0 4.667 12c1.153 2.927 4 5 7.333 5 1.033 0 2.02-.2 2.92-.56l.28.28 1.953 1.947.847-.847L6.18 6l-.847.847zm3.687 3.686l1.033 1.034A1.88 1.88 0 0 0 10 12c0 1.107.893 2 2 2 .147 0 .293-.02.433-.053l1.034 1.033c-.447.22-.94.353-1.467.353A3.335 3.335 0 0 1 8.667 12c0-.527.133-1.02.353-1.467zm2.873-.52l2.1 2.1.014-.106c0-1.107-.894-2-2-2l-.114.006z"/>
        </g>
        <path fill="#000" fill-opacity=".54" d="M17.072 106.045h3.194c.8 0 1.452.255 1.954.765s.753 1.167.753 1.971c0 .79-.255 1.437-.765 1.943-.51.505-1.161.758-1.954.758h-2.127v3.018h-1.055v-8.455zm1.055.937v3.563h1.863c.602 0 1.069-.154 1.4-.463.333-.309.499-.742.499-1.3 0-.583-.163-1.028-.49-1.337-.326-.308-.795-.463-1.409-.463h-1.863zm8.15 6.745c.52 0 .95-.152 1.292-.455.342-.302.513-.678.513-1.127v-.58l-1.7.11c-.921.063-1.382.407-1.382 1.032 0 .32.121.57.363.75.242.18.547.27.914.27zm-.187.884c-.613 0-1.122-.169-1.527-.507-.404-.337-.606-.795-.606-1.374 0-1.156.768-1.779 2.303-1.869l1.822-.111v-.574c0-.805-.477-1.207-1.43-1.207-.379 0-.693.068-.943.205a.937.937 0 0 0-.48.58h-1.02c.066-.508.328-.915.785-1.222.457-.306 1.022-.46 1.694-.46.769 0 1.362.187 1.778.56.416.373.624.888.624 1.544v4.324h-.961v-.932h-.094a2.077 2.077 0 0 1-.808.774c-.336.18-.715.27-1.137.27zm4.717-4.699c0-.523.224-.96.673-1.312.45-.352 1.01-.528 1.682-.528.664 0 1.21.153 1.638.457.428.305.675.717.741 1.237h-.996a1.011 1.011 0 0 0-.457-.61c-.238-.152-.549-.228-.932-.228-.375 0-.691.087-.949.26-.258.174-.387.402-.387.683 0 .215.09.394.27.536.18.143.455.259.826.349l.973.234c.593.145 1.036.353 1.327.624.29.272.436.634.436 1.087 0 .567-.242 1.027-.726 1.38-.485.354-1.086.53-1.805.53-.703 0-1.28-.156-1.728-.468-.45-.313-.702-.73-.756-1.254h1.037c.086.265.254.477.504.635.25.159.576.238.978.238.426 0 .776-.092 1.05-.276.273-.183.41-.42.41-.709a.7.7 0 0 0-.25-.548c-.166-.146-.417-.26-.753-.342l-1.084-.264c-.59-.144-1.024-.352-1.303-.621-.28-.27-.42-.633-.42-1.09zm6.164 0c0-.523.224-.96.674-1.312.449-.352 1.01-.528 1.681-.528.664 0 1.21.153 1.638.457.428.305.675.717.741 1.237h-.996a1.011 1.011 0 0 0-.457-.61c-.238-.152-.549-.228-.932-.228-.375 0-.691.087-.949.26-.258.174-.387.402-.387.683 0 .215.09.394.27.536.18.143.455.259.826.349l.973.234c.593.145 1.036.353 1.327.624.29.272.436.634.436 1.087 0 .567-.242 1.027-.726 1.38-.485.354-1.086.53-1.805.53-.703 0-1.28-.156-1.728-.468-.45-.313-.702-.73-.756-1.254h1.037c.086.265.254.477.504.635.25.159.576.238.978.238.426 0 .776-.092 1.05-.276.273-.183.41-.42.41-.709a.7.7 0 0 0-.25-.548c-.166-.146-.417-.26-.753-.342l-1.084-.264c-.59-.144-1.024-.352-1.303-.621-.28-.27-.42-.633-.42-1.09zm14.197-1.728l-.179.638-.442 1.58-.527 1.88-.443 1.58-.179.638h-1.025l-1.412-4.887h-.094l-1.406 4.887h-1.02l-1.77-6.316h1.02l1.243 5.05h.093l1.412-5.05h.967l1.412 5.05h.094l1.242-5.05h1.014zm3.709 6.427c-.898 0-1.608-.292-2.13-.876-.521-.584-.782-1.381-.782-2.393 0-1.016.26-1.815.782-2.397.522-.582 1.232-.873 2.13-.873.898 0 1.608.291 2.13.873.521.582.782 1.381.782 2.397 0 1.012-.26 1.81-.782 2.393-.522.584-1.232.876-2.13.876zm0-.908c.598 0 1.059-.207 1.383-.621.324-.414.486-.994.486-1.74 0-.75-.162-1.331-.486-1.743-.324-.412-.785-.619-1.383-.619s-1.059.207-1.383.619c-.324.412-.486.993-.486 1.743 0 .746.162 1.326.486 1.74.324.414.785.621 1.383.621zm4.494.797v-6.316h.961v.937h.094c.094-.309.304-.56.633-.756a2.146 2.146 0 0 1 1.119-.293 4.382 4.382 0 0 1 .504.03v1.007a4.014 4.014 0 0 0-.645-.059c-.48 0-.877.145-1.19.434-.312.29-.468.657-.468 1.102v3.914H59.37zm6.733.111c-.81 0-1.454-.297-1.934-.89-.48-.594-.72-1.387-.72-2.38 0-.991.241-1.784.726-2.378.484-.594 1.127-.89 1.928-.89.44 0 .836.097 1.186.292.35.196.614.467.794.815h.088v-3.504h1.008v8.824h-.961v-1.008h-.094a2.12 2.12 0 0 1-.832.823 2.41 2.41 0 0 1-1.19.296zm.234-5.63c-.574 0-1.025.21-1.354.63-.328.42-.492.996-.492 1.73 0 .74.163 1.317.49 1.735.326.418.778.627 1.356.627.574 0 1.027-.21 1.36-.633.331-.422.497-.998.497-1.728 0-.723-.167-1.297-.5-1.723-.335-.426-.787-.639-1.357-.639z"/>
        <g transform="translate(271 89.5)">
            <path fill="#F50" d="M5 28h24v1H5z"/>
            <path fill="#F50" d="M5 26h1v5H5zM28 26h1v5h-1z"/>
            <rect width="35" height="22" fill="#F50" rx="2"/>
            <path fill="#F50" d="M14 22l4-4 4 4-4 4z"/>
            <path fill="#FFF" d="M4.69 9.504a3.44 3.44 0 0 1 .132-1.2c.112-.368.286-.686.522-.954a2.45 2.45 0 0 1 .882-.63 3 3 0 0 1 1.2-.228c.368 0 .714.054 1.038.162.324.108.606.264.846.468.24.204.43.458.57.762.14.304.21.656.21 1.056 0 .376-.058.708-.174.996-.116.288-.27.546-.462.774a3.884 3.884 0 0 1-.66.618c-.248.184-.504.36-.768.528-.264.16-.528.318-.792.474a6.248 6.248 0 0 0-.726.498c-.22.176-.408.366-.564.57a1.612 1.612 0 0 0-.306.702h4.368v.9H4.45c.04-.504.13-.934.27-1.29a3.45 3.45 0 0 1 .534-.93c.216-.264.46-.496.732-.696.272-.2.556-.388.852-.564.36-.224.676-.43.948-.618.272-.188.498-.378.678-.57.18-.192.316-.4.408-.624.092-.224.138-.484.138-.78 0-.232-.044-.442-.132-.63a1.525 1.525 0 0 0-.876-.798 1.863 1.863 0 0 0-.636-.108c-.296 0-.55.062-.762.186a1.599 1.599 0 0 0-.522.486 2.03 2.03 0 0 0-.294.678c-.06.252-.086.506-.078.762H4.69zm10.212 2.604V7.944h-.024l-2.832 4.164h2.856zm.96 0h1.152v.9h-1.152V15h-.96v-1.992H11.17v-.984l3.876-5.532h.816v5.616zm2.448-3.312h1.02v.84h.024c.168-.344.432-.594.792-.75.36-.156.756-.234 1.188-.234.48 0 .898.088 1.254.264.356.176.652.414.888.714s.414.646.534 1.038c.12.392.18.808.18 1.248 0 .44-.058.856-.174 1.248a2.938 2.938 0 0 1-.528 1.026 2.49 2.49 0 0 1-.888.69c-.356.168-.77.252-1.242.252a3.066 3.066 0 0 1-1.068-.204 2.18 2.18 0 0 1-.522-.294 1.643 1.643 0 0 1-.414-.462h-.024v3.192h-1.02V8.796zm4.8 3.048c0-.288-.038-.57-.114-.846a2.283 2.283 0 0 0-.348-.738 1.705 1.705 0 0 0-.6-.516 1.822 1.822 0 0 0-.858-.192c-.344 0-.636.068-.876.204-.24.136-.436.314-.588.534-.152.22-.262.47-.33.75a3.597 3.597 0 0 0 .006 1.734c.072.284.186.534.342.75.156.216.358.39.606.522s.548.198.9.198.646-.068.882-.204a1.64 1.64 0 0 0 .57-.54 2.35 2.35 0 0 0 .312-.768c.064-.288.096-.584.096-.888zm3.948-.108l-2.16-2.94h1.308l1.488 2.172 1.548-2.172h1.224l-2.136 2.856L30.73 15h-1.308l-1.728-2.568L25.966 15H24.73l2.328-3.264z"/>
        </g>
        <g transform="translate(301 121.5)">
            <path fill="#F50" d="M2 0h1v24H2z"/>
            <path fill="#F50" d="M0 0h5v1H0zM0 23h5v1H0z"/>
            <rect width="35" height="22" x="9" y="1" fill="#F50" rx="2"/>
            <path fill="#F50" d="M5 12l4-4 4 4-4 4z"/>
            <path fill="#FFF" d="M13.69 10.504a3.44 3.44 0 0 1 .132-1.2c.112-.368.286-.686.522-.954a2.45 2.45 0 0 1 .882-.63 3 3 0 0 1 1.2-.228c.368 0 .714.054 1.038.162.324.108.606.264.846.468.24.204.43.458.57.762.14.304.21.656.21 1.056 0 .376-.058.708-.174.996-.116.288-.27.546-.462.774a3.884 3.884 0 0 1-.66.618c-.248.184-.504.36-.768.528-.264.16-.528.318-.792.474a6.248 6.248 0 0 0-.726.498c-.22.176-.408.366-.564.57a1.612 1.612 0 0 0-.306.702h4.368v.9H13.45c.04-.504.13-.934.27-1.29a3.45 3.45 0 0 1 .534-.93c.216-.264.46-.496.732-.696.272-.2.556-.388.852-.564.36-.224.676-.43.948-.618.272-.188.498-.378.678-.57.18-.192.316-.4.408-.624.092-.224.138-.484.138-.78 0-.232-.044-.442-.132-.63a1.525 1.525 0 0 0-.876-.798 1.863 1.863 0 0 0-.636-.108c-.296 0-.55.062-.762.186a1.599 1.599 0 0 0-.522.486 2.03 2.03 0 0 0-.294.678c-.06.252-.086.506-.078.762h-1.02zm10.212 2.604V8.944h-.024l-2.832 4.164h2.856zm.96 0h1.152v.9h-1.152V16h-.96v-1.992H20.17v-.984l3.876-5.532h.816v5.616zm2.448-3.312h1.02v.84h.024c.168-.344.432-.594.792-.75.36-.156.756-.234 1.188-.234.48 0 .898.088 1.254.264.356.176.652.414.888.714s.414.646.534 1.038c.12.392.18.808.18 1.248 0 .44-.058.856-.174 1.248a2.938 2.938 0 0 1-.528 1.026 2.49 2.49 0 0 1-.888.69c-.356.168-.77.252-1.242.252a3.066 3.066 0 0 1-1.068-.204 2.18 2.18 0 0 1-.522-.294 1.643 1.643 0 0 1-.414-.462h-.024v3.192h-1.02V9.796zm4.8 3.048c0-.288-.038-.57-.114-.846a2.283 2.283 0 0 0-.348-.738 1.705 1.705 0 0 0-.6-.516 1.822 1.822 0 0 0-.858-.192c-.344 0-.636.068-.876.204-.24.136-.436.314-.588.534-.152.22-.262.47-.33.75a3.597 3.597 0 0 0 .006 1.734c.072.284.186.534.342.75.156.216.358.39.606.522s.548.198.9.198.646-.068.882-.204a1.64 1.64 0 0 0 .57-.54 2.35 2.35 0 0 0 .312-.768c.064-.288.096-.584.096-.888zm3.948-.108l-2.16-2.94h1.308l1.488 2.172 1.548-2.172h1.224l-2.136 2.856L39.73 16h-1.308l-1.728-2.568L34.966 16H33.73l2.328-3.264z"/>
        </g>
        <path fill="#000" fill-opacity=".38" d="M3.094 262h-1.96v-9.926h1.96V262zm5.18-5.376c-.952 0-1.75.686-1.75 1.932s.812 1.946 1.764 1.946 1.428-.63 1.582-1.162l1.638.546c-.308 1.148-1.386 2.324-3.22 2.324-2.03 0-3.626-1.54-3.626-3.654 0-2.128 1.568-3.654 3.57-3.654 1.876 0 2.94 1.162 3.234 2.324l-1.666.56c-.168-.574-.602-1.162-1.526-1.162zm7.63 3.892c.91 0 1.75-.658 1.75-1.96s-.84-1.96-1.75-1.96-1.75.658-1.75 1.96c0 1.288.84 1.96 1.75 1.96zm0-5.614c2.058 0 3.612 1.526 3.612 3.654 0 2.114-1.554 3.654-3.612 3.654s-3.612-1.54-3.612-3.654c0-2.128 1.554-3.654 3.612-3.654zm6.944 3.136V262h-1.862v-6.888h1.806v.854c.42-.714 1.246-1.036 1.988-1.036 1.708 0 2.492 1.218 2.492 2.73V262H25.41v-4.018c0-.77-.378-1.372-1.274-1.372-.812 0-1.288.63-1.288 1.428zm16.59-3.598l-1.736.532c-.098-.546-.546-1.4-1.806-1.4-.938 0-1.554.602-1.554 1.26 0 .546.35.98 1.078 1.12l1.386.266c1.806.35 2.772 1.526 2.772 2.926 0 1.526-1.274 3.066-3.584 3.066-2.632 0-3.794-1.694-3.948-3.108l1.792-.476c.084.98.77 1.862 2.17 1.862 1.036 0 1.61-.518 1.61-1.218 0-.574-.434-1.022-1.204-1.176l-1.386-.28c-1.582-.322-2.604-1.344-2.604-2.842 0-1.764 1.582-3.108 3.458-3.108 2.408 0 3.332 1.456 3.556 2.576zm3.29 10.22h-1.862v-9.548h1.806v.84c.308-.532 1.078-.994 2.114-.994 2.016 0 3.178 1.54 3.178 3.584 0 2.086-1.302 3.626-3.248 3.626-.952 0-1.652-.378-1.988-.84v3.332zm3.402-6.104c0-1.218-.756-1.932-1.708-1.932s-1.722.714-1.722 1.932.77 1.946 1.722 1.946 1.708-.714 1.708-1.946zm4.662-.784h3.08c-.028-.686-.476-1.358-1.54-1.358-.966 0-1.498.728-1.54 1.358zm3.262 1.792l1.554.462c-.35 1.19-1.442 2.184-3.136 2.184-1.89 0-3.556-1.358-3.556-3.682 0-2.198 1.624-3.626 3.388-3.626 2.128 0 3.402 1.358 3.402 3.57 0 .266-.028.546-.028.574H50.75c.042.91.812 1.568 1.736 1.568.868 0 1.344-.434 1.568-1.05zm6.216-2.94c-.952 0-1.75.686-1.75 1.932s.812 1.946 1.764 1.946 1.428-.63 1.582-1.162l1.638.546c-.308 1.148-1.386 2.324-3.22 2.324-2.03 0-3.626-1.54-3.626-3.654 0-2.128 1.568-3.654 3.57-3.654 1.876 0 2.94 1.162 3.234 2.324l-1.666.56c-.168-.574-.602-1.162-1.526-1.162zM2.66 280h-1.4v-9.926h1.4V280zm5.208-5.726c-1.064 0-2.044.784-2.044 2.352 0 1.54.966 2.366 2.058 2.366 1.26 0 1.722-.854 1.876-1.386l1.162.504c-.322.966-1.288 2.1-3.038 2.1-1.96 0-3.402-1.54-3.402-3.584 0-2.1 1.47-3.57 3.388-3.57 1.792 0 2.716 1.12 2.996 2.142l-1.19.504c-.168-.658-.658-1.428-1.806-1.428zm7.406 4.76c1.12 0 2.1-.84 2.1-2.408 0-1.554-.98-2.394-2.1-2.394s-2.1.84-2.1 2.394c0 1.568.98 2.408 2.1 2.408zm0-5.978c2.016 0 3.444 1.526 3.444 3.57 0 2.058-1.428 3.584-3.444 3.584s-3.444-1.526-3.444-3.584c0-2.044 1.428-3.57 3.444-3.57zm6.44 3.052V280h-1.316v-6.734h1.288v.966c.49-.84 1.288-1.162 2.072-1.162 1.61 0 2.408 1.162 2.408 2.66V280H24.85v-4.046c0-.938-.392-1.694-1.568-1.694-1.036 0-1.568.826-1.568 1.848zm16.52-3.78l-1.232.434c-.112-.714-.714-1.694-2.1-1.694-1.12 0-1.918.728-1.918 1.652 0 .714.434 1.26 1.274 1.442l1.484.322c1.652.364 2.576 1.4 2.576 2.786 0 1.54-1.316 2.94-3.43 2.94-2.394 0-3.528-1.54-3.71-2.954l1.316-.42c.098 1.106.882 2.128 2.38 2.128 1.372 0 2.044-.714 2.044-1.582 0-.714-.49-1.33-1.484-1.54l-1.414-.308c-1.414-.308-2.422-1.232-2.422-2.716 0-1.554 1.442-2.954 3.276-2.954 2.24 0 3.136 1.386 3.36 2.464zM41.3 280h-1.302v-6.734H41.3V280zm-1.596-9.282c0-.532.42-.952.938-.952.532 0 .952.42.952.952 0 .518-.42.938-.952.938a.938.938 0 0 1-.938-.938zm8.68 9.282H42.98v-1.148l3.696-4.396h-3.64v-1.19h5.278v1.148l-3.696 4.396h3.766V280zm2.534-4.06H54.6c-.028-.966-.658-1.722-1.848-1.722-1.106 0-1.778.854-1.834 1.722zm3.878 1.75l1.134.392c-.378 1.19-1.456 2.128-3.024 2.128-1.806 0-3.388-1.316-3.388-3.598 0-2.114 1.526-3.556 3.22-3.556 2.072 0 3.234 1.428 3.234 3.528 0 .168-.014.336-.028.42h-5.068c.028 1.204.896 2.044 2.03 2.044 1.092 0 1.638-.602 1.89-1.358zm13.37 2.31l-1.078-2.772h-4.396L61.642 280h-1.47l3.948-9.926h1.582L69.65 280h-1.484zm-3.29-8.498l-1.694 4.452h3.416l-1.722-4.452zm9.702 1.694v1.4a4.107 4.107 0 0 0-.574-.042c-1.106 0-1.848.588-1.848 2.072V280H70.84v-6.734h1.288v1.176c.49-1.036 1.33-1.288 2.016-1.288.182 0 .364.028.434.042zm2.184 2.744h3.682c-.028-.966-.658-1.722-1.848-1.722-1.106 0-1.778.854-1.834 1.722zm3.878 1.75l1.134.392c-.378 1.19-1.456 2.128-3.024 2.128-1.806 0-3.388-1.316-3.388-3.598 0-2.114 1.526-3.556 3.22-3.556 2.072 0 3.234 1.428 3.234 3.528 0 .168-.014.336-.028.42H76.72c.028 1.204.896 2.044 2.03 2.044 1.092 0 1.638-.602 1.89-1.358zm2.436.504c0-1.204.882-1.876 2.044-2.044l1.82-.266c.406-.056.518-.266.518-.504 0-.658-.434-1.204-1.456-1.204-.924 0-1.442.574-1.526 1.358l-1.26-.294c.14-1.288 1.302-2.184 2.758-2.184 2.016 0 2.8 1.148 2.8 2.464v3.374c0 .588.056.938.084 1.106H87.57c-.028-.168-.07-.42-.07-.91-.294.476-.966 1.12-2.17 1.12-1.372 0-2.254-.952-2.254-2.016zm2.436.91c1.078 0 1.946-.518 1.946-1.988v-.308l-2.058.308c-.56.084-.98.406-.98 1.008 0 .504.42.98 1.092.98zm9.66-4.914l-1.372-.168c-.014-.126-.014-.252-.014-.364 0-1.554 1.148-2.94 3.136-2.94 1.946 0 3.066 1.274 3.066 2.786 0 1.19-.672 2.142-1.708 2.8l-1.792 1.148c-.518.336-.98.714-1.106 1.274h4.662V280h-6.356c.028-1.484.616-2.618 2.156-3.612l1.512-.98c.854-.546 1.246-1.19 1.246-1.89 0-.826-.56-1.596-1.708-1.596-1.19 0-1.75.826-1.75 1.862 0 .126.014.266.028.406zm5.712 3.766v-1.582l3.892-5.446h1.89v5.754h1.554v1.274h-1.554V280h-1.33v-2.044h-4.452zm4.452-1.274v-4.438l-3.192 4.438h3.192zm12.67 2.548l-2.38-2.45-2.352 2.436-.784-.784 2.366-2.464-2.352-2.436.798-.798 2.338 2.436 2.338-2.436.798.784-2.366 2.45 2.38 2.464-.784.798zm6.818-5.04l-1.372-.168c-.014-.126-.014-.252-.014-.364 0-1.554 1.148-2.94 3.136-2.94 1.946 0 3.066 1.274 3.066 2.786 0 1.19-.672 2.142-1.708 2.8l-1.792 1.148c-.518.336-.98.714-1.106 1.274h4.662V280h-6.356c.028-1.484.616-2.618 2.156-3.612l1.512-.98c.854-.546 1.246-1.19 1.246-1.89 0-.826-.56-1.596-1.708-1.596-1.19 0-1.75.826-1.75 1.862 0 .126.014.266.028.406zm5.712 3.766v-1.582l3.892-5.446h1.89v5.754h1.554v1.274h-1.554V280h-1.33v-2.044h-4.452zm4.452-1.274v-4.438l-3.192 4.438h3.192zm5.516 5.978h-1.302v-9.394h1.274v1.05c.364-.672 1.162-1.204 2.254-1.204 2.016 0 3.094 1.554 3.094 3.514 0 2.002-1.162 3.556-3.136 3.556-1.036 0-1.82-.49-2.184-1.092v3.57zm3.976-6.034c0-1.344-.756-2.352-1.988-2.352-1.204 0-2.002 1.008-2.002 2.352 0 1.386.798 2.38 2.002 2.38 1.218 0 1.988-.994 1.988-2.38zm1.904 3.374l2.506-3.43-2.422-3.304h1.596l1.652 2.366 1.624-2.366h1.554l-2.394 3.304c.406.546 2.072 2.884 2.478 3.43h-1.582l-1.736-2.478-1.708 2.478h-1.568zM2.66 298h-1.4v-9.926h1.4V298zm5.208-5.726c-1.064 0-2.044.784-2.044 2.352 0 1.54.966 2.366 2.058 2.366 1.26 0 1.722-.854 1.876-1.386l1.162.504c-.322.966-1.288 2.1-3.038 2.1-1.96 0-3.402-1.54-3.402-3.584 0-2.1 1.47-3.57 3.388-3.57 1.792 0 2.716 1.12 2.996 2.142l-1.19.504c-.168-.658-.658-1.428-1.806-1.428zm7.406 4.76c1.12 0 2.1-.84 2.1-2.408 0-1.554-.98-2.394-2.1-2.394s-2.1.84-2.1 2.394c0 1.568.98 2.408 2.1 2.408zm0-5.978c2.016 0 3.444 1.526 3.444 3.57 0 2.058-1.428 3.584-3.444 3.584s-3.444-1.526-3.444-3.584c0-2.044 1.428-3.57 3.444-3.57zm6.44 3.052V298h-1.316v-6.734h1.288v.966c.49-.84 1.288-1.162 2.072-1.162 1.61 0 2.408 1.162 2.408 2.66V298H24.85v-4.046c0-.938-.392-1.694-1.568-1.694-1.036 0-1.568.826-1.568 1.848zm14.49 4.102c-2.562 0-4.928-1.862-4.928-5.18 0-3.318 2.464-5.166 4.928-5.166 2.268 0 3.864 1.232 4.368 3.15l-1.274.448c-.378-1.498-1.47-2.338-3.094-2.338-1.806 0-3.528 1.316-3.528 3.906s1.722 3.92 3.528 3.92c1.694 0 2.758-1.022 3.164-2.38l1.218.448c-.532 1.862-2.1 3.192-4.382 3.192zm8.666-1.176c1.12 0 2.1-.84 2.1-2.408 0-1.554-.98-2.394-2.1-2.394s-2.1.84-2.1 2.394c0 1.568.98 2.408 2.1 2.408zm0-5.978c2.016 0 3.444 1.526 3.444 3.57 0 2.058-1.428 3.584-3.444 3.584s-3.444-1.526-3.444-3.584c0-2.044 1.428-3.57 3.444-3.57zM51.31 298h-1.316v-10.136h1.316V298zm5.124-.966c1.12 0 2.1-.84 2.1-2.408 0-1.554-.98-2.394-2.1-2.394s-2.1.84-2.1 2.394c0 1.568.98 2.408 2.1 2.408zm0-5.978c2.016 0 3.444 1.526 3.444 3.57 0 2.058-1.428 3.584-3.444 3.584s-3.444-1.526-3.444-3.584c0-2.044 1.428-3.57 3.444-3.57zm8.862.14v1.4a4.107 4.107 0 0 0-.574-.042c-1.106 0-1.848.588-1.848 2.072V298h-1.316v-6.734h1.288v1.176c.49-1.036 1.33-1.288 2.016-1.288.182 0 .364.028.434.042zm11.13-1.974l-.42 1.12c-.336-.196-.938-.392-1.624-.392-1.89 0-3.08 1.386-3.192 3.248.364-.602 1.19-1.176 2.394-1.176 1.792 0 3.108 1.12 3.108 3.094 0 1.946-1.582 3.094-3.36 3.094-1.736 0-3.542-1.204-3.542-4.2 0-3.374 2.03-5.292 4.676-5.292.826 0 1.54.21 1.96.504zm-5.04 5.894c0 1.19.966 1.904 1.96 1.904 1.064 0 1.96-.7 1.96-1.904 0-1.218-.91-1.918-1.96-1.918-1.05 0-1.96.7-1.96 1.918zm13.16-5.894l-.42 1.12c-.336-.196-.938-.392-1.624-.392-1.89 0-3.08 1.386-3.192 3.248.364-.602 1.19-1.176 2.394-1.176 1.792 0 3.108 1.12 3.108 3.094 0 1.946-1.582 3.094-3.36 3.094-1.736 0-3.542-1.204-3.542-4.2 0-3.374 2.03-5.292 4.676-5.292.826 0 1.54.21 1.96.504zm-5.04 5.894c0 1.19.966 1.904 1.96 1.904 1.064 0 1.96-.7 1.96-1.904 0-1.218-.91-1.918-1.96-1.918-1.05 0-1.96.7-1.96 1.918zm13.16-5.894l-.42 1.12c-.336-.196-.938-.392-1.624-.392-1.89 0-3.08 1.386-3.192 3.248.364-.602 1.19-1.176 2.394-1.176 1.792 0 3.108 1.12 3.108 3.094 0 1.946-1.582 3.094-3.36 3.094-1.736 0-3.542-1.204-3.542-4.2 0-3.374 2.03-5.292 4.676-5.292.826 0 1.54.21 1.96.504zm-5.04 5.894c0 1.19.966 1.904 1.96 1.904 1.064 0 1.96-.7 1.96-1.904 0-1.218-.91-1.918-1.96-1.918-1.05 0-1.96.7-1.96 1.918zm13.16-5.894l-.42 1.12c-.336-.196-.938-.392-1.624-.392-1.89 0-3.08 1.386-3.192 3.248.364-.602 1.19-1.176 2.394-1.176 1.792 0 3.108 1.12 3.108 3.094 0 1.946-1.582 3.094-3.36 3.094-1.736 0-3.542-1.204-3.542-4.2 0-3.374 2.03-5.292 4.676-5.292.826 0 1.54.21 1.96.504zm-5.04 5.894c0 1.19.966 1.904 1.96 1.904 1.064 0 1.96-.7 1.96-1.904 0-1.218-.91-1.918-1.96-1.918-1.05 0-1.96.7-1.96 1.918zm13.16-5.894l-.42 1.12c-.336-.196-.938-.392-1.624-.392-1.89 0-3.08 1.386-3.192 3.248.364-.602 1.19-1.176 2.394-1.176 1.792 0 3.108 1.12 3.108 3.094 0 1.946-1.582 3.094-3.36 3.094-1.736 0-3.542-1.204-3.542-4.2 0-3.374 2.03-5.292 4.676-5.292.826 0 1.54.21 1.96.504zm-5.04 5.894c0 1.19.966 1.904 1.96 1.904 1.064 0 1.96-.7 1.96-1.904 0-1.218-.91-1.918-1.96-1.918-1.05 0-1.96.7-1.96 1.918zm13.16-5.894l-.42 1.12c-.336-.196-.938-.392-1.624-.392-1.89 0-3.08 1.386-3.192 3.248.364-.602 1.19-1.176 2.394-1.176 1.792 0 3.108 1.12 3.108 3.094 0 1.946-1.582 3.094-3.36 3.094-1.736 0-3.542-1.204-3.542-4.2 0-3.374 2.03-5.292 4.676-5.292.826 0 1.54.21 1.96.504zm-5.04 5.894c0 1.19.966 1.904 1.96 1.904 1.064 0 1.96-.7 1.96-1.904 0-1.218-.91-1.918-1.96-1.918-1.05 0-1.96.7-1.96 1.918zM125.188 298h-1.344v-6.398h-2.198v-.966c1.26-.028 2.128-.728 2.338-1.708h1.204V298zm3.178-4.536c0 1.386.252 2.366.798 2.94.35.364.798.588 1.442.588.644 0 1.092-.224 1.442-.588.546-.574.798-1.554.798-2.94s-.252-2.366-.798-2.94c-.35-.364-.798-.588-1.442-.588-.644 0-1.092.224-1.442.588-.546.574-.798 1.554-.798 2.94zm-1.358 0c0-1.246.21-2.394.812-3.29.588-.882 1.498-1.456 2.786-1.456s2.198.574 2.786 1.456c.602.896.812 2.044.812 3.29s-.21 2.394-.812 3.29c-.588.882-1.498 1.456-2.786 1.456s-2.198-.574-2.786-1.456c-.602-.896-.812-2.044-.812-3.29zm9.884 0c0 1.386.252 2.366.798 2.94.35.364.798.588 1.442.588.644 0 1.092-.224 1.442-.588.546-.574.798-1.554.798-2.94s-.252-2.366-.798-2.94c-.35-.364-.798-.588-1.442-.588-.644 0-1.092.224-1.442.588-.546.574-.798 1.554-.798 2.94zm-1.358 0c0-1.246.21-2.394.812-3.29.588-.882 1.498-1.456 2.786-1.456s2.198.574 2.786 1.456c.602.896.812 2.044.812 3.29s-.21 2.394-.812 3.29c-.588.882-1.498 1.456-2.786 1.456s-2.198-.574-2.786-1.456c-.602-.896-.812-2.044-.812-3.29zm9.548-2.436c0 .644.476 1.106 1.078 1.106.616 0 1.078-.462 1.078-1.106 0-.63-.462-1.092-1.078-1.092-.602 0-1.078.462-1.078 1.092zm-1.162 0c0-1.232 1.036-2.198 2.24-2.198 1.204 0 2.254.966 2.254 2.198 0 1.246-1.05 2.212-2.254 2.212s-2.24-.966-2.24-2.212zm6.706 4.872c0 .644.476 1.106 1.078 1.106.616 0 1.078-.462 1.078-1.106 0-.63-.462-1.092-1.078-1.092-.602 0-1.078.462-1.078 1.092zm-1.162 0c0-1.232 1.036-2.198 2.24-2.198 1.204 0 2.254.966 2.254 2.198 0 1.246-1.05 2.212-2.254 2.212s-2.24-.966-2.24-2.212zm-3.136 2.1h-1.288l6.524-9.072h1.26L146.328 298z"/>
    </g>
</svg>
