<svg xmlns="http://www.w3.org/2000/svg" xmlns:xlink="http://www.w3.org/1999/xlink" width="360" height="301" viewBox="0 0 360 301">
    <defs>
        <path id="b" d="M0 0h320v74.716H0z"/>
        <filter id="a" width="106.9%" height="129.4%" x="-3.4%" y="-16.1%" filterUnits="objectBoundingBox">
            <feOffset dy="-1" in="SourceAlpha" result="shadowOffsetOuter1"/>
            <feGaussianBlur in="shadowOffsetOuter1" result="shadowBlurOuter1" stdDeviation="3.5"/>
            <feColorMatrix in="shadowBlurOuter1" values="0 0 0 0 0 0 0 0 0 0 0 0 0 0 0 0 0 0 0.15 0"/>
        </filter>
    </defs>
    <g fill="none" fill-rule="evenodd" transform="translate(0 -.298)">
        <rect width="360" height="240" y=".298" fill="#F8F8F8" rx="4"/>
        <text fill="#000" fill-opacity=".38" font-family="CircularStd-Bold, Circular Std" font-size="14" font-weight="bold">
            <tspan x="0" y="262.298">Normal</tspan> <tspan x="0" y="280.298" font-family="CircularStd-Book, Circular Std" font-weight="300">Steps Font Size 16px, Color 000000 70% </tspan> <tspan x="0" y="298.298" font-family="CircularStd-Book, Circular Std" font-weight="300">Progress Bar Thickness 3px, Color 42b549 100%</tspan>
        </text>
        <g transform="translate(20 83.5)">
            <use fill="#000" filter="url(#a)" xlink:href="#b"/>
            <use fill="#FFF" xlink:href="#b"/>
        </g>
        <path fill="#F1F1F1" d="M20 158.216h320V155.5H20z"/>
        <path fill="#42B549" d="M20 158.216h107V155.5H20z"/>
        <path fill="#000" fill-opacity=".7" d="M74.945 135.5v-9.71h-.125l-.433.312c-.29.208-.623.45-1 .726l-1 .727-.434.312v-1.484l.453-.324 1.047-.754c.396-.287.745-.538 1.047-.754l.453-.324h1.399V135.5h-1.407zm12.125.148c-1.198 0-2.144-.389-2.84-1.168-.695-.778-1.043-1.842-1.043-3.19 0-1.355.348-2.42 1.043-3.196.696-.776 1.642-1.164 2.84-1.164s2.145.388 2.84 1.164c.695.776 1.043 1.84 1.043 3.195 0 1.349-.348 2.413-1.043 3.191-.695.78-1.642 1.168-2.84 1.168zm0-1.21c.797 0 1.412-.277 1.844-.829.432-.552.648-1.325.648-2.32 0-1-.216-1.775-.648-2.324-.432-.55-1.047-.824-1.844-.824-.797 0-1.411.274-1.843.824-.433.55-.649 1.324-.649 2.324 0 .995.216 1.768.649 2.32.432.552 1.046.828 1.843.828zm6.243 1.062v-7.297h-1.399v-1.125h1.398v-.937c0-.839.208-1.463.622-1.871.414-.41 1.022-.614 1.824-.614.166 0 .324.007.472.02.149.013.293.032.434.058v1.094a2.136 2.136 0 0 0-.289-.031 7.237 7.237 0 0 0-.344-.008c-.484 0-.834.116-1.05.348-.217.231-.325.58-.325 1.043v.898h1.93v1.125h-1.93v7.297h-1.344zm11.414-5.195v-1.203h1.367c.64 0 1.165-.188 1.574-.563.409-.375.613-.854.613-1.437 0-.573-.198-1.036-.594-1.387-.395-.352-.919-.528-1.57-.528-.646 0-1.17.171-1.574.512-.404.341-.634.814-.691 1.418h-1.368c.073-.979.438-1.75 1.094-2.312.656-.563 1.521-.844 2.594-.844.984 0 1.82.286 2.508.86.687.572 1.03 1.27 1.03 2.093 0 .672-.174 1.24-.522 1.703-.35.464-.834.771-1.454.922v.125c.766.099 1.368.397 1.805.895.438.497.656 1.131.656 1.902 0 .927-.382 1.71-1.148 2.348-.766.638-1.706.957-2.82.957-1.146 0-2.081-.293-2.805-.88-.724-.585-1.112-1.36-1.164-2.324h1.36c.062.6.329 1.079.8 1.438.471.36 1.069.54 1.793.54.745 0 1.354-.2 1.828-.599.474-.398.711-.905.711-1.52 0-.65-.232-1.166-.695-1.546-.464-.38-1.097-.57-1.899-.57h-1.43zm11.257 2.25h1.422c.089.588.393 1.057.914 1.406s1.183.523 1.985.523c.76 0 1.389-.183 1.886-.55.498-.368.746-.83.746-1.387 0-.48-.182-.878-.546-1.195-.365-.318-.935-.573-1.711-.766l-1.446-.375c-1.02-.26-1.763-.632-2.226-1.113-.464-.482-.695-1.124-.695-1.926 0-.958.365-1.733 1.097-2.324.732-.591 1.694-.887 2.887-.887 1.088 0 2 .292 2.734.875.735.583 1.13 1.33 1.188 2.242h-1.414c-.1-.578-.374-1.03-.825-1.355-.45-.326-1.027-.489-1.73-.489-.75 0-1.353.172-1.809.516a1.636 1.636 0 0 0-.683 1.375c0 .443.168.802.504 1.078.336.276.892.513 1.668.711l1.18.313c1.166.291 2.003.682 2.511 1.171.508.49.762 1.149.762 1.977 0 1.036-.38 1.86-1.137 2.473-.758.612-1.782.918-3.074.918-1.193 0-2.17-.292-2.934-.875-.763-.584-1.18-1.362-1.254-2.336zm10.813-7.657h1.344v2.18h1.875v1.125h-1.875v4.766c0 .495.099.854.297 1.078.197.224.515.336.953.336.12 0 .222-.003.308-.008s.192-.013.317-.023v1.132a4.041 4.041 0 0 1-.79.078c-.864 0-1.485-.174-1.863-.523-.377-.349-.566-.924-.566-1.726v-5.11h-1.36v-1.125h1.36v-2.18zm8.18 3.22c-.672 0-1.224.226-1.657.679-.432.453-.674 1.052-.726 1.797h4.64c-.015-.745-.229-1.344-.64-1.797-.412-.453-.95-.68-1.617-.68zm2.218 5.202h1.344a2.946 2.946 0 0 1-1.234 1.707c-.62.414-1.39.621-2.313.621-1.166 0-2.091-.391-2.773-1.175-.683-.784-1.024-1.843-1.024-3.176 0-1.323.344-2.382 1.032-3.176.687-.794 1.609-1.191 2.765-1.191 1.136 0 2.029.379 2.68 1.136.65.758.976 1.79.976 3.098v.516h-6.054v.062c.036.834.272 1.495.707 1.985.435.49 1.009.734 1.722.734.542 0 .995-.098 1.36-.293.364-.195.635-.478.812-.848zm7.352-6.39c1.073 0 1.93.396 2.574 1.187.643.792.965 1.85.965 3.172 0 1.318-.322 2.374-.965 3.168s-1.501 1.191-2.574 1.191c-.6 0-1.13-.125-1.594-.375a2.44 2.44 0 0 1-1.039-1.039h-.125v4.078h-1.344v-11.234h1.282v1.406h.125c.27-.484.644-.864 1.12-1.14a3.084 3.084 0 0 1 1.575-.414zm-.32 7.507c.776 0 1.381-.278 1.816-.835.435-.558.652-1.329.652-2.313 0-.984-.217-1.755-.652-2.312-.435-.558-1.038-.836-1.809-.836-.76 0-1.364.282-1.812.847-.448.565-.672 1.332-.672 2.301 0 .964.224 1.73.672 2.297.448.568 1.05.851 1.805.851zm5.46-5.054c0-.698.3-1.281.899-1.75.599-.469 1.346-.703 2.242-.703.886 0 1.613.203 2.184.61.57.405.9.955.988 1.647h-1.328a1.349 1.349 0 0 0-.61-.812c-.317-.203-.731-.305-1.242-.305-.5 0-.922.116-1.265.348-.344.232-.516.535-.516.91 0 .287.12.525.36.715.239.19.606.345 1.101.465l1.297.312c.792.193 1.381.47 1.77.832.387.362.581.845.581 1.45 0 .755-.322 1.368-.968 1.84-.646.47-1.448.706-2.407.706-.937 0-1.705-.208-2.304-.625-.6-.416-.935-.974-1.008-1.671h1.383c.114.354.338.636.672.847.333.211.768.317 1.304.317.568 0 1.034-.123 1.399-.368.364-.244.547-.56.547-.945a.934.934 0 0 0-.332-.73c-.222-.196-.556-.348-1.004-.457l-1.446-.352c-.786-.193-1.366-.469-1.738-.828-.372-.36-.559-.844-.559-1.453z"/>
        <path fill="#666" d="M44.85 122.5L36 131.02l8.719 8.48 2.016-2.047-6.701-6.518L47 124.591z"/>
        <path fill="#FFF" d="M167.9 99.193c-1.435 0-2.502-.85-2.771-2.209h1.084c.228.791.867 1.272 1.7 1.272 1.376 0 2.155-1.219 2.214-3.469h-.094c-.416.82-1.242 1.3-2.25 1.3-1.611 0-2.777-1.189-2.777-2.83 0-1.698 1.23-2.911 2.965-2.911 1.265 0 2.244.674 2.771 1.922.276.644.41 1.423.41 2.355 0 2.906-1.183 4.57-3.252 4.57zm.07-4.02c1.12 0 1.923-.796 1.923-1.915 0-1.131-.827-1.987-1.91-1.987-1.085 0-1.91.844-1.91 1.952 0 1.154.779 1.95 1.898 1.95zm5.714 2.86a.764.764 0 0 0 .761-.762.76.76 0 0 0-.761-.761.764.764 0 0 0-.762.761c0 .417.346.762.762.762zm0-4.506a.764.764 0 0 0 .761-.761.76.76 0 0 0-.761-.762.764.764 0 0 0-.762.762c0 .416.346.761.762.761zM180.27 99v-1.752h-4.12v-.96c.756-1.343 2.098-3.464 3.621-5.743h1.53v5.76h1.201v.943h-1.201V99h-1.031zm-3.041-2.76v.07h3.046v-4.787h-.07c-.867 1.26-1.969 3.006-2.976 4.717zm8.923 2.76h1.055v-8.455h-1.049l-2.25 1.617v1.113l2.15-1.558h.094V99zm12.592 0l-.85-2.42h-3.363l-.85 2.42h-1.107l3.117-8.455h1.043L199.852 99h-1.108zm-2.578-7.09l-1.324 3.774h2.742l-1.324-3.774h-.094zm6.152 7.09v-6.457h.07l2.667 6.398h.89l2.666-6.398h.07V99h.985v-8.455h-1.225l-2.894 6.996h-.094l-2.894-6.996h-1.225V99h.984z"/>
        <g fill="#030303">
            <path d="M311.494 89h19.512c.82 0 1.494.674 1.494 1.505v6.49c0 .837-.669 1.505-1.494 1.505h-19.512c-.82 0-1.494-.674-1.494-1.505v-6.49c0-.837.669-1.505 1.494-1.505zM333 92h.75c.417 0 .75.332.75.742v2.016a.748.748 0 0 1-.75.742H333V92zm-21.492-2.5c-.557 0-1.008.457-1.008 1.008v6.484c0 .557.45 1.008 1.008 1.008h19.484c.557 0 1.008-.457 1.008-1.008v-6.484c0-.557-.45-1.008-1.008-1.008h-19.484zm-.001.5h19.486c.277 0 .507.22.507.492v6.516a.497.497 0 0 1-.507.492h-19.486a.502.502 0 0 1-.507-.492v-6.516c0-.276.227-.492.507-.492zM279.818 99h1.055v-8.455h-1.049l-2.25 1.617v1.113l2.15-1.558h.094V99zm6.416.2c-1.904 0-3-1.618-3-4.43 0-2.79 1.108-4.424 3-4.424 1.881 0 2.989 1.64 2.989 4.441 0 2.807-1.09 4.412-2.989 4.412zm0-.92c1.248 0 1.928-1.243 1.928-3.51 0-2.245-.691-3.499-1.928-3.499-1.236 0-1.94 1.266-1.94 3.499 0 2.261.692 3.51 1.94 3.51zm7.559.92c-1.904 0-3-1.618-3-4.43 0-2.79 1.107-4.424 3-4.424 1.88 0 2.988 1.64 2.988 4.441 0 2.807-1.09 4.412-2.988 4.412zm0-.92c1.248 0 1.928-1.243 1.928-3.51 0-2.245-.692-3.499-1.928-3.499s-1.94 1.266-1.94 3.499c0 2.261.692 3.51 1.94 3.51zm10.94.116c.515 0 .86-.515.86-1.289 0-.79-.333-1.283-.86-1.283-.528 0-.868.504-.868 1.283 0 .78.346 1.29.867 1.29zm0 .75c-1.055 0-1.805-.843-1.805-2.039 0-1.189.75-2.033 1.804-2.033 1.055 0 1.8.838 1.8 2.033 0 1.196-.745 2.04-1.8 2.04zm-4.893-4.675c-1.055 0-1.805-.844-1.805-2.04 0-1.189.75-2.033 1.805-2.033s1.799.838 1.799 2.034c0 1.195-.744 2.039-1.8 2.039zM299.746 99h-1.078l3.228-4.406 2.965-4.05h1.067l-3.282 4.49-2.9 3.966zm.094-5.28c.515 0 .861-.515.861-1.288 0-.791-.334-1.284-.861-1.284-.527 0-.867.504-.867 1.284 0 .779.345 1.289.867 1.289z"/>
        </g>
        <path fill="#030303" d="M167.9 99.193c-1.435 0-2.502-.85-2.771-2.209h1.084c.228.791.867 1.272 1.7 1.272 1.376 0 2.155-1.219 2.214-3.469h-.094c-.416.82-1.242 1.3-2.25 1.3-1.611 0-2.777-1.189-2.777-2.83 0-1.698 1.23-2.911 2.965-2.911 1.265 0 2.244.674 2.771 1.922.276.644.41 1.423.41 2.355 0 2.906-1.183 4.57-3.252 4.57zm.07-4.02c1.12 0 1.923-.796 1.923-1.915 0-1.131-.827-1.987-1.91-1.987-1.085 0-1.91.844-1.91 1.952 0 1.154.779 1.95 1.898 1.95zm5.714 2.86a.764.764 0 0 0 .761-.762.76.76 0 0 0-.761-.761.764.764 0 0 0-.762.761c0 .417.346.762.762.762zm0-4.506a.764.764 0 0 0 .761-.761.76.76 0 0 0-.761-.762.764.764 0 0 0-.762.762c0 .416.346.761.762.761zM180.27 99v-1.752h-4.12v-.96c.756-1.343 2.098-3.464 3.621-5.743h1.53v5.76h1.201v.943h-1.201V99h-1.031zm-3.041-2.76v.07h3.046v-4.787h-.07c-.867 1.26-1.969 3.006-2.976 4.717zm8.923 2.76h1.055v-8.455h-1.049l-2.25 1.617v1.113l2.15-1.558h.094V99zm12.592 0l-.85-2.42h-3.363l-.85 2.42h-1.107l3.117-8.455h1.043L199.852 99h-1.108zm-2.578-7.09l-1.324 3.774h2.742l-1.324-3.774h-.094zm6.152 7.09v-6.457h.07l2.667 6.398h.89l2.666-6.398h.07V99h.985v-8.455h-1.225l-2.894 6.996h-.094l-2.894-6.996h-1.225V99h.984z"/>
        <g fill="#030303">
            <path d="M116.144 95.939L114.023 98l-2.163-2.095a2.857 2.857 0 0 1 2.128-.936c.864 0 1.638.376 2.156.97zm2.18-2.118l-1.09 1.058a4.417 4.417 0 0 0-3.246-1.402c-1.274 0-2.42.528-3.219 1.372l-1.09-1.056a5.979 5.979 0 0 1 4.309-1.809c1.713 0 3.257.708 4.335 1.837zm2.176-2.114l-1.088 1.057a7.539 7.539 0 0 0-5.424-2.272 7.54 7.54 0 0 0-5.398 2.245l-1.09-1.055A9.1 9.1 0 0 1 113.988 89a9.1 9.1 0 0 1 6.512 2.707zM64.674 96.791c.111 1.459 1.347 2.408 3.14 2.408 1.934 0 3.159-.99 3.159-2.543 0-1.242-.703-1.922-2.455-2.361l-.885-.234c-1.166-.3-1.63-.68-1.63-1.342 0-.856.745-1.418 1.87-1.418 1.055 0 1.77.515 1.916 1.383h1.06c-.087-1.366-1.306-2.338-2.94-2.338-1.788 0-2.99.972-2.99 2.408 0 1.201.663 1.892 2.192 2.28l1.084.28c1.166.293 1.694.75 1.694 1.471 0 .838-.838 1.453-1.975 1.453-1.201 0-2.045-.562-2.174-1.447h-1.066zm9.082-1.348h-.094v-5.267h-1.008V99h1.008v-2.396l.604-.563L76.633 99h1.283l-2.9-3.61 2.718-2.706h-1.236l-2.742 2.76zm7.875-1.98c-1.008 0-1.711.738-1.787 1.857h3.48c-.023-1.119-.691-1.857-1.693-1.857zm1.664 3.902h1.008c-.305 1.084-1.278 1.746-2.66 1.746-1.752 0-2.848-1.265-2.848-3.263 0-1.987 1.113-3.276 2.848-3.276 1.705 0 2.742 1.213 2.742 3.176v.387h-4.541v.047c.052 1.248.75 2.039 1.822 2.039.814 0 1.365-.3 1.629-.856zm3.094-6.316v1.635h-1.02v.843h1.02v3.832c0 1.207.521 1.688 1.822 1.688.2 0 .393-.024.592-.059v-.85a4.256 4.256 0 0 1-.469.024c-.656 0-.938-.316-.938-1.06v-3.575h1.407v-.843h-1.407v-1.635H86.39zm9.164 3.568c-.176-1.125-1.114-2.045-2.649-2.045-1.77 0-2.894 1.278-2.894 3.246 0 2.01 1.13 3.293 2.9 3.293 1.518 0 2.461-.855 2.643-2.015h-1.02c-.187.715-.78 1.107-1.629 1.107-1.125 0-1.851-.926-1.851-2.385 0-1.43.715-2.338 1.851-2.338.909 0 1.465.51 1.63 1.137h1.019zM97.1 99h1.007v-3.738c0-1.067.622-1.782 1.752-1.782.955 0 1.46.557 1.46 1.676V99h1.007v-4.09c0-1.482-.844-2.338-2.18-2.338-.966 0-1.628.41-1.945 1.108h-.094v-3.504H97.1V99zM29.25 96.5a2.75 2.75 0 1 1 0-5.5 2.75 2.75 0 0 1 0 5.5zm7 0a2.75 2.75 0 1 1 0-5.5 2.75 2.75 0 0 1 0 5.5zm7 0a2.75 2.75 0 1 1 0-5.5 2.75 2.75 0 0 1 0 5.5zm7 0a2.75 2.75 0 1 1 0-5.5 2.75 2.75 0 0 1 0 5.5zm7 0a2.75 2.75 0 1 1 0-5.5 2.75 2.75 0 0 1 0 5.5z"/>
        </g>
    </g>
</svg>
