<svg xmlns="http://www.w3.org/2000/svg" width="458" height="290" viewBox="0 0 458 290">
    <g fill="none" fill-rule="evenodd">
        <rect width="458" height="290" fill="#F8F8F8" rx="4"/>
        <g transform="translate(69 109)">
            <path fill="#FFF" d="M0 0h320v71.873H0z"/>
            <rect width="145" height="3" y="69" fill="#42B549" rx="1.5"/>
            <path fill="#DBDBDB" d="M24.85 38.931L16 47.437l8.719 8.464 2.016-2.043-6.701-6.506L27 41.019z"/>
            <path fill="#FFF" d="M147.9 15.685c-1.435 0-2.502-.85-2.771-2.21h1.084c.228.792.867 1.272 1.7 1.272 1.376 0 2.155-1.219 2.214-3.469h-.094c-.416.82-1.242 1.301-2.25 1.301-1.611 0-2.777-1.19-2.777-2.83 0-1.7 1.23-2.912 2.965-2.912 1.265 0 2.244.674 2.771 1.922.276.644.41 1.424.41 2.355 0 2.906-1.183 4.57-3.252 4.57zm.07-4.02c1.12 0 1.923-.797 1.923-1.916 0-1.13-.827-1.986-1.91-1.986-1.085 0-1.91.843-1.91 1.95 0 1.155.779 1.952 1.898 1.952zm5.714 2.86a.764.764 0 0 0 .761-.762.76.76 0 0 0-.761-.762.764.764 0 0 0-.762.762c0 .416.346.761.762.761zm0-4.506a.764.764 0 0 0 .761-.762.76.76 0 0 0-.761-.762.764.764 0 0 0-.762.762c0 .416.346.762.762.762zm6.586 5.472V13.74h-4.12v-.96c.756-1.342 2.098-3.464 3.621-5.743h1.53v5.76h1.201v.943h-1.201v1.752h-1.031zm-3.041-2.76v.07h3.046V8.016h-.07c-.867 1.26-1.969 3.005-2.976 4.716zm8.923 2.76h1.055V7.036h-1.049l-2.25 1.617v1.114l2.15-1.559h.094v7.283zm12.592 0l-.85-2.42h-3.363l-.85 2.42h-1.107l3.117-8.455h1.043l3.118 8.455h-1.108zm-2.578-7.09l-1.324 3.774h2.742L176.26 8.4h-.094zm6.152 7.09V9.034h.07l2.667 6.399h.89l2.666-6.399h.07v6.457h.985V7.036h-1.225l-2.894 6.996h-.094l-2.894-6.996h-1.225v8.455h.984z"/>
            <path fill="#DBDBDB" d="M291.494 5.491h19.512c.82 0 1.494.674 1.494 1.506v6.489c0 .837-.669 1.505-1.494 1.505h-19.512c-.82 0-1.494-.674-1.494-1.505v-6.49c0-.837.669-1.505 1.494-1.505zm21.506 3h.75c.417 0 .75.333.75.742v2.016a.748.748 0 0 1-.75.742H313v-3.5zm-21.492-2.5c-.557 0-1.008.457-1.008 1.009v6.483c0 .557.45 1.008 1.008 1.008h19.484c.557 0 1.008-.457 1.008-1.008V7c0-.557-.45-1.009-1.008-1.009h-19.484zm-.001.5h19.486c.277 0 .507.22.507.492V13.5a.497.497 0 0 1-.507.492h-19.486A.502.502 0 0 1 291 13.5V6.983c0-.275.227-.492.507-.492zM9.25 12.991a2.75 2.75 0 1 1 0-5.5 2.75 2.75 0 0 1 0 5.5zm7 0a2.75 2.75 0 1 1 0-5.5 2.75 2.75 0 0 1 0 5.5zm7 0a2.75 2.75 0 1 1 0-5.5 2.75 2.75 0 0 1 0 5.5zm7 0a2.75 2.75 0 1 1 0-5.5 2.75 2.75 0 0 1 0 5.5zm7 0a2.75 2.75 0 1 1 0-5.5 2.75 2.75 0 0 1 0 5.5z"/>
            <rect width="132" height="5.989" x="52.434" y="43.175" fill="#DBDBDB" rx="2.995"/>
        </g>
    </g>
</svg>
