<svg xmlns="http://www.w3.org/2000/svg" xmlns:xlink="http://www.w3.org/1999/xlink" width="360" height="319" viewBox="0 0 360 319">
    <defs>
        <path id="b" d="M0 0h320v72H0z"/>
        <filter id="a" width="106.9%" height="130.6%" x="-3.4%" y="-16.7%" filterUnits="objectBoundingBox">
            <feOffset dy="-1" in="SourceAlpha" result="shadowOffsetOuter1"/>
            <feGaussianBlur in="shadowOffsetOuter1" result="shadowBlurOuter1" stdDeviation="3.5"/>
            <feColorMatrix in="shadowBlurOuter1" values="0 0 0 0 0 0 0 0 0 0 0 0 0 0 0 0 0 0 0.15 0"/>
        </filter>
    </defs>
    <g fill="none" fill-rule="evenodd" transform="translate(0 -.298)">
        <text fill="#000" fill-opacity=".38" font-family="CircularStd-Bold, Circular Std" font-size="14" font-weight="bold">
            <tspan x="0" y="262.298">For Extra Information </tspan> <tspan x="0" y="280.298" font-family="CircularStd-Book, Circular Std" font-weight="300">Steps Font Size 16px, Color 000000 70%</tspan> <tspan x="0" y="298.298" font-family="CircularStd-Book, Circular Std" font-weight="300">Extra Information Font Size 11px, Color 000000 38%</tspan> <tspan x="0" y="316.298" font-family="CircularStd-Book, Circular Std" font-weight="300">Progress Bar Thickness 3px, Color 42b549 100%</tspan>
        </text>
        <rect width="360" height="240" y=".298" fill="#F8F8F8" rx="4"/>
        <g transform="translate(20 83.5)">
            <use fill="#000" filter="url(#a)" xlink:href="#b"/>
            <use fill="#FFF" xlink:href="#b"/>
        </g>
        <path fill="#000" fill-opacity=".7" d="M72.18 121.398c0-1 .34-1.822 1.02-2.468.679-.646 1.542-.97 2.59-.97 1.01 0 1.857.304 2.542.911.685.607 1.027 1.358 1.027 2.254 0 .583-.165 1.159-.496 1.727-.33.567-.96 1.349-1.886 2.343l-2.711 2.914v.125h5.28v1.266H72.25v-.969l3.898-4.258c.73-.791 1.213-1.391 1.45-1.8a2.54 2.54 0 0 0 .355-1.293c0-.563-.212-1.035-.637-1.418-.424-.383-.946-.575-1.566-.575-.661 0-1.195.202-1.602.606-.406.404-.609.939-.609 1.605v.008h-1.36v-.008zm17.093 8.25c-1.197 0-2.144-.389-2.84-1.168-.695-.778-1.042-1.842-1.042-3.19 0-1.355.347-2.42 1.043-3.196.695-.776 1.642-1.164 2.84-1.164 1.197 0 2.144.388 2.84 1.164.695.776 1.042 1.84 1.042 3.195 0 1.349-.347 2.413-1.043 3.191-.695.78-1.642 1.168-2.84 1.168zm0-1.21c.797 0 1.412-.277 1.844-.829.432-.552.649-1.325.649-2.32 0-1-.217-1.775-.649-2.324-.432-.55-1.047-.824-1.844-.824-.796 0-1.411.274-1.843.824-.433.55-.649 1.324-.649 2.324 0 .995.216 1.768.649 2.32.432.552 1.047.829 1.843.829zm6.243 1.062v-7.297h-1.399v-1.125h1.399v-.937c0-.839.207-1.463.62-1.871.415-.41 1.023-.614 1.825-.614.167 0 .324.007.473.02.148.013.293.032.433.058v1.094a2.136 2.136 0 0 0-.289-.031 7.237 7.237 0 0 0-.344-.008c-.484 0-.834.116-1.05.348-.217.231-.325.58-.325 1.043v.898h1.93v1.125h-1.93v7.297h-1.343zm11.414-5.195v-1.203h1.367c.64 0 1.165-.188 1.574-.563.409-.375.613-.854.613-1.437 0-.573-.198-1.036-.593-1.387-.396-.352-.92-.528-1.57-.528-.647 0-1.171.171-1.575.512-.404.341-.634.814-.691 1.418h-1.368c.073-.979.438-1.75 1.094-2.312.657-.563 1.521-.844 2.594-.844.984 0 1.82.286 2.508.86.687.572 1.031 1.27 1.031 2.093 0 .672-.174 1.24-.523 1.703-.35.464-.834.771-1.454.922v.125c.766.099 1.368.397 1.805.895.438.497.656 1.131.656 1.902 0 .927-.382 1.71-1.148 2.348-.766.638-1.706.957-2.82.957-1.146 0-2.081-.293-2.805-.88-.724-.585-1.112-1.36-1.164-2.324h1.36c.062.6.329 1.079.8 1.438.471.36 1.07.54 1.793.54.745 0 1.354-.2 1.828-.599.474-.398.711-.905.711-1.52 0-.65-.232-1.166-.695-1.546-.464-.38-1.097-.57-1.899-.57h-1.43zm11.257 2.25h1.422c.089.588.394 1.057.914 1.406.521.349 1.183.523 1.985.523.76 0 1.39-.183 1.887-.55.497-.368.746-.83.746-1.387 0-.48-.183-.878-.547-1.195-.365-.318-.935-.573-1.711-.766l-1.445-.375c-1.021-.26-1.764-.632-2.227-1.113-.464-.482-.695-1.124-.695-1.926 0-.958.366-1.733 1.097-2.324.732-.591 1.694-.887 2.887-.887 1.089 0 2 .292 2.734.875.735.583 1.13 1.33 1.188 2.242h-1.414c-.1-.578-.374-1.03-.824-1.355-.45-.326-1.028-.489-1.73-.489-.75 0-1.354.172-1.81.516a1.636 1.636 0 0 0-.683 1.375c0 .443.168.802.504 1.078.336.276.892.513 1.668.711l1.18.313c1.166.291 2.003.682 2.511 1.171.508.49.762 1.149.762 1.977 0 1.036-.379 1.86-1.137 2.473-.758.612-1.782.918-3.074.918-1.193 0-2.17-.292-2.934-.875-.763-.584-1.18-1.362-1.254-2.336zM129 118.898h1.344v2.18h1.875v1.125h-1.875v4.766c0 .495.099.854.297 1.078.198.224.515.336.953.336.12 0 .222-.003.308-.008s.192-.013.317-.023v1.132a4.041 4.041 0 0 1-.79.078c-.864 0-1.485-.174-1.863-.523-.377-.349-.566-.924-.566-1.726v-5.11h-1.36v-1.125H129v-2.18zm8.18 3.22c-.672 0-1.224.226-1.657.679-.432.453-.674 1.052-.726 1.797h4.64c-.015-.745-.229-1.344-.64-1.797-.412-.453-.95-.68-1.617-.68zm2.218 5.202h1.344a2.946 2.946 0 0 1-1.234 1.707c-.62.414-1.39.621-2.313.621-1.166 0-2.09-.391-2.773-1.175-.682-.784-1.024-1.843-1.024-3.176 0-1.323.344-2.382 1.032-3.176.687-.794 1.61-1.191 2.765-1.191 1.136 0 2.029.379 2.68 1.136.651.758.977 1.79.977 3.098v.516h-6.055v.062c.036.834.272 1.495.707 1.985.435.49 1.009.734 1.723.734.541 0 .994-.098 1.359-.293.365-.195.635-.478.812-.848zm7.352-6.39c1.073 0 1.931.396 2.574 1.187.643.792.965 1.85.965 3.172 0 1.318-.322 2.374-.965 3.168s-1.501 1.191-2.574 1.191c-.599 0-1.13-.125-1.594-.375a2.44 2.44 0 0 1-1.039-1.039h-.125v4.078h-1.344v-11.234h1.282v1.406h.125c.27-.484.644-.864 1.12-1.14a3.084 3.084 0 0 1 1.575-.414zm-.32 7.507c.776 0 1.381-.278 1.816-.835.435-.558.652-1.329.652-2.313 0-.984-.217-1.755-.652-2.312-.435-.558-1.038-.836-1.809-.836-.76 0-1.364.282-1.812.847-.448.565-.672 1.332-.672 2.301 0 .964.224 1.73.672 2.297.448.568 1.05.852 1.805.852zm5.46-5.054c0-.698.3-1.281.9-1.75.598-.469 1.345-.703 2.241-.703.886 0 1.614.203 2.184.61.57.405.9.955.988 1.647h-1.328a1.349 1.349 0 0 0-.61-.812c-.317-.203-.731-.305-1.242-.305-.5 0-.921.116-1.265.348-.344.232-.516.535-.516.91 0 .287.12.525.36.715.24.19.606.345 1.101.465l1.297.312c.792.193 1.382.47 1.77.832.388.362.582.845.582 1.45 0 .755-.323 1.368-.97 1.84-.645.47-1.447.706-2.405.706-.938 0-1.706-.208-2.305-.625-.6-.416-.935-.974-1.008-1.671h1.383c.114.354.338.636.672.847.333.211.768.317 1.304.317.568 0 1.034-.123 1.399-.368.364-.244.547-.56.547-.945a.934.934 0 0 0-.332-.73c-.222-.196-.556-.348-1.004-.457l-1.446-.352c-.786-.193-1.365-.469-1.738-.828-.372-.36-.558-.844-.558-1.453z"/>
        <path fill="#000" fill-opacity=".38" d="M74.964 144.5h-.967v-6.88H71.5v-.87h5.961v.87h-2.497v6.88zm3.85 0v-5.79h.925v5.79h-.924zm.463-6.966a.62.62 0 0 1-.454-.191.62.62 0 0 1-.19-.454c0-.179.063-.331.19-.456a.624.624 0 0 1 .454-.188c.179 0 .331.062.456.188a.622.622 0 0 1 .188.456.624.624 0 0 1-.188.454.617.617 0 0 1-.456.19zm2.675-.323h.923v1.499h1.29v.773h-1.29v3.277c0 .34.069.587.205.741.136.154.354.23.655.23.082 0 .153 0 .212-.004l.218-.017v.78a2.778 2.778 0 0 1-.543.053c-.594 0-1.021-.12-1.28-.36-.26-.24-.39-.635-.39-1.187v-3.513h-.935v-.773h.935v-1.499zm3.727 7.289v-8.089h.924v8.089h-.924zm5.092-5.076c-.462 0-.841.156-1.139.468-.297.311-.463.723-.5 1.235h3.191c-.01-.512-.157-.924-.44-1.235-.283-.312-.654-.468-1.112-.468zm1.525 3.577h.924c-.14.498-.422.89-.848 1.174-.427.285-.956.427-1.59.427-.802 0-1.438-.27-1.907-.808-.47-.54-.704-1.267-.704-2.184 0-.91.237-1.637.71-2.183.472-.546 1.106-.82 1.9-.82.781 0 1.395.261 1.843.782.448.521.671 1.231.671 2.13v.355h-4.162v.043c.025.572.187 1.027.486 1.364.299.336.694.505 1.184.505.373 0 .684-.067.935-.202.25-.134.437-.328.558-.583zm5.801-6.251h2.927c.734 0 1.332.233 1.792.7.46.468.69 1.07.69 1.808 0 .723-.234 1.317-.701 1.78-.467.464-1.064.696-1.791.696h-1.95v2.766h-.967v-7.75zm.967.859v3.266h1.708c.551 0 .98-.142 1.284-.425.304-.283.456-.68.456-1.192 0-.534-.15-.942-.448-1.225-.3-.283-.73-.424-1.292-.424h-1.708zm7.536 6.182c.476 0 .87-.139 1.184-.416.313-.278.47-.622.47-1.034v-.532l-1.558.102c-.845.057-1.267.373-1.267.945 0 .294.11.523.333.688.222.165.501.247.838.247zm-.172.811c-.562 0-1.029-.155-1.4-.465-.37-.31-.555-.73-.555-1.26 0-1.059.703-1.63 2.11-1.712l1.67-.103v-.526c0-.738-.436-1.106-1.31-1.106-.347 0-.635.062-.864.188a.859.859 0 0 0-.44.531h-.935c.06-.465.3-.838.72-1.12.418-.28.936-.421 1.552-.421.705 0 1.248.17 1.63.513.381.342.572.814.572 1.415v3.964h-.881v-.854h-.086a1.904 1.904 0 0 1-.741.709 2.174 2.174 0 0 1-1.042.247zm6.864-1.004c.537 0 .958-.19 1.262-.567.305-.378.457-.882.457-1.512s-.153-1.134-.46-1.512c-.306-.378-.725-.567-1.259-.567-.537 0-.95.19-1.24.567-.29.378-.436.882-.436 1.512s.145 1.134.435 1.512c.29.378.704.567 1.241.567zm.043 3.126c-.698 0-1.26-.144-1.684-.433-.424-.288-.672-.672-.744-1.152h.978c.05.236.2.425.45.567.252.141.585.212 1 .212.52 0 .925-.12 1.217-.363.291-.241.437-.575.437-1.001v-1.139h-.086a1.91 1.91 0 0 1-.746.739c-.315.173-.672.26-1.07.26-.747 0-1.34-.266-1.774-.798-.435-.531-.653-1.23-.653-2.097 0-.866.219-1.568.655-2.105.437-.538 1.028-.806 1.773-.806.405 0 .774.092 1.109.277.335.184.585.432.75.743h.085v-.918h.881v5.892c0 .648-.232 1.164-.695 1.547-.464.383-1.092.575-1.883.575zm6.692-7.3c-.462 0-.841.156-1.138.468-.298.311-.464.723-.5 1.235h3.19c-.01-.512-.157-.924-.44-1.235-.283-.312-.653-.468-1.112-.468zm1.526 3.577h.924c-.14.498-.423.89-.85 1.174-.425.285-.955.427-1.589.427-.802 0-1.438-.27-1.907-.808-.469-.54-.703-1.267-.703-2.184 0-.91.236-1.637.709-2.183.472-.546 1.106-.82 1.901-.82.78 0 1.395.261 1.842.782.448.521.672 1.231.672 2.13v.355h-4.163v.043c.025.572.187 1.027.486 1.364.3.336.694.505 1.185.505.372 0 .683-.067.934-.202.25-.134.437-.328.559-.583zm5.634 3.148h-.816l2.846-9.738h.817l-2.847 9.738zm11.865-2.52v.871h-4.802v-7.75h4.802v.87h-3.835v2.486h3.636v.86h-3.636v2.664h3.835zm3.749-1.315h-.086l-1.375 2.186h-1.048l1.982-2.895-2.003-2.895h1.101l1.375 2.154h.086l1.359-2.154h1.047l-1.966 2.857 1.993 2.933h-1.096l-1.37-2.186zm4.178-5.103h.924v1.499h1.29v.773h-1.29v3.277c0 .34.068.587.204.741.136.154.355.23.656.23.082 0 .153 0 .212-.004l.217-.017v.78a2.778 2.778 0 0 1-.542.053c-.595 0-1.021-.12-1.281-.36s-.39-.635-.39-1.187v-3.513h-.934v-.773h.934v-1.499zm3.674 7.289v-5.79h.881v.86h.086c.086-.284.28-.514.58-.694.301-.179.643-.268 1.026-.268a4.017 4.017 0 0 1 .462.027v.924a3.68 3.68 0 0 0-.59-.054c-.441 0-.805.132-1.091.397-.287.265-.43.602-.43 1.01v3.588h-.924zm6.037-.709c.477 0 .871-.139 1.185-.416.313-.278.47-.622.47-1.034v-.532l-1.558.102c-.845.057-1.267.373-1.267.945 0 .294.11.523.333.688.222.165.5.247.837.247zm-.171.811c-.563 0-1.029-.155-1.4-.465-.37-.31-.556-.73-.556-1.26 0-1.059.704-1.63 2.111-1.712l1.67-.103v-.526c0-.738-.436-1.106-1.31-1.106-.347 0-.635.062-.865.188a.859.859 0 0 0-.44.531h-.935c.061-.465.301-.838.72-1.12.42-.28.937-.421 1.552-.421.706 0 1.25.17 1.63.513.382.342.573.814.573 1.415v3.964h-.881v-.854h-.086a1.904 1.904 0 0 1-.741.709 2.174 2.174 0 0 1-1.042.247zm8.776-.102h-.967v-7.75h.967v7.75zm1.923 0v-5.79h.88v.913h.087a1.7 1.7 0 0 1 .647-.747c.284-.179.649-.268 1.093-.268.652 0 1.152.185 1.501.556.35.37.524.9.524 1.587v3.749h-.924v-3.523c0-.523-.112-.91-.336-1.16-.224-.251-.566-.377-1.028-.377-.462 0-.831.145-1.107.435-.276.29-.413.69-.413 1.198v3.427h-.924zm6.87 0v-5.017h-.962v-.773h.961v-.645c0-.576.143-1.005.427-1.286.285-.281.703-.422 1.255-.422.114 0 .222.005.325.014.102.009.2.022.298.04v.752a1.468 1.468 0 0 0-.2-.021 4.975 4.975 0 0 0-.235-.006c-.333 0-.574.08-.723.24-.148.159-.223.398-.223.716v.618h1.327v.773h-1.327v5.017h-.924zm5.795.102c-.824 0-1.475-.268-1.953-.803s-.717-1.267-.717-2.194c0-.931.24-1.663.717-2.197.478-.533 1.13-.8 1.953-.8.823 0 1.474.267 1.952.8.478.534.717 1.266.717 2.197 0 .927-.239 1.659-.717 2.194-.478.535-1.129.803-1.952.803zm0-.832c.548 0 .97-.19 1.267-.57.298-.38.446-.911.446-1.595 0-.688-.148-1.22-.446-1.598-.297-.378-.72-.567-1.267-.567-.548 0-.97.19-1.268.567-.297.378-.446.91-.446 1.598 0 .684.149 1.216.446 1.595.297.38.72.57 1.268.57zm4.184.73v-5.79h.88v.86h.087c.086-.284.279-.514.58-.694.3-.179.643-.268 1.026-.268a4.017 4.017 0 0 1 .462.027v.924a3.68 3.68 0 0 0-.59-.054c-.442 0-.805.132-1.092.397-.286.265-.43.602-.43 1.01v3.588h-.923zm4.361 0v-5.79h.881v.913h.086c.133-.322.338-.572.618-.75.279-.176.612-.265.999-.265.394 0 .726.094.996.282.27.188.472.432.604.733h.086a1.8 1.8 0 0 1 .704-.738 2.058 2.058 0 0 1 1.069-.277c.59 0 1.045.163 1.364.489.319.326.478.793.478 1.402v4.001h-.924v-3.787c0-.426-.101-.744-.303-.956-.203-.21-.508-.317-.916-.317-.401 0-.725.131-.972.393-.247.26-.37.576-.37.945v3.722h-.925v-3.932c0-.343-.11-.617-.33-.821-.22-.205-.513-.307-.878-.307-.38 0-.698.144-.956.43a1.502 1.502 0 0 0-.387 1.042v3.588h-.924zm11.42-.709c.475 0 .87-.139 1.183-.416.314-.278.47-.622.47-1.034v-.532l-1.557.102c-.845.057-1.268.373-1.268.945 0 .294.111.523.333.688.222.165.502.247.838.247zm-.173.811c-.562 0-1.028-.155-1.399-.465-.37-.31-.556-.73-.556-1.26 0-1.059.704-1.63 2.111-1.712l1.67-.103v-.526c0-.738-.436-1.106-1.31-1.106-.347 0-.636.062-.865.188a.859.859 0 0 0-.44.531h-.935c.061-.465.301-.838.72-1.12.419-.28.936-.421 1.552-.421.706 0 1.249.17 1.63.513.382.342.572.814.572 1.415v3.964h-.88v-.854h-.087a1.904 1.904 0 0 1-.74.709 2.174 2.174 0 0 1-1.043.247zm4.91-7.39h.923v1.498h1.29v.773h-1.29v3.277c0 .34.068.587.204.741.136.154.355.23.656.23.082 0 .153 0 .212-.004l.217-.017v.78a2.778 2.778 0 0 1-.542.053c-.595 0-1.022-.12-1.281-.36-.26-.24-.39-.635-.39-1.187v-3.513h-.934v-.773h.934v-1.499zm3.695 7.288v-5.79h.924v5.79h-.924zm.462-6.966a.62.62 0 0 1-.454-.191.62.62 0 0 1-.19-.454c0-.179.063-.331.19-.456a.624.624 0 0 1 .454-.188c.179 0 .33.062.456.188a.622.622 0 0 1 .188.456.624.624 0 0 1-.188.454.617.617 0 0 1-.456.19zm4.667 7.068c-.823 0-1.474-.268-1.952-.803s-.717-1.267-.717-2.194c0-.931.239-1.663.717-2.197.478-.533 1.129-.8 1.952-.8.824 0 1.475.267 1.953.8.478.534.717 1.266.717 2.197 0 .927-.24 1.659-.717 2.194-.478.535-1.13.803-1.953.803zm0-.832c.548 0 .97-.19 1.268-.57.297-.38.446-.911.446-1.595 0-.688-.149-1.22-.446-1.598-.297-.378-.72-.567-1.268-.567s-.97.19-1.267.567c-.298.378-.446.91-.446 1.598 0 .684.148 1.216.446 1.595.297.38.72.57 1.267.57zm4.184.73v-5.79h.881v.913h.086a1.7 1.7 0 0 1 .647-.747c.285-.179.65-.268 1.093-.268.652 0 1.152.185 1.502.556.349.37.523.9.523 1.587v3.749h-.924v-3.523c0-.523-.112-.91-.335-1.16-.224-.251-.567-.377-1.029-.377-.462 0-.83.145-1.106.435-.276.29-.414.69-.414 1.198v3.427h-.924z"/>
        <path fill="#666" d="M44.85 122.5L36 131.02l8.719 8.48 2.016-2.047-6.701-6.518L47 124.591z"/>
        <path fill="#FFF" d="M167.9 99.193c-1.435 0-2.502-.85-2.771-2.209h1.084c.228.791.867 1.272 1.7 1.272 1.376 0 2.155-1.219 2.214-3.469h-.094c-.416.82-1.242 1.3-2.25 1.3-1.611 0-2.777-1.189-2.777-2.83 0-1.698 1.23-2.911 2.965-2.911 1.265 0 2.244.674 2.771 1.922.276.644.41 1.423.41 2.355 0 2.906-1.183 4.57-3.252 4.57zm.07-4.02c1.12 0 1.923-.796 1.923-1.915 0-1.131-.827-1.987-1.91-1.987-1.085 0-1.91.844-1.91 1.952 0 1.154.779 1.95 1.898 1.95zm5.714 2.86a.764.764 0 0 0 .761-.762.76.76 0 0 0-.761-.761.764.764 0 0 0-.762.761c0 .417.346.762.762.762zm0-4.506a.764.764 0 0 0 .761-.761.76.76 0 0 0-.761-.762.764.764 0 0 0-.762.762c0 .416.346.761.762.761zM180.27 99v-1.752h-4.12v-.96c.756-1.343 2.098-3.464 3.621-5.743h1.53v5.76h1.201v.943h-1.201V99h-1.031zm-3.041-2.76v.07h3.046v-4.787h-.07c-.867 1.26-1.969 3.006-2.976 4.717zm8.923 2.76h1.055v-8.455h-1.049l-2.25 1.617v1.113l2.15-1.558h.094V99zm12.592 0l-.85-2.42h-3.363l-.85 2.42h-1.107l3.117-8.455h1.043L199.852 99h-1.108zm-2.578-7.09l-1.324 3.774h2.742l-1.324-3.774h-.094zm6.152 7.09v-6.457h.07l2.667 6.398h.89l2.666-6.398h.07V99h.985v-8.455h-1.225l-2.894 6.996h-.094l-2.894-6.996h-1.225V99h.984z"/>
        <path fill="#030303" d="M311.494 89h19.512c.82 0 1.494.674 1.494 1.505v6.49c0 .837-.669 1.505-1.494 1.505h-19.512c-.82 0-1.494-.674-1.494-1.505v-6.49c0-.837.669-1.505 1.494-1.505zM333 92h.75c.417 0 .75.332.75.742v2.016a.748.748 0 0 1-.75.742H333V92zm-21.492-2.5c-.557 0-1.008.457-1.008 1.008v6.484c0 .557.45 1.008 1.008 1.008h19.484c.557 0 1.008-.457 1.008-1.008v-6.484c0-.557-.45-1.008-1.008-1.008h-19.484zm-.001.5h19.486c.277 0 .507.22.507.492v6.516a.497.497 0 0 1-.507.492h-19.486a.502.502 0 0 1-.507-.492v-6.516c0-.276.227-.492.507-.492zM279.818 99h1.055v-8.455h-1.049l-2.25 1.617v1.113l2.15-1.558h.094V99zm6.416.2c-1.904 0-3-1.618-3-4.43 0-2.79 1.108-4.424 3-4.424 1.881 0 2.989 1.64 2.989 4.441 0 2.807-1.09 4.412-2.989 4.412zm0-.92c1.248 0 1.928-1.243 1.928-3.51 0-2.245-.691-3.499-1.928-3.499-1.236 0-1.94 1.266-1.94 3.499 0 2.261.692 3.51 1.94 3.51zm7.559.92c-1.904 0-3-1.618-3-4.43 0-2.79 1.107-4.424 3-4.424 1.88 0 2.988 1.64 2.988 4.441 0 2.807-1.09 4.412-2.988 4.412zm0-.92c1.248 0 1.928-1.243 1.928-3.51 0-2.245-.692-3.499-1.928-3.499s-1.94 1.266-1.94 3.499c0 2.261.692 3.51 1.94 3.51zm10.94.116c.515 0 .86-.515.86-1.289 0-.79-.333-1.283-.86-1.283-.528 0-.868.504-.868 1.283 0 .78.346 1.29.867 1.29zm0 .75c-1.055 0-1.805-.843-1.805-2.039 0-1.189.75-2.033 1.804-2.033 1.055 0 1.8.838 1.8 2.033 0 1.196-.745 2.04-1.8 2.04zm-4.893-4.675c-1.055 0-1.805-.844-1.805-2.04 0-1.189.75-2.033 1.805-2.033s1.799.838 1.799 2.034c0 1.195-.744 2.039-1.8 2.039zM299.746 99h-1.078l3.228-4.406 2.965-4.05h1.067l-3.282 4.49-2.9 3.966zm.094-5.28c.515 0 .861-.515.861-1.288 0-.791-.334-1.284-.861-1.284-.527 0-.867.504-.867 1.284 0 .779.345 1.289.867 1.289zM167.9 99.193c-1.435 0-2.502-.85-2.771-2.209h1.084c.228.791.867 1.272 1.7 1.272 1.376 0 2.155-1.219 2.214-3.469h-.094c-.416.82-1.242 1.3-2.25 1.3-1.611 0-2.777-1.189-2.777-2.83 0-1.698 1.23-2.911 2.965-2.911 1.265 0 2.244.674 2.771 1.922.276.644.41 1.423.41 2.355 0 2.906-1.183 4.57-3.252 4.57zm.07-4.02c1.12 0 1.923-.796 1.923-1.915 0-1.131-.827-1.987-1.91-1.987-1.085 0-1.91.844-1.91 1.952 0 1.154.779 1.95 1.898 1.95zm5.714 2.86a.764.764 0 0 0 .761-.762.76.76 0 0 0-.761-.761.764.764 0 0 0-.762.761c0 .417.346.762.762.762zm0-4.506a.764.764 0 0 0 .761-.761.76.76 0 0 0-.761-.762.764.764 0 0 0-.762.762c0 .416.346.761.762.761zM180.27 99v-1.752h-4.12v-.96c.756-1.343 2.098-3.464 3.621-5.743h1.53v5.76h1.201v.943h-1.201V99h-1.031zm-3.041-2.76v.07h3.046v-4.787h-.07c-.867 1.26-1.969 3.006-2.976 4.717zm8.923 2.76h1.055v-8.455h-1.049l-2.25 1.617v1.113l2.15-1.558h.094V99zm12.592 0l-.85-2.42h-3.363l-.85 2.42h-1.107l3.117-8.455h1.043L199.852 99h-1.108zm-2.578-7.09l-1.324 3.774h2.742l-1.324-3.774h-.094zm6.152 7.09v-6.457h.07l2.667 6.398h.89l2.666-6.398h.07V99h.985v-8.455h-1.225l-2.894 6.996h-.094l-2.894-6.996h-1.225V99h.984zM116.144 95.939L114.023 98l-2.163-2.095a2.857 2.857 0 0 1 2.128-.936c.864 0 1.638.376 2.156.97zm2.18-2.118l-1.09 1.058a4.417 4.417 0 0 0-3.246-1.402c-1.274 0-2.42.528-3.219 1.372l-1.09-1.056a5.979 5.979 0 0 1 4.309-1.809c1.713 0 3.257.708 4.335 1.837zm2.176-2.114l-1.088 1.057a7.539 7.539 0 0 0-5.424-2.272 7.54 7.54 0 0 0-5.398 2.245l-1.09-1.055A9.1 9.1 0 0 1 113.988 89a9.1 9.1 0 0 1 6.512 2.707zM64.674 96.791c.111 1.459 1.347 2.408 3.14 2.408 1.934 0 3.159-.99 3.159-2.543 0-1.242-.703-1.922-2.455-2.361l-.885-.234c-1.166-.3-1.63-.68-1.63-1.342 0-.856.745-1.418 1.87-1.418 1.055 0 1.77.515 1.916 1.383h1.06c-.087-1.366-1.306-2.338-2.94-2.338-1.788 0-2.99.972-2.99 2.408 0 1.201.663 1.892 2.192 2.28l1.084.28c1.166.293 1.694.75 1.694 1.471 0 .838-.838 1.453-1.975 1.453-1.201 0-2.045-.562-2.174-1.447h-1.066zm9.082-1.348h-.094v-5.267h-1.008V99h1.008v-2.396l.604-.563L76.633 99h1.283l-2.9-3.61 2.718-2.706h-1.236l-2.742 2.76zm7.875-1.98c-1.008 0-1.711.738-1.787 1.857h3.48c-.023-1.119-.691-1.857-1.693-1.857zm1.664 3.902h1.008c-.305 1.084-1.278 1.746-2.66 1.746-1.752 0-2.848-1.265-2.848-3.263 0-1.987 1.113-3.276 2.848-3.276 1.705 0 2.742 1.213 2.742 3.176v.387h-4.541v.047c.052 1.248.75 2.039 1.822 2.039.814 0 1.365-.3 1.629-.856zm3.094-6.316v1.635h-1.02v.843h1.02v3.832c0 1.207.521 1.688 1.822 1.688.2 0 .393-.024.592-.059v-.85a4.256 4.256 0 0 1-.469.024c-.656 0-.938-.316-.938-1.06v-3.575h1.407v-.843h-1.407v-1.635H86.39zm9.164 3.568c-.176-1.125-1.114-2.045-2.649-2.045-1.77 0-2.894 1.278-2.894 3.246 0 2.01 1.13 3.293 2.9 3.293 1.518 0 2.461-.855 2.643-2.015h-1.02c-.187.715-.78 1.107-1.629 1.107-1.125 0-1.851-.926-1.851-2.385 0-1.43.715-2.338 1.851-2.338.909 0 1.465.51 1.63 1.137h1.019zM97.1 99h1.007v-3.738c0-1.067.622-1.782 1.752-1.782.955 0 1.46.557 1.46 1.676V99h1.007v-4.09c0-1.482-.844-2.338-2.18-2.338-.966 0-1.628.41-1.945 1.108h-.094v-3.504H97.1V99zM29.25 96.5a2.75 2.75 0 1 1 0-5.5 2.75 2.75 0 0 1 0 5.5zm7 0a2.75 2.75 0 1 1 0-5.5 2.75 2.75 0 0 1 0 5.5zm7 0a2.75 2.75 0 1 1 0-5.5 2.75 2.75 0 0 1 0 5.5zm7 0a2.75 2.75 0 1 1 0-5.5 2.75 2.75 0 0 1 0 5.5zm7 0a2.75 2.75 0 1 1 0-5.5 2.75 2.75 0 0 1 0 5.5z"/>
        <path fill="#F1F1F1" d="M234 158.216h106V155.5H234z"/>
        <path fill="#42B549" d="M20 158.216h214V155.5H20z"/>
        <g transform="translate(20 163.298)">
            <path fill="#F50" d="M0 9h214v1H0z"/>
            <path fill="#F50" d="M0 7h1v5H0zM213 7h1v5h-1z"/>
            <rect width="121.166" height="36.178" x="45.417" y=".911" fill="#F50" rx="2"/>
            <path fill="#FFF" d="M63.964 16h-1.296l-3.012-8.568h1.224l2.448 7.428h.024l2.472-7.428h1.188L63.964 16zm8.628-.024c-.176.104-.42.156-.732.156-.264 0-.474-.074-.63-.222-.156-.148-.234-.39-.234-.726a2.44 2.44 0 0 1-.978.726 3.233 3.233 0 0 1-1.206.222 3.23 3.23 0 0 1-.798-.096 1.855 1.855 0 0 1-.654-.3 1.44 1.44 0 0 1-.438-.534 1.797 1.797 0 0 1-.162-.798c0-.352.06-.64.18-.864a1.57 1.57 0 0 1 .474-.546c.196-.14.42-.246.672-.318.252-.072.51-.132.774-.18.28-.056.546-.098.798-.126.252-.028.474-.068.666-.12a1.11 1.11 0 0 0 .456-.228c.112-.1.168-.246.168-.438 0-.224-.042-.404-.126-.54a.864.864 0 0 0-.324-.312 1.317 1.317 0 0 0-.444-.144 3.353 3.353 0 0 0-.486-.036c-.432 0-.792.082-1.08.246-.288.164-.444.474-.468.93H67c.016-.384.096-.708.24-.972a1.82 1.82 0 0 1 .576-.642c.24-.164.514-.282.822-.354.308-.072.638-.108.99-.108.28 0 .558.02.834.06.276.04.526.122.75.246.224.124.404.298.54.522.136.224.204.516.204.876v3.192c0 .24.014.416.042.528.028.112.122.168.282.168.088 0 .192-.02.312-.06v.792zm-1.656-3.18a1.27 1.27 0 0 1-.504.21 7.69 7.69 0 0 1-.654.108c-.228.028-.458.06-.69.096-.232.036-.44.094-.624.174-.184.08-.334.194-.45.342-.116.148-.174.35-.174.606 0 .168.034.31.102.426a.85.85 0 0 0 .264.282c.108.072.234.124.378.156s.296.048.456.048c.336 0 .624-.046.864-.138.24-.092.436-.208.588-.348.152-.14.264-.292.336-.456.072-.164.108-.318.108-.462v-1.044zm2.568-3h.96v1.308h.024c.248-.504.552-.876.912-1.116.36-.24.816-.352 1.368-.336v1.08c-.408 0-.756.056-1.044.168-.288.112-.52.276-.696.492a2.036 2.036 0 0 0-.384.786c-.08.308-.12.662-.12 1.062V16h-1.02V9.796zm5.112-1.116h-1.02V7.432h1.02V8.68zm-1.02 1.116h1.02V16h-1.02V9.796zm3.348 3.108c0 .376.05.71.15 1.002.1.292.238.536.414.732.176.196.382.346.618.45.236.104.486.156.75.156s.514-.052.75-.156c.236-.104.442-.254.618-.45s.314-.44.414-.732c.1-.292.15-.626.15-1.002s-.05-.71-.15-1.002a2.162 2.162 0 0 0-.414-.738 1.763 1.763 0 0 0-.618-.456 1.84 1.84 0 0 0-.75-.156 1.84 1.84 0 0 0-.75.156 1.763 1.763 0 0 0-.618.456c-.176.2-.314.446-.414.738-.1.292-.15.626-.15 1.002zm-1.08 0c0-.456.064-.882.192-1.278s.32-.74.576-1.032c.256-.292.572-.522.948-.69a3.148 3.148 0 0 1 1.296-.252c.496 0 .93.084 1.302.252.372.168.686.398.942.69.256.292.448.636.576 1.032.128.396.192.822.192 1.278 0 .456-.064.88-.192 1.272s-.32.734-.576 1.026c-.256.292-.57.52-.942.684-.372.164-.806.246-1.302.246-.488 0-.92-.082-1.296-.246a2.65 2.65 0 0 1-.948-.684 2.903 2.903 0 0 1-.576-1.026 4.075 4.075 0 0 1-.192-1.272zM92.224 16h-.96v-.984h-.024c-.216.384-.492.666-.828.846-.336.18-.732.27-1.188.27-.408 0-.748-.054-1.02-.162a1.626 1.626 0 0 1-.66-.462 1.739 1.739 0 0 1-.354-.714 3.84 3.84 0 0 1-.102-.918v-4.08h1.02v4.2c0 .384.112.688.336.912.224.224.532.336.924.336.312 0 .582-.048.81-.144.228-.096.418-.232.57-.408.152-.176.266-.382.342-.618.076-.236.114-.494.114-.774V9.796h1.02V16zm2.16-1.956c.008.224.06.414.156.57.096.156.222.28.378.372a1.7 1.7 0 0 0 .528.198c.196.04.398.06.606.06.16 0 .328-.012.504-.036.176-.024.338-.068.486-.132a.913.913 0 0 0 .366-.282.752.752 0 0 0 .144-.474c0-.264-.1-.464-.3-.6-.2-.136-.45-.246-.75-.33-.3-.084-.626-.16-.978-.228a5.074 5.074 0 0 1-.978-.288c-.3-.124-.55-.298-.75-.522-.2-.224-.3-.536-.3-.936 0-.312.07-.58.21-.804.14-.224.32-.406.54-.546.22-.14.468-.244.744-.312.276-.068.55-.102.822-.102.352 0 .676.03.972.09.296.06.558.164.786.312.228.148.41.348.546.6.136.252.216.566.24.942h-1.02a1.032 1.032 0 0 0-.156-.498 1.021 1.021 0 0 0-.336-.318 1.527 1.527 0 0 0-.45-.174 2.316 2.316 0 0 0-.498-.054c-.152 0-.306.012-.462.036a1.556 1.556 0 0 0-.426.126.858.858 0 0 0-.312.24c-.08.1-.12.23-.12.39 0 .176.062.322.186.438.124.116.282.212.474.288.192.076.408.14.648.192.24.052.48.106.72.162.256.056.506.124.75.204.244.08.46.186.648.318s.34.298.456.498c.116.2.174.448.174.744 0 .376-.078.688-.234.936-.156.248-.36.448-.612.6a2.558 2.558 0 0 1-.852.318c-.316.06-.63.09-.942.09-.344 0-.672-.036-.984-.108a2.414 2.414 0 0 1-.828-.354 1.805 1.805 0 0 1-.576-.648c-.144-.268-.224-.594-.24-.978h1.02zm8.748-6.612h1.02v3.204h.024c.168-.344.432-.594.792-.75.36-.156.756-.234 1.188-.234.48 0 .898.088 1.254.264.356.176.652.414.888.714s.414.646.534 1.038c.12.392.18.808.18 1.248 0 .44-.058.856-.174 1.248a2.938 2.938 0 0 1-.528 1.026 2.49 2.49 0 0 1-.888.69c-.356.168-.77.252-1.242.252a3.066 3.066 0 0 1-1.068-.204 2.18 2.18 0 0 1-.522-.294 1.643 1.643 0 0 1-.414-.462h-.024V16h-1.02V7.432zm4.8 5.412c0-.288-.038-.57-.114-.846a2.283 2.283 0 0 0-.348-.738 1.705 1.705 0 0 0-.6-.516 1.822 1.822 0 0 0-.858-.192c-.344 0-.636.068-.876.204-.24.136-.436.314-.588.534-.152.22-.262.47-.33.75a3.597 3.597 0 0 0 .006 1.734c.072.284.186.534.342.75.156.216.358.39.606.522s.548.198.9.198.646-.068.882-.204a1.64 1.64 0 0 0 .57-.54 2.35 2.35 0 0 0 .312-.768c.064-.288.096-.584.096-.888zm7.776 3.132c-.176.104-.42.156-.732.156-.264 0-.474-.074-.63-.222-.156-.148-.234-.39-.234-.726a2.44 2.44 0 0 1-.978.726 3.233 3.233 0 0 1-1.206.222 3.23 3.23 0 0 1-.798-.096 1.855 1.855 0 0 1-.654-.3 1.44 1.44 0 0 1-.438-.534 1.797 1.797 0 0 1-.162-.798c0-.352.06-.64.18-.864a1.57 1.57 0 0 1 .474-.546c.196-.14.42-.246.672-.318.252-.072.51-.132.774-.18.28-.056.546-.098.798-.126.252-.028.474-.068.666-.12a1.11 1.11 0 0 0 .456-.228c.112-.1.168-.246.168-.438 0-.224-.042-.404-.126-.54a.864.864 0 0 0-.324-.312 1.317 1.317 0 0 0-.444-.144 3.353 3.353 0 0 0-.486-.036c-.432 0-.792.082-1.08.246-.288.164-.444.474-.468.93h-1.02c.016-.384.096-.708.24-.972a1.82 1.82 0 0 1 .576-.642c.24-.164.514-.282.822-.354.308-.072.638-.108.99-.108.28 0 .558.02.834.06.276.04.526.122.75.246.224.124.404.298.54.522.136.224.204.516.204.876v3.192c0 .24.014.416.042.528.028.112.122.168.282.168.088 0 .192-.02.312-.06v.792zm-1.656-3.18a1.27 1.27 0 0 1-.504.21 7.69 7.69 0 0 1-.654.108c-.228.028-.458.06-.69.096-.232.036-.44.094-.624.174-.184.08-.334.194-.45.342-.116.148-.174.35-.174.606 0 .168.034.31.102.426a.85.85 0 0 0 .264.282c.108.072.234.124.378.156s.296.048.456.048c.336 0 .624-.046.864-.138.24-.092.436-.208.588-.348.152-.14.264-.292.336-.456.072-.164.108-.318.108-.462v-1.044zm3.228 1.248c.008.224.06.414.156.57.096.156.222.28.378.372a1.7 1.7 0 0 0 .528.198c.196.04.398.06.606.06.16 0 .328-.012.504-.036.176-.024.338-.068.486-.132a.913.913 0 0 0 .366-.282.752.752 0 0 0 .144-.474c0-.264-.1-.464-.3-.6-.2-.136-.45-.246-.75-.33-.3-.084-.626-.16-.978-.228a5.074 5.074 0 0 1-.978-.288c-.3-.124-.55-.298-.75-.522-.2-.224-.3-.536-.3-.936 0-.312.07-.58.21-.804.14-.224.32-.406.54-.546.22-.14.468-.244.744-.312.276-.068.55-.102.822-.102.352 0 .676.03.972.09.296.06.558.164.786.312.228.148.41.348.546.6.136.252.216.566.24.942h-1.02a1.032 1.032 0 0 0-.156-.498 1.021 1.021 0 0 0-.336-.318 1.527 1.527 0 0 0-.45-.174 2.316 2.316 0 0 0-.498-.054c-.152 0-.306.012-.462.036a1.556 1.556 0 0 0-.426.126.858.858 0 0 0-.312.24c-.08.1-.12.23-.12.39 0 .176.062.322.186.438.124.116.282.212.474.288.192.076.408.14.648.192.24.052.48.106.72.162.256.056.506.124.75.204.244.08.46.186.648.318s.34.298.456.498c.116.2.174.448.174.744 0 .376-.078.688-.234.936-.156.248-.36.448-.612.6a2.558 2.558 0 0 1-.852.318c-.316.06-.63.09-.942.09-.344 0-.672-.036-.984-.108a2.414 2.414 0 0 1-.828-.354 1.805 1.805 0 0 1-.576-.648c-.144-.268-.224-.594-.24-.978h1.02zm9.684-1.74a2.087 2.087 0 0 0-.162-.684 1.748 1.748 0 0 0-.372-.558 1.745 1.745 0 0 0-1.254-.51c-.264 0-.502.046-.714.138a1.649 1.649 0 0 0-.546.378c-.152.16-.272.346-.36.558-.088.212-.14.438-.156.678h3.564zm.984 1.728c-.136.696-.436 1.22-.9 1.572-.464.352-1.048.528-1.752.528-.496 0-.926-.08-1.29-.24a2.543 2.543 0 0 1-.918-.672 2.855 2.855 0 0 1-.558-1.032 4.973 4.973 0 0 1-.21-1.308c0-.472.072-.904.216-1.296.144-.392.346-.732.606-1.02a2.75 2.75 0 0 1 2.094-.912c.552 0 1.01.114 1.374.342.364.228.656.518.876.87.22.352.372.736.456 1.152.084.416.118.812.102 1.188H123.4c-.008.272.024.53.096.774.072.244.188.46.348.648.16.188.364.338.612.45.248.112.54.168.876.168.432 0 .786-.1 1.062-.3.276-.2.458-.504.546-.912h1.008zm1.896-1.08c0 .288.038.57.114.846.076.276.192.522.348.738.156.216.356.388.6.516s.53.192.858.192c.344 0 .636-.068.876-.204.24-.136.436-.314.588-.534.152-.22.262-.47.33-.75a3.597 3.597 0 0 0-.006-1.734 2.183 2.183 0 0 0-.342-.75 1.747 1.747 0 0 0-.606-.522c-.248-.132-.548-.198-.9-.198-.344 0-.636.068-.876.204-.24.136-.432.316-.576.54a2.35 2.35 0 0 0-.312.768 4.081 4.081 0 0 0-.096.888zm4.8 3.048h-1.02v-.84h-.024a1.501 1.501 0 0 1-.792.744c-.36.152-.756.228-1.188.228-.48 0-.898-.088-1.254-.264a2.58 2.58 0 0 1-.888-.708 3.085 3.085 0 0 1-.534-1.032 4.24 4.24 0 0 1-.18-1.248c0-.44.058-.856.174-1.248.116-.392.292-.734.528-1.026a2.55 2.55 0 0 1 .888-.696c.356-.172.77-.258 1.242-.258.16 0 .332.016.516.048s.368.086.552.162c.184.076.358.176.522.3.164.124.302.278.414.462h.024V7.432h1.02V16zm5.652-3.096c0 .376.05.71.15 1.002.1.292.238.536.414.732.176.196.382.346.618.45.236.104.486.156.75.156s.514-.052.75-.156c.236-.104.442-.254.618-.45s.314-.44.414-.732c.1-.292.15-.626.15-1.002s-.05-.71-.15-1.002a2.162 2.162 0 0 0-.414-.738 1.763 1.763 0 0 0-.618-.456 1.84 1.84 0 0 0-.75-.156 1.84 1.84 0 0 0-.75.156 1.763 1.763 0 0 0-.618.456c-.176.2-.314.446-.414.738-.1.292-.15.626-.15 1.002zm-1.08 0c0-.456.064-.882.192-1.278s.32-.74.576-1.032c.256-.292.572-.522.948-.69a3.148 3.148 0 0 1 1.296-.252c.496 0 .93.084 1.302.252.372.168.686.398.942.69.256.292.448.636.576 1.032.128.396.192.822.192 1.278 0 .456-.064.88-.192 1.272s-.32.734-.576 1.026c-.256.292-.57.52-.942.684-.372.164-.806.246-1.302.246-.488 0-.92-.082-1.296-.246a2.65 2.65 0 0 1-.948-.684 2.903 2.903 0 0 1-.576-1.026 4.075 4.075 0 0 1-.192-1.272zm7.224-3.108h.96v.984h.024c.424-.752 1.096-1.128 2.016-1.128.408 0 .748.056 1.02.168.272.112.492.268.66.468.168.2.286.438.354.714.068.276.102.582.102.918V16h-1.02v-4.2c0-.384-.112-.688-.336-.912-.224-.224-.532-.336-.924-.336-.312 0-.582.048-.81.144a1.519 1.519 0 0 0-.57.408 1.758 1.758 0 0 0-.342.618 2.513 2.513 0 0 0-.114.774V16h-1.02V9.796zm-89.166 14h1.236v.9h-1.236v3.852c0 .12.01.216.03.288.02.072.058.128.114.168.056.04.134.066.234.078.1.012.23.018.39.018h.468v.9h-.78c-.264 0-.49-.018-.678-.054a.996.996 0 0 1-.456-.198.846.846 0 0 1-.258-.408 2.357 2.357 0 0 1-.084-.696v-3.948h-1.056v-.9h1.056v-1.86h1.02v1.86zm2.364-2.364h1.02v3.276h.024c.08-.192.192-.354.336-.486a1.91 1.91 0 0 1 .486-.324 2.52 2.52 0 0 1 .564-.186c.196-.04.386-.06.57-.06.408 0 .748.056 1.02.168.272.112.492.268.66.468.168.2.286.438.354.714.068.276.102.582.102.918V30h-1.02v-4.2c0-.384-.112-.688-.336-.912-.224-.224-.532-.336-.924-.336-.312 0-.582.048-.81.144a1.519 1.519 0 0 0-.57.408 1.758 1.758 0 0 0-.342.618 2.513 2.513 0 0 0-.114.774V30h-1.02v-8.568zm10.98 4.872a2.087 2.087 0 0 0-.162-.684 1.748 1.748 0 0 0-.372-.558 1.745 1.745 0 0 0-1.254-.51c-.264 0-.502.046-.714.138a1.649 1.649 0 0 0-.546.378c-.152.16-.272.346-.36.558-.088.212-.14.438-.156.678h3.564zm.984 1.728c-.136.696-.436 1.22-.9 1.572-.464.352-1.048.528-1.752.528-.496 0-.926-.08-1.29-.24a2.543 2.543 0 0 1-.918-.672 2.855 2.855 0 0 1-.558-1.032 4.973 4.973 0 0 1-.21-1.308c0-.472.072-.904.216-1.296.144-.392.346-.732.606-1.02a2.75 2.75 0 0 1 2.094-.912c.552 0 1.01.114 1.374.342.364.228.656.518.876.87.22.352.372.736.456 1.152.084.416.118.812.102 1.188h-4.644c-.008.272.024.53.096.774.072.244.188.46.348.648.16.188.364.338.612.45.248.112.54.168.876.168.432 0 .786-.1 1.062-.3.276-.2.458-.504.546-.912h1.008zm4.488-4.236h.96v.984h.024c.424-.752 1.096-1.128 2.016-1.128.408 0 .748.056 1.02.168.272.112.492.268.66.468.168.2.286.438.354.714.068.276.102.582.102.918V30h-1.02v-4.2c0-.384-.112-.688-.336-.912-.224-.224-.532-.336-.924-.336-.312 0-.582.048-.81.144a1.519 1.519 0 0 0-.57.408 1.758 1.758 0 0 0-.342.618 2.513 2.513 0 0 0-.114.774V30h-1.02v-6.204zM87.898 30h-.96v-.984h-.024c-.216.384-.492.666-.828.846-.336.18-.732.27-1.188.27-.408 0-.748-.054-1.02-.162a1.626 1.626 0 0 1-.66-.462 1.739 1.739 0 0 1-.354-.714 3.84 3.84 0 0 1-.102-.918v-4.08h1.02v4.2c0 .384.112.688.336.912.224.224.532.336.924.336.312 0 .582-.048.81-.144.228-.096.418-.232.57-.408.152-.176.266-.382.342-.618.076-.236.114-.494.114-.774v-3.504h1.02V30zm1.536-6.204h.96v.912h.024c.464-.704 1.132-1.056 2.004-1.056.384 0 .732.08 1.044.24.312.16.532.432.66.816.208-.336.482-.596.822-.78a2.32 2.32 0 0 1 1.122-.276c.312 0 .594.034.846.102.252.068.468.174.648.318.18.144.32.33.42.558.1.228.15.502.15.822V30h-1.02v-4.068c0-.192-.016-.372-.048-.54a1.103 1.103 0 0 0-.18-.438.898.898 0 0 0-.366-.294 1.455 1.455 0 0 0-.606-.108c-.504 0-.9.144-1.188.432-.288.288-.432.672-.432 1.152V30h-1.02v-4.068c0-.2-.018-.384-.054-.552a1.171 1.171 0 0 0-.186-.438.869.869 0 0 0-.354-.288 1.372 1.372 0 0 0-.57-.102c-.296 0-.55.06-.762.18a1.727 1.727 0 0 0-.804.954c-.06.18-.09.33-.09.45V30h-1.02v-6.204zm10.272-2.364h1.02v3.204h.024c.168-.344.432-.594.792-.75.36-.156.756-.234 1.188-.234.48 0 .898.088 1.254.264.356.176.652.414.888.714s.414.646.534 1.038c.12.392.18.808.18 1.248 0 .44-.058.856-.174 1.248a2.938 2.938 0 0 1-.528 1.026 2.49 2.49 0 0 1-.888.69c-.356.168-.77.252-1.242.252a3.066 3.066 0 0 1-1.068-.204 2.18 2.18 0 0 1-.522-.294 1.643 1.643 0 0 1-.414-.462h-.024V30h-1.02v-8.568zm4.8 5.412c0-.288-.038-.57-.114-.846a2.283 2.283 0 0 0-.348-.738 1.705 1.705 0 0 0-.6-.516 1.822 1.822 0 0 0-.858-.192c-.344 0-.636.068-.876.204-.24.136-.436.314-.588.534-.152.22-.262.47-.33.75a3.597 3.597 0 0 0 .006 1.734c.072.284.186.534.342.75.156.216.358.39.606.522s.548.198.9.198.646-.068.882-.204a1.64 1.64 0 0 0 .57-.54 2.35 2.35 0 0 0 .312-.768c.064-.288.096-.584.096-.888zm6.588-.54a2.087 2.087 0 0 0-.162-.684 1.748 1.748 0 0 0-.372-.558 1.745 1.745 0 0 0-1.254-.51c-.264 0-.502.046-.714.138a1.649 1.649 0 0 0-.546.378c-.152.16-.272.346-.36.558-.088.212-.14.438-.156.678h3.564zm.984 1.728c-.136.696-.436 1.22-.9 1.572-.464.352-1.048.528-1.752.528-.496 0-.926-.08-1.29-.24a2.543 2.543 0 0 1-.918-.672 2.855 2.855 0 0 1-.558-1.032 4.973 4.973 0 0 1-.21-1.308c0-.472.072-.904.216-1.296.144-.392.346-.732.606-1.02a2.75 2.75 0 0 1 2.094-.912c.552 0 1.01.114 1.374.342.364.228.656.518.876.87.22.352.372.736.456 1.152.084.416.118.812.102 1.188h-4.644c-.008.272.024.53.096.774.072.244.188.46.348.648.16.188.364.338.612.45.248.112.54.168.876.168.432 0 .786-.1 1.062-.3.276-.2.458-.504.546-.912h1.008zm1.116-4.236h.96v1.308h.024c.248-.504.552-.876.912-1.116.36-.24.816-.352 1.368-.336v1.08c-.408 0-.756.056-1.044.168-.288.112-.52.276-.696.492a2.036 2.036 0 0 0-.384.786c-.08.308-.12.662-.12 1.062V30h-1.02v-6.204zm8.112 3.108c0 .376.05.71.15 1.002.1.292.238.536.414.732.176.196.382.346.618.45.236.104.486.156.75.156s.514-.052.75-.156c.236-.104.442-.254.618-.45s.314-.44.414-.732c.1-.292.15-.626.15-1.002s-.05-.71-.15-1.002a2.162 2.162 0 0 0-.414-.738 1.763 1.763 0 0 0-.618-.456 1.84 1.84 0 0 0-.75-.156 1.84 1.84 0 0 0-.75.156 1.763 1.763 0 0 0-.618.456c-.176.2-.314.446-.414.738-.1.292-.15.626-.15 1.002zm-1.08 0c0-.456.064-.882.192-1.278s.32-.74.576-1.032c.256-.292.572-.522.948-.69a3.148 3.148 0 0 1 1.296-.252c.496 0 .93.084 1.302.252.372.168.686.398.942.69.256.292.448.636.576 1.032.128.396.192.822.192 1.278 0 .456-.064.88-.192 1.272s-.32.734-.576 1.026c-.256.292-.57.52-.942.684-.372.164-.806.246-1.302.246-.488 0-.92-.082-1.296-.246a2.65 2.65 0 0 1-.948-.684 2.903 2.903 0 0 1-.576-1.026 4.075 4.075 0 0 1-.192-1.272zm7.644-2.208h-1.044v-.9h1.044v-.924c0-.504.146-.886.438-1.146.292-.26.718-.39 1.278-.39.096 0 .206.008.33.024.124.016.234.04.33.072v.888a1.265 1.265 0 0 0-.288-.066 2.525 2.525 0 0 0-.288-.018c-.248 0-.44.048-.576.144-.136.096-.204.28-.204.552v.864h1.2v.9h-1.2V30h-1.02v-5.304zm7.092 3.348c.008.224.06.414.156.57.096.156.222.28.378.372a1.7 1.7 0 0 0 .528.198c.196.04.398.06.606.06.16 0 .328-.012.504-.036.176-.024.338-.068.486-.132a.913.913 0 0 0 .366-.282.752.752 0 0 0 .144-.474c0-.264-.1-.464-.3-.6-.2-.136-.45-.246-.75-.33-.3-.084-.626-.16-.978-.228a5.074 5.074 0 0 1-.978-.288c-.3-.124-.55-.298-.75-.522-.2-.224-.3-.536-.3-.936 0-.312.07-.58.21-.804.14-.224.32-.406.54-.546.22-.14.468-.244.744-.312.276-.068.55-.102.822-.102.352 0 .676.03.972.09.296.06.558.164.786.312.228.148.41.348.546.6.136.252.216.566.24.942h-1.02a1.032 1.032 0 0 0-.156-.498 1.021 1.021 0 0 0-.336-.318 1.527 1.527 0 0 0-.45-.174 2.316 2.316 0 0 0-.498-.054c-.152 0-.306.012-.462.036a1.556 1.556 0 0 0-.426.126.858.858 0 0 0-.312.24c-.08.1-.12.23-.12.39 0 .176.062.322.186.438.124.116.282.212.474.288.192.076.408.14.648.192.24.052.48.106.72.162.256.056.506.124.75.204.244.08.46.186.648.318s.34.298.456.498c.116.2.174.448.174.744 0 .376-.078.688-.234.936-.156.248-.36.448-.612.6a2.558 2.558 0 0 1-.852.318c-.316.06-.63.09-.942.09-.344 0-.672-.036-.984-.108a2.414 2.414 0 0 1-.828-.354 1.805 1.805 0 0 1-.576-.648c-.144-.268-.224-.594-.24-.978h1.02zm6.792-4.248h1.236v.9h-1.236v3.852c0 .12.01.216.03.288.02.072.058.128.114.168.056.04.134.066.234.078.1.012.23.018.39.018h.468v.9h-.78c-.264 0-.49-.018-.678-.054a.996.996 0 0 1-.456-.198.846.846 0 0 1-.258-.408 2.357 2.357 0 0 1-.084-.696v-3.948h-1.056v-.9h1.056v-1.86h1.02v1.86zm6.672 2.508a2.087 2.087 0 0 0-.162-.684 1.748 1.748 0 0 0-.372-.558 1.745 1.745 0 0 0-1.254-.51c-.264 0-.502.046-.714.138a1.649 1.649 0 0 0-.546.378c-.152.16-.272.346-.36.558-.088.212-.14.438-.156.678h3.564zm.984 1.728c-.136.696-.436 1.22-.9 1.572-.464.352-1.048.528-1.752.528-.496 0-.926-.08-1.29-.24a2.543 2.543 0 0 1-.918-.672 2.855 2.855 0 0 1-.558-1.032 4.973 4.973 0 0 1-.21-1.308c0-.472.072-.904.216-1.296.144-.392.346-.732.606-1.02a2.75 2.75 0 0 1 2.094-.912c.552 0 1.01.114 1.374.342.364.228.656.518.876.87.22.352.372.736.456 1.152.084.416.118.812.102 1.188h-4.644c-.008.272.024.53.096.774.072.244.188.46.348.648.16.188.364.338.612.45.248.112.54.168.876.168.432 0 .786-.1 1.062-.3.276-.2.458-.504.546-.912h1.008zm1.188-4.236h1.02v.84h.024c.168-.344.432-.594.792-.75.36-.156.756-.234 1.188-.234.48 0 .898.088 1.254.264.356.176.652.414.888.714s.414.646.534 1.038c.12.392.18.808.18 1.248 0 .44-.058.856-.174 1.248a2.938 2.938 0 0 1-.528 1.026 2.49 2.49 0 0 1-.888.69c-.356.168-.77.252-1.242.252a3.066 3.066 0 0 1-1.068-.204 2.18 2.18 0 0 1-.522-.294 1.643 1.643 0 0 1-.414-.462h-.024v3.192h-1.02v-8.568zm4.8 3.048c0-.288-.038-.57-.114-.846a2.283 2.283 0 0 0-.348-.738 1.705 1.705 0 0 0-.6-.516 1.822 1.822 0 0 0-.858-.192c-.344 0-.636.068-.876.204-.24.136-.436.314-.588.534-.152.22-.262.47-.33.75a3.597 3.597 0 0 0 .006 1.734c.072.284.186.534.342.75.156.216.358.39.606.522s.548.198.9.198.646-.068.882-.204a1.64 1.64 0 0 0 .57-.54 2.35 2.35 0 0 0 .312-.768c.064-.288.096-.584.096-.888z"/>
        </g>
    </g>
</svg>
