<?xml version="1.0" encoding="UTF-8"?>
<svg width="361px" height="355px" viewBox="0 0 361 355" version="1.1" xmlns="http://www.w3.org/2000/svg" xmlns:xlink="http://www.w3.org/1999/xlink">
    <!-- Generator: Sketch 48.2 (47327) - http://www.bohemiancoding.com/sketch -->
    <title>Group 11</title>
    <desc>Created with Sketch.</desc>
    <defs>
        <rect id="path-1" x="120.5" y="114" width="120" height="40" rx="20"></rect>
        <filter x="-15.0%" y="-45.0%" width="130.0%" height="190.0%" filterUnits="objectBoundingBox" id="filter-2">
            <feOffset dx="0" dy="0" in="SourceAlpha" result="shadowOffsetOuter1"></feOffset>
            <feGaussianBlur stdDeviation="6" in="shadowOffsetOuter1" result="shadowBlurOuter1"></feGaussianBlur>
            <feComposite in="shadowBlurOuter1" in2="SourceAlpha" operator="out" result="shadowBlurOuter1"></feComposite>
            <feColorMatrix values="0 0 0 0 0   0 0 0 0 0   0 0 0 0 0  0 0 0 0.12 0" type="matrix" in="shadowBlurOuter1"></feColorMatrix>
        </filter>
    </defs>
    <g id="CEKUNIFY-Website---Chips" stroke="none" stroke-width="1" fill="none" fill-rule="evenodd" transform="translate(-1170.000000, -913.000000)">
        <g id="Group-5" transform="translate(386.000000, 913.000000)">
            <g id="Group-11" transform="translate(784.000000, 0.000000)">
                <rect id="Rectangle-7-Copy" fill="#F8F8F8" x="0.5" y="0" width="360" height="268" rx="4"></rect>
                <g id="Rectangle-Copy">
                    <use fill="black" fill-opacity="1" filter="url(#filter-2)" xlink:href="#path-1"></use>
                    <use fill="#F3FEF3" fill-rule="evenodd" xlink:href="#path-1"></use>
                    <rect stroke="#87D58B" stroke-width="1" x="121" y="114.5" width="119" height="39" rx="19.5"></rect>
                </g>
                <path d="M141.729492,139.232422 C139.049805,139.232422 137.375,137.25 137.375,134.071289 C137.375,130.885742 139.042969,128.90332 141.722656,128.90332 C143.800781,128.90332 145.420898,130.208984 145.714844,132.109375 L144.463867,132.109375 C144.135742,130.837891 143.083008,130.038086 141.722656,130.038086 C139.829102,130.038086 138.639648,131.59668 138.639648,134.071289 C138.639648,136.545898 139.829102,138.097656 141.729492,138.097656 C143.103516,138.097656 144.149414,137.393555 144.463867,136.251953 L145.714844,136.251953 C145.386719,138.063477 143.828125,139.232422 141.729492,139.232422 Z M150.657227,139.129883 C148.558594,139.129883 147.259766,137.680664 147.259766,135.31543 C147.259766,132.943359 148.558594,131.500977 150.657227,131.500977 C152.755859,131.500977 154.054688,132.943359 154.054688,135.31543 C154.054688,137.680664 152.755859,139.129883 150.657227,139.129883 Z M150.657227,138.070312 C152.051758,138.070312 152.837891,137.058594 152.837891,135.31543 C152.837891,133.56543 152.051758,132.560547 150.657227,132.560547 C149.262695,132.560547 148.476562,133.56543 148.476562,135.31543 C148.476562,137.058594 149.262695,138.070312 150.657227,138.070312 Z M155.900391,139 L155.900391,131.630859 L157.021484,131.630859 L157.021484,132.792969 L157.130859,132.792969 C157.5,131.979492 158.217773,131.500977 159.345703,131.500977 C161,131.500977 161.922852,132.478516 161.922852,134.228516 L161.922852,139 L160.74707,139 L160.74707,134.515625 C160.74707,133.189453 160.186523,132.560547 159.010742,132.560547 C157.834961,132.560547 157.076172,133.34668 157.076172,134.638672 L157.076172,139 L155.900391,139 Z M164.561523,129.723633 L165.737305,129.723633 L165.737305,131.630859 L167.37793,131.630859 L167.37793,132.615234 L165.737305,132.615234 L165.737305,136.785156 C165.737305,137.65332 166.06543,138.022461 166.831055,138.022461 C167.042969,138.022461 167.15918,138.015625 167.37793,137.995117 L167.37793,138.986328 C167.145508,139.027344 166.919922,139.054688 166.6875,139.054688 C165.169922,139.054688 164.561523,138.494141 164.561523,137.085938 L164.561523,132.615234 L163.37207,132.615234 L163.37207,131.630859 L164.561523,131.630859 L164.561523,129.723633 Z M172.094727,132.540039 C170.918945,132.540039 170.098633,133.401367 170.009766,134.707031 L174.070312,134.707031 C174.042969,133.401367 173.263672,132.540039 172.094727,132.540039 Z M174.036133,137.092773 L175.211914,137.092773 C174.856445,138.357422 173.72168,139.129883 172.108398,139.129883 C170.064453,139.129883 168.786133,137.65332 168.786133,135.322266 C168.786133,133.004883 170.084961,131.500977 172.108398,131.500977 C174.097656,131.500977 175.307617,132.916016 175.307617,135.206055 L175.307617,135.657227 L170.009766,135.657227 L170.009766,135.711914 C170.071289,137.167969 170.884766,138.09082 172.135742,138.09082 C173.085938,138.09082 173.728516,137.742188 174.036133,137.092773 Z M177.15332,139 L177.15332,131.630859 L178.274414,131.630859 L178.274414,132.792969 L178.383789,132.792969 C178.75293,131.979492 179.470703,131.500977 180.598633,131.500977 C182.25293,131.500977 183.175781,132.478516 183.175781,134.228516 L183.175781,139 L182,139 L182,134.515625 C182,133.189453 181.439453,132.560547 180.263672,132.560547 C179.087891,132.560547 178.329102,133.34668 178.329102,134.638672 L178.329102,139 L177.15332,139 Z M195.371094,133.886719 L194.181641,133.886719 C193.990234,133.155273 193.34082,132.560547 192.28125,132.560547 C190.955078,132.560547 190.121094,133.620117 190.121094,135.288086 C190.121094,136.990234 190.96875,138.070312 192.28125,138.070312 C193.272461,138.070312 193.962891,137.612305 194.181641,136.77832 L195.371094,136.77832 C195.15918,138.131836 194.058594,139.129883 192.288086,139.129883 C190.223633,139.129883 188.904297,137.632812 188.904297,135.288086 C188.904297,132.991211 190.216797,131.500977 192.28125,131.500977 C194.072266,131.500977 195.166016,132.574219 195.371094,133.886719 Z M197.175781,139 L197.175781,128.705078 L198.351562,128.705078 L198.351562,132.792969 L198.460938,132.792969 C198.830078,131.979492 199.602539,131.500977 200.730469,131.500977 C202.289062,131.500977 203.273438,132.499023 203.273438,134.228516 L203.273438,139 L202.097656,139 L202.097656,134.515625 C202.097656,133.209961 201.509766,132.560547 200.395508,132.560547 C199.076172,132.560547 198.351562,133.394531 198.351562,134.638672 L198.351562,139 L197.175781,139 Z M205.447266,139 L205.447266,131.630859 L206.623047,131.630859 L206.623047,139 L205.447266,139 Z M206.035156,130.133789 C205.583984,130.133789 205.214844,129.764648 205.214844,129.313477 C205.214844,128.862305 205.583984,128.493164 206.035156,128.493164 C206.486328,128.493164 206.855469,128.862305 206.855469,129.313477 C206.855469,129.764648 206.486328,130.133789 206.035156,130.133789 Z M212.454102,131.500977 C214.333984,131.500977 215.550781,132.998047 215.550781,135.31543 C215.550781,137.619141 214.327148,139.129883 212.454102,139.129883 C211.401367,139.129883 210.553711,138.671875 210.150391,137.892578 L210.041016,137.892578 L210.041016,141.460938 L208.865234,141.460938 L208.865234,131.630859 L209.986328,131.630859 L209.986328,132.861328 L210.095703,132.861328 C210.567383,132.013672 211.449219,131.500977 212.454102,131.500977 Z M212.173828,138.070312 C213.527344,138.070312 214.333984,137.038086 214.333984,135.31543 C214.333984,133.592773 213.527344,132.560547 212.180664,132.560547 C210.847656,132.560547 210.006836,133.620117 210.006836,135.31543 C210.006836,137.003906 210.847656,138.070312 212.173828,138.070312 Z M217.225586,133.647461 C217.225586,132.423828 218.408203,131.500977 219.973633,131.500977 C221.518555,131.500977 222.591797,132.266602 222.749023,133.476562 L221.586914,133.476562 C221.429688,132.888672 220.855469,132.499023 219.966797,132.499023 C219.091797,132.499023 218.408203,132.943359 218.408203,133.599609 C218.408203,134.105469 218.818359,134.419922 219.686523,134.631836 L220.821289,134.905273 C222.208984,135.240234 222.878906,135.841797 222.878906,136.901367 C222.878906,138.220703 221.600586,139.129883 219.925781,139.129883 C218.285156,139.129883 217.157227,138.34375 217.027344,137.120117 L218.237305,137.120117 C218.435547,137.742188 219.023438,138.138672 219.966797,138.138672 C220.958008,138.138672 221.668945,137.666992 221.668945,136.990234 C221.668945,136.484375 221.286133,136.142578 220.5,135.951172 L219.235352,135.643555 C217.854492,135.308594 217.225586,134.713867 217.225586,133.647461 Z" id="Conten-chips" fill-opacity="0.54" fill="#000000"></path>
                <rect id="line" fill="#50E3C2" x="120.5" y="137" width="16" height="1"></rect>
                <rect id="start" fill="#50E3C2" x="120.5" y="135" width="1" height="5"></rect>
                <rect id="end" fill="#50E3C2" x="135.5" y="135" width="1" height="5"></rect>
                <rect id="box" fill="#50E3C2" x="111.5" y="143" width="35" height="22" rx="2"></rect>
                <polygon id="arrow" fill="#50E3C2" points="125.5 143 129.5 139 133.5 143 129.5 147"></polygon>
                <path d="M119.934,158 L118.914,158 L118.914,151.904 L116.706,151.904 L116.706,151.088 C116.994001,151.088 117.273999,151.066 117.546,151.022 C117.818001,150.978 118.063999,150.896001 118.284,150.776 C118.504001,150.655999 118.689999,150.492001 118.842,150.284 C118.994001,150.075999 119.098,149.812002 119.154,149.492 L119.934,149.492 L119.934,158 Z M127.302,151.664 C127.254,151.279998 127.106001,150.972001 126.858,150.74 C126.609999,150.507999 126.282002,150.392 125.874,150.392 C125.441998,150.392 125.094001,150.497999 124.83,150.71 C124.565999,150.922001 124.360001,151.189998 124.212,151.514 C124.063999,151.838002 123.962,152.187998 123.906,152.564 C123.85,152.940002 123.818,153.291998 123.81,153.62 L123.834,153.644 C124.074001,153.251998 124.371998,152.968001 124.728,152.792 C125.084002,152.615999 125.493998,152.528 125.958,152.528 C126.366002,152.528 126.731998,152.597999 127.056,152.738 C127.380002,152.878001 127.651999,153.071999 127.872,153.32 C128.092001,153.568001 128.261999,153.859998 128.382,154.196 C128.502001,154.532002 128.562,154.895998 128.562,155.288 C128.562,155.600002 128.514,155.923998 128.418,156.26 C128.322,156.596002 128.164001,156.901999 127.944,157.178 C127.723999,157.454001 127.432002,157.681999 127.068,157.862 C126.703998,158.042001 126.254003,158.132 125.718,158.132 C125.085997,158.132 124.578002,158.004001 124.194,157.748 C123.809998,157.491999 123.514001,157.164002 123.306,156.764 C123.097999,156.363998 122.96,155.924002 122.892,155.444 C122.824,154.963998 122.79,154.500002 122.79,154.052 C122.79,153.467997 122.839999,152.902003 122.94,152.354 C123.04,151.805997 123.209999,151.320002 123.45,150.896 C123.690001,150.471998 124.009998,150.132001 124.41,149.876 C124.810002,149.619999 125.313997,149.492 125.922,149.492 C126.626004,149.492 127.185998,149.677998 127.602,150.05 C128.018002,150.422002 128.258,150.959996 128.322,151.664 L127.302,151.664 Z M125.766,153.428 C125.477999,153.428 125.226001,153.478 125.01,153.578 C124.793999,153.678 124.610001,153.813999 124.458,153.986 C124.305999,154.158001 124.192,154.361999 124.116,154.598 C124.04,154.834001 124.002,155.083999 124.002,155.348 C124.002,155.612001 124.042,155.859999 124.122,156.092 C124.202,156.324001 124.315999,156.523999 124.464,156.692 C124.612001,156.860001 124.795999,156.994 125.016,157.094 C125.236001,157.194 125.485999,157.244 125.766,157.244 C126.046001,157.244 126.291999,157.194 126.504,157.094 C126.716001,156.994 126.893999,156.856001 127.038,156.68 C127.182001,156.503999 127.292,156.302001 127.368,156.074 C127.444,155.845999 127.482,155.608001 127.482,155.36 C127.482,155.095999 127.448,154.846001 127.38,154.61 C127.312,154.373999 127.206001,154.170001 127.062,153.998 C126.917999,153.825999 126.738001,153.688001 126.522,153.584 C126.305999,153.479999 126.054001,153.428 125.766,153.428 Z M129.81,151.796 L130.83,151.796 L130.83,152.636 L130.854,152.636 C131.022001,152.291998 131.285998,152.042001 131.646,151.886 C132.006002,151.729999 132.401998,151.652 132.834,151.652 C133.314002,151.652 133.731998,151.739999 134.088,151.916 C134.444002,152.092001 134.739999,152.329998 134.976,152.63 C135.212001,152.930002 135.389999,153.275998 135.51,153.668 C135.630001,154.060002 135.69,154.475998 135.69,154.916 C135.69,155.356002 135.632001,155.771998 135.516,156.164 C135.399999,156.556002 135.224001,156.897999 134.988,157.19 C134.751999,157.482001 134.456002,157.711999 134.1,157.88 C133.743998,158.048001 133.330002,158.132 132.858,158.132 C132.705999,158.132 132.536001,158.116 132.348,158.084 C132.159999,158.052 131.974001,158 131.79,157.928 C131.605999,157.856 131.432001,157.758001 131.268,157.634 C131.103999,157.509999 130.966001,157.356001 130.854,157.172 L130.83,157.172 L130.83,160.364 L129.81,160.364 L129.81,151.796 Z M134.61,154.844 C134.61,154.555999 134.572,154.274001 134.496,153.998 C134.42,153.721999 134.304001,153.476001 134.148,153.26 C133.991999,153.043999 133.792001,152.872001 133.548,152.744 C133.303999,152.615999 133.018002,152.552 132.69,152.552 C132.345998,152.552 132.054001,152.619999 131.814,152.756 C131.573999,152.892001 131.378001,153.069999 131.226,153.29 C131.073999,153.510001 130.964,153.759999 130.896,154.04 C130.828,154.320001 130.794,154.603999 130.794,154.892 C130.794,155.196002 130.83,155.489999 130.902,155.774 C130.974,156.058001 131.087999,156.307999 131.244,156.524 C131.400001,156.740001 131.601999,156.913999 131.85,157.046 C132.098001,157.178001 132.397998,157.244 132.75,157.244 C133.102002,157.244 133.395999,157.176001 133.632,157.04 C133.868001,156.903999 134.057999,156.724001 134.202,156.5 C134.346001,156.275999 134.45,156.020001 134.514,155.732 C134.578,155.443999 134.61,155.148002 134.61,154.844 Z M138.558,154.736 L136.398,151.796 L137.706,151.796 L139.194,153.968 L140.742,151.796 L141.966,151.796 L139.83,154.652 L142.23,158 L140.922,158 L139.194,155.432 L137.466,158 L136.23,158 L138.558,154.736 Z" id="Text" fill="#FFFFFF"></path>
                <rect id="line" fill="#50E3C2" x="224.5" y="137" width="16" height="1"></rect>
                <rect id="start" fill="#50E3C2" x="224.5" y="135" width="1" height="5"></rect>
                <rect id="end" fill="#50E3C2" x="239.5" y="135" width="1" height="5"></rect>
                <rect id="box" fill="#50E3C2" x="215.5" y="143" width="35" height="22" rx="2"></rect>
                <polygon id="arrow" fill="#50E3C2" points="229.5 143 233.5 139 237.5 143 233.5 147"></polygon>
                <path d="M223.934,158 L222.914,158 L222.914,151.904 L220.706,151.904 L220.706,151.088 C220.994001,151.088 221.273999,151.066 221.546,151.022 C221.818001,150.978 222.063999,150.896001 222.284,150.776 C222.504001,150.655999 222.689999,150.492001 222.842,150.284 C222.994001,150.075999 223.098,149.812002 223.154,149.492 L223.934,149.492 L223.934,158 Z M231.302,151.664 C231.254,151.279998 231.106001,150.972001 230.858,150.74 C230.609999,150.507999 230.282002,150.392 229.874,150.392 C229.441998,150.392 229.094001,150.497999 228.83,150.71 C228.565999,150.922001 228.360001,151.189998 228.212,151.514 C228.063999,151.838002 227.962,152.187998 227.906,152.564 C227.85,152.940002 227.818,153.291998 227.81,153.62 L227.834,153.644 C228.074001,153.251998 228.371998,152.968001 228.728,152.792 C229.084002,152.615999 229.493998,152.528 229.958,152.528 C230.366002,152.528 230.731998,152.597999 231.056,152.738 C231.380002,152.878001 231.651999,153.071999 231.872,153.32 C232.092001,153.568001 232.261999,153.859998 232.382,154.196 C232.502001,154.532002 232.562,154.895998 232.562,155.288 C232.562,155.600002 232.514,155.923998 232.418,156.26 C232.322,156.596002 232.164001,156.901999 231.944,157.178 C231.723999,157.454001 231.432002,157.681999 231.068,157.862 C230.703998,158.042001 230.254003,158.132 229.718,158.132 C229.085997,158.132 228.578002,158.004001 228.194,157.748 C227.809998,157.491999 227.514001,157.164002 227.306,156.764 C227.097999,156.363998 226.96,155.924002 226.892,155.444 C226.824,154.963998 226.79,154.500002 226.79,154.052 C226.79,153.467997 226.839999,152.902003 226.94,152.354 C227.04,151.805997 227.209999,151.320002 227.45,150.896 C227.690001,150.471998 228.009998,150.132001 228.41,149.876 C228.810002,149.619999 229.313997,149.492 229.922,149.492 C230.626004,149.492 231.185998,149.677998 231.602,150.05 C232.018002,150.422002 232.258,150.959996 232.322,151.664 L231.302,151.664 Z M229.766,153.428 C229.477999,153.428 229.226001,153.478 229.01,153.578 C228.793999,153.678 228.610001,153.813999 228.458,153.986 C228.305999,154.158001 228.192,154.361999 228.116,154.598 C228.04,154.834001 228.002,155.083999 228.002,155.348 C228.002,155.612001 228.042,155.859999 228.122,156.092 C228.202,156.324001 228.315999,156.523999 228.464,156.692 C228.612001,156.860001 228.795999,156.994 229.016,157.094 C229.236001,157.194 229.485999,157.244 229.766,157.244 C230.046001,157.244 230.291999,157.194 230.504,157.094 C230.716001,156.994 230.893999,156.856001 231.038,156.68 C231.182001,156.503999 231.292,156.302001 231.368,156.074 C231.444,155.845999 231.482,155.608001 231.482,155.36 C231.482,155.095999 231.448,154.846001 231.38,154.61 C231.312,154.373999 231.206001,154.170001 231.062,153.998 C230.917999,153.825999 230.738001,153.688001 230.522,153.584 C230.305999,153.479999 230.054001,153.428 229.766,153.428 Z M233.81,151.796 L234.83,151.796 L234.83,152.636 L234.854,152.636 C235.022001,152.291998 235.285998,152.042001 235.646,151.886 C236.006002,151.729999 236.401998,151.652 236.834,151.652 C237.314002,151.652 237.731998,151.739999 238.088,151.916 C238.444002,152.092001 238.739999,152.329998 238.976,152.63 C239.212001,152.930002 239.389999,153.275998 239.51,153.668 C239.630001,154.060002 239.69,154.475998 239.69,154.916 C239.69,155.356002 239.632001,155.771998 239.516,156.164 C239.399999,156.556002 239.224001,156.897999 238.988,157.19 C238.751999,157.482001 238.456002,157.711999 238.1,157.88 C237.743998,158.048001 237.330002,158.132 236.858,158.132 C236.705999,158.132 236.536001,158.116 236.348,158.084 C236.159999,158.052 235.974001,158 235.79,157.928 C235.605999,157.856 235.432001,157.758001 235.268,157.634 C235.103999,157.509999 234.966001,157.356001 234.854,157.172 L234.83,157.172 L234.83,160.364 L233.81,160.364 L233.81,151.796 Z M238.61,154.844 C238.61,154.555999 238.572,154.274001 238.496,153.998 C238.42,153.721999 238.304001,153.476001 238.148,153.26 C237.991999,153.043999 237.792001,152.872001 237.548,152.744 C237.303999,152.615999 237.018002,152.552 236.69,152.552 C236.345998,152.552 236.054001,152.619999 235.814,152.756 C235.573999,152.892001 235.378001,153.069999 235.226,153.29 C235.073999,153.510001 234.964,153.759999 234.896,154.04 C234.828,154.320001 234.794,154.603999 234.794,154.892 C234.794,155.196002 234.83,155.489999 234.902,155.774 C234.974,156.058001 235.087999,156.307999 235.244,156.524 C235.400001,156.740001 235.601999,156.913999 235.85,157.046 C236.098001,157.178001 236.397998,157.244 236.75,157.244 C237.102002,157.244 237.395999,157.176001 237.632,157.04 C237.868001,156.903999 238.057999,156.724001 238.202,156.5 C238.346001,156.275999 238.45,156.020001 238.514,155.732 C238.578,155.443999 238.61,155.148002 238.61,154.844 Z M242.558,154.736 L240.398,151.796 L241.706,151.796 L243.194,153.968 L244.742,151.796 L245.966,151.796 L243.83,154.652 L246.23,158 L244.922,158 L243.194,155.432 L241.466,158 L240.23,158 L242.558,154.736 Z" id="Text" fill="#FFFFFF"></path>
                <path d="M5.628,298.21 C2.856,298.21 0.546,296.208 0.546,293.044 C0.546,289.88 2.94,287.864 5.6,287.864 C8.344,287.864 9.758,289.544 10.15,291.154 L8.33,291.728 C8.092,290.776 7.322,289.726 5.6,289.726 C4.116,289.726 2.548,290.79 2.548,293.044 C2.548,295.158 4.032,296.32 5.628,296.32 C7.322,296.32 8.148,295.214 8.414,294.29 L10.22,294.836 C9.842,296.362 8.414,298.21 5.628,298.21 Z M13.412,293.954 L13.412,298 L11.55,298 L11.55,287.864 L13.412,287.864 L13.412,291.686 C13.86,291.154 14.616,290.93 15.274,290.93 C17.024,290.93 17.836,292.148 17.836,293.66 L17.836,298 L15.974,298 L15.974,293.982 C15.974,293.212 15.596,292.61 14.7,292.61 C13.916,292.61 13.454,293.198 13.412,293.954 Z M21.588,298 L19.726,298 L19.726,291.112 L21.588,291.112 L21.588,298 Z M19.502,288.858 C19.502,288.214 20.02,287.696 20.65,287.696 C21.294,287.696 21.798,288.214 21.798,288.858 C21.798,289.474 21.294,289.992 20.65,289.992 C20.02,289.992 19.502,289.474 19.502,288.858 Z M25.438,300.66 L23.576,300.66 L23.576,291.112 L25.382,291.112 L25.382,291.952 C25.69,291.42 26.46,290.958 27.496,290.958 C29.512,290.958 30.674,292.498 30.674,294.542 C30.674,296.628 29.372,298.168 27.426,298.168 C26.474,298.168 25.774,297.79 25.438,297.328 L25.438,300.66 Z M28.84,294.556 C28.84,293.338 28.084,292.624 27.132,292.624 C26.18,292.624 25.41,293.338 25.41,294.556 C25.41,295.774 26.18,296.502 27.132,296.502 C28.084,296.502 28.84,295.788 28.84,294.556 Z M42.42,290.44 L40.684,290.972 C40.586,290.426 40.138,289.572 38.878,289.572 C37.94,289.572 37.324,290.174 37.324,290.832 C37.324,291.378 37.674,291.812 38.402,291.952 L39.788,292.218 C41.594,292.568 42.56,293.744 42.56,295.144 C42.56,296.67 41.286,298.21 38.976,298.21 C36.344,298.21 35.182,296.516 35.028,295.102 L36.82,294.626 C36.904,295.606 37.59,296.488 38.99,296.488 C40.026,296.488 40.6,295.97 40.6,295.27 C40.6,294.696 40.166,294.248 39.396,294.094 L38.01,293.814 C36.428,293.492 35.406,292.47 35.406,290.972 C35.406,289.208 36.988,287.864 38.864,287.864 C41.272,287.864 42.196,289.32 42.42,290.44 Z M45.36,293.772 L48.44,293.772 C48.412,293.086 47.964,292.414 46.9,292.414 C45.934,292.414 45.402,293.142 45.36,293.772 Z M48.622,295.564 L50.176,296.026 C49.826,297.216 48.734,298.21 47.04,298.21 C45.15,298.21 43.484,296.852 43.484,294.528 C43.484,292.33 45.108,290.902 46.872,290.902 C49,290.902 50.274,292.26 50.274,294.472 C50.274,294.738 50.246,295.018 50.246,295.046 L45.318,295.046 C45.36,295.956 46.13,296.614 47.054,296.614 C47.922,296.614 48.398,296.18 48.622,295.564 Z M53.606,298 L51.744,298 L51.744,287.864 L53.606,287.864 L53.606,298 Z M56.952,293.772 L60.032,293.772 C60.004,293.086 59.556,292.414 58.492,292.414 C57.526,292.414 56.994,293.142 56.952,293.772 Z M60.214,295.564 L61.768,296.026 C61.418,297.216 60.326,298.21 58.632,298.21 C56.742,298.21 55.076,296.852 55.076,294.528 C55.076,292.33 56.7,290.902 58.464,290.902 C60.592,290.902 61.866,292.26 61.866,294.472 C61.866,294.738 61.838,295.018 61.838,295.046 L56.91,295.046 C56.952,295.956 57.722,296.614 58.646,296.614 C59.514,296.614 59.99,296.18 60.214,295.564 Z M66.43,292.624 C65.478,292.624 64.68,293.31 64.68,294.556 C64.68,295.802 65.492,296.502 66.444,296.502 C67.396,296.502 67.872,295.872 68.026,295.34 L69.664,295.886 C69.356,297.034 68.278,298.21 66.444,298.21 C64.414,298.21 62.818,296.67 62.818,294.556 C62.818,292.428 64.386,290.902 66.388,290.902 C68.264,290.902 69.328,292.064 69.622,293.226 L67.956,293.786 C67.788,293.212 67.354,292.624 66.43,292.624 Z M73.332,289.054 L73.332,291.112 L74.718,291.112 L74.718,292.764 L73.332,292.764 L73.332,295.648 C73.332,296.25 73.612,296.446 74.144,296.446 C74.368,296.446 74.62,296.418 74.718,296.39 L74.718,297.93 C74.55,298 74.214,298.098 73.668,298.098 C72.324,298.098 71.484,297.3 71.484,295.97 L71.484,292.764 L70.238,292.764 L70.238,291.112 L70.588,291.112 C71.316,291.112 71.652,290.636 71.652,290.02 L71.652,289.054 L73.332,289.054 Z M2.632,316 L1.26,316 L1.26,306.074 L7.294,306.074 L7.294,307.348 L2.632,307.348 L2.632,310.54 L6.86,310.54 L6.86,311.828 L2.632,311.828 L2.632,316 Z M11.228,315.034 C12.348,315.034 13.328,314.194 13.328,312.626 C13.328,311.072 12.348,310.232 11.228,310.232 C10.108,310.232 9.128,311.072 9.128,312.626 C9.128,314.194 10.108,315.034 11.228,315.034 Z M11.228,309.056 C13.244,309.056 14.672,310.582 14.672,312.626 C14.672,314.684 13.244,316.21 11.228,316.21 C9.212,316.21 7.784,314.684 7.784,312.626 C7.784,310.582 9.212,309.056 11.228,309.056 Z M17.668,312.108 L17.668,316 L16.352,316 L16.352,309.266 L17.64,309.266 L17.64,310.232 C18.13,309.392 18.928,309.07 19.712,309.07 C21.322,309.07 22.12,310.232 22.12,311.73 L22.12,316 L20.804,316 L20.804,311.954 C20.804,311.016 20.412,310.26 19.236,310.26 C18.2,310.26 17.668,311.086 17.668,312.108 Z M25.984,307.138 L25.984,309.266 L27.44,309.266 L27.44,310.456 L25.984,310.456 L25.984,313.956 C25.984,314.572 26.236,314.88 26.922,314.88 C27.09,314.88 27.328,314.852 27.44,314.824 L27.44,315.944 C27.328,315.986 26.992,316.07 26.544,316.07 C25.396,316.07 24.668,315.37 24.668,314.152 L24.668,310.456 L23.38,310.456 L23.38,309.266 L23.744,309.266 C24.472,309.266 24.78,308.818 24.78,308.23 L24.78,307.138 L25.984,307.138 Z M39.158,308.328 L37.926,308.762 C37.814,308.048 37.212,307.068 35.826,307.068 C34.706,307.068 33.908,307.796 33.908,308.72 C33.908,309.434 34.342,309.98 35.182,310.162 L36.666,310.484 C38.318,310.848 39.242,311.884 39.242,313.27 C39.242,314.81 37.926,316.21 35.812,316.21 C33.418,316.21 32.284,314.67 32.102,313.256 L33.418,312.836 C33.516,313.942 34.3,314.964 35.798,314.964 C37.17,314.964 37.842,314.25 37.842,313.382 C37.842,312.668 37.352,312.052 36.358,311.842 L34.944,311.534 C33.53,311.226 32.522,310.302 32.522,308.818 C32.522,307.264 33.964,305.864 35.798,305.864 C38.038,305.864 38.934,307.25 39.158,308.328 Z M42.224,316 L40.922,316 L40.922,309.266 L42.224,309.266 L42.224,316 Z M40.628,306.718 C40.628,306.186 41.048,305.766 41.566,305.766 C42.098,305.766 42.518,306.186 42.518,306.718 C42.518,307.236 42.098,307.656 41.566,307.656 C41.048,307.656 40.628,307.236 40.628,306.718 Z M49.308,316 L43.904,316 L43.904,314.852 L47.6,310.456 L43.96,310.456 L43.96,309.266 L49.238,309.266 L49.238,310.414 L45.542,314.81 L49.308,314.81 L49.308,316 Z M51.842,311.94 L55.524,311.94 C55.496,310.974 54.866,310.218 53.676,310.218 C52.57,310.218 51.898,311.072 51.842,311.94 Z M55.72,313.69 L56.854,314.082 C56.476,315.272 55.398,316.21 53.83,316.21 C52.024,316.21 50.442,314.894 50.442,312.612 C50.442,310.498 51.968,309.056 53.662,309.056 C55.734,309.056 56.896,310.484 56.896,312.584 C56.896,312.752 56.882,312.92 56.868,313.004 L51.8,313.004 C51.828,314.208 52.696,315.048 53.83,315.048 C54.922,315.048 55.468,314.446 55.72,313.69 Z M64.848,316 L63.504,316 L63.504,309.602 L61.306,309.602 L61.306,308.636 C62.566,308.608 63.434,307.908 63.644,306.928 L64.848,306.928 L64.848,316 Z M66.388,313.956 L66.388,312.374 L70.28,306.928 L72.17,306.928 L72.17,312.682 L73.724,312.682 L73.724,313.956 L72.17,313.956 L72.17,316 L70.84,316 L70.84,313.956 L66.388,313.956 Z M70.84,312.682 L70.84,308.244 L67.648,312.682 L70.84,312.682 Z M76.356,318.66 L75.054,318.66 L75.054,309.266 L76.328,309.266 L76.328,310.316 C76.692,309.644 77.49,309.112 78.582,309.112 C80.598,309.112 81.676,310.666 81.676,312.626 C81.676,314.628 80.514,316.182 78.54,316.182 C77.504,316.182 76.72,315.692 76.356,315.09 L76.356,318.66 Z M80.332,312.626 C80.332,311.282 79.576,310.274 78.344,310.274 C77.14,310.274 76.342,311.282 76.342,312.626 C76.342,314.012 77.14,315.006 78.344,315.006 C79.562,315.006 80.332,314.012 80.332,312.626 Z M82.236,316 L84.742,312.57 L82.32,309.266 L83.916,309.266 L85.568,311.632 L87.192,309.266 L88.746,309.266 L86.352,312.57 C86.758,313.116 88.424,315.454 88.83,316 L87.248,316 L85.512,313.522 L83.804,316 L82.236,316 Z M89.95,315.104 C89.95,314.6 90.384,314.166 90.972,314.166 C91.574,314.166 92.106,314.614 92.106,315.496 C92.106,317.344 90.902,318.114 90.034,318.226 L90.034,317.498 C90.72,317.344 91.182,316.658 91.196,315.986 C91.154,316.014 91.042,316.056 90.888,316.056 C90.37,316.056 89.95,315.706 89.95,315.104 Z M102.144,316.21 C99.582,316.21 97.216,314.348 97.216,311.03 C97.216,307.712 99.68,305.864 102.144,305.864 C104.412,305.864 106.008,307.096 106.512,309.014 L105.238,309.462 C104.86,307.964 103.768,307.124 102.144,307.124 C100.338,307.124 98.616,308.44 98.616,311.03 C98.616,313.62 100.338,314.95 102.144,314.95 C103.838,314.95 104.902,313.928 105.308,312.57 L106.526,313.018 C105.994,314.88 104.426,316.21 102.144,316.21 Z M110.81,315.034 C111.93,315.034 112.91,314.194 112.91,312.626 C112.91,311.072 111.93,310.232 110.81,310.232 C109.69,310.232 108.71,311.072 108.71,312.626 C108.71,314.194 109.69,315.034 110.81,315.034 Z M110.81,309.056 C112.826,309.056 114.254,310.582 114.254,312.626 C114.254,314.684 112.826,316.21 110.81,316.21 C108.794,316.21 107.366,314.684 107.366,312.626 C107.366,310.582 108.794,309.056 110.81,309.056 Z M117.25,316 L115.934,316 L115.934,305.864 L117.25,305.864 L117.25,316 Z M122.374,315.034 C123.494,315.034 124.474,314.194 124.474,312.626 C124.474,311.072 123.494,310.232 122.374,310.232 C121.254,310.232 120.274,311.072 120.274,312.626 C120.274,314.194 121.254,315.034 122.374,315.034 Z M122.374,309.056 C124.39,309.056 125.818,310.582 125.818,312.626 C125.818,314.684 124.39,316.21 122.374,316.21 C120.358,316.21 118.93,314.684 118.93,312.626 C118.93,310.582 120.358,309.056 122.374,309.056 Z M131.236,309.196 L131.236,310.596 C131.04,310.568 130.844,310.554 130.662,310.554 C129.556,310.554 128.814,311.142 128.814,312.626 L128.814,316 L127.498,316 L127.498,309.266 L128.786,309.266 L128.786,310.442 C129.276,309.406 130.116,309.154 130.802,309.154 C130.984,309.154 131.166,309.182 131.236,309.196 Z M137.074,311.464 C137.074,312.85 137.326,313.83 137.872,314.404 C138.222,314.768 138.67,314.992 139.314,314.992 C139.958,314.992 140.406,314.768 140.756,314.404 C141.302,313.83 141.554,312.85 141.554,311.464 C141.554,310.078 141.302,309.098 140.756,308.524 C140.406,308.16 139.958,307.936 139.314,307.936 C138.67,307.936 138.222,308.16 137.872,308.524 C137.326,309.098 137.074,310.078 137.074,311.464 Z M135.716,311.464 C135.716,310.218 135.926,309.07 136.528,308.174 C137.116,307.292 138.026,306.718 139.314,306.718 C140.602,306.718 141.512,307.292 142.1,308.174 C142.702,309.07 142.912,310.218 142.912,311.464 C142.912,312.71 142.702,313.858 142.1,314.754 C141.512,315.636 140.602,316.21 139.314,316.21 C138.026,316.21 137.116,315.636 136.528,314.754 C135.926,313.858 135.716,312.71 135.716,311.464 Z M145.6,311.464 C145.6,312.85 145.852,313.83 146.398,314.404 C146.748,314.768 147.196,314.992 147.84,314.992 C148.484,314.992 148.932,314.768 149.282,314.404 C149.828,313.83 150.08,312.85 150.08,311.464 C150.08,310.078 149.828,309.098 149.282,308.524 C148.932,308.16 148.484,307.936 147.84,307.936 C147.196,307.936 146.748,308.16 146.398,308.524 C145.852,309.098 145.6,310.078 145.6,311.464 Z M144.242,311.464 C144.242,310.218 144.452,309.07 145.054,308.174 C145.642,307.292 146.552,306.718 147.84,306.718 C149.128,306.718 150.038,307.292 150.626,308.174 C151.228,309.07 151.438,310.218 151.438,311.464 C151.438,312.71 151.228,313.858 150.626,314.754 C150.038,315.636 149.128,316.21 147.84,316.21 C146.552,316.21 145.642,315.636 145.054,314.754 C144.452,313.858 144.242,312.71 144.242,311.464 Z M154.126,311.464 C154.126,312.85 154.378,313.83 154.924,314.404 C155.274,314.768 155.722,314.992 156.366,314.992 C157.01,314.992 157.458,314.768 157.808,314.404 C158.354,313.83 158.606,312.85 158.606,311.464 C158.606,310.078 158.354,309.098 157.808,308.524 C157.458,308.16 157.01,307.936 156.366,307.936 C155.722,307.936 155.274,308.16 154.924,308.524 C154.378,309.098 154.126,310.078 154.126,311.464 Z M152.768,311.464 C152.768,310.218 152.978,309.07 153.58,308.174 C154.168,307.292 155.078,306.718 156.366,306.718 C157.654,306.718 158.564,307.292 159.152,308.174 C159.754,309.07 159.964,310.218 159.964,311.464 C159.964,312.71 159.754,313.858 159.152,314.754 C158.564,315.636 157.654,316.21 156.366,316.21 C155.078,316.21 154.168,315.636 153.58,314.754 C152.978,313.858 152.768,312.71 152.768,311.464 Z M162.652,311.464 C162.652,312.85 162.904,313.83 163.45,314.404 C163.8,314.768 164.248,314.992 164.892,314.992 C165.536,314.992 165.984,314.768 166.334,314.404 C166.88,313.83 167.132,312.85 167.132,311.464 C167.132,310.078 166.88,309.098 166.334,308.524 C165.984,308.16 165.536,307.936 164.892,307.936 C164.248,307.936 163.8,308.16 163.45,308.524 C162.904,309.098 162.652,310.078 162.652,311.464 Z M161.294,311.464 C161.294,310.218 161.504,309.07 162.106,308.174 C162.694,307.292 163.604,306.718 164.892,306.718 C166.18,306.718 167.09,307.292 167.678,308.174 C168.28,309.07 168.49,310.218 168.49,311.464 C168.49,312.71 168.28,313.858 167.678,314.754 C167.09,315.636 166.18,316.21 164.892,316.21 C163.604,316.21 162.694,315.636 162.106,314.754 C161.504,313.858 161.294,312.71 161.294,311.464 Z M171.178,311.464 C171.178,312.85 171.43,313.83 171.976,314.404 C172.326,314.768 172.774,314.992 173.418,314.992 C174.062,314.992 174.51,314.768 174.86,314.404 C175.406,313.83 175.658,312.85 175.658,311.464 C175.658,310.078 175.406,309.098 174.86,308.524 C174.51,308.16 174.062,307.936 173.418,307.936 C172.774,307.936 172.326,308.16 171.976,308.524 C171.43,309.098 171.178,310.078 171.178,311.464 Z M169.82,311.464 C169.82,310.218 170.03,309.07 170.632,308.174 C171.22,307.292 172.13,306.718 173.418,306.718 C174.706,306.718 175.616,307.292 176.204,308.174 C176.806,309.07 177.016,310.218 177.016,311.464 C177.016,312.71 176.806,313.858 176.204,314.754 C175.616,315.636 174.706,316.21 173.418,316.21 C172.13,316.21 171.22,315.636 170.632,314.754 C170.03,313.858 169.82,312.71 169.82,311.464 Z M179.704,311.464 C179.704,312.85 179.956,313.83 180.502,314.404 C180.852,314.768 181.3,314.992 181.944,314.992 C182.588,314.992 183.036,314.768 183.386,314.404 C183.932,313.83 184.184,312.85 184.184,311.464 C184.184,310.078 183.932,309.098 183.386,308.524 C183.036,308.16 182.588,307.936 181.944,307.936 C181.3,307.936 180.852,308.16 180.502,308.524 C179.956,309.098 179.704,310.078 179.704,311.464 Z M178.346,311.464 C178.346,310.218 178.556,309.07 179.158,308.174 C179.746,307.292 180.656,306.718 181.944,306.718 C183.232,306.718 184.142,307.292 184.73,308.174 C185.332,309.07 185.542,310.218 185.542,311.464 C185.542,312.71 185.332,313.858 184.73,314.754 C184.142,315.636 183.232,316.21 181.944,316.21 C180.656,316.21 179.746,315.636 179.158,314.754 C178.556,313.858 178.346,312.71 178.346,311.464 Z M190.232,313.536 L191.548,313.144 C191.632,314.264 192.458,315.02 193.592,315.02 C194.67,315.02 195.538,314.306 195.538,313.186 C195.538,311.94 194.628,311.31 193.578,311.31 C192.934,311.31 192.318,311.562 191.926,311.968 C191.45,311.786 191.044,311.604 190.582,311.436 L191.758,306.928 L196.546,306.928 L196.546,308.188 L192.668,308.188 L191.996,310.792 C192.402,310.344 193.13,310.12 193.844,310.12 C195.622,310.12 196.924,311.254 196.924,313.13 C196.924,314.838 195.608,316.224 193.592,316.224 C191.66,316.224 190.358,314.964 190.232,313.536 Z M197.904,313.956 L197.904,312.374 L201.796,306.928 L203.686,306.928 L203.686,312.682 L205.24,312.682 L205.24,313.956 L203.686,313.956 L203.686,316 L202.356,316 L202.356,313.956 L197.904,313.956 Z M202.356,312.682 L202.356,308.244 L199.164,312.682 L202.356,312.682 Z M207.242,309.028 C207.242,309.672 207.718,310.134 208.32,310.134 C208.936,310.134 209.398,309.672 209.398,309.028 C209.398,308.398 208.936,307.936 208.32,307.936 C207.718,307.936 207.242,308.398 207.242,309.028 Z M206.08,309.028 C206.08,307.796 207.116,306.83 208.32,306.83 C209.524,306.83 210.574,307.796 210.574,309.028 C210.574,310.274 209.524,311.24 208.32,311.24 C207.116,311.24 206.08,310.274 206.08,309.028 Z M212.786,313.9 C212.786,314.544 213.262,315.006 213.864,315.006 C214.48,315.006 214.942,314.544 214.942,313.9 C214.942,313.27 214.48,312.808 213.864,312.808 C213.262,312.808 212.786,313.27 212.786,313.9 Z M211.624,313.9 C211.624,312.668 212.66,311.702 213.864,311.702 C215.068,311.702 216.118,312.668 216.118,313.9 C216.118,315.146 215.068,316.112 213.864,316.112 C212.66,316.112 211.624,315.146 211.624,313.9 Z M208.488,316 L207.2,316 L213.724,306.928 L214.984,306.928 L208.488,316 Z M5.558,334.21 C2.996,334.21 0.63,332.348 0.63,329.03 C0.63,325.712 3.094,323.864 5.558,323.864 C7.826,323.864 9.422,325.096 9.926,327.014 L8.652,327.462 C8.274,325.964 7.182,325.124 5.558,325.124 C3.752,325.124 2.03,326.44 2.03,329.03 C2.03,331.62 3.752,332.95 5.558,332.95 C7.252,332.95 8.316,331.928 8.722,330.57 L9.94,331.018 C9.408,332.88 7.84,334.21 5.558,334.21 Z M10.92,332.194 C10.92,330.99 11.802,330.318 12.964,330.15 L14.784,329.884 C15.19,329.828 15.302,329.618 15.302,329.38 C15.302,328.722 14.868,328.176 13.846,328.176 C12.922,328.176 12.404,328.75 12.32,329.534 L11.06,329.24 C11.2,327.952 12.362,327.056 13.818,327.056 C15.834,327.056 16.618,328.204 16.618,329.52 L16.618,332.894 C16.618,333.482 16.674,333.832 16.702,334 L15.414,334 C15.386,333.832 15.344,333.58 15.344,333.09 C15.05,333.566 14.378,334.21 13.174,334.21 C11.802,334.21 10.92,333.258 10.92,332.194 Z M13.356,333.104 C14.434,333.104 15.302,332.586 15.302,331.116 L15.302,330.808 L13.244,331.116 C12.684,331.2 12.264,331.522 12.264,332.124 C12.264,332.628 12.684,333.104 13.356,333.104 Z M19.964,336.66 L18.662,336.66 L18.662,327.266 L19.936,327.266 L19.936,328.316 C20.3,327.644 21.098,327.112 22.19,327.112 C24.206,327.112 25.284,328.666 25.284,330.626 C25.284,332.628 24.122,334.182 22.148,334.182 C21.112,334.182 20.328,333.692 19.964,333.09 L19.964,336.66 Z M23.94,330.626 C23.94,329.282 23.184,328.274 21.952,328.274 C20.748,328.274 19.95,329.282 19.95,330.626 C19.95,332.012 20.748,333.006 21.952,333.006 C23.17,333.006 23.94,332.012 23.94,330.626 Z M26.334,332.25 L27.524,331.83 C27.608,332.53 28.14,333.09 29.092,333.09 C29.834,333.09 30.24,332.67 30.24,332.194 C30.24,331.774 29.932,331.452 29.372,331.326 L28.224,331.074 C27.174,330.85 26.544,330.136 26.544,329.184 C26.544,328.036 27.622,327.056 28.938,327.056 C30.786,327.056 31.36,328.26 31.5,328.862 L30.338,329.296 C30.282,328.946 30.002,328.176 28.938,328.176 C28.266,328.176 27.818,328.61 27.818,329.072 C27.818,329.478 28.07,329.772 28.588,329.884 L29.68,330.122 C30.898,330.388 31.542,331.13 31.542,332.124 C31.542,333.076 30.744,334.21 29.078,334.21 C27.23,334.21 26.446,333.02 26.334,332.25 Z M37.66,333.188 C37.296,333.888 36.456,334.21 35.672,334.21 C34.104,334.21 33.152,333.034 33.152,331.508 L33.152,327.266 L34.468,327.266 L34.468,331.312 C34.468,332.236 34.888,333.048 35.994,333.048 C37.058,333.048 37.59,332.348 37.59,331.326 L37.59,327.266 L38.906,327.266 L38.906,332.754 C38.906,333.286 38.948,333.762 38.976,334 L37.716,334 C37.688,333.846 37.66,333.468 37.66,333.188 Z M42.462,334 L41.146,334 L41.146,323.864 L42.462,323.864 L42.462,334 Z M49.714,334 L48.342,334 L48.342,324.074 L54.376,324.074 L54.376,325.348 L49.714,325.348 L49.714,328.54 L53.942,328.54 L53.942,329.828 L49.714,329.828 L49.714,334 Z M57.148,334 L55.846,334 L55.846,327.266 L57.148,327.266 L57.148,334 Z M55.552,324.718 C55.552,324.186 55.972,323.766 56.49,323.766 C57.022,323.766 57.442,324.186 57.442,324.718 C57.442,325.236 57.022,325.656 56.49,325.656 C55.972,325.656 55.552,325.236 55.552,324.718 Z M60.704,334 L59.388,334 L59.388,323.864 L60.704,323.864 L60.704,334 Z M64.26,334 L62.944,334 L62.944,323.864 L64.26,323.864 L64.26,334 Z M74.438,334.21 C71.876,334.21 69.51,332.348 69.51,329.03 C69.51,325.712 71.974,323.864 74.438,323.864 C76.706,323.864 78.302,325.096 78.806,327.014 L77.532,327.462 C77.154,325.964 76.062,325.124 74.438,325.124 C72.632,325.124 70.91,326.44 70.91,329.03 C70.91,331.62 72.632,332.95 74.438,332.95 C76.132,332.95 77.196,331.928 77.602,330.57 L78.82,331.018 C78.288,332.88 76.72,334.21 74.438,334.21 Z M83.104,333.034 C84.224,333.034 85.204,332.194 85.204,330.626 C85.204,329.072 84.224,328.232 83.104,328.232 C81.984,328.232 81.004,329.072 81.004,330.626 C81.004,332.194 81.984,333.034 83.104,333.034 Z M83.104,327.056 C85.12,327.056 86.548,328.582 86.548,330.626 C86.548,332.684 85.12,334.21 83.104,334.21 C81.088,334.21 79.66,332.684 79.66,330.626 C79.66,328.582 81.088,327.056 83.104,327.056 Z M89.544,334 L88.228,334 L88.228,323.864 L89.544,323.864 L89.544,334 Z M94.668,333.034 C95.788,333.034 96.768,332.194 96.768,330.626 C96.768,329.072 95.788,328.232 94.668,328.232 C93.548,328.232 92.568,329.072 92.568,330.626 C92.568,332.194 93.548,333.034 94.668,333.034 Z M94.668,327.056 C96.684,327.056 98.112,328.582 98.112,330.626 C98.112,332.684 96.684,334.21 94.668,334.21 C92.652,334.21 91.224,332.684 91.224,330.626 C91.224,328.582 92.652,327.056 94.668,327.056 Z M103.53,327.196 L103.53,328.596 C103.334,328.568 103.138,328.554 102.956,328.554 C101.85,328.554 101.108,329.142 101.108,330.626 L101.108,334 L99.792,334 L99.792,327.266 L101.08,327.266 L101.08,328.442 C101.57,327.406 102.41,327.154 103.096,327.154 C103.278,327.154 103.46,327.182 103.53,327.196 Z M109.942,334 L108.57,334 L108.57,324.074 L114.604,324.074 L114.604,325.348 L109.942,325.348 L109.942,328.54 L114.17,328.54 L114.17,329.828 L109.942,329.828 L109.942,334 Z M118.174,329.786 L117.502,328.652 L120.176,326.188 L115.836,326.188 L115.836,324.928 L121.996,324.928 L121.996,326.16 L119.406,328.554 C120.736,328.554 122.206,329.45 122.206,331.312 C122.206,332.838 121.03,334.224 118.916,334.224 C116.816,334.224 115.626,332.852 115.542,331.368 L116.886,331.06 C116.942,332.264 117.81,333.02 118.902,333.02 C120.148,333.02 120.82,332.25 120.82,331.34 C120.82,330.15 119.868,329.646 118.972,329.646 C118.692,329.646 118.412,329.702 118.174,329.786 Z M125.398,334 L124.026,334 L124.026,324.074 L130.06,324.074 L130.06,325.348 L125.398,325.348 L125.398,328.54 L129.626,328.54 L129.626,329.828 L125.398,329.828 L125.398,334 Z M133.63,329.786 L132.958,328.652 L135.632,326.188 L131.292,326.188 L131.292,324.928 L137.452,324.928 L137.452,326.16 L134.862,328.554 C136.192,328.554 137.662,329.45 137.662,331.312 C137.662,332.838 136.486,334.224 134.372,334.224 C132.272,334.224 131.082,332.852 130.998,331.368 L132.342,331.06 C132.398,332.264 133.266,333.02 134.358,333.02 C135.604,333.02 136.276,332.25 136.276,331.34 C136.276,330.15 135.324,329.646 134.428,329.646 C134.148,329.646 133.868,329.702 133.63,329.786 Z M140.854,334 L139.482,334 L139.482,324.074 L145.516,324.074 L145.516,325.348 L140.854,325.348 L140.854,328.54 L145.082,328.54 L145.082,329.828 L140.854,329.828 L140.854,334 Z M149.086,329.786 L148.414,328.652 L151.088,326.188 L146.748,326.188 L146.748,324.928 L152.908,324.928 L152.908,326.16 L150.318,328.554 C151.648,328.554 153.118,329.45 153.118,331.312 C153.118,332.838 151.942,334.224 149.828,334.224 C147.728,334.224 146.538,332.852 146.454,331.368 L147.798,331.06 C147.854,332.264 148.722,333.02 149.814,333.02 C151.06,333.02 151.732,332.25 151.732,331.34 C151.732,330.15 150.78,329.646 149.884,329.646 C149.604,329.646 149.324,329.702 149.086,329.786 Z M161.07,334 L159.726,334 L159.726,327.602 L157.528,327.602 L157.528,326.636 C158.788,326.608 159.656,325.908 159.866,324.928 L161.07,324.928 L161.07,334 Z M164.248,329.464 C164.248,330.85 164.5,331.83 165.046,332.404 C165.396,332.768 165.844,332.992 166.488,332.992 C167.132,332.992 167.58,332.768 167.93,332.404 C168.476,331.83 168.728,330.85 168.728,329.464 C168.728,328.078 168.476,327.098 167.93,326.524 C167.58,326.16 167.132,325.936 166.488,325.936 C165.844,325.936 165.396,326.16 165.046,326.524 C164.5,327.098 164.248,328.078 164.248,329.464 Z M162.89,329.464 C162.89,328.218 163.1,327.07 163.702,326.174 C164.29,325.292 165.2,324.718 166.488,324.718 C167.776,324.718 168.686,325.292 169.274,326.174 C169.876,327.07 170.086,328.218 170.086,329.464 C170.086,330.71 169.876,331.858 169.274,332.754 C168.686,333.636 167.776,334.21 166.488,334.21 C165.2,334.21 164.29,333.636 163.702,332.754 C163.1,331.858 162.89,330.71 162.89,329.464 Z M172.774,329.464 C172.774,330.85 173.026,331.83 173.572,332.404 C173.922,332.768 174.37,332.992 175.014,332.992 C175.658,332.992 176.106,332.768 176.456,332.404 C177.002,331.83 177.254,330.85 177.254,329.464 C177.254,328.078 177.002,327.098 176.456,326.524 C176.106,326.16 175.658,325.936 175.014,325.936 C174.37,325.936 173.922,326.16 173.572,326.524 C173.026,327.098 172.774,328.078 172.774,329.464 Z M171.416,329.464 C171.416,328.218 171.626,327.07 172.228,326.174 C172.816,325.292 173.726,324.718 175.014,324.718 C176.302,324.718 177.212,325.292 177.8,326.174 C178.402,327.07 178.612,328.218 178.612,329.464 C178.612,330.71 178.402,331.858 177.8,332.754 C177.212,333.636 176.302,334.21 175.014,334.21 C173.726,334.21 172.816,333.636 172.228,332.754 C171.626,331.858 171.416,330.71 171.416,329.464 Z M180.964,327.028 C180.964,327.672 181.44,328.134 182.042,328.134 C182.658,328.134 183.12,327.672 183.12,327.028 C183.12,326.398 182.658,325.936 182.042,325.936 C181.44,325.936 180.964,326.398 180.964,327.028 Z M179.802,327.028 C179.802,325.796 180.838,324.83 182.042,324.83 C183.246,324.83 184.296,325.796 184.296,327.028 C184.296,328.274 183.246,329.24 182.042,329.24 C180.838,329.24 179.802,328.274 179.802,327.028 Z M186.508,331.9 C186.508,332.544 186.984,333.006 187.586,333.006 C188.202,333.006 188.664,332.544 188.664,331.9 C188.664,331.27 188.202,330.808 187.586,330.808 C186.984,330.808 186.508,331.27 186.508,331.9 Z M185.346,331.9 C185.346,330.668 186.382,329.702 187.586,329.702 C188.79,329.702 189.84,330.668 189.84,331.9 C189.84,333.146 188.79,334.112 187.586,334.112 C186.382,334.112 185.346,333.146 185.346,331.9 Z M182.21,334 L180.922,334 L187.446,324.928 L188.706,324.928 L182.21,334 Z M5.558,352.21 C2.996,352.21 0.63,350.348 0.63,347.03 C0.63,343.712 3.094,341.864 5.558,341.864 C7.826,341.864 9.422,343.096 9.926,345.014 L8.652,345.462 C8.274,343.964 7.182,343.124 5.558,343.124 C3.752,343.124 2.03,344.44 2.03,347.03 C2.03,349.62 3.752,350.95 5.558,350.95 C7.252,350.95 8.316,349.928 8.722,348.57 L9.94,349.018 C9.408,350.88 7.84,352.21 5.558,352.21 Z M10.92,350.194 C10.92,348.99 11.802,348.318 12.964,348.15 L14.784,347.884 C15.19,347.828 15.302,347.618 15.302,347.38 C15.302,346.722 14.868,346.176 13.846,346.176 C12.922,346.176 12.404,346.75 12.32,347.534 L11.06,347.24 C11.2,345.952 12.362,345.056 13.818,345.056 C15.834,345.056 16.618,346.204 16.618,347.52 L16.618,350.894 C16.618,351.482 16.674,351.832 16.702,352 L15.414,352 C15.386,351.832 15.344,351.58 15.344,351.09 C15.05,351.566 14.378,352.21 13.174,352.21 C11.802,352.21 10.92,351.258 10.92,350.194 Z M13.356,351.104 C14.434,351.104 15.302,350.586 15.302,349.116 L15.302,348.808 L13.244,349.116 C12.684,349.2 12.264,349.522 12.264,350.124 C12.264,350.628 12.684,351.104 13.356,351.104 Z M19.964,354.66 L18.662,354.66 L18.662,345.266 L19.936,345.266 L19.936,346.316 C20.3,345.644 21.098,345.112 22.19,345.112 C24.206,345.112 25.284,346.666 25.284,348.626 C25.284,350.628 24.122,352.182 22.148,352.182 C21.112,352.182 20.328,351.692 19.964,351.09 L19.964,354.66 Z M23.94,348.626 C23.94,347.282 23.184,346.274 21.952,346.274 C20.748,346.274 19.95,347.282 19.95,348.626 C19.95,350.012 20.748,351.006 21.952,351.006 C23.17,351.006 23.94,350.012 23.94,348.626 Z M26.334,350.25 L27.524,349.83 C27.608,350.53 28.14,351.09 29.092,351.09 C29.834,351.09 30.24,350.67 30.24,350.194 C30.24,349.774 29.932,349.452 29.372,349.326 L28.224,349.074 C27.174,348.85 26.544,348.136 26.544,347.184 C26.544,346.036 27.622,345.056 28.938,345.056 C30.786,345.056 31.36,346.26 31.5,346.862 L30.338,347.296 C30.282,346.946 30.002,346.176 28.938,346.176 C28.266,346.176 27.818,346.61 27.818,347.072 C27.818,347.478 28.07,347.772 28.588,347.884 L29.68,348.122 C30.898,348.388 31.542,349.13 31.542,350.124 C31.542,351.076 30.744,352.21 29.078,352.21 C27.23,352.21 26.446,351.02 26.334,350.25 Z M37.66,351.188 C37.296,351.888 36.456,352.21 35.672,352.21 C34.104,352.21 33.152,351.034 33.152,349.508 L33.152,345.266 L34.468,345.266 L34.468,349.312 C34.468,350.236 34.888,351.048 35.994,351.048 C37.058,351.048 37.59,350.348 37.59,349.326 L37.59,345.266 L38.906,345.266 L38.906,350.754 C38.906,351.286 38.948,351.762 38.976,352 L37.716,352 C37.688,351.846 37.66,351.468 37.66,351.188 Z M42.462,352 L41.146,352 L41.146,341.864 L42.462,341.864 L42.462,352 Z M49.112,347.03 C49.112,349.62 50.848,350.95 52.696,350.95 C54.544,350.95 56.28,349.62 56.28,347.03 C56.28,344.44 54.544,343.124 52.696,343.124 C50.848,343.124 49.112,344.44 49.112,347.03 Z M47.712,347.03 C47.712,343.712 50.204,341.864 52.696,341.864 C55.188,341.864 57.68,343.712 57.68,347.03 C57.68,350.348 55.188,352.21 52.696,352.21 C50.204,352.21 47.712,350.348 47.712,347.03 Z M63.868,351.188 C63.504,351.888 62.664,352.21 61.88,352.21 C60.312,352.21 59.36,351.034 59.36,349.508 L59.36,345.266 L60.676,345.266 L60.676,349.312 C60.676,350.236 61.096,351.048 62.202,351.048 C63.266,351.048 63.798,350.348 63.798,349.326 L63.798,345.266 L65.114,345.266 L65.114,350.754 C65.114,351.286 65.156,351.762 65.184,352 L63.924,352 C63.896,351.846 63.868,351.468 63.868,351.188 Z M69.118,343.138 L69.118,345.266 L70.574,345.266 L70.574,346.456 L69.118,346.456 L69.118,349.956 C69.118,350.572 69.37,350.88 70.056,350.88 C70.224,350.88 70.462,350.852 70.574,350.824 L70.574,351.944 C70.462,351.986 70.126,352.07 69.678,352.07 C68.53,352.07 67.802,351.37 67.802,350.152 L67.802,346.456 L66.514,346.456 L66.514,345.266 L66.878,345.266 C67.606,345.266 67.914,344.818 67.914,344.23 L67.914,343.138 L69.118,343.138 Z M73.64,352 L72.324,352 L72.324,341.864 L73.64,341.864 L73.64,352 Z M77.182,352 L75.88,352 L75.88,345.266 L77.182,345.266 L77.182,352 Z M75.586,342.718 C75.586,342.186 76.006,341.766 76.524,341.766 C77.056,341.766 77.476,342.186 77.476,342.718 C77.476,343.236 77.056,343.656 76.524,343.656 C76.006,343.656 75.586,343.236 75.586,342.718 Z M80.738,348.108 L80.738,352 L79.422,352 L79.422,345.266 L80.71,345.266 L80.71,346.232 C81.2,345.392 81.998,345.07 82.782,345.07 C84.392,345.07 85.19,346.232 85.19,347.73 L85.19,352 L83.874,352 L83.874,347.954 C83.874,347.016 83.482,346.26 82.306,346.26 C81.27,346.26 80.738,347.086 80.738,348.108 Z M88.144,347.94 L91.826,347.94 C91.798,346.974 91.168,346.218 89.978,346.218 C88.872,346.218 88.2,347.072 88.144,347.94 Z M92.022,349.69 L93.156,350.082 C92.778,351.272 91.7,352.21 90.132,352.21 C88.326,352.21 86.744,350.894 86.744,348.612 C86.744,346.498 88.27,345.056 89.964,345.056 C92.036,345.056 93.198,346.484 93.198,348.584 C93.198,348.752 93.184,348.92 93.17,349.004 L88.102,349.004 C88.13,350.208 88.998,351.048 90.132,351.048 C91.224,351.048 91.77,350.446 92.022,349.69 Z M105.406,343.348 L102.088,343.348 L102.088,352 L100.716,352 L100.716,343.348 L97.398,343.348 L97.398,342.074 L105.406,342.074 L105.406,343.348 Z M107.982,348.038 L107.982,352 L106.666,352 L106.666,341.864 L107.982,341.864 L107.982,346.05 C108.472,345.336 109.256,345.07 110.026,345.07 C111.636,345.07 112.434,346.232 112.434,347.73 L112.434,352 L111.118,352 L111.118,347.954 C111.118,347.016 110.726,346.26 109.55,346.26 C108.542,346.26 108.01,347.044 107.982,348.038 Z M115.836,352 L114.534,352 L114.534,345.266 L115.836,345.266 L115.836,352 Z M114.24,342.718 C114.24,342.186 114.66,341.766 115.178,341.766 C115.71,341.766 116.13,342.186 116.13,342.718 C116.13,343.236 115.71,343.656 115.178,343.656 C114.66,343.656 114.24,343.236 114.24,342.718 Z M120.904,346.274 C119.84,346.274 118.86,347.058 118.86,348.626 C118.86,350.166 119.826,350.992 120.918,350.992 C122.178,350.992 122.64,350.138 122.794,349.606 L123.956,350.11 C123.634,351.076 122.668,352.21 120.918,352.21 C118.958,352.21 117.516,350.67 117.516,348.626 C117.516,346.526 118.986,345.056 120.904,345.056 C122.696,345.056 123.62,346.176 123.9,347.198 L122.71,347.702 C122.542,347.044 122.052,346.274 120.904,346.274 Z M131.53,345.266 L128.66,348.108 L131.586,352 L129.934,352 L127.736,349.032 L126.798,349.97 L126.798,352 L125.496,352 L125.496,341.864 L126.798,341.864 L126.798,348.248 L129.71,345.266 L131.53,345.266 Z M134.162,348.108 L134.162,352 L132.846,352 L132.846,345.266 L134.134,345.266 L134.134,346.232 C134.624,345.392 135.422,345.07 136.206,345.07 C137.816,345.07 138.614,346.232 138.614,347.73 L138.614,352 L137.298,352 L137.298,347.954 C137.298,347.016 136.906,346.26 135.73,346.26 C134.694,346.26 134.162,347.086 134.162,348.108 Z M141.568,347.94 L145.25,347.94 C145.222,346.974 144.592,346.218 143.402,346.218 C142.296,346.218 141.624,347.072 141.568,347.94 Z M145.446,349.69 L146.58,350.082 C146.202,351.272 145.124,352.21 143.556,352.21 C141.75,352.21 140.168,350.894 140.168,348.612 C140.168,346.498 141.694,345.056 143.388,345.056 C145.46,345.056 146.622,346.484 146.622,348.584 C146.622,348.752 146.608,348.92 146.594,349.004 L141.526,349.004 C141.554,350.208 142.422,351.048 143.556,351.048 C144.648,351.048 145.194,350.446 145.446,349.69 Z M147.672,350.25 L148.862,349.83 C148.946,350.53 149.478,351.09 150.43,351.09 C151.172,351.09 151.578,350.67 151.578,350.194 C151.578,349.774 151.27,349.452 150.71,349.326 L149.562,349.074 C148.512,348.85 147.882,348.136 147.882,347.184 C147.882,346.036 148.96,345.056 150.276,345.056 C152.124,345.056 152.698,346.26 152.838,346.862 L151.676,347.296 C151.62,346.946 151.34,346.176 150.276,346.176 C149.604,346.176 149.156,346.61 149.156,347.072 C149.156,347.478 149.408,347.772 149.926,347.884 L151.018,348.122 C152.236,348.388 152.88,349.13 152.88,350.124 C152.88,351.076 152.082,352.21 150.416,352.21 C148.568,352.21 147.784,351.02 147.672,350.25 Z M160.902,352 L159.558,352 L159.558,345.602 L157.36,345.602 L157.36,344.636 C158.62,344.608 159.488,343.908 159.698,342.928 L160.902,342.928 L160.902,352 Z M164.374,354.66 L163.072,354.66 L163.072,345.266 L164.346,345.266 L164.346,346.316 C164.71,345.644 165.508,345.112 166.6,345.112 C168.616,345.112 169.694,346.666 169.694,348.626 C169.694,350.628 168.532,352.182 166.558,352.182 C165.522,352.182 164.738,351.692 164.374,351.09 L164.374,354.66 Z M168.35,348.626 C168.35,347.282 167.594,346.274 166.362,346.274 C165.158,346.274 164.36,347.282 164.36,348.626 C164.36,350.012 165.158,351.006 166.362,351.006 C167.58,351.006 168.35,350.012 168.35,348.626 Z M170.254,352 L172.76,348.57 L170.338,345.266 L171.934,345.266 L173.586,347.632 L175.21,345.266 L176.764,345.266 L174.37,348.57 C174.776,349.116 176.442,351.454 176.848,352 L175.266,352 L173.53,349.522 L171.822,352 L170.254,352 Z M177.968,351.104 C177.968,350.6 178.402,350.166 178.99,350.166 C179.592,350.166 180.124,350.614 180.124,351.496 C180.124,353.344 178.92,354.114 178.052,354.226 L178.052,353.498 C178.738,353.344 179.2,352.658 179.214,351.986 C179.172,352.014 179.06,352.056 178.906,352.056 C178.388,352.056 177.968,351.706 177.968,351.104 Z M190.162,352.21 C187.6,352.21 185.234,350.348 185.234,347.03 C185.234,343.712 187.698,341.864 190.162,341.864 C192.43,341.864 194.026,343.096 194.53,345.014 L193.256,345.462 C192.878,343.964 191.786,343.124 190.162,343.124 C188.356,343.124 186.634,344.44 186.634,347.03 C186.634,349.62 188.356,350.95 190.162,350.95 C191.856,350.95 192.92,349.928 193.326,348.57 L194.544,349.018 C194.012,350.88 192.444,352.21 190.162,352.21 Z M198.828,351.034 C199.948,351.034 200.928,350.194 200.928,348.626 C200.928,347.072 199.948,346.232 198.828,346.232 C197.708,346.232 196.728,347.072 196.728,348.626 C196.728,350.194 197.708,351.034 198.828,351.034 Z M198.828,345.056 C200.844,345.056 202.272,346.582 202.272,348.626 C202.272,350.684 200.844,352.21 198.828,352.21 C196.812,352.21 195.384,350.684 195.384,348.626 C195.384,346.582 196.812,345.056 198.828,345.056 Z M205.268,352 L203.952,352 L203.952,341.864 L205.268,341.864 L205.268,352 Z M210.392,351.034 C211.512,351.034 212.492,350.194 212.492,348.626 C212.492,347.072 211.512,346.232 210.392,346.232 C209.272,346.232 208.292,347.072 208.292,348.626 C208.292,350.194 209.272,351.034 210.392,351.034 Z M210.392,345.056 C212.408,345.056 213.836,346.582 213.836,348.626 C213.836,350.684 212.408,352.21 210.392,352.21 C208.376,352.21 206.948,350.684 206.948,348.626 C206.948,346.582 208.376,345.056 210.392,345.056 Z M219.254,345.196 L219.254,346.596 C219.058,346.568 218.862,346.554 218.68,346.554 C217.574,346.554 216.832,347.142 216.832,348.626 L216.832,352 L215.516,352 L215.516,345.266 L216.804,345.266 L216.804,346.442 C217.294,345.406 218.134,345.154 218.82,345.154 C219.002,345.154 219.184,345.182 219.254,345.196 Z M226.954,346.792 C227.92,346.778 228.634,346.19 228.634,345.308 C228.634,344.496 227.976,343.852 226.954,343.852 C225.932,343.852 225.274,344.496 225.274,345.308 C225.274,346.19 225.988,346.778 226.954,346.792 Z M226.954,351.02 C228.172,351.02 228.858,350.348 228.858,349.494 C228.858,348.626 228.158,347.94 226.954,347.94 C225.75,347.94 225.05,348.626 225.05,349.494 C225.05,350.348 225.736,351.02 226.954,351.02 Z M226.954,352.21 C224.868,352.21 223.664,351.062 223.664,349.606 C223.664,348.5 224.42,347.688 225.386,347.366 C224.56,347.058 223.902,346.246 223.902,345.238 C223.902,343.754 225.218,342.718 226.954,342.718 C228.69,342.718 230.006,343.754 230.006,345.238 C230.006,346.218 229.362,347.058 228.522,347.366 C229.488,347.674 230.244,348.5 230.244,349.606 C230.244,351.062 229.04,352.21 226.954,352.21 Z M237.566,342.928 L237.566,344.244 C236.726,344.916 234.164,347.198 233.73,352 L232.316,352 C232.722,346.722 236.054,344.188 236.054,344.188 L230.944,344.188 L230.944,342.928 L237.566,342.928 Z M240.268,350.782 L242.298,350.782 C244.132,350.782 245.672,349.55 245.672,347.058 C245.672,344.552 244.16,343.292 242.326,343.292 L240.268,343.292 L240.268,350.782 Z M242.34,352 L238.896,352 L238.896,342.074 L242.368,342.074 C244.888,342.074 247.086,343.796 247.086,347.058 C247.086,350.306 244.86,352 242.34,352 Z M248.206,349.536 L249.522,349.144 C249.606,350.264 250.432,351.02 251.566,351.02 C252.644,351.02 253.512,350.306 253.512,349.186 C253.512,347.94 252.602,347.31 251.552,347.31 C250.908,347.31 250.292,347.562 249.9,347.968 C249.424,347.786 249.018,347.604 248.556,347.436 L249.732,342.928 L254.52,342.928 L254.52,344.188 L250.642,344.188 L249.97,346.792 C250.376,346.344 251.104,346.12 251.818,346.12 C253.596,346.12 254.898,347.254 254.898,349.13 C254.898,350.838 253.582,352.224 251.566,352.224 C249.634,352.224 248.332,350.964 248.206,349.536 Z M259.308,346.792 C260.274,346.778 260.988,346.19 260.988,345.308 C260.988,344.496 260.33,343.852 259.308,343.852 C258.286,343.852 257.628,344.496 257.628,345.308 C257.628,346.19 258.342,346.778 259.308,346.792 Z M259.308,351.02 C260.526,351.02 261.212,350.348 261.212,349.494 C261.212,348.626 260.512,347.94 259.308,347.94 C258.104,347.94 257.404,348.626 257.404,349.494 C257.404,350.348 258.09,351.02 259.308,351.02 Z M259.308,352.21 C257.222,352.21 256.018,351.062 256.018,349.606 C256.018,348.5 256.774,347.688 257.74,347.366 C256.914,347.058 256.256,346.246 256.256,345.238 C256.256,343.754 257.572,342.718 259.308,342.718 C261.044,342.718 262.36,343.754 262.36,345.238 C262.36,346.218 261.716,347.058 260.876,347.366 C261.842,347.674 262.598,348.5 262.598,349.606 C262.598,351.062 261.394,352.21 259.308,352.21 Z M264.488,342.074 L267.722,342.074 C269.612,342.074 270.718,343.194 270.718,344.762 C270.718,345.826 270.102,346.582 269.234,346.904 C270.368,347.184 271.026,348.192 271.026,349.298 C271.026,350.866 269.78,352 267.96,352 L264.488,352 L264.488,342.074 Z M265.86,346.414 L267.568,346.414 C268.674,346.414 269.332,345.756 269.332,344.832 C269.332,343.894 268.646,343.278 267.512,343.278 L265.86,343.278 L265.86,346.414 Z M265.86,350.796 L267.764,350.796 C268.87,350.796 269.626,350.18 269.626,349.214 C269.626,348.262 269.024,347.59 267.82,347.59 L265.86,347.59 L265.86,350.796 Z M279.048,352 L277.704,352 L277.704,345.602 L275.506,345.602 L275.506,344.636 C276.766,344.608 277.634,343.908 277.844,342.928 L279.048,342.928 L279.048,352 Z M282.226,347.464 C282.226,348.85 282.478,349.83 283.024,350.404 C283.374,350.768 283.822,350.992 284.466,350.992 C285.11,350.992 285.558,350.768 285.908,350.404 C286.454,349.83 286.706,348.85 286.706,347.464 C286.706,346.078 286.454,345.098 285.908,344.524 C285.558,344.16 285.11,343.936 284.466,343.936 C283.822,343.936 283.374,344.16 283.024,344.524 C282.478,345.098 282.226,346.078 282.226,347.464 Z M280.868,347.464 C280.868,346.218 281.078,345.07 281.68,344.174 C282.268,343.292 283.178,342.718 284.466,342.718 C285.754,342.718 286.664,343.292 287.252,344.174 C287.854,345.07 288.064,346.218 288.064,347.464 C288.064,348.71 287.854,349.858 287.252,350.754 C286.664,351.636 285.754,352.21 284.466,352.21 C283.178,352.21 282.268,351.636 281.68,350.754 C281.078,349.858 280.868,348.71 280.868,347.464 Z M290.752,347.464 C290.752,348.85 291.004,349.83 291.55,350.404 C291.9,350.768 292.348,350.992 292.992,350.992 C293.636,350.992 294.084,350.768 294.434,350.404 C294.98,349.83 295.232,348.85 295.232,347.464 C295.232,346.078 294.98,345.098 294.434,344.524 C294.084,344.16 293.636,343.936 292.992,343.936 C292.348,343.936 291.9,344.16 291.55,344.524 C291.004,345.098 290.752,346.078 290.752,347.464 Z M289.394,347.464 C289.394,346.218 289.604,345.07 290.206,344.174 C290.794,343.292 291.704,342.718 292.992,342.718 C294.28,342.718 295.19,343.292 295.778,344.174 C296.38,345.07 296.59,346.218 296.59,347.464 C296.59,348.71 296.38,349.858 295.778,350.754 C295.19,351.636 294.28,352.21 292.992,352.21 C291.704,352.21 290.794,351.636 290.206,350.754 C289.604,349.858 289.394,348.71 289.394,347.464 Z M298.942,345.028 C298.942,345.672 299.418,346.134 300.02,346.134 C300.636,346.134 301.098,345.672 301.098,345.028 C301.098,344.398 300.636,343.936 300.02,343.936 C299.418,343.936 298.942,344.398 298.942,345.028 Z M297.78,345.028 C297.78,343.796 298.816,342.83 300.02,342.83 C301.224,342.83 302.274,343.796 302.274,345.028 C302.274,346.274 301.224,347.24 300.02,347.24 C298.816,347.24 297.78,346.274 297.78,345.028 Z M304.486,349.9 C304.486,350.544 304.962,351.006 305.564,351.006 C306.18,351.006 306.642,350.544 306.642,349.9 C306.642,349.27 306.18,348.808 305.564,348.808 C304.962,348.808 304.486,349.27 304.486,349.9 Z M303.324,349.9 C303.324,348.668 304.36,347.702 305.564,347.702 C306.768,347.702 307.818,348.668 307.818,349.9 C307.818,351.146 306.768,352.112 305.564,352.112 C304.36,352.112 303.324,351.146 303.324,349.9 Z M300.188,352 L298.9,352 L305.424,342.928 L306.684,342.928 L300.188,352 Z" id="Chip-Select-Font-Siz" fill-opacity="0.38" fill="#000000"></path>
            </g>
        </g>
    </g>
</svg>