<?xml version="1.0" encoding="UTF-8"?>
<svg width="368px" height="674px" viewBox="0 0 368 674" version="1.1" xmlns="http://www.w3.org/2000/svg" xmlns:xlink="http://www.w3.org/1999/xlink">
    <!-- Generator: Sketch 48.2 (47327) - http://www.bohemiancoding.com/sketch -->
    <title>Group 17</title>
    <desc>Created with Sketch.</desc>
    <defs>
        <filter x="-1.8%" y="-0.9%" width="103.6%" height="102.0%" filterUnits="objectBoundingBox" id="filter-1">
            <feOffset dx="0" dy="1" in="SourceAlpha" result="shadowOffsetOuter1"></feOffset>
            <feGaussianBlur stdDeviation="2" in="shadowOffsetOuter1" result="shadowBlurOuter1"></feGaussianBlur>
            <feColorMatrix values="0 0 0 0 0   0 0 0 0 0   0 0 0 0 0  0 0 0 0.12 0" type="matrix" in="shadowBlurOuter1" result="shadowMatrixOuter1"></feColorMatrix>
            <feMerge>
                <feMergeNode in="shadowMatrixOuter1"></feMergeNode>
                <feMergeNode in="SourceGraphic"></feMergeNode>
            </feMerge>
        </filter>
        <rect id="path-2" x="0" y="0" width="360" height="640"></rect>
        <rect id="path-4" x="0" y="0" width="103" height="40" rx="20"></rect>
        <rect id="path-5" x="0" y="0" width="128" height="40" rx="20"></rect>
        <rect id="path-6" x="0" y="0" width="145" height="40" rx="20"></rect>
        <rect id="path-7" x="0" y="0" width="120" height="40" rx="20"></rect>
        <rect id="path-8" x="0" y="0" width="120" height="40" rx="20"></rect>
        <rect id="path-9" x="0" y="0" width="130" height="40" rx="20"></rect>
        <filter x="-13.8%" y="-45.0%" width="127.7%" height="190.0%" filterUnits="objectBoundingBox" id="filter-10">
            <feOffset dx="0" dy="0" in="SourceAlpha" result="shadowOffsetOuter1"></feOffset>
            <feGaussianBlur stdDeviation="6" in="shadowOffsetOuter1" result="shadowBlurOuter1"></feGaussianBlur>
            <feComposite in="shadowBlurOuter1" in2="SourceAlpha" operator="out" result="shadowBlurOuter1"></feComposite>
            <feColorMatrix values="0 0 0 0 0   0 0 0 0 0   0 0 0 0 0  0 0 0 0.12 0" type="matrix" in="shadowBlurOuter1"></feColorMatrix>
        </filter>
        <rect id="path-11" x="0" y="0" width="360" height="81"></rect>
        <filter x="-3.1%" y="-14.8%" width="106.1%" height="127.2%" filterUnits="objectBoundingBox" id="filter-12">
            <feOffset dx="0" dy="-1" in="SourceAlpha" result="shadowOffsetOuter1"></feOffset>
            <feGaussianBlur stdDeviation="3.5" in="shadowOffsetOuter1" result="shadowBlurOuter1"></feGaussianBlur>
            <feColorMatrix values="0 0 0 0 0   0 0 0 0 0   0 0 0 0 0  0 0 0 0.15 0" type="matrix" in="shadowBlurOuter1"></feColorMatrix>
        </filter>
    </defs>
    <g id="CEKUNIFY-Website---Chips" stroke="none" stroke-width="1" fill="none" fill-rule="evenodd" transform="translate(-1168.000000, -1370.000000)">
        <g id="Group-7" transform="translate(780.000000, 1373.000000)">
            <g id="Group-17" transform="translate(391.000000, 0.000000)">
                <g id="Group" filter="url(#filter-1)" transform="translate(1.000000, 0.000000)">
                    <mask id="mask-3" fill="white">
                        <use xlink:href="#path-2"></use>
                    </mask>
                    <use id="Rectangle-10" fill="#FFFFFF" xlink:href="#path-2"></use>
                    <g id="Group-13" mask="url(#mask-3)">
                        <g transform="translate(16.000000, 243.000000)">
                            <path d="M8,160 L152,160 C156.418278,160 160,156.418278 160,152 L160,8 C160,3.581722 156.418278,-8.11624501e-16 152,0 L8,0 C3.581722,8.11624501e-16 -5.41083001e-16,3.581722 0,8 L0,152 C5.41083001e-16,156.418278 3.581722,160 8,160 Z" id="Fill-9" fill="#DBDBDB"></path>
                            <g id="Group-12" stroke-width="1" fill="none" transform="translate(40.000000, 54.647887)">
                                <path d="M1.60526345,49.6341892 C2.01544994,49.8815862 2.50990955,50.0366448 3.00436916,50.0444849 L23.8834636,50.0741028 L74.6872536,50.142921 C75.7724849,50.1472766 76.7184077,49.5157174 77.17933,48.5252582 C77.6608907,47.5461237 77.4889047,46.3823124 76.8104201,45.5704321 L49.561826,12.295536 C49.0260898,11.6160654 48.1919579,11.2580366 47.333748,11.2798145 C46.4961764,11.3190147 45.7041811,11.7284394 45.2045619,12.4296879 L29.8505162,34.0743118 L21.0568745,23.0686299 C20.5185585,22.394386 19.6981855,22.0189349 18.8442752,22.057264 C17.9912249,22.0712019 17.1914903,22.5050177 16.667793,23.2088796 L0.787470251,45.6044057 C0.164881108,46.4624551 0.0969466578,47.5696438 0.567328234,48.4991248 C0.796069548,48.9991455 1.17873829,49.3789521 1.60526345,49.6341892" id="Fill-27" fill="#F1F1F1"></path>
                                <path d="M71.1906032,18.1887926 C76.0277489,18.1905796 79.9413914,14.2269199 79.9510939,9.33489168 C79.9599144,4.44018293 76.0400975,0.469375017 71.2188287,0.461333327 C66.3843292,0.4559722 62.4583381,4.41337729 62.4495176,9.30719253 C62.4459894,14.2063689 66.3569857,18.1718157 71.1906032,18.1887926" id="Fill-29" fill="#F1F1F1"></path>
                            </g>
                        </g>
                    </g>
                    <g id="Group-13" mask="url(#mask-3)">
                        <g transform="translate(184.000000, 243.000000)">
                            <path d="M8,160 L152,160 C156.418278,160 160,156.418278 160,152 L160,8 C160,3.581722 156.418278,-8.11624501e-16 152,0 L8,0 C3.581722,8.11624501e-16 -5.41083001e-16,3.581722 0,8 L0,152 C5.41083001e-16,156.418278 3.581722,160 8,160 Z" id="Fill-9" fill="#DBDBDB"></path>
                            <g id="Group-12" stroke-width="1" fill="none" transform="translate(40.000000, 54.647887)">
                                <path d="M1.60526345,49.6341892 C2.01544994,49.8815862 2.50990955,50.0366448 3.00436916,50.0444849 L23.8834636,50.0741028 L74.6872536,50.142921 C75.7724849,50.1472766 76.7184077,49.5157174 77.17933,48.5252582 C77.6608907,47.5461237 77.4889047,46.3823124 76.8104201,45.5704321 L49.561826,12.295536 C49.0260898,11.6160654 48.1919579,11.2580366 47.333748,11.2798145 C46.4961764,11.3190147 45.7041811,11.7284394 45.2045619,12.4296879 L29.8505162,34.0743118 L21.0568745,23.0686299 C20.5185585,22.394386 19.6981855,22.0189349 18.8442752,22.057264 C17.9912249,22.0712019 17.1914903,22.5050177 16.667793,23.2088796 L0.787470251,45.6044057 C0.164881108,46.4624551 0.0969466578,47.5696438 0.567328234,48.4991248 C0.796069548,48.9991455 1.17873829,49.3789521 1.60526345,49.6341892" id="Fill-27" fill="#F1F1F1"></path>
                                <path d="M71.1906032,18.1887926 C76.0277489,18.1905796 79.9413914,14.2269199 79.9510939,9.33489168 C79.9599144,4.44018293 76.0400975,0.469375017 71.2188287,0.461333327 C66.3843292,0.4559722 62.4583381,4.41337729 62.4495176,9.30719253 C62.4459894,14.2063689 66.3569857,18.1718157 71.1906032,18.1887926" id="Fill-29" fill="#F1F1F1"></path>
                            </g>
                        </g>
                    </g>
                    <path d="M20,420 L144,420" id="Line-3" stroke="#DBDBDB" stroke-width="8" stroke-linecap="round" mask="url(#mask-3)"></path>
                    <path d="M20,438 L110,438" id="Line-3" stroke="#DBDBDB" stroke-width="8" stroke-linecap="round" mask="url(#mask-3)"></path>
                    <path d="M188,420 L312,420" id="Line-3" stroke="#DBDBDB" stroke-width="8" stroke-linecap="round" mask="url(#mask-3)"></path>
                    <path d="M188,438 L278,438" id="Line-3" stroke="#DBDBDB" stroke-width="8" stroke-linecap="round" mask="url(#mask-3)"></path>
                    <g id="Group-13" mask="url(#mask-3)">
                        <g transform="translate(16.000000, 463.000000)">
                            <path d="M8,160 L152,160 C156.418278,160 160,156.418278 160,152 L160,8 C160,3.581722 156.418278,-8.11624501e-16 152,0 L8,0 C3.581722,8.11624501e-16 -5.41083001e-16,3.581722 0,8 L0,152 C5.41083001e-16,156.418278 3.581722,160 8,160 Z" id="Fill-9" fill="#DBDBDB"></path>
                            <g id="Group-12" stroke-width="1" fill="none" transform="translate(40.000000, 54.647887)">
                                <path d="M1.60526345,49.6341892 C2.01544994,49.8815862 2.50990955,50.0366448 3.00436916,50.0444849 L23.8834636,50.0741028 L74.6872536,50.142921 C75.7724849,50.1472766 76.7184077,49.5157174 77.17933,48.5252582 C77.6608907,47.5461237 77.4889047,46.3823124 76.8104201,45.5704321 L49.561826,12.295536 C49.0260898,11.6160654 48.1919579,11.2580366 47.333748,11.2798145 C46.4961764,11.3190147 45.7041811,11.7284394 45.2045619,12.4296879 L29.8505162,34.0743118 L21.0568745,23.0686299 C20.5185585,22.394386 19.6981855,22.0189349 18.8442752,22.057264 C17.9912249,22.0712019 17.1914903,22.5050177 16.667793,23.2088796 L0.787470251,45.6044057 C0.164881108,46.4624551 0.0969466578,47.5696438 0.567328234,48.4991248 C0.796069548,48.9991455 1.17873829,49.3789521 1.60526345,49.6341892" id="Fill-27" fill="#F1F1F1"></path>
                                <path d="M71.1906032,18.1887926 C76.0277489,18.1905796 79.9413914,14.2269199 79.9510939,9.33489168 C79.9599144,4.44018293 76.0400975,0.469375017 71.2188287,0.461333327 C66.3843292,0.4559722 62.4583381,4.41337729 62.4495176,9.30719253 C62.4459894,14.2063689 66.3569857,18.1718157 71.1906032,18.1887926" id="Fill-29" fill="#F1F1F1"></path>
                            </g>
                        </g>
                    </g>
                    <g id="Group-13" mask="url(#mask-3)">
                        <g transform="translate(184.000000, 463.000000)">
                            <path d="M8,160 L152,160 C156.418278,160 160,156.418278 160,152 L160,8 C160,3.581722 156.418278,-8.11624501e-16 152,0 L8,0 C3.581722,8.11624501e-16 -5.41083001e-16,3.581722 0,8 L0,152 C5.41083001e-16,156.418278 3.581722,160 8,160 Z" id="Fill-9" fill="#DBDBDB"></path>
                            <g id="Group-12" stroke-width="1" fill="none" transform="translate(40.000000, 54.647887)">
                                <path d="M1.60526345,49.6341892 C2.01544994,49.8815862 2.50990955,50.0366448 3.00436916,50.0444849 L23.8834636,50.0741028 L74.6872536,50.142921 C75.7724849,50.1472766 76.7184077,49.5157174 77.17933,48.5252582 C77.6608907,47.5461237 77.4889047,46.3823124 76.8104201,45.5704321 L49.561826,12.295536 C49.0260898,11.6160654 48.1919579,11.2580366 47.333748,11.2798145 C46.4961764,11.3190147 45.7041811,11.7284394 45.2045619,12.4296879 L29.8505162,34.0743118 L21.0568745,23.0686299 C20.5185585,22.394386 19.6981855,22.0189349 18.8442752,22.057264 C17.9912249,22.0712019 17.1914903,22.5050177 16.667793,23.2088796 L0.787470251,45.6044057 C0.164881108,46.4624551 0.0969466578,47.5696438 0.567328234,48.4991248 C0.796069548,48.9991455 1.17873829,49.3789521 1.60526345,49.6341892" id="Fill-27" fill="#F1F1F1"></path>
                                <path d="M71.1906032,18.1887926 C76.0277489,18.1905796 79.9413914,14.2269199 79.9510939,9.33489168 C79.9599144,4.44018293 76.0400975,0.469375017 71.2188287,0.461333327 C66.3843292,0.4559722 62.4583381,4.41337729 62.4495176,9.30719253 C62.4459894,14.2063689 66.3569857,18.1718157 71.1906032,18.1887926" id="Fill-29" fill="#F1F1F1"></path>
                            </g>
                        </g>
                    </g>
                    <path d="M20,640 L144,640" id="Line-3" stroke="#DBDBDB" stroke-width="8" stroke-linecap="round" mask="url(#mask-3)"></path>
                    <path d="M20,658 L110,658" id="Line-3" stroke="#DBDBDB" stroke-width="8" stroke-linecap="round" mask="url(#mask-3)"></path>
                    <path d="M188,640 L312,640" id="Line-3" stroke="#DBDBDB" stroke-width="8" stroke-linecap="round" mask="url(#mask-3)"></path>
                    <path d="M188,658 L278,658" id="Line-3" stroke="#DBDBDB" stroke-width="8" stroke-linecap="round" mask="url(#mask-3)"></path>
                    <g id="Chips-1" mask="url(#mask-3)">
                        <g transform="translate(16.000000, 105.000000)">
                            <g id="Rectangle-Copy" fill="none">
                                <use fill="#FFFFFF" fill-rule="evenodd" xlink:href="#path-4"></use>
                                <rect stroke="#E0E0E0" stroke-width="1" x="0.5" y="0.5" width="102" height="39" rx="19.5"></rect>
                            </g>
                            <path d="M23.3691406,23.8925781 L23.3691406,25 L17.2578125,25 L17.2578125,15.1357422 L23.3691406,15.1357422 L23.3691406,16.2431641 L18.4882812,16.2431641 L18.4882812,19.4082031 L23.1162109,19.4082031 L23.1162109,20.5019531 L18.4882812,20.5019531 L18.4882812,23.8925781 L23.3691406,23.8925781 Z M28.0585938,22.2177734 L27.9492188,22.2177734 L26.1992188,25 L24.8662109,25 L27.3886719,21.3154297 L24.8388672,17.6308594 L26.2402344,17.6308594 L27.9902344,20.3720703 L28.0996094,20.3720703 L29.8291016,17.6308594 L31.1621094,17.6308594 L28.6601562,21.2675781 L31.1962891,25 L29.8017578,25 L28.0585938,22.2177734 Z M39.8642578,18.8408203 L38.3876953,18.8408203 L37.9091797,21.1923828 L39.3857422,21.1923828 L39.1875,22.1767578 L37.7109375,22.1767578 L37.1367188,25 L36.1523438,25 L36.7333984,22.1767578 L34.6347656,22.1767578 L34.0605469,25 L33.0830078,25 L33.6572266,22.1767578 L32.1806641,22.1767578 L32.3925781,21.1923828 L33.8691406,21.1923828 L34.3408203,18.8408203 L32.8642578,18.8408203 L33.0625,17.8632812 L34.5390625,17.8632812 L35.0996094,15.1357422 L36.0771484,15.1357422 L35.5234375,17.8632812 L37.6152344,17.8632812 L38.1757812,15.1357422 L39.1601562,15.1357422 L38.5927734,17.8632812 L40.0693359,17.8632812 L39.8642578,18.8408203 Z M35.3046875,18.8271484 L34.8261719,21.2128906 L36.9384766,21.2128906 L37.4238281,18.8271484 L35.3046875,18.8271484 Z M44.0136719,25 L44.0136719,16.5029297 L43.9042969,16.5029297 L41.3955078,18.3212891 L41.3955078,17.0224609 L44.0205078,15.1357422 L45.2441406,15.1357422 L45.2441406,25 L44.0136719,25 Z M58.2392578,19.8867188 L57.0498047,19.8867188 C56.8583984,19.1552734 56.2089844,18.5605469 55.1494141,18.5605469 C53.8232422,18.5605469 52.9892578,19.6201172 52.9892578,21.2880859 C52.9892578,22.9902344 53.8369141,24.0703125 55.1494141,24.0703125 C56.140625,24.0703125 56.8310547,23.6123047 57.0498047,22.7783203 L58.2392578,22.7783203 C58.0273438,24.1318359 56.9267578,25.1298828 55.15625,25.1298828 C53.0917969,25.1298828 51.7724609,23.6328125 51.7724609,21.2880859 C51.7724609,18.9912109 53.0849609,17.5009766 55.1494141,17.5009766 C56.9404297,17.5009766 58.0341797,18.5742188 58.2392578,19.8867188 Z M60.0439453,25 L60.0439453,14.7050781 L61.2197266,14.7050781 L61.2197266,18.7929688 L61.3291016,18.7929688 C61.6982422,17.9794922 62.4707031,17.5009766 63.5986328,17.5009766 C65.1572266,17.5009766 66.1416016,18.4990234 66.1416016,20.2285156 L66.1416016,25 L64.9658203,25 L64.9658203,20.515625 C64.9658203,19.2099609 64.3779297,18.5605469 63.2636719,18.5605469 C61.9443359,18.5605469 61.2197266,19.3945312 61.2197266,20.6386719 L61.2197266,25 L60.0439453,25 Z M68.3154297,25 L68.3154297,17.6308594 L69.4912109,17.6308594 L69.4912109,25 L68.3154297,25 Z M68.9033203,16.1337891 C68.4521484,16.1337891 68.0830078,15.7646484 68.0830078,15.3134766 C68.0830078,14.8623047 68.4521484,14.4931641 68.9033203,14.4931641 C69.3544922,14.4931641 69.7236328,14.8623047 69.7236328,15.3134766 C69.7236328,15.7646484 69.3544922,16.1337891 68.9033203,16.1337891 Z M75.3222656,17.5009766 C77.2021484,17.5009766 78.4189453,18.9980469 78.4189453,21.3154297 C78.4189453,23.6191406 77.1953125,25.1298828 75.3222656,25.1298828 C74.2695312,25.1298828 73.421875,24.671875 73.0185547,23.8925781 L72.9091797,23.8925781 L72.9091797,27.4609375 L71.7333984,27.4609375 L71.7333984,17.6308594 L72.8544922,17.6308594 L72.8544922,18.8613281 L72.9638672,18.8613281 C73.4355469,18.0136719 74.3173828,17.5009766 75.3222656,17.5009766 Z M75.0419922,24.0703125 C76.3955078,24.0703125 77.2021484,23.0380859 77.2021484,21.3154297 C77.2021484,19.5927734 76.3955078,18.5605469 75.0488281,18.5605469 C73.7158203,18.5605469 72.875,19.6201172 72.875,21.3154297 C72.875,23.0039062 73.7158203,24.0703125 75.0419922,24.0703125 Z M80.09375,19.6474609 C80.09375,18.4238281 81.2763672,17.5009766 82.8417969,17.5009766 C84.3867188,17.5009766 85.4599609,18.2666016 85.6171875,19.4765625 L84.4550781,19.4765625 C84.2978516,18.8886719 83.7236328,18.4990234 82.8349609,18.4990234 C81.9599609,18.4990234 81.2763672,18.9433594 81.2763672,19.5996094 C81.2763672,20.1054688 81.6865234,20.4199219 82.5546875,20.6318359 L83.6894531,20.9052734 C85.0771484,21.2402344 85.7470703,21.8417969 85.7470703,22.9013672 C85.7470703,24.2207031 84.46875,25.1298828 82.7939453,25.1298828 C81.1533203,25.1298828 80.0253906,24.34375 79.8955078,23.1201172 L81.1054688,23.1201172 C81.3037109,23.7421875 81.8916016,24.1386719 82.8349609,24.1386719 C83.8261719,24.1386719 84.5371094,23.6669922 84.5371094,22.9902344 C84.5371094,22.484375 84.1542969,22.1425781 83.3681641,21.9511719 L82.1035156,21.6435547 C80.7226562,21.3085938 80.09375,20.7138672 80.09375,19.6474609 Z" id="Ex#1-chips" fill-opacity="0.38" fill="#000000" fill-rule="evenodd"></path>
                        </g>
                    </g>
                    <g id="Chips-1" mask="url(#mask-3)">
                        <g transform="translate(16.000000, 153.000000)">
                            <g id="Rectangle-Copy" fill="none">
                                <use fill="#FFFFFF" fill-rule="evenodd" xlink:href="#path-5"></use>
                                <rect stroke="#E0E0E0" stroke-width="1" x="0.5" y="0.5" width="127" height="39" rx="19.5"></rect>
                            </g>
                            <path d="M23.3691406,23.8925781 L23.3691406,25 L17.2578125,25 L17.2578125,15.1357422 L23.3691406,15.1357422 L23.3691406,16.2431641 L18.4882812,16.2431641 L18.4882812,19.4082031 L23.1162109,19.4082031 L23.1162109,20.5019531 L18.4882812,20.5019531 L18.4882812,23.8925781 L23.3691406,23.8925781 Z M28.0585938,22.2177734 L27.9492188,22.2177734 L26.1992188,25 L24.8662109,25 L27.3886719,21.3154297 L24.8388672,17.6308594 L26.2402344,17.6308594 L27.9902344,20.3720703 L28.0996094,20.3720703 L29.8291016,17.6308594 L31.1621094,17.6308594 L28.6601562,21.2675781 L31.1962891,25 L29.8017578,25 L28.0585938,22.2177734 Z M35.0722656,24.0976562 C36.2822266,24.0976562 37.1777344,23.3046875 37.1777344,22.2519531 L37.1777344,21.5751953 L35.1953125,21.7050781 C34.0742188,21.7802734 33.5820312,22.1699219 33.5820312,22.9082031 C33.5820312,23.6601562 34.2177734,24.0976562 35.0722656,24.0976562 Z M34.8535156,25.1298828 C33.4248047,25.1298828 32.3652344,24.2822266 32.3652344,22.9355469 C32.3652344,21.6162109 33.3359375,20.8574219 35.0517578,20.7548828 L37.1777344,20.625 L37.1777344,19.9550781 C37.1777344,19.0458984 36.6103516,18.546875 35.5097656,18.546875 C34.6279297,18.546875 34.0126953,18.8818359 33.8486328,19.4628906 L32.6591797,19.4628906 C32.8164062,18.2802734 33.9785156,17.5009766 35.5507812,17.5009766 C37.3486328,17.5009766 38.3535156,18.4238281 38.3535156,19.9550781 L38.3535156,25 L37.2324219,25 L37.2324219,23.9130859 L37.1230469,23.9130859 C36.6445312,24.6992188 35.8378906,25.1298828 34.8535156,25.1298828 Z M40.5273438,25 L40.5273438,17.6308594 L41.6484375,17.6308594 L41.6484375,18.7929688 L41.7578125,18.7929688 C42.0927734,17.9726562 42.8310547,17.5009766 43.8154297,17.5009766 C44.8134766,17.5009766 45.5107422,18.0273438 45.8525391,18.7929688 L45.9619141,18.7929688 C46.3583984,18.0136719 47.1992188,17.5009766 48.2177734,17.5009766 C49.7216797,17.5009766 50.5625,18.3623047 50.5625,19.9072266 L50.5625,25 L49.3867188,25 L49.3867188,20.1806641 C49.3867188,19.09375 48.8740234,18.5605469 47.8349609,18.5605469 C46.8095703,18.5605469 46.1259766,19.3261719 46.1259766,20.2626953 L46.1259766,25 L44.9501953,25 L44.9501953,19.9960938 C44.9501953,19.1210938 44.3417969,18.5605469 43.4121094,18.5605469 C42.4482422,18.5605469 41.703125,19.3945312 41.703125,20.4335938 L41.703125,25 L40.5273438,25 Z M56.2978516,17.5009766 C58.1777344,17.5009766 59.3945312,18.9980469 59.3945312,21.3154297 C59.3945312,23.6191406 58.1708984,25.1298828 56.2978516,25.1298828 C55.2451172,25.1298828 54.3974609,24.671875 53.9941406,23.8925781 L53.8847656,23.8925781 L53.8847656,27.4609375 L52.7089844,27.4609375 L52.7089844,17.6308594 L53.8300781,17.6308594 L53.8300781,18.8613281 L53.9394531,18.8613281 C54.4111328,18.0136719 55.2929688,17.5009766 56.2978516,17.5009766 Z M56.0175781,24.0703125 C57.3710938,24.0703125 58.1777344,23.0380859 58.1777344,21.3154297 C58.1777344,19.5927734 57.3710938,18.5605469 56.0244141,18.5605469 C54.6914062,18.5605469 53.8505859,19.6201172 53.8505859,21.3154297 C53.8505859,23.0039062 54.6914062,24.0703125 56.0175781,24.0703125 Z M61.3085938,25 L61.3085938,14.7050781 L62.484375,14.7050781 L62.484375,25 L61.3085938,25 Z M67.7070312,18.5400391 C66.53125,18.5400391 65.7109375,19.4013672 65.6220703,20.7070312 L69.6826172,20.7070312 C69.6552734,19.4013672 68.8759766,18.5400391 67.7070312,18.5400391 Z M69.6484375,23.0927734 L70.8242188,23.0927734 C70.46875,24.3574219 69.3339844,25.1298828 67.7207031,25.1298828 C65.6767578,25.1298828 64.3984375,23.6533203 64.3984375,21.3222656 C64.3984375,19.0048828 65.6972656,17.5009766 67.7207031,17.5009766 C69.7099609,17.5009766 70.9199219,18.9160156 70.9199219,21.2060547 L70.9199219,21.6572266 L65.6220703,21.6572266 L65.6220703,21.7119141 C65.6835938,23.1679688 66.4970703,24.0908203 67.7480469,24.0908203 C68.6982422,24.0908203 69.3408203,23.7421875 69.6484375,23.0927734 Z M82.8144531,19.8867188 L81.625,19.8867188 C81.4335938,19.1552734 80.7841797,18.5605469 79.7246094,18.5605469 C78.3984375,18.5605469 77.5644531,19.6201172 77.5644531,21.2880859 C77.5644531,22.9902344 78.4121094,24.0703125 79.7246094,24.0703125 C80.7158203,24.0703125 81.40625,23.6123047 81.625,22.7783203 L82.8144531,22.7783203 C82.6025391,24.1318359 81.5019531,25.1298828 79.7314453,25.1298828 C77.6669922,25.1298828 76.3476562,23.6328125 76.3476562,21.2880859 C76.3476562,18.9912109 77.6601562,17.5009766 79.7246094,17.5009766 C81.515625,17.5009766 82.609375,18.5742188 82.8144531,19.8867188 Z M84.6191406,25 L84.6191406,14.7050781 L85.7949219,14.7050781 L85.7949219,18.7929688 L85.9042969,18.7929688 C86.2734375,17.9794922 87.0458984,17.5009766 88.1738281,17.5009766 C89.7324219,17.5009766 90.7167969,18.4990234 90.7167969,20.2285156 L90.7167969,25 L89.5410156,25 L89.5410156,20.515625 C89.5410156,19.2099609 88.953125,18.5605469 87.8388672,18.5605469 C86.5195312,18.5605469 85.7949219,19.3945312 85.7949219,20.6386719 L85.7949219,25 L84.6191406,25 Z M92.890625,25 L92.890625,17.6308594 L94.0664062,17.6308594 L94.0664062,25 L92.890625,25 Z M93.4785156,16.1337891 C93.0273438,16.1337891 92.6582031,15.7646484 92.6582031,15.3134766 C92.6582031,14.8623047 93.0273438,14.4931641 93.4785156,14.4931641 C93.9296875,14.4931641 94.2988281,14.8623047 94.2988281,15.3134766 C94.2988281,15.7646484 93.9296875,16.1337891 93.4785156,16.1337891 Z M99.8974609,17.5009766 C101.777344,17.5009766 102.994141,18.9980469 102.994141,21.3154297 C102.994141,23.6191406 101.770508,25.1298828 99.8974609,25.1298828 C98.8447266,25.1298828 97.9970703,24.671875 97.59375,23.8925781 L97.484375,23.8925781 L97.484375,27.4609375 L96.3085938,27.4609375 L96.3085938,17.6308594 L97.4296875,17.6308594 L97.4296875,18.8613281 L97.5390625,18.8613281 C98.0107422,18.0136719 98.8925781,17.5009766 99.8974609,17.5009766 Z M99.6171875,24.0703125 C100.970703,24.0703125 101.777344,23.0380859 101.777344,21.3154297 C101.777344,19.5927734 100.970703,18.5605469 99.6240234,18.5605469 C98.2910156,18.5605469 97.4501953,19.6201172 97.4501953,21.3154297 C97.4501953,23.0039062 98.2910156,24.0703125 99.6171875,24.0703125 Z M104.668945,19.6474609 C104.668945,18.4238281 105.851562,17.5009766 107.416992,17.5009766 C108.961914,17.5009766 110.035156,18.2666016 110.192383,19.4765625 L109.030273,19.4765625 C108.873047,18.8886719 108.298828,18.4990234 107.410156,18.4990234 C106.535156,18.4990234 105.851562,18.9433594 105.851562,19.5996094 C105.851562,20.1054688 106.261719,20.4199219 107.129883,20.6318359 L108.264648,20.9052734 C109.652344,21.2402344 110.322266,21.8417969 110.322266,22.9013672 C110.322266,24.2207031 109.043945,25.1298828 107.369141,25.1298828 C105.728516,25.1298828 104.600586,24.34375 104.470703,23.1201172 L105.680664,23.1201172 C105.878906,23.7421875 106.466797,24.1386719 107.410156,24.1386719 C108.401367,24.1386719 109.112305,23.6669922 109.112305,22.9902344 C109.112305,22.484375 108.729492,22.1425781 107.943359,21.9511719 L106.678711,21.6435547 C105.297852,21.3085938 104.668945,20.7138672 104.668945,19.6474609 Z" id="Example-chips" fill-opacity="0.38" fill="#000000" fill-rule="evenodd"></path>
                        </g>
                    </g>
                    <g id="Chips-1" mask="url(#mask-3)">
                        <g transform="translate(152.000000, 153.000000)">
                            <g id="Rectangle-Copy" fill="none">
                                <use fill="#FFFFFF" fill-rule="evenodd" xlink:href="#path-6"></use>
                                <rect stroke="#E0E0E0" stroke-width="1" x="0.5" y="0.5" width="144" height="39" rx="19.5"></rect>
                            </g>
                            <path d="M23.6699219,25 L22.6787109,22.1767578 L18.7548828,22.1767578 L17.7636719,25 L16.4716797,25 L20.1083984,15.1357422 L21.3251953,15.1357422 L24.9619141,25 L23.6699219,25 Z M20.6621094,16.7285156 L19.1171875,21.1308594 L22.3164062,21.1308594 L20.7714844,16.7285156 L20.6621094,16.7285156 Z M26.5410156,25 L26.5410156,17.6308594 L27.6621094,17.6308594 L27.6621094,18.7929688 L27.7714844,18.7929688 C28.140625,17.9794922 28.8583984,17.5009766 29.9863281,17.5009766 C31.640625,17.5009766 32.5634766,18.4785156 32.5634766,20.2285156 L32.5634766,25 L31.3876953,25 L31.3876953,20.515625 C31.3876953,19.1894531 30.8271484,18.5605469 29.6513672,18.5605469 C28.4755859,18.5605469 27.7167969,19.3466797 27.7167969,20.6386719 L27.7167969,25 L26.5410156,25 Z M37.7382812,25.1298828 C35.6396484,25.1298828 34.3408203,23.6806641 34.3408203,21.3154297 C34.3408203,18.9433594 35.6396484,17.5009766 37.7382812,17.5009766 C39.8369141,17.5009766 41.1357422,18.9433594 41.1357422,21.3154297 C41.1357422,23.6806641 39.8369141,25.1298828 37.7382812,25.1298828 Z M37.7382812,24.0703125 C39.1328125,24.0703125 39.9189453,23.0585938 39.9189453,21.3154297 C39.9189453,19.5654297 39.1328125,18.5605469 37.7382812,18.5605469 C36.34375,18.5605469 35.5576172,19.5654297 35.5576172,21.3154297 C35.5576172,23.0585938 36.34375,24.0703125 37.7382812,24.0703125 Z M43.4736328,15.7236328 L44.6494141,15.7236328 L44.6494141,17.6308594 L46.2900391,17.6308594 L46.2900391,18.6152344 L44.6494141,18.6152344 L44.6494141,22.7851562 C44.6494141,23.6533203 44.9775391,24.0224609 45.7431641,24.0224609 C45.9550781,24.0224609 46.0712891,24.015625 46.2900391,23.9951172 L46.2900391,24.9863281 C46.0576172,25.0273438 45.8320312,25.0546875 45.5996094,25.0546875 C44.0820312,25.0546875 43.4736328,24.4941406 43.4736328,23.0859375 L43.4736328,18.6152344 L42.2841797,18.6152344 L42.2841797,17.6308594 L43.4736328,17.6308594 L43.4736328,15.7236328 Z M48.1357422,25 L48.1357422,14.7050781 L49.3115234,14.7050781 L49.3115234,18.7929688 L49.4208984,18.7929688 C49.7900391,17.9794922 50.5625,17.5009766 51.6904297,17.5009766 C53.2490234,17.5009766 54.2333984,18.4990234 54.2333984,20.2285156 L54.2333984,25 L53.0576172,25 L53.0576172,20.515625 C53.0576172,19.2099609 52.4697266,18.5605469 51.3554688,18.5605469 C50.0361328,18.5605469 49.3115234,19.3945312 49.3115234,20.6386719 L49.3115234,25 L48.1357422,25 Z M59.3193359,18.5400391 C58.1435547,18.5400391 57.3232422,19.4013672 57.234375,20.7070312 L61.2949219,20.7070312 C61.2675781,19.4013672 60.4882812,18.5400391 59.3193359,18.5400391 Z M61.2607422,23.0927734 L62.4365234,23.0927734 C62.0810547,24.3574219 60.9462891,25.1298828 59.3330078,25.1298828 C57.2890625,25.1298828 56.0107422,23.6533203 56.0107422,21.3222656 C56.0107422,19.0048828 57.3095703,17.5009766 59.3330078,17.5009766 C61.3222656,17.5009766 62.5322266,18.9160156 62.5322266,21.2060547 L62.5322266,21.6572266 L57.234375,21.6572266 L57.234375,21.7119141 C57.2958984,23.1679688 58.109375,24.0908203 59.3603516,24.0908203 C60.3105469,24.0908203 60.953125,23.7421875 61.2607422,23.0927734 Z M64.3779297,25 L64.3779297,17.6308594 L65.4990234,17.6308594 L65.4990234,18.7246094 L65.6083984,18.7246094 C65.8271484,18.0068359 66.6748047,17.5009766 67.6523438,17.5009766 C67.84375,17.5009766 68.0898438,17.5146484 68.2402344,17.5351562 L68.2402344,18.7109375 C68.1445312,18.6835938 67.7207031,18.6425781 67.4882812,18.6425781 C66.3671875,18.6425781 65.5537109,19.3945312 65.5537109,20.4335938 L65.5537109,25 L64.3779297,25 Z M79.9228516,23.8925781 L79.9228516,25 L73.8115234,25 L73.8115234,15.1357422 L79.9228516,15.1357422 L79.9228516,16.2431641 L75.0419922,16.2431641 L75.0419922,19.4082031 L79.6699219,19.4082031 L79.6699219,20.5019531 L75.0419922,20.5019531 L75.0419922,23.8925781 L79.9228516,23.8925781 Z M84.6123047,22.2177734 L84.5029297,22.2177734 L82.7529297,25 L81.4199219,25 L83.9423828,21.3154297 L81.3925781,17.6308594 L82.7939453,17.6308594 L84.5439453,20.3720703 L84.6533203,20.3720703 L86.3828125,17.6308594 L87.7158203,17.6308594 L85.2138672,21.2675781 L87.75,25 L86.3554688,25 L84.6123047,22.2177734 Z M91.6259766,24.0976562 C92.8359375,24.0976562 93.7314453,23.3046875 93.7314453,22.2519531 L93.7314453,21.5751953 L91.7490234,21.7050781 C90.6279297,21.7802734 90.1357422,22.1699219 90.1357422,22.9082031 C90.1357422,23.6601562 90.7714844,24.0976562 91.6259766,24.0976562 Z M91.4072266,25.1298828 C89.9785156,25.1298828 88.9189453,24.2822266 88.9189453,22.9355469 C88.9189453,21.6162109 89.8896484,20.8574219 91.6054688,20.7548828 L93.7314453,20.625 L93.7314453,19.9550781 C93.7314453,19.0458984 93.1640625,18.546875 92.0634766,18.546875 C91.1816406,18.546875 90.5664063,18.8818359 90.4023438,19.4628906 L89.2128906,19.4628906 C89.3701172,18.2802734 90.5322266,17.5009766 92.1044922,17.5009766 C93.9023438,17.5009766 94.9072266,18.4238281 94.9072266,19.9550781 L94.9072266,25 L93.7861328,25 L93.7861328,23.9130859 L93.6767578,23.9130859 C93.1982422,24.6992188 92.3916016,25.1298828 91.4072266,25.1298828 Z M97.0810547,25 L97.0810547,17.6308594 L98.2021484,17.6308594 L98.2021484,18.7929688 L98.3115234,18.7929688 C98.6464844,17.9726562 99.3847656,17.5009766 100.369141,17.5009766 C101.367188,17.5009766 102.064453,18.0273438 102.40625,18.7929688 L102.515625,18.7929688 C102.912109,18.0136719 103.75293,17.5009766 104.771484,17.5009766 C106.275391,17.5009766 107.116211,18.3623047 107.116211,19.9072266 L107.116211,25 L105.94043,25 L105.94043,20.1806641 C105.94043,19.09375 105.427734,18.5605469 104.388672,18.5605469 C103.363281,18.5605469 102.679688,19.3261719 102.679688,20.2626953 L102.679688,25 L101.503906,25 L101.503906,19.9960938 C101.503906,19.1210938 100.895508,18.5605469 99.9658203,18.5605469 C99.0019531,18.5605469 98.2568359,19.3945312 98.2568359,20.4335938 L98.2568359,25 L97.0810547,25 Z M112.851562,17.5009766 C114.731445,17.5009766 115.948242,18.9980469 115.948242,21.3154297 C115.948242,23.6191406 114.724609,25.1298828 112.851562,25.1298828 C111.798828,25.1298828 110.951172,24.671875 110.547852,23.8925781 L110.438477,23.8925781 L110.438477,27.4609375 L109.262695,27.4609375 L109.262695,17.6308594 L110.383789,17.6308594 L110.383789,18.8613281 L110.493164,18.8613281 C110.964844,18.0136719 111.84668,17.5009766 112.851562,17.5009766 Z M112.571289,24.0703125 C113.924805,24.0703125 114.731445,23.0380859 114.731445,21.3154297 C114.731445,19.5927734 113.924805,18.5605469 112.578125,18.5605469 C111.245117,18.5605469 110.404297,19.6201172 110.404297,21.3154297 C110.404297,23.0039062 111.245117,24.0703125 112.571289,24.0703125 Z M117.862305,25 L117.862305,14.7050781 L119.038086,14.7050781 L119.038086,25 L117.862305,25 Z M124.260742,18.5400391 C123.084961,18.5400391 122.264648,19.4013672 122.175781,20.7070312 L126.236328,20.7070312 C126.208984,19.4013672 125.429688,18.5400391 124.260742,18.5400391 Z M126.202148,23.0927734 L127.37793,23.0927734 C127.022461,24.3574219 125.887695,25.1298828 124.274414,25.1298828 C122.230469,25.1298828 120.952148,23.6533203 120.952148,21.3222656 C120.952148,19.0048828 122.250977,17.5009766 124.274414,17.5009766 C126.263672,17.5009766 127.473633,18.9160156 127.473633,21.2060547 L127.473633,21.6572266 L122.175781,21.6572266 L122.175781,21.7119141 C122.237305,23.1679688 123.050781,24.0908203 124.301758,24.0908203 C125.251953,24.0908203 125.894531,23.7421875 126.202148,23.0927734 Z" id="Another-Example" fill-opacity="0.38" fill="#000000" fill-rule="evenodd"></path>
                        </g>
                    </g>
                    <g id="Chips-1" mask="url(#mask-3)">
                        <g transform="translate(265.000000, 105.000000)">
                            <g id="Rectangle-Copy" fill="none">
                                <use fill="#FFFFFF" fill-rule="evenodd" xlink:href="#path-7"></use>
                                <rect stroke="#E0E0E0" stroke-width="1" x="0.5" y="0.5" width="119" height="39" rx="19.5"></rect>
                            </g>
                            <path d="M21.2294922,25.2324219 C18.5498047,25.2324219 16.875,23.25 16.875,20.0712891 C16.875,16.8857422 18.5429688,14.9033203 21.2226562,14.9033203 C23.3007812,14.9033203 24.9208984,16.2089844 25.2148438,18.109375 L23.9638672,18.109375 C23.6357422,16.8378906 22.5830078,16.0380859 21.2226562,16.0380859 C19.3291016,16.0380859 18.1396484,17.5966797 18.1396484,20.0712891 C18.1396484,22.5458984 19.3291016,24.0976562 21.2294922,24.0976562 C22.6035156,24.0976562 23.6494141,23.3935547 23.9638672,22.2519531 L25.2148438,22.2519531 C24.8867188,24.0634766 23.328125,25.2324219 21.2294922,25.2324219 Z M30.1572266,25.1298828 C28.0585938,25.1298828 26.7597656,23.6806641 26.7597656,21.3154297 C26.7597656,18.9433594 28.0585938,17.5009766 30.1572266,17.5009766 C32.2558594,17.5009766 33.5546875,18.9433594 33.5546875,21.3154297 C33.5546875,23.6806641 32.2558594,25.1298828 30.1572266,25.1298828 Z M30.1572266,24.0703125 C31.5517578,24.0703125 32.3378906,23.0585938 32.3378906,21.3154297 C32.3378906,19.5654297 31.5517578,18.5605469 30.1572266,18.5605469 C28.7626953,18.5605469 27.9765625,19.5654297 27.9765625,21.3154297 C27.9765625,23.0585938 28.7626953,24.0703125 30.1572266,24.0703125 Z M35.4003906,25 L35.4003906,17.6308594 L36.5214844,17.6308594 L36.5214844,18.7929688 L36.6308594,18.7929688 C37,17.9794922 37.7177734,17.5009766 38.8457031,17.5009766 C40.5,17.5009766 41.4228516,18.4785156 41.4228516,20.2285156 L41.4228516,25 L40.2470703,25 L40.2470703,20.515625 C40.2470703,19.1894531 39.6865234,18.5605469 38.5107422,18.5605469 C37.3349609,18.5605469 36.5761719,19.3466797 36.5761719,20.6386719 L36.5761719,25 L35.4003906,25 Z M44.0615234,15.7236328 L45.2373047,15.7236328 L45.2373047,17.6308594 L46.8779297,17.6308594 L46.8779297,18.6152344 L45.2373047,18.6152344 L45.2373047,22.7851562 C45.2373047,23.6533203 45.5654297,24.0224609 46.3310547,24.0224609 C46.5429688,24.0224609 46.6591797,24.015625 46.8779297,23.9951172 L46.8779297,24.9863281 C46.6455078,25.0273438 46.4199219,25.0546875 46.1875,25.0546875 C44.6699219,25.0546875 44.0615234,24.4941406 44.0615234,23.0859375 L44.0615234,18.6152344 L42.8720703,18.6152344 L42.8720703,17.6308594 L44.0615234,17.6308594 L44.0615234,15.7236328 Z M51.5947266,18.5400391 C50.4189453,18.5400391 49.5986328,19.4013672 49.5097656,20.7070312 L53.5703125,20.7070312 C53.5429688,19.4013672 52.7636719,18.5400391 51.5947266,18.5400391 Z M53.5361328,23.0927734 L54.7119141,23.0927734 C54.3564453,24.3574219 53.2216797,25.1298828 51.6083984,25.1298828 C49.5644531,25.1298828 48.2861328,23.6533203 48.2861328,21.3222656 C48.2861328,19.0048828 49.5849609,17.5009766 51.6083984,17.5009766 C53.5976562,17.5009766 54.8076172,18.9160156 54.8076172,21.2060547 L54.8076172,21.6572266 L49.5097656,21.6572266 L49.5097656,21.7119141 C49.5712891,23.1679688 50.3847656,24.0908203 51.6357422,24.0908203 C52.5859375,24.0908203 53.2285156,23.7421875 53.5361328,23.0927734 Z M56.6533203,25 L56.6533203,17.6308594 L57.7744141,17.6308594 L57.7744141,18.7929688 L57.8837891,18.7929688 C58.2529297,17.9794922 58.9707031,17.5009766 60.0986328,17.5009766 C61.7529297,17.5009766 62.6757812,18.4785156 62.6757812,20.2285156 L62.6757812,25 L61.5,25 L61.5,20.515625 C61.5,19.1894531 60.9394531,18.5605469 59.7636719,18.5605469 C58.5878906,18.5605469 57.8291016,19.3466797 57.8291016,20.6386719 L57.8291016,25 L56.6533203,25 Z M74.8710938,19.8867188 L73.6816406,19.8867188 C73.4902344,19.1552734 72.8408203,18.5605469 71.78125,18.5605469 C70.4550781,18.5605469 69.6210938,19.6201172 69.6210938,21.2880859 C69.6210938,22.9902344 70.46875,24.0703125 71.78125,24.0703125 C72.7724609,24.0703125 73.4628906,23.6123047 73.6816406,22.7783203 L74.8710938,22.7783203 C74.6591797,24.1318359 73.5585938,25.1298828 71.7880859,25.1298828 C69.7236328,25.1298828 68.4042969,23.6328125 68.4042969,21.2880859 C68.4042969,18.9912109 69.7167969,17.5009766 71.78125,17.5009766 C73.5722656,17.5009766 74.6660156,18.5742188 74.8710938,19.8867188 Z M76.6757812,25 L76.6757812,14.7050781 L77.8515625,14.7050781 L77.8515625,18.7929688 L77.9609375,18.7929688 C78.3300781,17.9794922 79.1025391,17.5009766 80.2304688,17.5009766 C81.7890625,17.5009766 82.7734375,18.4990234 82.7734375,20.2285156 L82.7734375,25 L81.5976562,25 L81.5976562,20.515625 C81.5976562,19.2099609 81.0097656,18.5605469 79.8955078,18.5605469 C78.5761719,18.5605469 77.8515625,19.3945312 77.8515625,20.6386719 L77.8515625,25 L76.6757812,25 Z M84.9472656,25 L84.9472656,17.6308594 L86.1230469,17.6308594 L86.1230469,25 L84.9472656,25 Z M85.5351562,16.1337891 C85.0839844,16.1337891 84.7148438,15.7646484 84.7148438,15.3134766 C84.7148438,14.8623047 85.0839844,14.4931641 85.5351562,14.4931641 C85.9863281,14.4931641 86.3554688,14.8623047 86.3554688,15.3134766 C86.3554688,15.7646484 85.9863281,16.1337891 85.5351562,16.1337891 Z M91.9541016,17.5009766 C93.8339844,17.5009766 95.0507812,18.9980469 95.0507812,21.3154297 C95.0507812,23.6191406 93.8271484,25.1298828 91.9541016,25.1298828 C90.9013672,25.1298828 90.0537109,24.671875 89.6503906,23.8925781 L89.5410156,23.8925781 L89.5410156,27.4609375 L88.3652344,27.4609375 L88.3652344,17.6308594 L89.4863281,17.6308594 L89.4863281,18.8613281 L89.5957031,18.8613281 C90.0673828,18.0136719 90.9492187,17.5009766 91.9541016,17.5009766 Z M91.6738281,24.0703125 C93.0273438,24.0703125 93.8339844,23.0380859 93.8339844,21.3154297 C93.8339844,19.5927734 93.0273438,18.5605469 91.6806641,18.5605469 C90.3476562,18.5605469 89.5068359,19.6201172 89.5068359,21.3154297 C89.5068359,23.0039062 90.3476562,24.0703125 91.6738281,24.0703125 Z M96.7255859,19.6474609 C96.7255859,18.4238281 97.9082031,17.5009766 99.4736328,17.5009766 C101.018555,17.5009766 102.091797,18.2666016 102.249023,19.4765625 L101.086914,19.4765625 C100.929688,18.8886719 100.355469,18.4990234 99.4667969,18.4990234 C98.5917969,18.4990234 97.9082031,18.9433594 97.9082031,19.5996094 C97.9082031,20.1054688 98.3183594,20.4199219 99.1865234,20.6318359 L100.321289,20.9052734 C101.708984,21.2402344 102.378906,21.8417969 102.378906,22.9013672 C102.378906,24.2207031 101.100586,25.1298828 99.4257812,25.1298828 C97.7851562,25.1298828 96.6572266,24.34375 96.5273438,23.1201172 L97.7373047,23.1201172 C97.9355469,23.7421875 98.5234375,24.1386719 99.4667969,24.1386719 C100.458008,24.1386719 101.168945,23.6669922 101.168945,22.9902344 C101.168945,22.484375 100.786133,22.1425781 100,21.9511719 L98.7353516,21.6435547 C97.3544922,21.3085938 96.7255859,20.7138672 96.7255859,19.6474609 Z" id="Conten-chips" fill-opacity="0.38" fill="#000000" fill-rule="evenodd"></path>
                        </g>
                    </g>
                    <g id="Chips-1" mask="url(#mask-3)">
                        <g transform="translate(305.000000, 153.000000)">
                            <g id="Rectangle-Copy" fill="none">
                                <use fill="#FFFFFF" fill-rule="evenodd" xlink:href="#path-8"></use>
                                <rect stroke="#E0E0E0" stroke-width="1" x="0.5" y="0.5" width="119" height="39" rx="19.5"></rect>
                            </g>
                            <path d="M21.2294922,25.2324219 C18.5498047,25.2324219 16.875,23.25 16.875,20.0712891 C16.875,16.8857422 18.5429688,14.9033203 21.2226562,14.9033203 C23.3007812,14.9033203 24.9208984,16.2089844 25.2148438,18.109375 L23.9638672,18.109375 C23.6357422,16.8378906 22.5830078,16.0380859 21.2226562,16.0380859 C19.3291016,16.0380859 18.1396484,17.5966797 18.1396484,20.0712891 C18.1396484,22.5458984 19.3291016,24.0976562 21.2294922,24.0976562 C22.6035156,24.0976562 23.6494141,23.3935547 23.9638672,22.2519531 L25.2148438,22.2519531 C24.8867188,24.0634766 23.328125,25.2324219 21.2294922,25.2324219 Z M30.1572266,25.1298828 C28.0585938,25.1298828 26.7597656,23.6806641 26.7597656,21.3154297 C26.7597656,18.9433594 28.0585938,17.5009766 30.1572266,17.5009766 C32.2558594,17.5009766 33.5546875,18.9433594 33.5546875,21.3154297 C33.5546875,23.6806641 32.2558594,25.1298828 30.1572266,25.1298828 Z M30.1572266,24.0703125 C31.5517578,24.0703125 32.3378906,23.0585938 32.3378906,21.3154297 C32.3378906,19.5654297 31.5517578,18.5605469 30.1572266,18.5605469 C28.7626953,18.5605469 27.9765625,19.5654297 27.9765625,21.3154297 C27.9765625,23.0585938 28.7626953,24.0703125 30.1572266,24.0703125 Z M35.4003906,25 L35.4003906,17.6308594 L36.5214844,17.6308594 L36.5214844,18.7929688 L36.6308594,18.7929688 C37,17.9794922 37.7177734,17.5009766 38.8457031,17.5009766 C40.5,17.5009766 41.4228516,18.4785156 41.4228516,20.2285156 L41.4228516,25 L40.2470703,25 L40.2470703,20.515625 C40.2470703,19.1894531 39.6865234,18.5605469 38.5107422,18.5605469 C37.3349609,18.5605469 36.5761719,19.3466797 36.5761719,20.6386719 L36.5761719,25 L35.4003906,25 Z M44.0615234,15.7236328 L45.2373047,15.7236328 L45.2373047,17.6308594 L46.8779297,17.6308594 L46.8779297,18.6152344 L45.2373047,18.6152344 L45.2373047,22.7851562 C45.2373047,23.6533203 45.5654297,24.0224609 46.3310547,24.0224609 C46.5429688,24.0224609 46.6591797,24.015625 46.8779297,23.9951172 L46.8779297,24.9863281 C46.6455078,25.0273438 46.4199219,25.0546875 46.1875,25.0546875 C44.6699219,25.0546875 44.0615234,24.4941406 44.0615234,23.0859375 L44.0615234,18.6152344 L42.8720703,18.6152344 L42.8720703,17.6308594 L44.0615234,17.6308594 L44.0615234,15.7236328 Z M51.5947266,18.5400391 C50.4189453,18.5400391 49.5986328,19.4013672 49.5097656,20.7070312 L53.5703125,20.7070312 C53.5429688,19.4013672 52.7636719,18.5400391 51.5947266,18.5400391 Z M53.5361328,23.0927734 L54.7119141,23.0927734 C54.3564453,24.3574219 53.2216797,25.1298828 51.6083984,25.1298828 C49.5644531,25.1298828 48.2861328,23.6533203 48.2861328,21.3222656 C48.2861328,19.0048828 49.5849609,17.5009766 51.6083984,17.5009766 C53.5976562,17.5009766 54.8076172,18.9160156 54.8076172,21.2060547 L54.8076172,21.6572266 L49.5097656,21.6572266 L49.5097656,21.7119141 C49.5712891,23.1679688 50.3847656,24.0908203 51.6357422,24.0908203 C52.5859375,24.0908203 53.2285156,23.7421875 53.5361328,23.0927734 Z M56.6533203,25 L56.6533203,17.6308594 L57.7744141,17.6308594 L57.7744141,18.7929688 L57.8837891,18.7929688 C58.2529297,17.9794922 58.9707031,17.5009766 60.0986328,17.5009766 C61.7529297,17.5009766 62.6757812,18.4785156 62.6757812,20.2285156 L62.6757812,25 L61.5,25 L61.5,20.515625 C61.5,19.1894531 60.9394531,18.5605469 59.7636719,18.5605469 C58.5878906,18.5605469 57.8291016,19.3466797 57.8291016,20.6386719 L57.8291016,25 L56.6533203,25 Z M74.8710938,19.8867188 L73.6816406,19.8867188 C73.4902344,19.1552734 72.8408203,18.5605469 71.78125,18.5605469 C70.4550781,18.5605469 69.6210938,19.6201172 69.6210938,21.2880859 C69.6210938,22.9902344 70.46875,24.0703125 71.78125,24.0703125 C72.7724609,24.0703125 73.4628906,23.6123047 73.6816406,22.7783203 L74.8710938,22.7783203 C74.6591797,24.1318359 73.5585938,25.1298828 71.7880859,25.1298828 C69.7236328,25.1298828 68.4042969,23.6328125 68.4042969,21.2880859 C68.4042969,18.9912109 69.7167969,17.5009766 71.78125,17.5009766 C73.5722656,17.5009766 74.6660156,18.5742188 74.8710938,19.8867188 Z M76.6757812,25 L76.6757812,14.7050781 L77.8515625,14.7050781 L77.8515625,18.7929688 L77.9609375,18.7929688 C78.3300781,17.9794922 79.1025391,17.5009766 80.2304688,17.5009766 C81.7890625,17.5009766 82.7734375,18.4990234 82.7734375,20.2285156 L82.7734375,25 L81.5976562,25 L81.5976562,20.515625 C81.5976562,19.2099609 81.0097656,18.5605469 79.8955078,18.5605469 C78.5761719,18.5605469 77.8515625,19.3945312 77.8515625,20.6386719 L77.8515625,25 L76.6757812,25 Z M84.9472656,25 L84.9472656,17.6308594 L86.1230469,17.6308594 L86.1230469,25 L84.9472656,25 Z M85.5351562,16.1337891 C85.0839844,16.1337891 84.7148438,15.7646484 84.7148438,15.3134766 C84.7148438,14.8623047 85.0839844,14.4931641 85.5351562,14.4931641 C85.9863281,14.4931641 86.3554688,14.8623047 86.3554688,15.3134766 C86.3554688,15.7646484 85.9863281,16.1337891 85.5351562,16.1337891 Z M91.9541016,17.5009766 C93.8339844,17.5009766 95.0507812,18.9980469 95.0507812,21.3154297 C95.0507812,23.6191406 93.8271484,25.1298828 91.9541016,25.1298828 C90.9013672,25.1298828 90.0537109,24.671875 89.6503906,23.8925781 L89.5410156,23.8925781 L89.5410156,27.4609375 L88.3652344,27.4609375 L88.3652344,17.6308594 L89.4863281,17.6308594 L89.4863281,18.8613281 L89.5957031,18.8613281 C90.0673828,18.0136719 90.9492187,17.5009766 91.9541016,17.5009766 Z M91.6738281,24.0703125 C93.0273438,24.0703125 93.8339844,23.0380859 93.8339844,21.3154297 C93.8339844,19.5927734 93.0273438,18.5605469 91.6806641,18.5605469 C90.3476562,18.5605469 89.5068359,19.6201172 89.5068359,21.3154297 C89.5068359,23.0039062 90.3476562,24.0703125 91.6738281,24.0703125 Z M96.7255859,19.6474609 C96.7255859,18.4238281 97.9082031,17.5009766 99.4736328,17.5009766 C101.018555,17.5009766 102.091797,18.2666016 102.249023,19.4765625 L101.086914,19.4765625 C100.929688,18.8886719 100.355469,18.4990234 99.4667969,18.4990234 C98.5917969,18.4990234 97.9082031,18.9433594 97.9082031,19.5996094 C97.9082031,20.1054688 98.3183594,20.4199219 99.1865234,20.6318359 L100.321289,20.9052734 C101.708984,21.2402344 102.378906,21.8417969 102.378906,22.9013672 C102.378906,24.2207031 101.100586,25.1298828 99.4257812,25.1298828 C97.7851562,25.1298828 96.6572266,24.34375 96.5273438,23.1201172 L97.7373047,23.1201172 C97.9355469,23.7421875 98.5234375,24.1386719 99.4667969,24.1386719 C100.458008,24.1386719 101.168945,23.6669922 101.168945,22.9902344 C101.168945,22.484375 100.786133,22.1425781 100,21.9511719 L98.7353516,21.6435547 C97.3544922,21.3085938 96.7255859,20.7138672 96.7255859,19.6474609 Z" id="Conten-chips" fill-opacity="0.38" fill="#000000" fill-rule="evenodd"></path>
                        </g>
                    </g>
                    <g id="Chips-1" mask="url(#mask-3)">
                        <g transform="translate(127.000000, 105.000000)">
                            <g id="Rectangle-Copy" fill="none">
                                <use fill="black" fill-opacity="1" filter="url(#filter-10)" xlink:href="#path-9"></use>
                                <use fill="#F3FEF3" fill-rule="evenodd" xlink:href="#path-9"></use>
                                <rect stroke="#87D58B" stroke-width="1" x="0.5" y="0.5" width="129" height="39" rx="19.5"></rect>
                            </g>
                            <path d="M16.7861328,22.4228516 L18.0302734,22.4228516 C18.1806641,23.4550781 19.1650391,24.1113281 20.5664062,24.1113281 C21.8925781,24.1113281 22.8701172,23.3935547 22.8701172,22.4160156 C22.8701172,21.5751953 22.2548828,21.0419922 20.8945312,20.7001953 L19.6298828,20.3720703 C17.8457031,19.9208984 17.0732422,19.1142578 17.0732422,17.7128906 C17.0732422,16.0380859 18.4746094,14.9033203 20.5595703,14.9033203 C22.4667969,14.9033203 23.8886719,16.0380859 23.9912109,17.6308594 L22.7539062,17.6308594 C22.5830078,16.6191406 21.7490234,16.0175781 20.5185547,16.0175781 C19.2060547,16.0175781 18.3378906,16.6738281 18.3378906,17.671875 C18.3378906,18.4443359 18.8779297,18.8886719 20.2382812,19.2373047 L21.2705078,19.5107422 C23.3144531,20.0234375 24.1347656,20.8164062 24.1347656,22.265625 C24.1347656,24.0771484 22.7060547,25.2324219 20.4501953,25.2324219 C18.3583984,25.2324219 16.9160156,24.125 16.7861328,22.4228516 Z M28.9677734,18.5400391 C27.7919922,18.5400391 26.9716797,19.4013672 26.8828125,20.7070312 L30.9433594,20.7070312 C30.9160156,19.4013672 30.1367188,18.5400391 28.9677734,18.5400391 Z M30.9091797,23.0927734 L32.0849609,23.0927734 C31.7294922,24.3574219 30.5947266,25.1298828 28.9814453,25.1298828 C26.9375,25.1298828 25.6591797,23.6533203 25.6591797,21.3222656 C25.6591797,19.0048828 26.9580078,17.5009766 28.9814453,17.5009766 C30.9707031,17.5009766 32.1806641,18.9160156 32.1806641,21.2060547 L32.1806641,21.6572266 L26.8828125,21.6572266 L26.8828125,21.7119141 C26.9443359,23.1679688 27.7578125,24.0908203 29.0087891,24.0908203 C29.9589844,24.0908203 30.6015625,23.7421875 30.9091797,23.0927734 Z M34.0947266,25 L34.0947266,14.7050781 L35.2705078,14.7050781 L35.2705078,25 L34.0947266,25 Z M40.4931641,18.5400391 C39.3173828,18.5400391 38.4970703,19.4013672 38.4082031,20.7070312 L42.46875,20.7070312 C42.4414062,19.4013672 41.6621094,18.5400391 40.4931641,18.5400391 Z M42.4345703,23.0927734 L43.6103516,23.0927734 C43.2548828,24.3574219 42.1201172,25.1298828 40.5068359,25.1298828 C38.4628906,25.1298828 37.1845703,23.6533203 37.1845703,21.3222656 C37.1845703,19.0048828 38.4833984,17.5009766 40.5068359,17.5009766 C42.4960938,17.5009766 43.7060547,18.9160156 43.7060547,21.2060547 L43.7060547,21.6572266 L38.4082031,21.6572266 L38.4082031,21.7119141 C38.4697266,23.1679688 39.2832031,24.0908203 40.5341797,24.0908203 C41.484375,24.0908203 42.1269531,23.7421875 42.4345703,23.0927734 Z M51.6494141,19.8867188 L50.4599609,19.8867188 C50.2685547,19.1552734 49.6191406,18.5605469 48.5595703,18.5605469 C47.2333984,18.5605469 46.3994141,19.6201172 46.3994141,21.2880859 C46.3994141,22.9902344 47.2470703,24.0703125 48.5595703,24.0703125 C49.5507812,24.0703125 50.2412109,23.6123047 50.4599609,22.7783203 L51.6494141,22.7783203 C51.4375,24.1318359 50.3369141,25.1298828 48.5664062,25.1298828 C46.5019531,25.1298828 45.1826172,23.6328125 45.1826172,21.2880859 C45.1826172,18.9912109 46.4951172,17.5009766 48.5595703,17.5009766 C50.3505859,17.5009766 51.4443359,18.5742188 51.6494141,19.8867188 Z M53.8779297,15.7236328 L55.0537109,15.7236328 L55.0537109,17.6308594 L56.6943359,17.6308594 L56.6943359,18.6152344 L55.0537109,18.6152344 L55.0537109,22.7851562 C55.0537109,23.6533203 55.3818359,24.0224609 56.1474609,24.0224609 C56.359375,24.0224609 56.4755859,24.015625 56.6943359,23.9951172 L56.6943359,24.9863281 C56.4619141,25.0273438 56.2363281,25.0546875 56.0039062,25.0546875 C54.4863281,25.0546875 53.8779297,24.4941406 53.8779297,23.0859375 L53.8779297,18.6152344 L52.6884766,18.6152344 L52.6884766,17.6308594 L53.8779297,17.6308594 L53.8779297,15.7236328 Z M61.4111328,18.5400391 C60.2353516,18.5400391 59.4150391,19.4013672 59.3261719,20.7070312 L63.3867188,20.7070312 C63.359375,19.4013672 62.5800781,18.5400391 61.4111328,18.5400391 Z M63.3525391,23.0927734 L64.5283203,23.0927734 C64.1728516,24.3574219 63.0380859,25.1298828 61.4248047,25.1298828 C59.3808594,25.1298828 58.1025391,23.6533203 58.1025391,21.3222656 C58.1025391,19.0048828 59.4013672,17.5009766 61.4248047,17.5009766 C63.4140625,17.5009766 64.6240234,18.9160156 64.6240234,21.2060547 L64.6240234,21.6572266 L59.3261719,21.6572266 L59.3261719,21.7119141 C59.3876953,23.1679688 60.2011719,24.0908203 61.4521484,24.0908203 C62.4023438,24.0908203 63.0449219,23.7421875 63.3525391,23.0927734 Z M69.1972656,25.1298828 C67.3105469,25.1298828 66.1005859,23.6328125 66.1005859,21.3154297 C66.1005859,19.0048828 67.3242188,17.5009766 69.1972656,17.5009766 C70.2226562,17.5009766 71.0908203,17.9863281 71.5078125,18.7929688 L71.6103516,18.7929688 L71.6103516,14.7050781 L72.7861328,14.7050781 L72.7861328,25 L71.6650391,25 L71.6650391,23.8242188 L71.5556641,23.8242188 C71.0908203,24.6445312 70.2158203,25.1298828 69.1972656,25.1298828 Z M69.4707031,18.5605469 C68.1308594,18.5605469 67.3173828,19.5996094 67.3173828,21.3154297 C67.3173828,23.0380859 68.1240234,24.0703125 69.4707031,24.0703125 C70.8105469,24.0703125 71.6376953,23.0175781 71.6376953,21.3154297 C71.6376953,19.6269531 70.8037109,18.5605469 69.4707031,18.5605469 Z M85.1181641,19.8867188 L83.9287109,19.8867188 C83.7373047,19.1552734 83.0878906,18.5605469 82.0283203,18.5605469 C80.7021484,18.5605469 79.8681641,19.6201172 79.8681641,21.2880859 C79.8681641,22.9902344 80.7158203,24.0703125 82.0283203,24.0703125 C83.0195312,24.0703125 83.7099609,23.6123047 83.9287109,22.7783203 L85.1181641,22.7783203 C84.90625,24.1318359 83.8056641,25.1298828 82.0351562,25.1298828 C79.9707031,25.1298828 78.6513672,23.6328125 78.6513672,21.2880859 C78.6513672,18.9912109 79.9638672,17.5009766 82.0283203,17.5009766 C83.8193359,17.5009766 84.9130859,18.5742188 85.1181641,19.8867188 Z M86.9228516,25 L86.9228516,14.7050781 L88.0986328,14.7050781 L88.0986328,18.7929688 L88.2080078,18.7929688 C88.5771484,17.9794922 89.3496094,17.5009766 90.4775391,17.5009766 C92.0361328,17.5009766 93.0205078,18.4990234 93.0205078,20.2285156 L93.0205078,25 L91.8447266,25 L91.8447266,20.515625 C91.8447266,19.2099609 91.2568359,18.5605469 90.1425781,18.5605469 C88.8232422,18.5605469 88.0986328,19.3945312 88.0986328,20.6386719 L88.0986328,25 L86.9228516,25 Z M95.1943359,25 L95.1943359,17.6308594 L96.3701172,17.6308594 L96.3701172,25 L95.1943359,25 Z M95.7822266,16.1337891 C95.3310547,16.1337891 94.9619141,15.7646484 94.9619141,15.3134766 C94.9619141,14.8623047 95.3310547,14.4931641 95.7822266,14.4931641 C96.2333984,14.4931641 96.6025391,14.8623047 96.6025391,15.3134766 C96.6025391,15.7646484 96.2333984,16.1337891 95.7822266,16.1337891 Z M102.201172,17.5009766 C104.081055,17.5009766 105.297852,18.9980469 105.297852,21.3154297 C105.297852,23.6191406 104.074219,25.1298828 102.201172,25.1298828 C101.148437,25.1298828 100.300781,24.671875 99.8974609,23.8925781 L99.7880859,23.8925781 L99.7880859,27.4609375 L98.6123047,27.4609375 L98.6123047,17.6308594 L99.7333984,17.6308594 L99.7333984,18.8613281 L99.8427734,18.8613281 C100.314453,18.0136719 101.196289,17.5009766 102.201172,17.5009766 Z M101.920898,24.0703125 C103.274414,24.0703125 104.081055,23.0380859 104.081055,21.3154297 C104.081055,19.5927734 103.274414,18.5605469 101.927734,18.5605469 C100.594727,18.5605469 99.7539062,19.6201172 99.7539062,21.3154297 C99.7539062,23.0039062 100.594727,24.0703125 101.920898,24.0703125 Z M106.972656,19.6474609 C106.972656,18.4238281 108.155273,17.5009766 109.720703,17.5009766 C111.265625,17.5009766 112.338867,18.2666016 112.496094,19.4765625 L111.333984,19.4765625 C111.176758,18.8886719 110.602539,18.4990234 109.713867,18.4990234 C108.838867,18.4990234 108.155273,18.9433594 108.155273,19.5996094 C108.155273,20.1054688 108.56543,20.4199219 109.433594,20.6318359 L110.568359,20.9052734 C111.956055,21.2402344 112.625977,21.8417969 112.625977,22.9013672 C112.625977,24.2207031 111.347656,25.1298828 109.672852,25.1298828 C108.032227,25.1298828 106.904297,24.34375 106.774414,23.1201172 L107.984375,23.1201172 C108.182617,23.7421875 108.770508,24.1386719 109.713867,24.1386719 C110.705078,24.1386719 111.416016,23.6669922 111.416016,22.9902344 C111.416016,22.484375 111.033203,22.1425781 110.24707,21.9511719 L108.982422,21.6435547 C107.601562,21.3085938 106.972656,20.7138672 106.972656,19.6474609 Z" id="Selected-chips" fill-opacity="0.54" fill="#000000" fill-rule="evenodd"></path>
                        </g>
                    </g>
                    <g id="Navigation-Bar/iOS/Single-Line-Copy" mask="url(#mask-3)">
                        <g transform="translate(1.125000, 0.000000)">
                            <g id="Header-nav" stroke-width="1" fill="none">
                                <g id="Rectangle-2">
                                    <use fill="black" fill-opacity="1" filter="url(#filter-12)" xlink:href="#path-11"></use>
                                    <use fill="#FFFFFF" fill-rule="evenodd" xlink:href="#path-11"></use>
                                </g>
                                <g id="Group-3" transform="translate(19.577458, 44.160634)" stroke="#DBDBDB" stroke-linecap="square" stroke-width="3">
                                    <path d="M0.0324434744,14.2684722 L14.1745791,0.12633654" id="Line-2" transform="translate(7.103511, 7.197404) scale(-1, 1) translate(-7.103511, -7.197404) "></path>
                                    <path d="M0.0324434744,14.2684722 L14.1745791,0.12633654" id="Line-2"></path>
                                </g>
                                <g id="Status-Bar/White/100%" transform="translate(6.750000, 5.625000)">
                                    <path d="M159.637939,12.0300293 C158.022949,12.0300293 156.823242,11.0742188 156.52002,9.54492188 L157.739502,9.54492188 C157.996582,10.4348145 158.715088,10.9753418 159.651123,10.9753418 C161.200195,10.9753418 162.076904,9.60424805 162.142822,7.07299805 L162.037354,7.07299805 C161.569336,7.99584961 160.639893,8.53637695 159.506104,8.53637695 C157.693359,8.53637695 156.381592,7.19824219 156.381592,5.35253906 C156.381592,3.44091797 157.765869,2.07641602 159.717041,2.07641602 C161.140869,2.07641602 162.241699,2.83447266 162.834961,4.23852539 C163.144775,4.96362305 163.296387,5.84033203 163.296387,6.88842773 C163.296387,10.157959 161.964844,12.0300293 159.637939,12.0300293 Z M159.717041,7.50805664 C160.976074,7.50805664 161.87915,6.61157227 161.87915,5.35253906 C161.87915,4.08032227 160.949707,3.11791992 159.730225,3.11791992 C158.510742,3.11791992 157.581299,4.06713867 157.581299,5.31298828 C157.581299,6.61157227 158.458008,7.50805664 159.717041,7.50805664 Z M166.144043,10.7248535 C166.618652,10.7248535 167.000977,10.3359375 167.000977,9.86791992 C167.000977,9.39331055 166.618652,9.01098633 166.144043,9.01098633 C165.676025,9.01098633 165.287109,9.39331055 165.287109,9.86791992 C165.287109,10.3359375 165.676025,10.7248535 166.144043,10.7248535 Z M166.144043,5.65576172 C166.618652,5.65576172 167.000977,5.2668457 167.000977,4.79882812 C167.000977,4.32421875 166.618652,3.94189453 166.144043,3.94189453 C165.676025,3.94189453 165.287109,4.32421875 165.287109,4.79882812 C165.287109,5.2668457 165.676025,5.65576172 166.144043,5.65576172 Z M173.553223,11.8125 L173.553223,9.84155273 L168.919189,9.84155273 L168.919189,8.76049805 C169.769531,7.25097656 171.279053,4.86474609 172.99292,2.30053711 L174.713379,2.30053711 L174.713379,8.78027344 L176.064697,8.78027344 L176.064697,9.84155273 L174.713379,9.84155273 L174.713379,11.8125 L173.553223,11.8125 Z M170.13208,8.70776367 L170.13208,8.78686523 L173.559814,8.78686523 L173.559814,3.40136719 L173.480713,3.40136719 C172.505127,4.81860352 171.265869,6.78295898 170.13208,8.70776367 Z M180.171387,11.8125 L181.35791,11.8125 L181.35791,2.30053711 L180.177979,2.30053711 L177.646729,4.11987305 L177.646729,5.37231445 L180.065918,3.61889648 L180.171387,3.61889648 L180.171387,11.8125 Z M194.337158,11.8125 L193.381348,9.09008789 L189.597656,9.09008789 L188.641846,11.8125 L187.395996,11.8125 L190.902832,2.30053711 L192.076172,2.30053711 L195.583008,11.8125 L194.337158,11.8125 Z M191.436768,3.83642578 L189.947021,8.08154297 L193.031982,8.08154297 L191.542236,3.83642578 L191.436768,3.83642578 Z M198.358154,11.8125 L198.358154,4.54833984 L198.437256,4.54833984 L201.436523,11.746582 L202.438477,11.746582 L205.437744,4.54833984 L205.516846,4.54833984 L205.516846,11.8125 L206.624268,11.8125 L206.624268,2.30053711 L205.246582,2.30053711 L201.990234,10.1711426 L201.884766,10.1711426 L198.628418,2.30053711 L197.250732,2.30053711 L197.250732,11.8125 L198.358154,11.8125 Z" id="9:41-AM" fill="#FFFFFF"></path>
                                    <g id="Pin-Right" transform="translate(289.625000, 0.000000)" fill="#DBDBDB">
                                        <path d="M34.4937128,0.5 L54.0062872,0.5 C54.8266197,0.5 55.5,1.17394722 55.5,2.00530324 L55.5,8.49469676 C55.5,9.33197845 54.831242,10 54.0062872,10 L34.4937128,10 C33.6733803,10 33,9.32605278 33,8.49469676 L33,2.00530324 C33,1.16802155 33.668758,0.5 34.4937128,0.5 Z M56,3.5 L56.75,3.5 C57.1671014,3.5 57.5,3.83232111 57.5,4.24225998 L57.5,6.25774002 C57.5,6.66440529 57.1642136,7 56.75,7 L56,7 L56,3.5 Z M34.5081524,1 C33.9513652,1 33.5,1.45699692 33.5,2.00844055 L33.5,8.49155945 C33.5,9.04850578 33.9490581,9.5 34.5081524,9.5 L53.9918476,9.5 C54.5486348,9.5 55,9.04300308 55,8.49155945 L55,2.00844055 C55,1.45149422 54.5509419,1 53.9918476,1 L34.5081524,1 Z M34.5067444,1.5 L53.9932556,1.5 C54.2697754,1.5 54.5,1.72031886 54.5,1.99209595 L54.5,8.50790405 C54.5,8.78362799 54.2731228,9 53.9932556,9 L34.5067444,9 C34.2302246,9 34,8.77968114 34,8.50790405 L34,1.99209595 C34,1.71637201 34.2268772,1.5 34.5067444,1.5 Z" id="Battery"></path>
                                    </g>
                                    <g id="Signal" transform="translate(0.000000, 1.000000)" fill="#DBDBDB">
                                        <path d="M3.25,7.65625 C1.73121694,7.65625 0.5,6.42503306 0.5,4.90625 C0.5,3.38746694 1.73121694,2.15625 3.25,2.15625 C4.76878306,2.15625 6,3.38746694 6,4.90625 C6,6.42503306 4.76878306,7.65625 3.25,7.65625 Z M10.25,7.65625 C8.73121694,7.65625 7.5,6.42503306 7.5,4.90625 C7.5,3.38746694 8.73121694,2.15625 10.25,2.15625 C11.7687831,2.15625 13,3.38746694 13,4.90625 C13,6.42503306 11.7687831,7.65625 10.25,7.65625 Z M17.25,7.65625 C15.7312169,7.65625 14.5,6.42503306 14.5,4.90625 C14.5,3.38746694 15.7312169,2.15625 17.25,2.15625 C18.7687831,2.15625 20,3.38746694 20,4.90625 C20,6.42503306 18.7687831,7.65625 17.25,7.65625 Z M24.25,7.65625 C22.7312169,7.65625 21.5,6.42503306 21.5,4.90625 C21.5,3.38746694 22.7312169,2.15625 24.25,2.15625 C25.7687831,2.15625 27,3.38746694 27,4.90625 C27,6.42503306 25.7687831,7.65625 24.25,7.65625 Z M31.25,7.65625 C29.7312169,7.65625 28.5,6.42503306 28.5,4.90625 C28.5,3.38746694 29.7312169,2.15625 31.25,2.15625 C32.7687831,2.15625 34,3.38746694 34,4.90625 C34,6.42503306 32.7687831,7.65625 31.25,7.65625 Z" id="Mobile-Signal"></path>
                                    </g>
                                </g>
                            </g>
                            <rect id="Rectangle-8-Copy" fill="#DBDBDB" x="54.9877078" y="48.6570687" width="148.5" height="6.75" rx="3"></rect>
                        </g>
                    </g>
                    <path d="M20,218 L117,218" id="Line-3" stroke="#DBDBDB" stroke-width="8" stroke-linecap="round" mask="url(#mask-3)"></path>
                </g>
                <path d="M2.066,668.208 L3.606,668.208 C5.23,668.208 6.588,667.2 6.588,665.044 C6.588,662.888 5.244,661.866 3.62,661.866 L2.066,661.866 L2.066,668.208 Z M3.676,670 L0.134,670 L0.134,660.074 L3.69,660.074 C6.518,660.074 8.59,661.908 8.59,665.044 C8.59,668.18 6.504,670 3.676,670 Z M13.266,668.516 C14.176,668.516 15.016,667.858 15.016,666.556 C15.016,665.254 14.176,664.596 13.266,664.596 C12.356,664.596 11.516,665.254 11.516,666.556 C11.516,667.844 12.356,668.516 13.266,668.516 Z M13.266,662.902 C15.324,662.902 16.878,664.428 16.878,666.556 C16.878,668.67 15.324,670.21 13.266,670.21 C11.208,670.21 9.654,668.67 9.654,666.556 C9.654,664.428 11.208,662.902 13.266,662.902 Z M22.828,670 C22.8,669.86 22.772,669.538 22.772,669.258 C22.394,669.902 21.596,670.182 20.868,670.182 C19.202,670.182 18.25,668.964 18.25,667.466 L18.25,663.112 L20.112,663.112 L20.112,667.088 C20.112,667.858 20.504,668.474 21.372,668.474 C22.198,668.474 22.674,667.914 22.674,667.116 L22.674,663.112 L24.536,663.112 L24.536,668.754 C24.536,669.286 24.578,669.762 24.606,670 L22.828,670 Z M28.33,670 L26.524,670 L26.524,659.864 L28.358,659.864 L28.358,663.868 C28.666,663.378 29.422,662.93 30.444,662.93 C32.46,662.93 33.622,664.484 33.622,666.528 C33.622,668.614 32.334,670.168 30.374,670.168 C29.422,670.168 28.694,669.748 28.33,669.16 L28.33,670 Z M31.76,666.542 C31.76,665.282 31.004,664.596 30.052,664.596 C29.114,664.596 28.33,665.282 28.33,666.542 C28.33,667.788 29.114,668.502 30.052,668.502 C31.004,668.502 31.76,667.802 31.76,666.542 Z M36.954,670 L35.092,670 L35.092,659.864 L36.954,659.864 L36.954,670 Z M40.3,665.772 L43.38,665.772 C43.352,665.086 42.904,664.414 41.84,664.414 C40.874,664.414 40.342,665.142 40.3,665.772 Z M43.562,667.564 L45.116,668.026 C44.766,669.216 43.674,670.21 41.98,670.21 C40.09,670.21 38.424,668.852 38.424,666.528 C38.424,664.33 40.048,662.902 41.812,662.902 C43.94,662.902 45.214,664.26 45.214,666.472 C45.214,666.738 45.186,667.018 45.186,667.046 L40.258,667.046 C40.3,667.956 41.07,668.614 41.994,668.614 C42.862,668.614 43.338,668.18 43.562,667.564 Z M55.182,670 L53.236,666.178 L52.228,666.178 L52.228,670 L50.282,670 L50.282,660.074 L54.16,660.074 C56.092,660.074 57.324,661.404 57.324,663.126 C57.324,664.512 56.512,665.562 55.21,665.94 L57.338,670 L55.182,670 Z M52.228,664.512 L53.796,664.512 C54.776,664.512 55.35,663.952 55.35,663.14 C55.35,662.3 54.776,661.754 53.796,661.754 L52.228,661.754 L52.228,664.512 Z M61.79,668.516 C62.7,668.516 63.54,667.858 63.54,666.556 C63.54,665.254 62.7,664.596 61.79,664.596 C60.88,664.596 60.04,665.254 60.04,666.556 C60.04,667.844 60.88,668.516 61.79,668.516 Z M61.79,662.902 C63.848,662.902 65.402,664.428 65.402,666.556 C65.402,668.67 63.848,670.21 61.79,670.21 C59.732,670.21 58.178,668.67 58.178,666.556 C58.178,664.428 59.732,662.902 61.79,662.902 Z M70.596,663.112 L72.556,663.112 L74.04,667.55 L75.314,663.112 L77.162,663.112 L75.006,670 L73.144,670 L71.534,665.296 L69.952,670 L68.062,670 L65.864,663.112 L67.824,663.112 L69.098,667.536 L70.596,663.112 Z" id="Double-Row" fill-opacity="0.38" fill="#000000"></path>
            </g>
        </g>
    </g>
</svg>