<?xml version="1.0" encoding="UTF-8"?>
<svg width="368px" height="676px" viewBox="0 0 368 676" version="1.1" xmlns="http://www.w3.org/2000/svg" xmlns:xlink="http://www.w3.org/1999/xlink">
    <!-- Generator: Sketch 48.2 (47327) - http://www.bohemiancoding.com/sketch -->
    <title>Group 16</title>
    <desc>Created with Sketch.</desc>
    <defs>
        <filter x="-1.8%" y="-0.9%" width="103.6%" height="102.0%" filterUnits="objectBoundingBox" id="filter-1">
            <feOffset dx="0" dy="1" in="SourceAlpha" result="shadowOffsetOuter1"></feOffset>
            <feGaussianBlur stdDeviation="2" in="shadowOffsetOuter1" result="shadowBlurOuter1"></feGaussianBlur>
            <feColorMatrix values="0 0 0 0 0   0 0 0 0 0   0 0 0 0 0  0 0 0 0.12 0" type="matrix" in="shadowBlurOuter1" result="shadowMatrixOuter1"></feColorMatrix>
            <feMerge>
                <feMergeNode in="shadowMatrixOuter1"></feMergeNode>
                <feMergeNode in="SourceGraphic"></feMergeNode>
            </feMerge>
        </filter>
        <rect id="path-2" x="0" y="0" width="360" height="640"></rect>
        <rect id="path-4" x="0" y="0" width="120" height="40" rx="20"></rect>
        <rect id="path-5" x="0" y="0" width="120" height="40" rx="20"></rect>
        <rect id="path-6" x="0" y="0" width="130" height="40" rx="20"></rect>
        <filter x="-13.8%" y="-45.0%" width="127.7%" height="190.0%" filterUnits="objectBoundingBox" id="filter-7">
            <feOffset dx="0" dy="0" in="SourceAlpha" result="shadowOffsetOuter1"></feOffset>
            <feGaussianBlur stdDeviation="6" in="shadowOffsetOuter1" result="shadowBlurOuter1"></feGaussianBlur>
            <feComposite in="shadowBlurOuter1" in2="SourceAlpha" operator="out" result="shadowBlurOuter1"></feComposite>
            <feColorMatrix values="0 0 0 0 0   0 0 0 0 0   0 0 0 0 0  0 0 0 0.12 0" type="matrix" in="shadowBlurOuter1"></feColorMatrix>
        </filter>
        <rect id="path-8" x="0" y="0" width="360" height="81"></rect>
        <filter x="-3.1%" y="-14.8%" width="106.1%" height="127.2%" filterUnits="objectBoundingBox" id="filter-9">
            <feOffset dx="0" dy="-1" in="SourceAlpha" result="shadowOffsetOuter1"></feOffset>
            <feGaussianBlur stdDeviation="3.5" in="shadowOffsetOuter1" result="shadowBlurOuter1"></feGaussianBlur>
            <feColorMatrix values="0 0 0 0 0   0 0 0 0 0   0 0 0 0 0  0 0 0 0.15 0" type="matrix" in="shadowBlurOuter1"></feColorMatrix>
        </filter>
    </defs>
    <g id="CEKUNIFY-Website---Chips" stroke="none" stroke-width="1" fill="none" fill-rule="evenodd" transform="translate(-776.000000, -1370.000000)">
        <g id="Group-7" transform="translate(780.000000, 1373.000000)">
            <g id="Group-16">
                <path d="M7.812,662.44 L6.076,662.972 C5.978,662.426 5.53,661.572 4.27,661.572 C3.332,661.572 2.716,662.174 2.716,662.832 C2.716,663.378 3.066,663.812 3.794,663.952 L5.18,664.218 C6.986,664.568 7.952,665.744 7.952,667.144 C7.952,668.67 6.678,670.21 4.368,670.21 C1.736,670.21 0.574,668.516 0.42,667.102 L2.212,666.626 C2.296,667.606 2.982,668.488 4.382,668.488 C5.418,668.488 5.992,667.97 5.992,667.27 C5.992,666.696 5.558,666.248 4.788,666.094 L3.402,665.814 C1.82,665.492 0.798,664.47 0.798,662.972 C0.798,661.208 2.38,659.864 4.256,659.864 C6.664,659.864 7.588,661.32 7.812,662.44 Z M11.284,670 L9.422,670 L9.422,663.112 L11.284,663.112 L11.284,670 Z M9.198,660.858 C9.198,660.214 9.716,659.696 10.346,659.696 C10.99,659.696 11.494,660.214 11.494,660.858 C11.494,661.474 10.99,661.992 10.346,661.992 C9.716,661.992 9.198,661.474 9.198,660.858 Z M15.134,666.038 L15.134,670 L13.272,670 L13.272,663.112 L15.078,663.112 L15.078,663.966 C15.498,663.252 16.324,662.93 17.066,662.93 C18.774,662.93 19.558,664.148 19.558,665.66 L19.558,670 L17.696,670 L17.696,665.982 C17.696,665.212 17.318,664.61 16.422,664.61 C15.61,664.61 15.134,665.24 15.134,666.038 Z M20.958,670.378 L22.638,669.93 C22.764,670.686 23.366,671.232 24.248,671.232 C25.424,671.232 26.082,670.644 26.082,669.314 L26.082,668.81 C25.802,669.258 25.158,669.692 24.164,669.692 C22.33,669.692 20.958,668.278 20.958,666.346 C20.958,664.526 22.274,662.986 24.164,662.986 C25.256,662.986 25.886,663.462 26.124,663.924 L26.124,663.112 L27.916,663.112 L27.916,669.258 C27.916,671.148 26.894,672.87 24.304,672.87 C22.414,672.87 21.154,671.694 20.958,670.378 Z M24.486,668.096 C25.438,668.096 26.11,667.41 26.11,666.346 C26.11,665.282 25.382,664.61 24.486,664.61 C23.562,664.61 22.834,665.282 22.834,666.346 C22.834,667.424 23.52,668.096 24.486,668.096 Z M31.668,670 L29.806,670 L29.806,659.864 L31.668,659.864 L31.668,670 Z M35.014,665.772 L38.094,665.772 C38.066,665.086 37.618,664.414 36.554,664.414 C35.588,664.414 35.056,665.142 35.014,665.772 Z M38.276,667.564 L39.83,668.026 C39.48,669.216 38.388,670.21 36.694,670.21 C34.804,670.21 33.138,668.852 33.138,666.528 C33.138,664.33 34.762,662.902 36.526,662.902 C38.654,662.902 39.928,664.26 39.928,666.472 C39.928,666.738 39.9,667.018 39.9,667.046 L34.972,667.046 C35.014,667.956 35.784,668.614 36.708,668.614 C37.576,668.614 38.052,668.18 38.276,667.564 Z M49.896,670 L47.95,666.178 L46.942,666.178 L46.942,670 L44.996,670 L44.996,660.074 L48.874,660.074 C50.806,660.074 52.038,661.404 52.038,663.126 C52.038,664.512 51.226,665.562 49.924,665.94 L52.052,670 L49.896,670 Z M46.942,664.512 L48.51,664.512 C49.49,664.512 50.064,663.952 50.064,663.14 C50.064,662.3 49.49,661.754 48.51,661.754 L46.942,661.754 L46.942,664.512 Z M56.504,668.516 C57.414,668.516 58.254,667.858 58.254,666.556 C58.254,665.254 57.414,664.596 56.504,664.596 C55.594,664.596 54.754,665.254 54.754,666.556 C54.754,667.844 55.594,668.516 56.504,668.516 Z M56.504,662.902 C58.562,662.902 60.116,664.428 60.116,666.556 C60.116,668.67 58.562,670.21 56.504,670.21 C54.446,670.21 52.892,668.67 52.892,666.556 C52.892,664.428 54.446,662.902 56.504,662.902 Z M65.31,663.112 L67.27,663.112 L68.754,667.55 L70.028,663.112 L71.876,663.112 L69.72,670 L67.858,670 L66.248,665.296 L64.666,670 L62.776,670 L60.578,663.112 L62.538,663.112 L63.812,667.536 L65.31,663.112 Z" id="Single-Row" fill-opacity="0.38" fill="#000000"></path>
                <g id="Group" filter="url(#filter-1)">
                    <mask id="mask-3" fill="white">
                        <use xlink:href="#path-2"></use>
                    </mask>
                    <use id="Rectangle-10" fill="#FFFFFF" xlink:href="#path-2"></use>
                    <g id="Group-13" mask="url(#mask-3)">
                        <g transform="translate(16.000000, 169.000000)">
                            <path d="M8,160 L152,160 C156.418278,160 160,156.418278 160,152 L160,8 C160,3.581722 156.418278,-8.11624501e-16 152,0 L8,0 C3.581722,8.11624501e-16 -5.41083001e-16,3.581722 0,8 L0,152 C5.41083001e-16,156.418278 3.581722,160 8,160 Z" id="Fill-9" fill="#DBDBDB"></path>
                            <g id="Group-12" stroke-width="1" fill="none" transform="translate(40.000000, 54.647887)">
                                <path d="M1.60526345,49.6341892 C2.01544994,49.8815862 2.50990955,50.0366448 3.00436916,50.0444849 L23.8834636,50.0741028 L74.6872536,50.142921 C75.7724849,50.1472766 76.7184077,49.5157174 77.17933,48.5252582 C77.6608907,47.5461237 77.4889047,46.3823124 76.8104201,45.5704321 L49.561826,12.295536 C49.0260898,11.6160654 48.1919579,11.2580366 47.333748,11.2798145 C46.4961764,11.3190147 45.7041811,11.7284394 45.2045619,12.4296879 L29.8505162,34.0743118 L21.0568745,23.0686299 C20.5185585,22.394386 19.6981855,22.0189349 18.8442752,22.057264 C17.9912249,22.0712019 17.1914903,22.5050177 16.667793,23.2088796 L0.787470251,45.6044057 C0.164881108,46.4624551 0.0969466578,47.5696438 0.567328234,48.4991248 C0.796069548,48.9991455 1.17873829,49.3789521 1.60526345,49.6341892" id="Fill-27" fill="#F1F1F1"></path>
                                <path d="M71.1906032,18.1887926 C76.0277489,18.1905796 79.9413914,14.2269199 79.9510939,9.33489168 C79.9599144,4.44018293 76.0400975,0.469375017 71.2188287,0.461333327 C66.3843292,0.4559722 62.4583381,4.41337729 62.4495176,9.30719253 C62.4459894,14.2063689 66.3569857,18.1718157 71.1906032,18.1887926" id="Fill-29" fill="#F1F1F1"></path>
                            </g>
                        </g>
                    </g>
                    <g id="Group-13" mask="url(#mask-3)">
                        <g transform="translate(184.000000, 169.000000)">
                            <path d="M8,160 L152,160 C156.418278,160 160,156.418278 160,152 L160,8 C160,3.581722 156.418278,-8.11624501e-16 152,0 L8,0 C3.581722,8.11624501e-16 -5.41083001e-16,3.581722 0,8 L0,152 C5.41083001e-16,156.418278 3.581722,160 8,160 Z" id="Fill-9" fill="#DBDBDB"></path>
                            <g id="Group-12" stroke-width="1" fill="none" transform="translate(40.000000, 54.647887)">
                                <path d="M1.60526345,49.6341892 C2.01544994,49.8815862 2.50990955,50.0366448 3.00436916,50.0444849 L23.8834636,50.0741028 L74.6872536,50.142921 C75.7724849,50.1472766 76.7184077,49.5157174 77.17933,48.5252582 C77.6608907,47.5461237 77.4889047,46.3823124 76.8104201,45.5704321 L49.561826,12.295536 C49.0260898,11.6160654 48.1919579,11.2580366 47.333748,11.2798145 C46.4961764,11.3190147 45.7041811,11.7284394 45.2045619,12.4296879 L29.8505162,34.0743118 L21.0568745,23.0686299 C20.5185585,22.394386 19.6981855,22.0189349 18.8442752,22.057264 C17.9912249,22.0712019 17.1914903,22.5050177 16.667793,23.2088796 L0.787470251,45.6044057 C0.164881108,46.4624551 0.0969466578,47.5696438 0.567328234,48.4991248 C0.796069548,48.9991455 1.17873829,49.3789521 1.60526345,49.6341892" id="Fill-27" fill="#F1F1F1"></path>
                                <path d="M71.1906032,18.1887926 C76.0277489,18.1905796 79.9413914,14.2269199 79.9510939,9.33489168 C79.9599144,4.44018293 76.0400975,0.469375017 71.2188287,0.461333327 C66.3843292,0.4559722 62.4583381,4.41337729 62.4495176,9.30719253 C62.4459894,14.2063689 66.3569857,18.1718157 71.1906032,18.1887926" id="Fill-29" fill="#F1F1F1"></path>
                            </g>
                        </g>
                    </g>
                    <g id="Chips-1" mask="url(#mask-3)">
                        <g transform="translate(16.000000, 105.000000)">
                            <g id="Rectangle-Copy" fill="none">
                                <use fill="#FFFFFF" fill-rule="evenodd" xlink:href="#path-4"></use>
                                <rect stroke="#E0E0E0" stroke-width="1" x="0.5" y="0.5" width="119" height="39" rx="19.5"></rect>
                            </g>
                            <path d="M21.2294922,25.2324219 C18.5498047,25.2324219 16.875,23.25 16.875,20.0712891 C16.875,16.8857422 18.5429688,14.9033203 21.2226562,14.9033203 C23.3007812,14.9033203 24.9208984,16.2089844 25.2148438,18.109375 L23.9638672,18.109375 C23.6357422,16.8378906 22.5830078,16.0380859 21.2226562,16.0380859 C19.3291016,16.0380859 18.1396484,17.5966797 18.1396484,20.0712891 C18.1396484,22.5458984 19.3291016,24.0976562 21.2294922,24.0976562 C22.6035156,24.0976562 23.6494141,23.3935547 23.9638672,22.2519531 L25.2148438,22.2519531 C24.8867188,24.0634766 23.328125,25.2324219 21.2294922,25.2324219 Z M30.1572266,25.1298828 C28.0585938,25.1298828 26.7597656,23.6806641 26.7597656,21.3154297 C26.7597656,18.9433594 28.0585938,17.5009766 30.1572266,17.5009766 C32.2558594,17.5009766 33.5546875,18.9433594 33.5546875,21.3154297 C33.5546875,23.6806641 32.2558594,25.1298828 30.1572266,25.1298828 Z M30.1572266,24.0703125 C31.5517578,24.0703125 32.3378906,23.0585938 32.3378906,21.3154297 C32.3378906,19.5654297 31.5517578,18.5605469 30.1572266,18.5605469 C28.7626953,18.5605469 27.9765625,19.5654297 27.9765625,21.3154297 C27.9765625,23.0585938 28.7626953,24.0703125 30.1572266,24.0703125 Z M35.4003906,25 L35.4003906,17.6308594 L36.5214844,17.6308594 L36.5214844,18.7929688 L36.6308594,18.7929688 C37,17.9794922 37.7177734,17.5009766 38.8457031,17.5009766 C40.5,17.5009766 41.4228516,18.4785156 41.4228516,20.2285156 L41.4228516,25 L40.2470703,25 L40.2470703,20.515625 C40.2470703,19.1894531 39.6865234,18.5605469 38.5107422,18.5605469 C37.3349609,18.5605469 36.5761719,19.3466797 36.5761719,20.6386719 L36.5761719,25 L35.4003906,25 Z M44.0615234,15.7236328 L45.2373047,15.7236328 L45.2373047,17.6308594 L46.8779297,17.6308594 L46.8779297,18.6152344 L45.2373047,18.6152344 L45.2373047,22.7851562 C45.2373047,23.6533203 45.5654297,24.0224609 46.3310547,24.0224609 C46.5429688,24.0224609 46.6591797,24.015625 46.8779297,23.9951172 L46.8779297,24.9863281 C46.6455078,25.0273438 46.4199219,25.0546875 46.1875,25.0546875 C44.6699219,25.0546875 44.0615234,24.4941406 44.0615234,23.0859375 L44.0615234,18.6152344 L42.8720703,18.6152344 L42.8720703,17.6308594 L44.0615234,17.6308594 L44.0615234,15.7236328 Z M51.5947266,18.5400391 C50.4189453,18.5400391 49.5986328,19.4013672 49.5097656,20.7070312 L53.5703125,20.7070312 C53.5429688,19.4013672 52.7636719,18.5400391 51.5947266,18.5400391 Z M53.5361328,23.0927734 L54.7119141,23.0927734 C54.3564453,24.3574219 53.2216797,25.1298828 51.6083984,25.1298828 C49.5644531,25.1298828 48.2861328,23.6533203 48.2861328,21.3222656 C48.2861328,19.0048828 49.5849609,17.5009766 51.6083984,17.5009766 C53.5976562,17.5009766 54.8076172,18.9160156 54.8076172,21.2060547 L54.8076172,21.6572266 L49.5097656,21.6572266 L49.5097656,21.7119141 C49.5712891,23.1679688 50.3847656,24.0908203 51.6357422,24.0908203 C52.5859375,24.0908203 53.2285156,23.7421875 53.5361328,23.0927734 Z M56.6533203,25 L56.6533203,17.6308594 L57.7744141,17.6308594 L57.7744141,18.7929688 L57.8837891,18.7929688 C58.2529297,17.9794922 58.9707031,17.5009766 60.0986328,17.5009766 C61.7529297,17.5009766 62.6757812,18.4785156 62.6757812,20.2285156 L62.6757812,25 L61.5,25 L61.5,20.515625 C61.5,19.1894531 60.9394531,18.5605469 59.7636719,18.5605469 C58.5878906,18.5605469 57.8291016,19.3466797 57.8291016,20.6386719 L57.8291016,25 L56.6533203,25 Z M74.8710938,19.8867188 L73.6816406,19.8867188 C73.4902344,19.1552734 72.8408203,18.5605469 71.78125,18.5605469 C70.4550781,18.5605469 69.6210938,19.6201172 69.6210938,21.2880859 C69.6210938,22.9902344 70.46875,24.0703125 71.78125,24.0703125 C72.7724609,24.0703125 73.4628906,23.6123047 73.6816406,22.7783203 L74.8710938,22.7783203 C74.6591797,24.1318359 73.5585938,25.1298828 71.7880859,25.1298828 C69.7236328,25.1298828 68.4042969,23.6328125 68.4042969,21.2880859 C68.4042969,18.9912109 69.7167969,17.5009766 71.78125,17.5009766 C73.5722656,17.5009766 74.6660156,18.5742188 74.8710938,19.8867188 Z M76.6757812,25 L76.6757812,14.7050781 L77.8515625,14.7050781 L77.8515625,18.7929688 L77.9609375,18.7929688 C78.3300781,17.9794922 79.1025391,17.5009766 80.2304688,17.5009766 C81.7890625,17.5009766 82.7734375,18.4990234 82.7734375,20.2285156 L82.7734375,25 L81.5976562,25 L81.5976562,20.515625 C81.5976562,19.2099609 81.0097656,18.5605469 79.8955078,18.5605469 C78.5761719,18.5605469 77.8515625,19.3945312 77.8515625,20.6386719 L77.8515625,25 L76.6757812,25 Z M84.9472656,25 L84.9472656,17.6308594 L86.1230469,17.6308594 L86.1230469,25 L84.9472656,25 Z M85.5351562,16.1337891 C85.0839844,16.1337891 84.7148438,15.7646484 84.7148438,15.3134766 C84.7148438,14.8623047 85.0839844,14.4931641 85.5351562,14.4931641 C85.9863281,14.4931641 86.3554688,14.8623047 86.3554688,15.3134766 C86.3554688,15.7646484 85.9863281,16.1337891 85.5351562,16.1337891 Z M91.9541016,17.5009766 C93.8339844,17.5009766 95.0507812,18.9980469 95.0507812,21.3154297 C95.0507812,23.6191406 93.8271484,25.1298828 91.9541016,25.1298828 C90.9013672,25.1298828 90.0537109,24.671875 89.6503906,23.8925781 L89.5410156,23.8925781 L89.5410156,27.4609375 L88.3652344,27.4609375 L88.3652344,17.6308594 L89.4863281,17.6308594 L89.4863281,18.8613281 L89.5957031,18.8613281 C90.0673828,18.0136719 90.9492187,17.5009766 91.9541016,17.5009766 Z M91.6738281,24.0703125 C93.0273438,24.0703125 93.8339844,23.0380859 93.8339844,21.3154297 C93.8339844,19.5927734 93.0273438,18.5605469 91.6806641,18.5605469 C90.3476562,18.5605469 89.5068359,19.6201172 89.5068359,21.3154297 C89.5068359,23.0039062 90.3476562,24.0703125 91.6738281,24.0703125 Z M96.7255859,19.6474609 C96.7255859,18.4238281 97.9082031,17.5009766 99.4736328,17.5009766 C101.018555,17.5009766 102.091797,18.2666016 102.249023,19.4765625 L101.086914,19.4765625 C100.929688,18.8886719 100.355469,18.4990234 99.4667969,18.4990234 C98.5917969,18.4990234 97.9082031,18.9433594 97.9082031,19.5996094 C97.9082031,20.1054688 98.3183594,20.4199219 99.1865234,20.6318359 L100.321289,20.9052734 C101.708984,21.2402344 102.378906,21.8417969 102.378906,22.9013672 C102.378906,24.2207031 101.100586,25.1298828 99.4257812,25.1298828 C97.7851562,25.1298828 96.6572266,24.34375 96.5273438,23.1201172 L97.7373047,23.1201172 C97.9355469,23.7421875 98.5234375,24.1386719 99.4667969,24.1386719 C100.458008,24.1386719 101.168945,23.6669922 101.168945,22.9902344 C101.168945,22.484375 100.786133,22.1425781 100,21.9511719 L98.7353516,21.6435547 C97.3544922,21.3085938 96.7255859,20.7138672 96.7255859,19.6474609 Z" id="Conten-chips" fill-opacity="0.38" fill="#000000" fill-rule="evenodd"></path>
                        </g>
                    </g>
                    <g id="Chips-1" mask="url(#mask-3)">
                        <g transform="translate(282.000000, 105.000000)">
                            <g id="Rectangle-Copy" fill="none">
                                <use fill="#FFFFFF" fill-rule="evenodd" xlink:href="#path-5"></use>
                                <rect stroke="#E0E0E0" stroke-width="1" x="0.5" y="0.5" width="119" height="39" rx="19.5"></rect>
                            </g>
                            <path d="M21.2294922,25.2324219 C18.5498047,25.2324219 16.875,23.25 16.875,20.0712891 C16.875,16.8857422 18.5429688,14.9033203 21.2226562,14.9033203 C23.3007812,14.9033203 24.9208984,16.2089844 25.2148438,18.109375 L23.9638672,18.109375 C23.6357422,16.8378906 22.5830078,16.0380859 21.2226562,16.0380859 C19.3291016,16.0380859 18.1396484,17.5966797 18.1396484,20.0712891 C18.1396484,22.5458984 19.3291016,24.0976562 21.2294922,24.0976562 C22.6035156,24.0976562 23.6494141,23.3935547 23.9638672,22.2519531 L25.2148438,22.2519531 C24.8867188,24.0634766 23.328125,25.2324219 21.2294922,25.2324219 Z M30.1572266,25.1298828 C28.0585938,25.1298828 26.7597656,23.6806641 26.7597656,21.3154297 C26.7597656,18.9433594 28.0585938,17.5009766 30.1572266,17.5009766 C32.2558594,17.5009766 33.5546875,18.9433594 33.5546875,21.3154297 C33.5546875,23.6806641 32.2558594,25.1298828 30.1572266,25.1298828 Z M30.1572266,24.0703125 C31.5517578,24.0703125 32.3378906,23.0585938 32.3378906,21.3154297 C32.3378906,19.5654297 31.5517578,18.5605469 30.1572266,18.5605469 C28.7626953,18.5605469 27.9765625,19.5654297 27.9765625,21.3154297 C27.9765625,23.0585938 28.7626953,24.0703125 30.1572266,24.0703125 Z M35.4003906,25 L35.4003906,17.6308594 L36.5214844,17.6308594 L36.5214844,18.7929688 L36.6308594,18.7929688 C37,17.9794922 37.7177734,17.5009766 38.8457031,17.5009766 C40.5,17.5009766 41.4228516,18.4785156 41.4228516,20.2285156 L41.4228516,25 L40.2470703,25 L40.2470703,20.515625 C40.2470703,19.1894531 39.6865234,18.5605469 38.5107422,18.5605469 C37.3349609,18.5605469 36.5761719,19.3466797 36.5761719,20.6386719 L36.5761719,25 L35.4003906,25 Z M44.0615234,15.7236328 L45.2373047,15.7236328 L45.2373047,17.6308594 L46.8779297,17.6308594 L46.8779297,18.6152344 L45.2373047,18.6152344 L45.2373047,22.7851562 C45.2373047,23.6533203 45.5654297,24.0224609 46.3310547,24.0224609 C46.5429688,24.0224609 46.6591797,24.015625 46.8779297,23.9951172 L46.8779297,24.9863281 C46.6455078,25.0273438 46.4199219,25.0546875 46.1875,25.0546875 C44.6699219,25.0546875 44.0615234,24.4941406 44.0615234,23.0859375 L44.0615234,18.6152344 L42.8720703,18.6152344 L42.8720703,17.6308594 L44.0615234,17.6308594 L44.0615234,15.7236328 Z M51.5947266,18.5400391 C50.4189453,18.5400391 49.5986328,19.4013672 49.5097656,20.7070312 L53.5703125,20.7070312 C53.5429688,19.4013672 52.7636719,18.5400391 51.5947266,18.5400391 Z M53.5361328,23.0927734 L54.7119141,23.0927734 C54.3564453,24.3574219 53.2216797,25.1298828 51.6083984,25.1298828 C49.5644531,25.1298828 48.2861328,23.6533203 48.2861328,21.3222656 C48.2861328,19.0048828 49.5849609,17.5009766 51.6083984,17.5009766 C53.5976562,17.5009766 54.8076172,18.9160156 54.8076172,21.2060547 L54.8076172,21.6572266 L49.5097656,21.6572266 L49.5097656,21.7119141 C49.5712891,23.1679688 50.3847656,24.0908203 51.6357422,24.0908203 C52.5859375,24.0908203 53.2285156,23.7421875 53.5361328,23.0927734 Z M56.6533203,25 L56.6533203,17.6308594 L57.7744141,17.6308594 L57.7744141,18.7929688 L57.8837891,18.7929688 C58.2529297,17.9794922 58.9707031,17.5009766 60.0986328,17.5009766 C61.7529297,17.5009766 62.6757812,18.4785156 62.6757812,20.2285156 L62.6757812,25 L61.5,25 L61.5,20.515625 C61.5,19.1894531 60.9394531,18.5605469 59.7636719,18.5605469 C58.5878906,18.5605469 57.8291016,19.3466797 57.8291016,20.6386719 L57.8291016,25 L56.6533203,25 Z M74.8710938,19.8867188 L73.6816406,19.8867188 C73.4902344,19.1552734 72.8408203,18.5605469 71.78125,18.5605469 C70.4550781,18.5605469 69.6210938,19.6201172 69.6210938,21.2880859 C69.6210938,22.9902344 70.46875,24.0703125 71.78125,24.0703125 C72.7724609,24.0703125 73.4628906,23.6123047 73.6816406,22.7783203 L74.8710938,22.7783203 C74.6591797,24.1318359 73.5585938,25.1298828 71.7880859,25.1298828 C69.7236328,25.1298828 68.4042969,23.6328125 68.4042969,21.2880859 C68.4042969,18.9912109 69.7167969,17.5009766 71.78125,17.5009766 C73.5722656,17.5009766 74.6660156,18.5742188 74.8710938,19.8867188 Z M76.6757812,25 L76.6757812,14.7050781 L77.8515625,14.7050781 L77.8515625,18.7929688 L77.9609375,18.7929688 C78.3300781,17.9794922 79.1025391,17.5009766 80.2304688,17.5009766 C81.7890625,17.5009766 82.7734375,18.4990234 82.7734375,20.2285156 L82.7734375,25 L81.5976562,25 L81.5976562,20.515625 C81.5976562,19.2099609 81.0097656,18.5605469 79.8955078,18.5605469 C78.5761719,18.5605469 77.8515625,19.3945312 77.8515625,20.6386719 L77.8515625,25 L76.6757812,25 Z M84.9472656,25 L84.9472656,17.6308594 L86.1230469,17.6308594 L86.1230469,25 L84.9472656,25 Z M85.5351562,16.1337891 C85.0839844,16.1337891 84.7148438,15.7646484 84.7148438,15.3134766 C84.7148438,14.8623047 85.0839844,14.4931641 85.5351562,14.4931641 C85.9863281,14.4931641 86.3554688,14.8623047 86.3554688,15.3134766 C86.3554688,15.7646484 85.9863281,16.1337891 85.5351562,16.1337891 Z M91.9541016,17.5009766 C93.8339844,17.5009766 95.0507812,18.9980469 95.0507812,21.3154297 C95.0507812,23.6191406 93.8271484,25.1298828 91.9541016,25.1298828 C90.9013672,25.1298828 90.0537109,24.671875 89.6503906,23.8925781 L89.5410156,23.8925781 L89.5410156,27.4609375 L88.3652344,27.4609375 L88.3652344,17.6308594 L89.4863281,17.6308594 L89.4863281,18.8613281 L89.5957031,18.8613281 C90.0673828,18.0136719 90.9492187,17.5009766 91.9541016,17.5009766 Z M91.6738281,24.0703125 C93.0273438,24.0703125 93.8339844,23.0380859 93.8339844,21.3154297 C93.8339844,19.5927734 93.0273438,18.5605469 91.6806641,18.5605469 C90.3476562,18.5605469 89.5068359,19.6201172 89.5068359,21.3154297 C89.5068359,23.0039062 90.3476562,24.0703125 91.6738281,24.0703125 Z M96.7255859,19.6474609 C96.7255859,18.4238281 97.9082031,17.5009766 99.4736328,17.5009766 C101.018555,17.5009766 102.091797,18.2666016 102.249023,19.4765625 L101.086914,19.4765625 C100.929688,18.8886719 100.355469,18.4990234 99.4667969,18.4990234 C98.5917969,18.4990234 97.9082031,18.9433594 97.9082031,19.5996094 C97.9082031,20.1054688 98.3183594,20.4199219 99.1865234,20.6318359 L100.321289,20.9052734 C101.708984,21.2402344 102.378906,21.8417969 102.378906,22.9013672 C102.378906,24.2207031 101.100586,25.1298828 99.4257812,25.1298828 C97.7851562,25.1298828 96.6572266,24.34375 96.5273438,23.1201172 L97.7373047,23.1201172 C97.9355469,23.7421875 98.5234375,24.1386719 99.4667969,24.1386719 C100.458008,24.1386719 101.168945,23.6669922 101.168945,22.9902344 C101.168945,22.484375 100.786133,22.1425781 100,21.9511719 L98.7353516,21.6435547 C97.3544922,21.3085938 96.7255859,20.7138672 96.7255859,19.6474609 Z" id="Conten-chips" fill-opacity="0.38" fill="#000000" fill-rule="evenodd"></path>
                        </g>
                    </g>
                    <g id="Chips-1" mask="url(#mask-3)">
                        <g transform="translate(144.000000, 105.000000)">
                            <g id="Rectangle-Copy" fill="none">
                                <use fill="black" fill-opacity="1" filter="url(#filter-7)" xlink:href="#path-6"></use>
                                <use fill="#F3FEF3" fill-rule="evenodd" xlink:href="#path-6"></use>
                                <rect stroke="#87D58B" stroke-width="1" x="0.5" y="0.5" width="129" height="39" rx="19.5"></rect>
                            </g>
                            <path d="M16.7861328,22.4228516 L18.0302734,22.4228516 C18.1806641,23.4550781 19.1650391,24.1113281 20.5664062,24.1113281 C21.8925781,24.1113281 22.8701172,23.3935547 22.8701172,22.4160156 C22.8701172,21.5751953 22.2548828,21.0419922 20.8945312,20.7001953 L19.6298828,20.3720703 C17.8457031,19.9208984 17.0732422,19.1142578 17.0732422,17.7128906 C17.0732422,16.0380859 18.4746094,14.9033203 20.5595703,14.9033203 C22.4667969,14.9033203 23.8886719,16.0380859 23.9912109,17.6308594 L22.7539062,17.6308594 C22.5830078,16.6191406 21.7490234,16.0175781 20.5185547,16.0175781 C19.2060547,16.0175781 18.3378906,16.6738281 18.3378906,17.671875 C18.3378906,18.4443359 18.8779297,18.8886719 20.2382812,19.2373047 L21.2705078,19.5107422 C23.3144531,20.0234375 24.1347656,20.8164062 24.1347656,22.265625 C24.1347656,24.0771484 22.7060547,25.2324219 20.4501953,25.2324219 C18.3583984,25.2324219 16.9160156,24.125 16.7861328,22.4228516 Z M28.9677734,18.5400391 C27.7919922,18.5400391 26.9716797,19.4013672 26.8828125,20.7070312 L30.9433594,20.7070312 C30.9160156,19.4013672 30.1367188,18.5400391 28.9677734,18.5400391 Z M30.9091797,23.0927734 L32.0849609,23.0927734 C31.7294922,24.3574219 30.5947266,25.1298828 28.9814453,25.1298828 C26.9375,25.1298828 25.6591797,23.6533203 25.6591797,21.3222656 C25.6591797,19.0048828 26.9580078,17.5009766 28.9814453,17.5009766 C30.9707031,17.5009766 32.1806641,18.9160156 32.1806641,21.2060547 L32.1806641,21.6572266 L26.8828125,21.6572266 L26.8828125,21.7119141 C26.9443359,23.1679688 27.7578125,24.0908203 29.0087891,24.0908203 C29.9589844,24.0908203 30.6015625,23.7421875 30.9091797,23.0927734 Z M34.0947266,25 L34.0947266,14.7050781 L35.2705078,14.7050781 L35.2705078,25 L34.0947266,25 Z M40.4931641,18.5400391 C39.3173828,18.5400391 38.4970703,19.4013672 38.4082031,20.7070312 L42.46875,20.7070312 C42.4414062,19.4013672 41.6621094,18.5400391 40.4931641,18.5400391 Z M42.4345703,23.0927734 L43.6103516,23.0927734 C43.2548828,24.3574219 42.1201172,25.1298828 40.5068359,25.1298828 C38.4628906,25.1298828 37.1845703,23.6533203 37.1845703,21.3222656 C37.1845703,19.0048828 38.4833984,17.5009766 40.5068359,17.5009766 C42.4960938,17.5009766 43.7060547,18.9160156 43.7060547,21.2060547 L43.7060547,21.6572266 L38.4082031,21.6572266 L38.4082031,21.7119141 C38.4697266,23.1679688 39.2832031,24.0908203 40.5341797,24.0908203 C41.484375,24.0908203 42.1269531,23.7421875 42.4345703,23.0927734 Z M51.6494141,19.8867188 L50.4599609,19.8867188 C50.2685547,19.1552734 49.6191406,18.5605469 48.5595703,18.5605469 C47.2333984,18.5605469 46.3994141,19.6201172 46.3994141,21.2880859 C46.3994141,22.9902344 47.2470703,24.0703125 48.5595703,24.0703125 C49.5507812,24.0703125 50.2412109,23.6123047 50.4599609,22.7783203 L51.6494141,22.7783203 C51.4375,24.1318359 50.3369141,25.1298828 48.5664062,25.1298828 C46.5019531,25.1298828 45.1826172,23.6328125 45.1826172,21.2880859 C45.1826172,18.9912109 46.4951172,17.5009766 48.5595703,17.5009766 C50.3505859,17.5009766 51.4443359,18.5742188 51.6494141,19.8867188 Z M53.8779297,15.7236328 L55.0537109,15.7236328 L55.0537109,17.6308594 L56.6943359,17.6308594 L56.6943359,18.6152344 L55.0537109,18.6152344 L55.0537109,22.7851562 C55.0537109,23.6533203 55.3818359,24.0224609 56.1474609,24.0224609 C56.359375,24.0224609 56.4755859,24.015625 56.6943359,23.9951172 L56.6943359,24.9863281 C56.4619141,25.0273438 56.2363281,25.0546875 56.0039062,25.0546875 C54.4863281,25.0546875 53.8779297,24.4941406 53.8779297,23.0859375 L53.8779297,18.6152344 L52.6884766,18.6152344 L52.6884766,17.6308594 L53.8779297,17.6308594 L53.8779297,15.7236328 Z M61.4111328,18.5400391 C60.2353516,18.5400391 59.4150391,19.4013672 59.3261719,20.7070312 L63.3867188,20.7070312 C63.359375,19.4013672 62.5800781,18.5400391 61.4111328,18.5400391 Z M63.3525391,23.0927734 L64.5283203,23.0927734 C64.1728516,24.3574219 63.0380859,25.1298828 61.4248047,25.1298828 C59.3808594,25.1298828 58.1025391,23.6533203 58.1025391,21.3222656 C58.1025391,19.0048828 59.4013672,17.5009766 61.4248047,17.5009766 C63.4140625,17.5009766 64.6240234,18.9160156 64.6240234,21.2060547 L64.6240234,21.6572266 L59.3261719,21.6572266 L59.3261719,21.7119141 C59.3876953,23.1679688 60.2011719,24.0908203 61.4521484,24.0908203 C62.4023438,24.0908203 63.0449219,23.7421875 63.3525391,23.0927734 Z M69.1972656,25.1298828 C67.3105469,25.1298828 66.1005859,23.6328125 66.1005859,21.3154297 C66.1005859,19.0048828 67.3242188,17.5009766 69.1972656,17.5009766 C70.2226562,17.5009766 71.0908203,17.9863281 71.5078125,18.7929688 L71.6103516,18.7929688 L71.6103516,14.7050781 L72.7861328,14.7050781 L72.7861328,25 L71.6650391,25 L71.6650391,23.8242188 L71.5556641,23.8242188 C71.0908203,24.6445312 70.2158203,25.1298828 69.1972656,25.1298828 Z M69.4707031,18.5605469 C68.1308594,18.5605469 67.3173828,19.5996094 67.3173828,21.3154297 C67.3173828,23.0380859 68.1240234,24.0703125 69.4707031,24.0703125 C70.8105469,24.0703125 71.6376953,23.0175781 71.6376953,21.3154297 C71.6376953,19.6269531 70.8037109,18.5605469 69.4707031,18.5605469 Z M85.1181641,19.8867188 L83.9287109,19.8867188 C83.7373047,19.1552734 83.0878906,18.5605469 82.0283203,18.5605469 C80.7021484,18.5605469 79.8681641,19.6201172 79.8681641,21.2880859 C79.8681641,22.9902344 80.7158203,24.0703125 82.0283203,24.0703125 C83.0195312,24.0703125 83.7099609,23.6123047 83.9287109,22.7783203 L85.1181641,22.7783203 C84.90625,24.1318359 83.8056641,25.1298828 82.0351562,25.1298828 C79.9707031,25.1298828 78.6513672,23.6328125 78.6513672,21.2880859 C78.6513672,18.9912109 79.9638672,17.5009766 82.0283203,17.5009766 C83.8193359,17.5009766 84.9130859,18.5742188 85.1181641,19.8867188 Z M86.9228516,25 L86.9228516,14.7050781 L88.0986328,14.7050781 L88.0986328,18.7929688 L88.2080078,18.7929688 C88.5771484,17.9794922 89.3496094,17.5009766 90.4775391,17.5009766 C92.0361328,17.5009766 93.0205078,18.4990234 93.0205078,20.2285156 L93.0205078,25 L91.8447266,25 L91.8447266,20.515625 C91.8447266,19.2099609 91.2568359,18.5605469 90.1425781,18.5605469 C88.8232422,18.5605469 88.0986328,19.3945312 88.0986328,20.6386719 L88.0986328,25 L86.9228516,25 Z M95.1943359,25 L95.1943359,17.6308594 L96.3701172,17.6308594 L96.3701172,25 L95.1943359,25 Z M95.7822266,16.1337891 C95.3310547,16.1337891 94.9619141,15.7646484 94.9619141,15.3134766 C94.9619141,14.8623047 95.3310547,14.4931641 95.7822266,14.4931641 C96.2333984,14.4931641 96.6025391,14.8623047 96.6025391,15.3134766 C96.6025391,15.7646484 96.2333984,16.1337891 95.7822266,16.1337891 Z M102.201172,17.5009766 C104.081055,17.5009766 105.297852,18.9980469 105.297852,21.3154297 C105.297852,23.6191406 104.074219,25.1298828 102.201172,25.1298828 C101.148437,25.1298828 100.300781,24.671875 99.8974609,23.8925781 L99.7880859,23.8925781 L99.7880859,27.4609375 L98.6123047,27.4609375 L98.6123047,17.6308594 L99.7333984,17.6308594 L99.7333984,18.8613281 L99.8427734,18.8613281 C100.314453,18.0136719 101.196289,17.5009766 102.201172,17.5009766 Z M101.920898,24.0703125 C103.274414,24.0703125 104.081055,23.0380859 104.081055,21.3154297 C104.081055,19.5927734 103.274414,18.5605469 101.927734,18.5605469 C100.594727,18.5605469 99.7539062,19.6201172 99.7539062,21.3154297 C99.7539062,23.0039062 100.594727,24.0703125 101.920898,24.0703125 Z M106.972656,19.6474609 C106.972656,18.4238281 108.155273,17.5009766 109.720703,17.5009766 C111.265625,17.5009766 112.338867,18.2666016 112.496094,19.4765625 L111.333984,19.4765625 C111.176758,18.8886719 110.602539,18.4990234 109.713867,18.4990234 C108.838867,18.4990234 108.155273,18.9433594 108.155273,19.5996094 C108.155273,20.1054688 108.56543,20.4199219 109.433594,20.6318359 L110.568359,20.9052734 C111.956055,21.2402344 112.625977,21.8417969 112.625977,22.9013672 C112.625977,24.2207031 111.347656,25.1298828 109.672852,25.1298828 C108.032227,25.1298828 106.904297,24.34375 106.774414,23.1201172 L107.984375,23.1201172 C108.182617,23.7421875 108.770508,24.1386719 109.713867,24.1386719 C110.705078,24.1386719 111.416016,23.6669922 111.416016,22.9902344 C111.416016,22.484375 111.033203,22.1425781 110.24707,21.9511719 L108.982422,21.6435547 C107.601562,21.3085938 106.972656,20.7138672 106.972656,19.6474609 Z" id="Selected-chips" fill-opacity="0.54" fill="#000000" fill-rule="evenodd"></path>
                        </g>
                    </g>
                    <g id="Navigation-Bar/iOS/Single-Line-Copy" mask="url(#mask-3)">
                        <g transform="translate(1.125000, 0.000000)">
                            <g id="Header-nav" stroke-width="1" fill="none">
                                <g id="Rectangle-2">
                                    <use fill="black" fill-opacity="1" filter="url(#filter-9)" xlink:href="#path-8"></use>
                                    <use fill="#FFFFFF" fill-rule="evenodd" xlink:href="#path-8"></use>
                                </g>
                                <g id="Group-3" transform="translate(19.577458, 44.160634)" stroke="#DBDBDB" stroke-linecap="square" stroke-width="3">
                                    <path d="M0.0324434744,14.2684722 L14.1745791,0.12633654" id="Line-2" transform="translate(7.103511, 7.197404) scale(-1, 1) translate(-7.103511, -7.197404) "></path>
                                    <path d="M0.0324434744,14.2684722 L14.1745791,0.12633654" id="Line-2"></path>
                                </g>
                                <g id="Status-Bar/White/100%" transform="translate(6.750000, 5.625000)">
                                    <path d="M159.637939,12.0300293 C158.022949,12.0300293 156.823242,11.0742188 156.52002,9.54492188 L157.739502,9.54492188 C157.996582,10.4348145 158.715088,10.9753418 159.651123,10.9753418 C161.200195,10.9753418 162.076904,9.60424805 162.142822,7.07299805 L162.037354,7.07299805 C161.569336,7.99584961 160.639893,8.53637695 159.506104,8.53637695 C157.693359,8.53637695 156.381592,7.19824219 156.381592,5.35253906 C156.381592,3.44091797 157.765869,2.07641602 159.717041,2.07641602 C161.140869,2.07641602 162.241699,2.83447266 162.834961,4.23852539 C163.144775,4.96362305 163.296387,5.84033203 163.296387,6.88842773 C163.296387,10.157959 161.964844,12.0300293 159.637939,12.0300293 Z M159.717041,7.50805664 C160.976074,7.50805664 161.87915,6.61157227 161.87915,5.35253906 C161.87915,4.08032227 160.949707,3.11791992 159.730225,3.11791992 C158.510742,3.11791992 157.581299,4.06713867 157.581299,5.31298828 C157.581299,6.61157227 158.458008,7.50805664 159.717041,7.50805664 Z M166.144043,10.7248535 C166.618652,10.7248535 167.000977,10.3359375 167.000977,9.86791992 C167.000977,9.39331055 166.618652,9.01098633 166.144043,9.01098633 C165.676025,9.01098633 165.287109,9.39331055 165.287109,9.86791992 C165.287109,10.3359375 165.676025,10.7248535 166.144043,10.7248535 Z M166.144043,5.65576172 C166.618652,5.65576172 167.000977,5.2668457 167.000977,4.79882812 C167.000977,4.32421875 166.618652,3.94189453 166.144043,3.94189453 C165.676025,3.94189453 165.287109,4.32421875 165.287109,4.79882812 C165.287109,5.2668457 165.676025,5.65576172 166.144043,5.65576172 Z M173.553223,11.8125 L173.553223,9.84155273 L168.919189,9.84155273 L168.919189,8.76049805 C169.769531,7.25097656 171.279053,4.86474609 172.99292,2.30053711 L174.713379,2.30053711 L174.713379,8.78027344 L176.064697,8.78027344 L176.064697,9.84155273 L174.713379,9.84155273 L174.713379,11.8125 L173.553223,11.8125 Z M170.13208,8.70776367 L170.13208,8.78686523 L173.559814,8.78686523 L173.559814,3.40136719 L173.480713,3.40136719 C172.505127,4.81860352 171.265869,6.78295898 170.13208,8.70776367 Z M180.171387,11.8125 L181.35791,11.8125 L181.35791,2.30053711 L180.177979,2.30053711 L177.646729,4.11987305 L177.646729,5.37231445 L180.065918,3.61889648 L180.171387,3.61889648 L180.171387,11.8125 Z M194.337158,11.8125 L193.381348,9.09008789 L189.597656,9.09008789 L188.641846,11.8125 L187.395996,11.8125 L190.902832,2.30053711 L192.076172,2.30053711 L195.583008,11.8125 L194.337158,11.8125 Z M191.436768,3.83642578 L189.947021,8.08154297 L193.031982,8.08154297 L191.542236,3.83642578 L191.436768,3.83642578 Z M198.358154,11.8125 L198.358154,4.54833984 L198.437256,4.54833984 L201.436523,11.746582 L202.438477,11.746582 L205.437744,4.54833984 L205.516846,4.54833984 L205.516846,11.8125 L206.624268,11.8125 L206.624268,2.30053711 L205.246582,2.30053711 L201.990234,10.1711426 L201.884766,10.1711426 L198.628418,2.30053711 L197.250732,2.30053711 L197.250732,11.8125 L198.358154,11.8125 Z" id="9:41-AM" fill="#FFFFFF"></path>
                                    <g id="Pin-Right" transform="translate(289.625000, 0.000000)" fill="#DBDBDB">
                                        <path d="M34.4937128,0.5 L54.0062872,0.5 C54.8266197,0.5 55.5,1.17394722 55.5,2.00530324 L55.5,8.49469676 C55.5,9.33197845 54.831242,10 54.0062872,10 L34.4937128,10 C33.6733803,10 33,9.32605278 33,8.49469676 L33,2.00530324 C33,1.16802155 33.668758,0.5 34.4937128,0.5 Z M56,3.5 L56.75,3.5 C57.1671014,3.5 57.5,3.83232111 57.5,4.24225998 L57.5,6.25774002 C57.5,6.66440529 57.1642136,7 56.75,7 L56,7 L56,3.5 Z M34.5081524,1 C33.9513652,1 33.5,1.45699692 33.5,2.00844055 L33.5,8.49155945 C33.5,9.04850578 33.9490581,9.5 34.5081524,9.5 L53.9918476,9.5 C54.5486348,9.5 55,9.04300308 55,8.49155945 L55,2.00844055 C55,1.45149422 54.5509419,1 53.9918476,1 L34.5081524,1 Z M34.5067444,1.5 L53.9932556,1.5 C54.2697754,1.5 54.5,1.72031886 54.5,1.99209595 L54.5,8.50790405 C54.5,8.78362799 54.2731228,9 53.9932556,9 L34.5067444,9 C34.2302246,9 34,8.77968114 34,8.50790405 L34,1.99209595 C34,1.71637201 34.2268772,1.5 34.5067444,1.5 Z" id="Battery"></path>
                                    </g>
                                    <g id="Signal" transform="translate(0.000000, 1.000000)" fill="#DBDBDB">
                                        <path d="M3.25,7.65625 C1.73121694,7.65625 0.5,6.42503306 0.5,4.90625 C0.5,3.38746694 1.73121694,2.15625 3.25,2.15625 C4.76878306,2.15625 6,3.38746694 6,4.90625 C6,6.42503306 4.76878306,7.65625 3.25,7.65625 Z M10.25,7.65625 C8.73121694,7.65625 7.5,6.42503306 7.5,4.90625 C7.5,3.38746694 8.73121694,2.15625 10.25,2.15625 C11.7687831,2.15625 13,3.38746694 13,4.90625 C13,6.42503306 11.7687831,7.65625 10.25,7.65625 Z M17.25,7.65625 C15.7312169,7.65625 14.5,6.42503306 14.5,4.90625 C14.5,3.38746694 15.7312169,2.15625 17.25,2.15625 C18.7687831,2.15625 20,3.38746694 20,4.90625 C20,6.42503306 18.7687831,7.65625 17.25,7.65625 Z M24.25,7.65625 C22.7312169,7.65625 21.5,6.42503306 21.5,4.90625 C21.5,3.38746694 22.7312169,2.15625 24.25,2.15625 C25.7687831,2.15625 27,3.38746694 27,4.90625 C27,6.42503306 25.7687831,7.65625 24.25,7.65625 Z M31.25,7.65625 C29.7312169,7.65625 28.5,6.42503306 28.5,4.90625 C28.5,3.38746694 29.7312169,2.15625 31.25,2.15625 C32.7687831,2.15625 34,3.38746694 34,4.90625 C34,6.42503306 32.7687831,7.65625 31.25,7.65625 Z" id="Mobile-Signal"></path>
                                    </g>
                                </g>
                            </g>
                            <rect id="Rectangle-8-Copy" fill="#DBDBDB" x="54.9877078" y="48.6570687" width="148.5" height="6.75" rx="3"></rect>
                        </g>
                    </g>
                    <path d="M20,346 L144,346" id="Line-3" stroke="#DBDBDB" stroke-width="8" stroke-linecap="round" mask="url(#mask-3)"></path>
                    <path d="M20,364 L110,364" id="Line-3" stroke="#DBDBDB" stroke-width="8" stroke-linecap="round" mask="url(#mask-3)"></path>
                    <path d="M188,346 L312,346" id="Line-3" stroke="#DBDBDB" stroke-width="8" stroke-linecap="round" mask="url(#mask-3)"></path>
                    <path d="M188,364 L278,364" id="Line-3" stroke="#DBDBDB" stroke-width="8" stroke-linecap="round" mask="url(#mask-3)"></path>
                    <g id="Group-13" mask="url(#mask-3)">
                        <g transform="translate(16.000000, 389.000000)">
                            <path d="M8,160 L152,160 C156.418278,160 160,156.418278 160,152 L160,8 C160,3.581722 156.418278,-8.11624501e-16 152,0 L8,0 C3.581722,8.11624501e-16 -5.41083001e-16,3.581722 0,8 L0,152 C5.41083001e-16,156.418278 3.581722,160 8,160 Z" id="Fill-9" fill="#DBDBDB"></path>
                            <g id="Group-12" stroke-width="1" fill="none" transform="translate(40.000000, 54.647887)">
                                <path d="M1.60526345,49.6341892 C2.01544994,49.8815862 2.50990955,50.0366448 3.00436916,50.0444849 L23.8834636,50.0741028 L74.6872536,50.142921 C75.7724849,50.1472766 76.7184077,49.5157174 77.17933,48.5252582 C77.6608907,47.5461237 77.4889047,46.3823124 76.8104201,45.5704321 L49.561826,12.295536 C49.0260898,11.6160654 48.1919579,11.2580366 47.333748,11.2798145 C46.4961764,11.3190147 45.7041811,11.7284394 45.2045619,12.4296879 L29.8505162,34.0743118 L21.0568745,23.0686299 C20.5185585,22.394386 19.6981855,22.0189349 18.8442752,22.057264 C17.9912249,22.0712019 17.1914903,22.5050177 16.667793,23.2088796 L0.787470251,45.6044057 C0.164881108,46.4624551 0.0969466578,47.5696438 0.567328234,48.4991248 C0.796069548,48.9991455 1.17873829,49.3789521 1.60526345,49.6341892" id="Fill-27" fill="#F1F1F1"></path>
                                <path d="M71.1906032,18.1887926 C76.0277489,18.1905796 79.9413914,14.2269199 79.9510939,9.33489168 C79.9599144,4.44018293 76.0400975,0.469375017 71.2188287,0.461333327 C66.3843292,0.4559722 62.4583381,4.41337729 62.4495176,9.30719253 C62.4459894,14.2063689 66.3569857,18.1718157 71.1906032,18.1887926" id="Fill-29" fill="#F1F1F1"></path>
                            </g>
                        </g>
                    </g>
                    <g id="Group-13" mask="url(#mask-3)">
                        <g transform="translate(184.000000, 389.000000)">
                            <path d="M8,160 L152,160 C156.418278,160 160,156.418278 160,152 L160,8 C160,3.581722 156.418278,-8.11624501e-16 152,0 L8,0 C3.581722,8.11624501e-16 -5.41083001e-16,3.581722 0,8 L0,152 C5.41083001e-16,156.418278 3.581722,160 8,160 Z" id="Fill-9" fill="#DBDBDB"></path>
                            <g id="Group-12" stroke-width="1" fill="none" transform="translate(40.000000, 54.647887)">
                                <path d="M1.60526345,49.6341892 C2.01544994,49.8815862 2.50990955,50.0366448 3.00436916,50.0444849 L23.8834636,50.0741028 L74.6872536,50.142921 C75.7724849,50.1472766 76.7184077,49.5157174 77.17933,48.5252582 C77.6608907,47.5461237 77.4889047,46.3823124 76.8104201,45.5704321 L49.561826,12.295536 C49.0260898,11.6160654 48.1919579,11.2580366 47.333748,11.2798145 C46.4961764,11.3190147 45.7041811,11.7284394 45.2045619,12.4296879 L29.8505162,34.0743118 L21.0568745,23.0686299 C20.5185585,22.394386 19.6981855,22.0189349 18.8442752,22.057264 C17.9912249,22.0712019 17.1914903,22.5050177 16.667793,23.2088796 L0.787470251,45.6044057 C0.164881108,46.4624551 0.0969466578,47.5696438 0.567328234,48.4991248 C0.796069548,48.9991455 1.17873829,49.3789521 1.60526345,49.6341892" id="Fill-27" fill="#F1F1F1"></path>
                                <path d="M71.1906032,18.1887926 C76.0277489,18.1905796 79.9413914,14.2269199 79.9510939,9.33489168 C79.9599144,4.44018293 76.0400975,0.469375017 71.2188287,0.461333327 C66.3843292,0.4559722 62.4583381,4.41337729 62.4495176,9.30719253 C62.4459894,14.2063689 66.3569857,18.1718157 71.1906032,18.1887926" id="Fill-29" fill="#F1F1F1"></path>
                            </g>
                        </g>
                    </g>
                    <g id="Group-13" mask="url(#mask-3)">
                        <g transform="translate(16.000000, 609.000000)">
                            <path d="M8,160 L152,160 C156.418278,160 160,156.418278 160,152 L160,8 C160,3.581722 156.418278,-8.11624501e-16 152,0 L8,0 C3.581722,8.11624501e-16 -5.41083001e-16,3.581722 0,8 L0,152 C5.41083001e-16,156.418278 3.581722,160 8,160 Z" id="Fill-9" fill="#DBDBDB"></path>
                            <g id="Group-12" stroke-width="1" fill="none" transform="translate(40.000000, 54.647887)">
                                <path d="M71.1906032,18.1887926 C76.0277489,18.1905796 79.9413914,14.2269199 79.9510939,9.33489168 C79.9599144,4.44018293 76.0400975,0.469375017 71.2188287,0.461333327 C66.3843292,0.4559722 62.4583381,4.41337729 62.4495176,9.30719253 C62.4459894,14.2063689 66.3569857,18.1718157 71.1906032,18.1887926" id="Fill-29" fill="#F1F1F1"></path>
                            </g>
                        </g>
                    </g>
                    <g id="Group-13" mask="url(#mask-3)">
                        <g transform="translate(184.000000, 609.000000)">
                            <path d="M8,160 L152,160 C156.418278,160 160,156.418278 160,152 L160,8 C160,3.581722 156.418278,-8.11624501e-16 152,0 L8,0 C3.581722,8.11624501e-16 -5.41083001e-16,3.581722 0,8 L0,152 C5.41083001e-16,156.418278 3.581722,160 8,160 Z" id="Fill-9" fill="#DBDBDB"></path>
                            <g id="Group-12" stroke-width="1" fill="none" transform="translate(40.000000, 54.647887)">
                                <path d="M71.1906032,18.1887926 C76.0277489,18.1905796 79.9413914,14.2269199 79.9510939,9.33489168 C79.9599144,4.44018293 76.0400975,0.469375017 71.2188287,0.461333327 C66.3843292,0.4559722 62.4583381,4.41337729 62.4495176,9.30719253 C62.4459894,14.2063689 66.3569857,18.1718157 71.1906032,18.1887926" id="Fill-29" fill="#F1F1F1"></path>
                            </g>
                        </g>
                    </g>
                    <path d="M20,566 L144,566" id="Line-3" stroke="#DBDBDB" stroke-width="8" stroke-linecap="round" mask="url(#mask-3)"></path>
                    <path d="M20,584 L110,584" id="Line-3" stroke="#DBDBDB" stroke-width="8" stroke-linecap="round" mask="url(#mask-3)"></path>
                    <path d="M188,566 L312,566" id="Line-3" stroke="#DBDBDB" stroke-width="8" stroke-linecap="round" mask="url(#mask-3)"></path>
                    <path d="M188,584 L278,584" id="Line-3" stroke="#DBDBDB" stroke-width="8" stroke-linecap="round" mask="url(#mask-3)"></path>
                </g>
            </g>
        </g>
    </g>
</svg>