<?xml version="1.0" encoding="UTF-8"?>
<svg width="372px" height="192px" viewBox="0 0 372 192" version="1.1" xmlns="http://www.w3.org/2000/svg" xmlns:xlink="http://www.w3.org/1999/xlink">
    <!-- Generator: Sketch 48.2 (47327) - http://www.bohemiancoding.com/sketch -->
    <title>Group 14</title>
    <desc>Created with Sketch.</desc>
    <defs>
        <filter x="-1.6%" y="-6.2%" width="103.4%" height="116.9%" filterUnits="objectBoundingBox" id="filter-1">
            <feOffset dx="0" dy="1" in="SourceAlpha" result="shadowOffsetOuter1"></feOffset>
            <feGaussianBlur stdDeviation="1.5" in="shadowOffsetOuter1" result="shadowBlurOuter1"></feGaussianBlur>
            <feColorMatrix values="0 0 0 0 0   0 0 0 0 0   0 0 0 0 0  0 0 0 0.12 0" type="matrix" in="shadowBlurOuter1" result="shadowMatrixOuter1"></feColorMatrix>
            <feMerge>
                <feMergeNode in="shadowMatrixOuter1"></feMergeNode>
                <feMergeNode in="SourceGraphic"></feMergeNode>
            </feMerge>
        </filter>
        <linearGradient x1="125.958807%" y1="50%" x2="56.4946338%" y2="50%" id="linearGradient-2">
            <stop stop-color="#F8F8F8" offset="0%"></stop>
            <stop stop-color="#E0E0E0" offset="100%"></stop>
        </linearGradient>
        <circle id="path-3" cx="14.5" cy="14.5" r="14"></circle>
        <filter x="-33.9%" y="-12.5%" width="167.9%" height="175.0%" filterUnits="objectBoundingBox" id="filter-4">
            <feMorphology radius="0.5" operator="dilate" in="SourceAlpha" result="shadowSpreadOuter1"></feMorphology>
            <feOffset dx="0" dy="3" in="shadowSpreadOuter1" result="shadowOffsetOuter1"></feOffset>
            <feGaussianBlur stdDeviation="1.5" in="shadowOffsetOuter1" result="shadowBlurOuter1"></feGaussianBlur>
            <feComposite in="shadowBlurOuter1" in2="SourceAlpha" operator="out" result="shadowBlurOuter1"></feComposite>
            <feColorMatrix values="0 0 0 0 0   0 0 0 0 0   0 0 0 0 0  0 0 0 0.05 0" type="matrix" in="shadowBlurOuter1" result="shadowMatrixOuter1"></feColorMatrix>
            <feMorphology radius="0.5" operator="dilate" in="SourceAlpha" result="shadowSpreadOuter2"></feMorphology>
            <feOffset dx="0" dy="2" in="shadowSpreadOuter2" result="shadowOffsetOuter2"></feOffset>
            <feGaussianBlur stdDeviation="1" in="shadowOffsetOuter2" result="shadowBlurOuter2"></feGaussianBlur>
            <feComposite in="shadowBlurOuter2" in2="SourceAlpha" operator="out" result="shadowBlurOuter2"></feComposite>
            <feColorMatrix values="0 0 0 0 0   0 0 0 0 0   0 0 0 0 0  0 0 0 0.2 0" type="matrix" in="shadowBlurOuter2" result="shadowMatrixOuter2"></feColorMatrix>
            <feMorphology radius="0.5" operator="dilate" in="SourceAlpha" result="shadowSpreadOuter3"></feMorphology>
            <feOffset dx="0" dy="3" in="shadowSpreadOuter3" result="shadowOffsetOuter3"></feOffset>
            <feGaussianBlur stdDeviation="0.5" in="shadowOffsetOuter3" result="shadowBlurOuter3"></feGaussianBlur>
            <feComposite in="shadowBlurOuter3" in2="SourceAlpha" operator="out" result="shadowBlurOuter3"></feComposite>
            <feColorMatrix values="0 0 0 0 0   0 0 0 0 0   0 0 0 0 0  0 0 0 0.0510643116 0" type="matrix" in="shadowBlurOuter3" result="shadowMatrixOuter3"></feColorMatrix>
            <feMerge>
                <feMergeNode in="shadowMatrixOuter1"></feMergeNode>
                <feMergeNode in="shadowMatrixOuter2"></feMergeNode>
                <feMergeNode in="shadowMatrixOuter3"></feMergeNode>
            </feMerge>
        </filter>
    </defs>
    <g id="CEKUNIFY-Website---Detail---List" stroke="none" stroke-width="1" fill="none" fill-rule="evenodd" transform="translate(-379.000000, -2601.000000)">
        <g id="Group-14" transform="translate(379.000000, 2601.000000)">
            <path d="M10.52,150 L8.296,150 L8.296,138.656 L15.464,138.656 L15.464,140.752 L10.504,140.752 L10.504,143.552 L14.92,143.552 L14.92,145.584 L10.52,145.584 L10.52,150 Z M20.152,148.304 C21.192,148.304 22.152,147.552 22.152,146.064 C22.152,144.576 21.192,143.824 20.152,143.824 C19.112,143.824 18.152,144.576 18.152,146.064 C18.152,147.536 19.112,148.304 20.152,148.304 Z M20.152,141.888 C22.504,141.888 24.28,143.632 24.28,146.064 C24.28,148.48 22.504,150.24 20.152,150.24 C17.8,150.24 16.024,148.48 16.024,146.064 C16.024,143.632 17.8,141.888 20.152,141.888 Z M28.088,145.472 L28.088,150 L25.96,150 L25.96,142.128 L28.024,142.128 L28.024,143.104 C28.504,142.288 29.448,141.92 30.296,141.92 C32.248,141.92 33.144,143.312 33.144,145.04 L33.144,150 L31.016,150 L31.016,145.408 C31.016,144.528 30.584,143.84 29.56,143.84 C28.632,143.84 28.088,144.56 28.088,145.472 Z M37.928,139.776 L37.928,142.128 L39.512,142.128 L39.512,144.016 L37.928,144.016 L37.928,147.312 C37.928,148 38.248,148.224 38.856,148.224 C39.112,148.224 39.4,148.192 39.512,148.16 L39.512,149.92 C39.32,150 38.936,150.112 38.312,150.112 C36.776,150.112 35.816,149.2 35.816,147.68 L35.816,144.016 L34.392,144.016 L34.392,142.128 L34.792,142.128 C35.624,142.128 36.008,141.584 36.008,140.88 L36.008,139.776 L37.928,139.776 Z" id="Font" fill-opacity="0.38" fill="#000000"></path>
            <path d="M14.322,171 L8.26,171 L8.26,161.074 L9.632,161.074 L9.632,169.712 L14.322,169.712 L14.322,171 Z M17.094,171 L15.792,171 L15.792,164.266 L17.094,164.266 L17.094,171 Z M15.498,161.718 C15.498,161.186 15.918,160.766 16.436,160.766 C16.968,160.766 17.388,161.186 17.388,161.718 C17.388,162.236 16.968,162.656 16.436,162.656 C15.918,162.656 15.498,162.236 15.498,161.718 Z M18.704,169.25 L19.894,168.83 C19.978,169.53 20.51,170.09 21.462,170.09 C22.204,170.09 22.61,169.67 22.61,169.194 C22.61,168.774 22.302,168.452 21.742,168.326 L20.594,168.074 C19.544,167.85 18.914,167.136 18.914,166.184 C18.914,165.036 19.992,164.056 21.308,164.056 C23.156,164.056 23.73,165.26 23.87,165.862 L22.708,166.296 C22.652,165.946 22.372,165.176 21.308,165.176 C20.636,165.176 20.188,165.61 20.188,166.072 C20.188,166.478 20.44,166.772 20.958,166.884 L22.05,167.122 C23.268,167.388 23.912,168.13 23.912,169.124 C23.912,170.076 23.114,171.21 21.448,171.21 C19.6,171.21 18.816,170.02 18.704,169.25 Z M27.426,162.138 L27.426,164.266 L28.882,164.266 L28.882,165.456 L27.426,165.456 L27.426,168.956 C27.426,169.572 27.678,169.88 28.364,169.88 C28.532,169.88 28.77,169.852 28.882,169.824 L28.882,170.944 C28.77,170.986 28.434,171.07 27.986,171.07 C26.838,171.07 26.11,170.37 26.11,169.152 L26.11,165.456 L24.822,165.456 L24.822,164.266 L25.186,164.266 C25.914,164.266 26.222,163.818 26.222,163.23 L26.222,162.138 L27.426,162.138 Z M41.16,162.348 L37.842,162.348 L37.842,171 L36.47,171 L36.47,162.348 L33.152,162.348 L33.152,161.074 L41.16,161.074 L41.16,162.348 Z M41.944,166.94 L45.626,166.94 C45.598,165.974 44.968,165.218 43.778,165.218 C42.672,165.218 42,166.072 41.944,166.94 Z M45.822,168.69 L46.956,169.082 C46.578,170.272 45.5,171.21 43.932,171.21 C42.126,171.21 40.544,169.894 40.544,167.612 C40.544,165.498 42.07,164.056 43.764,164.056 C45.836,164.056 46.998,165.484 46.998,167.584 C46.998,167.752 46.984,167.92 46.97,168.004 L41.902,168.004 C41.93,169.208 42.798,170.048 43.932,170.048 C45.024,170.048 45.57,169.446 45.822,168.69 Z M47.628,171 L50.134,167.57 L47.712,164.266 L49.308,164.266 L50.96,166.632 L52.584,164.266 L54.138,164.266 L51.744,167.57 C52.15,168.116 53.816,170.454 54.222,171 L52.64,171 L50.904,168.522 L49.196,171 L47.628,171 Z M57.316,162.138 L57.316,164.266 L58.772,164.266 L58.772,165.456 L57.316,165.456 L57.316,168.956 C57.316,169.572 57.568,169.88 58.254,169.88 C58.422,169.88 58.66,169.852 58.772,169.824 L58.772,170.944 C58.66,170.986 58.324,171.07 57.876,171.07 C56.728,171.07 56,170.37 56,169.152 L56,165.456 L54.712,165.456 L54.712,164.266 L55.076,164.266 C55.804,164.266 56.112,163.818 56.112,163.23 L56.112,162.138 L57.316,162.138 Z M63.966,170.104 C63.966,169.558 64.386,169.124 64.932,169.124 C65.478,169.124 65.912,169.558 65.912,170.104 C65.912,170.65 65.478,171.07 64.932,171.07 C64.386,171.07 63.966,170.65 63.966,170.104 Z M63.952,165.176 C63.952,164.63 64.372,164.196 64.918,164.196 C65.464,164.196 65.898,164.63 65.898,165.176 C65.898,165.722 65.464,166.142 64.918,166.142 C64.372,166.142 63.952,165.722 63.952,165.176 Z M76.86,171 L74.592,166.94 L73.108,166.94 L73.108,171 L71.722,171 L71.722,161.074 L75.46,161.074 C77.336,161.074 78.498,162.39 78.498,164.028 C78.498,165.456 77.588,166.562 76.09,166.842 L78.456,171 L76.86,171 Z M73.108,165.708 L75.208,165.708 C76.328,165.708 77.084,165.05 77.084,164.028 C77.084,162.978 76.328,162.306 75.208,162.306 L73.108,162.306 L73.108,165.708 Z M80.822,166.94 L84.504,166.94 C84.476,165.974 83.846,165.218 82.656,165.218 C81.55,165.218 80.878,166.072 80.822,166.94 Z M84.7,168.69 L85.834,169.082 C85.456,170.272 84.378,171.21 82.81,171.21 C81.004,171.21 79.422,169.894 79.422,167.612 C79.422,165.498 80.948,164.056 82.642,164.056 C84.714,164.056 85.876,165.484 85.876,167.584 C85.876,167.752 85.862,167.92 85.848,168.004 L80.78,168.004 C80.808,169.208 81.676,170.048 82.81,170.048 C83.902,170.048 84.448,169.446 84.7,168.69 Z M87.066,171.364 L88.34,171.07 C88.438,172.008 89.152,172.722 90.174,172.722 C91.588,172.722 92.232,171.994 92.232,170.538 L92.232,169.572 C91.91,170.188 91.182,170.678 90.174,170.678 C88.382,170.678 87.08,169.32 87.08,167.416 C87.08,165.596 88.326,164.14 90.174,164.14 C91.21,164.14 91.91,164.532 92.246,165.204 L92.246,164.266 L93.548,164.266 L93.548,170.496 C93.548,172.204 92.708,173.87 90.174,173.87 C88.494,173.87 87.234,172.806 87.066,171.364 Z M90.37,169.572 C91.504,169.572 92.288,168.718 92.288,167.416 C92.288,166.114 91.504,165.26 90.37,165.26 C89.208,165.26 88.424,166.114 88.424,167.416 C88.424,168.732 89.18,169.572 90.37,169.572 Z M100.016,170.188 C99.652,170.888 98.812,171.21 98.028,171.21 C96.46,171.21 95.508,170.034 95.508,168.508 L95.508,164.266 L96.824,164.266 L96.824,168.312 C96.824,169.236 97.244,170.048 98.35,170.048 C99.414,170.048 99.946,169.348 99.946,168.326 L99.946,164.266 L101.262,164.266 L101.262,169.754 C101.262,170.286 101.304,170.762 101.332,171 L100.072,171 C100.044,170.846 100.016,170.468 100.016,170.188 Z M104.818,171 L103.502,171 L103.502,160.864 L104.818,160.864 L104.818,171 Z M106.638,169.194 C106.638,167.99 107.52,167.318 108.682,167.15 L110.502,166.884 C110.908,166.828 111.02,166.618 111.02,166.38 C111.02,165.722 110.586,165.176 109.564,165.176 C108.64,165.176 108.122,165.75 108.038,166.534 L106.778,166.24 C106.918,164.952 108.08,164.056 109.536,164.056 C111.552,164.056 112.336,165.204 112.336,166.52 L112.336,169.894 C112.336,170.482 112.392,170.832 112.42,171 L111.132,171 C111.104,170.832 111.062,170.58 111.062,170.09 C110.768,170.566 110.096,171.21 108.892,171.21 C107.52,171.21 106.638,170.258 106.638,169.194 Z M109.074,170.104 C110.152,170.104 111.02,169.586 111.02,168.116 L111.02,167.808 L108.962,168.116 C108.402,168.2 107.982,168.522 107.982,169.124 C107.982,169.628 108.402,170.104 109.074,170.104 Z M118.118,164.196 L118.118,165.596 C117.922,165.568 117.726,165.554 117.544,165.554 C116.438,165.554 115.696,166.142 115.696,167.626 L115.696,171 L114.38,171 L114.38,164.266 L115.668,164.266 L115.668,165.442 C116.158,164.406 116.998,164.154 117.684,164.154 C117.866,164.154 118.048,164.182 118.118,164.196 Z M125.79,171 L124.446,171 L124.446,164.602 L122.248,164.602 L122.248,163.636 C123.508,163.608 124.376,162.908 124.586,161.928 L125.79,161.928 L125.79,171 Z M134.26,162.222 L133.84,163.342 C133.504,163.146 132.902,162.95 132.216,162.95 C130.326,162.95 129.136,164.336 129.024,166.198 C129.388,165.596 130.214,165.022 131.418,165.022 C133.21,165.022 134.526,166.142 134.526,168.116 C134.526,170.062 132.944,171.21 131.166,171.21 C129.43,171.21 127.624,170.006 127.624,167.01 C127.624,163.636 129.654,161.718 132.3,161.718 C133.126,161.718 133.84,161.928 134.26,162.222 Z M129.22,168.116 C129.22,169.306 130.186,170.02 131.18,170.02 C132.244,170.02 133.14,169.32 133.14,168.116 C133.14,166.898 132.23,166.198 131.18,166.198 C130.13,166.198 129.22,166.898 129.22,168.116 Z M137.452,173.66 L136.15,173.66 L136.15,164.266 L137.424,164.266 L137.424,165.316 C137.788,164.644 138.586,164.112 139.678,164.112 C141.694,164.112 142.772,165.666 142.772,167.626 C142.772,169.628 141.61,171.182 139.636,171.182 C138.6,171.182 137.816,170.692 137.452,170.09 L137.452,173.66 Z M141.428,167.626 C141.428,166.282 140.672,165.274 139.44,165.274 C138.236,165.274 137.438,166.282 137.438,167.626 C137.438,169.012 138.236,170.006 139.44,170.006 C140.658,170.006 141.428,169.012 141.428,167.626 Z M143.332,171 L145.838,167.57 L143.416,164.266 L145.012,164.266 L146.664,166.632 L148.288,164.266 L149.842,164.266 L147.448,167.57 C147.854,168.116 149.52,170.454 149.926,171 L148.344,171 L146.608,168.522 L144.9,171 L143.332,171 Z M151.046,170.104 C151.046,169.6 151.48,169.166 152.068,169.166 C152.67,169.166 153.202,169.614 153.202,170.496 C153.202,172.344 151.998,173.114 151.13,173.226 L151.13,172.498 C151.816,172.344 152.278,171.658 152.292,170.986 C152.25,171.014 152.138,171.056 151.984,171.056 C151.466,171.056 151.046,170.706 151.046,170.104 Z M166.754,171 L165.382,171 L165.382,166.59 L160.314,166.59 L160.314,171 L158.942,171 L158.942,161.074 L160.314,161.074 L160.314,165.316 L165.382,165.316 L165.382,161.074 L166.754,161.074 L166.754,171 Z M169.988,166.94 L173.67,166.94 C173.642,165.974 173.012,165.218 171.822,165.218 C170.716,165.218 170.044,166.072 169.988,166.94 Z M173.866,168.69 L175,169.082 C174.622,170.272 173.544,171.21 171.976,171.21 C170.17,171.21 168.588,169.894 168.588,167.612 C168.588,165.498 170.114,164.056 171.808,164.056 C173.88,164.056 175.042,165.484 175.042,167.584 C175.042,167.752 175.028,167.92 175.014,168.004 L169.946,168.004 C169.974,169.208 170.842,170.048 171.976,170.048 C173.068,170.048 173.614,169.446 173.866,168.69 Z M175.672,171 L178.178,167.57 L175.756,164.266 L177.352,164.266 L179.004,166.632 L180.628,164.266 L182.182,164.266 L179.788,167.57 C180.194,168.116 181.86,170.454 182.266,171 L180.684,171 L178.948,168.522 L177.24,171 L175.672,171 Z M186.97,170.104 C186.97,169.558 187.39,169.124 187.936,169.124 C188.482,169.124 188.916,169.558 188.916,170.104 C188.916,170.65 188.482,171.07 187.936,171.07 C187.39,171.07 186.97,170.65 186.97,170.104 Z M186.956,165.176 C186.956,164.63 187.376,164.196 187.922,164.196 C188.468,164.196 188.902,164.63 188.902,165.176 C188.902,165.722 188.468,166.142 187.922,166.142 C187.376,166.142 186.956,165.722 186.956,165.176 Z M195.524,166.464 C195.524,167.85 195.776,168.83 196.322,169.404 C196.672,169.768 197.12,169.992 197.764,169.992 C198.408,169.992 198.856,169.768 199.206,169.404 C199.752,168.83 200.004,167.85 200.004,166.464 C200.004,165.078 199.752,164.098 199.206,163.524 C198.856,163.16 198.408,162.936 197.764,162.936 C197.12,162.936 196.672,163.16 196.322,163.524 C195.776,164.098 195.524,165.078 195.524,166.464 Z M194.166,166.464 C194.166,165.218 194.376,164.07 194.978,163.174 C195.566,162.292 196.476,161.718 197.764,161.718 C199.052,161.718 199.962,162.292 200.55,163.174 C201.152,164.07 201.362,165.218 201.362,166.464 C201.362,167.71 201.152,168.858 200.55,169.754 C199.962,170.636 199.052,171.21 197.764,171.21 C196.476,171.21 195.566,170.636 194.978,169.754 C194.376,168.858 194.166,167.71 194.166,166.464 Z M204.05,166.464 C204.05,167.85 204.302,168.83 204.848,169.404 C205.198,169.768 205.646,169.992 206.29,169.992 C206.934,169.992 207.382,169.768 207.732,169.404 C208.278,168.83 208.53,167.85 208.53,166.464 C208.53,165.078 208.278,164.098 207.732,163.524 C207.382,163.16 206.934,162.936 206.29,162.936 C205.646,162.936 205.198,163.16 204.848,163.524 C204.302,164.098 204.05,165.078 204.05,166.464 Z M202.692,166.464 C202.692,165.218 202.902,164.07 203.504,163.174 C204.092,162.292 205.002,161.718 206.29,161.718 C207.578,161.718 208.488,162.292 209.076,163.174 C209.678,164.07 209.888,165.218 209.888,166.464 C209.888,167.71 209.678,168.858 209.076,169.754 C208.488,170.636 207.578,171.21 206.29,171.21 C205.002,171.21 204.092,170.636 203.504,169.754 C202.902,168.858 202.692,167.71 202.692,166.464 Z M212.576,166.464 C212.576,167.85 212.828,168.83 213.374,169.404 C213.724,169.768 214.172,169.992 214.816,169.992 C215.46,169.992 215.908,169.768 216.258,169.404 C216.804,168.83 217.056,167.85 217.056,166.464 C217.056,165.078 216.804,164.098 216.258,163.524 C215.908,163.16 215.46,162.936 214.816,162.936 C214.172,162.936 213.724,163.16 213.374,163.524 C212.828,164.098 212.576,165.078 212.576,166.464 Z M211.218,166.464 C211.218,165.218 211.428,164.07 212.03,163.174 C212.618,162.292 213.528,161.718 214.816,161.718 C216.104,161.718 217.014,162.292 217.602,163.174 C218.204,164.07 218.414,165.218 218.414,166.464 C218.414,167.71 218.204,168.858 217.602,169.754 C217.014,170.636 216.104,171.21 214.816,171.21 C213.528,171.21 212.618,170.636 212.03,169.754 C211.428,168.858 211.218,167.71 211.218,166.464 Z M221.102,166.464 C221.102,167.85 221.354,168.83 221.9,169.404 C222.25,169.768 222.698,169.992 223.342,169.992 C223.986,169.992 224.434,169.768 224.784,169.404 C225.33,168.83 225.582,167.85 225.582,166.464 C225.582,165.078 225.33,164.098 224.784,163.524 C224.434,163.16 223.986,162.936 223.342,162.936 C222.698,162.936 222.25,163.16 221.9,163.524 C221.354,164.098 221.102,165.078 221.102,166.464 Z M219.744,166.464 C219.744,165.218 219.954,164.07 220.556,163.174 C221.144,162.292 222.054,161.718 223.342,161.718 C224.63,161.718 225.54,162.292 226.128,163.174 C226.73,164.07 226.94,165.218 226.94,166.464 C226.94,167.71 226.73,168.858 226.128,169.754 C225.54,170.636 224.63,171.21 223.342,171.21 C222.054,171.21 221.144,170.636 220.556,169.754 C219.954,168.858 219.744,167.71 219.744,166.464 Z M229.628,166.464 C229.628,167.85 229.88,168.83 230.426,169.404 C230.776,169.768 231.224,169.992 231.868,169.992 C232.512,169.992 232.96,169.768 233.31,169.404 C233.856,168.83 234.108,167.85 234.108,166.464 C234.108,165.078 233.856,164.098 233.31,163.524 C232.96,163.16 232.512,162.936 231.868,162.936 C231.224,162.936 230.776,163.16 230.426,163.524 C229.88,164.098 229.628,165.078 229.628,166.464 Z M228.27,166.464 C228.27,165.218 228.48,164.07 229.082,163.174 C229.67,162.292 230.58,161.718 231.868,161.718 C233.156,161.718 234.066,162.292 234.654,163.174 C235.256,164.07 235.466,165.218 235.466,166.464 C235.466,167.71 235.256,168.858 234.654,169.754 C234.066,170.636 233.156,171.21 231.868,171.21 C230.58,171.21 229.67,170.636 229.082,169.754 C228.48,168.858 228.27,167.71 228.27,166.464 Z M245.742,161.074 L240.94,171 L239.666,171 L244.468,161.074 L245.742,161.074 Z M255.934,161.928 L255.934,163.244 C255.094,163.916 252.532,166.198 252.098,171 L250.684,171 C251.09,165.722 254.422,163.188 254.422,163.188 L249.312,163.188 L249.312,161.928 L255.934,161.928 Z M257.712,166.464 C257.712,167.85 257.964,168.83 258.51,169.404 C258.86,169.768 259.308,169.992 259.952,169.992 C260.596,169.992 261.044,169.768 261.394,169.404 C261.94,168.83 262.192,167.85 262.192,166.464 C262.192,165.078 261.94,164.098 261.394,163.524 C261.044,163.16 260.596,162.936 259.952,162.936 C259.308,162.936 258.86,163.16 258.51,163.524 C257.964,164.098 257.712,165.078 257.712,166.464 Z M256.354,166.464 C256.354,165.218 256.564,164.07 257.166,163.174 C257.754,162.292 258.664,161.718 259.952,161.718 C261.24,161.718 262.15,162.292 262.738,163.174 C263.34,164.07 263.55,165.218 263.55,166.464 C263.55,167.71 263.34,168.858 262.738,169.754 C262.15,170.636 261.24,171.21 259.952,171.21 C258.664,171.21 257.754,170.636 257.166,169.754 C256.564,168.858 256.354,167.71 256.354,166.464 Z M265.902,164.028 C265.902,164.672 266.378,165.134 266.98,165.134 C267.596,165.134 268.058,164.672 268.058,164.028 C268.058,163.398 267.596,162.936 266.98,162.936 C266.378,162.936 265.902,163.398 265.902,164.028 Z M264.74,164.028 C264.74,162.796 265.776,161.83 266.98,161.83 C268.184,161.83 269.234,162.796 269.234,164.028 C269.234,165.274 268.184,166.24 266.98,166.24 C265.776,166.24 264.74,165.274 264.74,164.028 Z M271.446,168.9 C271.446,169.544 271.922,170.006 272.524,170.006 C273.14,170.006 273.602,169.544 273.602,168.9 C273.602,168.27 273.14,167.808 272.524,167.808 C271.922,167.808 271.446,168.27 271.446,168.9 Z M270.284,168.9 C270.284,167.668 271.32,166.702 272.524,166.702 C273.728,166.702 274.778,167.668 274.778,168.9 C274.778,170.146 273.728,171.112 272.524,171.112 C271.32,171.112 270.284,170.146 270.284,168.9 Z M267.148,171 L265.86,171 L272.384,161.928 L273.644,161.928 L267.148,171 Z M11.592,187.236 L14.616,179.074 L16.058,179.074 L12.236,189 L10.878,189 L7.14,179.074 L8.596,179.074 L11.592,187.236 Z M16.128,187.194 C16.128,185.99 17.01,185.318 18.172,185.15 L19.992,184.884 C20.398,184.828 20.51,184.618 20.51,184.38 C20.51,183.722 20.076,183.176 19.054,183.176 C18.13,183.176 17.612,183.75 17.528,184.534 L16.268,184.24 C16.408,182.952 17.57,182.056 19.026,182.056 C21.042,182.056 21.826,183.204 21.826,184.52 L21.826,187.894 C21.826,188.482 21.882,188.832 21.91,189 L20.622,189 C20.594,188.832 20.552,188.58 20.552,188.09 C20.258,188.566 19.586,189.21 18.382,189.21 C17.01,189.21 16.128,188.258 16.128,187.194 Z M18.564,188.104 C19.642,188.104 20.51,187.586 20.51,186.116 L20.51,185.808 L18.452,186.116 C17.892,186.2 17.472,186.522 17.472,187.124 C17.472,187.628 17.892,188.104 18.564,188.104 Z M25.186,189 L23.87,189 L23.87,178.864 L25.186,178.864 L25.186,189 Z M31.794,188.188 C31.43,188.888 30.59,189.21 29.806,189.21 C28.238,189.21 27.286,188.034 27.286,186.508 L27.286,182.266 L28.602,182.266 L28.602,186.312 C28.602,187.236 29.022,188.048 30.128,188.048 C31.192,188.048 31.724,187.348 31.724,186.326 L31.724,182.266 L33.04,182.266 L33.04,187.754 C33.04,188.286 33.082,188.762 33.11,189 L31.85,189 C31.822,188.846 31.794,188.468 31.794,188.188 Z M36.064,184.94 L39.746,184.94 C39.718,183.974 39.088,183.218 37.898,183.218 C36.792,183.218 36.12,184.072 36.064,184.94 Z M39.942,186.69 L41.076,187.082 C40.698,188.272 39.62,189.21 38.052,189.21 C36.246,189.21 34.664,187.894 34.664,185.612 C34.664,183.498 36.19,182.056 37.884,182.056 C39.956,182.056 41.118,183.484 41.118,185.584 C41.118,185.752 41.104,185.92 41.09,186.004 L36.022,186.004 C36.05,187.208 36.918,188.048 38.052,188.048 C39.144,188.048 39.69,187.446 39.942,186.69 Z M53.326,180.348 L50.008,180.348 L50.008,189 L48.636,189 L48.636,180.348 L45.318,180.348 L45.318,179.074 L53.326,179.074 L53.326,180.348 Z M54.11,184.94 L57.792,184.94 C57.764,183.974 57.134,183.218 55.944,183.218 C54.838,183.218 54.166,184.072 54.11,184.94 Z M57.988,186.69 L59.122,187.082 C58.744,188.272 57.666,189.21 56.098,189.21 C54.292,189.21 52.71,187.894 52.71,185.612 C52.71,183.498 54.236,182.056 55.93,182.056 C58.002,182.056 59.164,183.484 59.164,185.584 C59.164,185.752 59.15,185.92 59.136,186.004 L54.068,186.004 C54.096,187.208 54.964,188.048 56.098,188.048 C57.19,188.048 57.736,187.446 57.988,186.69 Z M59.794,189 L62.3,185.57 L59.878,182.266 L61.474,182.266 L63.126,184.632 L64.75,182.266 L66.304,182.266 L63.91,185.57 C64.316,186.116 65.982,188.454 66.388,189 L64.806,189 L63.07,186.522 L61.362,189 L59.794,189 Z M69.482,180.138 L69.482,182.266 L70.938,182.266 L70.938,183.456 L69.482,183.456 L69.482,186.956 C69.482,187.572 69.734,187.88 70.42,187.88 C70.588,187.88 70.826,187.852 70.938,187.824 L70.938,188.944 C70.826,188.986 70.49,189.07 70.042,189.07 C68.894,189.07 68.166,188.37 68.166,187.152 L68.166,183.456 L66.878,183.456 L66.878,182.266 L67.242,182.266 C67.97,182.266 68.278,181.818 68.278,181.23 L68.278,180.138 L69.482,180.138 Z M76.132,188.104 C76.132,187.558 76.552,187.124 77.098,187.124 C77.644,187.124 78.078,187.558 78.078,188.104 C78.078,188.65 77.644,189.07 77.098,189.07 C76.552,189.07 76.132,188.65 76.132,188.104 Z M76.118,183.176 C76.118,182.63 76.538,182.196 77.084,182.196 C77.63,182.196 78.064,182.63 78.064,183.176 C78.064,183.722 77.63,184.142 77.084,184.142 C76.538,184.142 76.118,183.722 76.118,183.176 Z M86.52,189 L85.176,189 L85.176,182.602 L82.978,182.602 L82.978,181.636 C84.238,181.608 85.106,180.908 85.316,179.928 L86.52,179.928 L86.52,189 Z M94.99,180.222 L94.57,181.342 C94.234,181.146 93.632,180.95 92.946,180.95 C91.056,180.95 89.866,182.336 89.754,184.198 C90.118,183.596 90.944,183.022 92.148,183.022 C93.94,183.022 95.256,184.142 95.256,186.116 C95.256,188.062 93.674,189.21 91.896,189.21 C90.16,189.21 88.354,188.006 88.354,185.01 C88.354,181.636 90.384,179.718 93.03,179.718 C93.856,179.718 94.57,179.928 94.99,180.222 Z M89.95,186.116 C89.95,187.306 90.916,188.02 91.91,188.02 C92.974,188.02 93.87,187.32 93.87,186.116 C93.87,184.898 92.96,184.198 91.91,184.198 C90.86,184.198 89.95,184.898 89.95,186.116 Z M98.182,191.66 L96.88,191.66 L96.88,182.266 L98.154,182.266 L98.154,183.316 C98.518,182.644 99.316,182.112 100.408,182.112 C102.424,182.112 103.502,183.666 103.502,185.626 C103.502,187.628 102.34,189.182 100.366,189.182 C99.33,189.182 98.546,188.692 98.182,188.09 L98.182,191.66 Z M102.158,185.626 C102.158,184.282 101.402,183.274 100.17,183.274 C98.966,183.274 98.168,184.282 98.168,185.626 C98.168,187.012 98.966,188.006 100.17,188.006 C101.388,188.006 102.158,187.012 102.158,185.626 Z M104.062,189 L106.568,185.57 L104.146,182.266 L105.742,182.266 L107.394,184.632 L109.018,182.266 L110.572,182.266 L108.178,185.57 C108.584,186.116 110.25,188.454 110.656,189 L109.074,189 L107.338,186.522 L105.63,189 L104.062,189 Z M111.776,188.104 C111.776,187.6 112.21,187.166 112.798,187.166 C113.4,187.166 113.932,187.614 113.932,188.496 C113.932,190.344 112.728,191.114 111.86,191.226 L111.86,190.498 C112.546,190.344 113.008,189.658 113.022,188.986 C112.98,189.014 112.868,189.056 112.714,189.056 C112.196,189.056 111.776,188.706 111.776,188.104 Z M127.484,189 L126.112,189 L126.112,184.59 L121.044,184.59 L121.044,189 L119.672,189 L119.672,179.074 L121.044,179.074 L121.044,183.316 L126.112,183.316 L126.112,179.074 L127.484,179.074 L127.484,189 Z M130.718,184.94 L134.4,184.94 C134.372,183.974 133.742,183.218 132.552,183.218 C131.446,183.218 130.774,184.072 130.718,184.94 Z M134.596,186.69 L135.73,187.082 C135.352,188.272 134.274,189.21 132.706,189.21 C130.9,189.21 129.318,187.894 129.318,185.612 C129.318,183.498 130.844,182.056 132.538,182.056 C134.61,182.056 135.772,183.484 135.772,185.584 C135.772,185.752 135.758,185.92 135.744,186.004 L130.676,186.004 C130.704,187.208 131.572,188.048 132.706,188.048 C133.798,188.048 134.344,187.446 134.596,186.69 Z M136.402,189 L138.908,185.57 L136.486,182.266 L138.082,182.266 L139.734,184.632 L141.358,182.266 L142.912,182.266 L140.518,185.57 C140.924,186.116 142.59,188.454 142.996,189 L141.414,189 L139.678,186.522 L137.97,189 L136.402,189 Z M147.7,188.104 C147.7,187.558 148.12,187.124 148.666,187.124 C149.212,187.124 149.646,187.558 149.646,188.104 C149.646,188.65 149.212,189.07 148.666,189.07 C148.12,189.07 147.7,188.65 147.7,188.104 Z M147.686,183.176 C147.686,182.63 148.106,182.196 148.652,182.196 C149.198,182.196 149.632,182.63 149.632,183.176 C149.632,183.722 149.198,184.142 148.652,184.142 C148.106,184.142 147.686,183.722 147.686,183.176 Z M154.686,186.956 L154.686,185.374 L158.578,179.928 L160.468,179.928 L160.468,185.682 L162.022,185.682 L162.022,186.956 L160.468,186.956 L160.468,189 L159.138,189 L159.138,186.956 L154.686,186.956 Z M159.138,185.682 L159.138,181.244 L155.946,185.682 L159.138,185.682 Z M164.206,183.19 L162.834,183.022 C162.82,182.896 162.82,182.77 162.82,182.658 C162.82,181.104 163.968,179.718 165.956,179.718 C167.902,179.718 169.022,180.992 169.022,182.504 C169.022,183.694 168.35,184.646 167.314,185.304 L165.522,186.452 C165.004,186.788 164.542,187.166 164.416,187.726 L169.078,187.726 L169.078,189 L162.722,189 C162.75,187.516 163.338,186.382 164.878,185.388 L166.39,184.408 C167.244,183.862 167.636,183.218 167.636,182.518 C167.636,181.692 167.076,180.922 165.928,180.922 C164.738,180.922 164.178,181.748 164.178,182.784 C164.178,182.91 164.192,183.05 164.206,183.19 Z M170.898,179.074 L174.132,179.074 C176.022,179.074 177.128,180.194 177.128,181.762 C177.128,182.826 176.512,183.582 175.644,183.904 C176.778,184.184 177.436,185.192 177.436,186.298 C177.436,187.866 176.19,189 174.37,189 L170.898,189 L170.898,179.074 Z M172.27,183.414 L173.978,183.414 C175.084,183.414 175.742,182.756 175.742,181.832 C175.742,180.894 175.056,180.278 173.922,180.278 L172.27,180.278 L172.27,183.414 Z M172.27,187.796 L174.174,187.796 C175.28,187.796 176.036,187.18 176.036,186.214 C176.036,185.262 175.434,184.59 174.23,184.59 L172.27,184.59 L172.27,187.796 Z M178.556,186.536 L179.872,186.144 C179.956,187.264 180.782,188.02 181.916,188.02 C182.994,188.02 183.862,187.306 183.862,186.186 C183.862,184.94 182.952,184.31 181.902,184.31 C181.258,184.31 180.642,184.562 180.25,184.968 C179.774,184.786 179.368,184.604 178.906,184.436 L180.082,179.928 L184.87,179.928 L184.87,181.188 L180.992,181.188 L180.32,183.792 C180.726,183.344 181.454,183.12 182.168,183.12 C183.946,183.12 185.248,184.254 185.248,186.13 C185.248,187.838 183.932,189.224 181.916,189.224 C179.984,189.224 178.682,187.964 178.556,186.536 Z M186.228,186.956 L186.228,185.374 L190.12,179.928 L192.01,179.928 L192.01,185.682 L193.564,185.682 L193.564,186.956 L192.01,186.956 L192.01,189 L190.68,189 L190.68,186.956 L186.228,186.956 Z M190.68,185.682 L190.68,181.244 L187.488,185.682 L190.68,185.682 Z M194.572,188.678 L195.02,187.544 C195.412,187.782 196.084,187.978 196.672,187.978 C198.87,187.978 199.766,186.536 199.822,184.758 C199.5,185.36 198.702,185.92 197.47,185.92 C195.902,185.92 194.334,184.856 194.334,182.854 C194.334,180.978 195.902,179.718 197.68,179.718 C199.458,179.718 201.208,180.992 201.208,183.89 C201.208,187.222 199.724,189.21 196.672,189.21 C195.972,189.21 195.02,188.986 194.572,188.678 Z M199.64,182.826 C199.64,181.65 198.674,180.922 197.68,180.922 C196.672,180.922 195.72,181.636 195.72,182.826 C195.72,184.058 196.644,184.744 197.68,184.744 C198.688,184.744 199.64,184.03 199.64,182.826 Z M211.484,179.074 L206.682,189 L205.408,189 L210.21,179.074 L211.484,179.074 Z M218.876,189 L217.532,189 L217.532,182.602 L215.334,182.602 L215.334,181.636 C216.594,181.608 217.462,180.908 217.672,179.928 L218.876,179.928 L218.876,189 Z M222.054,184.464 C222.054,185.85 222.306,186.83 222.852,187.404 C223.202,187.768 223.65,187.992 224.294,187.992 C224.938,187.992 225.386,187.768 225.736,187.404 C226.282,186.83 226.534,185.85 226.534,184.464 C226.534,183.078 226.282,182.098 225.736,181.524 C225.386,181.16 224.938,180.936 224.294,180.936 C223.65,180.936 223.202,181.16 222.852,181.524 C222.306,182.098 222.054,183.078 222.054,184.464 Z M220.696,184.464 C220.696,183.218 220.906,182.07 221.508,181.174 C222.096,180.292 223.006,179.718 224.294,179.718 C225.582,179.718 226.492,180.292 227.08,181.174 C227.682,182.07 227.892,183.218 227.892,184.464 C227.892,185.71 227.682,186.858 227.08,187.754 C226.492,188.636 225.582,189.21 224.294,189.21 C223.006,189.21 222.096,188.636 221.508,187.754 C220.906,186.858 220.696,185.71 220.696,184.464 Z M230.58,184.464 C230.58,185.85 230.832,186.83 231.378,187.404 C231.728,187.768 232.176,187.992 232.82,187.992 C233.464,187.992 233.912,187.768 234.262,187.404 C234.808,186.83 235.06,185.85 235.06,184.464 C235.06,183.078 234.808,182.098 234.262,181.524 C233.912,181.16 233.464,180.936 232.82,180.936 C232.176,180.936 231.728,181.16 231.378,181.524 C230.832,182.098 230.58,183.078 230.58,184.464 Z M229.222,184.464 C229.222,183.218 229.432,182.07 230.034,181.174 C230.622,180.292 231.532,179.718 232.82,179.718 C234.108,179.718 235.018,180.292 235.606,181.174 C236.208,182.07 236.418,183.218 236.418,184.464 C236.418,185.71 236.208,186.858 235.606,187.754 C235.018,188.636 234.108,189.21 232.82,189.21 C231.532,189.21 230.622,188.636 230.034,187.754 C229.432,186.858 229.222,185.71 229.222,184.464 Z M238.77,182.028 C238.77,182.672 239.246,183.134 239.848,183.134 C240.464,183.134 240.926,182.672 240.926,182.028 C240.926,181.398 240.464,180.936 239.848,180.936 C239.246,180.936 238.77,181.398 238.77,182.028 Z M237.608,182.028 C237.608,180.796 238.644,179.83 239.848,179.83 C241.052,179.83 242.102,180.796 242.102,182.028 C242.102,183.274 241.052,184.24 239.848,184.24 C238.644,184.24 237.608,183.274 237.608,182.028 Z M244.314,186.9 C244.314,187.544 244.79,188.006 245.392,188.006 C246.008,188.006 246.47,187.544 246.47,186.9 C246.47,186.27 246.008,185.808 245.392,185.808 C244.79,185.808 244.314,186.27 244.314,186.9 Z M243.152,186.9 C243.152,185.668 244.188,184.702 245.392,184.702 C246.596,184.702 247.646,185.668 247.646,186.9 C247.646,188.146 246.596,189.112 245.392,189.112 C244.188,189.112 243.152,188.146 243.152,186.9 Z M240.016,189 L238.728,189 L245.252,179.928 L246.512,179.928 L240.016,189 Z" id="List-Text-:-Regular" fill-opacity="0.38" fill="#000000"></path>
            <path d="M7.5,117.5 L146.013537,117.5" id="Line-2" stroke="#E0E0E0" stroke-linecap="round" stroke-linejoin="round"></path>
            <path d="M10.008,11 L8.136,11 L8.136,0.328 L12.84,0.328 C15.08,0.328 16.312,1.848 16.312,3.672 C16.312,5.48 15.064,7 12.84,7 L10.008,7 L10.008,11 Z M12.584,5.352 C13.64,5.352 14.392,4.68 14.392,3.672 C14.392,2.648 13.64,1.976 12.584,1.976 L10.008,1.976 L10.008,5.352 L12.584,5.352 Z M19.512,11 L17.832,11 L17.832,0.328 L19.512,0.328 L19.512,11 Z M28.104,11 L26.424,11 L26.424,10.152 C25.848,10.824 24.936,11.192 23.912,11.192 C22.664,11.192 21.24,10.328 21.24,8.632 C21.24,6.84 22.648,6.104 23.912,6.104 C24.968,6.104 25.848,6.44 26.424,7.096 L26.424,5.944 C26.424,5.048 25.672,4.504 24.616,4.504 C23.752,4.504 22.984,4.824 22.328,5.496 L21.624,4.328 C22.52,3.464 23.64,3.08 24.872,3.08 C26.6,3.08 28.104,3.8 28.104,5.864 L28.104,11 Z M24.584,10.04 C25.304,10.04 26.024,9.768 26.424,9.24 L26.424,8.056 C26.024,7.528 25.304,7.256 24.584,7.256 C23.64,7.256 22.92,7.816 22.92,8.648 C22.92,9.496 23.64,10.04 24.584,10.04 Z M31.128,2.328 C30.552,2.328 30.088,1.864 30.088,1.288 C30.088,0.712 30.552,0.248 31.128,0.248 C31.704,0.248 32.168,0.712 32.168,1.288 C32.168,1.864 31.704,2.328 31.128,2.328 Z M31.96,11 L30.28,11 L30.28,3.272 L31.96,3.272 L31.96,11 Z M41.048,11 L39.368,11 L39.368,6.168 C39.368,4.952 38.744,4.568 37.8,4.568 C36.952,4.568 36.216,5.08 35.816,5.592 L35.816,11 L34.136,11 L34.136,3.272 L35.816,3.272 L35.816,4.312 C36.328,3.704 37.336,3.08 38.552,3.08 C40.216,3.08 41.048,3.976 41.048,5.56 L41.048,11 Z M47.512,11.32 L46.264,11.32 L50.056,0.008 L51.304,0.008 L47.512,11.32 Z M58.44,11 L56.568,11 L56.568,0.328 L61.272,0.328 C63.512,0.328 64.744,1.848 64.744,3.672 C64.744,5.48 63.496,7 61.272,7 L58.44,7 L58.44,11 Z M61.016,5.352 C62.072,5.352 62.824,4.68 62.824,3.672 C62.824,2.648 62.072,1.976 61.016,1.976 L58.44,1.976 L58.44,5.352 L61.016,5.352 Z M67.944,11 L66.264,11 L66.264,0.328 L67.944,0.328 L67.944,11 Z M76.536,11 L74.856,11 L74.856,10.152 C74.28,10.824 73.368,11.192 72.344,11.192 C71.096,11.192 69.672,10.328 69.672,8.632 C69.672,6.84 71.08,6.104 72.344,6.104 C73.4,6.104 74.28,6.44 74.856,7.096 L74.856,5.944 C74.856,5.048 74.104,4.504 73.048,4.504 C72.184,4.504 71.416,4.824 70.76,5.496 L70.056,4.328 C70.952,3.464 72.072,3.08 73.304,3.08 C75.032,3.08 76.536,3.8 76.536,5.864 L76.536,11 Z M73.016,10.04 C73.736,10.04 74.456,9.768 74.856,9.24 L74.856,8.056 C74.456,7.528 73.736,7.256 73.016,7.256 C72.072,7.256 71.352,7.816 71.352,8.648 C71.352,9.496 72.072,10.04 73.016,10.04 Z M79.56,2.328 C78.984,2.328 78.52,1.864 78.52,1.288 C78.52,0.712 78.984,0.248 79.56,0.248 C80.136,0.248 80.6,0.712 80.6,1.288 C80.6,1.864 80.136,2.328 79.56,2.328 Z M80.392,11 L78.712,11 L78.712,3.272 L80.392,3.272 L80.392,11 Z M89.48,11 L87.8,11 L87.8,6.168 C87.8,4.952 87.176,4.568 86.232,4.568 C85.384,4.568 84.648,5.08 84.248,5.592 L84.248,11 L82.568,11 L82.568,3.272 L84.248,3.272 L84.248,4.312 C84.76,3.704 85.768,3.08 86.984,3.08 C88.648,3.08 89.48,3.976 89.48,5.56 L89.48,11 Z M102.264,6.136 L99.304,6.136 L99.304,9.464 L98.12,9.464 L98.12,6.136 L95.16,6.136 L95.16,5.064 L98.12,5.064 L98.12,1.848 L99.304,1.848 L99.304,5.064 L102.264,5.064 L102.264,6.136 Z M109.864,11 L107.992,11 L107.992,0.328 L109.864,0.328 L109.864,11 Z M115.608,11.192 C113.272,11.192 111.624,9.464 111.624,7.128 C111.624,4.792 113.272,3.08 115.608,3.08 C117.128,3.08 118.024,3.72 118.568,4.456 L117.464,5.464 C117.032,4.856 116.44,4.568 115.688,4.568 C114.296,4.568 113.352,5.624 113.352,7.128 C113.352,8.632 114.296,9.704 115.688,9.704 C116.44,9.704 117.032,9.384 117.464,8.776 L118.568,9.816 C118.024,10.536 117.128,11.192 115.608,11.192 Z M123.56,11.192 C121.096,11.192 119.592,9.336 119.592,7.128 C119.592,4.904 121.096,3.08 123.56,3.08 C126.024,3.08 127.528,4.904 127.528,7.128 C127.528,9.336 126.024,11.192 123.56,11.192 Z M123.56,9.704 C125,9.704 125.784,8.504 125.784,7.128 C125.784,5.768 125,4.568 123.56,4.568 C122.136,4.568 121.336,5.768 121.336,7.128 C121.336,8.504 122.136,9.704 123.56,9.704 Z M136.152,11 L134.472,11 L134.472,6.168 C134.472,4.952 133.848,4.568 132.904,4.568 C132.056,4.568 131.32,5.08 130.92,5.592 L130.92,11 L129.24,11 L129.24,3.272 L130.92,3.272 L130.92,4.312 C131.432,3.704 132.44,3.08 133.656,3.08 C135.32,3.08 136.152,3.976 136.152,5.56 L136.152,11 Z" id="Plain-/-Plain-+-Icon" fill-opacity="0.38" fill="#000000"></path>
            <g id="List/Single-Line/With-Icon-Copy-2" filter="url(#filter-1)" transform="translate(9.000000, 29.000000)">
                <g id="List">
                    <rect id="Cell" fill="#FFFFFF" x="0" y="0" width="322" height="65"></rect>
                    <path d="M18,64 L322,64" id="Line" stroke="#E0E0E0" stroke-width="0.5" stroke-linecap="square"></path>
                </g>
                <path d="M20.890625,38.5 L19.6484375,38.5 L19.6484375,28.9609375 L16.3828125,28.9609375 L16.3828125,27.8359375 L24.15625,27.8359375 L24.15625,28.9609375 L20.890625,28.9609375 L20.890625,38.5 Z M27.6844302,38.6328125 C25.5047427,38.6328125 24.2469302,37.21875 24.2469302,35.0703125 L24.2469302,33.7421875 C24.2469302,31.5703125 25.6375552,30.171875 27.5828677,30.171875 C29.5281802,30.171875 30.9188052,31.5703125 30.9188052,33.7421875 L30.9188052,34.7421875 L25.4813052,34.7421875 L25.4813052,35.1640625 C25.4813052,36.4921875 26.2313052,37.546875 27.6766177,37.546875 C28.6766177,37.546875 29.3406802,37.0703125 29.4969302,36.5625 L30.8016177,36.5625 C30.6688052,37.3984375 29.6844302,38.6328125 27.6844302,38.6328125 Z M25.4813052,33.7890625 L29.6844302,33.7890625 L29.6844302,33.640625 C29.6844302,32.203125 28.8484927,31.2578125 27.5828677,31.2578125 C26.3172427,31.2578125 25.4813052,32.203125 25.4813052,33.640625 L25.4813052,33.7890625 Z M37.5641728,38.5 L35.5485478,35.3828125 L35.5016728,35.3828125 L33.4782353,38.5 L32.0797978,38.5 L34.8610478,34.453125 L32.0641728,30.3046875 L33.5485478,30.3046875 L35.5094853,33.4140625 L35.5641728,33.4140625 L37.5876103,30.3046875 L39.0016728,30.3046875 L36.2047978,34.3125 L39.0485478,38.5 L37.5641728,38.5 Z M41.139228,30.3046875 L41.139228,28.2421875 L42.3657905,28.2421875 L42.3657905,30.3046875 L44.2251655,30.3046875 L44.2251655,31.328125 L42.3657905,31.328125 L42.3657905,36.2734375 C42.3657905,37.28125 42.686103,37.53125 43.7251655,37.53125 C43.9126655,37.53125 44.232978,37.5078125 44.357978,37.4921875 L44.357978,38.515625 C44.248603,38.5390625 43.670478,38.578125 43.4126655,38.578125 C41.4907905,38.578125 41.139228,37.8125 41.139228,36.2109375 L41.139228,31.328125 L39.889228,31.328125 L39.889228,30.3046875 L41.139228,30.3046875 Z M57.2424633,31.0546875 L56.0080883,31.0546875 C55.8049633,29.4375 54.6252758,28.7421875 53.3284008,28.7421875 C51.7346508,28.7421875 50.3752758,29.796875 50.3752758,32.3984375 L50.3752758,33.8828125 C50.3752758,36.203125 51.3830883,37.59375 53.2893383,37.59375 C54.8909008,37.59375 56.0549633,36.6015625 56.0549633,35.1875 L56.0549633,34.09375 L53.2112133,34.09375 L53.2112133,32.96875 L57.2737133,32.96875 L57.2737133,35.1875 C57.2737133,36.5390625 56.3127758,38.7265625 53.3127758,38.7265625 C50.5471508,38.7265625 49.1330883,36.875 49.1330883,33.8828125 L49.1330883,32.3984375 C49.1330883,29.34375 50.8362133,27.609375 53.3596508,27.609375 C55.7893383,27.609375 57.1096508,29.21875 57.2424633,31.0546875 Z M62.6534559,30.171875 C64.6300184,30.171875 66.1300184,31.46875 66.1300184,33.75 L66.1300184,35.046875 C66.1300184,37.328125 64.6300184,38.6328125 62.6534559,38.6328125 C60.6378309,38.6328125 59.1690809,37.3515625 59.1690809,35.046875 L59.1690809,33.75 C59.1690809,31.5546875 60.6690809,30.171875 62.6534559,30.171875 Z M62.6612684,31.2578125 C61.2940809,31.2578125 60.3956434,32.3203125 60.3956434,33.890625 L60.3956434,34.921875 C60.3956434,36.53125 61.2393934,37.546875 62.6612684,37.546875 C64.0753309,37.546875 64.9034559,36.53125 64.9034559,34.921875 L64.9034559,33.890625 C64.9034559,32.3203125 64.0362684,31.2578125 62.6612684,31.2578125 Z M71.2441361,38.6328125 C69.0644486,38.6328125 67.8066361,37.21875 67.8066361,35.0703125 L67.8066361,33.7421875 C67.8066361,31.5703125 69.1972611,30.171875 71.1425736,30.171875 C73.0878861,30.171875 74.4785111,31.5703125 74.4785111,33.7421875 L74.4785111,34.7421875 L69.0410111,34.7421875 L69.0410111,35.1640625 C69.0410111,36.4921875 69.7910111,37.546875 71.2363236,37.546875 C72.2363236,37.546875 72.9003861,37.0703125 73.0566361,36.5625 L74.3613236,36.5625 C74.2285111,37.3984375 73.2441361,38.6328125 71.2441361,38.6328125 Z M69.0410111,33.7890625 L73.2441361,33.7890625 L73.2441361,33.640625 C73.2441361,32.203125 72.4081986,31.2578125 71.1425736,31.2578125 C69.8769486,31.2578125 69.0410111,32.203125 69.0410111,33.640625 L69.0410111,33.7890625 Z M76.1004412,32.6328125 C76.1004412,30.921875 77.5379412,30.171875 79.0926287,30.171875 C80.8348162,30.171875 81.9676287,31.1015625 81.9676287,32.4375 L80.8113787,32.4375 C80.7645037,31.8359375 80.2020037,31.1953125 79.0379412,31.1953125 C78.0379412,31.1953125 77.3035662,31.65625 77.3035662,32.5 C77.3035662,33.515625 78.3738787,33.6484375 79.3113787,33.8203125 C80.8504412,34.09375 82.1707537,34.484375 82.1707537,36.1015625 C82.1707537,37.7265625 80.8582537,38.6328125 78.9676287,38.6328125 C77.2176287,38.6328125 75.9598162,37.8515625 75.9598162,36.3828125 L77.1629412,36.3828125 C77.2801287,37.1484375 77.8035662,37.6171875 79.0223162,37.6171875 C80.3973162,37.6171875 80.9598162,37 80.9598162,36.25 C80.9598162,35.296875 80.0613787,35.109375 78.8973162,34.8828125 C77.3582537,34.5625 76.1004412,34.25 76.1004412,32.6328125 Z M95.5005515,38.5 L94.258364,38.5 L94.258364,33.53125 L88.742739,33.53125 L88.742739,38.5 L87.5005515,38.5 L87.5005515,27.8359375 L88.742739,27.8359375 L88.742739,32.40625 L94.258364,32.40625 L94.258364,27.8359375 L95.5005515,27.8359375 L95.5005515,38.5 Z M101.099044,38.6328125 C98.9193567,38.6328125 97.6615442,37.21875 97.6615442,35.0703125 L97.6615442,33.7421875 C97.6615442,31.5703125 99.0521692,30.171875 100.997482,30.171875 C102.942794,30.171875 104.333419,31.5703125 104.333419,33.7421875 L104.333419,34.7421875 L98.8959192,34.7421875 L98.8959192,35.1640625 C98.8959192,36.4921875 99.6459192,37.546875 101.091232,37.546875 C102.091232,37.546875 102.755294,37.0703125 102.911544,36.5625 L104.216232,36.5625 C104.083419,37.3984375 103.099044,38.6328125 101.099044,38.6328125 Z M98.8959192,33.7890625 L103.099044,33.7890625 L103.099044,33.640625 C103.099044,32.203125 102.263107,31.2578125 100.997482,31.2578125 C99.7318567,31.2578125 98.8959192,32.203125 98.8959192,33.640625 L98.8959192,33.7890625 Z M106.510037,38.5 L106.510037,30.3046875 L107.736599,30.3046875 L107.736599,31.5625 L107.799099,31.5625 C108.010037,31.0234375 108.603787,30.1796875 110.095974,30.1796875 C110.244412,30.1796875 110.408474,30.1953125 110.572537,30.2109375 L110.572537,31.3515625 C110.439724,31.328125 110.181912,31.3203125 109.947537,31.3203125 C108.478787,31.3203125 107.736599,32.2109375 107.736599,33.3203125 L107.736599,38.5 L106.510037,38.5 Z M115.163217,38.6328125 C112.983529,38.6328125 111.725717,37.21875 111.725717,35.0703125 L111.725717,33.7421875 C111.725717,31.5703125 113.116342,30.171875 115.061654,30.171875 C117.006967,30.171875 118.397592,31.5703125 118.397592,33.7421875 L118.397592,34.7421875 L112.960092,34.7421875 L112.960092,35.1640625 C112.960092,36.4921875 113.710092,37.546875 115.155404,37.546875 C116.155404,37.546875 116.819467,37.0703125 116.975717,36.5625 L118.280404,36.5625 C118.147592,37.3984375 117.163217,38.6328125 115.163217,38.6328125 Z M112.960092,33.7890625 L117.163217,33.7890625 L117.163217,33.640625 C117.163217,32.203125 116.327279,31.2578125 115.061654,31.2578125 C113.796029,31.2578125 112.960092,32.203125 112.960092,33.640625 L112.960092,33.7890625 Z" id="Label-One" fill-opacity="0.7" fill="#000000"></path>
                <g id="Icon/Toggle/Switch-OFF" transform="translate(255.000000, 12.000000)">
                    <g id="Off" transform="translate(1.000000, 6.000000)">
                        <rect id="White-Background" fill="url(#linearGradient-2)" x="0.5" y="2" width="49.5" height="26" rx="13"></rect>
                        <g id="Knob">
                            <use fill="black" fill-opacity="1" filter="url(#filter-4)" xlink:href="#path-3"></use>
                            <use fill="#FFFFFF" fill-rule="evenodd" xlink:href="#path-3"></use>
                            <circle stroke="#E0E0E0" stroke-width="0.5" cx="14.5" cy="14.5" r="14.25"></circle>
                        </g>
                        <path d="M9.63500977,19.0251465 L19.0251465,9.63500977" id="Line" stroke="#BDBDBD" stroke-width="2" stroke-linecap="round" stroke-linejoin="round"></path>
                        <path d="M9.63500977,9.63500977 L19.0251465,19.0251465" id="Line" stroke="#BDBDBD" stroke-width="2" stroke-linecap="round" stroke-linejoin="round"></path>
                    </g>
                </g>
            </g>
            <g id="#height-left-B8CC14C2-001B-450A-98FB-4BA2B03DBE65" transform="translate(340.000000, 29.000000)" fill="#FF5500">
                <rect id="start" x="14" y="0" width="5" height="1"></rect>
                <rect id="end" x="14" y="64" width="5" height="1"></rect>
                <rect id="line" x="16" y="0" width="1" height="25"></rect>
                <rect id="line" x="16" y="43" width="1" height="22"></rect>
                <text id="Varies" font-family="HelveticaNeue, Helvetica Neue" font-size="12" font-weight="normal">
                    <tspan x="0.39" y="37">Varies</tspan>
                </text>
            </g>
            <g id="#spacing-top-D1C7A4A4-C492-491F-BB79-7429E5D84215-D4C3BB12-FF30-48D8-B12E-21507A188353" transform="translate(74.000000, 29.000000)">
                <rect id="line" fill="#50E3C2" x="2" y="0" width="1" height="24.5"></rect>
                <rect id="start" fill="#50E3C2" x="0" y="0" width="5" height="1"></rect>
                <rect id="end" fill="#50E3C2" x="0" y="23.5" width="5" height="1"></rect>
                <rect id="box" fill="#50E3C2" x="8" y="1" width="45" height="22" rx="2"></rect>
                <polygon id="arrow" fill="#50E3C2" points="4 12 8 8 12 12 8 16"></polygon>
                <text id="24px" font-family="HelveticaNeue, Helvetica Neue" font-size="12" font-weight="normal" fill="#FFFFFF">
                    <tspan x="17.162" y="16">24px</tspan>
                </text>
            </g>
            <g id="#spacing-bottom-D1C7A4A4-C492-491F-BB79-7429E5D84215-D4C3BB12-FF30-48D8-B12E-21507A188353" transform="translate(74.000000, 69.500000)">
                <rect id="line" fill="#50E3C2" x="2" y="0" width="1" height="24.5"></rect>
                <rect id="start" fill="#50E3C2" x="0" y="0" width="5" height="1"></rect>
                <rect id="end" fill="#50E3C2" x="0" y="23.5" width="5" height="1"></rect>
                <rect id="box" fill="#50E3C2" x="8" y="1" width="45" height="22" rx="2"></rect>
                <polygon id="arrow" fill="#50E3C2" points="4 12 8 8 12 12 8 16"></polygon>
                <text id="24px" font-family="HelveticaNeue, Helvetica Neue" font-size="12" font-weight="normal" fill="#FFFFFF">
                    <tspan x="17.162" y="16">24px</tspan>
                </text>
            </g>
            <g id="#spacing-left-D1C7A4A4-C492-491F-BB79-7429E5D84215-D4C3BB12-FF30-48D8-B12E-21507A188353" transform="translate(0.000000, 33.000000)">
                <rect id="line" fill="#50E3C2" x="9" y="29" width="16" height="1"></rect>
                <rect id="start" fill="#50E3C2" x="9" y="27" width="1" height="5"></rect>
                <rect id="end" fill="#50E3C2" x="24" y="27" width="1" height="5"></rect>
                <rect id="box" fill="#50E3C2" x="0" y="0" width="35" height="22" rx="2"></rect>
                <polygon id="arrow" fill="#50E3C2" points="14 22 18 18 22 22 18 26"></polygon>
                <text id="Text" font-family="HelveticaNeue, Helvetica Neue" font-size="12" font-weight="normal" fill="#FFFFFF">
                    <tspan x="4.162" y="15">16px</tspan>
                </text>
            </g>
            <g id="#spacing-right-3CF05157-FB9F-4737-AF4A-CFFA86880F8A-D4C3BB12-FF30-48D8-B12E-21507A188353" transform="translate(306.000000, 33.000000)">
                <rect id="line" fill="#50E3C2" x="9" y="29" width="16" height="1"></rect>
                <rect id="start" fill="#50E3C2" x="9" y="27" width="1" height="5"></rect>
                <rect id="end" fill="#50E3C2" x="24" y="27" width="1" height="5"></rect>
                <rect id="box" fill="#50E3C2" x="0" y="0" width="35" height="22" rx="2"></rect>
                <polygon id="arrow" fill="#50E3C2" points="14 22 18 18 22 22 18 26"></polygon>
                <text id="Text" font-family="HelveticaNeue, Helvetica Neue" font-size="12" font-weight="normal" fill="#FFFFFF">
                    <tspan x="4.162" y="15">16px</tspan>
                </text>
            </g>
            <g id="#spacing-top-3CF05157-FB9F-4737-AF4A-CFFA86880F8A-D4C3BB12-FF30-48D8-B12E-21507A188353" transform="translate(250.000000, 24.000000)">
                <rect id="line" fill="#50E3C2" x="40" y="5" width="1" height="12"></rect>
                <rect id="start" fill="#50E3C2" x="38" y="5" width="5" height="1"></rect>
                <rect id="end" fill="#50E3C2" x="38" y="16" width="5" height="1"></rect>
                <rect id="box" fill="#50E3C2" x="0" y="0" width="35" height="22" rx="2"></rect>
                <polygon id="arrow" fill="#50E3C2" points="31 11 35 7 39 11 35 15"></polygon>
                <text id="Text" font-family="HelveticaNeue, Helvetica Neue" font-size="12" font-weight="normal" fill="#FFFFFF">
                    <tspan x="4.162" y="15">12px</tspan>
                </text>
            </g>
            <g id="#spacing-bottom-3CF05157-FB9F-4737-AF4A-CFFA86880F8A-D4C3BB12-FF30-48D8-B12E-21507A188353" transform="translate(288.000000, 77.000000)">
                <rect id="line" fill="#50E3C2" x="2" y="5" width="1" height="12"></rect>
                <rect id="start" fill="#50E3C2" x="0" y="5" width="5" height="1"></rect>
                <rect id="end" fill="#50E3C2" x="0" y="16" width="5" height="1"></rect>
                <rect id="box" fill="#50E3C2" x="8" y="0" width="35" height="22" rx="2"></rect>
                <polygon id="arrow" fill="#50E3C2" points="4 11 8 7 12 11 8 15"></polygon>
                <text id="Text" font-family="HelveticaNeue, Helvetica Neue" font-size="12" font-weight="normal" fill="#FFFFFF">
                    <tspan x="12.162" y="15">12px</tspan>
                </text>
            </g>
        </g>
    </g>
</svg>