<?xml version="1.0" encoding="UTF-8"?>
<svg width="377px" height="96px" viewBox="0 0 377 96" version="1.1" xmlns="http://www.w3.org/2000/svg" xmlns:xlink="http://www.w3.org/1999/xlink">
    <!-- Generator: Sketch 48.2 (47327) - http://www.bohemiancoding.com/sketch -->
    <title>Group 15</title>
    <desc>Created with Sketch.</desc>
    <defs>
        <filter x="-1.6%" y="-6.2%" width="103.4%" height="116.9%" filterUnits="objectBoundingBox" id="filter-1">
            <feOffset dx="0" dy="1" in="SourceAlpha" result="shadowOffsetOuter1"></feOffset>
            <feGaussianBlur stdDeviation="1.5" in="shadowOffsetOuter1" result="shadowBlurOuter1"></feGaussianBlur>
            <feColorMatrix values="0 0 0 0 0   0 0 0 0 0   0 0 0 0 0  0 0 0 0.12 0" type="matrix" in="shadowBlurOuter1" result="shadowMatrixOuter1"></feColorMatrix>
            <feMerge>
                <feMergeNode in="shadowMatrixOuter1"></feMergeNode>
                <feMergeNode in="SourceGraphic"></feMergeNode>
            </feMerge>
        </filter>
    </defs>
    <g id="CEKUNIFY-Website---Detail---List" stroke="none" stroke-width="1" fill="none" fill-rule="evenodd" transform="translate(-785.000000, -2604.000000)">
        <g id="Group-15" transform="translate(785.000000, 2604.000000)">
            <path d="M20.56,11 L18.224,11 L14.032,0.328 L16.16,0.328 L19.392,8.952 L22.624,0.328 L24.752,0.328 L20.56,11 Z M31.232,11 L29.552,11 L29.552,10.152 C28.976,10.824 28.064,11.192 27.04,11.192 C25.792,11.192 24.368,10.328 24.368,8.632 C24.368,6.84 25.776,6.104 27.04,6.104 C28.096,6.104 28.976,6.44 29.552,7.096 L29.552,5.944 C29.552,5.048 28.8,4.504 27.744,4.504 C26.88,4.504 26.112,4.824 25.456,5.496 L24.752,4.328 C25.648,3.464 26.768,3.08 28,3.08 C29.728,3.08 31.232,3.8 31.232,5.864 L31.232,11 Z M27.712,10.04 C28.432,10.04 29.152,9.768 29.552,9.24 L29.552,8.056 C29.152,7.528 28.432,7.256 27.712,7.256 C26.768,7.256 26.048,7.816 26.048,8.648 C26.048,9.496 26.768,10.04 27.712,10.04 Z M35.088,11 L33.408,11 L33.408,0.328 L35.088,0.328 L35.088,11 Z M44.16,11 L42.48,11 L42.48,9.976 C41.936,10.584 40.976,11.192 39.76,11.192 C38.096,11.192 37.264,10.312 37.264,8.744 L37.264,3.272 L38.944,3.272 L38.944,8.12 C38.944,9.32 39.552,9.704 40.512,9.704 C41.36,9.704 42.096,9.208 42.48,8.696 L42.48,3.272 L44.16,3.272 L44.16,11 Z M49.92,11.192 C47.584,11.192 45.872,9.576 45.872,7.128 C45.872,4.888 47.504,3.08 49.792,3.08 C52.112,3.08 53.584,4.84 53.584,7.272 L53.584,7.688 L47.632,7.688 C47.76,8.84 48.624,9.816 50.08,9.816 C50.848,9.816 51.728,9.512 52.288,8.952 L53.056,10.056 C52.272,10.792 51.136,11.192 49.92,11.192 Z M51.968,6.488 C51.92,5.576 51.296,4.456 49.776,4.456 C48.352,4.456 47.68,5.56 47.616,6.488 L51.968,6.488 Z M59.536,11.32 L58.288,11.32 L62.08,0.008 L63.328,0.008 L59.536,11.32 Z M74.016,11 L71.68,11 L67.488,0.328 L69.616,0.328 L72.848,8.952 L76.08,0.328 L78.208,0.328 L74.016,11 Z M84.688,11 L83.008,11 L83.008,10.152 C82.432,10.824 81.52,11.192 80.496,11.192 C79.248,11.192 77.824,10.328 77.824,8.632 C77.824,6.84 79.232,6.104 80.496,6.104 C81.552,6.104 82.432,6.44 83.008,7.096 L83.008,5.944 C83.008,5.048 82.256,4.504 81.2,4.504 C80.336,4.504 79.568,4.824 78.912,5.496 L78.208,4.328 C79.104,3.464 80.224,3.08 81.456,3.08 C83.184,3.08 84.688,3.8 84.688,5.864 L84.688,11 Z M81.168,10.04 C81.888,10.04 82.608,9.768 83.008,9.24 L83.008,8.056 C82.608,7.528 81.888,7.256 81.168,7.256 C80.224,7.256 79.504,7.816 79.504,8.648 C79.504,9.496 80.224,10.04 81.168,10.04 Z M88.544,11 L86.864,11 L86.864,0.328 L88.544,0.328 L88.544,11 Z M97.616,11 L95.936,11 L95.936,9.976 C95.392,10.584 94.432,11.192 93.216,11.192 C91.552,11.192 90.72,10.312 90.72,8.744 L90.72,3.272 L92.4,3.272 L92.4,8.12 C92.4,9.32 93.008,9.704 93.968,9.704 C94.816,9.704 95.552,9.208 95.936,8.696 L95.936,3.272 L97.616,3.272 L97.616,11 Z M103.376,11.192 C101.04,11.192 99.328,9.576 99.328,7.128 C99.328,4.888 100.96,3.08 103.248,3.08 C105.568,3.08 107.04,4.84 107.04,7.272 L107.04,7.688 L101.088,7.688 C101.216,8.84 102.08,9.816 103.536,9.816 C104.304,9.816 105.184,9.512 105.744,8.952 L106.512,10.056 C105.728,10.792 104.592,11.192 103.376,11.192 Z M105.424,6.488 C105.376,5.576 104.752,4.456 103.232,4.456 C101.808,4.456 101.136,5.56 101.072,6.488 L105.424,6.488 Z M119.312,6.136 L116.352,6.136 L116.352,9.464 L115.168,9.464 L115.168,6.136 L112.208,6.136 L112.208,5.064 L115.168,5.064 L115.168,1.848 L116.352,1.848 L116.352,5.064 L119.312,5.064 L119.312,6.136 Z M126.912,11 L125.04,11 L125.04,0.328 L126.912,0.328 L126.912,11 Z M132.656,11.192 C130.32,11.192 128.672,9.464 128.672,7.128 C128.672,4.792 130.32,3.08 132.656,3.08 C134.176,3.08 135.072,3.72 135.616,4.456 L134.512,5.464 C134.08,4.856 133.488,4.568 132.736,4.568 C131.344,4.568 130.4,5.624 130.4,7.128 C130.4,8.632 131.344,9.704 132.736,9.704 C133.488,9.704 134.08,9.384 134.512,8.776 L135.616,9.816 C135.072,10.536 134.176,11.192 132.656,11.192 Z M140.608,11.192 C138.144,11.192 136.64,9.336 136.64,7.128 C136.64,4.904 138.144,3.08 140.608,3.08 C143.072,3.08 144.576,4.904 144.576,7.128 C144.576,9.336 143.072,11.192 140.608,11.192 Z M140.608,9.704 C142.048,9.704 142.832,8.504 142.832,7.128 C142.832,5.768 142.048,4.568 140.608,4.568 C139.184,4.568 138.384,5.768 138.384,7.128 C138.384,8.504 139.184,9.704 140.608,9.704 Z M153.2,11 L151.52,11 L151.52,6.168 C151.52,4.952 150.896,4.568 149.952,4.568 C149.104,4.568 148.368,5.08 147.968,5.592 L147.968,11 L146.288,11 L146.288,3.272 L147.968,3.272 L147.968,4.312 C148.48,3.704 149.488,3.08 150.704,3.08 C152.368,3.08 153.2,3.976 153.2,5.56 L153.2,11 Z" id="Value-/-Value-+-Icon" fill-opacity="0.38" fill="#000000"></path>
            <g id="List/Single-Line/With-Value-Copy-2" filter="url(#filter-1)" transform="translate(14.000000, 27.000000)">
                <g id="List">
                    <g id="One">
                        <rect id="Cell" fill="#FFFFFF" x="0" y="0" width="322" height="65"></rect>
                        <path d="M20.890625,38.5 L19.6484375,38.5 L19.6484375,28.9609375 L16.3828125,28.9609375 L16.3828125,27.8359375 L24.15625,27.8359375 L24.15625,28.9609375 L20.890625,28.9609375 L20.890625,38.5 Z M27.6844302,38.6328125 C25.5047427,38.6328125 24.2469302,37.21875 24.2469302,35.0703125 L24.2469302,33.7421875 C24.2469302,31.5703125 25.6375552,30.171875 27.5828677,30.171875 C29.5281802,30.171875 30.9188052,31.5703125 30.9188052,33.7421875 L30.9188052,34.7421875 L25.4813052,34.7421875 L25.4813052,35.1640625 C25.4813052,36.4921875 26.2313052,37.546875 27.6766177,37.546875 C28.6766177,37.546875 29.3406802,37.0703125 29.4969302,36.5625 L30.8016177,36.5625 C30.6688052,37.3984375 29.6844302,38.6328125 27.6844302,38.6328125 Z M25.4813052,33.7890625 L29.6844302,33.7890625 L29.6844302,33.640625 C29.6844302,32.203125 28.8484927,31.2578125 27.5828677,31.2578125 C26.3172427,31.2578125 25.4813052,32.203125 25.4813052,33.640625 L25.4813052,33.7890625 Z M37.5641728,38.5 L35.5485478,35.3828125 L35.5016728,35.3828125 L33.4782353,38.5 L32.0797978,38.5 L34.8610478,34.453125 L32.0641728,30.3046875 L33.5485478,30.3046875 L35.5094853,33.4140625 L35.5641728,33.4140625 L37.5876103,30.3046875 L39.0016728,30.3046875 L36.2047978,34.3125 L39.0485478,38.5 L37.5641728,38.5 Z M41.139228,30.3046875 L41.139228,28.2421875 L42.3657905,28.2421875 L42.3657905,30.3046875 L44.2251655,30.3046875 L44.2251655,31.328125 L42.3657905,31.328125 L42.3657905,36.2734375 C42.3657905,37.28125 42.686103,37.53125 43.7251655,37.53125 C43.9126655,37.53125 44.232978,37.5078125 44.357978,37.4921875 L44.357978,38.515625 C44.248603,38.5390625 43.670478,38.578125 43.4126655,38.578125 C41.4907905,38.578125 41.139228,37.8125 41.139228,36.2109375 L41.139228,31.328125 L39.889228,31.328125 L39.889228,30.3046875 L41.139228,30.3046875 Z M57.2424633,31.0546875 L56.0080883,31.0546875 C55.8049633,29.4375 54.6252758,28.7421875 53.3284008,28.7421875 C51.7346508,28.7421875 50.3752758,29.796875 50.3752758,32.3984375 L50.3752758,33.8828125 C50.3752758,36.203125 51.3830883,37.59375 53.2893383,37.59375 C54.8909008,37.59375 56.0549633,36.6015625 56.0549633,35.1875 L56.0549633,34.09375 L53.2112133,34.09375 L53.2112133,32.96875 L57.2737133,32.96875 L57.2737133,35.1875 C57.2737133,36.5390625 56.3127758,38.7265625 53.3127758,38.7265625 C50.5471508,38.7265625 49.1330883,36.875 49.1330883,33.8828125 L49.1330883,32.3984375 C49.1330883,29.34375 50.8362133,27.609375 53.3596508,27.609375 C55.7893383,27.609375 57.1096508,29.21875 57.2424633,31.0546875 Z M62.6534559,30.171875 C64.6300184,30.171875 66.1300184,31.46875 66.1300184,33.75 L66.1300184,35.046875 C66.1300184,37.328125 64.6300184,38.6328125 62.6534559,38.6328125 C60.6378309,38.6328125 59.1690809,37.3515625 59.1690809,35.046875 L59.1690809,33.75 C59.1690809,31.5546875 60.6690809,30.171875 62.6534559,30.171875 Z M62.6612684,31.2578125 C61.2940809,31.2578125 60.3956434,32.3203125 60.3956434,33.890625 L60.3956434,34.921875 C60.3956434,36.53125 61.2393934,37.546875 62.6612684,37.546875 C64.0753309,37.546875 64.9034559,36.53125 64.9034559,34.921875 L64.9034559,33.890625 C64.9034559,32.3203125 64.0362684,31.2578125 62.6612684,31.2578125 Z M71.2441361,38.6328125 C69.0644486,38.6328125 67.8066361,37.21875 67.8066361,35.0703125 L67.8066361,33.7421875 C67.8066361,31.5703125 69.1972611,30.171875 71.1425736,30.171875 C73.0878861,30.171875 74.4785111,31.5703125 74.4785111,33.7421875 L74.4785111,34.7421875 L69.0410111,34.7421875 L69.0410111,35.1640625 C69.0410111,36.4921875 69.7910111,37.546875 71.2363236,37.546875 C72.2363236,37.546875 72.9003861,37.0703125 73.0566361,36.5625 L74.3613236,36.5625 C74.2285111,37.3984375 73.2441361,38.6328125 71.2441361,38.6328125 Z M69.0410111,33.7890625 L73.2441361,33.7890625 L73.2441361,33.640625 C73.2441361,32.203125 72.4081986,31.2578125 71.1425736,31.2578125 C69.8769486,31.2578125 69.0410111,32.203125 69.0410111,33.640625 L69.0410111,33.7890625 Z M76.1004412,32.6328125 C76.1004412,30.921875 77.5379412,30.171875 79.0926287,30.171875 C80.8348162,30.171875 81.9676287,31.1015625 81.9676287,32.4375 L80.8113787,32.4375 C80.7645037,31.8359375 80.2020037,31.1953125 79.0379412,31.1953125 C78.0379412,31.1953125 77.3035662,31.65625 77.3035662,32.5 C77.3035662,33.515625 78.3738787,33.6484375 79.3113787,33.8203125 C80.8504412,34.09375 82.1707537,34.484375 82.1707537,36.1015625 C82.1707537,37.7265625 80.8582537,38.6328125 78.9676287,38.6328125 C77.2176287,38.6328125 75.9598162,37.8515625 75.9598162,36.3828125 L77.1629412,36.3828125 C77.2801287,37.1484375 77.8035662,37.6171875 79.0223162,37.6171875 C80.3973162,37.6171875 80.9598162,37 80.9598162,36.25 C80.9598162,35.296875 80.0613787,35.109375 78.8973162,34.8828125 C77.3582537,34.5625 76.1004412,34.25 76.1004412,32.6328125 Z M95.5005515,38.5 L94.258364,38.5 L94.258364,33.53125 L88.742739,33.53125 L88.742739,38.5 L87.5005515,38.5 L87.5005515,27.8359375 L88.742739,27.8359375 L88.742739,32.40625 L94.258364,32.40625 L94.258364,27.8359375 L95.5005515,27.8359375 L95.5005515,38.5 Z M101.099044,38.6328125 C98.9193567,38.6328125 97.6615442,37.21875 97.6615442,35.0703125 L97.6615442,33.7421875 C97.6615442,31.5703125 99.0521692,30.171875 100.997482,30.171875 C102.942794,30.171875 104.333419,31.5703125 104.333419,33.7421875 L104.333419,34.7421875 L98.8959192,34.7421875 L98.8959192,35.1640625 C98.8959192,36.4921875 99.6459192,37.546875 101.091232,37.546875 C102.091232,37.546875 102.755294,37.0703125 102.911544,36.5625 L104.216232,36.5625 C104.083419,37.3984375 103.099044,38.6328125 101.099044,38.6328125 Z M98.8959192,33.7890625 L103.099044,33.7890625 L103.099044,33.640625 C103.099044,32.203125 102.263107,31.2578125 100.997482,31.2578125 C99.7318567,31.2578125 98.8959192,32.203125 98.8959192,33.640625 L98.8959192,33.7890625 Z M106.510037,38.5 L106.510037,30.3046875 L107.736599,30.3046875 L107.736599,31.5625 L107.799099,31.5625 C108.010037,31.0234375 108.603787,30.1796875 110.095974,30.1796875 C110.244412,30.1796875 110.408474,30.1953125 110.572537,30.2109375 L110.572537,31.3515625 C110.439724,31.328125 110.181912,31.3203125 109.947537,31.3203125 C108.478787,31.3203125 107.736599,32.2109375 107.736599,33.3203125 L107.736599,38.5 L106.510037,38.5 Z M115.163217,38.6328125 C112.983529,38.6328125 111.725717,37.21875 111.725717,35.0703125 L111.725717,33.7421875 C111.725717,31.5703125 113.116342,30.171875 115.061654,30.171875 C117.006967,30.171875 118.397592,31.5703125 118.397592,33.7421875 L118.397592,34.7421875 L112.960092,34.7421875 L112.960092,35.1640625 C112.960092,36.4921875 113.710092,37.546875 115.155404,37.546875 C116.155404,37.546875 116.819467,37.0703125 116.975717,36.5625 L118.280404,36.5625 C118.147592,37.3984375 117.163217,38.6328125 115.163217,38.6328125 Z M112.960092,33.7890625 L117.163217,33.7890625 L117.163217,33.640625 C117.163217,32.203125 116.327279,31.2578125 115.061654,31.2578125 C113.796029,31.2578125 112.960092,32.203125 112.960092,33.640625 L112.960092,33.7890625 Z" id="Label-One" fill-opacity="0.7" fill="#000000"></path>
                        <g id="Group" transform="translate(251.000000, 25.375000)">
                            <path d="M5.8359375,13.125 L4.0625,13.125 L0.3203125,2.4609375 L2.1640625,2.4609375 L4.9375,11.171875 L5.0234375,11.171875 L7.7734375,2.4609375 L9.5859375,2.4609375 L5.8359375,13.125 Z M12.6453677,13.2578125 C11.0516177,13.2578125 9.95005515,12.265625 9.95005515,10.7265625 C9.95005515,9.2734375 10.9578677,8.2890625 12.8563052,8.2890625 L14.9734927,8.2890625 L14.9734927,7.5078125 C14.9734927,6.546875 14.3406802,6.1015625 13.3406802,6.1015625 C12.3484927,6.1015625 11.9188052,6.4921875 11.7703677,7.0390625 L10.2625552,7.0390625 C10.3719302,5.6640625 11.4422427,4.75 13.3875552,4.75 C15.1219302,4.75 16.5516177,5.4765625 16.5516177,7.53125 L16.5516177,13.125 L15.0438052,13.125 L15.0438052,12.0546875 L14.9734927,12.0546875 C14.5906802,12.6875 13.8641177,13.2578125 12.6453677,13.2578125 Z M13.1141177,11.9296875 C14.1609927,11.9296875 14.9734927,11.25 14.9734927,10.328125 L14.9734927,9.4375 L13.0516177,9.4375 C11.9969302,9.4375 11.5438052,9.953125 11.5438052,10.640625 C11.5438052,11.515625 12.2938052,11.9296875 13.1141177,11.9296875 Z M18.8610478,13.125 L18.8610478,1.6640625 L20.4391728,1.6640625 L20.4391728,13.125 L18.8610478,13.125 Z M29.623603,4.875 L29.623603,13.125 L28.0689155,13.125 L28.0689155,11.75 L27.982978,11.75 C27.7564155,12.4140625 26.9907905,13.2578125 25.545478,13.2578125 C23.8970405,13.2578125 22.7407905,12.46875 22.7407905,10.5390625 L22.7407905,4.875 L24.3189155,4.875 L24.3189155,10.09375 C24.3189155,11.4140625 25.107978,11.8125 26.0376655,11.8125 C27.170478,11.8125 28.0532905,11.0078125 28.0532905,9.96875 L28.0532905,4.875 L29.623603,4.875 Z M35.1283456,13.265625 C32.8939706,13.265625 31.5424081,11.8828125 31.5424081,9.5625 L31.5424081,8.4296875 C31.5424081,6.1015625 33.0267831,4.734375 35.0189706,4.734375 C37.0502206,4.734375 38.4955331,6.1640625 38.4955331,8.4296875 L38.4955331,9.40625 L33.1049081,9.40625 L33.1049081,9.8125 C33.1049081,11.0078125 33.8236581,11.8984375 35.1127206,11.8984375 C36.0502206,11.8984375 36.6830331,11.4609375 36.8158456,10.953125 L38.3939706,10.953125 C38.2767831,11.8984375 37.2767831,13.265625 35.1283456,13.265625 Z M33.1049081,8.2890625 L36.9408456,8.2890625 L36.9408456,8.171875 C36.9408456,6.9140625 36.1830331,6.078125 35.0267831,6.078125 C33.8705331,6.078125 33.1049081,6.9140625 33.1049081,8.171875 L33.1049081,8.2890625 Z" id="Label-One" fill="#42B549"></path>
                            <polygon id="Disclosure-Indicator" fill="#BDBDBD" points="47 1.6171875 48.5 0.1171875 55 6.6171875 48.5 13.1171875 47 11.6171875 52 6.6171875"></polygon>
                        </g>
                    </g>
                    <path d="M18,64 L322,64" id="Line" stroke="#E0E0E0" stroke-width="0.5" stroke-linecap="square"></path>
                </g>
            </g>
            <rect id="line" fill="#FF5500" x="361" y="26" width="1" height="25"></rect>
            <rect id="line" fill="#FF5500" x="361" y="69" width="1" height="22"></rect>
            <rect id="start" fill="#FF5500" x="359" y="26" width="5" height="1"></rect>
            <rect id="end" fill="#FF5500" x="359" y="90" width="5" height="1"></rect>
            <text id="Varies" font-family="HelveticaNeue, Helvetica Neue" font-size="12" font-weight="normal" fill="#FF5500">
                <tspan x="345.39" y="63">Varies</tspan>
            </text>
            <g id="#spacing-horizontal-C14F409F-4FD4-410C-AF53-7B0DE2BC8202-873A3629-AF97-4754-AF1B-21D042F08795" transform="translate(287.495533, 30.000000)">
                <rect id="line" fill="#50E3C2" x="16" y="29" width="8.50446689" height="1"></rect>
                <rect id="start" fill="#50E3C2" x="16" y="27" width="1" height="5"></rect>
                <rect id="end" fill="#50E3C2" x="23.5044669" y="27" width="1" height="5"></rect>
                <rect id="box" fill="#50E3C2" x="0" y="0" width="39" height="22" rx="2"></rect>
                <polygon id="arrow" fill="#50E3C2" points="16 22 20 18 24 22 20 26"></polygon>
                <text id="8px" font-family="HelveticaNeue, Helvetica Neue" font-size="12" font-weight="normal" fill="#FFFFFF">
                    <tspan x="9.498" y="15">8px</tspan>
                </text>
            </g>
            <g id="#spacing-left-6098D79C-894C-488F-9A9E-3B87788B053C-39A17AAE-E499-4D53-85C0-BF80D30E4EFE" transform="translate(0.000000, 31.000000)">
                <rect id="line" fill="#50E3C2" x="14" y="29" width="16.3828125" height="1"></rect>
                <rect id="start" fill="#50E3C2" x="14" y="27" width="1" height="5"></rect>
                <rect id="end" fill="#50E3C2" x="29.3828125" y="27" width="1" height="5"></rect>
                <rect id="box" fill="#50E3C2" x="0" y="0" width="45" height="22" rx="2"></rect>
                <polygon id="arrow" fill="#50E3C2" points="19 22 23 18 27 22 23 26"></polygon>
                <text id="16px" font-family="HelveticaNeue, Helvetica Neue" font-size="12" font-weight="normal" fill="#FFFFFF">
                    <tspan x="9.162" y="15">16px</tspan>
                </text>
            </g>
            <g id="#spacing-top-6098D79C-894C-488F-9A9E-3B87788B053C-39A17AAE-E499-4D53-85C0-BF80D30E4EFE" transform="translate(79.000000, 27.000000)">
                <rect id="line" fill="#50E3C2" x="2" y="0" width="1" height="27.609375"></rect>
                <rect id="start" fill="#50E3C2" x="0" y="0" width="5" height="1"></rect>
                <rect id="end" fill="#50E3C2" x="0" y="26.609375" width="5" height="1"></rect>
                <rect id="box" fill="#50E3C2" x="9" y="3" width="45" height="22" rx="2"></rect>
                <polygon id="arrow" fill="#50E3C2" points="5 14 9 10 13 14 9 18"></polygon>
                <text id="24px" font-family="HelveticaNeue, Helvetica Neue" font-size="12" font-weight="normal" fill="#FFFFFF">
                    <tspan x="18.162" y="18">24px</tspan>
                </text>
            </g>
            <g id="#spacing-bottom-6098D79C-894C-488F-9A9E-3B87788B053C-39A17AAE-E499-4D53-85C0-BF80D30E4EFE" transform="translate(79.000000, 65.726562)">
                <rect id="line" fill="#50E3C2" x="2" y="0" width="1" height="26.2734375"></rect>
                <rect id="start" fill="#50E3C2" x="0" y="0" width="5" height="1"></rect>
                <rect id="end" fill="#50E3C2" x="0" y="25.2734375" width="5" height="1"></rect>
                <rect id="box" fill="#50E3C2" x="8" y="2" width="45" height="22" rx="2"></rect>
                <polygon id="arrow" fill="#50E3C2" points="4 13 8 9 12 13 8 17"></polygon>
                <text id="24px" font-family="HelveticaNeue, Helvetica Neue" font-size="12" font-weight="normal" fill="#FFFFFF">
                    <tspan x="17.162" y="17">24px</tspan>
                </text>
            </g>
            <g id="#spacing-right-C14F409F-4FD4-410C-AF53-7B0DE2BC8202-39A17AAE-E499-4D53-85C0-BF80D30E4EFE" transform="translate(311.000000, 57.000000)">
                <rect id="line" fill="#50E3C2" x="9" y="2" width="16" height="1"></rect>
                <rect id="start" fill="#50E3C2" x="9" y="0" width="1" height="5"></rect>
                <rect id="end" fill="#50E3C2" x="24" y="0" width="1" height="5"></rect>
                <rect id="box" fill="#50E3C2" x="0" y="11" width="35" height="22" rx="2"></rect>
                <polygon id="arrow" fill="#50E3C2" points="14 11 18 7 22 11 18 15"></polygon>
                <text id="Text" font-family="HelveticaNeue, Helvetica Neue" font-size="12" font-weight="normal" fill="#FFFFFF">
                    <tspan x="4.162" y="26">16px</tspan>
                </text>
            </g>
        </g>
    </g>
</svg>