<?xml version="1.0" encoding="UTF-8"?>
<svg width="336px" height="602px" viewBox="0 0 336 602" version="1.1" xmlns="http://www.w3.org/2000/svg" xmlns:xlink="http://www.w3.org/1999/xlink">
    <!-- Generator: Sketch 48.2 (47327) - http://www.bohemiancoding.com/sketch -->
    <title>Group 11</title>
    <desc>Created with Sketch.</desc>
    <defs>
        <filter x="-3.9%" y="-2.4%" width="107.8%" height="103.7%" filterUnits="objectBoundingBox" id="filter-1">
            <feOffset dx="0" dy="1" in="SourceAlpha" result="shadowOffsetOuter1"></feOffset>
            <feGaussianBlur stdDeviation="2" in="shadowOffsetOuter1" result="shadowBlurOuter1"></feGaussianBlur>
            <feColorMatrix values="0 0 0 0 0   0 0 0 0 0   0 0 0 0 0  0 0 0 0.12 0" type="matrix" in="shadowBlurOuter1" result="shadowMatrixOuter1"></feColorMatrix>
            <feMerge>
                <feMergeNode in="shadowMatrixOuter1"></feMergeNode>
                <feMergeNode in="SourceGraphic"></feMergeNode>
            </feMerge>
        </filter>
        <rect id="path-2" x="0" y="0" width="320" height="72"></rect>
        <filter x="-3.4%" y="-16.7%" width="106.9%" height="130.6%" filterUnits="objectBoundingBox" id="filter-3">
            <feOffset dx="0" dy="-1" in="SourceAlpha" result="shadowOffsetOuter1"></feOffset>
            <feGaussianBlur stdDeviation="3.5" in="shadowOffsetOuter1" result="shadowBlurOuter1"></feGaussianBlur>
            <feColorMatrix values="0 0 0 0 0   0 0 0 0 0   0 0 0 0 0  0 0 0 0.15 0" type="matrix" in="shadowBlurOuter1"></feColorMatrix>
        </filter>
    </defs>
    <g id="CEKUNIFY-Website---Detail---List" stroke="none" stroke-width="1" fill="none" fill-rule="evenodd" transform="translate(-792.000000, -1100.000000)">
        <g id="Content" transform="translate(322.000000, 208.000000)">
            <g id="Group-11" transform="translate(477.000000, 892.000000)">
                <path d="M6.56,11 L4.224,11 L0.032,0.328 L2.16,0.328 L5.392,8.952 L8.624,0.328 L10.752,0.328 L6.56,11 Z M17.232,11 L15.552,11 L15.552,10.152 C14.976,10.824 14.064,11.192 13.04,11.192 C11.792,11.192 10.368,10.328 10.368,8.632 C10.368,6.84 11.776,6.104 13.04,6.104 C14.096,6.104 14.976,6.44 15.552,7.096 L15.552,5.944 C15.552,5.048 14.8,4.504 13.744,4.504 C12.88,4.504 12.112,4.824 11.456,5.496 L10.752,4.328 C11.648,3.464 12.768,3.08 14,3.08 C15.728,3.08 17.232,3.8 17.232,5.864 L17.232,11 Z M13.712,10.04 C14.432,10.04 15.152,9.768 15.552,9.24 L15.552,8.056 C15.152,7.528 14.432,7.256 13.712,7.256 C12.768,7.256 12.048,7.816 12.048,8.648 C12.048,9.496 12.768,10.04 13.712,10.04 Z M21.088,11 L19.408,11 L19.408,0.328 L21.088,0.328 L21.088,11 Z M30.16,11 L28.48,11 L28.48,9.976 C27.936,10.584 26.976,11.192 25.76,11.192 C24.096,11.192 23.264,10.312 23.264,8.744 L23.264,3.272 L24.944,3.272 L24.944,8.12 C24.944,9.32 25.552,9.704 26.512,9.704 C27.36,9.704 28.096,9.208 28.48,8.696 L28.48,3.272 L30.16,3.272 L30.16,11 Z M35.92,11.192 C33.584,11.192 31.872,9.576 31.872,7.128 C31.872,4.888 33.504,3.08 35.792,3.08 C38.112,3.08 39.584,4.84 39.584,7.272 L39.584,7.688 L33.632,7.688 C33.76,8.84 34.624,9.816 36.08,9.816 C36.848,9.816 37.728,9.512 38.288,8.952 L39.056,10.056 C38.272,10.792 37.136,11.192 35.92,11.192 Z M37.968,6.488 C37.92,5.576 37.296,4.456 35.776,4.456 C34.352,4.456 33.68,5.56 33.616,6.488 L37.968,6.488 Z M45.536,11.32 L44.288,11.32 L48.08,0.008 L49.328,0.008 L45.536,11.32 Z M60.016,11 L57.68,11 L53.488,0.328 L55.616,0.328 L58.848,8.952 L62.08,0.328 L64.208,0.328 L60.016,11 Z M70.688,11 L69.008,11 L69.008,10.152 C68.432,10.824 67.52,11.192 66.496,11.192 C65.248,11.192 63.824,10.328 63.824,8.632 C63.824,6.84 65.232,6.104 66.496,6.104 C67.552,6.104 68.432,6.44 69.008,7.096 L69.008,5.944 C69.008,5.048 68.256,4.504 67.2,4.504 C66.336,4.504 65.568,4.824 64.912,5.496 L64.208,4.328 C65.104,3.464 66.224,3.08 67.456,3.08 C69.184,3.08 70.688,3.8 70.688,5.864 L70.688,11 Z M67.168,10.04 C67.888,10.04 68.608,9.768 69.008,9.24 L69.008,8.056 C68.608,7.528 67.888,7.256 67.168,7.256 C66.224,7.256 65.504,7.816 65.504,8.648 C65.504,9.496 66.224,10.04 67.168,10.04 Z M74.544,11 L72.864,11 L72.864,0.328 L74.544,0.328 L74.544,11 Z M83.616,11 L81.936,11 L81.936,9.976 C81.392,10.584 80.432,11.192 79.216,11.192 C77.552,11.192 76.72,10.312 76.72,8.744 L76.72,3.272 L78.4,3.272 L78.4,8.12 C78.4,9.32 79.008,9.704 79.968,9.704 C80.816,9.704 81.552,9.208 81.936,8.696 L81.936,3.272 L83.616,3.272 L83.616,11 Z M89.376,11.192 C87.04,11.192 85.328,9.576 85.328,7.128 C85.328,4.888 86.96,3.08 89.248,3.08 C91.568,3.08 93.04,4.84 93.04,7.272 L93.04,7.688 L87.088,7.688 C87.216,8.84 88.08,9.816 89.536,9.816 C90.304,9.816 91.184,9.512 91.744,8.952 L92.512,10.056 C91.728,10.792 90.592,11.192 89.376,11.192 Z M91.424,6.488 C91.376,5.576 90.752,4.456 89.232,4.456 C87.808,4.456 87.136,5.56 87.072,6.488 L91.424,6.488 Z M105.312,6.136 L102.352,6.136 L102.352,9.464 L101.168,9.464 L101.168,6.136 L98.208,6.136 L98.208,5.064 L101.168,5.064 L101.168,1.848 L102.352,1.848 L102.352,5.064 L105.312,5.064 L105.312,6.136 Z M112.912,11 L111.04,11 L111.04,0.328 L112.912,0.328 L112.912,11 Z M118.656,11.192 C116.32,11.192 114.672,9.464 114.672,7.128 C114.672,4.792 116.32,3.08 118.656,3.08 C120.176,3.08 121.072,3.72 121.616,4.456 L120.512,5.464 C120.08,4.856 119.488,4.568 118.736,4.568 C117.344,4.568 116.4,5.624 116.4,7.128 C116.4,8.632 117.344,9.704 118.736,9.704 C119.488,9.704 120.08,9.384 120.512,8.776 L121.616,9.816 C121.072,10.536 120.176,11.192 118.656,11.192 Z M126.608,11.192 C124.144,11.192 122.64,9.336 122.64,7.128 C122.64,4.904 124.144,3.08 126.608,3.08 C129.072,3.08 130.576,4.904 130.576,7.128 C130.576,9.336 129.072,11.192 126.608,11.192 Z M126.608,9.704 C128.048,9.704 128.832,8.504 128.832,7.128 C128.832,5.768 128.048,4.568 126.608,4.568 C125.184,4.568 124.384,5.768 124.384,7.128 C124.384,8.504 125.184,9.704 126.608,9.704 Z M139.2,11 L137.52,11 L137.52,6.168 C137.52,4.952 136.896,4.568 135.952,4.568 C135.104,4.568 134.368,5.08 133.968,5.592 L133.968,11 L132.288,11 L132.288,3.272 L133.968,3.272 L133.968,4.312 C134.48,3.704 135.488,3.08 136.704,3.08 C138.368,3.08 139.2,3.976 139.2,5.56 L139.2,11 Z" id="Value-/-Value-+-Icon" fill-opacity="0.38" fill="#000000"></path>
                <g id="Group" filter="url(#filter-1)" transform="translate(0.000000, 29.000000)">
                    <rect id="Rectangle-10" fill="#FFFFFF" x="1" y="0" width="320" height="568"></rect>
                    <g id="Navigation-Bar/iOS/Single-Line" transform="translate(1.000000, 0.000000)">
                        <g id="Header-nav" stroke-width="1">
                            <g id="Rectangle-2">
                                <use fill="black" fill-opacity="1" filter="url(#filter-3)" xlink:href="#path-2"></use>
                                <use fill="#FFFFFF" fill-rule="evenodd" xlink:href="#path-2"></use>
                            </g>
                            <g id="Icon/iOS/Back-Button" transform="translate(16.000000, 39.000000)" fill="#DBDBDB">
                                <polygon id="Page-1" points="8.85 0 0 8.52091081 8.719 17 10.735 14.9526861 4.034 8.43532239 11 2.09108073"></polygon>
                            </g>
                            <g id="Status-Bar/White/100%" transform="translate(6.000000, 5.000000)">
                                <path d="M141.900391,10.6933594 C140.464844,10.6933594 139.398438,9.84375 139.128906,8.484375 L140.212891,8.484375 C140.441406,9.27539062 141.080078,9.75585938 141.912109,9.75585938 C143.289062,9.75585938 144.068359,8.53710938 144.126953,6.28710938 L144.033203,6.28710938 C143.617188,7.10742188 142.791016,7.58789062 141.783203,7.58789062 C140.171875,7.58789062 139.005859,6.3984375 139.005859,4.7578125 C139.005859,3.05859375 140.236328,1.84570312 141.970703,1.84570312 C143.236328,1.84570312 144.214844,2.51953125 144.742188,3.76757812 C145.017578,4.41210938 145.152344,5.19140625 145.152344,6.12304688 C145.152344,9.02929688 143.96875,10.6933594 141.900391,10.6933594 Z M141.970703,6.67382812 C143.089844,6.67382812 143.892578,5.87695312 143.892578,4.7578125 C143.892578,3.62695312 143.066406,2.77148438 141.982422,2.77148438 C140.898438,2.77148438 140.072266,3.61523438 140.072266,4.72265625 C140.072266,5.87695312 140.851562,6.67382812 141.970703,6.67382812 Z M147.683594,9.53320312 C148.105469,9.53320312 148.445312,9.1875 148.445312,8.77148438 C148.445312,8.34960938 148.105469,8.00976562 147.683594,8.00976562 C147.267578,8.00976562 146.921875,8.34960938 146.921875,8.77148438 C146.921875,9.1875 147.267578,9.53320312 147.683594,9.53320312 Z M147.683594,5.02734375 C148.105469,5.02734375 148.445312,4.68164062 148.445312,4.265625 C148.445312,3.84375 148.105469,3.50390625 147.683594,3.50390625 C147.267578,3.50390625 146.921875,3.84375 146.921875,4.265625 C146.921875,4.68164062 147.267578,5.02734375 147.683594,5.02734375 Z M154.269531,10.5 L154.269531,8.74804688 L150.150391,8.74804688 L150.150391,7.78710938 C150.90625,6.4453125 152.248047,4.32421875 153.771484,2.04492188 L155.300781,2.04492188 L155.300781,7.8046875 L156.501953,7.8046875 L156.501953,8.74804688 L155.300781,8.74804688 L155.300781,10.5 L154.269531,10.5 Z M151.228516,7.74023438 L151.228516,7.81054688 L154.275391,7.81054688 L154.275391,3.0234375 L154.205078,3.0234375 C153.337891,4.28320312 152.236328,6.02929688 151.228516,7.74023438 Z M160.152344,10.5 L161.207031,10.5 L161.207031,2.04492188 L160.158203,2.04492188 L157.908203,3.66210938 L157.908203,4.77539062 L160.058594,3.21679688 L160.152344,3.21679688 L160.152344,10.5 Z M172.744141,10.5 L171.894531,8.08007812 L168.53125,8.08007812 L167.681641,10.5 L166.574219,10.5 L169.691406,2.04492188 L170.734375,2.04492188 L173.851562,10.5 L172.744141,10.5 Z M170.166016,3.41015625 L168.841797,7.18359375 L171.583984,7.18359375 L170.259766,3.41015625 L170.166016,3.41015625 Z M176.318359,10.5 L176.318359,4.04296875 L176.388672,4.04296875 L179.054688,10.4414062 L179.945312,10.4414062 L182.611328,4.04296875 L182.681641,4.04296875 L182.681641,10.5 L183.666016,10.5 L183.666016,2.04492188 L182.441406,2.04492188 L179.546875,9.04101562 L179.453125,9.04101562 L176.558594,2.04492188 L175.333984,2.04492188 L175.333984,10.5 L176.318359,10.5 Z" id="9:41-AM" fill="#FFFFFF"></path>
                                <g id="Pin-Right" transform="translate(251.000000, 0.000000)" fill="#DBDBDB">
                                    <path d="M34.4937128,0.5 L54.0062872,0.5 C54.8266197,0.5 55.5,1.17394722 55.5,2.00530324 L55.5,8.49469676 C55.5,9.33197845 54.831242,10 54.0062872,10 L34.4937128,10 C33.6733803,10 33,9.32605278 33,8.49469676 L33,2.00530324 C33,1.16802155 33.668758,0.5 34.4937128,0.5 Z M56,3.5 L56.75,3.5 C57.1671014,3.5 57.5,3.83232111 57.5,4.24225998 L57.5,6.25774002 C57.5,6.66440529 57.1642136,7 56.75,7 L56,7 L56,3.5 Z M34.5081524,1 C33.9513652,1 33.5,1.45699692 33.5,2.00844055 L33.5,8.49155945 C33.5,9.04850578 33.9490581,9.5 34.5081524,9.5 L53.9918476,9.5 C54.5486348,9.5 55,9.04300308 55,8.49155945 L55,2.00844055 C55,1.45149422 54.5509419,1 53.9918476,1 L34.5081524,1 Z M34.5067444,1.5 L53.9932556,1.5 C54.2697754,1.5 54.5,1.72031886 54.5,1.99209595 L54.5,8.50790405 C54.5,8.78362799 54.2731228,9 53.9932556,9 L34.5067444,9 C34.2302246,9 34,8.77968114 34,8.50790405 L34,1.99209595 C34,1.71637201 34.2268772,1.5 34.5067444,1.5 Z" id="Battery"></path>
                                </g>
                                <g id="Signal" fill="#DBDBDB">
                                    <path d="M3.25,8 C1.73121694,8 0.5,6.76878306 0.5,5.25 C0.5,3.73121694 1.73121694,2.5 3.25,2.5 C4.76878306,2.5 6,3.73121694 6,5.25 C6,6.76878306 4.76878306,8 3.25,8 Z M10.25,8 C8.73121694,8 7.5,6.76878306 7.5,5.25 C7.5,3.73121694 8.73121694,2.5 10.25,2.5 C11.7687831,2.5 13,3.73121694 13,5.25 C13,6.76878306 11.7687831,8 10.25,8 Z M17.25,8 C15.7312169,8 14.5,6.76878306 14.5,5.25 C14.5,3.73121694 15.7312169,2.5 17.25,2.5 C18.7687831,2.5 20,3.73121694 20,5.25 C20,6.76878306 18.7687831,8 17.25,8 Z M24.25,8 C22.7312169,8 21.5,6.76878306 21.5,5.25 C21.5,3.73121694 22.7312169,2.5 24.25,2.5 C25.7687831,2.5 27,3.73121694 27,5.25 C27,6.76878306 25.7687831,8 24.25,8 Z M31.25,8 C29.7312169,8 28.5,6.76878306 28.5,5.25 C28.5,3.73121694 29.7312169,2.5 31.25,2.5 C32.7687831,2.5 34,3.73121694 34,5.25 C34,6.76878306 32.7687831,8 31.25,8 Z" id="Mobile-Signal"></path>
                                </g>
                            </g>
                        </g>
                        <rect id="Rectangle-8-Copy" fill="#DBDBDB" x="52.433518" y="43.2507278" width="132" height="6" rx="3"></rect>
                    </g>
                    <path d="M24.5,105.5 L158,105.5" id="Line-3" stroke="#DBDBDB" stroke-width="16" stroke-linecap="round"></path>
                    <path d="M20.5,132.5 L238.005172,132.5" id="Line-3" stroke="#DBDBDB" stroke-width="8" stroke-linecap="round"></path>
                    <path d="M20.5,170.5 L133.01,170.5" id="Line-3" stroke="#DBDBDB" stroke-width="8" stroke-linecap="round"></path>
                    <path d="M20.5,151.5 L286.000471,151.5" id="Line-3" stroke="#DBDBDB" stroke-width="8" stroke-linecap="round"></path>
                    <g id="List" transform="translate(0.000000, 335.000000)">
                        <g id="One">
                            <rect id="Cell" fill="#FFFFFF" x="0" y="0" width="322" height="65"></rect>
                            <path d="M20.890625,38.5 L19.6484375,38.5 L19.6484375,28.9609375 L16.3828125,28.9609375 L16.3828125,27.8359375 L24.15625,27.8359375 L24.15625,28.9609375 L20.890625,28.9609375 L20.890625,38.5 Z M27.6844302,38.6328125 C25.5047427,38.6328125 24.2469302,37.21875 24.2469302,35.0703125 L24.2469302,33.7421875 C24.2469302,31.5703125 25.6375552,30.171875 27.5828677,30.171875 C29.5281802,30.171875 30.9188052,31.5703125 30.9188052,33.7421875 L30.9188052,34.7421875 L25.4813052,34.7421875 L25.4813052,35.1640625 C25.4813052,36.4921875 26.2313052,37.546875 27.6766177,37.546875 C28.6766177,37.546875 29.3406802,37.0703125 29.4969302,36.5625 L30.8016177,36.5625 C30.6688052,37.3984375 29.6844302,38.6328125 27.6844302,38.6328125 Z M25.4813052,33.7890625 L29.6844302,33.7890625 L29.6844302,33.640625 C29.6844302,32.203125 28.8484927,31.2578125 27.5828677,31.2578125 C26.3172427,31.2578125 25.4813052,32.203125 25.4813052,33.640625 L25.4813052,33.7890625 Z M37.5641728,38.5 L35.5485478,35.3828125 L35.5016728,35.3828125 L33.4782353,38.5 L32.0797978,38.5 L34.8610478,34.453125 L32.0641728,30.3046875 L33.5485478,30.3046875 L35.5094853,33.4140625 L35.5641728,33.4140625 L37.5876103,30.3046875 L39.0016728,30.3046875 L36.2047978,34.3125 L39.0485478,38.5 L37.5641728,38.5 Z M41.139228,30.3046875 L41.139228,28.2421875 L42.3657905,28.2421875 L42.3657905,30.3046875 L44.2251655,30.3046875 L44.2251655,31.328125 L42.3657905,31.328125 L42.3657905,36.2734375 C42.3657905,37.28125 42.686103,37.53125 43.7251655,37.53125 C43.9126655,37.53125 44.232978,37.5078125 44.357978,37.4921875 L44.357978,38.515625 C44.248603,38.5390625 43.670478,38.578125 43.4126655,38.578125 C41.4907905,38.578125 41.139228,37.8125 41.139228,36.2109375 L41.139228,31.328125 L39.889228,31.328125 L39.889228,30.3046875 L41.139228,30.3046875 Z M57.2424633,31.0546875 L56.0080883,31.0546875 C55.8049633,29.4375 54.6252758,28.7421875 53.3284008,28.7421875 C51.7346508,28.7421875 50.3752758,29.796875 50.3752758,32.3984375 L50.3752758,33.8828125 C50.3752758,36.203125 51.3830883,37.59375 53.2893383,37.59375 C54.8909008,37.59375 56.0549633,36.6015625 56.0549633,35.1875 L56.0549633,34.09375 L53.2112133,34.09375 L53.2112133,32.96875 L57.2737133,32.96875 L57.2737133,35.1875 C57.2737133,36.5390625 56.3127758,38.7265625 53.3127758,38.7265625 C50.5471508,38.7265625 49.1330883,36.875 49.1330883,33.8828125 L49.1330883,32.3984375 C49.1330883,29.34375 50.8362133,27.609375 53.3596508,27.609375 C55.7893383,27.609375 57.1096508,29.21875 57.2424633,31.0546875 Z M62.6534559,30.171875 C64.6300184,30.171875 66.1300184,31.46875 66.1300184,33.75 L66.1300184,35.046875 C66.1300184,37.328125 64.6300184,38.6328125 62.6534559,38.6328125 C60.6378309,38.6328125 59.1690809,37.3515625 59.1690809,35.046875 L59.1690809,33.75 C59.1690809,31.5546875 60.6690809,30.171875 62.6534559,30.171875 Z M62.6612684,31.2578125 C61.2940809,31.2578125 60.3956434,32.3203125 60.3956434,33.890625 L60.3956434,34.921875 C60.3956434,36.53125 61.2393934,37.546875 62.6612684,37.546875 C64.0753309,37.546875 64.9034559,36.53125 64.9034559,34.921875 L64.9034559,33.890625 C64.9034559,32.3203125 64.0362684,31.2578125 62.6612684,31.2578125 Z M71.2441361,38.6328125 C69.0644486,38.6328125 67.8066361,37.21875 67.8066361,35.0703125 L67.8066361,33.7421875 C67.8066361,31.5703125 69.1972611,30.171875 71.1425736,30.171875 C73.0878861,30.171875 74.4785111,31.5703125 74.4785111,33.7421875 L74.4785111,34.7421875 L69.0410111,34.7421875 L69.0410111,35.1640625 C69.0410111,36.4921875 69.7910111,37.546875 71.2363236,37.546875 C72.2363236,37.546875 72.9003861,37.0703125 73.0566361,36.5625 L74.3613236,36.5625 C74.2285111,37.3984375 73.2441361,38.6328125 71.2441361,38.6328125 Z M69.0410111,33.7890625 L73.2441361,33.7890625 L73.2441361,33.640625 C73.2441361,32.203125 72.4081986,31.2578125 71.1425736,31.2578125 C69.8769486,31.2578125 69.0410111,32.203125 69.0410111,33.640625 L69.0410111,33.7890625 Z M76.1004412,32.6328125 C76.1004412,30.921875 77.5379412,30.171875 79.0926287,30.171875 C80.8348162,30.171875 81.9676287,31.1015625 81.9676287,32.4375 L80.8113787,32.4375 C80.7645037,31.8359375 80.2020037,31.1953125 79.0379412,31.1953125 C78.0379412,31.1953125 77.3035662,31.65625 77.3035662,32.5 C77.3035662,33.515625 78.3738787,33.6484375 79.3113787,33.8203125 C80.8504412,34.09375 82.1707537,34.484375 82.1707537,36.1015625 C82.1707537,37.7265625 80.8582537,38.6328125 78.9676287,38.6328125 C77.2176287,38.6328125 75.9598162,37.8515625 75.9598162,36.3828125 L77.1629412,36.3828125 C77.2801287,37.1484375 77.8035662,37.6171875 79.0223162,37.6171875 C80.3973162,37.6171875 80.9598162,37 80.9598162,36.25 C80.9598162,35.296875 80.0613787,35.109375 78.8973162,34.8828125 C77.3582537,34.5625 76.1004412,34.25 76.1004412,32.6328125 Z M95.5005515,38.5 L94.258364,38.5 L94.258364,33.53125 L88.742739,33.53125 L88.742739,38.5 L87.5005515,38.5 L87.5005515,27.8359375 L88.742739,27.8359375 L88.742739,32.40625 L94.258364,32.40625 L94.258364,27.8359375 L95.5005515,27.8359375 L95.5005515,38.5 Z M101.099044,38.6328125 C98.9193567,38.6328125 97.6615442,37.21875 97.6615442,35.0703125 L97.6615442,33.7421875 C97.6615442,31.5703125 99.0521692,30.171875 100.997482,30.171875 C102.942794,30.171875 104.333419,31.5703125 104.333419,33.7421875 L104.333419,34.7421875 L98.8959192,34.7421875 L98.8959192,35.1640625 C98.8959192,36.4921875 99.6459192,37.546875 101.091232,37.546875 C102.091232,37.546875 102.755294,37.0703125 102.911544,36.5625 L104.216232,36.5625 C104.083419,37.3984375 103.099044,38.6328125 101.099044,38.6328125 Z M98.8959192,33.7890625 L103.099044,33.7890625 L103.099044,33.640625 C103.099044,32.203125 102.263107,31.2578125 100.997482,31.2578125 C99.7318567,31.2578125 98.8959192,32.203125 98.8959192,33.640625 L98.8959192,33.7890625 Z M106.510037,38.5 L106.510037,30.3046875 L107.736599,30.3046875 L107.736599,31.5625 L107.799099,31.5625 C108.010037,31.0234375 108.603787,30.1796875 110.095974,30.1796875 C110.244412,30.1796875 110.408474,30.1953125 110.572537,30.2109375 L110.572537,31.3515625 C110.439724,31.328125 110.181912,31.3203125 109.947537,31.3203125 C108.478787,31.3203125 107.736599,32.2109375 107.736599,33.3203125 L107.736599,38.5 L106.510037,38.5 Z M115.163217,38.6328125 C112.983529,38.6328125 111.725717,37.21875 111.725717,35.0703125 L111.725717,33.7421875 C111.725717,31.5703125 113.116342,30.171875 115.061654,30.171875 C117.006967,30.171875 118.397592,31.5703125 118.397592,33.7421875 L118.397592,34.7421875 L112.960092,34.7421875 L112.960092,35.1640625 C112.960092,36.4921875 113.710092,37.546875 115.155404,37.546875 C116.155404,37.546875 116.819467,37.0703125 116.975717,36.5625 L118.280404,36.5625 C118.147592,37.3984375 117.163217,38.6328125 115.163217,38.6328125 Z M112.960092,33.7890625 L117.163217,33.7890625 L117.163217,33.640625 C117.163217,32.203125 116.327279,31.2578125 115.061654,31.2578125 C113.796029,31.2578125 112.960092,32.203125 112.960092,33.640625 L112.960092,33.7890625 Z" id="Label-One" fill-opacity="0.7" fill="#000000"></path>
                            <g id="Group" transform="translate(250.000000, 24.375000)">
                                <path d="M5.8359375,14.125 L4.0625,14.125 L0.3203125,3.4609375 L2.1640625,3.4609375 L4.9375,12.171875 L5.0234375,12.171875 L7.7734375,3.4609375 L9.5859375,3.4609375 L5.8359375,14.125 Z M12.6453677,14.2578125 C11.0516177,14.2578125 9.95005515,13.265625 9.95005515,11.7265625 C9.95005515,10.2734375 10.9578677,9.2890625 12.8563052,9.2890625 L14.9734927,9.2890625 L14.9734927,8.5078125 C14.9734927,7.546875 14.3406802,7.1015625 13.3406802,7.1015625 C12.3484927,7.1015625 11.9188052,7.4921875 11.7703677,8.0390625 L10.2625552,8.0390625 C10.3719302,6.6640625 11.4422427,5.75 13.3875552,5.75 C15.1219302,5.75 16.5516177,6.4765625 16.5516177,8.53125 L16.5516177,14.125 L15.0438052,14.125 L15.0438052,13.0546875 L14.9734927,13.0546875 C14.5906802,13.6875 13.8641177,14.2578125 12.6453677,14.2578125 Z M13.1141177,12.9296875 C14.1609927,12.9296875 14.9734927,12.25 14.9734927,11.328125 L14.9734927,10.4375 L13.0516177,10.4375 C11.9969302,10.4375 11.5438052,10.953125 11.5438052,11.640625 C11.5438052,12.515625 12.2938052,12.9296875 13.1141177,12.9296875 Z M18.8610478,14.125 L18.8610478,2.6640625 L20.4391728,2.6640625 L20.4391728,14.125 L18.8610478,14.125 Z M29.623603,5.875 L29.623603,14.125 L28.0689155,14.125 L28.0689155,12.75 L27.982978,12.75 C27.7564155,13.4140625 26.9907905,14.2578125 25.545478,14.2578125 C23.8970405,14.2578125 22.7407905,13.46875 22.7407905,11.5390625 L22.7407905,5.875 L24.3189155,5.875 L24.3189155,11.09375 C24.3189155,12.4140625 25.107978,12.8125 26.0376655,12.8125 C27.170478,12.8125 28.0532905,12.0078125 28.0532905,10.96875 L28.0532905,5.875 L29.623603,5.875 Z M35.1283456,14.265625 C32.8939706,14.265625 31.5424081,12.8828125 31.5424081,10.5625 L31.5424081,9.4296875 C31.5424081,7.1015625 33.0267831,5.734375 35.0189706,5.734375 C37.0502206,5.734375 38.4955331,7.1640625 38.4955331,9.4296875 L38.4955331,10.40625 L33.1049081,10.40625 L33.1049081,10.8125 C33.1049081,12.0078125 33.8236581,12.8984375 35.1127206,12.8984375 C36.0502206,12.8984375 36.6830331,12.4609375 36.8158456,11.953125 L38.3939706,11.953125 C38.2767831,12.8984375 37.2767831,14.265625 35.1283456,14.265625 Z M33.1049081,9.2890625 L36.9408456,9.2890625 L36.9408456,9.171875 C36.9408456,7.9140625 36.1830331,7.078125 35.0267831,7.078125 C33.8705331,7.078125 33.1049081,7.9140625 33.1049081,9.171875 L33.1049081,9.2890625 Z" id="Label-One" fill="#42B549"></path>
                                <polygon id="Disclosure-Indicator" fill="#BDBDBD" points="48 2.6171875 49.5 1.1171875 56 7.6171875 49.5 14.1171875 48 12.6171875 53 7.6171875"></polygon>
                            </g>
                        </g>
                        <path d="M18,64 L322,64" id="Line" stroke="#E0E0E0" stroke-width="0.5" stroke-linecap="square"></path>
                    </g>
                    <g id="List" transform="translate(0.000000, 400.000000)">
                        <g id="One">
                            <rect id="Cell" fill="#FFFFFF" x="0" y="0" width="322" height="65"></rect>
                            <path d="M20.890625,38.5 L19.6484375,38.5 L19.6484375,28.9609375 L16.3828125,28.9609375 L16.3828125,27.8359375 L24.15625,27.8359375 L24.15625,28.9609375 L20.890625,28.9609375 L20.890625,38.5 Z M27.6844302,38.6328125 C25.5047427,38.6328125 24.2469302,37.21875 24.2469302,35.0703125 L24.2469302,33.7421875 C24.2469302,31.5703125 25.6375552,30.171875 27.5828677,30.171875 C29.5281802,30.171875 30.9188052,31.5703125 30.9188052,33.7421875 L30.9188052,34.7421875 L25.4813052,34.7421875 L25.4813052,35.1640625 C25.4813052,36.4921875 26.2313052,37.546875 27.6766177,37.546875 C28.6766177,37.546875 29.3406802,37.0703125 29.4969302,36.5625 L30.8016177,36.5625 C30.6688052,37.3984375 29.6844302,38.6328125 27.6844302,38.6328125 Z M25.4813052,33.7890625 L29.6844302,33.7890625 L29.6844302,33.640625 C29.6844302,32.203125 28.8484927,31.2578125 27.5828677,31.2578125 C26.3172427,31.2578125 25.4813052,32.203125 25.4813052,33.640625 L25.4813052,33.7890625 Z M37.5641728,38.5 L35.5485478,35.3828125 L35.5016728,35.3828125 L33.4782353,38.5 L32.0797978,38.5 L34.8610478,34.453125 L32.0641728,30.3046875 L33.5485478,30.3046875 L35.5094853,33.4140625 L35.5641728,33.4140625 L37.5876103,30.3046875 L39.0016728,30.3046875 L36.2047978,34.3125 L39.0485478,38.5 L37.5641728,38.5 Z M41.139228,30.3046875 L41.139228,28.2421875 L42.3657905,28.2421875 L42.3657905,30.3046875 L44.2251655,30.3046875 L44.2251655,31.328125 L42.3657905,31.328125 L42.3657905,36.2734375 C42.3657905,37.28125 42.686103,37.53125 43.7251655,37.53125 C43.9126655,37.53125 44.232978,37.5078125 44.357978,37.4921875 L44.357978,38.515625 C44.248603,38.5390625 43.670478,38.578125 43.4126655,38.578125 C41.4907905,38.578125 41.139228,37.8125 41.139228,36.2109375 L41.139228,31.328125 L39.889228,31.328125 L39.889228,30.3046875 L41.139228,30.3046875 Z M57.2424633,31.0546875 L56.0080883,31.0546875 C55.8049633,29.4375 54.6252758,28.7421875 53.3284008,28.7421875 C51.7346508,28.7421875 50.3752758,29.796875 50.3752758,32.3984375 L50.3752758,33.8828125 C50.3752758,36.203125 51.3830883,37.59375 53.2893383,37.59375 C54.8909008,37.59375 56.0549633,36.6015625 56.0549633,35.1875 L56.0549633,34.09375 L53.2112133,34.09375 L53.2112133,32.96875 L57.2737133,32.96875 L57.2737133,35.1875 C57.2737133,36.5390625 56.3127758,38.7265625 53.3127758,38.7265625 C50.5471508,38.7265625 49.1330883,36.875 49.1330883,33.8828125 L49.1330883,32.3984375 C49.1330883,29.34375 50.8362133,27.609375 53.3596508,27.609375 C55.7893383,27.609375 57.1096508,29.21875 57.2424633,31.0546875 Z M62.6534559,30.171875 C64.6300184,30.171875 66.1300184,31.46875 66.1300184,33.75 L66.1300184,35.046875 C66.1300184,37.328125 64.6300184,38.6328125 62.6534559,38.6328125 C60.6378309,38.6328125 59.1690809,37.3515625 59.1690809,35.046875 L59.1690809,33.75 C59.1690809,31.5546875 60.6690809,30.171875 62.6534559,30.171875 Z M62.6612684,31.2578125 C61.2940809,31.2578125 60.3956434,32.3203125 60.3956434,33.890625 L60.3956434,34.921875 C60.3956434,36.53125 61.2393934,37.546875 62.6612684,37.546875 C64.0753309,37.546875 64.9034559,36.53125 64.9034559,34.921875 L64.9034559,33.890625 C64.9034559,32.3203125 64.0362684,31.2578125 62.6612684,31.2578125 Z M71.2441361,38.6328125 C69.0644486,38.6328125 67.8066361,37.21875 67.8066361,35.0703125 L67.8066361,33.7421875 C67.8066361,31.5703125 69.1972611,30.171875 71.1425736,30.171875 C73.0878861,30.171875 74.4785111,31.5703125 74.4785111,33.7421875 L74.4785111,34.7421875 L69.0410111,34.7421875 L69.0410111,35.1640625 C69.0410111,36.4921875 69.7910111,37.546875 71.2363236,37.546875 C72.2363236,37.546875 72.9003861,37.0703125 73.0566361,36.5625 L74.3613236,36.5625 C74.2285111,37.3984375 73.2441361,38.6328125 71.2441361,38.6328125 Z M69.0410111,33.7890625 L73.2441361,33.7890625 L73.2441361,33.640625 C73.2441361,32.203125 72.4081986,31.2578125 71.1425736,31.2578125 C69.8769486,31.2578125 69.0410111,32.203125 69.0410111,33.640625 L69.0410111,33.7890625 Z M76.1004412,32.6328125 C76.1004412,30.921875 77.5379412,30.171875 79.0926287,30.171875 C80.8348162,30.171875 81.9676287,31.1015625 81.9676287,32.4375 L80.8113787,32.4375 C80.7645037,31.8359375 80.2020037,31.1953125 79.0379412,31.1953125 C78.0379412,31.1953125 77.3035662,31.65625 77.3035662,32.5 C77.3035662,33.515625 78.3738787,33.6484375 79.3113787,33.8203125 C80.8504412,34.09375 82.1707537,34.484375 82.1707537,36.1015625 C82.1707537,37.7265625 80.8582537,38.6328125 78.9676287,38.6328125 C77.2176287,38.6328125 75.9598162,37.8515625 75.9598162,36.3828125 L77.1629412,36.3828125 C77.2801287,37.1484375 77.8035662,37.6171875 79.0223162,37.6171875 C80.3973162,37.6171875 80.9598162,37 80.9598162,36.25 C80.9598162,35.296875 80.0613787,35.109375 78.8973162,34.8828125 C77.3582537,34.5625 76.1004412,34.25 76.1004412,32.6328125 Z M95.5005515,38.5 L94.258364,38.5 L94.258364,33.53125 L88.742739,33.53125 L88.742739,38.5 L87.5005515,38.5 L87.5005515,27.8359375 L88.742739,27.8359375 L88.742739,32.40625 L94.258364,32.40625 L94.258364,27.8359375 L95.5005515,27.8359375 L95.5005515,38.5 Z M101.099044,38.6328125 C98.9193567,38.6328125 97.6615442,37.21875 97.6615442,35.0703125 L97.6615442,33.7421875 C97.6615442,31.5703125 99.0521692,30.171875 100.997482,30.171875 C102.942794,30.171875 104.333419,31.5703125 104.333419,33.7421875 L104.333419,34.7421875 L98.8959192,34.7421875 L98.8959192,35.1640625 C98.8959192,36.4921875 99.6459192,37.546875 101.091232,37.546875 C102.091232,37.546875 102.755294,37.0703125 102.911544,36.5625 L104.216232,36.5625 C104.083419,37.3984375 103.099044,38.6328125 101.099044,38.6328125 Z M98.8959192,33.7890625 L103.099044,33.7890625 L103.099044,33.640625 C103.099044,32.203125 102.263107,31.2578125 100.997482,31.2578125 C99.7318567,31.2578125 98.8959192,32.203125 98.8959192,33.640625 L98.8959192,33.7890625 Z M106.510037,38.5 L106.510037,30.3046875 L107.736599,30.3046875 L107.736599,31.5625 L107.799099,31.5625 C108.010037,31.0234375 108.603787,30.1796875 110.095974,30.1796875 C110.244412,30.1796875 110.408474,30.1953125 110.572537,30.2109375 L110.572537,31.3515625 C110.439724,31.328125 110.181912,31.3203125 109.947537,31.3203125 C108.478787,31.3203125 107.736599,32.2109375 107.736599,33.3203125 L107.736599,38.5 L106.510037,38.5 Z M115.163217,38.6328125 C112.983529,38.6328125 111.725717,37.21875 111.725717,35.0703125 L111.725717,33.7421875 C111.725717,31.5703125 113.116342,30.171875 115.061654,30.171875 C117.006967,30.171875 118.397592,31.5703125 118.397592,33.7421875 L118.397592,34.7421875 L112.960092,34.7421875 L112.960092,35.1640625 C112.960092,36.4921875 113.710092,37.546875 115.155404,37.546875 C116.155404,37.546875 116.819467,37.0703125 116.975717,36.5625 L118.280404,36.5625 C118.147592,37.3984375 117.163217,38.6328125 115.163217,38.6328125 Z M112.960092,33.7890625 L117.163217,33.7890625 L117.163217,33.640625 C117.163217,32.203125 116.327279,31.2578125 115.061654,31.2578125 C113.796029,31.2578125 112.960092,32.203125 112.960092,33.640625 L112.960092,33.7890625 Z" id="Label-One" fill-opacity="0.7" fill="#000000"></path>
                            <g id="Group" transform="translate(250.000000, 24.375000)">
                                <path d="M5.8359375,14.125 L4.0625,14.125 L0.3203125,3.4609375 L2.1640625,3.4609375 L4.9375,12.171875 L5.0234375,12.171875 L7.7734375,3.4609375 L9.5859375,3.4609375 L5.8359375,14.125 Z M12.6453677,14.2578125 C11.0516177,14.2578125 9.95005515,13.265625 9.95005515,11.7265625 C9.95005515,10.2734375 10.9578677,9.2890625 12.8563052,9.2890625 L14.9734927,9.2890625 L14.9734927,8.5078125 C14.9734927,7.546875 14.3406802,7.1015625 13.3406802,7.1015625 C12.3484927,7.1015625 11.9188052,7.4921875 11.7703677,8.0390625 L10.2625552,8.0390625 C10.3719302,6.6640625 11.4422427,5.75 13.3875552,5.75 C15.1219302,5.75 16.5516177,6.4765625 16.5516177,8.53125 L16.5516177,14.125 L15.0438052,14.125 L15.0438052,13.0546875 L14.9734927,13.0546875 C14.5906802,13.6875 13.8641177,14.2578125 12.6453677,14.2578125 Z M13.1141177,12.9296875 C14.1609927,12.9296875 14.9734927,12.25 14.9734927,11.328125 L14.9734927,10.4375 L13.0516177,10.4375 C11.9969302,10.4375 11.5438052,10.953125 11.5438052,11.640625 C11.5438052,12.515625 12.2938052,12.9296875 13.1141177,12.9296875 Z M18.8610478,14.125 L18.8610478,2.6640625 L20.4391728,2.6640625 L20.4391728,14.125 L18.8610478,14.125 Z M29.623603,5.875 L29.623603,14.125 L28.0689155,14.125 L28.0689155,12.75 L27.982978,12.75 C27.7564155,13.4140625 26.9907905,14.2578125 25.545478,14.2578125 C23.8970405,14.2578125 22.7407905,13.46875 22.7407905,11.5390625 L22.7407905,5.875 L24.3189155,5.875 L24.3189155,11.09375 C24.3189155,12.4140625 25.107978,12.8125 26.0376655,12.8125 C27.170478,12.8125 28.0532905,12.0078125 28.0532905,10.96875 L28.0532905,5.875 L29.623603,5.875 Z M35.1283456,14.265625 C32.8939706,14.265625 31.5424081,12.8828125 31.5424081,10.5625 L31.5424081,9.4296875 C31.5424081,7.1015625 33.0267831,5.734375 35.0189706,5.734375 C37.0502206,5.734375 38.4955331,7.1640625 38.4955331,9.4296875 L38.4955331,10.40625 L33.1049081,10.40625 L33.1049081,10.8125 C33.1049081,12.0078125 33.8236581,12.8984375 35.1127206,12.8984375 C36.0502206,12.8984375 36.6830331,12.4609375 36.8158456,11.953125 L38.3939706,11.953125 C38.2767831,12.8984375 37.2767831,14.265625 35.1283456,14.265625 Z M33.1049081,9.2890625 L36.9408456,9.2890625 L36.9408456,9.171875 C36.9408456,7.9140625 36.1830331,7.078125 35.0267831,7.078125 C33.8705331,7.078125 33.1049081,7.9140625 33.1049081,9.171875 L33.1049081,9.2890625 Z" id="Label-One" fill="#42B549"></path>
                                <polygon id="Disclosure-Indicator" fill="#BDBDBD" points="48 2.6171875 49.5 1.1171875 56 7.6171875 49.5 14.1171875 48 12.6171875 53 7.6171875"></polygon>
                            </g>
                        </g>
                        <path d="M18,64 L322,64" id="Line" stroke="#E0E0E0" stroke-width="0.5" stroke-linecap="square"></path>
                    </g>
                    <g id="List" transform="translate(0.000000, 465.000000)">
                        <g id="One">
                            <rect id="Cell" fill="#FFFFFF" x="0" y="0" width="322" height="65"></rect>
                            <path d="M20.890625,38.5 L19.6484375,38.5 L19.6484375,28.9609375 L16.3828125,28.9609375 L16.3828125,27.8359375 L24.15625,27.8359375 L24.15625,28.9609375 L20.890625,28.9609375 L20.890625,38.5 Z M27.6844302,38.6328125 C25.5047427,38.6328125 24.2469302,37.21875 24.2469302,35.0703125 L24.2469302,33.7421875 C24.2469302,31.5703125 25.6375552,30.171875 27.5828677,30.171875 C29.5281802,30.171875 30.9188052,31.5703125 30.9188052,33.7421875 L30.9188052,34.7421875 L25.4813052,34.7421875 L25.4813052,35.1640625 C25.4813052,36.4921875 26.2313052,37.546875 27.6766177,37.546875 C28.6766177,37.546875 29.3406802,37.0703125 29.4969302,36.5625 L30.8016177,36.5625 C30.6688052,37.3984375 29.6844302,38.6328125 27.6844302,38.6328125 Z M25.4813052,33.7890625 L29.6844302,33.7890625 L29.6844302,33.640625 C29.6844302,32.203125 28.8484927,31.2578125 27.5828677,31.2578125 C26.3172427,31.2578125 25.4813052,32.203125 25.4813052,33.640625 L25.4813052,33.7890625 Z M37.5641728,38.5 L35.5485478,35.3828125 L35.5016728,35.3828125 L33.4782353,38.5 L32.0797978,38.5 L34.8610478,34.453125 L32.0641728,30.3046875 L33.5485478,30.3046875 L35.5094853,33.4140625 L35.5641728,33.4140625 L37.5876103,30.3046875 L39.0016728,30.3046875 L36.2047978,34.3125 L39.0485478,38.5 L37.5641728,38.5 Z M41.139228,30.3046875 L41.139228,28.2421875 L42.3657905,28.2421875 L42.3657905,30.3046875 L44.2251655,30.3046875 L44.2251655,31.328125 L42.3657905,31.328125 L42.3657905,36.2734375 C42.3657905,37.28125 42.686103,37.53125 43.7251655,37.53125 C43.9126655,37.53125 44.232978,37.5078125 44.357978,37.4921875 L44.357978,38.515625 C44.248603,38.5390625 43.670478,38.578125 43.4126655,38.578125 C41.4907905,38.578125 41.139228,37.8125 41.139228,36.2109375 L41.139228,31.328125 L39.889228,31.328125 L39.889228,30.3046875 L41.139228,30.3046875 Z M57.2424633,31.0546875 L56.0080883,31.0546875 C55.8049633,29.4375 54.6252758,28.7421875 53.3284008,28.7421875 C51.7346508,28.7421875 50.3752758,29.796875 50.3752758,32.3984375 L50.3752758,33.8828125 C50.3752758,36.203125 51.3830883,37.59375 53.2893383,37.59375 C54.8909008,37.59375 56.0549633,36.6015625 56.0549633,35.1875 L56.0549633,34.09375 L53.2112133,34.09375 L53.2112133,32.96875 L57.2737133,32.96875 L57.2737133,35.1875 C57.2737133,36.5390625 56.3127758,38.7265625 53.3127758,38.7265625 C50.5471508,38.7265625 49.1330883,36.875 49.1330883,33.8828125 L49.1330883,32.3984375 C49.1330883,29.34375 50.8362133,27.609375 53.3596508,27.609375 C55.7893383,27.609375 57.1096508,29.21875 57.2424633,31.0546875 Z M62.6534559,30.171875 C64.6300184,30.171875 66.1300184,31.46875 66.1300184,33.75 L66.1300184,35.046875 C66.1300184,37.328125 64.6300184,38.6328125 62.6534559,38.6328125 C60.6378309,38.6328125 59.1690809,37.3515625 59.1690809,35.046875 L59.1690809,33.75 C59.1690809,31.5546875 60.6690809,30.171875 62.6534559,30.171875 Z M62.6612684,31.2578125 C61.2940809,31.2578125 60.3956434,32.3203125 60.3956434,33.890625 L60.3956434,34.921875 C60.3956434,36.53125 61.2393934,37.546875 62.6612684,37.546875 C64.0753309,37.546875 64.9034559,36.53125 64.9034559,34.921875 L64.9034559,33.890625 C64.9034559,32.3203125 64.0362684,31.2578125 62.6612684,31.2578125 Z M71.2441361,38.6328125 C69.0644486,38.6328125 67.8066361,37.21875 67.8066361,35.0703125 L67.8066361,33.7421875 C67.8066361,31.5703125 69.1972611,30.171875 71.1425736,30.171875 C73.0878861,30.171875 74.4785111,31.5703125 74.4785111,33.7421875 L74.4785111,34.7421875 L69.0410111,34.7421875 L69.0410111,35.1640625 C69.0410111,36.4921875 69.7910111,37.546875 71.2363236,37.546875 C72.2363236,37.546875 72.9003861,37.0703125 73.0566361,36.5625 L74.3613236,36.5625 C74.2285111,37.3984375 73.2441361,38.6328125 71.2441361,38.6328125 Z M69.0410111,33.7890625 L73.2441361,33.7890625 L73.2441361,33.640625 C73.2441361,32.203125 72.4081986,31.2578125 71.1425736,31.2578125 C69.8769486,31.2578125 69.0410111,32.203125 69.0410111,33.640625 L69.0410111,33.7890625 Z M76.1004412,32.6328125 C76.1004412,30.921875 77.5379412,30.171875 79.0926287,30.171875 C80.8348162,30.171875 81.9676287,31.1015625 81.9676287,32.4375 L80.8113787,32.4375 C80.7645037,31.8359375 80.2020037,31.1953125 79.0379412,31.1953125 C78.0379412,31.1953125 77.3035662,31.65625 77.3035662,32.5 C77.3035662,33.515625 78.3738787,33.6484375 79.3113787,33.8203125 C80.8504412,34.09375 82.1707537,34.484375 82.1707537,36.1015625 C82.1707537,37.7265625 80.8582537,38.6328125 78.9676287,38.6328125 C77.2176287,38.6328125 75.9598162,37.8515625 75.9598162,36.3828125 L77.1629412,36.3828125 C77.2801287,37.1484375 77.8035662,37.6171875 79.0223162,37.6171875 C80.3973162,37.6171875 80.9598162,37 80.9598162,36.25 C80.9598162,35.296875 80.0613787,35.109375 78.8973162,34.8828125 C77.3582537,34.5625 76.1004412,34.25 76.1004412,32.6328125 Z M95.5005515,38.5 L94.258364,38.5 L94.258364,33.53125 L88.742739,33.53125 L88.742739,38.5 L87.5005515,38.5 L87.5005515,27.8359375 L88.742739,27.8359375 L88.742739,32.40625 L94.258364,32.40625 L94.258364,27.8359375 L95.5005515,27.8359375 L95.5005515,38.5 Z M101.099044,38.6328125 C98.9193567,38.6328125 97.6615442,37.21875 97.6615442,35.0703125 L97.6615442,33.7421875 C97.6615442,31.5703125 99.0521692,30.171875 100.997482,30.171875 C102.942794,30.171875 104.333419,31.5703125 104.333419,33.7421875 L104.333419,34.7421875 L98.8959192,34.7421875 L98.8959192,35.1640625 C98.8959192,36.4921875 99.6459192,37.546875 101.091232,37.546875 C102.091232,37.546875 102.755294,37.0703125 102.911544,36.5625 L104.216232,36.5625 C104.083419,37.3984375 103.099044,38.6328125 101.099044,38.6328125 Z M98.8959192,33.7890625 L103.099044,33.7890625 L103.099044,33.640625 C103.099044,32.203125 102.263107,31.2578125 100.997482,31.2578125 C99.7318567,31.2578125 98.8959192,32.203125 98.8959192,33.640625 L98.8959192,33.7890625 Z M106.510037,38.5 L106.510037,30.3046875 L107.736599,30.3046875 L107.736599,31.5625 L107.799099,31.5625 C108.010037,31.0234375 108.603787,30.1796875 110.095974,30.1796875 C110.244412,30.1796875 110.408474,30.1953125 110.572537,30.2109375 L110.572537,31.3515625 C110.439724,31.328125 110.181912,31.3203125 109.947537,31.3203125 C108.478787,31.3203125 107.736599,32.2109375 107.736599,33.3203125 L107.736599,38.5 L106.510037,38.5 Z M115.163217,38.6328125 C112.983529,38.6328125 111.725717,37.21875 111.725717,35.0703125 L111.725717,33.7421875 C111.725717,31.5703125 113.116342,30.171875 115.061654,30.171875 C117.006967,30.171875 118.397592,31.5703125 118.397592,33.7421875 L118.397592,34.7421875 L112.960092,34.7421875 L112.960092,35.1640625 C112.960092,36.4921875 113.710092,37.546875 115.155404,37.546875 C116.155404,37.546875 116.819467,37.0703125 116.975717,36.5625 L118.280404,36.5625 C118.147592,37.3984375 117.163217,38.6328125 115.163217,38.6328125 Z M112.960092,33.7890625 L117.163217,33.7890625 L117.163217,33.640625 C117.163217,32.203125 116.327279,31.2578125 115.061654,31.2578125 C113.796029,31.2578125 112.960092,32.203125 112.960092,33.640625 L112.960092,33.7890625 Z" id="Label-One" fill-opacity="0.7" fill="#000000"></path>
                            <g id="Group" transform="translate(250.000000, 24.375000)">
                                <path d="M5.8359375,14.125 L4.0625,14.125 L0.3203125,3.4609375 L2.1640625,3.4609375 L4.9375,12.171875 L5.0234375,12.171875 L7.7734375,3.4609375 L9.5859375,3.4609375 L5.8359375,14.125 Z M12.6453677,14.2578125 C11.0516177,14.2578125 9.95005515,13.265625 9.95005515,11.7265625 C9.95005515,10.2734375 10.9578677,9.2890625 12.8563052,9.2890625 L14.9734927,9.2890625 L14.9734927,8.5078125 C14.9734927,7.546875 14.3406802,7.1015625 13.3406802,7.1015625 C12.3484927,7.1015625 11.9188052,7.4921875 11.7703677,8.0390625 L10.2625552,8.0390625 C10.3719302,6.6640625 11.4422427,5.75 13.3875552,5.75 C15.1219302,5.75 16.5516177,6.4765625 16.5516177,8.53125 L16.5516177,14.125 L15.0438052,14.125 L15.0438052,13.0546875 L14.9734927,13.0546875 C14.5906802,13.6875 13.8641177,14.2578125 12.6453677,14.2578125 Z M13.1141177,12.9296875 C14.1609927,12.9296875 14.9734927,12.25 14.9734927,11.328125 L14.9734927,10.4375 L13.0516177,10.4375 C11.9969302,10.4375 11.5438052,10.953125 11.5438052,11.640625 C11.5438052,12.515625 12.2938052,12.9296875 13.1141177,12.9296875 Z M18.8610478,14.125 L18.8610478,2.6640625 L20.4391728,2.6640625 L20.4391728,14.125 L18.8610478,14.125 Z M29.623603,5.875 L29.623603,14.125 L28.0689155,14.125 L28.0689155,12.75 L27.982978,12.75 C27.7564155,13.4140625 26.9907905,14.2578125 25.545478,14.2578125 C23.8970405,14.2578125 22.7407905,13.46875 22.7407905,11.5390625 L22.7407905,5.875 L24.3189155,5.875 L24.3189155,11.09375 C24.3189155,12.4140625 25.107978,12.8125 26.0376655,12.8125 C27.170478,12.8125 28.0532905,12.0078125 28.0532905,10.96875 L28.0532905,5.875 L29.623603,5.875 Z M35.1283456,14.265625 C32.8939706,14.265625 31.5424081,12.8828125 31.5424081,10.5625 L31.5424081,9.4296875 C31.5424081,7.1015625 33.0267831,5.734375 35.0189706,5.734375 C37.0502206,5.734375 38.4955331,7.1640625 38.4955331,9.4296875 L38.4955331,10.40625 L33.1049081,10.40625 L33.1049081,10.8125 C33.1049081,12.0078125 33.8236581,12.8984375 35.1127206,12.8984375 C36.0502206,12.8984375 36.6830331,12.4609375 36.8158456,11.953125 L38.3939706,11.953125 C38.2767831,12.8984375 37.2767831,14.265625 35.1283456,14.265625 Z M33.1049081,9.2890625 L36.9408456,9.2890625 L36.9408456,9.171875 C36.9408456,7.9140625 36.1830331,7.078125 35.0267831,7.078125 C33.8705331,7.078125 33.1049081,7.9140625 33.1049081,9.171875 L33.1049081,9.2890625 Z" id="Label-One" fill="#42B549"></path>
                                <polygon id="Disclosure-Indicator" fill="#BDBDBD" points="48 2.6171875 49.5 1.1171875 56 7.6171875 49.5 14.1171875 48 12.6171875 53 7.6171875"></polygon>
                            </g>
                        </g>
                        <path d="M18,64 L322,64" id="Line" stroke="#E0E0E0" stroke-width="0.5" stroke-linecap="square"></path>
                    </g>
                    <g id="List" transform="translate(0.000000, 270.000000)">
                        <g id="One">
                            <rect id="Cell" fill="#FFFFFF" x="0" y="0" width="322" height="65"></rect>
                            <path d="M20.890625,38.5 L19.6484375,38.5 L19.6484375,28.9609375 L16.3828125,28.9609375 L16.3828125,27.8359375 L24.15625,27.8359375 L24.15625,28.9609375 L20.890625,28.9609375 L20.890625,38.5 Z M27.6844302,38.6328125 C25.5047427,38.6328125 24.2469302,37.21875 24.2469302,35.0703125 L24.2469302,33.7421875 C24.2469302,31.5703125 25.6375552,30.171875 27.5828677,30.171875 C29.5281802,30.171875 30.9188052,31.5703125 30.9188052,33.7421875 L30.9188052,34.7421875 L25.4813052,34.7421875 L25.4813052,35.1640625 C25.4813052,36.4921875 26.2313052,37.546875 27.6766177,37.546875 C28.6766177,37.546875 29.3406802,37.0703125 29.4969302,36.5625 L30.8016177,36.5625 C30.6688052,37.3984375 29.6844302,38.6328125 27.6844302,38.6328125 Z M25.4813052,33.7890625 L29.6844302,33.7890625 L29.6844302,33.640625 C29.6844302,32.203125 28.8484927,31.2578125 27.5828677,31.2578125 C26.3172427,31.2578125 25.4813052,32.203125 25.4813052,33.640625 L25.4813052,33.7890625 Z M37.5641728,38.5 L35.5485478,35.3828125 L35.5016728,35.3828125 L33.4782353,38.5 L32.0797978,38.5 L34.8610478,34.453125 L32.0641728,30.3046875 L33.5485478,30.3046875 L35.5094853,33.4140625 L35.5641728,33.4140625 L37.5876103,30.3046875 L39.0016728,30.3046875 L36.2047978,34.3125 L39.0485478,38.5 L37.5641728,38.5 Z M41.139228,30.3046875 L41.139228,28.2421875 L42.3657905,28.2421875 L42.3657905,30.3046875 L44.2251655,30.3046875 L44.2251655,31.328125 L42.3657905,31.328125 L42.3657905,36.2734375 C42.3657905,37.28125 42.686103,37.53125 43.7251655,37.53125 C43.9126655,37.53125 44.232978,37.5078125 44.357978,37.4921875 L44.357978,38.515625 C44.248603,38.5390625 43.670478,38.578125 43.4126655,38.578125 C41.4907905,38.578125 41.139228,37.8125 41.139228,36.2109375 L41.139228,31.328125 L39.889228,31.328125 L39.889228,30.3046875 L41.139228,30.3046875 Z M57.2424633,31.0546875 L56.0080883,31.0546875 C55.8049633,29.4375 54.6252758,28.7421875 53.3284008,28.7421875 C51.7346508,28.7421875 50.3752758,29.796875 50.3752758,32.3984375 L50.3752758,33.8828125 C50.3752758,36.203125 51.3830883,37.59375 53.2893383,37.59375 C54.8909008,37.59375 56.0549633,36.6015625 56.0549633,35.1875 L56.0549633,34.09375 L53.2112133,34.09375 L53.2112133,32.96875 L57.2737133,32.96875 L57.2737133,35.1875 C57.2737133,36.5390625 56.3127758,38.7265625 53.3127758,38.7265625 C50.5471508,38.7265625 49.1330883,36.875 49.1330883,33.8828125 L49.1330883,32.3984375 C49.1330883,29.34375 50.8362133,27.609375 53.3596508,27.609375 C55.7893383,27.609375 57.1096508,29.21875 57.2424633,31.0546875 Z M62.6534559,30.171875 C64.6300184,30.171875 66.1300184,31.46875 66.1300184,33.75 L66.1300184,35.046875 C66.1300184,37.328125 64.6300184,38.6328125 62.6534559,38.6328125 C60.6378309,38.6328125 59.1690809,37.3515625 59.1690809,35.046875 L59.1690809,33.75 C59.1690809,31.5546875 60.6690809,30.171875 62.6534559,30.171875 Z M62.6612684,31.2578125 C61.2940809,31.2578125 60.3956434,32.3203125 60.3956434,33.890625 L60.3956434,34.921875 C60.3956434,36.53125 61.2393934,37.546875 62.6612684,37.546875 C64.0753309,37.546875 64.9034559,36.53125 64.9034559,34.921875 L64.9034559,33.890625 C64.9034559,32.3203125 64.0362684,31.2578125 62.6612684,31.2578125 Z M71.2441361,38.6328125 C69.0644486,38.6328125 67.8066361,37.21875 67.8066361,35.0703125 L67.8066361,33.7421875 C67.8066361,31.5703125 69.1972611,30.171875 71.1425736,30.171875 C73.0878861,30.171875 74.4785111,31.5703125 74.4785111,33.7421875 L74.4785111,34.7421875 L69.0410111,34.7421875 L69.0410111,35.1640625 C69.0410111,36.4921875 69.7910111,37.546875 71.2363236,37.546875 C72.2363236,37.546875 72.9003861,37.0703125 73.0566361,36.5625 L74.3613236,36.5625 C74.2285111,37.3984375 73.2441361,38.6328125 71.2441361,38.6328125 Z M69.0410111,33.7890625 L73.2441361,33.7890625 L73.2441361,33.640625 C73.2441361,32.203125 72.4081986,31.2578125 71.1425736,31.2578125 C69.8769486,31.2578125 69.0410111,32.203125 69.0410111,33.640625 L69.0410111,33.7890625 Z M76.1004412,32.6328125 C76.1004412,30.921875 77.5379412,30.171875 79.0926287,30.171875 C80.8348162,30.171875 81.9676287,31.1015625 81.9676287,32.4375 L80.8113787,32.4375 C80.7645037,31.8359375 80.2020037,31.1953125 79.0379412,31.1953125 C78.0379412,31.1953125 77.3035662,31.65625 77.3035662,32.5 C77.3035662,33.515625 78.3738787,33.6484375 79.3113787,33.8203125 C80.8504412,34.09375 82.1707537,34.484375 82.1707537,36.1015625 C82.1707537,37.7265625 80.8582537,38.6328125 78.9676287,38.6328125 C77.2176287,38.6328125 75.9598162,37.8515625 75.9598162,36.3828125 L77.1629412,36.3828125 C77.2801287,37.1484375 77.8035662,37.6171875 79.0223162,37.6171875 C80.3973162,37.6171875 80.9598162,37 80.9598162,36.25 C80.9598162,35.296875 80.0613787,35.109375 78.8973162,34.8828125 C77.3582537,34.5625 76.1004412,34.25 76.1004412,32.6328125 Z M95.5005515,38.5 L94.258364,38.5 L94.258364,33.53125 L88.742739,33.53125 L88.742739,38.5 L87.5005515,38.5 L87.5005515,27.8359375 L88.742739,27.8359375 L88.742739,32.40625 L94.258364,32.40625 L94.258364,27.8359375 L95.5005515,27.8359375 L95.5005515,38.5 Z M101.099044,38.6328125 C98.9193567,38.6328125 97.6615442,37.21875 97.6615442,35.0703125 L97.6615442,33.7421875 C97.6615442,31.5703125 99.0521692,30.171875 100.997482,30.171875 C102.942794,30.171875 104.333419,31.5703125 104.333419,33.7421875 L104.333419,34.7421875 L98.8959192,34.7421875 L98.8959192,35.1640625 C98.8959192,36.4921875 99.6459192,37.546875 101.091232,37.546875 C102.091232,37.546875 102.755294,37.0703125 102.911544,36.5625 L104.216232,36.5625 C104.083419,37.3984375 103.099044,38.6328125 101.099044,38.6328125 Z M98.8959192,33.7890625 L103.099044,33.7890625 L103.099044,33.640625 C103.099044,32.203125 102.263107,31.2578125 100.997482,31.2578125 C99.7318567,31.2578125 98.8959192,32.203125 98.8959192,33.640625 L98.8959192,33.7890625 Z M106.510037,38.5 L106.510037,30.3046875 L107.736599,30.3046875 L107.736599,31.5625 L107.799099,31.5625 C108.010037,31.0234375 108.603787,30.1796875 110.095974,30.1796875 C110.244412,30.1796875 110.408474,30.1953125 110.572537,30.2109375 L110.572537,31.3515625 C110.439724,31.328125 110.181912,31.3203125 109.947537,31.3203125 C108.478787,31.3203125 107.736599,32.2109375 107.736599,33.3203125 L107.736599,38.5 L106.510037,38.5 Z M115.163217,38.6328125 C112.983529,38.6328125 111.725717,37.21875 111.725717,35.0703125 L111.725717,33.7421875 C111.725717,31.5703125 113.116342,30.171875 115.061654,30.171875 C117.006967,30.171875 118.397592,31.5703125 118.397592,33.7421875 L118.397592,34.7421875 L112.960092,34.7421875 L112.960092,35.1640625 C112.960092,36.4921875 113.710092,37.546875 115.155404,37.546875 C116.155404,37.546875 116.819467,37.0703125 116.975717,36.5625 L118.280404,36.5625 C118.147592,37.3984375 117.163217,38.6328125 115.163217,38.6328125 Z M112.960092,33.7890625 L117.163217,33.7890625 L117.163217,33.640625 C117.163217,32.203125 116.327279,31.2578125 115.061654,31.2578125 C113.796029,31.2578125 112.960092,32.203125 112.960092,33.640625 L112.960092,33.7890625 Z" id="Label-One" fill-opacity="0.7" fill="#000000"></path>
                            <path d="M271.835938,38.5 L270.0625,38.5 L266.320312,27.8359375 L268.164062,27.8359375 L270.9375,36.546875 L271.023438,36.546875 L273.773438,27.8359375 L275.585938,27.8359375 L271.835938,38.5 Z M278.645368,38.6328125 C277.051618,38.6328125 275.950055,37.640625 275.950055,36.1015625 C275.950055,34.6484375 276.957868,33.6640625 278.856305,33.6640625 L280.973493,33.6640625 L280.973493,32.8828125 C280.973493,31.921875 280.34068,31.4765625 279.34068,31.4765625 C278.348493,31.4765625 277.918805,31.8671875 277.770368,32.4140625 L276.262555,32.4140625 C276.37193,31.0390625 277.442243,30.125 279.387555,30.125 C281.12193,30.125 282.551618,30.8515625 282.551618,32.90625 L282.551618,38.5 L281.043805,38.5 L281.043805,37.4296875 L280.973493,37.4296875 C280.59068,38.0625 279.864118,38.6328125 278.645368,38.6328125 Z M279.114118,37.3046875 C280.160993,37.3046875 280.973493,36.625 280.973493,35.703125 L280.973493,34.8125 L279.051618,34.8125 C277.99693,34.8125 277.543805,35.328125 277.543805,36.015625 C277.543805,36.890625 278.293805,37.3046875 279.114118,37.3046875 Z M284.861048,38.5 L284.861048,27.0390625 L286.439173,27.0390625 L286.439173,38.5 L284.861048,38.5 Z M295.623603,30.25 L295.623603,38.5 L294.068915,38.5 L294.068915,37.125 L293.982978,37.125 C293.756415,37.7890625 292.99079,38.6328125 291.545478,38.6328125 C289.89704,38.6328125 288.74079,37.84375 288.74079,35.9140625 L288.74079,30.25 L290.318915,30.25 L290.318915,35.46875 C290.318915,36.7890625 291.107978,37.1875 292.037665,37.1875 C293.170478,37.1875 294.05329,36.3828125 294.05329,35.34375 L294.05329,30.25 L295.623603,30.25 Z M301.128346,38.640625 C298.893971,38.640625 297.542408,37.2578125 297.542408,34.9375 L297.542408,33.8046875 C297.542408,31.4765625 299.026783,30.109375 301.018971,30.109375 C303.050221,30.109375 304.495533,31.5390625 304.495533,33.8046875 L304.495533,34.78125 L299.104908,34.78125 L299.104908,35.1875 C299.104908,36.3828125 299.823658,37.2734375 301.112721,37.2734375 C302.050221,37.2734375 302.683033,36.8359375 302.815846,36.328125 L304.393971,36.328125 C304.276783,37.2734375 303.276783,38.640625 301.128346,38.640625 Z M299.104908,33.6640625 L302.940846,33.6640625 L302.940846,33.546875 C302.940846,32.2890625 302.183033,31.453125 301.026783,31.453125 C299.870533,31.453125 299.104908,32.2890625 299.104908,33.546875 L299.104908,33.6640625 Z" id="Label-One" fill="#42B549"></path>
                        </g>
                        <path d="M18,64 L322,64" id="Line" stroke="#E0E0E0" stroke-width="0.5" stroke-linecap="square"></path>
                    </g>
                    <g id="List" transform="translate(0.000000, 205.000000)">
                        <g id="One">
                            <rect id="Cell" fill="#FFFFFF" x="0" y="0" width="322" height="65"></rect>
                            <path d="M20.890625,38.5 L19.6484375,38.5 L19.6484375,28.9609375 L16.3828125,28.9609375 L16.3828125,27.8359375 L24.15625,27.8359375 L24.15625,28.9609375 L20.890625,28.9609375 L20.890625,38.5 Z M27.6844302,38.6328125 C25.5047427,38.6328125 24.2469302,37.21875 24.2469302,35.0703125 L24.2469302,33.7421875 C24.2469302,31.5703125 25.6375552,30.171875 27.5828677,30.171875 C29.5281802,30.171875 30.9188052,31.5703125 30.9188052,33.7421875 L30.9188052,34.7421875 L25.4813052,34.7421875 L25.4813052,35.1640625 C25.4813052,36.4921875 26.2313052,37.546875 27.6766177,37.546875 C28.6766177,37.546875 29.3406802,37.0703125 29.4969302,36.5625 L30.8016177,36.5625 C30.6688052,37.3984375 29.6844302,38.6328125 27.6844302,38.6328125 Z M25.4813052,33.7890625 L29.6844302,33.7890625 L29.6844302,33.640625 C29.6844302,32.203125 28.8484927,31.2578125 27.5828677,31.2578125 C26.3172427,31.2578125 25.4813052,32.203125 25.4813052,33.640625 L25.4813052,33.7890625 Z M37.5641728,38.5 L35.5485478,35.3828125 L35.5016728,35.3828125 L33.4782353,38.5 L32.0797978,38.5 L34.8610478,34.453125 L32.0641728,30.3046875 L33.5485478,30.3046875 L35.5094853,33.4140625 L35.5641728,33.4140625 L37.5876103,30.3046875 L39.0016728,30.3046875 L36.2047978,34.3125 L39.0485478,38.5 L37.5641728,38.5 Z M41.139228,30.3046875 L41.139228,28.2421875 L42.3657905,28.2421875 L42.3657905,30.3046875 L44.2251655,30.3046875 L44.2251655,31.328125 L42.3657905,31.328125 L42.3657905,36.2734375 C42.3657905,37.28125 42.686103,37.53125 43.7251655,37.53125 C43.9126655,37.53125 44.232978,37.5078125 44.357978,37.4921875 L44.357978,38.515625 C44.248603,38.5390625 43.670478,38.578125 43.4126655,38.578125 C41.4907905,38.578125 41.139228,37.8125 41.139228,36.2109375 L41.139228,31.328125 L39.889228,31.328125 L39.889228,30.3046875 L41.139228,30.3046875 Z M57.2424633,31.0546875 L56.0080883,31.0546875 C55.8049633,29.4375 54.6252758,28.7421875 53.3284008,28.7421875 C51.7346508,28.7421875 50.3752758,29.796875 50.3752758,32.3984375 L50.3752758,33.8828125 C50.3752758,36.203125 51.3830883,37.59375 53.2893383,37.59375 C54.8909008,37.59375 56.0549633,36.6015625 56.0549633,35.1875 L56.0549633,34.09375 L53.2112133,34.09375 L53.2112133,32.96875 L57.2737133,32.96875 L57.2737133,35.1875 C57.2737133,36.5390625 56.3127758,38.7265625 53.3127758,38.7265625 C50.5471508,38.7265625 49.1330883,36.875 49.1330883,33.8828125 L49.1330883,32.3984375 C49.1330883,29.34375 50.8362133,27.609375 53.3596508,27.609375 C55.7893383,27.609375 57.1096508,29.21875 57.2424633,31.0546875 Z M62.6534559,30.171875 C64.6300184,30.171875 66.1300184,31.46875 66.1300184,33.75 L66.1300184,35.046875 C66.1300184,37.328125 64.6300184,38.6328125 62.6534559,38.6328125 C60.6378309,38.6328125 59.1690809,37.3515625 59.1690809,35.046875 L59.1690809,33.75 C59.1690809,31.5546875 60.6690809,30.171875 62.6534559,30.171875 Z M62.6612684,31.2578125 C61.2940809,31.2578125 60.3956434,32.3203125 60.3956434,33.890625 L60.3956434,34.921875 C60.3956434,36.53125 61.2393934,37.546875 62.6612684,37.546875 C64.0753309,37.546875 64.9034559,36.53125 64.9034559,34.921875 L64.9034559,33.890625 C64.9034559,32.3203125 64.0362684,31.2578125 62.6612684,31.2578125 Z M71.2441361,38.6328125 C69.0644486,38.6328125 67.8066361,37.21875 67.8066361,35.0703125 L67.8066361,33.7421875 C67.8066361,31.5703125 69.1972611,30.171875 71.1425736,30.171875 C73.0878861,30.171875 74.4785111,31.5703125 74.4785111,33.7421875 L74.4785111,34.7421875 L69.0410111,34.7421875 L69.0410111,35.1640625 C69.0410111,36.4921875 69.7910111,37.546875 71.2363236,37.546875 C72.2363236,37.546875 72.9003861,37.0703125 73.0566361,36.5625 L74.3613236,36.5625 C74.2285111,37.3984375 73.2441361,38.6328125 71.2441361,38.6328125 Z M69.0410111,33.7890625 L73.2441361,33.7890625 L73.2441361,33.640625 C73.2441361,32.203125 72.4081986,31.2578125 71.1425736,31.2578125 C69.8769486,31.2578125 69.0410111,32.203125 69.0410111,33.640625 L69.0410111,33.7890625 Z M76.1004412,32.6328125 C76.1004412,30.921875 77.5379412,30.171875 79.0926287,30.171875 C80.8348162,30.171875 81.9676287,31.1015625 81.9676287,32.4375 L80.8113787,32.4375 C80.7645037,31.8359375 80.2020037,31.1953125 79.0379412,31.1953125 C78.0379412,31.1953125 77.3035662,31.65625 77.3035662,32.5 C77.3035662,33.515625 78.3738787,33.6484375 79.3113787,33.8203125 C80.8504412,34.09375 82.1707537,34.484375 82.1707537,36.1015625 C82.1707537,37.7265625 80.8582537,38.6328125 78.9676287,38.6328125 C77.2176287,38.6328125 75.9598162,37.8515625 75.9598162,36.3828125 L77.1629412,36.3828125 C77.2801287,37.1484375 77.8035662,37.6171875 79.0223162,37.6171875 C80.3973162,37.6171875 80.9598162,37 80.9598162,36.25 C80.9598162,35.296875 80.0613787,35.109375 78.8973162,34.8828125 C77.3582537,34.5625 76.1004412,34.25 76.1004412,32.6328125 Z M95.5005515,38.5 L94.258364,38.5 L94.258364,33.53125 L88.742739,33.53125 L88.742739,38.5 L87.5005515,38.5 L87.5005515,27.8359375 L88.742739,27.8359375 L88.742739,32.40625 L94.258364,32.40625 L94.258364,27.8359375 L95.5005515,27.8359375 L95.5005515,38.5 Z M101.099044,38.6328125 C98.9193567,38.6328125 97.6615442,37.21875 97.6615442,35.0703125 L97.6615442,33.7421875 C97.6615442,31.5703125 99.0521692,30.171875 100.997482,30.171875 C102.942794,30.171875 104.333419,31.5703125 104.333419,33.7421875 L104.333419,34.7421875 L98.8959192,34.7421875 L98.8959192,35.1640625 C98.8959192,36.4921875 99.6459192,37.546875 101.091232,37.546875 C102.091232,37.546875 102.755294,37.0703125 102.911544,36.5625 L104.216232,36.5625 C104.083419,37.3984375 103.099044,38.6328125 101.099044,38.6328125 Z M98.8959192,33.7890625 L103.099044,33.7890625 L103.099044,33.640625 C103.099044,32.203125 102.263107,31.2578125 100.997482,31.2578125 C99.7318567,31.2578125 98.8959192,32.203125 98.8959192,33.640625 L98.8959192,33.7890625 Z M106.510037,38.5 L106.510037,30.3046875 L107.736599,30.3046875 L107.736599,31.5625 L107.799099,31.5625 C108.010037,31.0234375 108.603787,30.1796875 110.095974,30.1796875 C110.244412,30.1796875 110.408474,30.1953125 110.572537,30.2109375 L110.572537,31.3515625 C110.439724,31.328125 110.181912,31.3203125 109.947537,31.3203125 C108.478787,31.3203125 107.736599,32.2109375 107.736599,33.3203125 L107.736599,38.5 L106.510037,38.5 Z M115.163217,38.6328125 C112.983529,38.6328125 111.725717,37.21875 111.725717,35.0703125 L111.725717,33.7421875 C111.725717,31.5703125 113.116342,30.171875 115.061654,30.171875 C117.006967,30.171875 118.397592,31.5703125 118.397592,33.7421875 L118.397592,34.7421875 L112.960092,34.7421875 L112.960092,35.1640625 C112.960092,36.4921875 113.710092,37.546875 115.155404,37.546875 C116.155404,37.546875 116.819467,37.0703125 116.975717,36.5625 L118.280404,36.5625 C118.147592,37.3984375 117.163217,38.6328125 115.163217,38.6328125 Z M112.960092,33.7890625 L117.163217,33.7890625 L117.163217,33.640625 C117.163217,32.203125 116.327279,31.2578125 115.061654,31.2578125 C113.796029,31.2578125 112.960092,32.203125 112.960092,33.640625 L112.960092,33.7890625 Z" id="Label-One" fill-opacity="0.7" fill="#000000"></path>
                            <path d="M271.835938,38.5 L270.0625,38.5 L266.320312,27.8359375 L268.164062,27.8359375 L270.9375,36.546875 L271.023438,36.546875 L273.773438,27.8359375 L275.585938,27.8359375 L271.835938,38.5 Z M278.645368,38.6328125 C277.051618,38.6328125 275.950055,37.640625 275.950055,36.1015625 C275.950055,34.6484375 276.957868,33.6640625 278.856305,33.6640625 L280.973493,33.6640625 L280.973493,32.8828125 C280.973493,31.921875 280.34068,31.4765625 279.34068,31.4765625 C278.348493,31.4765625 277.918805,31.8671875 277.770368,32.4140625 L276.262555,32.4140625 C276.37193,31.0390625 277.442243,30.125 279.387555,30.125 C281.12193,30.125 282.551618,30.8515625 282.551618,32.90625 L282.551618,38.5 L281.043805,38.5 L281.043805,37.4296875 L280.973493,37.4296875 C280.59068,38.0625 279.864118,38.6328125 278.645368,38.6328125 Z M279.114118,37.3046875 C280.160993,37.3046875 280.973493,36.625 280.973493,35.703125 L280.973493,34.8125 L279.051618,34.8125 C277.99693,34.8125 277.543805,35.328125 277.543805,36.015625 C277.543805,36.890625 278.293805,37.3046875 279.114118,37.3046875 Z M284.861048,38.5 L284.861048,27.0390625 L286.439173,27.0390625 L286.439173,38.5 L284.861048,38.5 Z M295.623603,30.25 L295.623603,38.5 L294.068915,38.5 L294.068915,37.125 L293.982978,37.125 C293.756415,37.7890625 292.99079,38.6328125 291.545478,38.6328125 C289.89704,38.6328125 288.74079,37.84375 288.74079,35.9140625 L288.74079,30.25 L290.318915,30.25 L290.318915,35.46875 C290.318915,36.7890625 291.107978,37.1875 292.037665,37.1875 C293.170478,37.1875 294.05329,36.3828125 294.05329,35.34375 L294.05329,30.25 L295.623603,30.25 Z M301.128346,38.640625 C298.893971,38.640625 297.542408,37.2578125 297.542408,34.9375 L297.542408,33.8046875 C297.542408,31.4765625 299.026783,30.109375 301.018971,30.109375 C303.050221,30.109375 304.495533,31.5390625 304.495533,33.8046875 L304.495533,34.78125 L299.104908,34.78125 L299.104908,35.1875 C299.104908,36.3828125 299.823658,37.2734375 301.112721,37.2734375 C302.050221,37.2734375 302.683033,36.8359375 302.815846,36.328125 L304.393971,36.328125 C304.276783,37.2734375 303.276783,38.640625 301.128346,38.640625 Z M299.104908,33.6640625 L302.940846,33.6640625 L302.940846,33.546875 C302.940846,32.2890625 302.183033,31.453125 301.026783,31.453125 C299.870533,31.453125 299.104908,32.2890625 299.104908,33.546875 L299.104908,33.6640625 Z" id="Label-One" fill="#42B549"></path>
                        </g>
                        <path d="M18,64 L322,64" id="Line" stroke="#E0E0E0" stroke-width="0.5" stroke-linecap="square"></path>
                    </g>
                </g>
            </g>
        </g>
    </g>
</svg>