<?xml version="1.0" encoding="UTF-8"?>
<svg width="336px" height="602px" viewBox="0 0 336 602" version="1.1" xmlns="http://www.w3.org/2000/svg" xmlns:xlink="http://www.w3.org/1999/xlink">
    <!-- Generator: Sketch 48.2 (47327) - http://www.bohemiancoding.com/sketch -->
    <title>Group 9</title>
    <desc>Created with Sketch.</desc>
    <defs>
        <filter x="-3.6%" y="-2.4%" width="107.8%" height="103.7%" filterUnits="objectBoundingBox" id="filter-1">
            <feOffset dx="0" dy="1" in="SourceAlpha" result="shadowOffsetOuter1"></feOffset>
            <feGaussianBlur stdDeviation="2" in="shadowOffsetOuter1" result="shadowBlurOuter1"></feGaussianBlur>
            <feColorMatrix values="0 0 0 0 0   0 0 0 0 0   0 0 0 0 0  0 0 0 0.12 0" type="matrix" in="shadowBlurOuter1" result="shadowMatrixOuter1"></feColorMatrix>
            <feMerge>
                <feMergeNode in="shadowMatrixOuter1"></feMergeNode>
                <feMergeNode in="SourceGraphic"></feMergeNode>
            </feMerge>
        </filter>
        <rect id="path-2" x="0" y="0" width="320" height="72"></rect>
        <filter x="-3.4%" y="-16.7%" width="106.9%" height="130.6%" filterUnits="objectBoundingBox" id="filter-3">
            <feOffset dx="0" dy="-1" in="SourceAlpha" result="shadowOffsetOuter1"></feOffset>
            <feGaussianBlur stdDeviation="3.5" in="shadowOffsetOuter1" result="shadowBlurOuter1"></feGaussianBlur>
            <feColorMatrix values="0 0 0 0 0   0 0 0 0 0   0 0 0 0 0  0 0 0 0.15 0" type="matrix" in="shadowBlurOuter1"></feColorMatrix>
        </filter>
        <linearGradient x1="125.958807%" y1="50%" x2="56.4946338%" y2="50%" id="linearGradient-4">
            <stop stop-color="#F8F8F8" offset="0%"></stop>
            <stop stop-color="#E0E0E0" offset="100%"></stop>
        </linearGradient>
        <circle id="path-5" cx="14.5" cy="14.5" r="14"></circle>
        <filter x="-33.9%" y="-12.5%" width="167.9%" height="175.0%" filterUnits="objectBoundingBox" id="filter-6">
            <feMorphology radius="0.5" operator="dilate" in="SourceAlpha" result="shadowSpreadOuter1"></feMorphology>
            <feOffset dx="0" dy="3" in="shadowSpreadOuter1" result="shadowOffsetOuter1"></feOffset>
            <feGaussianBlur stdDeviation="1.5" in="shadowOffsetOuter1" result="shadowBlurOuter1"></feGaussianBlur>
            <feComposite in="shadowBlurOuter1" in2="SourceAlpha" operator="out" result="shadowBlurOuter1"></feComposite>
            <feColorMatrix values="0 0 0 0 0   0 0 0 0 0   0 0 0 0 0  0 0 0 0.05 0" type="matrix" in="shadowBlurOuter1" result="shadowMatrixOuter1"></feColorMatrix>
            <feMorphology radius="0.5" operator="dilate" in="SourceAlpha" result="shadowSpreadOuter2"></feMorphology>
            <feOffset dx="0" dy="2" in="shadowSpreadOuter2" result="shadowOffsetOuter2"></feOffset>
            <feGaussianBlur stdDeviation="1" in="shadowOffsetOuter2" result="shadowBlurOuter2"></feGaussianBlur>
            <feComposite in="shadowBlurOuter2" in2="SourceAlpha" operator="out" result="shadowBlurOuter2"></feComposite>
            <feColorMatrix values="0 0 0 0 0   0 0 0 0 0   0 0 0 0 0  0 0 0 0.2 0" type="matrix" in="shadowBlurOuter2" result="shadowMatrixOuter2"></feColorMatrix>
            <feMorphology radius="0.5" operator="dilate" in="SourceAlpha" result="shadowSpreadOuter3"></feMorphology>
            <feOffset dx="0" dy="3" in="shadowSpreadOuter3" result="shadowOffsetOuter3"></feOffset>
            <feGaussianBlur stdDeviation="0.5" in="shadowOffsetOuter3" result="shadowBlurOuter3"></feGaussianBlur>
            <feComposite in="shadowBlurOuter3" in2="SourceAlpha" operator="out" result="shadowBlurOuter3"></feComposite>
            <feColorMatrix values="0 0 0 0 0   0 0 0 0 0   0 0 0 0 0  0 0 0 0.0510643116 0" type="matrix" in="shadowBlurOuter3" result="shadowMatrixOuter3"></feColorMatrix>
            <feMerge>
                <feMergeNode in="shadowMatrixOuter1"></feMergeNode>
                <feMergeNode in="shadowMatrixOuter2"></feMergeNode>
                <feMergeNode in="shadowMatrixOuter3"></feMergeNode>
            </feMerge>
        </filter>
    </defs>
    <g id="CEKUNIFY-Website---Detail---List" stroke="none" stroke-width="1" fill="none" fill-rule="evenodd" transform="translate(-382.000000, -1100.000000)">
        <g id="Content" transform="translate(322.000000, 208.000000)">
            <g id="Group-9" transform="translate(65.000000, 892.000000)">
                <path d="M2.008,11 L0.136,11 L0.136,0.328 L4.84,0.328 C7.08,0.328 8.312,1.848 8.312,3.672 C8.312,5.48 7.064,7 4.84,7 L2.008,7 L2.008,11 Z M4.584,5.352 C5.64,5.352 6.392,4.68 6.392,3.672 C6.392,2.648 5.64,1.976 4.584,1.976 L2.008,1.976 L2.008,5.352 L4.584,5.352 Z M11.512,11 L9.832,11 L9.832,0.328 L11.512,0.328 L11.512,11 Z M20.104,11 L18.424,11 L18.424,10.152 C17.848,10.824 16.936,11.192 15.912,11.192 C14.664,11.192 13.24,10.328 13.24,8.632 C13.24,6.84 14.648,6.104 15.912,6.104 C16.968,6.104 17.848,6.44 18.424,7.096 L18.424,5.944 C18.424,5.048 17.672,4.504 16.616,4.504 C15.752,4.504 14.984,4.824 14.328,5.496 L13.624,4.328 C14.52,3.464 15.64,3.08 16.872,3.08 C18.6,3.08 20.104,3.8 20.104,5.864 L20.104,11 Z M16.584,10.04 C17.304,10.04 18.024,9.768 18.424,9.24 L18.424,8.056 C18.024,7.528 17.304,7.256 16.584,7.256 C15.64,7.256 14.92,7.816 14.92,8.648 C14.92,9.496 15.64,10.04 16.584,10.04 Z M23.128,2.328 C22.552,2.328 22.088,1.864 22.088,1.288 C22.088,0.712 22.552,0.248 23.128,0.248 C23.704,0.248 24.168,0.712 24.168,1.288 C24.168,1.864 23.704,2.328 23.128,2.328 Z M23.96,11 L22.28,11 L22.28,3.272 L23.96,3.272 L23.96,11 Z M33.048,11 L31.368,11 L31.368,6.168 C31.368,4.952 30.744,4.568 29.8,4.568 C28.952,4.568 28.216,5.08 27.816,5.592 L27.816,11 L26.136,11 L26.136,3.272 L27.816,3.272 L27.816,4.312 C28.328,3.704 29.336,3.08 30.552,3.08 C32.216,3.08 33.048,3.976 33.048,5.56 L33.048,11 Z M39.512,11.32 L38.264,11.32 L42.056,0.008 L43.304,0.008 L39.512,11.32 Z M50.44,11 L48.568,11 L48.568,0.328 L53.272,0.328 C55.512,0.328 56.744,1.848 56.744,3.672 C56.744,5.48 55.496,7 53.272,7 L50.44,7 L50.44,11 Z M53.016,5.352 C54.072,5.352 54.824,4.68 54.824,3.672 C54.824,2.648 54.072,1.976 53.016,1.976 L50.44,1.976 L50.44,5.352 L53.016,5.352 Z M59.944,11 L58.264,11 L58.264,0.328 L59.944,0.328 L59.944,11 Z M68.536,11 L66.856,11 L66.856,10.152 C66.28,10.824 65.368,11.192 64.344,11.192 C63.096,11.192 61.672,10.328 61.672,8.632 C61.672,6.84 63.08,6.104 64.344,6.104 C65.4,6.104 66.28,6.44 66.856,7.096 L66.856,5.944 C66.856,5.048 66.104,4.504 65.048,4.504 C64.184,4.504 63.416,4.824 62.76,5.496 L62.056,4.328 C62.952,3.464 64.072,3.08 65.304,3.08 C67.032,3.08 68.536,3.8 68.536,5.864 L68.536,11 Z M65.016,10.04 C65.736,10.04 66.456,9.768 66.856,9.24 L66.856,8.056 C66.456,7.528 65.736,7.256 65.016,7.256 C64.072,7.256 63.352,7.816 63.352,8.648 C63.352,9.496 64.072,10.04 65.016,10.04 Z M71.56,2.328 C70.984,2.328 70.52,1.864 70.52,1.288 C70.52,0.712 70.984,0.248 71.56,0.248 C72.136,0.248 72.6,0.712 72.6,1.288 C72.6,1.864 72.136,2.328 71.56,2.328 Z M72.392,11 L70.712,11 L70.712,3.272 L72.392,3.272 L72.392,11 Z M81.48,11 L79.8,11 L79.8,6.168 C79.8,4.952 79.176,4.568 78.232,4.568 C77.384,4.568 76.648,5.08 76.248,5.592 L76.248,11 L74.568,11 L74.568,3.272 L76.248,3.272 L76.248,4.312 C76.76,3.704 77.768,3.08 78.984,3.08 C80.648,3.08 81.48,3.976 81.48,5.56 L81.48,11 Z M94.264,6.136 L91.304,6.136 L91.304,9.464 L90.12,9.464 L90.12,6.136 L87.16,6.136 L87.16,5.064 L90.12,5.064 L90.12,1.848 L91.304,1.848 L91.304,5.064 L94.264,5.064 L94.264,6.136 Z M101.864,11 L99.992,11 L99.992,0.328 L101.864,0.328 L101.864,11 Z M107.608,11.192 C105.272,11.192 103.624,9.464 103.624,7.128 C103.624,4.792 105.272,3.08 107.608,3.08 C109.128,3.08 110.024,3.72 110.568,4.456 L109.464,5.464 C109.032,4.856 108.44,4.568 107.688,4.568 C106.296,4.568 105.352,5.624 105.352,7.128 C105.352,8.632 106.296,9.704 107.688,9.704 C108.44,9.704 109.032,9.384 109.464,8.776 L110.568,9.816 C110.024,10.536 109.128,11.192 107.608,11.192 Z M115.56,11.192 C113.096,11.192 111.592,9.336 111.592,7.128 C111.592,4.904 113.096,3.08 115.56,3.08 C118.024,3.08 119.528,4.904 119.528,7.128 C119.528,9.336 118.024,11.192 115.56,11.192 Z M115.56,9.704 C117,9.704 117.784,8.504 117.784,7.128 C117.784,5.768 117,4.568 115.56,4.568 C114.136,4.568 113.336,5.768 113.336,7.128 C113.336,8.504 114.136,9.704 115.56,9.704 Z M128.152,11 L126.472,11 L126.472,6.168 C126.472,4.952 125.848,4.568 124.904,4.568 C124.056,4.568 123.32,5.08 122.92,5.592 L122.92,11 L121.24,11 L121.24,3.272 L122.92,3.272 L122.92,4.312 C123.432,3.704 124.44,3.08 125.656,3.08 C127.32,3.08 128.152,3.976 128.152,5.56 L128.152,11 Z" id="Plain-/-Plain-+-Icon" fill-opacity="0.38" fill="#000000"></path>
                <g id="Group" filter="url(#filter-1)" transform="translate(1.000000, 29.000000)">
                    <rect id="Rectangle-10" fill="#FFFFFF" x="1" y="0" width="320" height="568"></rect>
                    <g id="Navigation-Bar/iOS/Single-Line" transform="translate(2.000000, 0.000000)">
                        <g id="Header-nav" stroke-width="1">
                            <g id="Rectangle-2">
                                <use fill="black" fill-opacity="1" filter="url(#filter-3)" xlink:href="#path-2"></use>
                                <use fill="#FFFFFF" fill-rule="evenodd" xlink:href="#path-2"></use>
                            </g>
                            <g id="Icon/iOS/Back-Button" transform="translate(16.000000, 39.000000)" fill="#DBDBDB">
                                <polygon id="Page-1" points="8.85 0 0 8.52091081 8.719 17 10.735 14.9526861 4.034 8.43532239 11 2.09108073"></polygon>
                            </g>
                            <g id="Status-Bar/White/100%" transform="translate(6.000000, 5.000000)">
                                <path d="M141.900391,10.6933594 C140.464844,10.6933594 139.398438,9.84375 139.128906,8.484375 L140.212891,8.484375 C140.441406,9.27539062 141.080078,9.75585938 141.912109,9.75585938 C143.289062,9.75585938 144.068359,8.53710938 144.126953,6.28710938 L144.033203,6.28710938 C143.617188,7.10742188 142.791016,7.58789062 141.783203,7.58789062 C140.171875,7.58789062 139.005859,6.3984375 139.005859,4.7578125 C139.005859,3.05859375 140.236328,1.84570312 141.970703,1.84570312 C143.236328,1.84570312 144.214844,2.51953125 144.742188,3.76757812 C145.017578,4.41210938 145.152344,5.19140625 145.152344,6.12304688 C145.152344,9.02929688 143.96875,10.6933594 141.900391,10.6933594 Z M141.970703,6.67382812 C143.089844,6.67382812 143.892578,5.87695312 143.892578,4.7578125 C143.892578,3.62695312 143.066406,2.77148438 141.982422,2.77148438 C140.898438,2.77148438 140.072266,3.61523438 140.072266,4.72265625 C140.072266,5.87695312 140.851562,6.67382812 141.970703,6.67382812 Z M147.683594,9.53320312 C148.105469,9.53320312 148.445312,9.1875 148.445312,8.77148438 C148.445312,8.34960938 148.105469,8.00976562 147.683594,8.00976562 C147.267578,8.00976562 146.921875,8.34960938 146.921875,8.77148438 C146.921875,9.1875 147.267578,9.53320312 147.683594,9.53320312 Z M147.683594,5.02734375 C148.105469,5.02734375 148.445312,4.68164062 148.445312,4.265625 C148.445312,3.84375 148.105469,3.50390625 147.683594,3.50390625 C147.267578,3.50390625 146.921875,3.84375 146.921875,4.265625 C146.921875,4.68164062 147.267578,5.02734375 147.683594,5.02734375 Z M154.269531,10.5 L154.269531,8.74804688 L150.150391,8.74804688 L150.150391,7.78710938 C150.90625,6.4453125 152.248047,4.32421875 153.771484,2.04492188 L155.300781,2.04492188 L155.300781,7.8046875 L156.501953,7.8046875 L156.501953,8.74804688 L155.300781,8.74804688 L155.300781,10.5 L154.269531,10.5 Z M151.228516,7.74023438 L151.228516,7.81054688 L154.275391,7.81054688 L154.275391,3.0234375 L154.205078,3.0234375 C153.337891,4.28320312 152.236328,6.02929688 151.228516,7.74023438 Z M160.152344,10.5 L161.207031,10.5 L161.207031,2.04492188 L160.158203,2.04492188 L157.908203,3.66210938 L157.908203,4.77539062 L160.058594,3.21679688 L160.152344,3.21679688 L160.152344,10.5 Z M172.744141,10.5 L171.894531,8.08007812 L168.53125,8.08007812 L167.681641,10.5 L166.574219,10.5 L169.691406,2.04492188 L170.734375,2.04492188 L173.851562,10.5 L172.744141,10.5 Z M170.166016,3.41015625 L168.841797,7.18359375 L171.583984,7.18359375 L170.259766,3.41015625 L170.166016,3.41015625 Z M176.318359,10.5 L176.318359,4.04296875 L176.388672,4.04296875 L179.054688,10.4414062 L179.945312,10.4414062 L182.611328,4.04296875 L182.681641,4.04296875 L182.681641,10.5 L183.666016,10.5 L183.666016,2.04492188 L182.441406,2.04492188 L179.546875,9.04101562 L179.453125,9.04101562 L176.558594,2.04492188 L175.333984,2.04492188 L175.333984,10.5 L176.318359,10.5 Z" id="9:41-AM" fill="#FFFFFF"></path>
                                <g id="Pin-Right" transform="translate(251.000000, 0.000000)" fill="#DBDBDB">
                                    <path d="M34.4937128,0.5 L54.0062872,0.5 C54.8266197,0.5 55.5,1.17394722 55.5,2.00530324 L55.5,8.49469676 C55.5,9.33197845 54.831242,10 54.0062872,10 L34.4937128,10 C33.6733803,10 33,9.32605278 33,8.49469676 L33,2.00530324 C33,1.16802155 33.668758,0.5 34.4937128,0.5 Z M56,3.5 L56.75,3.5 C57.1671014,3.5 57.5,3.83232111 57.5,4.24225998 L57.5,6.25774002 C57.5,6.66440529 57.1642136,7 56.75,7 L56,7 L56,3.5 Z M34.5081524,1 C33.9513652,1 33.5,1.45699692 33.5,2.00844055 L33.5,8.49155945 C33.5,9.04850578 33.9490581,9.5 34.5081524,9.5 L53.9918476,9.5 C54.5486348,9.5 55,9.04300308 55,8.49155945 L55,2.00844055 C55,1.45149422 54.5509419,1 53.9918476,1 L34.5081524,1 Z M34.5067444,1.5 L53.9932556,1.5 C54.2697754,1.5 54.5,1.72031886 54.5,1.99209595 L54.5,8.50790405 C54.5,8.78362799 54.2731228,9 53.9932556,9 L34.5067444,9 C34.2302246,9 34,8.77968114 34,8.50790405 L34,1.99209595 C34,1.71637201 34.2268772,1.5 34.5067444,1.5 Z" id="Battery"></path>
                                </g>
                                <g id="Signal" fill="#DBDBDB">
                                    <path d="M3.25,8 C1.73121694,8 0.5,6.76878306 0.5,5.25 C0.5,3.73121694 1.73121694,2.5 3.25,2.5 C4.76878306,2.5 6,3.73121694 6,5.25 C6,6.76878306 4.76878306,8 3.25,8 Z M10.25,8 C8.73121694,8 7.5,6.76878306 7.5,5.25 C7.5,3.73121694 8.73121694,2.5 10.25,2.5 C11.7687831,2.5 13,3.73121694 13,5.25 C13,6.76878306 11.7687831,8 10.25,8 Z M17.25,8 C15.7312169,8 14.5,6.76878306 14.5,5.25 C14.5,3.73121694 15.7312169,2.5 17.25,2.5 C18.7687831,2.5 20,3.73121694 20,5.25 C20,6.76878306 18.7687831,8 17.25,8 Z M24.25,8 C22.7312169,8 21.5,6.76878306 21.5,5.25 C21.5,3.73121694 22.7312169,2.5 24.25,2.5 C25.7687831,2.5 27,3.73121694 27,5.25 C27,6.76878306 25.7687831,8 24.25,8 Z M31.25,8 C29.7312169,8 28.5,6.76878306 28.5,5.25 C28.5,3.73121694 29.7312169,2.5 31.25,2.5 C32.7687831,2.5 34,3.73121694 34,5.25 C34,6.76878306 32.7687831,8 31.25,8 Z" id="Mobile-Signal"></path>
                                </g>
                            </g>
                        </g>
                        <rect id="Rectangle-8-Copy" fill="#DBDBDB" x="52.433518" y="43.2507278" width="132" height="6" rx="3"></rect>
                    </g>
                    <path d="M28.5,105.5 L162,105.5" id="Line-3" stroke="#DBDBDB" stroke-width="16" stroke-linecap="round"></path>
                    <path d="M24.5,132.5 L242.005172,132.5" id="Line-3" stroke="#DBDBDB" stroke-width="8" stroke-linecap="round"></path>
                    <path d="M24.5,170.5 L137.01,170.5" id="Line-3" stroke="#DBDBDB" stroke-width="8" stroke-linecap="round"></path>
                    <path d="M24.5,151.5 L290.000471,151.5" id="Line-3" stroke="#DBDBDB" stroke-width="8" stroke-linecap="round"></path>
                    <g id="List/Single-Line/With-Icon" transform="translate(0.000000, 334.000000)">
                        <g id="List">
                            <rect id="Cell" fill="#FFFFFF" x="0" y="0" width="322" height="65"></rect>
                            <path d="M18,64 L322,64" id="Line" stroke="#E0E0E0" stroke-width="0.5" stroke-linecap="square"></path>
                        </g>
                        <path d="M20.890625,38.5 L19.6484375,38.5 L19.6484375,28.9609375 L16.3828125,28.9609375 L16.3828125,27.8359375 L24.15625,27.8359375 L24.15625,28.9609375 L20.890625,28.9609375 L20.890625,38.5 Z M27.6844302,38.6328125 C25.5047427,38.6328125 24.2469302,37.21875 24.2469302,35.0703125 L24.2469302,33.7421875 C24.2469302,31.5703125 25.6375552,30.171875 27.5828677,30.171875 C29.5281802,30.171875 30.9188052,31.5703125 30.9188052,33.7421875 L30.9188052,34.7421875 L25.4813052,34.7421875 L25.4813052,35.1640625 C25.4813052,36.4921875 26.2313052,37.546875 27.6766177,37.546875 C28.6766177,37.546875 29.3406802,37.0703125 29.4969302,36.5625 L30.8016177,36.5625 C30.6688052,37.3984375 29.6844302,38.6328125 27.6844302,38.6328125 Z M25.4813052,33.7890625 L29.6844302,33.7890625 L29.6844302,33.640625 C29.6844302,32.203125 28.8484927,31.2578125 27.5828677,31.2578125 C26.3172427,31.2578125 25.4813052,32.203125 25.4813052,33.640625 L25.4813052,33.7890625 Z M37.5641728,38.5 L35.5485478,35.3828125 L35.5016728,35.3828125 L33.4782353,38.5 L32.0797978,38.5 L34.8610478,34.453125 L32.0641728,30.3046875 L33.5485478,30.3046875 L35.5094853,33.4140625 L35.5641728,33.4140625 L37.5876103,30.3046875 L39.0016728,30.3046875 L36.2047978,34.3125 L39.0485478,38.5 L37.5641728,38.5 Z M41.139228,30.3046875 L41.139228,28.2421875 L42.3657905,28.2421875 L42.3657905,30.3046875 L44.2251655,30.3046875 L44.2251655,31.328125 L42.3657905,31.328125 L42.3657905,36.2734375 C42.3657905,37.28125 42.686103,37.53125 43.7251655,37.53125 C43.9126655,37.53125 44.232978,37.5078125 44.357978,37.4921875 L44.357978,38.515625 C44.248603,38.5390625 43.670478,38.578125 43.4126655,38.578125 C41.4907905,38.578125 41.139228,37.8125 41.139228,36.2109375 L41.139228,31.328125 L39.889228,31.328125 L39.889228,30.3046875 L41.139228,30.3046875 Z M57.2424633,31.0546875 L56.0080883,31.0546875 C55.8049633,29.4375 54.6252758,28.7421875 53.3284008,28.7421875 C51.7346508,28.7421875 50.3752758,29.796875 50.3752758,32.3984375 L50.3752758,33.8828125 C50.3752758,36.203125 51.3830883,37.59375 53.2893383,37.59375 C54.8909008,37.59375 56.0549633,36.6015625 56.0549633,35.1875 L56.0549633,34.09375 L53.2112133,34.09375 L53.2112133,32.96875 L57.2737133,32.96875 L57.2737133,35.1875 C57.2737133,36.5390625 56.3127758,38.7265625 53.3127758,38.7265625 C50.5471508,38.7265625 49.1330883,36.875 49.1330883,33.8828125 L49.1330883,32.3984375 C49.1330883,29.34375 50.8362133,27.609375 53.3596508,27.609375 C55.7893383,27.609375 57.1096508,29.21875 57.2424633,31.0546875 Z M62.6534559,30.171875 C64.6300184,30.171875 66.1300184,31.46875 66.1300184,33.75 L66.1300184,35.046875 C66.1300184,37.328125 64.6300184,38.6328125 62.6534559,38.6328125 C60.6378309,38.6328125 59.1690809,37.3515625 59.1690809,35.046875 L59.1690809,33.75 C59.1690809,31.5546875 60.6690809,30.171875 62.6534559,30.171875 Z M62.6612684,31.2578125 C61.2940809,31.2578125 60.3956434,32.3203125 60.3956434,33.890625 L60.3956434,34.921875 C60.3956434,36.53125 61.2393934,37.546875 62.6612684,37.546875 C64.0753309,37.546875 64.9034559,36.53125 64.9034559,34.921875 L64.9034559,33.890625 C64.9034559,32.3203125 64.0362684,31.2578125 62.6612684,31.2578125 Z M71.2441361,38.6328125 C69.0644486,38.6328125 67.8066361,37.21875 67.8066361,35.0703125 L67.8066361,33.7421875 C67.8066361,31.5703125 69.1972611,30.171875 71.1425736,30.171875 C73.0878861,30.171875 74.4785111,31.5703125 74.4785111,33.7421875 L74.4785111,34.7421875 L69.0410111,34.7421875 L69.0410111,35.1640625 C69.0410111,36.4921875 69.7910111,37.546875 71.2363236,37.546875 C72.2363236,37.546875 72.9003861,37.0703125 73.0566361,36.5625 L74.3613236,36.5625 C74.2285111,37.3984375 73.2441361,38.6328125 71.2441361,38.6328125 Z M69.0410111,33.7890625 L73.2441361,33.7890625 L73.2441361,33.640625 C73.2441361,32.203125 72.4081986,31.2578125 71.1425736,31.2578125 C69.8769486,31.2578125 69.0410111,32.203125 69.0410111,33.640625 L69.0410111,33.7890625 Z M76.1004412,32.6328125 C76.1004412,30.921875 77.5379412,30.171875 79.0926287,30.171875 C80.8348162,30.171875 81.9676287,31.1015625 81.9676287,32.4375 L80.8113787,32.4375 C80.7645037,31.8359375 80.2020037,31.1953125 79.0379412,31.1953125 C78.0379412,31.1953125 77.3035662,31.65625 77.3035662,32.5 C77.3035662,33.515625 78.3738787,33.6484375 79.3113787,33.8203125 C80.8504412,34.09375 82.1707537,34.484375 82.1707537,36.1015625 C82.1707537,37.7265625 80.8582537,38.6328125 78.9676287,38.6328125 C77.2176287,38.6328125 75.9598162,37.8515625 75.9598162,36.3828125 L77.1629412,36.3828125 C77.2801287,37.1484375 77.8035662,37.6171875 79.0223162,37.6171875 C80.3973162,37.6171875 80.9598162,37 80.9598162,36.25 C80.9598162,35.296875 80.0613787,35.109375 78.8973162,34.8828125 C77.3582537,34.5625 76.1004412,34.25 76.1004412,32.6328125 Z M95.5005515,38.5 L94.258364,38.5 L94.258364,33.53125 L88.742739,33.53125 L88.742739,38.5 L87.5005515,38.5 L87.5005515,27.8359375 L88.742739,27.8359375 L88.742739,32.40625 L94.258364,32.40625 L94.258364,27.8359375 L95.5005515,27.8359375 L95.5005515,38.5 Z M101.099044,38.6328125 C98.9193567,38.6328125 97.6615442,37.21875 97.6615442,35.0703125 L97.6615442,33.7421875 C97.6615442,31.5703125 99.0521692,30.171875 100.997482,30.171875 C102.942794,30.171875 104.333419,31.5703125 104.333419,33.7421875 L104.333419,34.7421875 L98.8959192,34.7421875 L98.8959192,35.1640625 C98.8959192,36.4921875 99.6459192,37.546875 101.091232,37.546875 C102.091232,37.546875 102.755294,37.0703125 102.911544,36.5625 L104.216232,36.5625 C104.083419,37.3984375 103.099044,38.6328125 101.099044,38.6328125 Z M98.8959192,33.7890625 L103.099044,33.7890625 L103.099044,33.640625 C103.099044,32.203125 102.263107,31.2578125 100.997482,31.2578125 C99.7318567,31.2578125 98.8959192,32.203125 98.8959192,33.640625 L98.8959192,33.7890625 Z M106.510037,38.5 L106.510037,30.3046875 L107.736599,30.3046875 L107.736599,31.5625 L107.799099,31.5625 C108.010037,31.0234375 108.603787,30.1796875 110.095974,30.1796875 C110.244412,30.1796875 110.408474,30.1953125 110.572537,30.2109375 L110.572537,31.3515625 C110.439724,31.328125 110.181912,31.3203125 109.947537,31.3203125 C108.478787,31.3203125 107.736599,32.2109375 107.736599,33.3203125 L107.736599,38.5 L106.510037,38.5 Z M115.163217,38.6328125 C112.983529,38.6328125 111.725717,37.21875 111.725717,35.0703125 L111.725717,33.7421875 C111.725717,31.5703125 113.116342,30.171875 115.061654,30.171875 C117.006967,30.171875 118.397592,31.5703125 118.397592,33.7421875 L118.397592,34.7421875 L112.960092,34.7421875 L112.960092,35.1640625 C112.960092,36.4921875 113.710092,37.546875 115.155404,37.546875 C116.155404,37.546875 116.819467,37.0703125 116.975717,36.5625 L118.280404,36.5625 C118.147592,37.3984375 117.163217,38.6328125 115.163217,38.6328125 Z M112.960092,33.7890625 L117.163217,33.7890625 L117.163217,33.640625 C117.163217,32.203125 116.327279,31.2578125 115.061654,31.2578125 C113.796029,31.2578125 112.960092,32.203125 112.960092,33.640625 L112.960092,33.7890625 Z" id="Label-One" fill-opacity="0.7" fill="#000000"></path>
                        <g id="Icon/Carret" transform="translate(255.000000, 12.000000)" fill="#BDBDBD">
                            <polygon id="Disclosure-Indicator" points="43 15.5 44.5 14 51 20.5 44.5 27 43 25.5 48 20.5"></polygon>
                        </g>
                    </g>
                    <g id="List/Single-Line/With-Icon-Copy" transform="translate(0.000000, 399.000000)">
                        <g id="List">
                            <rect id="Cell" fill="#FFFFFF" x="0" y="0" width="322" height="65"></rect>
                            <path d="M18,64 L322,64" id="Line" stroke="#E0E0E0" stroke-width="0.5" stroke-linecap="square"></path>
                        </g>
                        <path d="M20.890625,38.5 L19.6484375,38.5 L19.6484375,28.9609375 L16.3828125,28.9609375 L16.3828125,27.8359375 L24.15625,27.8359375 L24.15625,28.9609375 L20.890625,28.9609375 L20.890625,38.5 Z M27.6844302,38.6328125 C25.5047427,38.6328125 24.2469302,37.21875 24.2469302,35.0703125 L24.2469302,33.7421875 C24.2469302,31.5703125 25.6375552,30.171875 27.5828677,30.171875 C29.5281802,30.171875 30.9188052,31.5703125 30.9188052,33.7421875 L30.9188052,34.7421875 L25.4813052,34.7421875 L25.4813052,35.1640625 C25.4813052,36.4921875 26.2313052,37.546875 27.6766177,37.546875 C28.6766177,37.546875 29.3406802,37.0703125 29.4969302,36.5625 L30.8016177,36.5625 C30.6688052,37.3984375 29.6844302,38.6328125 27.6844302,38.6328125 Z M25.4813052,33.7890625 L29.6844302,33.7890625 L29.6844302,33.640625 C29.6844302,32.203125 28.8484927,31.2578125 27.5828677,31.2578125 C26.3172427,31.2578125 25.4813052,32.203125 25.4813052,33.640625 L25.4813052,33.7890625 Z M37.5641728,38.5 L35.5485478,35.3828125 L35.5016728,35.3828125 L33.4782353,38.5 L32.0797978,38.5 L34.8610478,34.453125 L32.0641728,30.3046875 L33.5485478,30.3046875 L35.5094853,33.4140625 L35.5641728,33.4140625 L37.5876103,30.3046875 L39.0016728,30.3046875 L36.2047978,34.3125 L39.0485478,38.5 L37.5641728,38.5 Z M41.139228,30.3046875 L41.139228,28.2421875 L42.3657905,28.2421875 L42.3657905,30.3046875 L44.2251655,30.3046875 L44.2251655,31.328125 L42.3657905,31.328125 L42.3657905,36.2734375 C42.3657905,37.28125 42.686103,37.53125 43.7251655,37.53125 C43.9126655,37.53125 44.232978,37.5078125 44.357978,37.4921875 L44.357978,38.515625 C44.248603,38.5390625 43.670478,38.578125 43.4126655,38.578125 C41.4907905,38.578125 41.139228,37.8125 41.139228,36.2109375 L41.139228,31.328125 L39.889228,31.328125 L39.889228,30.3046875 L41.139228,30.3046875 Z M57.2424633,31.0546875 L56.0080883,31.0546875 C55.8049633,29.4375 54.6252758,28.7421875 53.3284008,28.7421875 C51.7346508,28.7421875 50.3752758,29.796875 50.3752758,32.3984375 L50.3752758,33.8828125 C50.3752758,36.203125 51.3830883,37.59375 53.2893383,37.59375 C54.8909008,37.59375 56.0549633,36.6015625 56.0549633,35.1875 L56.0549633,34.09375 L53.2112133,34.09375 L53.2112133,32.96875 L57.2737133,32.96875 L57.2737133,35.1875 C57.2737133,36.5390625 56.3127758,38.7265625 53.3127758,38.7265625 C50.5471508,38.7265625 49.1330883,36.875 49.1330883,33.8828125 L49.1330883,32.3984375 C49.1330883,29.34375 50.8362133,27.609375 53.3596508,27.609375 C55.7893383,27.609375 57.1096508,29.21875 57.2424633,31.0546875 Z M62.6534559,30.171875 C64.6300184,30.171875 66.1300184,31.46875 66.1300184,33.75 L66.1300184,35.046875 C66.1300184,37.328125 64.6300184,38.6328125 62.6534559,38.6328125 C60.6378309,38.6328125 59.1690809,37.3515625 59.1690809,35.046875 L59.1690809,33.75 C59.1690809,31.5546875 60.6690809,30.171875 62.6534559,30.171875 Z M62.6612684,31.2578125 C61.2940809,31.2578125 60.3956434,32.3203125 60.3956434,33.890625 L60.3956434,34.921875 C60.3956434,36.53125 61.2393934,37.546875 62.6612684,37.546875 C64.0753309,37.546875 64.9034559,36.53125 64.9034559,34.921875 L64.9034559,33.890625 C64.9034559,32.3203125 64.0362684,31.2578125 62.6612684,31.2578125 Z M71.2441361,38.6328125 C69.0644486,38.6328125 67.8066361,37.21875 67.8066361,35.0703125 L67.8066361,33.7421875 C67.8066361,31.5703125 69.1972611,30.171875 71.1425736,30.171875 C73.0878861,30.171875 74.4785111,31.5703125 74.4785111,33.7421875 L74.4785111,34.7421875 L69.0410111,34.7421875 L69.0410111,35.1640625 C69.0410111,36.4921875 69.7910111,37.546875 71.2363236,37.546875 C72.2363236,37.546875 72.9003861,37.0703125 73.0566361,36.5625 L74.3613236,36.5625 C74.2285111,37.3984375 73.2441361,38.6328125 71.2441361,38.6328125 Z M69.0410111,33.7890625 L73.2441361,33.7890625 L73.2441361,33.640625 C73.2441361,32.203125 72.4081986,31.2578125 71.1425736,31.2578125 C69.8769486,31.2578125 69.0410111,32.203125 69.0410111,33.640625 L69.0410111,33.7890625 Z M76.1004412,32.6328125 C76.1004412,30.921875 77.5379412,30.171875 79.0926287,30.171875 C80.8348162,30.171875 81.9676287,31.1015625 81.9676287,32.4375 L80.8113787,32.4375 C80.7645037,31.8359375 80.2020037,31.1953125 79.0379412,31.1953125 C78.0379412,31.1953125 77.3035662,31.65625 77.3035662,32.5 C77.3035662,33.515625 78.3738787,33.6484375 79.3113787,33.8203125 C80.8504412,34.09375 82.1707537,34.484375 82.1707537,36.1015625 C82.1707537,37.7265625 80.8582537,38.6328125 78.9676287,38.6328125 C77.2176287,38.6328125 75.9598162,37.8515625 75.9598162,36.3828125 L77.1629412,36.3828125 C77.2801287,37.1484375 77.8035662,37.6171875 79.0223162,37.6171875 C80.3973162,37.6171875 80.9598162,37 80.9598162,36.25 C80.9598162,35.296875 80.0613787,35.109375 78.8973162,34.8828125 C77.3582537,34.5625 76.1004412,34.25 76.1004412,32.6328125 Z M95.5005515,38.5 L94.258364,38.5 L94.258364,33.53125 L88.742739,33.53125 L88.742739,38.5 L87.5005515,38.5 L87.5005515,27.8359375 L88.742739,27.8359375 L88.742739,32.40625 L94.258364,32.40625 L94.258364,27.8359375 L95.5005515,27.8359375 L95.5005515,38.5 Z M101.099044,38.6328125 C98.9193567,38.6328125 97.6615442,37.21875 97.6615442,35.0703125 L97.6615442,33.7421875 C97.6615442,31.5703125 99.0521692,30.171875 100.997482,30.171875 C102.942794,30.171875 104.333419,31.5703125 104.333419,33.7421875 L104.333419,34.7421875 L98.8959192,34.7421875 L98.8959192,35.1640625 C98.8959192,36.4921875 99.6459192,37.546875 101.091232,37.546875 C102.091232,37.546875 102.755294,37.0703125 102.911544,36.5625 L104.216232,36.5625 C104.083419,37.3984375 103.099044,38.6328125 101.099044,38.6328125 Z M98.8959192,33.7890625 L103.099044,33.7890625 L103.099044,33.640625 C103.099044,32.203125 102.263107,31.2578125 100.997482,31.2578125 C99.7318567,31.2578125 98.8959192,32.203125 98.8959192,33.640625 L98.8959192,33.7890625 Z M106.510037,38.5 L106.510037,30.3046875 L107.736599,30.3046875 L107.736599,31.5625 L107.799099,31.5625 C108.010037,31.0234375 108.603787,30.1796875 110.095974,30.1796875 C110.244412,30.1796875 110.408474,30.1953125 110.572537,30.2109375 L110.572537,31.3515625 C110.439724,31.328125 110.181912,31.3203125 109.947537,31.3203125 C108.478787,31.3203125 107.736599,32.2109375 107.736599,33.3203125 L107.736599,38.5 L106.510037,38.5 Z M115.163217,38.6328125 C112.983529,38.6328125 111.725717,37.21875 111.725717,35.0703125 L111.725717,33.7421875 C111.725717,31.5703125 113.116342,30.171875 115.061654,30.171875 C117.006967,30.171875 118.397592,31.5703125 118.397592,33.7421875 L118.397592,34.7421875 L112.960092,34.7421875 L112.960092,35.1640625 C112.960092,36.4921875 113.710092,37.546875 115.155404,37.546875 C116.155404,37.546875 116.819467,37.0703125 116.975717,36.5625 L118.280404,36.5625 C118.147592,37.3984375 117.163217,38.6328125 115.163217,38.6328125 Z M112.960092,33.7890625 L117.163217,33.7890625 L117.163217,33.640625 C117.163217,32.203125 116.327279,31.2578125 115.061654,31.2578125 C113.796029,31.2578125 112.960092,32.203125 112.960092,33.640625 L112.960092,33.7890625 Z" id="Label-One" fill-opacity="0.7" fill="#000000"></path>
                        <g id="Icon/Check-Box/Unselected" transform="translate(255.000000, 12.000000)" stroke="#BDBDBD" stroke-width="1.5">
                            <path d="M27,11.93856 C27,10.0399022 28.5374051,8.5 30.43856,8.5 L47.56144,8.5 C49.4609302,8.5 51,10.0382374 51,11.93856 L51,29.06144 C51,30.9609302 49.4625949,32.5 47.56144,32.5 L30.43856,32.5 C28.5399022,32.5 27,30.9625949 27,29.06144 L27,11.93856 Z" id="Stroke-4"></path>
                        </g>
                    </g>
                    <g id="List/Single-Line/With-Icon-Copy-2" transform="translate(0.000000, 464.000000)">
                        <g id="List">
                            <rect id="Cell" fill="#FFFFFF" x="0" y="0" width="322" height="65"></rect>
                            <path d="M18,64 L322,64" id="Line" stroke="#E0E0E0" stroke-width="0.5" stroke-linecap="square"></path>
                        </g>
                        <path d="M20.890625,38.5 L19.6484375,38.5 L19.6484375,28.9609375 L16.3828125,28.9609375 L16.3828125,27.8359375 L24.15625,27.8359375 L24.15625,28.9609375 L20.890625,28.9609375 L20.890625,38.5 Z M27.6844302,38.6328125 C25.5047427,38.6328125 24.2469302,37.21875 24.2469302,35.0703125 L24.2469302,33.7421875 C24.2469302,31.5703125 25.6375552,30.171875 27.5828677,30.171875 C29.5281802,30.171875 30.9188052,31.5703125 30.9188052,33.7421875 L30.9188052,34.7421875 L25.4813052,34.7421875 L25.4813052,35.1640625 C25.4813052,36.4921875 26.2313052,37.546875 27.6766177,37.546875 C28.6766177,37.546875 29.3406802,37.0703125 29.4969302,36.5625 L30.8016177,36.5625 C30.6688052,37.3984375 29.6844302,38.6328125 27.6844302,38.6328125 Z M25.4813052,33.7890625 L29.6844302,33.7890625 L29.6844302,33.640625 C29.6844302,32.203125 28.8484927,31.2578125 27.5828677,31.2578125 C26.3172427,31.2578125 25.4813052,32.203125 25.4813052,33.640625 L25.4813052,33.7890625 Z M37.5641728,38.5 L35.5485478,35.3828125 L35.5016728,35.3828125 L33.4782353,38.5 L32.0797978,38.5 L34.8610478,34.453125 L32.0641728,30.3046875 L33.5485478,30.3046875 L35.5094853,33.4140625 L35.5641728,33.4140625 L37.5876103,30.3046875 L39.0016728,30.3046875 L36.2047978,34.3125 L39.0485478,38.5 L37.5641728,38.5 Z M41.139228,30.3046875 L41.139228,28.2421875 L42.3657905,28.2421875 L42.3657905,30.3046875 L44.2251655,30.3046875 L44.2251655,31.328125 L42.3657905,31.328125 L42.3657905,36.2734375 C42.3657905,37.28125 42.686103,37.53125 43.7251655,37.53125 C43.9126655,37.53125 44.232978,37.5078125 44.357978,37.4921875 L44.357978,38.515625 C44.248603,38.5390625 43.670478,38.578125 43.4126655,38.578125 C41.4907905,38.578125 41.139228,37.8125 41.139228,36.2109375 L41.139228,31.328125 L39.889228,31.328125 L39.889228,30.3046875 L41.139228,30.3046875 Z M57.2424633,31.0546875 L56.0080883,31.0546875 C55.8049633,29.4375 54.6252758,28.7421875 53.3284008,28.7421875 C51.7346508,28.7421875 50.3752758,29.796875 50.3752758,32.3984375 L50.3752758,33.8828125 C50.3752758,36.203125 51.3830883,37.59375 53.2893383,37.59375 C54.8909008,37.59375 56.0549633,36.6015625 56.0549633,35.1875 L56.0549633,34.09375 L53.2112133,34.09375 L53.2112133,32.96875 L57.2737133,32.96875 L57.2737133,35.1875 C57.2737133,36.5390625 56.3127758,38.7265625 53.3127758,38.7265625 C50.5471508,38.7265625 49.1330883,36.875 49.1330883,33.8828125 L49.1330883,32.3984375 C49.1330883,29.34375 50.8362133,27.609375 53.3596508,27.609375 C55.7893383,27.609375 57.1096508,29.21875 57.2424633,31.0546875 Z M62.6534559,30.171875 C64.6300184,30.171875 66.1300184,31.46875 66.1300184,33.75 L66.1300184,35.046875 C66.1300184,37.328125 64.6300184,38.6328125 62.6534559,38.6328125 C60.6378309,38.6328125 59.1690809,37.3515625 59.1690809,35.046875 L59.1690809,33.75 C59.1690809,31.5546875 60.6690809,30.171875 62.6534559,30.171875 Z M62.6612684,31.2578125 C61.2940809,31.2578125 60.3956434,32.3203125 60.3956434,33.890625 L60.3956434,34.921875 C60.3956434,36.53125 61.2393934,37.546875 62.6612684,37.546875 C64.0753309,37.546875 64.9034559,36.53125 64.9034559,34.921875 L64.9034559,33.890625 C64.9034559,32.3203125 64.0362684,31.2578125 62.6612684,31.2578125 Z M71.2441361,38.6328125 C69.0644486,38.6328125 67.8066361,37.21875 67.8066361,35.0703125 L67.8066361,33.7421875 C67.8066361,31.5703125 69.1972611,30.171875 71.1425736,30.171875 C73.0878861,30.171875 74.4785111,31.5703125 74.4785111,33.7421875 L74.4785111,34.7421875 L69.0410111,34.7421875 L69.0410111,35.1640625 C69.0410111,36.4921875 69.7910111,37.546875 71.2363236,37.546875 C72.2363236,37.546875 72.9003861,37.0703125 73.0566361,36.5625 L74.3613236,36.5625 C74.2285111,37.3984375 73.2441361,38.6328125 71.2441361,38.6328125 Z M69.0410111,33.7890625 L73.2441361,33.7890625 L73.2441361,33.640625 C73.2441361,32.203125 72.4081986,31.2578125 71.1425736,31.2578125 C69.8769486,31.2578125 69.0410111,32.203125 69.0410111,33.640625 L69.0410111,33.7890625 Z M76.1004412,32.6328125 C76.1004412,30.921875 77.5379412,30.171875 79.0926287,30.171875 C80.8348162,30.171875 81.9676287,31.1015625 81.9676287,32.4375 L80.8113787,32.4375 C80.7645037,31.8359375 80.2020037,31.1953125 79.0379412,31.1953125 C78.0379412,31.1953125 77.3035662,31.65625 77.3035662,32.5 C77.3035662,33.515625 78.3738787,33.6484375 79.3113787,33.8203125 C80.8504412,34.09375 82.1707537,34.484375 82.1707537,36.1015625 C82.1707537,37.7265625 80.8582537,38.6328125 78.9676287,38.6328125 C77.2176287,38.6328125 75.9598162,37.8515625 75.9598162,36.3828125 L77.1629412,36.3828125 C77.2801287,37.1484375 77.8035662,37.6171875 79.0223162,37.6171875 C80.3973162,37.6171875 80.9598162,37 80.9598162,36.25 C80.9598162,35.296875 80.0613787,35.109375 78.8973162,34.8828125 C77.3582537,34.5625 76.1004412,34.25 76.1004412,32.6328125 Z M95.5005515,38.5 L94.258364,38.5 L94.258364,33.53125 L88.742739,33.53125 L88.742739,38.5 L87.5005515,38.5 L87.5005515,27.8359375 L88.742739,27.8359375 L88.742739,32.40625 L94.258364,32.40625 L94.258364,27.8359375 L95.5005515,27.8359375 L95.5005515,38.5 Z M101.099044,38.6328125 C98.9193567,38.6328125 97.6615442,37.21875 97.6615442,35.0703125 L97.6615442,33.7421875 C97.6615442,31.5703125 99.0521692,30.171875 100.997482,30.171875 C102.942794,30.171875 104.333419,31.5703125 104.333419,33.7421875 L104.333419,34.7421875 L98.8959192,34.7421875 L98.8959192,35.1640625 C98.8959192,36.4921875 99.6459192,37.546875 101.091232,37.546875 C102.091232,37.546875 102.755294,37.0703125 102.911544,36.5625 L104.216232,36.5625 C104.083419,37.3984375 103.099044,38.6328125 101.099044,38.6328125 Z M98.8959192,33.7890625 L103.099044,33.7890625 L103.099044,33.640625 C103.099044,32.203125 102.263107,31.2578125 100.997482,31.2578125 C99.7318567,31.2578125 98.8959192,32.203125 98.8959192,33.640625 L98.8959192,33.7890625 Z M106.510037,38.5 L106.510037,30.3046875 L107.736599,30.3046875 L107.736599,31.5625 L107.799099,31.5625 C108.010037,31.0234375 108.603787,30.1796875 110.095974,30.1796875 C110.244412,30.1796875 110.408474,30.1953125 110.572537,30.2109375 L110.572537,31.3515625 C110.439724,31.328125 110.181912,31.3203125 109.947537,31.3203125 C108.478787,31.3203125 107.736599,32.2109375 107.736599,33.3203125 L107.736599,38.5 L106.510037,38.5 Z M115.163217,38.6328125 C112.983529,38.6328125 111.725717,37.21875 111.725717,35.0703125 L111.725717,33.7421875 C111.725717,31.5703125 113.116342,30.171875 115.061654,30.171875 C117.006967,30.171875 118.397592,31.5703125 118.397592,33.7421875 L118.397592,34.7421875 L112.960092,34.7421875 L112.960092,35.1640625 C112.960092,36.4921875 113.710092,37.546875 115.155404,37.546875 C116.155404,37.546875 116.819467,37.0703125 116.975717,36.5625 L118.280404,36.5625 C118.147592,37.3984375 117.163217,38.6328125 115.163217,38.6328125 Z M112.960092,33.7890625 L117.163217,33.7890625 L117.163217,33.640625 C117.163217,32.203125 116.327279,31.2578125 115.061654,31.2578125 C113.796029,31.2578125 112.960092,32.203125 112.960092,33.640625 L112.960092,33.7890625 Z" id="Label-One" fill-opacity="0.7" fill="#000000"></path>
                        <g id="Icon/Toggle/Switch-OFF" transform="translate(255.000000, 12.000000)">
                            <g id="Off" transform="translate(1.000000, 6.000000)">
                                <rect id="White-Background" fill="url(#linearGradient-4)" x="0.5" y="2" width="49.5" height="26" rx="13"></rect>
                                <g id="Knob">
                                    <use fill="black" fill-opacity="1" filter="url(#filter-6)" xlink:href="#path-5"></use>
                                    <use fill="#FFFFFF" fill-rule="evenodd" xlink:href="#path-5"></use>
                                    <circle stroke="#E0E0E0" stroke-width="0.5" cx="14.5" cy="14.5" r="14.25"></circle>
                                </g>
                                <path d="M9.63500977,19.0251465 L19.0251465,9.63500977" id="Line" stroke="#BDBDBD" stroke-width="2" stroke-linecap="round" stroke-linejoin="round"></path>
                                <path d="M9.63500977,9.63500977 L19.0251465,19.0251465" id="Line" stroke="#BDBDBD" stroke-width="2" stroke-linecap="round" stroke-linejoin="round"></path>
                            </g>
                        </g>
                    </g>
                    <g id="List" transform="translate(0.000000, 269.000000)">
                        <g id="One">
                            <rect id="Cell" fill="#FFFFFF" x="0" y="0" width="322" height="65"></rect>
                            <path d="M18,64 L322,64" id="Line" stroke="#E0E0E0" stroke-width="0.5" stroke-linecap="square"></path>
                        </g>
                        <path d="M20.890625,38.5 L19.6484375,38.5 L19.6484375,28.9609375 L16.3828125,28.9609375 L16.3828125,27.8359375 L24.15625,27.8359375 L24.15625,28.9609375 L20.890625,28.9609375 L20.890625,38.5 Z M27.6844302,38.6328125 C25.5047427,38.6328125 24.2469302,37.21875 24.2469302,35.0703125 L24.2469302,33.7421875 C24.2469302,31.5703125 25.6375552,30.171875 27.5828677,30.171875 C29.5281802,30.171875 30.9188052,31.5703125 30.9188052,33.7421875 L30.9188052,34.7421875 L25.4813052,34.7421875 L25.4813052,35.1640625 C25.4813052,36.4921875 26.2313052,37.546875 27.6766177,37.546875 C28.6766177,37.546875 29.3406802,37.0703125 29.4969302,36.5625 L30.8016177,36.5625 C30.6688052,37.3984375 29.6844302,38.6328125 27.6844302,38.6328125 Z M25.4813052,33.7890625 L29.6844302,33.7890625 L29.6844302,33.640625 C29.6844302,32.203125 28.8484927,31.2578125 27.5828677,31.2578125 C26.3172427,31.2578125 25.4813052,32.203125 25.4813052,33.640625 L25.4813052,33.7890625 Z M37.5641728,38.5 L35.5485478,35.3828125 L35.5016728,35.3828125 L33.4782353,38.5 L32.0797978,38.5 L34.8610478,34.453125 L32.0641728,30.3046875 L33.5485478,30.3046875 L35.5094853,33.4140625 L35.5641728,33.4140625 L37.5876103,30.3046875 L39.0016728,30.3046875 L36.2047978,34.3125 L39.0485478,38.5 L37.5641728,38.5 Z M41.139228,30.3046875 L41.139228,28.2421875 L42.3657905,28.2421875 L42.3657905,30.3046875 L44.2251655,30.3046875 L44.2251655,31.328125 L42.3657905,31.328125 L42.3657905,36.2734375 C42.3657905,37.28125 42.686103,37.53125 43.7251655,37.53125 C43.9126655,37.53125 44.232978,37.5078125 44.357978,37.4921875 L44.357978,38.515625 C44.248603,38.5390625 43.670478,38.578125 43.4126655,38.578125 C41.4907905,38.578125 41.139228,37.8125 41.139228,36.2109375 L41.139228,31.328125 L39.889228,31.328125 L39.889228,30.3046875 L41.139228,30.3046875 Z M57.2424633,31.0546875 L56.0080883,31.0546875 C55.8049633,29.4375 54.6252758,28.7421875 53.3284008,28.7421875 C51.7346508,28.7421875 50.3752758,29.796875 50.3752758,32.3984375 L50.3752758,33.8828125 C50.3752758,36.203125 51.3830883,37.59375 53.2893383,37.59375 C54.8909008,37.59375 56.0549633,36.6015625 56.0549633,35.1875 L56.0549633,34.09375 L53.2112133,34.09375 L53.2112133,32.96875 L57.2737133,32.96875 L57.2737133,35.1875 C57.2737133,36.5390625 56.3127758,38.7265625 53.3127758,38.7265625 C50.5471508,38.7265625 49.1330883,36.875 49.1330883,33.8828125 L49.1330883,32.3984375 C49.1330883,29.34375 50.8362133,27.609375 53.3596508,27.609375 C55.7893383,27.609375 57.1096508,29.21875 57.2424633,31.0546875 Z M62.6534559,30.171875 C64.6300184,30.171875 66.1300184,31.46875 66.1300184,33.75 L66.1300184,35.046875 C66.1300184,37.328125 64.6300184,38.6328125 62.6534559,38.6328125 C60.6378309,38.6328125 59.1690809,37.3515625 59.1690809,35.046875 L59.1690809,33.75 C59.1690809,31.5546875 60.6690809,30.171875 62.6534559,30.171875 Z M62.6612684,31.2578125 C61.2940809,31.2578125 60.3956434,32.3203125 60.3956434,33.890625 L60.3956434,34.921875 C60.3956434,36.53125 61.2393934,37.546875 62.6612684,37.546875 C64.0753309,37.546875 64.9034559,36.53125 64.9034559,34.921875 L64.9034559,33.890625 C64.9034559,32.3203125 64.0362684,31.2578125 62.6612684,31.2578125 Z M71.2441361,38.6328125 C69.0644486,38.6328125 67.8066361,37.21875 67.8066361,35.0703125 L67.8066361,33.7421875 C67.8066361,31.5703125 69.1972611,30.171875 71.1425736,30.171875 C73.0878861,30.171875 74.4785111,31.5703125 74.4785111,33.7421875 L74.4785111,34.7421875 L69.0410111,34.7421875 L69.0410111,35.1640625 C69.0410111,36.4921875 69.7910111,37.546875 71.2363236,37.546875 C72.2363236,37.546875 72.9003861,37.0703125 73.0566361,36.5625 L74.3613236,36.5625 C74.2285111,37.3984375 73.2441361,38.6328125 71.2441361,38.6328125 Z M69.0410111,33.7890625 L73.2441361,33.7890625 L73.2441361,33.640625 C73.2441361,32.203125 72.4081986,31.2578125 71.1425736,31.2578125 C69.8769486,31.2578125 69.0410111,32.203125 69.0410111,33.640625 L69.0410111,33.7890625 Z M76.1004412,32.6328125 C76.1004412,30.921875 77.5379412,30.171875 79.0926287,30.171875 C80.8348162,30.171875 81.9676287,31.1015625 81.9676287,32.4375 L80.8113787,32.4375 C80.7645037,31.8359375 80.2020037,31.1953125 79.0379412,31.1953125 C78.0379412,31.1953125 77.3035662,31.65625 77.3035662,32.5 C77.3035662,33.515625 78.3738787,33.6484375 79.3113787,33.8203125 C80.8504412,34.09375 82.1707537,34.484375 82.1707537,36.1015625 C82.1707537,37.7265625 80.8582537,38.6328125 78.9676287,38.6328125 C77.2176287,38.6328125 75.9598162,37.8515625 75.9598162,36.3828125 L77.1629412,36.3828125 C77.2801287,37.1484375 77.8035662,37.6171875 79.0223162,37.6171875 C80.3973162,37.6171875 80.9598162,37 80.9598162,36.25 C80.9598162,35.296875 80.0613787,35.109375 78.8973162,34.8828125 C77.3582537,34.5625 76.1004412,34.25 76.1004412,32.6328125 Z M95.5005515,38.5 L94.258364,38.5 L94.258364,33.53125 L88.742739,33.53125 L88.742739,38.5 L87.5005515,38.5 L87.5005515,27.8359375 L88.742739,27.8359375 L88.742739,32.40625 L94.258364,32.40625 L94.258364,27.8359375 L95.5005515,27.8359375 L95.5005515,38.5 Z M101.099044,38.6328125 C98.9193567,38.6328125 97.6615442,37.21875 97.6615442,35.0703125 L97.6615442,33.7421875 C97.6615442,31.5703125 99.0521692,30.171875 100.997482,30.171875 C102.942794,30.171875 104.333419,31.5703125 104.333419,33.7421875 L104.333419,34.7421875 L98.8959192,34.7421875 L98.8959192,35.1640625 C98.8959192,36.4921875 99.6459192,37.546875 101.091232,37.546875 C102.091232,37.546875 102.755294,37.0703125 102.911544,36.5625 L104.216232,36.5625 C104.083419,37.3984375 103.099044,38.6328125 101.099044,38.6328125 Z M98.8959192,33.7890625 L103.099044,33.7890625 L103.099044,33.640625 C103.099044,32.203125 102.263107,31.2578125 100.997482,31.2578125 C99.7318567,31.2578125 98.8959192,32.203125 98.8959192,33.640625 L98.8959192,33.7890625 Z M106.510037,38.5 L106.510037,30.3046875 L107.736599,30.3046875 L107.736599,31.5625 L107.799099,31.5625 C108.010037,31.0234375 108.603787,30.1796875 110.095974,30.1796875 C110.244412,30.1796875 110.408474,30.1953125 110.572537,30.2109375 L110.572537,31.3515625 C110.439724,31.328125 110.181912,31.3203125 109.947537,31.3203125 C108.478787,31.3203125 107.736599,32.2109375 107.736599,33.3203125 L107.736599,38.5 L106.510037,38.5 Z M115.163217,38.6328125 C112.983529,38.6328125 111.725717,37.21875 111.725717,35.0703125 L111.725717,33.7421875 C111.725717,31.5703125 113.116342,30.171875 115.061654,30.171875 C117.006967,30.171875 118.397592,31.5703125 118.397592,33.7421875 L118.397592,34.7421875 L112.960092,34.7421875 L112.960092,35.1640625 C112.960092,36.4921875 113.710092,37.546875 115.155404,37.546875 C116.155404,37.546875 116.819467,37.0703125 116.975717,36.5625 L118.280404,36.5625 C118.147592,37.3984375 117.163217,38.6328125 115.163217,38.6328125 Z M112.960092,33.7890625 L117.163217,33.7890625 L117.163217,33.640625 C117.163217,32.203125 116.327279,31.2578125 115.061654,31.2578125 C113.796029,31.2578125 112.960092,32.203125 112.960092,33.640625 L112.960092,33.7890625 Z" id="Label-One" fill-opacity="0.7" fill="#000000"></path>
                    </g>
                    <g id="List" transform="translate(0.000000, 204.000000)">
                        <g id="One">
                            <rect id="Cell" fill="#FFFFFF" x="0" y="0" width="322" height="65"></rect>
                            <path d="M18,64 L322,64" id="Line" stroke="#E0E0E0" stroke-width="0.5" stroke-linecap="square"></path>
                        </g>
                        <path d="M20.890625,38.5 L19.6484375,38.5 L19.6484375,28.9609375 L16.3828125,28.9609375 L16.3828125,27.8359375 L24.15625,27.8359375 L24.15625,28.9609375 L20.890625,28.9609375 L20.890625,38.5 Z M27.6844302,38.6328125 C25.5047427,38.6328125 24.2469302,37.21875 24.2469302,35.0703125 L24.2469302,33.7421875 C24.2469302,31.5703125 25.6375552,30.171875 27.5828677,30.171875 C29.5281802,30.171875 30.9188052,31.5703125 30.9188052,33.7421875 L30.9188052,34.7421875 L25.4813052,34.7421875 L25.4813052,35.1640625 C25.4813052,36.4921875 26.2313052,37.546875 27.6766177,37.546875 C28.6766177,37.546875 29.3406802,37.0703125 29.4969302,36.5625 L30.8016177,36.5625 C30.6688052,37.3984375 29.6844302,38.6328125 27.6844302,38.6328125 Z M25.4813052,33.7890625 L29.6844302,33.7890625 L29.6844302,33.640625 C29.6844302,32.203125 28.8484927,31.2578125 27.5828677,31.2578125 C26.3172427,31.2578125 25.4813052,32.203125 25.4813052,33.640625 L25.4813052,33.7890625 Z M37.5641728,38.5 L35.5485478,35.3828125 L35.5016728,35.3828125 L33.4782353,38.5 L32.0797978,38.5 L34.8610478,34.453125 L32.0641728,30.3046875 L33.5485478,30.3046875 L35.5094853,33.4140625 L35.5641728,33.4140625 L37.5876103,30.3046875 L39.0016728,30.3046875 L36.2047978,34.3125 L39.0485478,38.5 L37.5641728,38.5 Z M41.139228,30.3046875 L41.139228,28.2421875 L42.3657905,28.2421875 L42.3657905,30.3046875 L44.2251655,30.3046875 L44.2251655,31.328125 L42.3657905,31.328125 L42.3657905,36.2734375 C42.3657905,37.28125 42.686103,37.53125 43.7251655,37.53125 C43.9126655,37.53125 44.232978,37.5078125 44.357978,37.4921875 L44.357978,38.515625 C44.248603,38.5390625 43.670478,38.578125 43.4126655,38.578125 C41.4907905,38.578125 41.139228,37.8125 41.139228,36.2109375 L41.139228,31.328125 L39.889228,31.328125 L39.889228,30.3046875 L41.139228,30.3046875 Z M57.2424633,31.0546875 L56.0080883,31.0546875 C55.8049633,29.4375 54.6252758,28.7421875 53.3284008,28.7421875 C51.7346508,28.7421875 50.3752758,29.796875 50.3752758,32.3984375 L50.3752758,33.8828125 C50.3752758,36.203125 51.3830883,37.59375 53.2893383,37.59375 C54.8909008,37.59375 56.0549633,36.6015625 56.0549633,35.1875 L56.0549633,34.09375 L53.2112133,34.09375 L53.2112133,32.96875 L57.2737133,32.96875 L57.2737133,35.1875 C57.2737133,36.5390625 56.3127758,38.7265625 53.3127758,38.7265625 C50.5471508,38.7265625 49.1330883,36.875 49.1330883,33.8828125 L49.1330883,32.3984375 C49.1330883,29.34375 50.8362133,27.609375 53.3596508,27.609375 C55.7893383,27.609375 57.1096508,29.21875 57.2424633,31.0546875 Z M62.6534559,30.171875 C64.6300184,30.171875 66.1300184,31.46875 66.1300184,33.75 L66.1300184,35.046875 C66.1300184,37.328125 64.6300184,38.6328125 62.6534559,38.6328125 C60.6378309,38.6328125 59.1690809,37.3515625 59.1690809,35.046875 L59.1690809,33.75 C59.1690809,31.5546875 60.6690809,30.171875 62.6534559,30.171875 Z M62.6612684,31.2578125 C61.2940809,31.2578125 60.3956434,32.3203125 60.3956434,33.890625 L60.3956434,34.921875 C60.3956434,36.53125 61.2393934,37.546875 62.6612684,37.546875 C64.0753309,37.546875 64.9034559,36.53125 64.9034559,34.921875 L64.9034559,33.890625 C64.9034559,32.3203125 64.0362684,31.2578125 62.6612684,31.2578125 Z M71.2441361,38.6328125 C69.0644486,38.6328125 67.8066361,37.21875 67.8066361,35.0703125 L67.8066361,33.7421875 C67.8066361,31.5703125 69.1972611,30.171875 71.1425736,30.171875 C73.0878861,30.171875 74.4785111,31.5703125 74.4785111,33.7421875 L74.4785111,34.7421875 L69.0410111,34.7421875 L69.0410111,35.1640625 C69.0410111,36.4921875 69.7910111,37.546875 71.2363236,37.546875 C72.2363236,37.546875 72.9003861,37.0703125 73.0566361,36.5625 L74.3613236,36.5625 C74.2285111,37.3984375 73.2441361,38.6328125 71.2441361,38.6328125 Z M69.0410111,33.7890625 L73.2441361,33.7890625 L73.2441361,33.640625 C73.2441361,32.203125 72.4081986,31.2578125 71.1425736,31.2578125 C69.8769486,31.2578125 69.0410111,32.203125 69.0410111,33.640625 L69.0410111,33.7890625 Z M76.1004412,32.6328125 C76.1004412,30.921875 77.5379412,30.171875 79.0926287,30.171875 C80.8348162,30.171875 81.9676287,31.1015625 81.9676287,32.4375 L80.8113787,32.4375 C80.7645037,31.8359375 80.2020037,31.1953125 79.0379412,31.1953125 C78.0379412,31.1953125 77.3035662,31.65625 77.3035662,32.5 C77.3035662,33.515625 78.3738787,33.6484375 79.3113787,33.8203125 C80.8504412,34.09375 82.1707537,34.484375 82.1707537,36.1015625 C82.1707537,37.7265625 80.8582537,38.6328125 78.9676287,38.6328125 C77.2176287,38.6328125 75.9598162,37.8515625 75.9598162,36.3828125 L77.1629412,36.3828125 C77.2801287,37.1484375 77.8035662,37.6171875 79.0223162,37.6171875 C80.3973162,37.6171875 80.9598162,37 80.9598162,36.25 C80.9598162,35.296875 80.0613787,35.109375 78.8973162,34.8828125 C77.3582537,34.5625 76.1004412,34.25 76.1004412,32.6328125 Z M95.5005515,38.5 L94.258364,38.5 L94.258364,33.53125 L88.742739,33.53125 L88.742739,38.5 L87.5005515,38.5 L87.5005515,27.8359375 L88.742739,27.8359375 L88.742739,32.40625 L94.258364,32.40625 L94.258364,27.8359375 L95.5005515,27.8359375 L95.5005515,38.5 Z M101.099044,38.6328125 C98.9193567,38.6328125 97.6615442,37.21875 97.6615442,35.0703125 L97.6615442,33.7421875 C97.6615442,31.5703125 99.0521692,30.171875 100.997482,30.171875 C102.942794,30.171875 104.333419,31.5703125 104.333419,33.7421875 L104.333419,34.7421875 L98.8959192,34.7421875 L98.8959192,35.1640625 C98.8959192,36.4921875 99.6459192,37.546875 101.091232,37.546875 C102.091232,37.546875 102.755294,37.0703125 102.911544,36.5625 L104.216232,36.5625 C104.083419,37.3984375 103.099044,38.6328125 101.099044,38.6328125 Z M98.8959192,33.7890625 L103.099044,33.7890625 L103.099044,33.640625 C103.099044,32.203125 102.263107,31.2578125 100.997482,31.2578125 C99.7318567,31.2578125 98.8959192,32.203125 98.8959192,33.640625 L98.8959192,33.7890625 Z M106.510037,38.5 L106.510037,30.3046875 L107.736599,30.3046875 L107.736599,31.5625 L107.799099,31.5625 C108.010037,31.0234375 108.603787,30.1796875 110.095974,30.1796875 C110.244412,30.1796875 110.408474,30.1953125 110.572537,30.2109375 L110.572537,31.3515625 C110.439724,31.328125 110.181912,31.3203125 109.947537,31.3203125 C108.478787,31.3203125 107.736599,32.2109375 107.736599,33.3203125 L107.736599,38.5 L106.510037,38.5 Z M115.163217,38.6328125 C112.983529,38.6328125 111.725717,37.21875 111.725717,35.0703125 L111.725717,33.7421875 C111.725717,31.5703125 113.116342,30.171875 115.061654,30.171875 C117.006967,30.171875 118.397592,31.5703125 118.397592,33.7421875 L118.397592,34.7421875 L112.960092,34.7421875 L112.960092,35.1640625 C112.960092,36.4921875 113.710092,37.546875 115.155404,37.546875 C116.155404,37.546875 116.819467,37.0703125 116.975717,36.5625 L118.280404,36.5625 C118.147592,37.3984375 117.163217,38.6328125 115.163217,38.6328125 Z M112.960092,33.7890625 L117.163217,33.7890625 L117.163217,33.640625 C117.163217,32.203125 116.327279,31.2578125 115.061654,31.2578125 C113.796029,31.2578125 112.960092,32.203125 112.960092,33.640625 L112.960092,33.7890625 Z" id="Label-One" fill-opacity="0.7" fill="#000000"></path>
                    </g>
                </g>
            </g>
        </g>
    </g>
</svg>