<?xml version="1.0" encoding="UTF-8"?>
<svg width="367px" height="200px" viewBox="0 0 367 200" version="1.1" xmlns="http://www.w3.org/2000/svg" xmlns:xlink="http://www.w3.org/1999/xlink">
    <!-- Generator: Sketch 48.2 (47327) - http://www.bohemiancoding.com/sketch -->
    <title>Group 17</title>
    <desc>Created with Sketch.</desc>
    <defs>
        <filter x="-1.6%" y="-5.6%" width="103.4%" height="115.5%" filterUnits="objectBoundingBox" id="filter-1">
            <feOffset dx="0" dy="1" in="SourceAlpha" result="shadowOffsetOuter1"></feOffset>
            <feGaussianBlur stdDeviation="1.5" in="shadowOffsetOuter1" result="shadowBlurOuter1"></feGaussianBlur>
            <feColorMatrix values="0 0 0 0 0   0 0 0 0 0   0 0 0 0 0  0 0 0 0.12 0" type="matrix" in="shadowBlurOuter1" result="shadowMatrixOuter1"></feColorMatrix>
            <feMerge>
                <feMergeNode in="shadowMatrixOuter1"></feMergeNode>
                <feMergeNode in="SourceGraphic"></feMergeNode>
            </feMerge>
        </filter>
        <linearGradient x1="125.958807%" y1="50%" x2="56.4946338%" y2="50%" id="linearGradient-2">
            <stop stop-color="#F8F8F8" offset="0%"></stop>
            <stop stop-color="#E0E0E0" offset="100%"></stop>
        </linearGradient>
        <circle id="path-3" cx="14.5" cy="14.5" r="14"></circle>
        <filter x="-33.9%" y="-12.5%" width="167.9%" height="175.0%" filterUnits="objectBoundingBox" id="filter-4">
            <feMorphology radius="0.5" operator="dilate" in="SourceAlpha" result="shadowSpreadOuter1"></feMorphology>
            <feOffset dx="0" dy="3" in="shadowSpreadOuter1" result="shadowOffsetOuter1"></feOffset>
            <feGaussianBlur stdDeviation="1.5" in="shadowOffsetOuter1" result="shadowBlurOuter1"></feGaussianBlur>
            <feComposite in="shadowBlurOuter1" in2="SourceAlpha" operator="out" result="shadowBlurOuter1"></feComposite>
            <feColorMatrix values="0 0 0 0 0   0 0 0 0 0   0 0 0 0 0  0 0 0 0.05 0" type="matrix" in="shadowBlurOuter1" result="shadowMatrixOuter1"></feColorMatrix>
            <feMorphology radius="0.5" operator="dilate" in="SourceAlpha" result="shadowSpreadOuter2"></feMorphology>
            <feOffset dx="0" dy="2" in="shadowSpreadOuter2" result="shadowOffsetOuter2"></feOffset>
            <feGaussianBlur stdDeviation="1" in="shadowOffsetOuter2" result="shadowBlurOuter2"></feGaussianBlur>
            <feComposite in="shadowBlurOuter2" in2="SourceAlpha" operator="out" result="shadowBlurOuter2"></feComposite>
            <feColorMatrix values="0 0 0 0 0   0 0 0 0 0   0 0 0 0 0  0 0 0 0.2 0" type="matrix" in="shadowBlurOuter2" result="shadowMatrixOuter2"></feColorMatrix>
            <feMorphology radius="0.5" operator="dilate" in="SourceAlpha" result="shadowSpreadOuter3"></feMorphology>
            <feOffset dx="0" dy="3" in="shadowSpreadOuter3" result="shadowOffsetOuter3"></feOffset>
            <feGaussianBlur stdDeviation="0.5" in="shadowOffsetOuter3" result="shadowBlurOuter3"></feGaussianBlur>
            <feComposite in="shadowBlurOuter3" in2="SourceAlpha" operator="out" result="shadowBlurOuter3"></feComposite>
            <feColorMatrix values="0 0 0 0 0   0 0 0 0 0   0 0 0 0 0  0 0 0 0.0510643116 0" type="matrix" in="shadowBlurOuter3" result="shadowMatrixOuter3"></feColorMatrix>
            <feMerge>
                <feMergeNode in="shadowMatrixOuter1"></feMergeNode>
                <feMergeNode in="shadowMatrixOuter2"></feMergeNode>
                <feMergeNode in="shadowMatrixOuter3"></feMergeNode>
            </feMerge>
        </filter>
    </defs>
    <g id="CEKUNIFY-Website---Detail---List" stroke="none" stroke-width="1" fill="none" fill-rule="evenodd" transform="translate(-384.000000, -2939.000000)">
        <g id="Content" transform="translate(322.000000, 208.000000)">
            <g id="Group-17" transform="translate(64.000000, 2731.000000)">
                <path d="M3.52,158 L1.296,158 L1.296,146.656 L8.464,146.656 L8.464,148.752 L3.504,148.752 L3.504,151.552 L7.92,151.552 L7.92,153.584 L3.52,153.584 L3.52,158 Z M13.152,156.304 C14.192,156.304 15.152,155.552 15.152,154.064 C15.152,152.576 14.192,151.824 13.152,151.824 C12.112,151.824 11.152,152.576 11.152,154.064 C11.152,155.536 12.112,156.304 13.152,156.304 Z M13.152,149.888 C15.504,149.888 17.28,151.632 17.28,154.064 C17.28,156.48 15.504,158.24 13.152,158.24 C10.8,158.24 9.024,156.48 9.024,154.064 C9.024,151.632 10.8,149.888 13.152,149.888 Z M21.088,153.472 L21.088,158 L18.96,158 L18.96,150.128 L21.024,150.128 L21.024,151.104 C21.504,150.288 22.448,149.92 23.296,149.92 C25.248,149.92 26.144,151.312 26.144,153.04 L26.144,158 L24.016,158 L24.016,153.408 C24.016,152.528 23.584,151.84 22.56,151.84 C21.632,151.84 21.088,152.56 21.088,153.472 Z M30.928,147.776 L30.928,150.128 L32.512,150.128 L32.512,152.016 L30.928,152.016 L30.928,155.312 C30.928,156 31.248,156.224 31.856,156.224 C32.112,156.224 32.4,156.192 32.512,156.16 L32.512,157.92 C32.32,158 31.936,158.112 31.312,158.112 C29.776,158.112 28.816,157.2 28.816,155.68 L28.816,152.016 L27.392,152.016 L27.392,150.128 L27.792,150.128 C28.624,150.128 29.008,149.584 29.008,148.88 L29.008,147.776 L30.928,147.776 Z M46.016,149.36 L44.032,149.968 C43.92,149.344 43.408,148.368 41.968,148.368 C40.896,148.368 40.192,149.056 40.192,149.808 C40.192,150.432 40.592,150.928 41.424,151.088 L43.008,151.392 C45.072,151.792 46.176,153.136 46.176,154.736 C46.176,156.48 44.72,158.24 42.08,158.24 C39.072,158.24 37.744,156.304 37.568,154.688 L39.616,154.144 C39.712,155.264 40.496,156.272 42.096,156.272 C43.28,156.272 43.936,155.68 43.936,154.88 C43.936,154.224 43.44,153.712 42.56,153.536 L40.976,153.216 C39.168,152.848 38,151.68 38,149.968 C38,147.952 39.808,146.416 41.952,146.416 C44.704,146.416 45.76,148.08 46.016,149.36 Z M49.984,158 L47.856,158 L47.856,150.128 L49.984,150.128 L49.984,158 Z M47.6,147.552 C47.6,146.816 48.192,146.224 48.912,146.224 C49.648,146.224 50.224,146.816 50.224,147.552 C50.224,148.256 49.648,148.848 48.912,148.848 C48.192,148.848 47.6,148.256 47.6,147.552 Z M58.224,158 L51.712,158 L51.712,156.128 L55.44,151.968 L51.808,151.968 L51.808,150.128 L58.16,150.128 L58.16,151.904 L54.32,156.144 L58.224,156.144 L58.224,158 Z M61.456,153.168 L64.976,153.168 C64.944,152.384 64.432,151.616 63.216,151.616 C62.112,151.616 61.504,152.448 61.456,153.168 Z M65.184,155.216 L66.96,155.744 C66.56,157.104 65.312,158.24 63.376,158.24 C61.216,158.24 59.312,156.688 59.312,154.032 C59.312,151.52 61.168,149.888 63.184,149.888 C65.616,149.888 67.072,151.44 67.072,153.968 C67.072,154.272 67.04,154.592 67.04,154.624 L61.408,154.624 C61.456,155.664 62.336,156.416 63.392,156.416 C64.384,156.416 64.928,155.92 65.184,155.216 Z" id="Font-Size" fill-opacity="0.38" fill="#000000"></path>
                <path d="M7.322,179 L1.26,179 L1.26,169.074 L2.632,169.074 L2.632,177.712 L7.322,177.712 L7.322,179 Z M10.094,179 L8.792,179 L8.792,172.266 L10.094,172.266 L10.094,179 Z M8.498,169.718 C8.498,169.186 8.918,168.766 9.436,168.766 C9.968,168.766 10.388,169.186 10.388,169.718 C10.388,170.236 9.968,170.656 9.436,170.656 C8.918,170.656 8.498,170.236 8.498,169.718 Z M11.704,177.25 L12.894,176.83 C12.978,177.53 13.51,178.09 14.462,178.09 C15.204,178.09 15.61,177.67 15.61,177.194 C15.61,176.774 15.302,176.452 14.742,176.326 L13.594,176.074 C12.544,175.85 11.914,175.136 11.914,174.184 C11.914,173.036 12.992,172.056 14.308,172.056 C16.156,172.056 16.73,173.26 16.87,173.862 L15.708,174.296 C15.652,173.946 15.372,173.176 14.308,173.176 C13.636,173.176 13.188,173.61 13.188,174.072 C13.188,174.478 13.44,174.772 13.958,174.884 L15.05,175.122 C16.268,175.388 16.912,176.13 16.912,177.124 C16.912,178.076 16.114,179.21 14.448,179.21 C12.6,179.21 11.816,178.02 11.704,177.25 Z M20.426,170.138 L20.426,172.266 L21.882,172.266 L21.882,173.456 L20.426,173.456 L20.426,176.956 C20.426,177.572 20.678,177.88 21.364,177.88 C21.532,177.88 21.77,177.852 21.882,177.824 L21.882,178.944 C21.77,178.986 21.434,179.07 20.986,179.07 C19.838,179.07 19.11,178.37 19.11,177.152 L19.11,173.456 L17.822,173.456 L17.822,172.266 L18.186,172.266 C18.914,172.266 19.222,171.818 19.222,171.23 L19.222,170.138 L20.426,170.138 Z M34.16,170.348 L30.842,170.348 L30.842,179 L29.47,179 L29.47,170.348 L26.152,170.348 L26.152,169.074 L34.16,169.074 L34.16,170.348 Z M34.944,174.94 L38.626,174.94 C38.598,173.974 37.968,173.218 36.778,173.218 C35.672,173.218 35,174.072 34.944,174.94 Z M38.822,176.69 L39.956,177.082 C39.578,178.272 38.5,179.21 36.932,179.21 C35.126,179.21 33.544,177.894 33.544,175.612 C33.544,173.498 35.07,172.056 36.764,172.056 C38.836,172.056 39.998,173.484 39.998,175.584 C39.998,175.752 39.984,175.92 39.97,176.004 L34.902,176.004 C34.93,177.208 35.798,178.048 36.932,178.048 C38.024,178.048 38.57,177.446 38.822,176.69 Z M40.628,179 L43.134,175.57 L40.712,172.266 L42.308,172.266 L43.96,174.632 L45.584,172.266 L47.138,172.266 L44.744,175.57 C45.15,176.116 46.816,178.454 47.222,179 L45.64,179 L43.904,176.522 L42.196,179 L40.628,179 Z M50.316,170.138 L50.316,172.266 L51.772,172.266 L51.772,173.456 L50.316,173.456 L50.316,176.956 C50.316,177.572 50.568,177.88 51.254,177.88 C51.422,177.88 51.66,177.852 51.772,177.824 L51.772,178.944 C51.66,178.986 51.324,179.07 50.876,179.07 C49.728,179.07 49,178.37 49,177.152 L49,173.456 L47.712,173.456 L47.712,172.266 L48.076,172.266 C48.804,172.266 49.112,171.818 49.112,171.23 L49.112,170.138 L50.316,170.138 Z M64.036,179 L62.958,176.228 L58.562,176.228 L57.512,179 L56.042,179 L59.99,169.074 L61.572,169.074 L65.52,179 L64.036,179 Z M60.746,170.502 L59.052,174.954 L62.468,174.954 L60.746,170.502 Z M68.082,179 L66.78,179 L66.78,168.864 L68.082,168.864 L68.082,173.218 C68.404,172.616 69.188,172.07 70.308,172.07 C72.352,172.07 73.402,173.638 73.402,175.598 C73.402,177.6 72.268,179.182 70.266,179.182 C69.272,179.182 68.502,178.748 68.082,178.02 L68.082,179 Z M72.058,175.598 C72.058,174.142 71.288,173.232 70.07,173.232 C68.908,173.232 68.068,174.142 68.068,175.598 C68.068,177.054 68.908,178.006 70.07,178.006 C71.274,178.006 72.058,177.054 72.058,175.598 Z M77.966,178.034 C79.086,178.034 80.066,177.194 80.066,175.626 C80.066,174.072 79.086,173.232 77.966,173.232 C76.846,173.232 75.866,174.072 75.866,175.626 C75.866,177.194 76.846,178.034 77.966,178.034 Z M77.966,172.056 C79.982,172.056 81.41,173.582 81.41,175.626 C81.41,177.684 79.982,179.21 77.966,179.21 C75.95,179.21 74.522,177.684 74.522,175.626 C74.522,173.582 75.95,172.056 77.966,172.056 Z M88.648,172.266 L85.96,179 L84.63,179 L81.9,172.266 L83.384,172.266 L85.302,177.46 L87.234,172.266 L88.648,172.266 Z M90.552,174.94 L94.234,174.94 C94.206,173.974 93.576,173.218 92.386,173.218 C91.28,173.218 90.608,174.072 90.552,174.94 Z M94.43,176.69 L95.564,177.082 C95.186,178.272 94.108,179.21 92.54,179.21 C90.734,179.21 89.152,177.894 89.152,175.612 C89.152,173.498 90.678,172.056 92.372,172.056 C94.444,172.056 95.606,173.484 95.606,175.584 C95.606,175.752 95.592,175.92 95.578,176.004 L90.51,176.004 C90.538,177.208 91.406,178.048 92.54,178.048 C93.632,178.048 94.178,177.446 94.43,176.69 Z M100.73,178.104 C100.73,177.558 101.15,177.124 101.696,177.124 C102.242,177.124 102.676,177.558 102.676,178.104 C102.676,178.65 102.242,179.07 101.696,179.07 C101.15,179.07 100.73,178.65 100.73,178.104 Z M100.716,173.176 C100.716,172.63 101.136,172.196 101.682,172.196 C102.228,172.196 102.662,172.63 102.662,173.176 C102.662,173.722 102.228,174.142 101.682,174.142 C101.136,174.142 100.716,173.722 100.716,173.176 Z M119.21,179 L117.852,179 L117.852,171.272 L114.464,179 L113.204,179 L109.844,171.272 L109.844,179 L108.486,179 L108.486,169.074 L110.348,169.074 L113.848,177.152 L117.376,169.074 L119.21,169.074 L119.21,179 Z M122.444,174.94 L126.126,174.94 C126.098,173.974 125.468,173.218 124.278,173.218 C123.172,173.218 122.5,174.072 122.444,174.94 Z M126.322,176.69 L127.456,177.082 C127.078,178.272 126,179.21 124.432,179.21 C122.626,179.21 121.044,177.894 121.044,175.612 C121.044,173.498 122.57,172.056 124.264,172.056 C126.336,172.056 127.498,173.484 127.498,175.584 C127.498,175.752 127.484,175.92 127.47,176.004 L122.402,176.004 C122.43,177.208 123.298,178.048 124.432,178.048 C125.524,178.048 126.07,177.446 126.322,176.69 Z M129.962,175.612 C129.962,176.998 130.676,178.02 131.936,178.02 C133.14,178.02 133.882,176.97 133.882,175.584 C133.882,174.198 133.154,173.246 131.95,173.246 C130.746,173.246 129.962,174.226 129.962,175.612 Z M133.896,178.09 L133.896,177.978 C133.574,178.622 132.86,179.182 131.81,179.182 C129.836,179.182 128.618,177.614 128.618,175.612 C128.618,173.708 129.906,172.084 131.81,172.084 C133,172.084 133.644,172.672 133.868,173.218 L133.868,168.864 L135.17,168.864 L135.17,177.754 C135.17,178.398 135.226,178.888 135.24,179 L133.966,179 C133.938,178.846 133.896,178.496 133.896,178.09 Z M138.712,179 L137.41,179 L137.41,172.266 L138.712,172.266 L138.712,179 Z M137.116,169.718 C137.116,169.186 137.536,168.766 138.054,168.766 C138.586,168.766 139.006,169.186 139.006,169.718 C139.006,170.236 138.586,170.656 138.054,170.656 C137.536,170.656 137.116,170.236 137.116,169.718 Z M145.39,178.188 C145.026,178.888 144.186,179.21 143.402,179.21 C141.834,179.21 140.882,178.034 140.882,176.508 L140.882,172.266 L142.198,172.266 L142.198,176.312 C142.198,177.236 142.618,178.048 143.724,178.048 C144.788,178.048 145.32,177.348 145.32,176.326 L145.32,172.266 L146.636,172.266 L146.636,177.754 C146.636,178.286 146.678,178.762 146.706,179 L145.446,179 C145.418,178.846 145.39,178.468 145.39,178.188 Z M150.178,179 L148.876,179 L148.876,172.266 L150.136,172.266 L150.136,173.162 C150.556,172.42 151.396,172.07 152.18,172.07 C153.02,172.07 153.832,172.476 154.196,173.344 C154.728,172.378 155.596,172.07 156.45,172.07 C157.626,172.07 158.774,172.868 158.774,174.632 L158.774,179 L157.472,179 L157.472,174.772 C157.472,173.89 157.038,173.232 156.044,173.232 C155.12,173.232 154.49,173.96 154.49,174.926 L154.49,179 L153.174,179 L153.174,174.772 C153.174,173.904 152.754,173.232 151.746,173.232 C150.808,173.232 150.178,173.932 150.178,174.94 L150.178,179 Z M167.146,179 L165.802,179 L165.802,172.602 L163.604,172.602 L163.604,171.636 C164.864,171.608 165.732,170.908 165.942,169.928 L167.146,169.928 L167.146,179 Z M168.686,176.956 L168.686,175.374 L172.578,169.928 L174.468,169.928 L174.468,175.682 L176.022,175.682 L176.022,176.956 L174.468,176.956 L174.468,179 L173.138,179 L173.138,176.956 L168.686,176.956 Z M173.138,175.682 L173.138,171.244 L169.946,175.682 L173.138,175.682 Z M178.654,181.66 L177.352,181.66 L177.352,172.266 L178.626,172.266 L178.626,173.316 C178.99,172.644 179.788,172.112 180.88,172.112 C182.896,172.112 183.974,173.666 183.974,175.626 C183.974,177.628 182.812,179.182 180.838,179.182 C179.802,179.182 179.018,178.692 178.654,178.09 L178.654,181.66 Z M182.63,175.626 C182.63,174.282 181.874,173.274 180.642,173.274 C179.438,173.274 178.64,174.282 178.64,175.626 C178.64,177.012 179.438,178.006 180.642,178.006 C181.86,178.006 182.63,177.012 182.63,175.626 Z M184.534,179 L187.04,175.57 L184.618,172.266 L186.214,172.266 L187.866,174.632 L189.49,172.266 L191.044,172.266 L188.65,175.57 C189.056,176.116 190.722,178.454 191.128,179 L189.546,179 L187.81,176.522 L186.102,179 L184.534,179 Z M192.248,178.104 C192.248,177.6 192.682,177.166 193.27,177.166 C193.872,177.166 194.404,177.614 194.404,178.496 C194.404,180.344 193.2,181.114 192.332,181.226 L192.332,180.498 C193.018,180.344 193.48,179.658 193.494,178.986 C193.452,179.014 193.34,179.056 193.186,179.056 C192.668,179.056 192.248,178.706 192.248,178.104 Z M207.956,179 L206.584,179 L206.584,174.59 L201.516,174.59 L201.516,179 L200.144,179 L200.144,169.074 L201.516,169.074 L201.516,173.316 L206.584,173.316 L206.584,169.074 L207.956,169.074 L207.956,179 Z M211.19,174.94 L214.872,174.94 C214.844,173.974 214.214,173.218 213.024,173.218 C211.918,173.218 211.246,174.072 211.19,174.94 Z M215.068,176.69 L216.202,177.082 C215.824,178.272 214.746,179.21 213.178,179.21 C211.372,179.21 209.79,177.894 209.79,175.612 C209.79,173.498 211.316,172.056 213.01,172.056 C215.082,172.056 216.244,173.484 216.244,175.584 C216.244,175.752 216.23,175.92 216.216,176.004 L211.148,176.004 C211.176,177.208 212.044,178.048 213.178,178.048 C214.27,178.048 214.816,177.446 215.068,176.69 Z M216.874,179 L219.38,175.57 L216.958,172.266 L218.554,172.266 L220.206,174.632 L221.83,172.266 L223.384,172.266 L220.99,175.57 C221.396,176.116 223.062,178.454 223.468,179 L221.886,179 L220.15,176.522 L218.442,179 L216.874,179 Z M232.666,179.21 C230.104,179.21 227.738,177.348 227.738,174.03 C227.738,170.712 230.202,168.864 232.666,168.864 C234.934,168.864 236.53,170.096 237.034,172.014 L235.76,172.462 C235.382,170.964 234.29,170.124 232.666,170.124 C230.86,170.124 229.138,171.44 229.138,174.03 C229.138,176.62 230.86,177.95 232.666,177.95 C234.36,177.95 235.424,176.928 235.83,175.57 L237.048,176.018 C236.516,177.88 234.948,179.21 232.666,179.21 Z M241.332,178.034 C242.452,178.034 243.432,177.194 243.432,175.626 C243.432,174.072 242.452,173.232 241.332,173.232 C240.212,173.232 239.232,174.072 239.232,175.626 C239.232,177.194 240.212,178.034 241.332,178.034 Z M241.332,172.056 C243.348,172.056 244.776,173.582 244.776,175.626 C244.776,177.684 243.348,179.21 241.332,179.21 C239.316,179.21 237.888,177.684 237.888,175.626 C237.888,173.582 239.316,172.056 241.332,172.056 Z M247.772,179 L246.456,179 L246.456,168.864 L247.772,168.864 L247.772,179 Z M252.896,178.034 C254.016,178.034 254.996,177.194 254.996,175.626 C254.996,174.072 254.016,173.232 252.896,173.232 C251.776,173.232 250.796,174.072 250.796,175.626 C250.796,177.194 251.776,178.034 252.896,178.034 Z M252.896,172.056 C254.912,172.056 256.34,173.582 256.34,175.626 C256.34,177.684 254.912,179.21 252.896,179.21 C250.88,179.21 249.452,177.684 249.452,175.626 C249.452,173.582 250.88,172.056 252.896,172.056 Z M261.758,172.196 L261.758,173.596 C261.562,173.568 261.366,173.554 261.184,173.554 C260.078,173.554 259.336,174.142 259.336,175.626 L259.336,179 L258.02,179 L258.02,172.266 L259.308,172.266 L259.308,173.442 C259.798,172.406 260.638,172.154 261.324,172.154 C261.506,172.154 261.688,172.182 261.758,172.196 Z M266.602,178.104 C266.602,177.558 267.022,177.124 267.568,177.124 C268.114,177.124 268.548,177.558 268.548,178.104 C268.548,178.65 268.114,179.07 267.568,179.07 C267.022,179.07 266.602,178.65 266.602,178.104 Z M266.588,173.176 C266.588,172.63 267.008,172.196 267.554,172.196 C268.1,172.196 268.534,172.63 268.534,173.176 C268.534,173.722 268.1,174.142 267.554,174.142 C267.008,174.142 266.588,173.722 266.588,173.176 Z M275.156,174.464 C275.156,175.85 275.408,176.83 275.954,177.404 C276.304,177.768 276.752,177.992 277.396,177.992 C278.04,177.992 278.488,177.768 278.838,177.404 C279.384,176.83 279.636,175.85 279.636,174.464 C279.636,173.078 279.384,172.098 278.838,171.524 C278.488,171.16 278.04,170.936 277.396,170.936 C276.752,170.936 276.304,171.16 275.954,171.524 C275.408,172.098 275.156,173.078 275.156,174.464 Z M273.798,174.464 C273.798,173.218 274.008,172.07 274.61,171.174 C275.198,170.292 276.108,169.718 277.396,169.718 C278.684,169.718 279.594,170.292 280.182,171.174 C280.784,172.07 280.994,173.218 280.994,174.464 C280.994,175.71 280.784,176.858 280.182,177.754 C279.594,178.636 278.684,179.21 277.396,179.21 C276.108,179.21 275.198,178.636 274.61,177.754 C274.008,176.858 273.798,175.71 273.798,174.464 Z M283.682,174.464 C283.682,175.85 283.934,176.83 284.48,177.404 C284.83,177.768 285.278,177.992 285.922,177.992 C286.566,177.992 287.014,177.768 287.364,177.404 C287.91,176.83 288.162,175.85 288.162,174.464 C288.162,173.078 287.91,172.098 287.364,171.524 C287.014,171.16 286.566,170.936 285.922,170.936 C285.278,170.936 284.83,171.16 284.48,171.524 C283.934,172.098 283.682,173.078 283.682,174.464 Z M282.324,174.464 C282.324,173.218 282.534,172.07 283.136,171.174 C283.724,170.292 284.634,169.718 285.922,169.718 C287.21,169.718 288.12,170.292 288.708,171.174 C289.31,172.07 289.52,173.218 289.52,174.464 C289.52,175.71 289.31,176.858 288.708,177.754 C288.12,178.636 287.21,179.21 285.922,179.21 C284.634,179.21 283.724,178.636 283.136,177.754 C282.534,176.858 282.324,175.71 282.324,174.464 Z M292.208,174.464 C292.208,175.85 292.46,176.83 293.006,177.404 C293.356,177.768 293.804,177.992 294.448,177.992 C295.092,177.992 295.54,177.768 295.89,177.404 C296.436,176.83 296.688,175.85 296.688,174.464 C296.688,173.078 296.436,172.098 295.89,171.524 C295.54,171.16 295.092,170.936 294.448,170.936 C293.804,170.936 293.356,171.16 293.006,171.524 C292.46,172.098 292.208,173.078 292.208,174.464 Z M290.85,174.464 C290.85,173.218 291.06,172.07 291.662,171.174 C292.25,170.292 293.16,169.718 294.448,169.718 C295.736,169.718 296.646,170.292 297.234,171.174 C297.836,172.07 298.046,173.218 298.046,174.464 C298.046,175.71 297.836,176.858 297.234,177.754 C296.646,178.636 295.736,179.21 294.448,179.21 C293.16,179.21 292.25,178.636 291.662,177.754 C291.06,176.858 290.85,175.71 290.85,174.464 Z M300.734,174.464 C300.734,175.85 300.986,176.83 301.532,177.404 C301.882,177.768 302.33,177.992 302.974,177.992 C303.618,177.992 304.066,177.768 304.416,177.404 C304.962,176.83 305.214,175.85 305.214,174.464 C305.214,173.078 304.962,172.098 304.416,171.524 C304.066,171.16 303.618,170.936 302.974,170.936 C302.33,170.936 301.882,171.16 301.532,171.524 C300.986,172.098 300.734,173.078 300.734,174.464 Z M299.376,174.464 C299.376,173.218 299.586,172.07 300.188,171.174 C300.776,170.292 301.686,169.718 302.974,169.718 C304.262,169.718 305.172,170.292 305.76,171.174 C306.362,172.07 306.572,173.218 306.572,174.464 C306.572,175.71 306.362,176.858 305.76,177.754 C305.172,178.636 304.262,179.21 302.974,179.21 C301.686,179.21 300.776,178.636 300.188,177.754 C299.586,176.858 299.376,175.71 299.376,174.464 Z M309.26,174.464 C309.26,175.85 309.512,176.83 310.058,177.404 C310.408,177.768 310.856,177.992 311.5,177.992 C312.144,177.992 312.592,177.768 312.942,177.404 C313.488,176.83 313.74,175.85 313.74,174.464 C313.74,173.078 313.488,172.098 312.942,171.524 C312.592,171.16 312.144,170.936 311.5,170.936 C310.856,170.936 310.408,171.16 310.058,171.524 C309.512,172.098 309.26,173.078 309.26,174.464 Z M307.902,174.464 C307.902,173.218 308.112,172.07 308.714,171.174 C309.302,170.292 310.212,169.718 311.5,169.718 C312.788,169.718 313.698,170.292 314.286,171.174 C314.888,172.07 315.098,173.218 315.098,174.464 C315.098,175.71 314.888,176.858 314.286,177.754 C313.698,178.636 312.788,179.21 311.5,179.21 C310.212,179.21 309.302,178.636 308.714,177.754 C308.112,176.858 307.902,175.71 307.902,174.464 Z M325.374,169.074 L320.572,179 L319.298,179 L324.1,169.074 L325.374,169.074 Z M335.566,169.928 L335.566,171.244 C334.726,171.916 332.164,174.198 331.73,179 L330.316,179 C330.722,173.722 334.054,171.188 334.054,171.188 L328.944,171.188 L328.944,169.928 L335.566,169.928 Z M337.344,174.464 C337.344,175.85 337.596,176.83 338.142,177.404 C338.492,177.768 338.94,177.992 339.584,177.992 C340.228,177.992 340.676,177.768 341.026,177.404 C341.572,176.83 341.824,175.85 341.824,174.464 C341.824,173.078 341.572,172.098 341.026,171.524 C340.676,171.16 340.228,170.936 339.584,170.936 C338.94,170.936 338.492,171.16 338.142,171.524 C337.596,172.098 337.344,173.078 337.344,174.464 Z M335.986,174.464 C335.986,173.218 336.196,172.07 336.798,171.174 C337.386,170.292 338.296,169.718 339.584,169.718 C340.872,169.718 341.782,170.292 342.37,171.174 C342.972,172.07 343.182,173.218 343.182,174.464 C343.182,175.71 342.972,176.858 342.37,177.754 C341.782,178.636 340.872,179.21 339.584,179.21 C338.296,179.21 337.386,178.636 336.798,177.754 C336.196,176.858 335.986,175.71 335.986,174.464 Z M345.534,172.028 C345.534,172.672 346.01,173.134 346.612,173.134 C347.228,173.134 347.69,172.672 347.69,172.028 C347.69,171.398 347.228,170.936 346.612,170.936 C346.01,170.936 345.534,171.398 345.534,172.028 Z M344.372,172.028 C344.372,170.796 345.408,169.83 346.612,169.83 C347.816,169.83 348.866,170.796 348.866,172.028 C348.866,173.274 347.816,174.24 346.612,174.24 C345.408,174.24 344.372,173.274 344.372,172.028 Z M351.078,176.9 C351.078,177.544 351.554,178.006 352.156,178.006 C352.772,178.006 353.234,177.544 353.234,176.9 C353.234,176.27 352.772,175.808 352.156,175.808 C351.554,175.808 351.078,176.27 351.078,176.9 Z M349.916,176.9 C349.916,175.668 350.952,174.702 352.156,174.702 C353.36,174.702 354.41,175.668 354.41,176.9 C354.41,178.146 353.36,179.112 352.156,179.112 C350.952,179.112 349.916,178.146 349.916,176.9 Z M346.78,179 L345.492,179 L352.016,169.928 L353.276,169.928 L346.78,179 Z M7.322,197 L1.26,197 L1.26,187.074 L2.632,187.074 L2.632,195.712 L7.322,195.712 L7.322,197 Z M10.094,197 L8.792,197 L8.792,190.266 L10.094,190.266 L10.094,197 Z M8.498,187.718 C8.498,187.186 8.918,186.766 9.436,186.766 C9.968,186.766 10.388,187.186 10.388,187.718 C10.388,188.236 9.968,188.656 9.436,188.656 C8.918,188.656 8.498,188.236 8.498,187.718 Z M11.704,195.25 L12.894,194.83 C12.978,195.53 13.51,196.09 14.462,196.09 C15.204,196.09 15.61,195.67 15.61,195.194 C15.61,194.774 15.302,194.452 14.742,194.326 L13.594,194.074 C12.544,193.85 11.914,193.136 11.914,192.184 C11.914,191.036 12.992,190.056 14.308,190.056 C16.156,190.056 16.73,191.26 16.87,191.862 L15.708,192.296 C15.652,191.946 15.372,191.176 14.308,191.176 C13.636,191.176 13.188,191.61 13.188,192.072 C13.188,192.478 13.44,192.772 13.958,192.884 L15.05,193.122 C16.268,193.388 16.912,194.13 16.912,195.124 C16.912,196.076 16.114,197.21 14.448,197.21 C12.6,197.21 11.816,196.02 11.704,195.25 Z M20.426,188.138 L20.426,190.266 L21.882,190.266 L21.882,191.456 L20.426,191.456 L20.426,194.956 C20.426,195.572 20.678,195.88 21.364,195.88 C21.532,195.88 21.77,195.852 21.882,195.824 L21.882,196.944 C21.77,196.986 21.434,197.07 20.986,197.07 C19.838,197.07 19.11,196.37 19.11,195.152 L19.11,191.456 L17.822,191.456 L17.822,190.266 L18.186,190.266 C18.914,190.266 19.222,189.818 19.222,189.23 L19.222,188.138 L20.426,188.138 Z M34.16,188.348 L30.842,188.348 L30.842,197 L29.47,197 L29.47,188.348 L26.152,188.348 L26.152,187.074 L34.16,187.074 L34.16,188.348 Z M34.944,192.94 L38.626,192.94 C38.598,191.974 37.968,191.218 36.778,191.218 C35.672,191.218 35,192.072 34.944,192.94 Z M38.822,194.69 L39.956,195.082 C39.578,196.272 38.5,197.21 36.932,197.21 C35.126,197.21 33.544,195.894 33.544,193.612 C33.544,191.498 35.07,190.056 36.764,190.056 C38.836,190.056 39.998,191.484 39.998,193.584 C39.998,193.752 39.984,193.92 39.97,194.004 L34.902,194.004 C34.93,195.208 35.798,196.048 36.932,196.048 C38.024,196.048 38.57,195.446 38.822,194.69 Z M40.628,197 L43.134,193.57 L40.712,190.266 L42.308,190.266 L43.96,192.632 L45.584,190.266 L47.138,190.266 L44.744,193.57 C45.15,194.116 46.816,196.454 47.222,197 L45.64,197 L43.904,194.522 L42.196,197 L40.628,197 Z M50.316,188.138 L50.316,190.266 L51.772,190.266 L51.772,191.456 L50.316,191.456 L50.316,194.956 C50.316,195.572 50.568,195.88 51.254,195.88 C51.422,195.88 51.66,195.852 51.772,195.824 L51.772,196.944 C51.66,196.986 51.324,197.07 50.876,197.07 C49.728,197.07 49,196.37 49,195.152 L49,191.456 L47.712,191.456 L47.712,190.266 L48.076,190.266 C48.804,190.266 49.112,189.818 49.112,189.23 L49.112,188.138 L50.316,188.138 Z M57.162,187.074 L60.396,187.074 C62.286,187.074 63.392,188.194 63.392,189.762 C63.392,190.826 62.776,191.582 61.908,191.904 C63.042,192.184 63.7,193.192 63.7,194.298 C63.7,195.866 62.454,197 60.634,197 L57.162,197 L57.162,187.074 Z M58.534,191.414 L60.242,191.414 C61.348,191.414 62.006,190.756 62.006,189.832 C62.006,188.894 61.32,188.278 60.186,188.278 L58.534,188.278 L58.534,191.414 Z M58.534,195.796 L60.438,195.796 C61.544,195.796 62.3,195.18 62.3,194.214 C62.3,193.262 61.698,192.59 60.494,192.59 L58.534,192.59 L58.534,195.796 Z M66.374,192.94 L70.056,192.94 C70.028,191.974 69.398,191.218 68.208,191.218 C67.102,191.218 66.43,192.072 66.374,192.94 Z M70.252,194.69 L71.386,195.082 C71.008,196.272 69.93,197.21 68.362,197.21 C66.556,197.21 64.974,195.894 64.974,193.612 C64.974,191.498 66.5,190.056 68.194,190.056 C70.266,190.056 71.428,191.484 71.428,193.584 C71.428,193.752 71.414,193.92 71.4,194.004 L66.332,194.004 C66.36,195.208 67.228,196.048 68.362,196.048 C69.454,196.048 70,195.446 70.252,194.69 Z M74.424,197 L73.108,197 L73.108,186.864 L74.424,186.864 L74.424,197 Z M79.548,196.034 C80.668,196.034 81.648,195.194 81.648,193.626 C81.648,192.072 80.668,191.232 79.548,191.232 C78.428,191.232 77.448,192.072 77.448,193.626 C77.448,195.194 78.428,196.034 79.548,196.034 Z M79.548,190.056 C81.564,190.056 82.992,191.582 82.992,193.626 C82.992,195.684 81.564,197.21 79.548,197.21 C77.532,197.21 76.104,195.684 76.104,193.626 C76.104,191.582 77.532,190.056 79.548,190.056 Z M88.326,190.266 L89.684,190.266 L91.434,195.334 L92.918,190.266 L94.304,190.266 L92.12,197 L90.762,197 L88.97,191.876 L87.22,197 L85.834,197 L83.622,190.266 L85.064,190.266 L86.576,195.334 L88.326,190.266 Z M99.078,196.104 C99.078,195.558 99.498,195.124 100.044,195.124 C100.59,195.124 101.024,195.558 101.024,196.104 C101.024,196.65 100.59,197.07 100.044,197.07 C99.498,197.07 99.078,196.65 99.078,196.104 Z M99.064,191.176 C99.064,190.63 99.484,190.196 100.03,190.196 C100.576,190.196 101.01,190.63 101.01,191.176 C101.01,191.722 100.576,192.142 100.03,192.142 C99.484,192.142 99.064,191.722 99.064,191.176 Z M111.972,197 L109.704,192.94 L108.22,192.94 L108.22,197 L106.834,197 L106.834,187.074 L110.572,187.074 C112.448,187.074 113.61,188.39 113.61,190.028 C113.61,191.456 112.7,192.562 111.202,192.842 L113.568,197 L111.972,197 Z M108.22,191.708 L110.32,191.708 C111.44,191.708 112.196,191.05 112.196,190.028 C112.196,188.978 111.44,188.306 110.32,188.306 L108.22,188.306 L108.22,191.708 Z M115.934,192.94 L119.616,192.94 C119.588,191.974 118.958,191.218 117.768,191.218 C116.662,191.218 115.99,192.072 115.934,192.94 Z M119.812,194.69 L120.946,195.082 C120.568,196.272 119.49,197.21 117.922,197.21 C116.116,197.21 114.534,195.894 114.534,193.612 C114.534,191.498 116.06,190.056 117.754,190.056 C119.826,190.056 120.988,191.484 120.988,193.584 C120.988,193.752 120.974,193.92 120.96,194.004 L115.892,194.004 C115.92,195.208 116.788,196.048 117.922,196.048 C119.014,196.048 119.56,195.446 119.812,194.69 Z M122.178,197.364 L123.452,197.07 C123.55,198.008 124.264,198.722 125.286,198.722 C126.7,198.722 127.344,197.994 127.344,196.538 L127.344,195.572 C127.022,196.188 126.294,196.678 125.286,196.678 C123.494,196.678 122.192,195.32 122.192,193.416 C122.192,191.596 123.438,190.14 125.286,190.14 C126.322,190.14 127.022,190.532 127.358,191.204 L127.358,190.266 L128.66,190.266 L128.66,196.496 C128.66,198.204 127.82,199.87 125.286,199.87 C123.606,199.87 122.346,198.806 122.178,197.364 Z M125.482,195.572 C126.616,195.572 127.4,194.718 127.4,193.416 C127.4,192.114 126.616,191.26 125.482,191.26 C124.32,191.26 123.536,192.114 123.536,193.416 C123.536,194.732 124.292,195.572 125.482,195.572 Z M135.128,196.188 C134.764,196.888 133.924,197.21 133.14,197.21 C131.572,197.21 130.62,196.034 130.62,194.508 L130.62,190.266 L131.936,190.266 L131.936,194.312 C131.936,195.236 132.356,196.048 133.462,196.048 C134.526,196.048 135.058,195.348 135.058,194.326 L135.058,190.266 L136.374,190.266 L136.374,195.754 C136.374,196.286 136.416,196.762 136.444,197 L135.184,197 C135.156,196.846 135.128,196.468 135.128,196.188 Z M139.93,197 L138.614,197 L138.614,186.864 L139.93,186.864 L139.93,197 Z M141.75,195.194 C141.75,193.99 142.632,193.318 143.794,193.15 L145.614,192.884 C146.02,192.828 146.132,192.618 146.132,192.38 C146.132,191.722 145.698,191.176 144.676,191.176 C143.752,191.176 143.234,191.75 143.15,192.534 L141.89,192.24 C142.03,190.952 143.192,190.056 144.648,190.056 C146.664,190.056 147.448,191.204 147.448,192.52 L147.448,195.894 C147.448,196.482 147.504,196.832 147.532,197 L146.244,197 C146.216,196.832 146.174,196.58 146.174,196.09 C145.88,196.566 145.208,197.21 144.004,197.21 C142.632,197.21 141.75,196.258 141.75,195.194 Z M144.186,196.104 C145.264,196.104 146.132,195.586 146.132,194.116 L146.132,193.808 L144.074,194.116 C143.514,194.2 143.094,194.522 143.094,195.124 C143.094,195.628 143.514,196.104 144.186,196.104 Z M153.23,190.196 L153.23,191.596 C153.034,191.568 152.838,191.554 152.656,191.554 C151.55,191.554 150.808,192.142 150.808,193.626 L150.808,197 L149.492,197 L149.492,190.266 L150.78,190.266 L150.78,191.442 C151.27,190.406 152.11,190.154 152.796,190.154 C152.978,190.154 153.16,190.182 153.23,190.196 Z M160.902,197 L159.558,197 L159.558,190.602 L157.36,190.602 L157.36,189.636 C158.62,189.608 159.488,188.908 159.698,187.928 L160.902,187.928 L160.902,197 Z M162.442,194.956 L162.442,193.374 L166.334,187.928 L168.224,187.928 L168.224,193.682 L169.778,193.682 L169.778,194.956 L168.224,194.956 L168.224,197 L166.894,197 L166.894,194.956 L162.442,194.956 Z M166.894,193.682 L166.894,189.244 L163.702,193.682 L166.894,193.682 Z M172.41,199.66 L171.108,199.66 L171.108,190.266 L172.382,190.266 L172.382,191.316 C172.746,190.644 173.544,190.112 174.636,190.112 C176.652,190.112 177.73,191.666 177.73,193.626 C177.73,195.628 176.568,197.182 174.594,197.182 C173.558,197.182 172.774,196.692 172.41,196.09 L172.41,199.66 Z M176.386,193.626 C176.386,192.282 175.63,191.274 174.398,191.274 C173.194,191.274 172.396,192.282 172.396,193.626 C172.396,195.012 173.194,196.006 174.398,196.006 C175.616,196.006 176.386,195.012 176.386,193.626 Z M178.29,197 L180.796,193.57 L178.374,190.266 L179.97,190.266 L181.622,192.632 L183.246,190.266 L184.8,190.266 L182.406,193.57 C182.812,194.116 184.478,196.454 184.884,197 L183.302,197 L181.566,194.522 L179.858,197 L178.29,197 Z M186.004,196.104 C186.004,195.6 186.438,195.166 187.026,195.166 C187.628,195.166 188.16,195.614 188.16,196.496 C188.16,198.344 186.956,199.114 186.088,199.226 L186.088,198.498 C186.774,198.344 187.236,197.658 187.25,196.986 C187.208,197.014 187.096,197.056 186.942,197.056 C186.424,197.056 186.004,196.706 186.004,196.104 Z M201.712,197 L200.34,197 L200.34,192.59 L195.272,192.59 L195.272,197 L193.9,197 L193.9,187.074 L195.272,187.074 L195.272,191.316 L200.34,191.316 L200.34,187.074 L201.712,187.074 L201.712,197 Z M204.946,192.94 L208.628,192.94 C208.6,191.974 207.97,191.218 206.78,191.218 C205.674,191.218 205.002,192.072 204.946,192.94 Z M208.824,194.69 L209.958,195.082 C209.58,196.272 208.502,197.21 206.934,197.21 C205.128,197.21 203.546,195.894 203.546,193.612 C203.546,191.498 205.072,190.056 206.766,190.056 C208.838,190.056 210,191.484 210,193.584 C210,193.752 209.986,193.92 209.972,194.004 L204.904,194.004 C204.932,195.208 205.8,196.048 206.934,196.048 C208.026,196.048 208.572,195.446 208.824,194.69 Z M210.63,197 L213.136,193.57 L210.714,190.266 L212.31,190.266 L213.962,192.632 L215.586,190.266 L217.14,190.266 L214.746,193.57 C215.152,194.116 216.818,196.454 217.224,197 L215.642,197 L213.906,194.522 L212.198,197 L210.63,197 Z M226.422,197.21 C223.86,197.21 221.494,195.348 221.494,192.03 C221.494,188.712 223.958,186.864 226.422,186.864 C228.69,186.864 230.286,188.096 230.79,190.014 L229.516,190.462 C229.138,188.964 228.046,188.124 226.422,188.124 C224.616,188.124 222.894,189.44 222.894,192.03 C222.894,194.62 224.616,195.95 226.422,195.95 C228.116,195.95 229.18,194.928 229.586,193.57 L230.804,194.018 C230.272,195.88 228.704,197.21 226.422,197.21 Z M235.088,196.034 C236.208,196.034 237.188,195.194 237.188,193.626 C237.188,192.072 236.208,191.232 235.088,191.232 C233.968,191.232 232.988,192.072 232.988,193.626 C232.988,195.194 233.968,196.034 235.088,196.034 Z M235.088,190.056 C237.104,190.056 238.532,191.582 238.532,193.626 C238.532,195.684 237.104,197.21 235.088,197.21 C233.072,197.21 231.644,195.684 231.644,193.626 C231.644,191.582 233.072,190.056 235.088,190.056 Z M241.528,197 L240.212,197 L240.212,186.864 L241.528,186.864 L241.528,197 Z M246.652,196.034 C247.772,196.034 248.752,195.194 248.752,193.626 C248.752,192.072 247.772,191.232 246.652,191.232 C245.532,191.232 244.552,192.072 244.552,193.626 C244.552,195.194 245.532,196.034 246.652,196.034 Z M246.652,190.056 C248.668,190.056 250.096,191.582 250.096,193.626 C250.096,195.684 248.668,197.21 246.652,197.21 C244.636,197.21 243.208,195.684 243.208,193.626 C243.208,191.582 244.636,190.056 246.652,190.056 Z M255.514,190.196 L255.514,191.596 C255.318,191.568 255.122,191.554 254.94,191.554 C253.834,191.554 253.092,192.142 253.092,193.626 L253.092,197 L251.776,197 L251.776,190.266 L253.064,190.266 L253.064,191.442 C253.554,190.406 254.394,190.154 255.08,190.154 C255.262,190.154 255.444,190.182 255.514,190.196 Z M260.358,196.104 C260.358,195.558 260.778,195.124 261.324,195.124 C261.87,195.124 262.304,195.558 262.304,196.104 C262.304,196.65 261.87,197.07 261.324,197.07 C260.778,197.07 260.358,196.65 260.358,196.104 Z M260.344,191.176 C260.344,190.63 260.764,190.196 261.31,190.196 C261.856,190.196 262.29,190.63 262.29,191.176 C262.29,191.722 261.856,192.142 261.31,192.142 C260.764,192.142 260.344,191.722 260.344,191.176 Z M268.912,192.464 C268.912,193.85 269.164,194.83 269.71,195.404 C270.06,195.768 270.508,195.992 271.152,195.992 C271.796,195.992 272.244,195.768 272.594,195.404 C273.14,194.83 273.392,193.85 273.392,192.464 C273.392,191.078 273.14,190.098 272.594,189.524 C272.244,189.16 271.796,188.936 271.152,188.936 C270.508,188.936 270.06,189.16 269.71,189.524 C269.164,190.098 268.912,191.078 268.912,192.464 Z M267.554,192.464 C267.554,191.218 267.764,190.07 268.366,189.174 C268.954,188.292 269.864,187.718 271.152,187.718 C272.44,187.718 273.35,188.292 273.938,189.174 C274.54,190.07 274.75,191.218 274.75,192.464 C274.75,193.71 274.54,194.858 273.938,195.754 C273.35,196.636 272.44,197.21 271.152,197.21 C269.864,197.21 268.954,196.636 268.366,195.754 C267.764,194.858 267.554,193.71 267.554,192.464 Z M277.438,192.464 C277.438,193.85 277.69,194.83 278.236,195.404 C278.586,195.768 279.034,195.992 279.678,195.992 C280.322,195.992 280.77,195.768 281.12,195.404 C281.666,194.83 281.918,193.85 281.918,192.464 C281.918,191.078 281.666,190.098 281.12,189.524 C280.77,189.16 280.322,188.936 279.678,188.936 C279.034,188.936 278.586,189.16 278.236,189.524 C277.69,190.098 277.438,191.078 277.438,192.464 Z M276.08,192.464 C276.08,191.218 276.29,190.07 276.892,189.174 C277.48,188.292 278.39,187.718 279.678,187.718 C280.966,187.718 281.876,188.292 282.464,189.174 C283.066,190.07 283.276,191.218 283.276,192.464 C283.276,193.71 283.066,194.858 282.464,195.754 C281.876,196.636 280.966,197.21 279.678,197.21 C278.39,197.21 277.48,196.636 276.892,195.754 C276.29,194.858 276.08,193.71 276.08,192.464 Z M285.964,192.464 C285.964,193.85 286.216,194.83 286.762,195.404 C287.112,195.768 287.56,195.992 288.204,195.992 C288.848,195.992 289.296,195.768 289.646,195.404 C290.192,194.83 290.444,193.85 290.444,192.464 C290.444,191.078 290.192,190.098 289.646,189.524 C289.296,189.16 288.848,188.936 288.204,188.936 C287.56,188.936 287.112,189.16 286.762,189.524 C286.216,190.098 285.964,191.078 285.964,192.464 Z M284.606,192.464 C284.606,191.218 284.816,190.07 285.418,189.174 C286.006,188.292 286.916,187.718 288.204,187.718 C289.492,187.718 290.402,188.292 290.99,189.174 C291.592,190.07 291.802,191.218 291.802,192.464 C291.802,193.71 291.592,194.858 290.99,195.754 C290.402,196.636 289.492,197.21 288.204,197.21 C286.916,197.21 286.006,196.636 285.418,195.754 C284.816,194.858 284.606,193.71 284.606,192.464 Z M294.49,192.464 C294.49,193.85 294.742,194.83 295.288,195.404 C295.638,195.768 296.086,195.992 296.73,195.992 C297.374,195.992 297.822,195.768 298.172,195.404 C298.718,194.83 298.97,193.85 298.97,192.464 C298.97,191.078 298.718,190.098 298.172,189.524 C297.822,189.16 297.374,188.936 296.73,188.936 C296.086,188.936 295.638,189.16 295.288,189.524 C294.742,190.098 294.49,191.078 294.49,192.464 Z M293.132,192.464 C293.132,191.218 293.342,190.07 293.944,189.174 C294.532,188.292 295.442,187.718 296.73,187.718 C298.018,187.718 298.928,188.292 299.516,189.174 C300.118,190.07 300.328,191.218 300.328,192.464 C300.328,193.71 300.118,194.858 299.516,195.754 C298.928,196.636 298.018,197.21 296.73,197.21 C295.442,197.21 294.532,196.636 293.944,195.754 C293.342,194.858 293.132,193.71 293.132,192.464 Z M303.016,192.464 C303.016,193.85 303.268,194.83 303.814,195.404 C304.164,195.768 304.612,195.992 305.256,195.992 C305.9,195.992 306.348,195.768 306.698,195.404 C307.244,194.83 307.496,193.85 307.496,192.464 C307.496,191.078 307.244,190.098 306.698,189.524 C306.348,189.16 305.9,188.936 305.256,188.936 C304.612,188.936 304.164,189.16 303.814,189.524 C303.268,190.098 303.016,191.078 303.016,192.464 Z M301.658,192.464 C301.658,191.218 301.868,190.07 302.47,189.174 C303.058,188.292 303.968,187.718 305.256,187.718 C306.544,187.718 307.454,188.292 308.042,189.174 C308.644,190.07 308.854,191.218 308.854,192.464 C308.854,193.71 308.644,194.858 308.042,195.754 C307.454,196.636 306.544,197.21 305.256,197.21 C303.968,197.21 303.058,196.636 302.47,195.754 C301.868,194.858 301.658,193.71 301.658,192.464 Z M319.13,187.074 L314.328,197 L313.054,197 L317.856,187.074 L319.13,187.074 Z M323.12,194.536 L324.436,194.144 C324.52,195.264 325.346,196.02 326.48,196.02 C327.558,196.02 328.426,195.306 328.426,194.186 C328.426,192.94 327.516,192.31 326.466,192.31 C325.822,192.31 325.206,192.562 324.814,192.968 C324.338,192.786 323.932,192.604 323.47,192.436 L324.646,187.928 L329.434,187.928 L329.434,189.188 L325.556,189.188 L324.884,191.792 C325.29,191.344 326.018,191.12 326.732,191.12 C328.51,191.12 329.812,192.254 329.812,194.13 C329.812,195.838 328.496,197.224 326.48,197.224 C324.548,197.224 323.246,195.964 323.12,194.536 Z M330.792,194.956 L330.792,193.374 L334.684,187.928 L336.574,187.928 L336.574,193.682 L338.128,193.682 L338.128,194.956 L336.574,194.956 L336.574,197 L335.244,197 L335.244,194.956 L330.792,194.956 Z M335.244,193.682 L335.244,189.244 L332.052,193.682 L335.244,193.682 Z M343.77,190.028 C343.77,190.672 344.246,191.134 344.848,191.134 C345.464,191.134 345.926,190.672 345.926,190.028 C345.926,189.398 345.464,188.936 344.848,188.936 C344.246,188.936 343.77,189.398 343.77,190.028 Z M342.608,190.028 C342.608,188.796 343.644,187.83 344.848,187.83 C346.052,187.83 347.102,188.796 347.102,190.028 C347.102,191.274 346.052,192.24 344.848,192.24 C343.644,192.24 342.608,191.274 342.608,190.028 Z M349.314,194.9 C349.314,195.544 349.79,196.006 350.392,196.006 C351.008,196.006 351.47,195.544 351.47,194.9 C351.47,194.27 351.008,193.808 350.392,193.808 C349.79,193.808 349.314,194.27 349.314,194.9 Z M348.152,194.9 C348.152,193.668 349.188,192.702 350.392,192.702 C351.596,192.702 352.646,193.668 352.646,194.9 C352.646,196.146 351.596,197.112 350.392,197.112 C349.188,197.112 348.152,196.146 348.152,194.9 Z M345.016,197 L343.728,197 L350.252,187.928 L351.512,187.928 L345.016,197 Z" id="List-Text-Above-:-Me" fill-opacity="0.38" fill="#000000"></path>
                <path d="M0.5,125.5 L139.013537,125.5" id="Line-2" stroke="#E0E0E0" stroke-linecap="round" stroke-linejoin="round"></path>
                <g id="#height-left-B8CC14C2-001B-450A-98FB-4BA2B03DBE65" transform="translate(333.000000, 37.000000)">
                    <rect id="line" fill="#FF5500" x="16" y="0" width="1" height="25"></rect>
                    <rect id="start" fill="#FF5500" x="14" y="0" width="5" height="1"></rect>
                    <rect id="end" fill="#FF5500" x="14" y="64" width="5" height="1"></rect>
                    <text id="Varies" font-family="HelveticaNeue, Helvetica Neue" font-size="12" font-weight="normal" fill="#FF5722">
                        <tspan x="0.39" y="37">Varies</tspan>
                    </text>
                    <rect id="line" fill="#FF5500" x="16" y="41" width="1" height="24"></rect>
                </g>
                <g id="List/Two-Line/System-Control-Copy" filter="url(#filter-1)" transform="translate(1.000000, 29.000000)">
                    <g id="Group-5">
                        <g id="row" fill="#FFFFFF">
                            <rect id="row-bg" x="0" y="0" width="320" height="71"></rect>
                        </g>
                        <g id="Group" transform="translate(16.000000, 22.500000)" fill="#000000">
                            <g id="Group-2">
                                <path d="M4.87402344,10 L2.89160156,10 L2.89160156,2.37792969 L0.280273438,2.37792969 L0.280273438,0.668945312 L7.48535156,0.668945312 L7.48535156,2.37792969 L4.87402344,2.37792969 L4.87402344,10 Z M11.0537109,10.1298828 C9.0234375,10.1298828 7.69042969,8.95410156 7.69042969,6.73925781 L7.69042969,5.96679688 C7.69042969,3.74511719 9.13964844,2.58984375 10.9580078,2.58984375 C12.8720703,2.58984375 14.2050781,3.875 14.2050781,5.96679688 L14.2050781,6.78710938 L9.57714844,6.78710938 L9.57714844,7.12890625 C9.57714844,8.02441406 10.1582031,8.61914062 11.046875,8.61914062 C11.7578125,8.61914062 12.2705078,8.28417969 12.3457031,7.83300781 L14.1435547,7.83300781 C14.0820312,8.78320312 13.1796875,10.1298828 11.0537109,10.1298828 Z M9.57714844,5.625 L12.3525391,5.625 L12.3525391,5.56347656 C12.3525391,4.66113281 11.8056641,4.05957031 10.9716797,4.05957031 C10.1376953,4.05957031 9.57714844,4.66113281 9.57714844,5.56347656 L9.57714844,5.625 Z M20.015625,10 L18.6689453,7.62792969 L18.59375,7.62792969 L17.2402344,10 L15.203125,10 L17.4384766,6.37695312 L15.1210938,2.71972656 L17.3427734,2.71972656 L18.6621094,5.078125 L18.7441406,5.078125 L20.0976562,2.71972656 L22.2099609,2.71972656 L19.8447266,6.32226562 L22.1621094,10 L20.015625,10 Z M24.0419922,2.81542969 L24.0419922,1.01074219 L25.9082031,1.01074219 L25.9082031,2.81542969 L27.5146484,2.81542969 L27.5146484,4.33300781 L25.9082031,4.33300781 L25.9082031,7.62109375 C25.9082031,8.29785156 26.2158203,8.51660156 26.9404297,8.51660156 C27.1796875,8.51660156 27.4394531,8.50292969 27.5693359,8.48925781 L27.5693359,9.95214844 C27.4257812,9.97949219 26.9130859,10.0341797 26.46875,10.0341797 C24.6435547,10.0341797 24.0009766,9.43945312 24.0009766,7.93554688 L24.0009766,4.33300781 L22.8935547,4.33300781 L22.8935547,2.81542969 L24.0419922,2.81542969 Z M39.8193359,3.70410156 L37.8916016,3.70410156 C37.7753906,2.76757812 37.0439453,2.20703125 36.0595703,2.20703125 C34.8837891,2.20703125 34.0429688,3.01367188 34.0429688,4.75 L34.0429688,5.87109375 C34.0429688,7.36132812 34.6171875,8.46875 36.0800781,8.46875 C37.2353516,8.46875 37.953125,7.75097656 37.953125,6.89648438 L37.953125,6.40429688 L36.1279297,6.40429688 L36.1279297,4.92089844 L39.8330078,4.92089844 L39.8330078,6.75292969 C39.8330078,8.29785156 38.8486328,10.1777344 36.0527344,10.1777344 C33.2705078,10.1777344 32.046875,8.31152344 32.046875,5.87792969 L32.046875,4.72949219 C32.046875,2.1796875 33.5439453,0.498046875 36.0869141,0.498046875 C38.5478516,0.498046875 39.7578125,2.08398438 39.8193359,3.70410156 Z M44.8232422,2.58984375 C46.8466797,2.58984375 48.1796875,3.90917969 48.1796875,5.98046875 L48.1796875,6.69140625 C48.1796875,8.89257812 46.8466797,10.1298828 44.8232422,10.1298828 C42.7724609,10.1298828 41.4462891,8.90625 41.4462891,6.69824219 L41.4462891,5.98730469 C41.4462891,3.95019531 42.7861328,2.58984375 44.8232422,2.58984375 Z M44.8232422,4.11425781 C43.8525391,4.11425781 43.3945312,4.98925781 43.3945312,6.00097656 L43.3945312,6.71191406 C43.3945312,7.703125 43.8183594,8.60546875 44.8232422,8.60546875 C45.8212891,8.60546875 46.2382812,7.70996094 46.2382812,6.71191406 L46.2382812,6.00097656 C46.2382812,4.98242188 45.7871094,4.11425781 44.8232422,4.11425781 Z M52.9648438,10.1298828 C50.9345703,10.1298828 49.6015625,8.95410156 49.6015625,6.73925781 L49.6015625,5.96679688 C49.6015625,3.74511719 51.0507812,2.58984375 52.8691406,2.58984375 C54.7832031,2.58984375 56.1162109,3.875 56.1162109,5.96679688 L56.1162109,6.78710938 L51.4882812,6.78710938 L51.4882812,7.12890625 C51.4882812,8.02441406 52.0693359,8.61914062 52.9580078,8.61914062 C53.6689453,8.61914062 54.1816406,8.28417969 54.2568359,7.83300781 L56.0546875,7.83300781 C55.9931641,8.78320312 55.0908203,10.1298828 52.9648438,10.1298828 Z M51.4882812,5.625 L54.2636719,5.625 L54.2636719,5.56347656 C54.2636719,4.66113281 53.7167969,4.05957031 52.8828125,4.05957031 C52.0488281,4.05957031 51.4882812,4.66113281 51.4882812,5.56347656 L51.4882812,5.625 Z M57.5791016,4.88671875 C57.5791016,3.23925781 58.9736328,2.58984375 60.5458984,2.58984375 C62.1933594,2.58984375 63.3623047,3.34863281 63.3623047,4.75 L61.6669922,4.75 C61.6191406,4.34667969 61.25,3.9296875 60.5117188,3.9296875 C59.828125,3.9296875 59.4111328,4.25097656 59.4111328,4.72949219 C59.4111328,5.44042969 60.5253906,5.53613281 61.3046875,5.66601562 C62.6445312,5.89160156 63.5878906,6.41796875 63.5878906,7.73046875 C63.5878906,9.22070312 62.4189453,10.1298828 60.4296875,10.1298828 C58.5361328,10.1298828 57.4355469,9.25488281 57.4355469,7.95605469 L59.3017578,7.95605469 C59.3632812,8.44140625 59.7529297,8.78320312 60.5185547,8.78320312 C61.3662109,8.78320312 61.7216797,8.4140625 61.7216797,7.96289062 C61.7216797,7.29980469 60.8603516,7.22460938 59.9238281,7.046875 C58.6318359,6.79394531 57.5791016,6.30859375 57.5791016,4.88671875 Z M76.2207031,10 L74.2382812,10 L74.2382812,6.09667969 L70.4785156,6.09667969 L70.4785156,10 L68.4960937,10 L68.4960937,0.668945312 L70.4785156,0.668945312 L70.4785156,4.40136719 L74.2382812,4.40136719 L74.2382812,0.668945312 L76.2207031,0.668945312 L76.2207031,10 Z M81.4365234,10.1298828 C79.40625,10.1298828 78.0732422,8.95410156 78.0732422,6.73925781 L78.0732422,5.96679688 C78.0732422,3.74511719 79.5224609,2.58984375 81.3408203,2.58984375 C83.2548828,2.58984375 84.5878906,3.875 84.5878906,5.96679688 L84.5878906,6.78710938 L79.9599609,6.78710938 L79.9599609,7.12890625 C79.9599609,8.02441406 80.5410156,8.61914062 81.4296875,8.61914062 C82.140625,8.61914062 82.6533203,8.28417969 82.7285156,7.83300781 L84.5263672,7.83300781 C84.4648437,8.78320312 83.5625,10.1298828 81.4365234,10.1298828 Z M79.9599609,5.625 L82.7353516,5.625 L82.7353516,5.56347656 C82.7353516,4.66113281 82.1884766,4.05957031 81.3544922,4.05957031 C80.5205078,4.05957031 79.9599609,4.66113281 79.9599609,5.56347656 L79.9599609,5.625 Z M86.3789062,10 L86.3789062,2.71972656 L88.3066406,2.71972656 L88.3066406,3.86816406 L88.4023437,3.86816406 C88.5390625,3.36914062 89.0722656,2.6171875 90.1933594,2.6171875 C90.4599609,2.6171875 90.6513672,2.63769531 90.7949219,2.671875 L90.7949219,4.39453125 C90.6513672,4.33984375 90.3505859,4.3125 90.0566406,4.3125 C88.8945312,4.3125 88.3544922,4.97558594 88.3544922,5.953125 L88.3544922,10 L86.3789062,10 Z M95.1494141,10.1298828 C93.1191406,10.1298828 91.7861328,8.95410156 91.7861328,6.73925781 L91.7861328,5.96679688 C91.7861328,3.74511719 93.2353516,2.58984375 95.0537109,2.58984375 C96.9677734,2.58984375 98.3007812,3.875 98.3007812,5.96679688 L98.3007812,6.78710938 L93.6728516,6.78710938 L93.6728516,7.12890625 C93.6728516,8.02441406 94.2539062,8.61914062 95.1425781,8.61914062 C95.8535156,8.61914062 96.3662109,8.28417969 96.4414062,7.83300781 L98.2392578,7.83300781 C98.1777344,8.78320312 97.2753906,10.1298828 95.1494141,10.1298828 Z M93.6728516,5.625 L96.4482422,5.625 L96.4482422,5.56347656 C96.4482422,4.66113281 95.9013672,4.05957031 95.0673828,4.05957031 C94.2333984,4.05957031 93.6728516,4.66113281 93.6728516,5.56347656 L93.6728516,5.625 Z" id="Text-Goes-Here" fill-opacity="0.7"></path>
                                <path d="M3.83496094,30 L2.87109375,30 L0.287109375,20.6689453 L1.57226562,20.6689453 L3.35644531,28.2773438 L3.41113281,28.2773438 L5.27734375,20.6689453 L6.44628906,20.6689453 L8.30566406,28.2773438 L8.3671875,28.2773438 L10.1513672,20.6689453 L11.4365234,20.6689453 L8.84570312,30 L7.875,30 L5.88574219,22.4667969 L5.82421875,22.4667969 L3.83496094,30 Z M13.1044922,30 L13.1044922,22.8291016 L14.1777344,22.8291016 L14.1777344,23.9296875 L14.2324219,23.9296875 C14.4169922,23.4580078 14.9365234,22.7197266 16.2421875,22.7197266 C16.3720703,22.7197266 16.515625,22.7333984 16.6591797,22.7470703 L16.6591797,23.7451172 C16.5429687,23.7246094 16.3173828,23.7177734 16.1123047,23.7177734 C14.8271484,23.7177734 14.1777344,24.4970703 14.1777344,25.4677734 L14.1777344,30 L13.1044922,30 Z M18.5458984,30 L18.5458984,22.8291016 L19.6191406,22.8291016 L19.6191406,30 L18.5458984,30 Z M18.2724609,20.59375 C18.2724609,20.1220703 18.6279297,19.7802734 19.0722656,19.7802734 C19.5439453,19.7802734 19.8925781,20.1220703 19.8925781,20.59375 C19.8925781,21.0517578 19.5439453,21.3935547 19.0722656,21.3935547 C18.6279297,21.3935547 18.2724609,21.0517578 18.2724609,20.59375 Z M22.6816406,22.8291016 L22.6816406,21.0244141 L23.7548828,21.0244141 L23.7548828,22.8291016 L25.3818359,22.8291016 L25.3818359,23.7246094 L23.7548828,23.7246094 L23.7548828,28.0517578 C23.7548828,28.9335938 24.0351562,29.1523438 24.9443359,29.1523438 C25.1083984,29.1523438 25.3886719,29.1318359 25.4980469,29.1181641 L25.4980469,30.0136719 C25.4023438,30.0341797 24.8964844,30.0683594 24.6708984,30.0683594 C22.9892578,30.0683594 22.6816406,29.3984375 22.6816406,27.9970703 L22.6816406,23.7246094 L21.5878906,23.7246094 L21.5878906,22.8291016 L22.6816406,22.8291016 Z M30.1259766,30.1162109 C28.21875,30.1162109 27.1181641,28.8789062 27.1181641,26.9990234 L27.1181641,25.8369141 C27.1181641,23.9365234 28.3349609,22.7128906 30.0371094,22.7128906 C31.7392578,22.7128906 32.9560547,23.9365234 32.9560547,25.8369141 L32.9560547,26.7119141 L28.1982422,26.7119141 L28.1982422,27.0810547 C28.1982422,28.2431641 28.8544922,29.1660156 30.1191406,29.1660156 C30.9941406,29.1660156 31.5751953,28.7490234 31.7119141,28.3046875 L32.8535156,28.3046875 C32.7373047,29.0361328 31.8759766,30.1162109 30.1259766,30.1162109 Z M28.1982422,25.8779297 L31.8759766,25.8779297 L31.8759766,25.7480469 C31.8759766,24.4902344 31.1445313,23.6630859 30.0371094,23.6630859 C28.9296875,23.6630859 28.1982422,24.4902344 28.1982422,25.7480469 L28.1982422,25.8779297 Z M38.2539062,30 L38.2539062,22.8291016 L39.3271484,22.8291016 L39.3271484,23.9570312 L39.3818359,23.9570312 C39.5527344,23.4580078 39.9970703,22.7128906 41.3232422,22.7128906 C42.4101562,22.7128906 43.09375,23.2939453 43.3261719,24.0595703 L43.3740234,24.0595703 C43.6748047,23.3486328 44.3515625,22.7128906 45.5615234,22.7128906 C47.0380859,22.7128906 47.9404297,23.4990234 47.9404297,24.9414062 L47.9404297,30 L46.8671875,30 L46.8671875,25.2285156 C46.8671875,24.3125 46.3408203,23.6630859 45.3017578,23.6630859 C44.3583984,23.6630859 43.6337891,24.3945312 43.6337891,25.3994141 L43.6337891,30 L42.5605469,30 L42.5605469,25.2832031 C42.5605469,24.3466797 41.9658203,23.6630859 40.9609375,23.6630859 C40.0039062,23.6630859 39.3271484,24.3876953 39.3271484,25.3857422 L39.3271484,30 L38.2539062,30 Z M52.3427734,30.1162109 C50.9550781,30.1162109 50.0048828,29.234375 50.0048828,27.9150391 C50.0048828,26.6708984 50.8730469,25.8164062 52.5136719,25.8164062 L54.4277344,25.8164062 L54.4277344,25.0849609 C54.4277344,24.1074219 53.8125,23.6630859 52.8349609,23.6630859 C51.8779297,23.6630859 51.4814453,24.0253906 51.3242188,24.5380859 L50.2783203,24.5380859 C50.3945312,23.3144531 51.3857422,22.7128906 52.8828125,22.7128906 C54.3183594,22.7128906 55.5146484,23.3417969 55.5146484,25.078125 L55.5146484,30 L54.4755859,30 L54.4755859,29.0361328 L54.4277344,29.0361328 C54.0585938,29.6240234 53.4023438,30.1162109 52.3427734,30.1162109 Z M52.6162109,29.1660156 C53.6484375,29.1660156 54.4277344,28.4619141 54.4277344,27.5322266 L54.4277344,26.7119141 L52.5341797,26.7119141 C51.515625,26.7119141 51.1123047,27.2246094 51.1123047,27.8945312 C51.1123047,28.7695312 51.8300781,29.1660156 52.6162109,29.1660156 Z M62.0976562,30 L60.3339844,27.2724609 L60.2929688,27.2724609 L58.5224609,30 L57.2988281,30 L59.7324219,26.4589844 L57.2851562,22.8291016 L58.5839844,22.8291016 L60.2998047,25.5498047 L60.3476562,25.5498047 L62.1181641,22.8291016 L63.3554688,22.8291016 L60.9082031,26.3359375 L63.3964844,30 L62.0976562,30 Z M65.3857422,30 L65.3857422,22.8291016 L66.4589844,22.8291016 L66.4589844,30 L65.3857422,30 Z M65.1123047,20.59375 C65.1123047,20.1220703 65.4677734,19.7802734 65.9121094,19.7802734 C66.3837891,19.7802734 66.7324219,20.1220703 66.7324219,20.59375 C66.7324219,21.0517578 66.3837891,21.3935547 65.9121094,21.3935547 C65.4677734,21.3935547 65.1123047,21.0517578 65.1123047,20.59375 Z M69.1591797,30 L69.1591797,22.8291016 L70.2324219,22.8291016 L70.2324219,23.9570312 L70.2871094,23.9570312 C70.4580078,23.4580078 70.9023438,22.7128906 72.2285156,22.7128906 C73.3154297,22.7128906 73.9990234,23.2939453 74.2314453,24.0595703 L74.2792969,24.0595703 C74.5800781,23.3486328 75.2568359,22.7128906 76.4667969,22.7128906 C77.9433594,22.7128906 78.8457031,23.4990234 78.8457031,24.9414062 L78.8457031,30 L77.7724609,30 L77.7724609,25.2285156 C77.7724609,24.3125 77.2460938,23.6630859 76.2070312,23.6630859 C75.2636719,23.6630859 74.5390625,24.3945312 74.5390625,25.3994141 L74.5390625,30 L73.4658203,30 L73.4658203,25.2832031 C73.4658203,24.3466797 72.8710938,23.6630859 71.8662109,23.6630859 C70.9091797,23.6630859 70.2324219,24.3876953 70.2324219,25.3857422 L70.2324219,30 L69.1591797,30 Z M87.0146484,22.8291016 L87.0146484,30 L85.9414062,30 L85.9414062,28.8105469 L85.8798828,28.8105469 C85.6748047,29.3984375 84.9980469,30.1162109 83.7402344,30.1162109 C82.3046875,30.1162109 81.2724609,29.4941406 81.2724609,27.8398438 L81.2724609,22.8291016 L82.3457031,22.8291016 L82.3457031,27.5458984 C82.3457031,28.7626953 83.0771484,29.1660156 83.9863281,29.1660156 C85.1005859,29.1660156 85.9414062,28.3457031 85.9414062,27.4091797 L85.9414062,22.8291016 L87.0146484,22.8291016 Z M89.5302734,30 L89.5302734,22.8291016 L90.6035156,22.8291016 L90.6035156,23.9570312 L90.6582031,23.9570312 C90.8291016,23.4580078 91.2734375,22.7128906 92.5996094,22.7128906 C93.6865234,22.7128906 94.3701172,23.2939453 94.6025391,24.0595703 L94.6503906,24.0595703 C94.9511719,23.3486328 95.6279297,22.7128906 96.8378906,22.7128906 C98.3144531,22.7128906 99.2167969,23.4990234 99.2167969,24.9414062 L99.2167969,30 L98.1435547,30 L98.1435547,25.2285156 C98.1435547,24.3125 97.6171875,23.6630859 96.578125,23.6630859 C95.6347656,23.6630859 94.9101562,24.3945312 94.9101562,25.3994141 L94.9101562,30 L93.8369141,30 L93.8369141,25.2832031 C93.8369141,24.3466797 93.2421875,23.6630859 92.2373047,23.6630859 C91.2802734,23.6630859 90.6035156,24.3876953 90.6035156,25.3857422 L90.6035156,30 L89.5302734,30 Z M105.710938,23.2119141 L104.644531,23.2119141 L104.644531,23.1777344 C104.644531,21.7626953 105.663086,20.4707031 107.542969,20.4707031 C109.258789,20.4707031 110.386719,21.5576172 110.386719,23.0136719 C110.386719,24.1484375 109.703125,24.9345703 108.807617,25.9667969 L106.223633,28.9541016 L106.223633,29.0292969 L110.564453,29.0292969 L110.564453,30 L104.658203,30 L104.658203,29.3095703 L108.199219,25.2148438 C108.71875,24.6201172 109.272461,23.9570312 109.272461,23.0820312 C109.272461,22.0566406 108.520508,21.4277344 107.515625,21.4277344 C106.374023,21.4277344 105.710938,22.2480469 105.710938,23.1777344 L105.710938,23.2119141 Z M112.444336,27.8876953 L113.503906,27.8876953 C113.702148,28.8789062 114.625,29.2412109 115.5,29.2412109 C116.484375,29.2412109 117.550781,28.46875 117.550781,26.9990234 C117.550781,25.7070312 116.566406,24.9345703 115.472656,24.9345703 C114.467773,24.9345703 113.825195,25.5224609 113.558594,26.0009766 L112.649414,26.0009766 L113.073242,20.6689453 L118.213867,20.6689453 L118.213867,21.6396484 L114.016602,21.6396484 L113.75,24.7705078 L113.811523,24.7705078 C114.009766,24.4697266 114.65918,23.9775391 115.68457,23.9775391 C117.318359,23.9775391 118.658203,25.1054688 118.658203,26.9716797 C118.658203,28.8789062 117.345703,30.1982422 115.417969,30.1982422 C113.756836,30.1982422 112.546875,29.2275391 112.444336,27.8876953 Z M123.55957,27.0332031 L123.55957,25.7753906 C123.55957,23.9228516 124.6875,22.7128906 126.499023,22.7128906 C128.269531,22.7128906 129.158203,23.8134766 129.192383,24.8115234 L128.119141,24.8115234 C128.037109,24.4082031 127.702148,23.6904297 126.512695,23.6904297 C125.268555,23.6904297 124.632812,24.5244141 124.632812,25.8232422 L124.632812,27.046875 C124.632812,28.3183594 125.34375,29.1386719 126.512695,29.1386719 C127.626953,29.1386719 128.037109,28.6396484 128.173828,28.1064453 L129.24707,28.1064453 C129.199219,29.0703125 128.37207,30.1162109 126.499023,30.1162109 C124.6875,30.1162109 123.55957,28.9199219 123.55957,27.0332031 Z M131.291016,30 L131.291016,19.9033203 L132.364258,19.9033203 L132.364258,24.1416016 L132.418945,24.1416016 C132.5625,23.6494141 133.143555,22.7128906 134.661133,22.7128906 C136.048828,22.7128906 137.081055,23.4990234 137.081055,25.0917969 L137.081055,30 L136.007812,30 L136.007812,25.4472656 C136.007812,24.2988281 135.37207,23.6630859 134.339844,23.6630859 C133.027344,23.6630859 132.364258,24.7021484 132.364258,26.0009766 L132.364258,30 L131.291016,30 Z M141.483398,30.1162109 C140.095703,30.1162109 139.145508,29.234375 139.145508,27.9150391 C139.145508,26.6708984 140.013672,25.8164062 141.654297,25.8164062 L143.568359,25.8164062 L143.568359,25.0849609 C143.568359,24.1074219 142.953125,23.6630859 141.975586,23.6630859 C141.018555,23.6630859 140.62207,24.0253906 140.464844,24.5380859 L139.418945,24.5380859 C139.535156,23.3144531 140.526367,22.7128906 142.023438,22.7128906 C143.458984,22.7128906 144.655273,23.3417969 144.655273,25.078125 L144.655273,30 L143.616211,30 L143.616211,29.0361328 L143.568359,29.0361328 C143.199219,29.6240234 142.542969,30.1162109 141.483398,30.1162109 Z M141.756836,29.1660156 C142.789062,29.1660156 143.568359,28.4619141 143.568359,27.5322266 L143.568359,26.7119141 L141.674805,26.7119141 C140.65625,26.7119141 140.25293,27.2246094 140.25293,27.8945312 C140.25293,28.7695312 140.970703,29.1660156 141.756836,29.1660156 Z M147.259766,30 L147.259766,22.8291016 L148.333008,22.8291016 L148.333008,23.9296875 L148.387695,23.9296875 C148.572266,23.4580078 149.091797,22.7197266 150.397461,22.7197266 C150.527344,22.7197266 150.670898,22.7333984 150.814453,22.7470703 L150.814453,23.7451172 C150.698242,23.7246094 150.472656,23.7177734 150.267578,23.7177734 C148.982422,23.7177734 148.333008,24.4970703 148.333008,25.4677734 L148.333008,30 L147.259766,30 Z M154.4375,30.1162109 C153.049805,30.1162109 152.099609,29.234375 152.099609,27.9150391 C152.099609,26.6708984 152.967773,25.8164062 154.608398,25.8164062 L156.522461,25.8164062 L156.522461,25.0849609 C156.522461,24.1074219 155.907227,23.6630859 154.929688,23.6630859 C153.972656,23.6630859 153.576172,24.0253906 153.418945,24.5380859 L152.373047,24.5380859 C152.489258,23.3144531 153.480469,22.7128906 154.977539,22.7128906 C156.413086,22.7128906 157.609375,23.3417969 157.609375,25.078125 L157.609375,30 L156.570312,30 L156.570312,29.0361328 L156.522461,29.0361328 C156.15332,29.6240234 155.49707,30.1162109 154.4375,30.1162109 Z M154.710938,29.1660156 C155.743164,29.1660156 156.522461,28.4619141 156.522461,27.5322266 L156.522461,26.7119141 L154.628906,26.7119141 C153.610352,26.7119141 153.207031,27.2246094 153.207031,27.8945312 C153.207031,28.7695312 153.924805,29.1660156 154.710938,29.1660156 Z M159.735352,27.0332031 L159.735352,25.7753906 C159.735352,23.9228516 160.863281,22.7128906 162.674805,22.7128906 C164.445312,22.7128906 165.333984,23.8134766 165.368164,24.8115234 L164.294922,24.8115234 C164.212891,24.4082031 163.87793,23.6904297 162.688477,23.6904297 C161.444336,23.6904297 160.808594,24.5244141 160.808594,25.8232422 L160.808594,27.046875 C160.808594,28.3183594 161.519531,29.1386719 162.688477,29.1386719 C163.802734,29.1386719 164.212891,28.6396484 164.349609,28.1064453 L165.422852,28.1064453 C165.375,29.0703125 164.547852,30.1162109 162.674805,30.1162109 C160.863281,30.1162109 159.735352,28.9199219 159.735352,27.0332031 Z M167.808594,22.8291016 L167.808594,21.0244141 L168.881836,21.0244141 L168.881836,22.8291016 L170.508789,22.8291016 L170.508789,23.7246094 L168.881836,23.7246094 L168.881836,28.0517578 C168.881836,28.9335938 169.162109,29.1523438 170.071289,29.1523438 C170.235352,29.1523438 170.515625,29.1318359 170.625,29.1181641 L170.625,30.0136719 C170.529297,30.0341797 170.023438,30.0683594 169.797852,30.0683594 C168.116211,30.0683594 167.808594,29.3984375 167.808594,27.9970703 L167.808594,23.7246094 L166.714844,23.7246094 L166.714844,22.8291016 L167.808594,22.8291016 Z M175.25293,30.1162109 C173.345703,30.1162109 172.245117,28.8789062 172.245117,26.9990234 L172.245117,25.8369141 C172.245117,23.9365234 173.461914,22.7128906 175.164062,22.7128906 C176.866211,22.7128906 178.083008,23.9365234 178.083008,25.8369141 L178.083008,26.7119141 L173.325195,26.7119141 L173.325195,27.0810547 C173.325195,28.2431641 173.981445,29.1660156 175.246094,29.1660156 C176.121094,29.1660156 176.702148,28.7490234 176.838867,28.3046875 L177.980469,28.3046875 C177.864258,29.0361328 177.00293,30.1162109 175.25293,30.1162109 Z M173.325195,25.8779297 L177.00293,25.8779297 L177.00293,25.7480469 C177.00293,24.4902344 176.271484,23.6630859 175.164062,23.6630859 C174.056641,23.6630859 173.325195,24.4902344 173.325195,25.7480469 L173.325195,25.8779297 Z M180.325195,30 L180.325195,22.8291016 L181.398438,22.8291016 L181.398438,23.9296875 L181.453125,23.9296875 C181.637695,23.4580078 182.157227,22.7197266 183.462891,22.7197266 C183.592773,22.7197266 183.736328,22.7333984 183.879883,22.7470703 L183.879883,23.7451172 C183.763672,23.7246094 183.538086,23.7177734 183.333008,23.7177734 C182.047852,23.7177734 181.398438,24.4970703 181.398438,25.4677734 L181.398438,30 L180.325195,30 Z" id="Write-maximum-25-cha" fill-opacity="0.54"></path>
                            </g>
                        </g>
                        <path d="M16,70 L320,70" id="Line" stroke="#E0E0E0" stroke-width="0.5" stroke-linecap="square"></path>
                        <g id="Icon/Toggle/Switch-OFF" transform="translate(253.000000, 16.500000)">
                            <g id="Off" transform="translate(1.000000, 5.500000)">
                                <rect id="White-Background" fill="url(#linearGradient-2)" x="0.5" y="2" width="49.5" height="26" rx="13"></rect>
                                <g id="Knob">
                                    <use fill="black" fill-opacity="1" filter="url(#filter-4)" xlink:href="#path-3"></use>
                                    <use fill="#FFFFFF" fill-rule="evenodd" xlink:href="#path-3"></use>
                                    <circle stroke="#E0E0E0" stroke-width="0.5" cx="14.5" cy="14.5" r="14.25"></circle>
                                </g>
                                <path d="M9.63500977,19.0251465 L19.0251465,9.63500977" id="Line" stroke="#BDBDBD" stroke-width="2" stroke-linecap="round" stroke-linejoin="round"></path>
                                <path d="M9.63500977,9.63500977 L19.0251465,19.0251465" id="Line" stroke="#BDBDBD" stroke-width="2" stroke-linecap="round" stroke-linejoin="round"></path>
                            </g>
                        </g>
                    </g>
                </g>
                <path d="M5.008,11 L3.136,11 L3.136,0.328 L7.84,0.328 C10.08,0.328 11.312,1.848 11.312,3.672 C11.312,5.48 10.064,7 7.84,7 L5.008,7 L5.008,11 Z M7.584,5.352 C8.64,5.352 9.392,4.68 9.392,3.672 C9.392,2.648 8.64,1.976 7.584,1.976 L5.008,1.976 L5.008,5.352 L7.584,5.352 Z M14.512,11 L12.832,11 L12.832,0.328 L14.512,0.328 L14.512,11 Z M23.104,11 L21.424,11 L21.424,10.152 C20.848,10.824 19.936,11.192 18.912,11.192 C17.664,11.192 16.24,10.328 16.24,8.632 C16.24,6.84 17.648,6.104 18.912,6.104 C19.968,6.104 20.848,6.44 21.424,7.096 L21.424,5.944 C21.424,5.048 20.672,4.504 19.616,4.504 C18.752,4.504 17.984,4.824 17.328,5.496 L16.624,4.328 C17.52,3.464 18.64,3.08 19.872,3.08 C21.6,3.08 23.104,3.8 23.104,5.864 L23.104,11 Z M19.584,10.04 C20.304,10.04 21.024,9.768 21.424,9.24 L21.424,8.056 C21.024,7.528 20.304,7.256 19.584,7.256 C18.64,7.256 17.92,7.816 17.92,8.648 C17.92,9.496 18.64,10.04 19.584,10.04 Z M26.128,2.328 C25.552,2.328 25.088,1.864 25.088,1.288 C25.088,0.712 25.552,0.248 26.128,0.248 C26.704,0.248 27.168,0.712 27.168,1.288 C27.168,1.864 26.704,2.328 26.128,2.328 Z M26.96,11 L25.28,11 L25.28,3.272 L26.96,3.272 L26.96,11 Z M36.048,11 L34.368,11 L34.368,6.168 C34.368,4.952 33.744,4.568 32.8,4.568 C31.952,4.568 31.216,5.08 30.816,5.592 L30.816,11 L29.136,11 L29.136,3.272 L30.816,3.272 L30.816,4.312 C31.328,3.704 32.336,3.08 33.552,3.08 C35.216,3.08 36.048,3.976 36.048,5.56 L36.048,11 Z M42.512,11.32 L41.264,11.32 L45.056,0.008 L46.304,0.008 L42.512,11.32 Z M53.44,11 L51.568,11 L51.568,0.328 L56.272,0.328 C58.512,0.328 59.744,1.848 59.744,3.672 C59.744,5.48 58.496,7 56.272,7 L53.44,7 L53.44,11 Z M56.016,5.352 C57.072,5.352 57.824,4.68 57.824,3.672 C57.824,2.648 57.072,1.976 56.016,1.976 L53.44,1.976 L53.44,5.352 L56.016,5.352 Z M62.944,11 L61.264,11 L61.264,0.328 L62.944,0.328 L62.944,11 Z M71.536,11 L69.856,11 L69.856,10.152 C69.28,10.824 68.368,11.192 67.344,11.192 C66.096,11.192 64.672,10.328 64.672,8.632 C64.672,6.84 66.08,6.104 67.344,6.104 C68.4,6.104 69.28,6.44 69.856,7.096 L69.856,5.944 C69.856,5.048 69.104,4.504 68.048,4.504 C67.184,4.504 66.416,4.824 65.76,5.496 L65.056,4.328 C65.952,3.464 67.072,3.08 68.304,3.08 C70.032,3.08 71.536,3.8 71.536,5.864 L71.536,11 Z M68.016,10.04 C68.736,10.04 69.456,9.768 69.856,9.24 L69.856,8.056 C69.456,7.528 68.736,7.256 68.016,7.256 C67.072,7.256 66.352,7.816 66.352,8.648 C66.352,9.496 67.072,10.04 68.016,10.04 Z M74.56,2.328 C73.984,2.328 73.52,1.864 73.52,1.288 C73.52,0.712 73.984,0.248 74.56,0.248 C75.136,0.248 75.6,0.712 75.6,1.288 C75.6,1.864 75.136,2.328 74.56,2.328 Z M75.392,11 L73.712,11 L73.712,3.272 L75.392,3.272 L75.392,11 Z M84.48,11 L82.8,11 L82.8,6.168 C82.8,4.952 82.176,4.568 81.232,4.568 C80.384,4.568 79.648,5.08 79.248,5.592 L79.248,11 L77.568,11 L77.568,3.272 L79.248,3.272 L79.248,4.312 C79.76,3.704 80.768,3.08 81.984,3.08 C83.648,3.08 84.48,3.976 84.48,5.56 L84.48,11 Z M97.264,6.136 L94.304,6.136 L94.304,9.464 L93.12,9.464 L93.12,6.136 L90.16,6.136 L90.16,5.064 L93.12,5.064 L93.12,1.848 L94.304,1.848 L94.304,5.064 L97.264,5.064 L97.264,6.136 Z M104.864,11 L102.992,11 L102.992,0.328 L104.864,0.328 L104.864,11 Z M110.608,11.192 C108.272,11.192 106.624,9.464 106.624,7.128 C106.624,4.792 108.272,3.08 110.608,3.08 C112.128,3.08 113.024,3.72 113.568,4.456 L112.464,5.464 C112.032,4.856 111.44,4.568 110.688,4.568 C109.296,4.568 108.352,5.624 108.352,7.128 C108.352,8.632 109.296,9.704 110.688,9.704 C111.44,9.704 112.032,9.384 112.464,8.776 L113.568,9.816 C113.024,10.536 112.128,11.192 110.608,11.192 Z M118.56,11.192 C116.096,11.192 114.592,9.336 114.592,7.128 C114.592,4.904 116.096,3.08 118.56,3.08 C121.024,3.08 122.528,4.904 122.528,7.128 C122.528,9.336 121.024,11.192 118.56,11.192 Z M118.56,9.704 C120,9.704 120.784,8.504 120.784,7.128 C120.784,5.768 120,4.568 118.56,4.568 C117.136,4.568 116.336,5.768 116.336,7.128 C116.336,8.504 117.136,9.704 118.56,9.704 Z M131.152,11 L129.472,11 L129.472,6.168 C129.472,4.952 128.848,4.568 127.904,4.568 C127.056,4.568 126.32,5.08 125.92,5.592 L125.92,11 L124.24,11 L124.24,3.272 L125.92,3.272 L125.92,4.312 C126.432,3.704 127.44,3.08 128.656,3.08 C130.32,3.08 131.152,3.976 131.152,5.56 L131.152,11 Z" id="Plain-/-Plain-+-Icon" fill-opacity="0.38" fill="#000000"></path>
                <g id="#spacing-top-CF46B826-03C1-40F7-AB9F-A91C0018AEA9-29F97072-19FD-49EA-A91E-6CD88EF2BF86" transform="translate(64.000000, 29.000000)">
                    <rect id="line" fill="#50E3C2" x="2" y="0" width="1" height="22.9980469"></rect>
                    <rect id="start" fill="#50E3C2" x="0" y="0" width="5" height="1"></rect>
                    <rect id="end" fill="#50E3C2" x="0" y="21.9980469" width="5" height="1"></rect>
                    <rect id="box" fill="#50E3C2" x="8" y="0" width="35" height="22" rx="2"></rect>
                    <polygon id="arrow" fill="#50E3C2" points="4 11 8 7 12 11 8 15"></polygon>
                    <text id="24px" font-family="HelveticaNeue, Helvetica Neue" font-size="12" font-weight="normal" fill="#FFFFFF">
                        <tspan x="12.162" y="15">24px</tspan>
                    </text>
                </g>
                <g id="#spacing-bottom-A5BB9AA3-B3A7-4446-A318-74E4F5C1F0A3-29F97072-19FD-49EA-A91E-6CD88EF2BF86" transform="translate(107.000000, 80.698242)">
                    <rect id="line" fill="#50E3C2" x="2" y="1" width="1" height="20.3017578"></rect>
                    <rect id="start" fill="#50E3C2" x="0" y="1" width="5" height="1"></rect>
                    <rect id="end" fill="#50E3C2" x="0" y="20.3017578" width="5" height="1"></rect>
                    <rect id="box" fill="#50E3C2" x="8" y="0" width="45" height="22" rx="2"></rect>
                    <polygon id="arrow" fill="#50E3C2" points="4 11 8 7 12 11 8 15"></polygon>
                    <text id="16px" font-family="HelveticaNeue, Helvetica Neue" font-size="12" font-weight="normal" fill="#FFFFFF">
                        <tspan x="17.162" y="15">16px</tspan>
                    </text>
                </g>
                <g id="#spacing-right-535CCAA6-36C7-454D-A554-507689780488-29F97072-19FD-49EA-A91E-6CD88EF2BF86" transform="translate(296.000000, 37.000000)">
                    <rect id="line" fill="#50E3C2" x="9" y="29" width="16" height="1"></rect>
                    <rect id="start" fill="#50E3C2" x="9" y="27" width="1" height="5"></rect>
                    <rect id="end" fill="#50E3C2" x="24" y="27" width="1" height="5"></rect>
                    <rect id="box" fill="#50E3C2" x="0" y="0" width="35" height="22" rx="2"></rect>
                    <polygon id="arrow" fill="#50E3C2" points="14 22 18 18 22 22 18 26"></polygon>
                    <text id="Text" font-family="HelveticaNeue, Helvetica Neue" font-size="12" font-weight="normal" fill="#FFFFFF">
                        <tspan x="4.162" y="15">16px</tspan>
                    </text>
                </g>
            </g>
        </g>
    </g>
</svg>