<svg xmlns="http://www.w3.org/2000/svg" xmlns:xlink="http://www.w3.org/1999/xlink" width="1156" height="110" viewBox="0 0 1156 110">
    <defs>
        <path id="a" d="M334.982 25h40v40h-40z"/>
        <mask id="l" width="40" height="40" x="0" y="0" fill="#fff">
            <use xlink:href="#a"/>
        </mask>
        <path id="b" d="M438 25h48v48h-48z"/>
        <mask id="m" width="48" height="48" x="0" y="0" fill="#fff">
            <use xlink:href="#b"/>
        </mask>
        <path id="c" d="M548 25h56v56h-56z"/>
        <mask id="n" width="56" height="56" x="0" y="0" fill="#fff">
            <use xlink:href="#c"/>
        </mask>
        <path id="d" d="M666 25h64v64h-64z"/>
        <mask id="o" width="64" height="64" x="0" y="0" fill="#fff">
            <use xlink:href="#d"/>
        </mask>
        <path id="e" d="M792 25h72v72h-72z"/>
        <mask id="p" width="72" height="72" x="0" y="0" fill="#fff">
            <use xlink:href="#e"/>
        </mask>
        <path id="f" d="M926 25h80v80h-80z"/>
        <mask id="q" width="80" height="80" x="0" y="0" fill="#fff">
            <use xlink:href="#f"/>
        </mask>
        <path id="g" d="M1068 25h88v88h-88z"/>
        <mask id="r" width="88" height="88" x="0" y="0" fill="#fff">
            <use xlink:href="#g"/>
        </mask>
        <path id="h" d="M239.237 25h32v32h-32z"/>
        <mask id="s" width="32" height="32" x="0" y="0" fill="#fff">
            <use xlink:href="#h"/>
        </mask>
        <path id="i" d="M151.491 25h24v24h-24z"/>
        <mask id="t" width="24" height="24" x="0" y="0" fill="#fff">
            <use xlink:href="#i"/>
        </mask>
        <path id="j" d="M71.746 25h16v16h-16z"/>
        <mask id="u" width="16" height="16" x="0" y="0" fill="#fff">
            <use xlink:href="#j"/>
        </mask>
        <path id="k" d="M0 25h8v8H0z"/>
        <mask id="v" width="8" height="8" x="0" y="0" fill="#fff">
            <use xlink:href="#k"/>
        </mask>
    </defs>
    <g fill="none" fill-rule="evenodd" transform="translate(0 -3)">
        <use stroke="#42B549" stroke-dasharray="2" stroke-width="2" mask="url(#l)" xlink:href="#a"/>
        <use stroke="#42B549" stroke-dasharray="2" stroke-width="2" mask="url(#m)" xlink:href="#b"/>
        <use stroke="#42B549" stroke-dasharray="2" stroke-width="2" mask="url(#n)" xlink:href="#c"/>
        <use stroke="#42B549" stroke-dasharray="2" stroke-width="2" mask="url(#o)" xlink:href="#d"/>
        <use stroke="#42B549" stroke-dasharray="2" stroke-width="2" mask="url(#p)" xlink:href="#e"/>
        <use stroke="#42B549" stroke-dasharray="2" stroke-width="2" mask="url(#q)" xlink:href="#f"/>
        <use stroke="#42B549" stroke-dasharray="2" stroke-width="2" mask="url(#r)" xlink:href="#g"/>
        <use stroke="#42B549" stroke-dasharray="2" stroke-width="2" mask="url(#s)" xlink:href="#h"/>
        <use stroke="#42B549" stroke-dasharray="2" stroke-width="2" mask="url(#t)" xlink:href="#i"/>
        <use stroke="#42B549" stroke-dasharray="2" stroke-width="2" mask="url(#u)" xlink:href="#j"/>
        <use stroke="#42B549" stroke-dasharray="2" stroke-width="2" mask="url(#v)" xlink:href="#k"/>
        <path fill="#000" fill-opacity=".38" d="M3.422 4.31c.781 0 1.4.182 1.857.545.457.364.686.866.686 1.506 0 .422-.131.807-.393 1.155-.261.347-.68.664-1.254.949.696.332 1.19.68 1.483 1.046.293.365.44.788.44 1.268 0 .711-.249 1.279-.745 1.702-.496.424-1.176.636-2.039.636-.914 0-1.617-.2-2.11-.6-.492-.4-.738-.968-.738-1.703 0-.98.598-1.744 1.793-2.29-.539-.305-.925-.634-1.16-.988A2.1 2.1 0 0 1 .891 6.35c0-.621.23-1.117.688-1.486.46-.369 1.073-.553 1.843-.553zM1.57 10.839c0 .469.163.834.49 1.096.326.261.784.392 1.374.392.582 0 1.035-.137 1.359-.41.324-.273.486-.648.486-1.125 0-.379-.152-.716-.457-1.01-.304-.296-.836-.582-1.593-.86-.583.25-1.004.527-1.266.83a1.607 1.607 0 0 0-.393 1.087zm1.84-5.736c-.488 0-.87.117-1.148.351-.278.235-.416.547-.416.938 0 .359.115.668.345.925.23.258.657.516 1.278.774.558-.235.954-.486 1.186-.756a1.4 1.4 0 0 0 .349-.943c0-.395-.142-.708-.425-.94-.283-.233-.673-.35-1.169-.35zm7.47 8.015c-.417 0-.799-.077-1.145-.231a2.154 2.154 0 0 1-.87-.712h-.07c.047.375.07.73.07 1.066v2.643h-.972V6.578h.79l.135.879h.047c.25-.352.541-.605.873-.762a2.654 2.654 0 0 1 1.143-.234c.851 0 1.509.291 1.972.873.462.582.694 1.398.694 2.45 0 1.054-.235 1.873-.706 2.457-.47.584-1.124.876-1.96.876zm-.14-5.83c-.656 0-1.13.182-1.424.545-.293.363-.443.941-.45 1.734v.217c0 .903.15 1.548.45 1.937.301.388.784.583 1.448.583.554 0 .989-.225 1.303-.674.315-.45.472-1.068.472-1.858 0-.8-.157-1.415-.472-1.842-.314-.428-.756-.642-1.327-.642zm6.053 2.426l-2.232-3.135h1.107l1.693 2.461 1.688-2.46h1.096l-2.233 3.134L20.262 13H19.16l-1.799-2.602L15.545 13h-1.102l2.35-3.287zM22.506 13h-.973V3.883h.973V13zM75.105 13h-.949V6.895c0-.508.016-.989.047-1.442a6.197 6.197 0 0 1-.275.258c-.102.09-.567.47-1.395 1.143l-.515-.668 2.267-1.752h.82V13zm3.358-3.662c0-1.684.327-2.942.981-3.776.655-.834 1.622-1.251 2.904-1.251.441 0 .789.037 1.043.11v.839a3.337 3.337 0 0 0-1.032-.147c-.918 0-1.619.286-2.103.859-.485.572-.75 1.471-.797 2.698h.07c.43-.672 1.11-1.008 2.04-1.008.769 0 1.375.233 1.819.697.443.465.665 1.096.665 1.893 0 .89-.243 1.59-.73 2.1-.486.51-1.143.765-1.971.765-.887 0-1.59-.333-2.11-.999-.52-.666-.78-1.593-.78-2.78zm2.877 2.953c.555 0 .985-.175 1.292-.524.306-.35.46-.855.46-1.515 0-.566-.143-1.012-.428-1.336-.285-.324-.71-.486-1.277-.486-.352 0-.674.072-.967.216a1.79 1.79 0 0 0-.7.598c-.174.254-.261.518-.261.791 0 .403.078.777.234 1.125.157.348.378.623.665.826.288.203.615.305.982.305zm7.318.826c-.418 0-.8-.077-1.145-.231a2.154 2.154 0 0 1-.87-.712h-.07c.046.375.07.73.07 1.066v2.643h-.973V6.578h.79l.136.879h.047c.25-.352.54-.605.873-.762a2.654 2.654 0 0 1 1.142-.234c.852 0 1.509.291 1.972.873.463.582.694 1.398.694 2.45 0 1.054-.235 1.873-.706 2.457-.47.584-1.124.876-1.96.876zm-.14-5.83c-.657 0-1.131.182-1.424.545-.293.363-.444.941-.451 1.734v.217c0 .903.15 1.548.45 1.937.302.388.784.583 1.448.583.555 0 .99-.225 1.304-.674.314-.45.471-1.068.471-1.858 0-.8-.157-1.415-.471-1.842-.315-.428-.757-.642-1.327-.642zm6.052 2.426l-2.232-3.135h1.107L95.14 9.04l1.687-2.46h1.096l-2.233 3.134L98.04 13h-1.102l-1.798-2.602L93.322 13h-1.101l2.35-3.287zM100.283 13h-.972V3.883h.972V13zM156.545 13h-5.63v-.838l2.255-2.267c.687-.696 1.14-1.192 1.36-1.489.218-.297.382-.586.491-.867.11-.281.165-.584.165-.908 0-.457-.14-.82-.416-1.087-.278-.268-.663-.401-1.155-.401-.355 0-.692.058-1.01.175-.319.118-.673.33-1.064.639l-.516-.662c.79-.656 1.649-.984 2.579-.984.804 0 1.435.206 1.892.618.457.412.686.966.686 1.66 0 .544-.153 1.08-.457 1.612-.305.531-.875 1.203-1.711 2.016l-1.875 1.834v.047h4.406V13zm7.266-1.969h-1.272V13h-.932v-1.969h-4.166v-.85l4.067-5.794h1.031v5.76h1.272v.884zm-2.204-.885V7.3c0-.559.02-1.19.059-1.893h-.047a8.805 8.805 0 0 1-.527.932l-2.678 3.808h3.193zm6.463 2.971c-.418 0-.8-.077-1.145-.231a2.154 2.154 0 0 1-.87-.712h-.07c.046.375.07.73.07 1.066v2.643h-.973V6.578h.791l.135.879h.047c.25-.352.54-.605.873-.762a2.654 2.654 0 0 1 1.142-.234c.852 0 1.51.291 1.972.873.463.582.694 1.398.694 2.45 0 1.054-.235 1.873-.706 2.457-.47.584-1.124.876-1.96.876zm-.14-5.83c-.657 0-1.131.182-1.424.545-.293.363-.444.941-.451 1.734v.217c0 .903.15 1.548.45 1.937.302.388.784.583 1.448.583.555 0 .99-.225 1.304-.674.314-.45.472-1.068.472-1.858 0-.8-.158-1.415-.472-1.842-.315-.428-.757-.642-1.327-.642zm6.052 2.426l-2.232-3.135h1.107l1.694 2.461 1.687-2.46h1.096l-2.232 3.134 2.35 3.287h-1.102l-1.8-2.602L172.735 13h-1.101l2.35-3.287zM179.695 13h-.972V3.883h.972V13zM244.131 6.45c0 .546-.153.993-.46 1.341-.306.348-.741.58-1.304.697v.047c.688.086 1.198.305 1.53.656.332.352.498.813.498 1.383 0 .817-.283 1.445-.85 1.884-.566.44-1.37.66-2.414.66-.453 0-.868-.035-1.245-.103a4.261 4.261 0 0 1-1.099-.36v-.926c.371.183.767.323 1.187.418.42.096.817.144 1.192.144 1.48 0 2.221-.58 2.221-1.74 0-1.04-.816-1.559-2.45-1.559h-.843v-.838h.855c.668 0 1.198-.147 1.588-.442.391-.295.586-.704.586-1.228 0-.418-.143-.746-.43-.984-.287-.238-.677-.357-1.17-.357-.374 0-.728.05-1.06.152-.332.101-.71.289-1.137.562l-.492-.656a4.103 4.103 0 0 1 1.216-.653 4.419 4.419 0 0 1 1.45-.237c.832 0 1.479.19 1.94.57.46.382.691.904.691 1.568zm7.184 6.55h-5.631v-.838l2.256-2.267c.687-.696 1.14-1.192 1.36-1.489.218-.297.382-.586.491-.867.11-.281.164-.584.164-.908 0-.457-.138-.82-.416-1.087-.277-.268-.662-.401-1.154-.401-.355 0-.692.058-1.01.175-.32.118-.674.33-1.064.639l-.516-.662c.79-.656 1.649-.984 2.578-.984.805 0 1.436.206 1.893.618.457.412.685.966.685 1.66 0 .544-.152 1.08-.457 1.612-.304.531-.875 1.203-1.71 2.016l-1.876 1.834v.047h4.407V13zm4.664.117c-.418 0-.8-.077-1.146-.231a2.154 2.154 0 0 1-.87-.712h-.07c.047.375.07.73.07 1.066v2.643h-.972V6.578h.79l.135.879h.047c.25-.352.541-.605.873-.762a2.654 2.654 0 0 1 1.143-.234c.851 0 1.509.291 1.971.873.463.582.695 1.398.695 2.45 0 1.054-.236 1.873-.706 2.457-.471.584-1.124.876-1.96.876zm-.14-5.83c-.657 0-1.132.182-1.425.545-.293.363-.443.941-.45 1.734v.217c0 .903.15 1.548.45 1.937.301.388.784.583 1.448.583.554 0 .989-.225 1.303-.674.315-.45.472-1.068.472-1.858 0-.8-.157-1.415-.472-1.842-.314-.428-.757-.642-1.327-.642zm6.052 2.426l-2.233-3.135h1.108l1.693 2.461 1.688-2.46h1.095l-2.232 3.134L265.36 13h-1.102l-1.799-2.602L260.643 13h-1.102l2.35-3.287zM267.604 13h-.973V3.883h.973V13zM340.603 11.031h-1.271V13h-.932v-1.969h-4.166v-.85l4.067-5.794h1.03v5.76h1.272v.884zm-2.203-.885V7.3c0-.559.02-1.19.059-1.893h-.047a8.805 8.805 0 0 1-.528.932l-2.677 3.808h3.193zm8.707-1.44c0 1.48-.233 2.585-.7 3.315-.467.731-1.18 1.096-2.142 1.096-.922 0-1.623-.374-2.103-1.122-.48-.748-.72-1.845-.72-3.29 0-1.492.232-2.6.696-3.322.465-.723 1.174-1.084 2.127-1.084.93 0 1.636.377 2.119 1.13.482.755.723 1.846.723 3.276zm-4.681 0c0 1.245.146 2.152.439 2.72.293.57.76.853 1.4.853.649 0 1.119-.288 1.41-.864.29-.576.436-1.48.436-2.71s-.145-2.132-.436-2.704c-.291-.572-.761-.858-1.41-.858-.64 0-1.107.282-1.4.846-.293.565-.44 1.47-.44 2.716zm9.298 4.411c-.418 0-.8-.077-1.145-.231a2.154 2.154 0 0 1-.87-.712h-.07c.046.375.07.73.07 1.066v2.643h-.973V6.578h.791l.135.879h.047c.25-.352.54-.605.873-.762a2.654 2.654 0 0 1 1.142-.234c.852 0 1.51.291 1.972.873.463.582.694 1.398.694 2.45 0 1.054-.235 1.873-.706 2.457-.47.584-1.124.876-1.96.876zm-.14-5.83c-.657 0-1.131.182-1.424.545-.293.363-.443.941-.451 1.734v.217c0 .903.15 1.548.45 1.937.302.388.784.583 1.448.583.555 0 .99-.225 1.304-.674.314-.45.472-1.068.472-1.858 0-.8-.158-1.415-.472-1.842-.315-.428-.757-.642-1.327-.642zm6.052 2.426l-2.232-3.135h1.107l1.694 2.461 1.687-2.46h1.096l-2.232 3.134 2.35 3.287h-1.102l-1.8-2.602L356.389 13h-1.101l2.35-3.287zM363.35 13h-.972V3.883h.972V13zM443.621 11.031h-1.271V13h-.932v-1.969h-4.166v-.85l4.066-5.794h1.032v5.76h1.271v.884zm-2.203-.885V7.3c0-.559.02-1.19.059-1.893h-.047a8.805 8.805 0 0 1-.528.932l-2.677 3.808h3.193zm5.865-5.835c.781 0 1.4.181 1.858.544.457.364.685.866.685 1.506 0 .422-.13.807-.392 1.155-.262.347-.68.664-1.254.949.695.332 1.19.68 1.482 1.046.293.365.44.788.44 1.268 0 .711-.248 1.279-.745 1.702-.496.424-1.175.636-2.039.636-.914 0-1.617-.2-2.109-.6-.492-.4-.738-.968-.738-1.703 0-.98.597-1.744 1.793-2.29-.54-.305-.926-.634-1.16-.988a2.1 2.1 0 0 1-.352-1.186c0-.621.23-1.117.688-1.486.46-.369 1.074-.553 1.843-.553zm-1.851 6.527c0 .469.163.834.489 1.096.326.261.784.392 1.374.392.582 0 1.035-.137 1.36-.41.324-.273.486-.648.486-1.125 0-.379-.153-.716-.457-1.01-.305-.296-.836-.582-1.594-.86-.582.25-1.004.527-1.266.83a1.607 1.607 0 0 0-.392 1.087zm1.84-5.736c-.489 0-.872.117-1.149.351-.277.235-.416.547-.416.938 0 .359.115.668.346.925.23.258.656.516 1.277.774.559-.235.954-.486 1.187-.756a1.4 1.4 0 0 0 .348-.943c0-.395-.141-.708-.425-.94-.283-.233-.672-.35-1.169-.35zm7.47 8.015c-.418 0-.8-.077-1.145-.231a2.154 2.154 0 0 1-.87-.712h-.07c.046.375.07.73.07 1.066v2.643h-.973V6.578h.79l.136.879h.047c.25-.352.54-.605.873-.762a2.654 2.654 0 0 1 1.142-.234c.852 0 1.509.291 1.972.873.463.582.694 1.398.694 2.45 0 1.054-.235 1.873-.706 2.457-.47.584-1.124.876-1.96.876zm-.14-5.83c-.657 0-1.131.182-1.424.545-.293.363-.444.941-.451 1.734v.217c0 .903.15 1.548.45 1.937.302.388.784.583 1.448.583.555 0 .99-.225 1.304-.674.314-.45.471-1.068.471-1.858 0-.8-.157-1.415-.471-1.842-.315-.428-.757-.642-1.327-.642zm6.052 2.426l-2.232-3.135h1.107l1.694 2.461 1.687-2.46h1.096l-2.233 3.134 2.35 3.287h-1.102l-1.798-2.602L459.406 13h-1.101l2.35-3.287zM466.367 13h-.972V3.883h.972V13zM550.264 7.768c.902 0 1.612.223 2.13.67.517.448.776 1.06.776 1.837 0 .887-.282 1.582-.847 2.086-.564.504-1.343.756-2.335.756-.965 0-1.7-.154-2.209-.463v-.937c.274.176.614.313 1.02.413.406.1.806.15 1.201.15.688 0 1.222-.163 1.603-.487.38-.324.57-.793.57-1.406 0-1.196-.732-1.793-2.196-1.793-.372 0-.868.056-1.489.17l-.504-.323.323-4.007h4.26v.896h-3.428l-.217 2.572c.45-.09.896-.134 1.342-.134zm4.283 1.57c0-1.684.327-2.942.981-3.776.655-.834 1.622-1.251 2.904-1.251.441 0 .789.037 1.043.11v.839a3.337 3.337 0 0 0-1.032-.147c-.918 0-1.619.286-2.103.859-.485.572-.75 1.471-.797 2.698h.07c.43-.672 1.11-1.008 2.04-1.008.769 0 1.375.233 1.819.697.443.465.665 1.096.665 1.893 0 .89-.243 1.59-.73 2.1-.486.51-1.143.765-1.971.765-.887 0-1.59-.333-2.11-.999-.52-.666-.78-1.593-.78-2.78zm2.877 2.953c.555 0 .985-.175 1.292-.524.306-.35.46-.855.46-1.515 0-.566-.143-1.012-.428-1.336-.285-.324-.71-.486-1.277-.486-.352 0-.674.072-.967.216a1.79 1.79 0 0 0-.7.598c-.174.254-.261.518-.261.791 0 .403.078.777.234 1.125.157.348.378.623.665.826.287.203.615.305.982.305zm7.318.826c-.418 0-.8-.077-1.145-.231a2.154 2.154 0 0 1-.87-.712h-.07c.046.375.07.73.07 1.066v2.643h-.973V6.578h.79l.136.879h.047c.25-.352.54-.605.873-.762a2.654 2.654 0 0 1 1.142-.234c.852 0 1.509.291 1.972.873.463.582.694 1.398.694 2.45 0 1.054-.235 1.873-.706 2.457-.47.584-1.124.876-1.96.876zm-.14-5.83c-.657 0-1.131.182-1.424.545-.293.363-.444.941-.451 1.734v.217c0 .903.15 1.548.45 1.937.302.388.784.583 1.448.583.555 0 .99-.225 1.304-.674.314-.45.471-1.068.471-1.858 0-.8-.157-1.415-.471-1.842-.315-.428-.757-.642-1.327-.642zm6.052 2.426l-2.232-3.135h1.107l1.694 2.461 1.687-2.46h1.096l-2.233 3.134 2.35 3.287h-1.102l-1.798-2.602L569.406 13h-1.101l2.35-3.287zM576.367 13h-.972V3.883h.972V13zM666.686 9.338c0-1.684.327-2.942.981-3.776.654-.834 1.622-1.251 2.903-1.251.442 0 .79.037 1.043.11v.839a3.337 3.337 0 0 0-1.031-.147c-.918 0-1.62.286-2.103.859-.485.572-.75 1.471-.797 2.698h.07c.43-.672 1.11-1.008 2.039-1.008.77 0 1.376.233 1.82.697.443.465.664 1.096.664 1.893 0 .89-.243 1.59-.73 2.1-.485.51-1.143.765-1.97.765-.888 0-1.59-.333-2.11-.999-.52-.666-.78-1.593-.78-2.78zm2.876 2.953c.555 0 .986-.175 1.292-.524.307-.35.46-.855.46-1.515 0-.566-.142-1.012-.427-1.336-.285-.324-.711-.486-1.278-.486-.351 0-.673.072-.966.216a1.79 1.79 0 0 0-.7.598c-.174.254-.261.518-.261.791 0 .403.078.777.234 1.125.156.348.378.623.665.826.287.203.614.305.981.305zm9.92-1.26h-1.271V13h-.932v-1.969h-4.166v-.85l4.067-5.794h1.03v5.76h1.272v.884zm-2.203-.885V7.3c0-.559.02-1.19.059-1.893h-.047a8.805 8.805 0 0 1-.527.932l-2.678 3.808h3.193zm6.463 2.971c-.418 0-.8-.077-1.145-.231a2.154 2.154 0 0 1-.87-.712h-.07c.046.375.07.73.07 1.066v2.643h-.973V6.578h.79l.136.879h.047c.25-.352.54-.605.873-.762a2.654 2.654 0 0 1 1.142-.234c.852 0 1.509.291 1.972.873.463.582.694 1.398.694 2.45 0 1.054-.235 1.873-.706 2.457-.47.584-1.124.876-1.96.876zm-.14-5.83c-.657 0-1.131.182-1.424.545-.293.363-.444.941-.451 1.734v.217c0 .903.15 1.548.45 1.937.302.388.784.583 1.448.583.555 0 .99-.225 1.304-.674.314-.45.471-1.068.471-1.858 0-.8-.157-1.415-.471-1.842-.315-.428-.757-.642-1.327-.642zm6.052 2.426l-2.232-3.135h1.107l1.694 2.461 1.687-2.46h1.096l-2.233 3.134 2.35 3.287h-1.102l-1.798-2.602L688.406 13h-1.101l2.35-3.287zM695.367 13h-.972V3.883h.972V13zM793.67 13l3.55-7.67h-4.67v-.896h5.702v.779L794.748 13h-1.078zm11.408 0h-5.63v-.838l2.255-2.267c.688-.696 1.14-1.192 1.36-1.489.218-.297.382-.586.492-.867.11-.281.164-.584.164-.908 0-.457-.139-.82-.416-1.087-.278-.268-.662-.401-1.155-.401-.355 0-.692.058-1.01.175-.319.118-.673.33-1.064.639l-.515-.662c.789-.656 1.648-.984 2.578-.984.804 0 1.435.206 1.892.618.457.412.686.966.686 1.66 0 .544-.152 1.08-.457 1.612-.305.531-.875 1.203-1.711 2.016l-1.875 1.834v.047h4.406V13zm4.664.117c-.418 0-.8-.077-1.145-.231a2.154 2.154 0 0 1-.87-.712h-.07c.046.375.07.73.07 1.066v2.643h-.973V6.578h.79l.136.879h.047c.25-.352.54-.605.873-.762a2.654 2.654 0 0 1 1.142-.234c.852 0 1.509.291 1.972.873.463.582.694 1.398.694 2.45 0 1.054-.235 1.873-.706 2.457-.47.584-1.124.876-1.96.876zm-.14-5.83c-.657 0-1.131.182-1.424.545-.293.363-.444.941-.451 1.734v.217c0 .903.15 1.548.45 1.937.302.388.784.583 1.448.583.555 0 .99-.225 1.304-.674.314-.45.471-1.068.471-1.858 0-.8-.157-1.415-.471-1.842-.315-.428-.757-.642-1.327-.642zm6.052 2.426l-2.232-3.135h1.107l1.694 2.461 1.687-2.46h1.096l-2.233 3.134 2.35 3.287h-1.102l-1.798-2.602L814.406 13h-1.101l2.35-3.287zM821.367 13h-.972V3.883h.972V13zM929.422 4.31c.781 0 1.4.182 1.857.545.457.364.686.866.686 1.506 0 .422-.131.807-.393 1.155-.261.347-.68.664-1.254.949.696.332 1.19.68 1.483 1.046.293.365.44.788.44 1.268 0 .711-.249 1.279-.745 1.702-.496.424-1.176.636-2.039.636-.914 0-1.617-.2-2.11-.6-.492-.4-.738-.968-.738-1.703 0-.98.598-1.744 1.793-2.29-.539-.305-.925-.634-1.16-.988a2.1 2.1 0 0 1-.351-1.186c0-.621.23-1.117.688-1.486.46-.369 1.073-.553 1.843-.553zm-1.852 6.528c0 .469.163.834.49 1.096.326.261.784.392 1.374.392.582 0 1.035-.137 1.359-.41.324-.273.486-.648.486-1.125 0-.379-.152-.716-.457-1.01-.304-.296-.836-.582-1.593-.86-.583.25-1.004.527-1.266.83a1.607 1.607 0 0 0-.393 1.087zm1.84-5.736c-.488 0-.87.117-1.148.351-.278.235-.416.547-.416.938 0 .359.115.668.345.925.23.258.657.516 1.278.774.558-.235.954-.486 1.186-.756a1.4 1.4 0 0 0 .349-.943c0-.395-.142-.708-.425-.94-.283-.233-.673-.35-1.169-.35zm9.715 3.603c0 1.48-.233 2.586-.7 3.316-.467.731-1.18 1.096-2.142 1.096-.922 0-1.623-.374-2.103-1.122-.48-.748-.721-1.845-.721-3.29 0-1.492.232-2.6.697-3.322.465-.723 1.174-1.084 2.127-1.084.93 0 1.636.377 2.118 1.13.483.755.724 1.846.724 3.276zm-4.682 0c0 1.246.147 2.153.44 2.722.293.568.76.852 1.4.852.649 0 1.118-.288 1.41-.864.29-.576.436-1.48.436-2.71s-.146-2.132-.437-2.704c-.29-.572-.76-.858-1.409-.858-.64 0-1.107.282-1.4.846-.293.565-.44 1.47-.44 2.716zm9.3 4.412c-.419 0-.8-.077-1.146-.231a2.154 2.154 0 0 1-.87-.712h-.07c.046.375.07.73.07 1.066v2.643h-.973V6.578h.79l.136.879h.047c.25-.352.54-.605.873-.762a2.654 2.654 0 0 1 1.142-.234c.852 0 1.509.291 1.972.873.463.582.694 1.398.694 2.45 0 1.054-.235 1.873-.706 2.457-.47.584-1.124.876-1.96.876zm-.141-5.83c-.657 0-1.131.182-1.424.545-.293.363-.444.941-.451 1.734v.217c0 .903.15 1.548.45 1.937.302.388.784.583 1.448.583.555 0 .99-.225 1.304-.674.314-.45.471-1.068.471-1.858 0-.8-.157-1.415-.471-1.842-.315-.428-.757-.642-1.327-.642zm6.052 2.426l-2.232-3.135h1.107l1.694 2.461 1.687-2.46h1.096l-2.233 3.134 2.35 3.287h-1.102l-1.798-2.602L948.406 13h-1.101l2.35-3.287zM955.367 13h-.972V3.883h.972V13zM1071.422 4.31c.781 0 1.4.182 1.857.545.457.364.686.866.686 1.506 0 .422-.131.807-.393 1.155-.261.347-.68.664-1.254.949.696.332 1.19.68 1.483 1.046.293.365.44.788.44 1.268 0 .711-.249 1.279-.745 1.702-.496.424-1.176.636-2.039.636-.914 0-1.617-.2-2.11-.6-.492-.4-.738-.968-.738-1.703 0-.98.598-1.744 1.793-2.29-.539-.305-.925-.634-1.16-.988a2.1 2.1 0 0 1-.351-1.186c0-.621.23-1.117.688-1.486.46-.369 1.073-.553 1.843-.553zm-1.852 6.528c0 .469.163.834.49 1.096.326.261.784.392 1.374.392.582 0 1.035-.137 1.359-.41.324-.273.486-.648.486-1.125 0-.379-.152-.716-.457-1.01-.304-.296-.836-.582-1.593-.86-.583.25-1.004.527-1.266.83a1.607 1.607 0 0 0-.393 1.087zm1.84-5.736c-.488 0-.87.117-1.148.351-.278.235-.416.547-.416.938 0 .359.115.668.345.925.23.258.657.516 1.278.774.558-.235.954-.486 1.186-.756a1.4 1.4 0 0 0 .349-.943c0-.395-.142-.708-.425-.94-.283-.233-.673-.35-1.169-.35zm6.873-.791c.781 0 1.4.181 1.858.544.457.364.685.866.685 1.506 0 .422-.13.807-.392 1.155-.262.347-.68.664-1.254.949.695.332 1.19.68 1.482 1.046.293.365.44.788.44 1.268 0 .711-.248 1.279-.745 1.702-.496.424-1.175.636-2.039.636-.914 0-1.617-.2-2.109-.6-.492-.4-.738-.968-.738-1.703 0-.98.597-1.744 1.793-2.29-.54-.305-.926-.634-1.16-.988a2.1 2.1 0 0 1-.352-1.186c0-.621.23-1.117.688-1.486.46-.369 1.074-.553 1.843-.553zm-1.851 6.527c0 .469.163.834.489 1.096.326.261.784.392 1.374.392.582 0 1.035-.137 1.36-.41.324-.273.486-.648.486-1.125 0-.379-.153-.716-.457-1.01-.305-.296-.836-.582-1.594-.86-.582.25-1.004.527-1.266.83a1.607 1.607 0 0 0-.392 1.087zm1.84-5.736c-.489 0-.872.117-1.149.351-.277.235-.416.547-.416.938 0 .359.115.668.346.925.23.258.656.516 1.277.774.559-.235.954-.486 1.187-.756a1.4 1.4 0 0 0 .348-.943c0-.395-.141-.708-.425-.94-.283-.233-.672-.35-1.169-.35zm7.47 8.015c-.418 0-.8-.077-1.145-.231a2.154 2.154 0 0 1-.87-.712h-.07c.046.375.07.73.07 1.066v2.643h-.973V6.578h.79l.136.879h.047c.25-.352.54-.605.873-.762a2.654 2.654 0 0 1 1.142-.234c.852 0 1.509.291 1.972.873.463.582.694 1.398.694 2.45 0 1.054-.235 1.873-.706 2.457-.47.584-1.124.876-1.96.876zm-.14-5.83c-.657 0-1.131.182-1.424.545-.293.363-.444.941-.451 1.734v.217c0 .903.15 1.548.45 1.937.302.388.784.583 1.448.583.555 0 .99-.225 1.304-.674.314-.45.471-1.068.471-1.858 0-.8-.157-1.415-.471-1.842-.315-.428-.757-.642-1.327-.642zm6.052 2.426l-2.232-3.135h1.107l1.694 2.461 1.687-2.46h1.096l-2.233 3.134 2.35 3.287h-1.102l-1.798-2.602-1.817 2.602h-1.101l2.35-3.287zm5.713 3.287h-.972V3.883h.972V13z"/>
    </g>
</svg>
