<svg xmlns="http://www.w3.org/2000/svg" width="258" height="165" viewBox="0 0 458 290">
    <g fill="none" fill-rule="evenodd">
        <rect width="458" height="290" fill="#F8F8F8" rx="4"/>
        <g transform="translate(69 53)">
            <path fill="#FDEBEC" d="M0 0h320v80H0z"/>
            <rect width="62" height="6" x="16" y="30" fill="#FCDCDE" rx="3"/>
            <rect width="132" height="6" x="86" y="30" fill="#FCDCDE" rx="3"/>
            <rect width="132" height="6" x="16" y="44" fill="#FCDCDE" rx="3"/>
            <rect width="32" height="6" x="272" y="37" fill="#FFBCC0" rx="3"/>
            <path fill="#F05F68" d="M0 0h320v1H0z"/>
        </g>
        <g transform="translate(69 157)">
            <path fill="#F3FEF3" d="M0 0h320v80H0z"/>
            <rect width="62" height="6" x="16" y="30" fill="#D5FBD5" rx="3"/>
            <rect width="132" height="6" x="86" y="30" fill="#D5FBD5" rx="3"/>
            <rect width="132" height="6" x="16" y="44" fill="#D5FBD5" rx="3"/>
            <rect width="32" height="6" x="272" y="37" fill="#A0E6A0" rx="3"/>
            <path fill="#87D58B" d="M0 0h320v1H0z"/>
        </g>
    </g>
</svg>
