<svg xmlns="http://www.w3.org/2000/svg" width="258px" height="165px" viewBox="0 0 458 290">
    <g fill="none" fill-rule="evenodd">
        <rect width="458" height="290" fill="#F8F8F8" rx="4"/>
        <g fill="#E0E0E0">
            <path d="M261 86.832c-.667 4.097-1.027 8.331-1.084 12.704l-3.66 13.867-.833.832h-1.757l-.916-.747c-.277-7.085-.581-11.237-.916-12.456-.667-2.214-2.445-3.515-5.334-3.903-1.11-.168-6.335-.25-15.667-.25h-11.166c-.11 1.937-.166 9.634-.166 23.085v47.168c0 13.175.362 21.757 1.086 25.74.277 1.606 1.219 2.63 2.831 3.073.835.223 4.084.499 9.75.832l.835.83v5.563l-.835.83c-5.5-.331-14.055-.497-25.666-.497-11.89 0-20.445.166-25.668.497l-.752-.747v-5.646l.837-.83c5.667-.331 8.917-.61 9.748-.832 1.61-.442 2.558-1.467 2.833-3.074.724-3.984 1.084-12.566 1.084-25.739v-47.168c0-13.674-.083-21.368-.25-23.086h-11.917c-9.943 0-15.75.306-17.416.915-.89.333-1.5.747-1.834 1.246-.498.885-.916 2.656-1.25 5.313a95.014 95.014 0 0 0-.752 9.05l-.833.833h-1.687l-.916-.832L155 99.205c-.055-3.987-.39-8.11-1.001-12.375l.752-.83c3.278.554 15.222.83 35.83.83h33.752c19 0 30.945-.276 35.833-.83l.833.832zM305 194.96c0 .544-.94 2.4-1.922 3.455-2.51 2.693-3.344 3.532-6.204 4.68-1.801.725-3.706.905-5.592.905-5.23 0-9.047-1.528-11.46-4.576-1.014-1.316-1.692-2.844-2.03-4.579-.377-2.072-.546-4.782-.506-8.136l.17-13.504v-14.128h-1.53l-2.99.115h-2.314l-.622-.509v-3.576c.878-.204 2.542-.456 4.11-1.09 2.045-.824 2.75-1.226 3.343-2.34v-7.683c0-3.203-.15-10.534-.457-14.113 2.978.064 4.494.08 6.864.064 1.884-.013 4.221-.362 7.42-1.945l1.47 1.13c-.452 4.671-.774 8.853-.96 12.544l-.51 9.778h1.862c4.102 0 7.644-.131 10.618-.398l1.238 1.235-1.408 6-.567.566h-11.744v19.155c0 6.14.077 9.756.229 10.85.186 1.582.853 2.862 2.002 3.841 1.148.979 2.7 1.468 4.655 1.468 1.543 0 3.408-.413 5.592-1.243l1.243 2.033z"/>
        </g>
    </g>
</svg>
