<svg xmlns="http://www.w3.org/2000/svg" width="81" height="53" viewBox="0 0 81 53">
    <defs>
        <linearGradient id="a" x1="15.449%" x2="80.112%" y1="16.203%" y2="86.494%">
            <stop offset="0%" stop-color="#F5A623"/>
            <stop offset="100%" stop-color="#7A4E06"/>
        </linearGradient>
        <linearGradient id="b" x1="90.389%" x2="22.243%" y1="14.027%" y2="86.882%">
            <stop offset="0%" stop-color="#F5A623"/>
            <stop offset="100%" stop-color="#FFD65C"/>
        </linearGradient>
    </defs>
    <g fill="none" fill-rule="evenodd">
        <g fill="#42B549">
            <path d="M66.39 2.52c0 .475-.35.86-.783.86-.432 0-.783-.385-.783-.86s.351-.86.783-.86c.432 0 .782.385.782.86M61.79 2.52c0 .475-.35.86-.782.86-.432 0-.783-.385-.783-.86s.351-.86.783-.86c.432 0 .782.385.782.86M57.191 2.52c0 .475-.35.86-.782.86-.432 0-.783-.385-.783-.86s.351-.86.783-.86c.432 0 .782.385.782.86M52.592 2.52c0 .475-.35.86-.783.86-.431 0-.782-.385-.782-.86s.351-.86.782-.86c.433 0 .783.385.783.86M24.997 2.52c0 .475-.35.86-.782.86-.432 0-.783-.385-.783-.86s.351-.86.783-.86c.432 0 .782.385.782.86M20.398 2.52c0 .475-.35.86-.783.86-.431 0-.782-.385-.782-.86s.35-.86.782-.86c.433 0 .783.385.783.86M15.799 2.52c0 .475-.35.86-.783.86-.431 0-.782-.385-.782-.86s.35-.86.782-.86c.433 0 .783.385.783.86M11.2 2.52c0 .475-.35.86-.783.86-.431 0-.783-.385-.783-.86s.352-.86.783-.86c.432 0 .782.385.782.86M70.989 8.644c0 .476-.35.86-.783.86-.431 0-.783-.384-.783-.86 0-.475.352-.86.783-.86.432 0 .783.385.783.86M66.39 8.644c0 .476-.35.86-.783.86-.432 0-.783-.384-.783-.86 0-.475.351-.86.783-.86.432 0 .782.385.782.86M61.79 8.644c0 .476-.35.86-.782.86-.432 0-.783-.384-.783-.86 0-.475.351-.86.783-.86.432 0 .782.385.782.86M57.191 8.644c0 .476-.35.86-.782.86-.432 0-.783-.384-.783-.86 0-.475.351-.86.783-.86.432 0 .782.385.782.86M52.592 8.644c0 .476-.35.86-.783.86-.431 0-.782-.384-.782-.86 0-.475.351-.86.782-.86.433 0 .783.385.783.86M47.993 8.644c0 .476-.35.86-.783.86-.431 0-.782-.384-.782-.86 0-.475.35-.86.782-.86.433 0 .783.385.783.86M43.394 8.644c0 .476-.35.86-.783.86-.431 0-.782-.384-.782-.86 0-.475.35-.86.782-.86.432 0 .783.385.783.86M34.195 8.644c0 .476-.35.86-.782.86-.432 0-.783-.384-.783-.86 0-.475.351-.86.783-.86.432 0 .782.385.782.86M29.596 8.644c0 .476-.35.86-.782.86-.432 0-.783-.384-.783-.86 0-.475.351-.86.783-.86.432 0 .782.385.782.86M24.997 8.644c0 .476-.35.86-.782.86-.432 0-.783-.384-.783-.86 0-.475.351-.86.783-.86.432 0 .782.385.782.86M20.398 8.644c0 .476-.35.86-.783.86-.431 0-.782-.384-.782-.86 0-.475.35-.86.782-.86.433 0 .783.385.783.86M15.799 8.644c0 .476-.35.86-.783.86-.431 0-.782-.384-.782-.86 0-.475.35-.86.782-.86.433 0 .783.385.783.86M11.2 8.644c0 .476-.35.86-.783.86-.431 0-.783-.384-.783-.86 0-.475.352-.86.783-.86.432 0 .782.385.782.86M6.6 8.644c0 .476-.35.86-.782.86-.432 0-.783-.384-.783-.86 0-.475.351-.86.783-.86.432 0 .782.385.782.86M70.989 14.769c0 .475-.35.86-.783.86-.431 0-.783-.385-.783-.86s.352-.86.783-.86c.432 0 .783.385.783.86M66.39 14.769c0 .475-.35.86-.783.86-.432 0-.783-.385-.783-.86s.351-.86.783-.86c.432 0 .782.385.782.86M61.79 14.769c0 .475-.35.86-.782.86-.432 0-.783-.385-.783-.86s.351-.86.783-.86c.432 0 .782.385.782.86M57.191 14.769c0 .475-.35.86-.782.86-.432 0-.783-.385-.783-.86s.351-.86.783-.86c.432 0 .782.385.782.86M52.592 14.769c0 .475-.35.86-.783.86-.431 0-.782-.385-.782-.86s.351-.86.782-.86c.433 0 .783.385.783.86M47.993 14.769c0 .475-.35.86-.783.86-.431 0-.782-.385-.782-.86s.35-.86.782-.86c.433 0 .783.385.783.86M43.394 14.769c0 .475-.35.86-.783.86-.431 0-.782-.385-.782-.86s.35-.86.782-.86c.432 0 .783.385.783.86M38.794 14.769c0 .475-.35.86-.782.86-.431 0-.783-.385-.783-.86s.352-.86.783-.86c.432 0 .782.385.782.86M34.195 14.769c0 .475-.35.86-.782.86-.432 0-.783-.385-.783-.86s.351-.86.783-.86c.432 0 .782.385.782.86M29.596 14.769c0 .475-.35.86-.782.86-.432 0-.783-.385-.783-.86s.351-.86.783-.86c.432 0 .782.385.782.86M24.997 14.769c0 .475-.35.86-.782.86-.432 0-.783-.385-.783-.86s.351-.86.783-.86c.432 0 .782.385.782.86M20.398 14.769c0 .475-.35.86-.783.86-.431 0-.782-.385-.782-.86s.35-.86.782-.86c.433 0 .783.385.783.86M15.799 14.769c0 .475-.35.86-.783.86-.431 0-.782-.385-.782-.86s.35-.86.782-.86c.433 0 .783.385.783.86M11.2 14.769c0 .475-.35.86-.783.86-.431 0-.783-.385-.783-.86s.352-.86.783-.86c.432 0 .782.385.782.86M6.6 14.769c0 .475-.35.86-.782.86-.432 0-.783-.385-.783-.86s.351-.86.783-.86c.432 0 .782.385.782.86M2.001 14.769c0 .475-.35.86-.782.86-.432 0-.783-.385-.783-.86s.351-.86.783-.86c.432 0 .782.385.782.86M70.989 20.893c0 .475-.35.86-.783.86-.431 0-.783-.385-.783-.86s.352-.86.783-.86c.432 0 .783.385.783.86M66.39 20.893c0 .475-.35.86-.783.86-.432 0-.783-.385-.783-.86s.351-.86.783-.86c.432 0 .782.385.782.86M61.79 20.893c0 .475-.35.86-.782.86-.432 0-.783-.385-.783-.86s.351-.86.783-.86c.432 0 .782.385.782.86M57.191 20.893c0 .475-.35.86-.782.86-.432 0-.783-.385-.783-.86s.351-.86.783-.86c.432 0 .782.385.782.86M52.592 20.893c0 .475-.35.86-.783.86-.431 0-.782-.385-.782-.86s.351-.86.782-.86c.433 0 .783.385.783.86M47.993 20.893c0 .475-.35.86-.783.86-.431 0-.782-.385-.782-.86s.35-.86.782-.86c.433 0 .783.385.783.86M43.394 20.893c0 .475-.35.86-.783.86-.431 0-.782-.385-.782-.86s.35-.86.782-.86c.432 0 .783.385.783.86M38.794 20.893c0 .475-.35.86-.782.86-.431 0-.783-.385-.783-.86s.352-.86.783-.86c.432 0 .782.385.782.86M34.195 20.893c0 .475-.35.86-.782.86-.432 0-.783-.385-.783-.86s.351-.86.783-.86c.432 0 .782.385.782.86M29.596 20.893c0 .475-.35.86-.782.86-.432 0-.783-.385-.783-.86s.351-.86.783-.86c.432 0 .782.385.782.86M24.997 20.893c0 .475-.35.86-.782.86-.432 0-.783-.385-.783-.86s.351-.86.783-.86c.432 0 .782.385.782.86M20.398 20.893c0 .475-.35.86-.783.86-.431 0-.782-.385-.782-.86s.35-.86.782-.86c.433 0 .783.385.783.86M15.799 20.893c0 .475-.35.86-.783.86-.431 0-.782-.385-.782-.86s.35-.86.782-.86c.433 0 .783.385.783.86M11.2 20.893c0 .475-.35.86-.783.86-.431 0-.783-.385-.783-.86s.352-.86.783-.86c.432 0 .782.385.782.86M6.6 20.893c0 .475-.35.86-.782.86-.432 0-.783-.385-.783-.86s.351-.86.783-.86c.432 0 .782.385.782.86M2.001 20.893c0 .475-.35.86-.782.86-.432 0-.783-.385-.783-.86s.351-.86.783-.86c.432 0 .782.385.782.86M66.39 27.017c0 .475-.35.86-.783.86-.432 0-.783-.385-.783-.86s.351-.86.783-.86c.432 0 .782.385.782.86M61.79 27.017c0 .475-.35.86-.782.86-.432 0-.783-.385-.783-.86s.351-.86.783-.86c.432 0 .782.385.782.86M57.191 27.017c0 .475-.35.86-.782.86-.432 0-.783-.385-.783-.86s.351-.86.783-.86c.432 0 .782.385.782.86M52.592 27.017c0 .475-.35.86-.783.86-.431 0-.782-.385-.782-.86s.351-.86.782-.86c.433 0 .783.385.783.86M47.993 27.017c0 .475-.35.86-.783.86-.431 0-.782-.385-.782-.86s.35-.86.782-.86c.433 0 .783.385.783.86M43.394 27.017c0 .475-.35.86-.783.86-.431 0-.782-.385-.782-.86s.35-.86.782-.86c.432 0 .783.385.783.86M38.794 27.017c0 .475-.35.86-.782.86-.431 0-.783-.385-.783-.86s.352-.86.783-.86c.432 0 .782.385.782.86M34.195 27.017c0 .475-.35.86-.782.86-.432 0-.783-.385-.783-.86s.351-.86.783-.86c.432 0 .782.385.782.86M29.596 27.017c0 .475-.35.86-.782.86-.432 0-.783-.385-.783-.86s.351-.86.783-.86c.432 0 .782.385.782.86M24.997 27.017c0 .475-.35.86-.782.86-.432 0-.783-.385-.783-.86s.351-.86.783-.86c.432 0 .782.385.782.86M20.398 27.017c0 .475-.35.86-.783.86-.431 0-.782-.385-.782-.86s.35-.86.782-.86c.433 0 .783.385.783.86M15.799 27.017c0 .475-.35.86-.783.86-.431 0-.782-.385-.782-.86s.35-.86.782-.86c.433 0 .783.385.783.86M11.2 27.017c0 .475-.35.86-.783.86-.431 0-.783-.385-.783-.86s.352-.86.783-.86c.432 0 .782.385.782.86M6.6 27.017c0 .475-.35.86-.782.86-.432 0-.783-.385-.783-.86s.351-.86.783-.86c.432 0 .782.385.782.86M61.79 33.141c0 .475-.35.86-.782.86-.432 0-.783-.385-.783-.86s.351-.86.783-.86c.432 0 .782.385.782.86M57.191 33.141c0 .475-.35.86-.782.86-.432 0-.783-.385-.783-.86s.351-.86.783-.86c.432 0 .782.385.782.86M52.592 33.141c0 .475-.35.86-.783.86-.431 0-.782-.385-.782-.86s.351-.86.782-.86c.433 0 .783.385.783.86M47.993 33.141c0 .475-.35.86-.783.86-.431 0-.782-.385-.782-.86s.35-.86.782-.86c.433 0 .783.385.783.86M43.394 33.141c0 .475-.35.86-.783.86-.431 0-.782-.385-.782-.86s.35-.86.782-.86c.432 0 .783.385.783.86M38.794 33.141c0 .475-.35.86-.782.86-.431 0-.783-.385-.783-.86s.352-.86.783-.86c.432 0 .782.385.782.86M34.195 33.141c0 .475-.35.86-.782.86-.432 0-.783-.385-.783-.86s.351-.86.783-.86c.432 0 .782.385.782.86M29.596 33.141c0 .475-.35.86-.782.86-.432 0-.783-.385-.783-.86s.351-.86.783-.86c.432 0 .782.385.782.86M24.997 33.141c0 .475-.35.86-.782.86-.432 0-.783-.385-.783-.86s.351-.86.783-.86c.432 0 .782.385.782.86M20.398 33.141c0 .475-.35.86-.783.86-.431 0-.782-.385-.782-.86s.35-.86.782-.86c.433 0 .783.385.783.86M15.799 33.141c0 .475-.35.86-.783.86-.431 0-.782-.385-.782-.86s.35-.86.782-.86c.433 0 .783.385.783.86M11.2 33.141c0 .475-.35.86-.783.86-.431 0-.783-.385-.783-.86s.352-.86.783-.86c.432 0 .782.385.782.86M57.191 39.266c0 .475-.35.86-.782.86-.432 0-.783-.385-.783-.86 0-.476.351-.86.783-.86.432 0 .782.384.782.86M52.592 39.266c0 .475-.35.86-.783.86-.431 0-.782-.385-.782-.86 0-.476.351-.86.782-.86.433 0 .783.384.783.86M47.993 39.266c0 .475-.35.86-.783.86-.431 0-.782-.385-.782-.86 0-.476.35-.86.782-.86.433 0 .783.384.783.86M43.394 39.266c0 .475-.35.86-.783.86-.431 0-.782-.385-.782-.86 0-.476.35-.86.782-.86.432 0 .783.384.783.86M38.794 39.266c0 .475-.35.86-.782.86-.431 0-.783-.385-.783-.86 0-.476.352-.86.783-.86.432 0 .782.384.782.86M34.195 39.266c0 .475-.35.86-.782.86-.432 0-.783-.385-.783-.86 0-.476.351-.86.783-.86.432 0 .782.384.782.86M29.596 39.266c0 .475-.35.86-.782.86-.432 0-.783-.385-.783-.86 0-.476.351-.86.783-.86.432 0 .782.384.782.86M24.997 39.266c0 .475-.35.86-.782.86-.432 0-.783-.385-.783-.86 0-.476.351-.86.783-.86.432 0 .782.384.782.86M20.398 39.266c0 .475-.35.86-.783.86-.431 0-.782-.385-.782-.86 0-.476.35-.86.782-.86.433 0 .783.384.783.86M52.592 45.39c0 .475-.35.86-.783.86-.431 0-.782-.385-.782-.86s.351-.86.782-.86c.433 0 .783.385.783.86M47.993 45.39c0 .475-.35.86-.783.86-.431 0-.782-.385-.782-.86s.35-.86.782-.86c.433 0 .783.385.783.86M43.394 45.39c0 .475-.35.86-.783.86-.431 0-.782-.385-.782-.86s.35-.86.782-.86c.432 0 .783.385.783.86M38.794 45.39c0 .475-.35.86-.782.86-.431 0-.783-.385-.783-.86s.352-.86.783-.86c.432 0 .782.385.782.86M34.195 45.39c0 .475-.35.86-.782.86-.432 0-.783-.385-.783-.86s.351-.86.783-.86c.432 0 .782.385.782.86M29.596 45.39c0 .475-.35.86-.782.86-.432 0-.783-.385-.783-.86s.351-.86.783-.86c.432 0 .782.385.782.86M24.997 45.39c0 .475-.35.86-.782.86-.432 0-.783-.385-.783-.86s.351-.86.783-.86c.432 0 .782.385.782.86M47.993 51.514c0 .475-.35.86-.783.86-.431 0-.782-.385-.782-.86s.35-.86.782-.86c.433 0 .783.385.783.86M43.394 51.514c0 .475-.35.86-.783.86-.431 0-.782-.385-.782-.86s.35-.86.782-.86c.432 0 .783.385.783.86M38.794 51.514c0 .475-.35.86-.782.86-.431 0-.783-.385-.783-.86s.352-.86.783-.86c.432 0 .782.385.782.86M34.195 51.514c0 .475-.35.86-.782.86-.432 0-.783-.385-.783-.86s.351-.86.783-.86c.432 0 .782.385.782.86M29.596 51.514c0 .475-.35.86-.782.86-.432 0-.783-.385-.783-.86s.351-.86.783-.86c.432 0 .782.385.782.86"/>
        </g>
        <path fill="url(#a)" d="M24.355 0a11.302 11.302 0 0 0-7.882 3.295l-4.674 4.643a11.176 11.176 0 0 0-3.313 7.883v.137a11.172 11.172 0 0 0 3.313 7.882l24.82 24.671a11.31 11.31 0 0 0 7.93 3.294h.138a11.308 11.308 0 0 0 7.93-3.294l4.674-4.646a11.2 11.2 0 0 0 0-15.902L32.471 3.295A11.302 11.302 0 0 0 24.588.001h-.233z" transform="translate(-.056 .492)"/>
        <path fill="url(#b)" d="M64.647 0a11.304 11.304 0 0 0-7.884 3.295L23.96 35.932l10.321 10.256 2.338 2.323a11.31 11.31 0 0 0 7.93 3.294h.138a11.309 11.309 0 0 0 7.93-3.294l24.82-24.67a11.164 11.164 0 0 0 3.311-7.834v-.23a11.184 11.184 0 0 0-3.311-7.839l-4.674-4.643A11.302 11.302 0 0 0 64.879.001h-.232z" transform="translate(-.056 .492)"/>
    </g>
</svg>
