<svg xmlns="http://www.w3.org/2000/svg" width="74" height="63" viewBox="0 0 74 63">
    <defs>
        <linearGradient id="a" x1="38.271%" x2="86.264%" y1="100%" y2="-51.39%">
            <stop offset="0%" stop-color="#42B549"/>
            <stop offset="100%" stop-color="#27782C"/>
        </linearGradient>
        <linearGradient id="b" x1="50%" x2="36.904%" y1="0%" y2="115.122%">
            <stop offset="0%" stop-color="#42B549"/>
            <stop offset="100%" stop-color="#87D58B"/>
        </linearGradient>
        <linearGradient id="c" x1="17.47%" x2="80.816%" y1="21.421%" y2="81.994%">
            <stop offset="0%" stop-color="#399C3F"/>
            <stop offset="100%" stop-color="#1B521E"/>
        </linearGradient>
    </defs>
    <g fill="none" fill-rule="evenodd">
        <g fill="#46D5E0">
            <path d="M55.905 9.118c0 .37-.295.67-.658.67a.664.664 0 0 1-.657-.67c0-.37.295-.67.657-.67.363 0 .658.3.658.67M52.039 9.118c0 .37-.295.67-.658.67a.664.664 0 0 1-.657-.67c0-.37.294-.67.657-.67.363 0 .658.3.658.67M21.11 9.118c0 .37-.294.67-.657.67a.664.664 0 0 1-.657-.67c0-.37.295-.67.657-.67.363 0 .658.3.658.67M17.245 9.118c0 .37-.294.67-.657.67a.664.664 0 0 1-.658-.67c0-.37.295-.67.658-.67.363 0 .657.3.657.67M55.905 13.89c0 .369-.295.669-.658.669a.664.664 0 0 1-.657-.67c0-.37.295-.67.657-.67.363 0 .658.3.658.67M52.039 13.89c0 .369-.295.669-.658.669a.664.664 0 0 1-.657-.67c0-.37.294-.67.657-.67.363 0 .658.3.658.67M48.173 13.89c0 .369-.295.669-.658.669a.664.664 0 0 1-.657-.67c0-.37.295-.67.657-.67.363 0 .658.3.658.67M21.11 13.89c0 .369-.294.669-.657.669a.664.664 0 0 1-.657-.67c0-.37.295-.67.657-.67.363 0 .658.3.658.67M17.245 13.89c0 .369-.294.669-.657.669a.664.664 0 0 1-.658-.67c0-.37.295-.67.658-.67.363 0 .657.3.657.67M13.379 13.89c0 .369-.295.669-.657.669a.664.664 0 0 1-.658-.67c0-.37.295-.67.658-.67.362 0 .657.3.657.67M59.77 18.66c0 .37-.294.67-.657.67a.664.664 0 0 1-.657-.67c0-.369.294-.669.657-.669.363 0 .658.3.658.67M55.905 18.66c0 .37-.295.67-.658.67a.664.664 0 0 1-.657-.67c0-.369.295-.669.657-.669.363 0 .658.3.658.67M52.039 18.66c0 .37-.295.67-.658.67a.664.664 0 0 1-.657-.67c0-.369.294-.669.657-.669.363 0 .658.3.658.67M48.173 18.66c0 .37-.295.67-.658.67a.664.664 0 0 1-.657-.67c0-.369.295-.669.657-.669.363 0 .658.3.658.67M44.307 18.66c0 .37-.295.67-.658.67a.664.664 0 0 1-.657-.67c0-.369.294-.669.657-.669.363 0 .658.3.658.67M24.977 18.66c0 .37-.295.67-.657.67a.664.664 0 0 1-.658-.67c0-.369.295-.669.658-.669.362 0 .657.3.657.67M21.11 18.66c0 .37-.294.67-.657.67a.664.664 0 0 1-.657-.67c0-.369.295-.669.657-.669.363 0 .658.3.658.67M17.245 18.66c0 .37-.294.67-.657.67a.664.664 0 0 1-.658-.67c0-.369.295-.669.658-.669.363 0 .657.3.657.67M13.379 18.66c0 .37-.295.67-.657.67a.664.664 0 0 1-.658-.67c0-.369.295-.669.658-.669.362 0 .657.3.657.67M9.513 18.66c0 .37-.294.67-.657.67a.664.664 0 0 1-.658-.67c0-.369.295-.669.658-.669.363 0 .657.3.657.67M63.637 23.432c0 .37-.295.67-.658.67a.664.664 0 0 1-.657-.67c0-.37.295-.67.657-.67.363 0 .658.3.658.67M59.77 23.432c0 .37-.294.67-.657.67a.664.664 0 0 1-.657-.67c0-.37.294-.67.657-.67.363 0 .658.3.658.67M55.905 23.432c0 .37-.295.67-.658.67a.664.664 0 0 1-.657-.67c0-.37.295-.67.657-.67.363 0 .658.3.658.67M52.039 23.432c0 .37-.295.67-.658.67a.664.664 0 0 1-.657-.67c0-.37.294-.67.657-.67.363 0 .658.3.658.67M48.173 23.432c0 .37-.295.67-.658.67a.664.664 0 0 1-.657-.67c0-.37.295-.67.657-.67.363 0 .658.3.658.67M44.307 23.432c0 .37-.295.67-.658.67a.664.664 0 0 1-.657-.67c0-.37.294-.67.657-.67.363 0 .658.3.658.67M28.843 23.432c0 .37-.295.67-.658.67a.664.664 0 0 1-.657-.67c0-.37.295-.67.657-.67.363 0 .658.3.658.67M24.977 23.432c0 .37-.295.67-.657.67a.664.664 0 0 1-.658-.67c0-.37.295-.67.658-.67.362 0 .657.3.657.67M21.11 23.432c0 .37-.294.67-.657.67a.664.664 0 0 1-.657-.67c0-.37.295-.67.657-.67.363 0 .658.3.658.67M17.245 23.432c0 .37-.294.67-.657.67a.664.664 0 0 1-.658-.67c0-.37.295-.67.658-.67.363 0 .657.3.657.67M13.379 23.432c0 .37-.295.67-.657.67a.664.664 0 0 1-.658-.67c0-.37.295-.67.658-.67.362 0 .657.3.657.67M9.513 23.432c0 .37-.294.67-.657.67a.664.664 0 0 1-.658-.67c0-.37.295-.67.658-.67.363 0 .657.3.657.67M5.647 23.432c0 .37-.294.67-.657.67a.664.664 0 0 1-.658-.67c0-.37.295-.67.658-.67.363 0 .657.3.657.67M67.503 28.203c0 .37-.295.67-.658.67a.664.664 0 0 1-.657-.67c0-.37.294-.67.657-.67.363 0 .658.3.658.67M63.637 28.203c0 .37-.295.67-.658.67a.664.664 0 0 1-.657-.67c0-.37.295-.67.657-.67.363 0 .658.3.658.67M59.77 28.203c0 .37-.294.67-.657.67a.664.664 0 0 1-.657-.67c0-.37.294-.67.657-.67.363 0 .658.3.658.67M55.905 28.203c0 .37-.295.67-.658.67a.664.664 0 0 1-.657-.67c0-.37.295-.67.657-.67.363 0 .658.3.658.67M52.039 28.203c0 .37-.295.67-.658.67a.664.664 0 0 1-.657-.67c0-.37.294-.67.657-.67.363 0 .658.3.658.67M48.173 28.203c0 .37-.295.67-.658.67a.664.664 0 0 1-.657-.67c0-.37.295-.67.657-.67.363 0 .658.3.658.67M44.307 28.203c0 .37-.295.67-.658.67a.664.664 0 0 1-.657-.67c0-.37.294-.67.657-.67.363 0 .658.3.658.67M40.44 28.203c0 .37-.294.67-.656.67a.664.664 0 0 1-.658-.67c0-.37.295-.67.658-.67.362 0 .657.3.657.67M28.843 28.203c0 .37-.295.67-.658.67a.664.664 0 0 1-.657-.67c0-.37.295-.67.657-.67.363 0 .658.3.658.67M24.977 28.203c0 .37-.295.67-.657.67a.664.664 0 0 1-.658-.67c0-.37.295-.67.658-.67.362 0 .657.3.657.67M21.11 28.203c0 .37-.294.67-.657.67a.664.664 0 0 1-.657-.67c0-.37.295-.67.657-.67.363 0 .658.3.658.67M17.245 28.203c0 .37-.294.67-.657.67a.664.664 0 0 1-.658-.67c0-.37.295-.67.658-.67.363 0 .657.3.657.67M13.379 28.203c0 .37-.295.67-.657.67a.664.664 0 0 1-.658-.67c0-.37.295-.67.658-.67.362 0 .657.3.657.67M9.513 28.203c0 .37-.294.67-.657.67a.664.664 0 0 1-.658-.67c0-.37.295-.67.658-.67.363 0 .657.3.657.67M5.647 28.203c0 .37-.294.67-.657.67a.664.664 0 0 1-.658-.67c0-.37.295-.67.658-.67.363 0 .657.3.657.67M67.503 32.975c0 .37-.295.67-.658.67a.664.664 0 0 1-.657-.67c0-.37.294-.67.657-.67.363 0 .658.3.658.67M63.637 32.975c0 .37-.295.67-.658.67a.664.664 0 0 1-.657-.67c0-.37.295-.67.657-.67.363 0 .658.3.658.67M59.77 32.975c0 .37-.294.67-.657.67a.664.664 0 0 1-.657-.67c0-.37.294-.67.657-.67.363 0 .658.3.658.67M55.905 32.975c0 .37-.295.67-.658.67a.664.664 0 0 1-.657-.67c0-.37.295-.67.657-.67.363 0 .658.3.658.67M52.039 32.975c0 .37-.295.67-.658.67a.664.664 0 0 1-.657-.67c0-.37.294-.67.657-.67.363 0 .658.3.658.67M48.173 32.975c0 .37-.295.67-.658.67a.664.664 0 0 1-.657-.67c0-.37.295-.67.657-.67.363 0 .658.3.658.67M44.307 32.975c0 .37-.295.67-.658.67a.664.664 0 0 1-.657-.67c0-.37.294-.67.657-.67.363 0 .658.3.658.67M40.44 32.975c0 .37-.294.67-.656.67a.664.664 0 0 1-.658-.67c0-.37.295-.67.658-.67.362 0 .657.3.657.67M36.575 32.975c0 .37-.295.67-.658.67a.664.664 0 0 1-.657-.67c0-.37.295-.67.657-.67.363 0 .658.3.658.67M32.709 32.975c0 .37-.295.67-.657.67a.664.664 0 0 1-.658-.67c0-.37.295-.67.658-.67.362 0 .657.3.657.67M28.843 32.975c0 .37-.295.67-.658.67a.664.664 0 0 1-.657-.67c0-.37.295-.67.657-.67.363 0 .658.3.658.67M24.977 32.975c0 .37-.295.67-.657.67a.664.664 0 0 1-.658-.67c0-.37.295-.67.658-.67.362 0 .657.3.657.67M21.11 32.975c0 .37-.294.67-.657.67a.664.664 0 0 1-.657-.67c0-.37.295-.67.657-.67.363 0 .658.3.658.67M17.245 32.975c0 .37-.294.67-.657.67a.664.664 0 0 1-.658-.67c0-.37.295-.67.658-.67.363 0 .657.3.657.67M13.379 32.975c0 .37-.295.67-.657.67a.664.664 0 0 1-.658-.67c0-.37.295-.67.658-.67.362 0 .657.3.657.67M9.513 32.975c0 .37-.294.67-.657.67a.664.664 0 0 1-.658-.67c0-.37.295-.67.658-.67.363 0 .657.3.657.67M5.647 32.975c0 .37-.294.67-.657.67a.664.664 0 0 1-.658-.67c0-.37.295-.67.658-.67.363 0 .657.3.657.67M1.781 32.975c0 .37-.294.67-.657.67a.664.664 0 0 1-.658-.67c0-.37.295-.67.658-.67.363 0 .657.3.657.67M67.503 37.746c0 .37-.295.67-.658.67a.664.664 0 0 1-.657-.67c0-.37.294-.67.657-.67.363 0 .658.3.658.67M63.637 37.746c0 .37-.295.67-.658.67a.664.664 0 0 1-.657-.67c0-.37.295-.67.657-.67.363 0 .658.3.658.67M59.77 37.746c0 .37-.294.67-.657.67a.664.664 0 0 1-.657-.67c0-.37.294-.67.657-.67.363 0 .658.3.658.67M55.905 37.746c0 .37-.295.67-.658.67a.664.664 0 0 1-.657-.67c0-.37.295-.67.657-.67.363 0 .658.3.658.67M52.039 37.746c0 .37-.295.67-.658.67a.664.664 0 0 1-.657-.67c0-.37.294-.67.657-.67.363 0 .658.3.658.67M48.173 37.746c0 .37-.295.67-.658.67a.664.664 0 0 1-.657-.67c0-.37.295-.67.657-.67.363 0 .658.3.658.67M44.307 37.746c0 .37-.295.67-.658.67a.664.664 0 0 1-.657-.67c0-.37.294-.67.657-.67.363 0 .658.3.658.67M40.44 37.746c0 .37-.294.67-.656.67a.664.664 0 0 1-.658-.67c0-.37.295-.67.658-.67.362 0 .657.3.657.67M36.575 37.746c0 .37-.295.67-.658.67a.664.664 0 0 1-.657-.67c0-.37.295-.67.657-.67.363 0 .658.3.658.67M32.709 37.746c0 .37-.295.67-.657.67a.664.664 0 0 1-.658-.67c0-.37.295-.67.658-.67.362 0 .657.3.657.67M28.843 37.746c0 .37-.295.67-.658.67a.664.664 0 0 1-.657-.67c0-.37.295-.67.657-.67.363 0 .658.3.658.67M24.977 37.746c0 .37-.295.67-.657.67a.664.664 0 0 1-.658-.67c0-.37.295-.67.658-.67.362 0 .657.3.657.67M21.11 37.746c0 .37-.294.67-.657.67a.664.664 0 0 1-.657-.67c0-.37.295-.67.657-.67.363 0 .658.3.658.67M17.245 37.746c0 .37-.294.67-.657.67a.664.664 0 0 1-.658-.67c0-.37.295-.67.658-.67.363 0 .657.3.657.67M13.379 37.746c0 .37-.295.67-.657.67a.664.664 0 0 1-.658-.67c0-.37.295-.67.658-.67.362 0 .657.3.657.67M9.513 37.746c0 .37-.294.67-.657.67a.664.664 0 0 1-.658-.67c0-.37.295-.67.658-.67.363 0 .657.3.657.67M5.647 37.746c0 .37-.294.67-.657.67a.664.664 0 0 1-.658-.67c0-.37.295-.67.658-.67.363 0 .657.3.657.67M1.781 37.746c0 .37-.294.67-.657.67a.664.664 0 0 1-.658-.67c0-.37.295-.67.658-.67.363 0 .657.3.657.67M63.637 42.517c0 .37-.295.67-.658.67a.664.664 0 0 1-.657-.67c0-.37.295-.67.657-.67.363 0 .658.3.658.67M59.77 42.517c0 .37-.294.67-.657.67a.664.664 0 0 1-.657-.67c0-.37.294-.67.657-.67.363 0 .658.3.658.67M55.905 42.517c0 .37-.295.67-.658.67a.664.664 0 0 1-.657-.67c0-.37.295-.67.657-.67.363 0 .658.3.658.67M52.039 42.517c0 .37-.295.67-.658.67a.664.664 0 0 1-.657-.67c0-.37.294-.67.657-.67.363 0 .658.3.658.67M48.173 42.517c0 .37-.295.67-.658.67a.664.664 0 0 1-.657-.67c0-.37.295-.67.657-.67.363 0 .658.3.658.67M44.307 42.517c0 .37-.295.67-.658.67a.664.664 0 0 1-.657-.67c0-.37.294-.67.657-.67.363 0 .658.3.658.67M40.44 42.517c0 .37-.294.67-.656.67a.664.664 0 0 1-.658-.67c0-.37.295-.67.658-.67.362 0 .657.3.657.67M36.575 42.517c0 .37-.295.67-.658.67a.664.664 0 0 1-.657-.67c0-.37.295-.67.657-.67.363 0 .658.3.658.67M32.709 42.517c0 .37-.295.67-.657.67a.664.664 0 0 1-.658-.67c0-.37.295-.67.658-.67.362 0 .657.3.657.67M28.843 42.517c0 .37-.295.67-.658.67a.664.664 0 0 1-.657-.67c0-.37.295-.67.657-.67.363 0 .658.3.658.67M24.977 42.517c0 .37-.295.67-.657.67a.664.664 0 0 1-.658-.67c0-.37.295-.67.658-.67.362 0 .657.3.657.67M21.11 42.517c0 .37-.294.67-.657.67a.664.664 0 0 1-.657-.67c0-.37.295-.67.657-.67.363 0 .658.3.658.67M17.245 42.517c0 .37-.294.67-.657.67a.664.664 0 0 1-.658-.67c0-.37.295-.67.658-.67.363 0 .657.3.657.67M13.379 42.517c0 .37-.295.67-.657.67a.664.664 0 0 1-.658-.67c0-.37.295-.67.658-.67.362 0 .657.3.657.67M9.513 42.517c0 .37-.294.67-.657.67a.664.664 0 0 1-.658-.67c0-.37.295-.67.658-.67.363 0 .657.3.657.67M5.647 42.517c0 .37-.294.67-.657.67a.664.664 0 0 1-.658-.67c0-.37.295-.67.658-.67.363 0 .657.3.657.67M63.637 47.288c0 .37-.295.67-.658.67a.664.664 0 0 1-.657-.67c0-.37.295-.67.657-.67.363 0 .658.3.658.67M59.77 47.288c0 .37-.294.67-.657.67a.664.664 0 0 1-.657-.67c0-.37.294-.67.657-.67.363 0 .658.3.658.67M55.905 47.288c0 .37-.295.67-.658.67a.664.664 0 0 1-.657-.67c0-.37.295-.67.657-.67.363 0 .658.3.658.67M52.039 47.288c0 .37-.295.67-.658.67a.664.664 0 0 1-.657-.67c0-.37.294-.67.657-.67.363 0 .658.3.658.67M48.173 47.288c0 .37-.295.67-.658.67a.664.664 0 0 1-.657-.67c0-.37.295-.67.657-.67.363 0 .658.3.658.67M44.307 47.288c0 .37-.295.67-.658.67a.664.664 0 0 1-.657-.67c0-.37.294-.67.657-.67.363 0 .658.3.658.67M40.44 47.288c0 .37-.294.67-.656.67a.664.664 0 0 1-.658-.67c0-.37.295-.67.658-.67.362 0 .657.3.657.67M36.575 47.288c0 .37-.295.67-.658.67a.664.664 0 0 1-.657-.67c0-.37.295-.67.657-.67.363 0 .658.3.658.67M32.709 47.288c0 .37-.295.67-.657.67a.664.664 0 0 1-.658-.67c0-.37.295-.67.658-.67.362 0 .657.3.657.67M28.843 47.288c0 .37-.295.67-.658.67a.664.664 0 0 1-.657-.67c0-.37.295-.67.657-.67.363 0 .658.3.658.67M24.977 47.288c0 .37-.295.67-.657.67a.664.664 0 0 1-.658-.67c0-.37.295-.67.658-.67.362 0 .657.3.657.67M21.11 47.288c0 .37-.294.67-.657.67a.664.664 0 0 1-.657-.67c0-.37.295-.67.657-.67.363 0 .658.3.658.67M17.245 47.288c0 .37-.294.67-.657.67a.664.664 0 0 1-.658-.67c0-.37.295-.67.658-.67.363 0 .657.3.657.67M13.379 47.288c0 .37-.295.67-.657.67a.664.664 0 0 1-.658-.67c0-.37.295-.67.658-.67.362 0 .657.3.657.67M9.513 47.288c0 .37-.294.67-.657.67a.664.664 0 0 1-.658-.67c0-.37.295-.67.658-.67.363 0 .657.3.657.67M59.77 52.06c0 .37-.294.67-.657.67a.664.664 0 0 1-.657-.67c0-.37.294-.67.657-.67.363 0 .658.3.658.67M55.905 52.06c0 .37-.295.67-.658.67a.664.664 0 0 1-.657-.67c0-.37.295-.67.657-.67.363 0 .658.3.658.67M52.039 52.06c0 .37-.295.67-.658.67a.664.664 0 0 1-.657-.67c0-.37.294-.67.657-.67.363 0 .658.3.658.67M48.173 52.06c0 .37-.295.67-.658.67a.664.664 0 0 1-.657-.67c0-.37.295-.67.657-.67.363 0 .658.3.658.67M44.307 52.06c0 .37-.295.67-.658.67a.664.664 0 0 1-.657-.67c0-.37.294-.67.657-.67.363 0 .658.3.658.67M40.44 52.06c0 .37-.294.67-.656.67a.664.664 0 0 1-.658-.67c0-.37.295-.67.658-.67.362 0 .657.3.657.67M36.575 52.06c0 .37-.295.67-.658.67a.664.664 0 0 1-.657-.67c0-.37.295-.67.657-.67.363 0 .658.3.658.67M32.709 52.06c0 .37-.295.67-.657.67a.664.664 0 0 1-.658-.67c0-.37.295-.67.658-.67.362 0 .657.3.657.67M28.843 52.06c0 .37-.295.67-.658.67a.664.664 0 0 1-.657-.67c0-.37.295-.67.657-.67.363 0 .658.3.658.67M24.977 52.06c0 .37-.295.67-.657.67a.664.664 0 0 1-.658-.67c0-.37.295-.67.658-.67.362 0 .657.3.657.67M21.11 52.06c0 .37-.294.67-.657.67a.664.664 0 0 1-.657-.67c0-.37.295-.67.657-.67.363 0 .658.3.658.67M17.245 52.06c0 .37-.294.67-.657.67a.664.664 0 0 1-.658-.67c0-.37.295-.67.658-.67.363 0 .657.3.657.67M13.379 52.06c0 .37-.295.67-.657.67a.664.664 0 0 1-.658-.67c0-.37.295-.67.658-.67.362 0 .657.3.657.67M9.513 52.06c0 .37-.294.67-.657.67a.664.664 0 0 1-.658-.67c0-.37.295-.67.658-.67.363 0 .657.3.657.67M55.905 56.831c0 .37-.295.67-.658.67a.664.664 0 0 1-.657-.67c0-.37.295-.67.657-.67.363 0 .658.3.658.67M52.039 56.831c0 .37-.295.67-.658.67a.664.664 0 0 1-.657-.67c0-.37.294-.67.657-.67.363 0 .658.3.658.67M48.173 56.831c0 .37-.295.67-.658.67a.664.664 0 0 1-.657-.67c0-.37.295-.67.657-.67.363 0 .658.3.658.67M44.307 56.831c0 .37-.295.67-.658.67a.664.664 0 0 1-.657-.67c0-.37.294-.67.657-.67.363 0 .658.3.658.67M40.44 56.831c0 .37-.294.67-.656.67a.664.664 0 0 1-.658-.67c0-.37.295-.67.658-.67.362 0 .657.3.657.67M36.575 56.831c0 .37-.295.67-.658.67a.664.664 0 0 1-.657-.67c0-.37.295-.67.657-.67.363 0 .658.3.658.67M32.709 56.831c0 .37-.295.67-.657.67a.664.664 0 0 1-.658-.67c0-.37.295-.67.658-.67.362 0 .657.3.657.67M28.843 56.831c0 .37-.295.67-.658.67a.664.664 0 0 1-.657-.67c0-.37.295-.67.657-.67.363 0 .658.3.658.67M24.977 56.831c0 .37-.295.67-.657.67a.664.664 0 0 1-.658-.67c0-.37.295-.67.658-.67.362 0 .657.3.657.67M21.11 56.831c0 .37-.294.67-.657.67a.664.664 0 0 1-.657-.67c0-.37.295-.67.657-.67.363 0 .658.3.658.67M17.245 56.831c0 .37-.294.67-.657.67a.664.664 0 0 1-.658-.67c0-.37.295-.67.658-.67.363 0 .657.3.657.67M13.379 56.831c0 .37-.295.67-.657.67a.664.664 0 0 1-.658-.67c0-.37.295-.67.658-.67.362 0 .657.3.657.67M52.039 61.602c0 .37-.295.67-.658.67a.664.664 0 0 1-.657-.67c0-.37.294-.67.657-.67.363 0 .658.3.658.67M48.173 61.602c0 .37-.295.67-.658.67a.664.664 0 0 1-.657-.67c0-.37.295-.67.657-.67.363 0 .658.3.658.67M44.307 61.602c0 .37-.295.67-.658.67a.664.664 0 0 1-.657-.67c0-.37.294-.67.657-.67.363 0 .658.3.658.67M40.44 61.602c0 .37-.294.67-.656.67a.664.664 0 0 1-.658-.67c0-.37.295-.67.658-.67.362 0 .657.3.657.67M36.575 61.602c0 .37-.295.67-.658.67a.664.664 0 0 1-.657-.67c0-.37.295-.67.657-.67.363 0 .658.3.658.67M32.709 61.602c0 .37-.295.67-.657.67a.664.664 0 0 1-.658-.67c0-.37.295-.67.658-.67.362 0 .657.3.657.67M28.843 61.602c0 .37-.295.67-.658.67a.664.664 0 0 1-.657-.67c0-.37.295-.67.657-.67.363 0 .658.3.658.67M24.977 61.602c0 .37-.295.67-.657.67a.664.664 0 0 1-.658-.67c0-.37.295-.67.658-.67.362 0 .657.3.657.67M21.11 61.602c0 .37-.294.67-.657.67a.664.664 0 0 1-.657-.67c0-.37.295-.67.657-.67.363 0 .658.3.658.67M17.245 61.602c0 .37-.294.67-.657.67a.664.664 0 0 1-.658-.67c0-.37.295-.67.658-.67.363 0 .657.3.657.67"/>
        </g>
        <path fill="url(#a)" d="M42.537 27.752h-.001l-16.022 27.75h32.045l16.023-27.75z" transform="translate(-1)"/>
        <path fill="url(#b)" d="M58.559 1L42.537 28.752h32.045z" transform="translate(-1)"/>
        <path fill="url(#c)" d="M26.514 0L10.492 27.752l16.022 27.75 16.022-27.75z" transform="translate(-1)"/>
    </g>
</svg>
