<svg xmlns="http://www.w3.org/2000/svg" width="63" height="60" viewBox="0 0 63 60">
    <defs>
        <linearGradient id="a" x1="50%" x2="50%" y1="1.285%" y2="99.042%">
            <stop offset="0%" stop-color="#23C4D0"/>
            <stop offset="100%" stop-color="#72DFE7"/>
        </linearGradient>
        <linearGradient id="b" x1="-34.222%" x2="127.229%" y1="50%" y2="50%">
            <stop offset="0%" stop-color="#147279"/>
            <stop offset="100%" stop-color="#23C4D0"/>
        </linearGradient>
    </defs>
    <g fill="none" fill-rule="evenodd">
        <g fill="#FF5722">
            <path d="M27.929 12.755c0 .445-.394.806-.88.806-.485 0-.88-.36-.88-.806 0-.446.395-.807.88-.807.486 0 .88.36.88.807M22.757 12.755c0 .445-.394.806-.88.806-.485 0-.88-.36-.88-.806 0-.446.395-.807.88-.807.486 0 .88.36.88.807M17.585 12.755c0 .445-.394.806-.88.806s-.88-.36-.88-.806c0-.446.394-.807.88-.807s.88.36.88.807M12.412 12.755c0 .445-.393.806-.88.806-.485 0-.88-.36-.88-.806 0-.446.395-.807.88-.807.487 0 .88.36.88.807M7.24 12.755c0 .445-.394.806-.88.806-.485 0-.88-.36-.88-.806 0-.446.395-.807.88-.807.486 0 .88.36.88.807M2.068 12.755c0 .445-.394.806-.88.806-.485 0-.88-.36-.88-.806 0-.446.395-.807.88-.807.486 0 .88.36.88.807M27.929 18.5c0 .446-.394.807-.88.807-.485 0-.88-.361-.88-.807 0-.446.395-.807.88-.807.486 0 .88.361.88.807M22.757 18.5c0 .446-.394.807-.88.807-.485 0-.88-.361-.88-.807 0-.446.395-.807.88-.807.486 0 .88.361.88.807M17.585 18.5c0 .446-.394.807-.88.807s-.88-.361-.88-.807c0-.446.394-.807.88-.807s.88.361.88.807M12.412 18.5c0 .446-.393.807-.88.807-.485 0-.88-.361-.88-.807 0-.446.395-.807.88-.807.487 0 .88.361.88.807M7.24 18.5c0 .446-.394.807-.88.807-.485 0-.88-.361-.88-.807 0-.446.395-.807.88-.807.486 0 .88.361.88.807M2.068 18.5c0 .446-.394.807-.88.807-.485 0-.88-.361-.88-.807 0-.446.395-.807.88-.807.486 0 .88.361.88.807M27.929 24.246c0 .445-.394.806-.88.806-.485 0-.88-.36-.88-.806 0-.446.395-.807.88-.807.486 0 .88.36.88.807M22.757 24.246c0 .445-.394.806-.88.806-.485 0-.88-.36-.88-.806 0-.446.395-.807.88-.807.486 0 .88.36.88.807M17.585 24.246c0 .445-.394.806-.88.806s-.88-.36-.88-.806c0-.446.394-.807.88-.807s.88.36.88.807M12.412 24.246c0 .445-.393.806-.88.806-.485 0-.88-.36-.88-.806 0-.446.395-.807.88-.807.487 0 .88.36.88.807M7.24 24.246c0 .445-.394.806-.88.806-.485 0-.88-.36-.88-.806 0-.446.395-.807.88-.807.486 0 .88.36.88.807M2.068 24.246c0 .445-.394.806-.88.806-.485 0-.88-.36-.88-.806 0-.446.395-.807.88-.807.486 0 .88.36.88.807M27.929 29.991c0 .446-.394.807-.88.807-.485 0-.88-.361-.88-.807 0-.446.395-.807.88-.807.486 0 .88.361.88.807M22.757 29.991c0 .446-.394.807-.88.807-.485 0-.88-.361-.88-.807 0-.446.395-.807.88-.807.486 0 .88.361.88.807M17.585 29.991c0 .446-.394.807-.88.807s-.88-.361-.88-.807c0-.446.394-.807.88-.807s.88.361.88.807M12.412 29.991c0 .446-.393.807-.88.807-.485 0-.88-.361-.88-.807 0-.446.395-.807.88-.807.487 0 .88.361.88.807M7.24 29.991c0 .446-.394.807-.88.807-.485 0-.88-.361-.88-.807 0-.446.395-.807.88-.807.486 0 .88.361.88.807M2.068 29.991c0 .446-.394.807-.88.807-.485 0-.88-.361-.88-.807 0-.446.395-.807.88-.807.486 0 .88.361.88.807M53.79 35.737c0 .445-.394.806-.88.806-.485 0-.88-.36-.88-.806 0-.446.395-.807.88-.807.486 0 .88.36.88.807M48.618 35.737c0 .445-.394.806-.88.806-.485 0-.88-.36-.88-.806 0-.446.395-.807.88-.807.486 0 .88.36.88.807M43.446 35.737c0 .445-.394.806-.88.806s-.88-.36-.88-.806c0-.446.394-.807.88-.807s.88.36.88.807M38.273 35.737c0 .445-.393.806-.88.806-.485 0-.88-.36-.88-.806 0-.446.395-.807.88-.807.487 0 .88.36.88.807M33.101 35.737c0 .445-.394.806-.88.806-.485 0-.88-.36-.88-.806 0-.446.395-.807.88-.807.486 0 .88.36.88.807M27.929 35.737c0 .445-.394.806-.88.806-.485 0-.88-.36-.88-.806 0-.446.395-.807.88-.807.486 0 .88.36.88.807M22.757 35.737c0 .445-.394.806-.88.806-.485 0-.88-.36-.88-.806 0-.446.395-.807.88-.807.486 0 .88.36.88.807M17.585 35.737c0 .445-.394.806-.88.806s-.88-.36-.88-.806c0-.446.394-.807.88-.807s.88.36.88.807M12.412 35.737c0 .445-.393.806-.88.806-.485 0-.88-.36-.88-.806 0-.446.395-.807.88-.807.487 0 .88.36.88.807M7.24 35.737c0 .445-.394.806-.88.806-.485 0-.88-.36-.88-.806 0-.446.395-.807.88-.807.486 0 .88.36.88.807M2.068 35.737c0 .445-.394.806-.88.806-.485 0-.88-.36-.88-.806 0-.446.395-.807.88-.807.486 0 .88.36.88.807M53.79 41.482c0 .446-.394.807-.88.807-.485 0-.88-.361-.88-.807 0-.446.395-.807.88-.807.486 0 .88.361.88.807M48.618 41.482c0 .446-.394.807-.88.807-.485 0-.88-.361-.88-.807 0-.446.395-.807.88-.807.486 0 .88.361.88.807M43.446 41.482c0 .446-.394.807-.88.807s-.88-.361-.88-.807c0-.446.394-.807.88-.807s.88.361.88.807M38.273 41.482c0 .446-.393.807-.88.807-.485 0-.88-.361-.88-.807 0-.446.395-.807.88-.807.487 0 .88.361.88.807M33.101 41.482c0 .446-.394.807-.88.807-.485 0-.88-.361-.88-.807 0-.446.395-.807.88-.807.486 0 .88.361.88.807M27.929 41.482c0 .446-.394.807-.88.807-.485 0-.88-.361-.88-.807 0-.446.395-.807.88-.807.486 0 .88.361.88.807M22.757 41.482c0 .446-.394.807-.88.807-.485 0-.88-.361-.88-.807 0-.446.395-.807.88-.807.486 0 .88.361.88.807M17.585 41.482c0 .446-.394.807-.88.807s-.88-.361-.88-.807c0-.446.394-.807.88-.807s.88.361.88.807M12.412 41.482c0 .446-.393.807-.88.807-.485 0-.88-.361-.88-.807 0-.446.395-.807.88-.807.487 0 .88.361.88.807M7.24 41.482c0 .446-.394.807-.88.807-.485 0-.88-.361-.88-.807 0-.446.395-.807.88-.807.486 0 .88.361.88.807M2.068 41.482c0 .446-.394.807-.88.807-.485 0-.88-.361-.88-.807 0-.446.395-.807.88-.807.486 0 .88.361.88.807M53.79 47.228c0 .445-.394.806-.88.806-.485 0-.88-.36-.88-.806 0-.446.395-.807.88-.807.486 0 .88.36.88.807M48.618 47.228c0 .445-.394.806-.88.806-.485 0-.88-.36-.88-.806 0-.446.395-.807.88-.807.486 0 .88.36.88.807M43.446 47.228c0 .445-.394.806-.88.806s-.88-.36-.88-.806c0-.446.394-.807.88-.807s.88.36.88.807M38.273 47.228c0 .445-.393.806-.88.806-.485 0-.88-.36-.88-.806 0-.446.395-.807.88-.807.487 0 .88.36.88.807M33.101 47.228c0 .445-.394.806-.88.806-.485 0-.88-.36-.88-.806 0-.446.395-.807.88-.807.486 0 .88.36.88.807M27.929 47.228c0 .445-.394.806-.88.806-.485 0-.88-.36-.88-.806 0-.446.395-.807.88-.807.486 0 .88.36.88.807M22.757 47.228c0 .445-.394.806-.88.806-.485 0-.88-.36-.88-.806 0-.446.395-.807.88-.807.486 0 .88.36.88.807M17.585 47.228c0 .445-.394.806-.88.806s-.88-.36-.88-.806c0-.446.394-.807.88-.807s.88.36.88.807M12.412 47.228c0 .445-.393.806-.88.806-.485 0-.88-.36-.88-.806 0-.446.395-.807.88-.807.487 0 .88.36.88.807M7.24 47.228c0 .445-.394.806-.88.806-.485 0-.88-.36-.88-.806 0-.446.395-.807.88-.807.486 0 .88.36.88.807M2.068 47.228c0 .445-.394.806-.88.806-.485 0-.88-.36-.88-.806 0-.446.395-.807.88-.807.486 0 .88.36.88.807M53.79 52.973c0 .446-.394.807-.88.807-.485 0-.88-.361-.88-.807 0-.446.395-.807.88-.807.486 0 .88.361.88.807M48.618 52.973c0 .446-.394.807-.88.807-.485 0-.88-.361-.88-.807 0-.446.395-.807.88-.807.486 0 .88.361.88.807M43.446 52.973c0 .446-.394.807-.88.807s-.88-.361-.88-.807c0-.446.394-.807.88-.807s.88.361.88.807M38.273 52.973c0 .446-.393.807-.88.807-.485 0-.88-.361-.88-.807 0-.446.395-.807.88-.807.487 0 .88.361.88.807M33.101 52.973c0 .446-.394.807-.88.807-.485 0-.88-.361-.88-.807 0-.446.395-.807.88-.807.486 0 .88.361.88.807M27.929 52.973c0 .446-.394.807-.88.807-.485 0-.88-.361-.88-.807 0-.446.395-.807.88-.807.486 0 .88.361.88.807M22.757 52.973c0 .446-.394.807-.88.807-.485 0-.88-.361-.88-.807 0-.446.395-.807.88-.807.486 0 .88.361.88.807M17.585 52.973c0 .446-.394.807-.88.807s-.88-.361-.88-.807c0-.446.394-.807.88-.807s.88.361.88.807M12.412 52.973c0 .446-.393.807-.88.807-.485 0-.88-.361-.88-.807 0-.446.395-.807.88-.807.487 0 .88.361.88.807M7.24 52.973c0 .446-.394.807-.88.807-.485 0-.88-.361-.88-.807 0-.446.395-.807.88-.807.486 0 .88.361.88.807M2.068 52.973c0 .446-.394.807-.88.807-.485 0-.88-.361-.88-.807 0-.446.395-.807.88-.807.486 0 .88.361.88.807M53.79 58.718c0 .446-.394.807-.88.807-.485 0-.88-.36-.88-.807 0-.445.395-.806.88-.806.486 0 .88.36.88.806M48.618 58.718c0 .446-.394.807-.88.807-.485 0-.88-.36-.88-.807 0-.445.395-.806.88-.806.486 0 .88.36.88.806M43.446 58.718c0 .446-.394.807-.88.807s-.88-.36-.88-.807c0-.445.394-.806.88-.806s.88.36.88.806M38.273 58.718c0 .446-.393.807-.88.807-.485 0-.88-.36-.88-.807 0-.445.395-.806.88-.806.487 0 .88.36.88.806M33.101 58.718c0 .446-.394.807-.88.807-.485 0-.88-.36-.88-.807 0-.445.395-.806.88-.806.486 0 .88.36.88.806M27.929 58.718c0 .446-.394.807-.88.807-.485 0-.88-.36-.88-.807 0-.445.395-.806.88-.806.486 0 .88.36.88.806M22.757 58.718c0 .446-.394.807-.88.807-.485 0-.88-.36-.88-.807 0-.445.395-.806.88-.806.486 0 .88.36.88.806M17.585 58.718c0 .446-.394.807-.88.807s-.88-.36-.88-.807c0-.445.394-.806.88-.806s.88.36.88.806M12.412 58.718c0 .446-.393.807-.88.807-.485 0-.88-.36-.88-.807 0-.445.395-.806.88-.806.487 0 .88.36.88.806M7.24 58.718c0 .446-.394.807-.88.807-.485 0-.88-.36-.88-.807 0-.445.395-.806.88-.806.486 0 .88.36.88.806M2.068 58.718c0 .446-.394.807-.88.807-.485 0-.88-.36-.88-.807 0-.445.395-.806.88-.806.486 0 .88.36.88.806"/>
        </g>
        <path fill="url(#a)" d="M6.527 0v51.269h27.965V0z" transform="translate(0 .172)"/>
        <path fill="url(#b)" d="M34.492 51.27h27.965V25.635H34.492z" transform="translate(0 .172)"/>
    </g>
</svg>
