<?xml version="1.0" encoding="UTF-8"?>
<svg width="334px" height="582px" viewBox="0 0 334 582" version="1.1" xmlns="http://www.w3.org/2000/svg" xmlns:xlink="http://www.w3.org/1999/xlink">
    <!-- Generator: Sketch 48.1 (47250) - http://www.bohemiancoding.com/sketch -->
    <title>Group 5</title>
    <desc>Created with Sketch.</desc>
    <defs>
        <rect id="path-1" x="0" y="0" width="320" height="568"></rect>
        <filter x="-3.4%" y="-2.1%" width="106.9%" height="103.9%" filterUnits="objectBoundingBox" id="filter-2">
            <feOffset dx="0" dy="-1" in="SourceAlpha" result="shadowOffsetOuter1"></feOffset>
            <feGaussianBlur stdDeviation="3.5" in="shadowOffsetOuter1" result="shadowBlurOuter1"></feGaussianBlur>
            <feColorMatrix values="0 0 0 0 0   0 0 0 0 0   0 0 0 0 0  0 0 0 0.15 0" type="matrix" in="shadowBlurOuter1"></feColorMatrix>
        </filter>
        <rect id="path-3" x="0" y="0" width="320" height="72"></rect>
        <filter x="-3.4%" y="-16.7%" width="106.9%" height="130.6%" filterUnits="objectBoundingBox" id="filter-4">
            <feOffset dx="0" dy="-1" in="SourceAlpha" result="shadowOffsetOuter1"></feOffset>
            <feGaussianBlur stdDeviation="3.5" in="shadowOffsetOuter1" result="shadowBlurOuter1"></feGaussianBlur>
            <feColorMatrix values="0 0 0 0 0   0 0 0 0 0   0 0 0 0 0  0 0 0 0.15 0" type="matrix" in="shadowBlurOuter1"></feColorMatrix>
        </filter>
        <rect id="path-5" x="0" y="0" width="288" height="56" rx="4"></rect>
    </defs>
    <g id="tickers" stroke="none" stroke-width="1" fill="none" fill-rule="evenodd" transform="translate(-360.000000, -1070.000000)">
        <g id="Content" transform="translate(262.186622, 205.569653)">
            <g id="Type" transform="translate(64.000000, 770.000000)">
                <g id="Group-5" transform="translate(41.000000, 102.000000)">
                    <g id="Group-2">
                        <g id="Group-21" transform="translate(0.000000, 0.450811)">
                            <g id="Group-20">
                                <g id="Rectangle-10">
                                    <use fill="black" fill-opacity="1" filter="url(#filter-2)" xlink:href="#path-1"></use>
                                    <use fill="#FFFFFF" fill-rule="evenodd" xlink:href="#path-1"></use>
                                </g>
                                <g id="Navigation-Bar/iOS/Single-Line">
                                    <g id="Header-nav" stroke-width="1">
                                        <g id="Rectangle-2">
                                            <use fill="black" fill-opacity="1" filter="url(#filter-4)" xlink:href="#path-3"></use>
                                            <use fill="#FFFFFF" fill-rule="evenodd" xlink:href="#path-3"></use>
                                        </g>
                                        <g id="Icon/iOS/Back-Button" transform="translate(16.000000, 39.000000)" fill="#DBDBDB">
                                            <polygon id="Page-1" points="8.85 0 0 8.52091081 8.719 17 10.735 14.9526861 4.034 8.43532239 11 2.09108073"></polygon>
                                        </g>
                                        <g id="Status-Bar/White/100%" transform="translate(6.000000, 5.000000)">
                                            <path d="M141.900391,10.6933594 C140.464844,10.6933594 139.398438,9.84375 139.128906,8.484375 L140.212891,8.484375 C140.441406,9.27539062 141.080078,9.75585938 141.912109,9.75585938 C143.289062,9.75585938 144.068359,8.53710938 144.126953,6.28710938 L144.033203,6.28710938 C143.617188,7.10742188 142.791016,7.58789062 141.783203,7.58789062 C140.171875,7.58789062 139.005859,6.3984375 139.005859,4.7578125 C139.005859,3.05859375 140.236328,1.84570312 141.970703,1.84570312 C143.236328,1.84570312 144.214844,2.51953125 144.742188,3.76757812 C145.017578,4.41210938 145.152344,5.19140625 145.152344,6.12304688 C145.152344,9.02929688 143.96875,10.6933594 141.900391,10.6933594 Z M141.970703,6.67382812 C143.089844,6.67382812 143.892578,5.87695312 143.892578,4.7578125 C143.892578,3.62695312 143.066406,2.77148438 141.982422,2.77148438 C140.898438,2.77148438 140.072266,3.61523438 140.072266,4.72265625 C140.072266,5.87695312 140.851562,6.67382812 141.970703,6.67382812 Z M147.683594,9.53320312 C148.105469,9.53320312 148.445312,9.1875 148.445312,8.77148438 C148.445312,8.34960938 148.105469,8.00976562 147.683594,8.00976562 C147.267578,8.00976562 146.921875,8.34960938 146.921875,8.77148438 C146.921875,9.1875 147.267578,9.53320312 147.683594,9.53320312 Z M147.683594,5.02734375 C148.105469,5.02734375 148.445312,4.68164062 148.445312,4.265625 C148.445312,3.84375 148.105469,3.50390625 147.683594,3.50390625 C147.267578,3.50390625 146.921875,3.84375 146.921875,4.265625 C146.921875,4.68164062 147.267578,5.02734375 147.683594,5.02734375 Z M154.269531,10.5 L154.269531,8.74804688 L150.150391,8.74804688 L150.150391,7.78710938 C150.90625,6.4453125 152.248047,4.32421875 153.771484,2.04492188 L155.300781,2.04492188 L155.300781,7.8046875 L156.501953,7.8046875 L156.501953,8.74804688 L155.300781,8.74804688 L155.300781,10.5 L154.269531,10.5 Z M151.228516,7.74023438 L151.228516,7.81054688 L154.275391,7.81054688 L154.275391,3.0234375 L154.205078,3.0234375 C153.337891,4.28320312 152.236328,6.02929688 151.228516,7.74023438 Z M160.152344,10.5 L161.207031,10.5 L161.207031,2.04492188 L160.158203,2.04492188 L157.908203,3.66210938 L157.908203,4.77539062 L160.058594,3.21679688 L160.152344,3.21679688 L160.152344,10.5 Z M172.744141,10.5 L171.894531,8.08007812 L168.53125,8.08007812 L167.681641,10.5 L166.574219,10.5 L169.691406,2.04492188 L170.734375,2.04492188 L173.851562,10.5 L172.744141,10.5 Z M170.166016,3.41015625 L168.841797,7.18359375 L171.583984,7.18359375 L170.259766,3.41015625 L170.166016,3.41015625 Z M176.318359,10.5 L176.318359,4.04296875 L176.388672,4.04296875 L179.054688,10.4414062 L179.945312,10.4414062 L182.611328,4.04296875 L182.681641,4.04296875 L182.681641,10.5 L183.666016,10.5 L183.666016,2.04492188 L182.441406,2.04492188 L179.546875,9.04101562 L179.453125,9.04101562 L176.558594,2.04492188 L175.333984,2.04492188 L175.333984,10.5 L176.318359,10.5 Z" id="9:41-AM" fill="#FFFFFF"></path>
                                            <g id="Pin-Right" transform="translate(251.000000, 0.000000)" fill="#DBDBDB">
                                                <path d="M34.4937128,0.5 L54.0062872,0.5 C54.8266197,0.5 55.5,1.17394722 55.5,2.00530324 L55.5,8.49469676 C55.5,9.33197845 54.831242,10 54.0062872,10 L34.4937128,10 C33.6733803,10 33,9.32605278 33,8.49469676 L33,2.00530324 C33,1.16802155 33.668758,0.5 34.4937128,0.5 Z M56,3.5 L56.75,3.5 C57.1671014,3.5 57.5,3.83232111 57.5,4.24225998 L57.5,6.25774002 C57.5,6.66440529 57.1642136,7 56.75,7 L56,7 L56,3.5 Z M34.5081524,1 C33.9513652,1 33.5,1.45699692 33.5,2.00844055 L33.5,8.49155945 C33.5,9.04850578 33.9490581,9.5 34.5081524,9.5 L53.9918476,9.5 C54.5486348,9.5 55,9.04300308 55,8.49155945 L55,2.00844055 C55,1.45149422 54.5509419,1 53.9918476,1 L34.5081524,1 Z M34.5067444,1.5 L53.9932556,1.5 C54.2697754,1.5 54.5,1.72031886 54.5,1.99209595 L54.5,8.50790405 C54.5,8.78362799 54.2731228,9 53.9932556,9 L34.5067444,9 C34.2302246,9 34,8.77968114 34,8.50790405 L34,1.99209595 C34,1.71637201 34.2268772,1.5 34.5067444,1.5 Z" id="Battery"></path>
                                            </g>
                                            <g id="Signal" fill="#DBDBDB">
                                                <path d="M3.25,8 C1.73121694,8 0.5,6.76878306 0.5,5.25 C0.5,3.73121694 1.73121694,2.5 3.25,2.5 C4.76878306,2.5 6,3.73121694 6,5.25 C6,6.76878306 4.76878306,8 3.25,8 Z M10.25,8 C8.73121694,8 7.5,6.76878306 7.5,5.25 C7.5,3.73121694 8.73121694,2.5 10.25,2.5 C11.7687831,2.5 13,3.73121694 13,5.25 C13,6.76878306 11.7687831,8 10.25,8 Z M17.25,8 C15.7312169,8 14.5,6.76878306 14.5,5.25 C14.5,3.73121694 15.7312169,2.5 17.25,2.5 C18.7687831,2.5 20,3.73121694 20,5.25 C20,6.76878306 18.7687831,8 17.25,8 Z M24.25,8 C22.7312169,8 21.5,6.76878306 21.5,5.25 C21.5,3.73121694 22.7312169,2.5 24.25,2.5 C25.7687831,2.5 27,3.73121694 27,5.25 C27,6.76878306 25.7687831,8 24.25,8 Z M31.25,8 C29.7312169,8 28.5,6.76878306 28.5,5.25 C28.5,3.73121694 29.7312169,2.5 31.25,2.5 C32.7687831,2.5 34,3.73121694 34,5.25 C34,6.76878306 32.7687831,8 31.25,8 Z" id="Mobile-Signal"></path>
                                            </g>
                                        </g>
                                    </g>
                                    <rect id="Rectangle-8-Copy" fill="#DBDBDB" x="52.433518" y="43.2507278" width="132" height="6" rx="3"></rect>
                                </g>
                            </g>
                        </g>
                        <g id="Announcement-Ticker-SIngle-Content" transform="translate(16.000000, 84.682088)">
                            <g id="Rectangle">
                                <use fill="#FFFFFF" fill-rule="evenodd" xlink:href="#path-5"></use>
                                <rect stroke="#D3F0D4" stroke-width="1" x="-0.5" y="-0.5" width="289" height="57" rx="4"></rect>
                            </g>
                            <g id="icon_right_grey-copy" transform="translate(269.000000, 8.000000)" fill="#87D58B" fill-rule="nonzero">
                                <path d="M5.49989323,6.67868155 L0.751343827,11.8587015 C0.579513153,12.0461453 0.30092664,12.0461387 0.129103436,11.8586867 C-0.0427197677,11.6712347 -0.0427137114,11.3673216 0.129116963,11.1798778 L4.87765284,5.99987262 L0.1291102,0.819634862 C-0.0427167397,0.632186951 -0.0427167397,0.32827384 0.1291102,0.140825929 C0.300937139,-0.0466219826 0.579523652,-0.0466219826 0.751350591,0.140825929 L5.49990676,5.32107844 L10.2488962,0.140578555 C10.4207268,-0.0468652811 10.6993134,-0.0468586742 10.8711366,0.140593312 C11.0429598,0.328045298 11.0429537,0.63195841 10.871123,0.819402246 L6.12214715,5.99988738 L10.8711298,11.1806051 C11.0429567,11.368053 11.0429567,11.6719662 10.8711298,11.8594141 C10.6993029,12.046862 10.4207163,12.046862 10.2488894,11.8594141 L5.49989323,6.67868155 Z" id="Combined-Shape"></path>
                            </g>
                            <path d="M2,0 L2,56 L2,56 C0.8954305,56 1.3527075e-16,55.1045695 0,54 L0,2 C-1.3527075e-16,0.8954305 0.8954305,2.02906125e-16 2,0 Z" id="Rectangle" fill="#ADE3AF"></path>
                        </g>
                    </g>
                    <g id="Group" transform="translate(27.813378, 99.430347)">
                        <path d="M3.52880859,9 L2.42236328,9 L2.42236328,2.68896484 L0.247070312,2.68896484 L0.247070312,1.66845703 L5.70410156,1.66845703 L5.70410156,2.68896484 L3.52880859,2.68896484 L3.52880859,9 Z M11.5102539,3.328125 C11.5102539,3.328125 9.55517578,8.90332031 9.54443359,8.93554688 L9.39941406,9.32763672 C9.06640625,10.2568359 8.62597656,11.0463867 7.35839844,11.0463867 C7.11669922,11.0463867 6.85888672,11.0195312 6.71386719,10.9926758 L6.71386719,10.1064453 C6.80517578,10.1279297 7.00927734,10.1386719 7.14892578,10.1386719 C7.83105469,10.1386719 8.09423828,9.83251953 8.23388672,9.30078125 L8.30908203,9.04833984 L6.26269531,3.328125 L7.46044922,3.328125 L8.88378906,7.93115234 L8.93212891,7.93115234 L10.3608398,3.328125 L11.5102539,3.328125 Z M15.5761719,9.08056641 C14.6577148,9.08056641 14.1689453,8.64550781 13.9541016,8.14599609 L13.9003906,8.14599609 L13.9003906,10.9335938 L12.8154297,10.9335938 L12.8154297,3.32275391 L13.8681641,3.32275391 L13.8681641,4.22509766 L13.921875,4.22509766 C14.1206055,3.69873047 14.6845703,3.24755859 15.6083984,3.24755859 C16.902832,3.24755859 17.7568359,4.15527344 17.7568359,5.71826172 L17.7568359,6.60449219 C17.7568359,8.17822266 16.8920898,9.08056641 15.5761719,9.08056641 Z M15.3076172,8.11914062 C16.1025391,8.11914062 16.6611328,7.58740234 16.6611328,6.44335938 L16.6611328,5.89013672 C16.6611328,4.78369141 16.1347656,4.20898438 15.2861328,4.20898438 C14.4213867,4.20898438 13.9003906,4.79980469 13.9003906,5.77197266 L13.9003906,6.64746094 C13.9003906,7.52294922 14.4643555,8.11914062 15.3076172,8.11914062 Z M21.543457,9.09667969 C20.0073242,9.09667969 19.078125,8.14599609 19.078125,6.55078125 L19.078125,5.77197266 C19.078125,4.17138672 20.0986328,3.23144531 21.4682617,3.23144531 C22.8647461,3.23144531 23.8583984,4.21435547 23.8583984,5.77197266 L23.8583984,6.44335938 L20.1523437,6.44335938 L20.1523437,6.72265625 C20.1523437,7.54443359 20.6464844,8.15673828 21.5327148,8.15673828 C22.1772461,8.15673828 22.6123047,7.85595703 22.7036133,7.50683594 L23.7885742,7.50683594 C23.7080078,8.15673828 23.0205078,9.09667969 21.543457,9.09667969 Z M20.1523438,5.67529297 L22.7895508,5.67529297 L22.7895508,5.59472656 C22.7895508,4.72998047 22.2685547,4.15527344 21.4736328,4.15527344 C20.6787109,4.15527344 20.1523438,4.72998047 20.1523438,5.59472656 L20.1523438,5.67529297 Z M28.015625,9 L28.015625,3.328125 L29.1005859,3.328125 L29.1005859,9 L28.015625,9 Z M27.8168945,1.61474609 C27.8168945,1.19580078 28.1230469,0.895019531 28.5527344,0.895019531 C28.9985352,0.895019531 29.3046875,1.19580078 29.3046875,1.61474609 C29.3046875,2.02832031 28.9985352,2.32910156 28.5527344,2.32910156 C28.128418,2.32910156 27.8168945,2.02832031 27.8168945,1.61474609 Z M31.0771484,9 L31.0771484,3.328125 L32.1513672,3.328125 L32.1513672,4.34326172 L32.2050781,4.34326172 C32.3500977,3.90283203 32.7475586,3.2421875 33.9130859,3.2421875 C35.0571289,3.2421875 35.8305664,3.87060547 35.8305664,5.15966797 L35.8305664,9 L34.7456055,9 L34.7456055,5.50341797 C34.7456055,4.63867188 34.2890625,4.23583984 33.574707,4.23583984 C32.6347656,4.23583984 32.1621094,4.92333984 32.1621094,5.84716797 L32.1621094,9 L31.0771484,9 Z M38.1401367,9 L38.1401367,4.27880859 L37.1948242,4.27880859 L37.1948242,3.36035156 L38.1401367,3.36035156 L38.1401367,2.79638672 C38.1401367,1.68457031 38.671875,1.20117188 39.9609375,1.20117188 C40.2563477,1.20117188 40.5463867,1.22802734 40.6430664,1.23876953 L40.6430664,2.11962891 C40.5625,2.10888672 40.2939453,2.09277344 40.1328125,2.09277344 C39.4882812,2.09277344 39.2089844,2.28076172 39.2089844,2.88769531 L39.2089844,3.36035156 L40.5141602,3.36035156 L40.5141602,4.27880859 L39.2250977,4.27880859 L39.2250977,9 L38.1401367,9 Z M44.230957,3.23144531 C45.6757812,3.23144531 46.7124023,4.1875 46.7124023,5.78271484 L46.7124023,6.52929688 C46.7124023,8.16748047 45.6757812,9.09667969 44.230957,9.09667969 C42.7646484,9.09667969 41.7441406,8.17822266 41.7441406,6.52929688 L41.7441406,5.78271484 C41.7441406,4.23583984 42.7807617,3.23144531 44.230957,3.23144531 Z M44.2363281,4.17675781 C43.3608398,4.17675781 42.8344727,4.88574219 42.8344727,5.84179688 L42.8344727,6.48632812 C42.8344727,7.44775391 43.3232422,8.15136719 44.2363281,8.15136719 C45.1386719,8.15136719 45.6220703,7.453125 45.6220703,6.48632812 L45.6220703,5.84179688 C45.6220703,4.88574219 45.1118164,4.17675781 44.2363281,4.17675781 Z M48.3720703,9 L48.3720703,3.328125 L49.4570312,3.328125 L49.4570312,4.20898438 L49.5107422,4.20898438 C49.6450195,3.82763672 50.0585938,3.2421875 51.0307617,3.2421875 C51.1704102,3.2421875 51.2993164,3.25830078 51.4067383,3.27441406 L51.4067383,4.30566406 C51.3100586,4.27880859 51.1113281,4.26806641 50.9233398,4.26806641 C49.9511719,4.26806641 49.4731445,4.84277344 49.4731445,5.60546875 L49.4731445,9 L48.3720703,9 Z M52.6635742,9 L52.6635742,3.328125 L53.737793,3.328125 L53.737793,4.24658203 L53.7915039,4.24658203 C53.9204102,3.83837891 54.2910156,3.2421875 55.3276367,3.2421875 C56.1870117,3.2421875 56.71875,3.69873047 56.8959961,4.30566406 L56.9443359,4.30566406 C57.1645508,3.76318359 57.7070312,3.2421875 58.668457,3.2421875 C59.8232422,3.2421875 60.5214844,3.89746094 60.5214844,5.02539062 L60.5214844,9 L59.4365234,9 L59.4365234,5.36376953 C59.4365234,4.64404297 59.0336914,4.21972656 58.3139648,4.21972656 C57.6425781,4.21972656 57.1269531,4.71386719 57.1269531,5.47119141 L57.1269531,9 L56.0634766,9 L56.0634766,5.39599609 C56.0634766,4.66015625 55.6123047,4.21972656 54.9194336,4.21972656 C54.2426758,4.21972656 53.7485352,4.69775391 53.7485352,5.46044922 L53.7485352,9 L52.6635742,9 Z M63.8891602,9.09130859 C62.793457,9.09130859 62.0361328,8.40917969 62.0361328,7.35107422 C62.0361328,6.35205078 62.7290039,5.67529297 64.0341797,5.67529297 L65.4897461,5.67529297 L65.4897461,5.13818359 C65.4897461,4.47753906 65.0546875,4.17138672 64.3671875,4.17138672 C63.6850586,4.17138672 63.3896484,4.43994141 63.2875977,4.81591797 L62.2509766,4.81591797 C62.3261719,3.87060547 63.0620117,3.2421875 64.3994141,3.2421875 C65.5917969,3.2421875 66.574707,3.74169922 66.574707,5.15429688 L66.574707,9 L65.5380859,9 L65.5380859,8.26416016 L65.4897461,8.26416016 C65.2265625,8.69921875 64.7270508,9.09130859 63.8891602,9.09130859 Z M64.2114258,8.17822266 C64.9311523,8.17822266 65.4897461,7.7109375 65.4897461,7.07714844 L65.4897461,6.46484375 L64.168457,6.46484375 C63.4433594,6.46484375 63.1318359,6.81933594 63.1318359,7.29199219 C63.1318359,7.89355469 63.6474609,8.17822266 64.2114258,8.17822266 Z M68.7392578,3.36035156 L68.7392578,1.94238281 L69.8081055,1.94238281 L69.8081055,3.36035156 L71.0810547,3.36035156 L71.0810547,4.27880859 L69.8081055,4.27880859 L69.8081055,7.31884766 C69.8081055,7.94189453 70.0336914,8.11376953 70.6943359,8.11376953 C70.8447266,8.11376953 71.0595703,8.10302734 71.1508789,8.09228516 L71.1508789,8.98925781 C71.0649414,9.01074219 70.6674805,9.04296875 70.4257812,9.04296875 C69.0615234,9.04296875 68.7285156,8.54345703 68.7285156,7.40478516 L68.7285156,4.27880859 L67.8637695,4.27880859 L67.8637695,3.36035156 L68.7392578,3.36035156 Z M72.7407227,9 L72.7407227,3.328125 L73.8256836,3.328125 L73.8256836,9 L72.7407227,9 Z M72.5419922,1.61474609 C72.5419922,1.19580078 72.8481445,0.895019531 73.277832,0.895019531 C73.7236328,0.895019531 74.0297852,1.19580078 74.0297852,1.61474609 C74.0297852,2.02832031 73.7236328,2.32910156 73.277832,2.32910156 C72.8535156,2.32910156 72.5419922,2.02832031 72.5419922,1.61474609 Z M78.0205078,3.23144531 C79.465332,3.23144531 80.5019531,4.1875 80.5019531,5.78271484 L80.5019531,6.52929688 C80.5019531,8.16748047 79.465332,9.09667969 78.0205078,9.09667969 C76.5541992,9.09667969 75.5336914,8.17822266 75.5336914,6.52929688 L75.5336914,5.78271484 C75.5336914,4.23583984 76.5703125,3.23144531 78.0205078,3.23144531 Z M78.0258789,4.17675781 C77.1503906,4.17675781 76.6240234,4.88574219 76.6240234,5.84179688 L76.6240234,6.48632812 C76.6240234,7.44775391 77.112793,8.15136719 78.0258789,8.15136719 C78.9282227,8.15136719 79.4116211,7.453125 79.4116211,6.48632812 L79.4116211,5.84179688 C79.4116211,4.88574219 78.9013672,4.17675781 78.0258789,4.17675781 Z M82.0810547,9 L82.0810547,3.328125 L83.1552734,3.328125 L83.1552734,4.34326172 L83.2089844,4.34326172 C83.3540039,3.90283203 83.7514648,3.2421875 84.9169922,3.2421875 C86.0610352,3.2421875 86.8344727,3.87060547 86.8344727,5.15966797 L86.8344727,9 L85.7495117,9 L85.7495117,5.50341797 C85.7495117,4.63867188 85.2929688,4.23583984 84.5786133,4.23583984 C83.6386719,4.23583984 83.1660156,4.92333984 83.1660156,5.84716797 L83.1660156,9 L82.0810547,9 Z M98.2211914,3.328125 L96.7226562,9 L95.6323242,9 L94.4023437,4.79443359 L94.3701172,4.79443359 L93.1723633,9 L92.0712891,9 L90.5029297,3.328125 L91.6845703,3.328125 L92.640625,7.66796875 L92.6835937,7.66796875 L93.8759766,3.328125 L94.8964844,3.328125 L96.1157227,7.66796875 L96.1640625,7.66796875 L97.1362305,3.328125 L98.2211914,3.328125 Z M99.5639648,9 L99.5639648,3.328125 L100.648926,3.328125 L100.648926,9 L99.5639648,9 Z M99.3652344,1.61474609 C99.3652344,1.19580078 99.6713867,0.895019531 100.101074,0.895019531 C100.546875,0.895019531 100.853027,1.19580078 100.853027,1.61474609 C100.853027,2.02832031 100.546875,2.32910156 100.101074,2.32910156 C99.6767578,2.32910156 99.3652344,2.02832031 99.3652344,1.61474609 Z M102.974609,3.36035156 L102.974609,1.94238281 L104.043457,1.94238281 L104.043457,3.36035156 L105.316406,3.36035156 L105.316406,4.27880859 L104.043457,4.27880859 L104.043457,7.31884766 C104.043457,7.94189453 104.269043,8.11376953 104.929687,8.11376953 C105.080078,8.11376953 105.294922,8.10302734 105.38623,8.09228516 L105.38623,8.98925781 C105.300293,9.01074219 104.902832,9.04296875 104.661133,9.04296875 C103.296875,9.04296875 102.963867,8.54345703 102.963867,7.40478516 L102.963867,4.27880859 L102.099121,4.27880859 L102.099121,3.36035156 L102.974609,3.36035156 Z M106.868652,9 L106.868652,1.12060547 L107.948242,1.12060547 L107.948242,4.34326172 L108.007324,4.34326172 C108.120117,3.94580078 108.582031,3.2421875 109.742188,3.2421875 C110.837891,3.2421875 111.638184,3.87597656 111.638184,5.17041016 L111.638184,9 L110.553223,9 L110.553223,5.51416016 C110.553223,4.64404297 110.069824,4.23583984 109.355469,4.23583984 C108.447754,4.23583984 107.948242,4.91796875 107.948242,5.84716797 L107.948242,9 L106.868652,9 Z M117.476562,9.09130859 C116.380859,9.09130859 115.623535,8.40917969 115.623535,7.35107422 C115.623535,6.35205078 116.316406,5.67529297 117.621582,5.67529297 L119.077148,5.67529297 L119.077148,5.13818359 C119.077148,4.47753906 118.64209,4.17138672 117.95459,4.17138672 C117.272461,4.17138672 116.977051,4.43994141 116.875,4.81591797 L115.838379,4.81591797 C115.913574,3.87060547 116.649414,3.2421875 117.986816,3.2421875 C119.179199,3.2421875 120.162109,3.74169922 120.162109,5.15429688 L120.162109,9 L119.125488,9 L119.125488,8.26416016 L119.077148,8.26416016 C118.813965,8.69921875 118.314453,9.09130859 117.476562,9.09130859 Z M117.798828,8.17822266 C118.518555,8.17822266 119.077148,7.7109375 119.077148,7.07714844 L119.077148,6.46484375 L117.755859,6.46484375 C117.030762,6.46484375 116.719238,6.81933594 116.719238,7.29199219 C116.719238,7.89355469 117.234863,8.17822266 117.798828,8.17822266 Z M124.743652,9.08056641 C123.825195,9.08056641 123.336426,8.64550781 123.121582,8.14599609 L123.067871,8.14599609 L123.067871,10.9335938 L121.98291,10.9335938 L121.98291,3.32275391 L123.035645,3.32275391 L123.035645,4.22509766 L123.089355,4.22509766 C123.288086,3.69873047 123.852051,3.24755859 124.775879,3.24755859 C126.070312,3.24755859 126.924316,4.15527344 126.924316,5.71826172 L126.924316,6.60449219 C126.924316,8.17822266 126.05957,9.08056641 124.743652,9.08056641 Z M124.475098,8.11914062 C125.27002,8.11914062 125.828613,7.58740234 125.828613,6.44335938 L125.828613,5.89013672 C125.828613,4.78369141 125.302246,4.20898438 124.453613,4.20898438 C123.588867,4.20898438 123.067871,4.79980469 123.067871,5.77197266 L123.067871,6.64746094 C123.067871,7.52294922 123.631836,8.11914062 124.475098,8.11914062 Z M131.280273,9.08056641 C130.361816,9.08056641 129.873047,8.64550781 129.658203,8.14599609 L129.604492,8.14599609 L129.604492,10.9335938 L128.519531,10.9335938 L128.519531,3.32275391 L129.572266,3.32275391 L129.572266,4.22509766 L129.625977,4.22509766 C129.824707,3.69873047 130.388672,3.24755859 131.3125,3.24755859 C132.606934,3.24755859 133.460937,4.15527344 133.460937,5.71826172 L133.460937,6.60449219 C133.460937,8.17822266 132.596191,9.08056641 131.280273,9.08056641 Z M131.011719,8.11914062 C131.806641,8.11914062 132.365234,7.58740234 132.365234,6.44335938 L132.365234,5.89013672 C132.365234,4.78369141 131.838867,4.20898438 130.990234,4.20898438 C130.125488,4.20898438 129.604492,4.79980469 129.604492,5.77197266 L129.604492,6.64746094 C129.604492,7.52294922 130.168457,8.11914062 131.011719,8.11914062 Z M135.131348,9 L135.131348,3.328125 L136.216309,3.328125 L136.216309,4.20898438 L136.27002,4.20898438 C136.404297,3.82763672 136.817871,3.2421875 137.790039,3.2421875 C137.929688,3.2421875 138.058594,3.25830078 138.166016,3.27441406 L138.166016,4.30566406 C138.069336,4.27880859 137.870605,4.26806641 137.682617,4.26806641 C136.710449,4.26806641 136.232422,4.84277344 136.232422,5.60546875 L136.232422,9 L135.131348,9 Z M141.641113,3.23144531 C143.085938,3.23144531 144.122559,4.1875 144.122559,5.78271484 L144.122559,6.52929688 C144.122559,8.16748047 143.085938,9.09667969 141.641113,9.09667969 C140.174805,9.09667969 139.154297,8.17822266 139.154297,6.52929688 L139.154297,5.78271484 C139.154297,4.23583984 140.190918,3.23144531 141.641113,3.23144531 Z M141.646484,4.17675781 C140.770996,4.17675781 140.244629,4.88574219 140.244629,5.84179688 L140.244629,6.48632812 C140.244629,7.44775391 140.733398,8.15136719 141.646484,8.15136719 C142.548828,8.15136719 143.032227,7.453125 143.032227,6.48632812 L143.032227,5.84179688 C143.032227,4.88574219 142.521973,4.17675781 141.646484,4.17675781 Z M148.961914,9 L147.688965,6.98046875 L147.651367,6.98046875 L146.378418,9 L145.186035,9 L147.039062,6.19091797 L145.153809,3.328125 L146.4375,3.328125 L147.672852,5.34228516 L147.721191,5.34228516 L148.994141,3.328125 L150.213379,3.328125 L148.312012,6.11572266 L150.21875,9 L148.961914,9 Z M151.421875,8.28027344 C151.421875,7.78076172 151.787109,7.44238281 152.23291,7.44238281 C152.700195,7.44238281 153.060059,7.78076172 153.060059,8.28027344 C153.060059,8.76367188 152.700195,9.09667969 152.23291,9.09667969 C151.787109,9.09667969 151.421875,8.76367188 151.421875,8.28027344 Z M159.677246,8.23193359 C160.57959,8.23193359 161.261719,7.70556641 161.261719,6.92675781 C161.261719,6.14794922 160.57959,5.61621094 159.677246,5.61621094 C158.780273,5.61621094 158.098145,6.14794922 158.098145,6.92675781 C158.098145,7.70556641 158.780273,8.23193359 159.677246,8.23193359 Z M159.677246,4.74072266 C160.439941,4.74072266 160.993164,4.26269531 160.993164,3.58056641 C160.993164,2.90380859 160.439941,2.44726562 159.677246,2.44726562 C158.919922,2.44726562 158.361328,2.90380859 158.361328,3.58056641 C158.361328,4.26269531 158.919922,4.74072266 159.677246,4.74072266 Z M159.655762,9.15039062 C158.087402,9.15039062 157.007812,8.26953125 157.007812,6.99658203 C157.007812,5.83642578 157.87793,5.29931641 158.506348,5.15966797 L158.506348,5.10058594 C157.958496,4.92333984 157.297852,4.42382812 157.297852,3.47314453 C157.297852,2.34521484 158.286133,1.5234375 159.677246,1.5234375 C161.07373,1.5234375 162.062012,2.34521484 162.062012,3.47314453 C162.062012,4.43994141 161.369141,4.92871094 160.848145,5.10058594 L160.848145,5.15966797 C161.481934,5.29931641 162.341309,5.84179688 162.341309,6.98583984 C162.341309,8.26416016 161.234863,9.15039062 159.655762,9.15039062 Z M164.822754,5.19726562 L164.822754,5.4765625 C164.822754,7.17382812 165.435059,8.15136719 166.385742,8.15136719 C167.336426,8.15136719 167.94873,7.17382812 167.94873,5.4765625 L167.94873,5.19726562 C167.94873,3.5 167.336426,2.52246094 166.385742,2.52246094 C165.435059,2.52246094 164.822754,3.49462891 164.822754,5.19726562 Z M163.72168,5.48730469 L163.72168,5.19189453 C163.72168,2.99511719 164.693848,1.5234375 166.396484,1.5234375 C168.09375,1.5234375 169.044434,2.98974609 169.044434,5.19189453 L169.044434,5.48730469 C169.044434,7.63037109 168.109863,9.15039062 166.380371,9.15039062 C164.683105,9.15039062 163.72168,7.67871094 163.72168,5.48730469 Z M174.055664,4.86425781 L174.055664,5.84179688 C174.055664,7.39404297 174.786133,8.11914062 175.90332,8.11914062 C176.993652,8.11914062 177.557617,7.43701172 177.557617,6.64746094 L178.637207,6.64746094 L178.637207,6.72802734 C178.637207,7.88818359 177.740234,9.15039062 175.865723,9.15039062 C174.061035,9.15039062 172.938477,7.97949219 172.938477,5.84716797 L172.938477,4.85351562 C172.938477,2.75341797 174.08252,1.5234375 175.876465,1.5234375 C177.675781,1.5234375 178.637207,2.75878906 178.637207,4.04248047 L178.637207,4.12304688 L177.557617,4.12304688 C177.557617,3.33886719 176.972168,2.54931641 175.881836,2.54931641 C174.791504,2.54931641 174.055664,3.33349609 174.055664,4.86425781 Z M185.979492,9 L184.873047,9 L184.873047,5.73974609 L181.381836,5.73974609 L181.381836,9 L180.275391,9 L180.275391,1.66845703 L181.381836,1.66845703 L181.381836,4.71923828 L184.873047,4.71923828 L184.873047,1.66845703 L185.979492,1.66845703 L185.979492,9 Z M188.353516,9 L187.236328,9 L189.792969,1.66845703 L190.990723,1.66845703 L193.541992,9 L192.360352,9 L191.672852,6.95361328 L189.041016,6.95361328 L188.353516,9 Z M190.383789,2.91992188 L190.34082,2.91992188 L189.30957,6.04052734 L191.415039,6.04052734 L190.383789,2.91992188 Z M197.538086,1.66845703 C199.203125,1.66845703 199.960449,2.69970703 199.960449,3.91894531 C199.960449,5.12744141 199.224609,5.74511719 198.606934,5.97070312 L200.094727,9 L198.843262,9 L197.51123,6.17480469 L195.894531,6.17480469 L195.894531,9 L194.793457,9 L194.793457,1.66845703 L197.538086,1.66845703 Z M195.894531,5.21875 L197.350098,5.21875 C198.306152,5.21875 198.821777,4.77294922 198.821777,3.96191406 C198.821777,3.09179688 198.24707,2.64599609 197.387695,2.64599609 L195.894531,2.64599609 L195.894531,5.21875 Z M202.071289,9 L200.954102,9 L203.510742,1.66845703 L204.708496,1.66845703 L207.259766,9 L206.078125,9 L205.390625,6.95361328 L202.758789,6.95361328 L202.071289,9 Z M204.101562,2.91992188 L204.058594,2.91992188 L203.027344,6.04052734 L205.132812,6.04052734 L204.101562,2.91992188 Z M209.338379,4.86425781 L209.338379,5.84179688 C209.338379,7.39404297 210.068848,8.11914062 211.186035,8.11914062 C212.276367,8.11914062 212.840332,7.43701172 212.840332,6.64746094 L213.919922,6.64746094 L213.919922,6.72802734 C213.919922,7.88818359 213.022949,9.15039062 211.148438,9.15039062 C209.34375,9.15039062 208.221191,7.97949219 208.221191,5.84716797 L208.221191,4.85351562 C208.221191,2.75341797 209.365234,1.5234375 211.15918,1.5234375 C212.958496,1.5234375 213.919922,2.75878906 213.919922,4.04248047 L213.919922,4.12304688 L212.840332,4.12304688 C212.840332,3.33886719 212.254883,2.54931641 211.164551,2.54931641 C210.074219,2.54931641 209.338379,3.33349609 209.338379,4.86425781 Z M218.098633,9 L216.992188,9 L216.992188,2.68896484 L214.816895,2.68896484 L214.816895,1.66845703 L220.273926,1.66845703 L220.273926,2.68896484 L218.098633,2.68896484 L218.098633,9 Z M226.015625,7.99023438 L226.015625,9 L221.509277,9 L221.509277,1.66845703 L226.015625,1.66845703 L226.015625,2.67822266 L222.610352,2.67822266 L222.610352,4.7890625 L225.822266,4.7890625 L225.822266,5.75585938 L222.610352,5.75585938 L222.610352,7.99023438 L226.015625,7.99023438 Z M230.489746,1.66845703 C232.154785,1.66845703 232.912109,2.69970703 232.912109,3.91894531 C232.912109,5.12744141 232.17627,5.74511719 231.558594,5.97070312 L233.046387,9 L231.794922,9 L230.462891,6.17480469 L228.846191,6.17480469 L228.846191,9 L227.745117,9 L227.745117,1.66845703 L230.489746,1.66845703 Z M228.846191,5.21875 L230.301758,5.21875 C231.257812,5.21875 231.773437,4.77294922 231.773437,3.96191406 C231.773437,3.09179688 231.19873,2.64599609 230.339355,2.64599609 L228.846191,2.64599609 L228.846191,5.21875 Z M234.706055,10.949707 L233.857422,10.949707 L234.544922,7.82373047 L235.731934,7.82373047 L234.706055,10.949707 Z M1.41259766,24 L1.41259766,19.2788086 L0.467285156,19.2788086 L0.467285156,18.3603516 L1.41259766,18.3603516 L1.41259766,17.7963867 C1.41259766,16.6845703 1.94433594,16.2011719 3.23339844,16.2011719 C3.52880859,16.2011719 3.81884766,16.2280273 3.91552734,16.2387695 L3.91552734,17.1196289 C3.83496094,17.1088867 3.56640625,17.0927734 3.40527344,17.0927734 C2.76074219,17.0927734 2.48144531,17.2807617 2.48144531,17.8876953 L2.48144531,18.3603516 L3.78662109,18.3603516 L3.78662109,19.2788086 L2.49755859,19.2788086 L2.49755859,24 L1.41259766,24 Z M7.50341797,18.2314453 C8.94824219,18.2314453 9.98486328,19.1875 9.98486328,20.7827148 L9.98486328,21.5292969 C9.98486328,23.1674805 8.94824219,24.0966797 7.50341797,24.0966797 C6.03710938,24.0966797 5.01660156,23.1782227 5.01660156,21.5292969 L5.01660156,20.7827148 C5.01660156,19.2358398 6.05322266,18.2314453 7.50341797,18.2314453 Z M7.50878906,19.1767578 C6.63330078,19.1767578 6.10693359,19.8857422 6.10693359,20.8417969 L6.10693359,21.4863281 C6.10693359,22.4477539 6.59570312,23.1513672 7.50878906,23.1513672 C8.41113281,23.1513672 8.89453125,22.453125 8.89453125,21.4863281 L8.89453125,20.8417969 C8.89453125,19.8857422 8.38427734,19.1767578 7.50878906,19.1767578 Z M11.6445312,24 L11.6445312,18.328125 L12.7294922,18.328125 L12.7294922,19.2089844 L12.7832031,19.2089844 C12.9174805,18.8276367 13.3310547,18.2421875 14.3032227,18.2421875 C14.4428711,18.2421875 14.5717773,18.2583008 14.6791992,18.2744141 L14.6791992,19.3056641 C14.5825195,19.2788086 14.3837891,19.2680664 14.1958008,19.2680664 C13.2236328,19.2680664 12.7456055,19.8427734 12.7456055,20.6054688 L12.7456055,24 L11.6445312,24 Z M18.4121094,24 L18.4121094,18.328125 L19.4863281,18.328125 L19.4863281,19.246582 L19.5400391,19.246582 C19.6689453,18.8383789 20.0395508,18.2421875 21.0761719,18.2421875 C21.9355469,18.2421875 22.4672852,18.6987305 22.6445312,19.3056641 L22.6928711,19.3056641 C22.9130859,18.7631836 23.4555664,18.2421875 24.4169922,18.2421875 C25.5717773,18.2421875 26.2700195,18.8974609 26.2700195,20.0253906 L26.2700195,24 L25.1850586,24 L25.1850586,20.3637695 C25.1850586,19.644043 24.7822266,19.2197266 24.0625,19.2197266 C23.3911133,19.2197266 22.8754883,19.7138672 22.8754883,20.4711914 L22.8754883,24 L21.8120117,24 L21.8120117,20.3959961 C21.8120117,19.6601562 21.3608398,19.2197266 20.6679688,19.2197266 C19.9912109,19.2197266 19.4970703,19.6977539 19.4970703,20.4604492 L19.4970703,24 L18.4121094,24 Z M30.3144531,18.2314453 C31.7592773,18.2314453 32.7958984,19.1875 32.7958984,20.7827148 L32.7958984,21.5292969 C32.7958984,23.1674805 31.7592773,24.0966797 30.3144531,24.0966797 C28.8481445,24.0966797 27.8276367,23.1782227 27.8276367,21.5292969 L27.8276367,20.7827148 C27.8276367,19.2358398 28.8642578,18.2314453 30.3144531,18.2314453 Z M30.3198242,19.1767578 C29.4443359,19.1767578 28.9179688,19.8857422 28.9179688,20.8417969 L28.9179688,21.4863281 C28.9179688,22.4477539 29.4067383,23.1513672 30.3198242,23.1513672 C31.222168,23.1513672 31.7055664,22.453125 31.7055664,21.4863281 L31.7055664,20.8417969 C31.7055664,19.8857422 31.1953125,19.1767578 30.3198242,19.1767578 Z M34.4555664,24 L34.4555664,18.328125 L35.5405273,18.328125 L35.5405273,19.2089844 L35.5942383,19.2089844 C35.7285156,18.8276367 36.1420898,18.2421875 37.1142578,18.2421875 C37.2539062,18.2421875 37.3828125,18.2583008 37.4902344,18.2744141 L37.4902344,19.3056641 C37.3935547,19.2788086 37.1948242,19.2680664 37.0068359,19.2680664 C36.034668,19.2680664 35.5566406,19.8427734 35.5566406,20.6054688 L35.5566406,24 L34.4555664,24 Z M40.9438477,24.0966797 C39.4077148,24.0966797 38.4785156,23.1459961 38.4785156,21.5507812 L38.4785156,20.7719727 C38.4785156,19.1713867 39.4990234,18.2314453 40.8686523,18.2314453 C42.2651367,18.2314453 43.2587891,19.2143555 43.2587891,20.7719727 L43.2587891,21.4433594 L39.5527344,21.4433594 L39.5527344,21.7226562 C39.5527344,22.5444336 40.046875,23.1567383 40.9331055,23.1567383 C41.5776367,23.1567383 42.0126953,22.855957 42.1040039,22.5068359 L43.1889648,22.5068359 C43.1083984,23.1567383 42.4208984,24.0966797 40.9438477,24.0966797 Z M39.5527344,20.675293 L42.1899414,20.675293 L42.1899414,20.5947266 C42.1899414,19.7299805 41.6689453,19.1552734 40.8740234,19.1552734 C40.0791016,19.1552734 39.5527344,19.7299805 39.5527344,20.5947266 L39.5527344,20.675293 Z M49.5053711,18.2314453 C50.9501953,18.2314453 51.9868164,19.1875 51.9868164,20.7827148 L51.9868164,21.5292969 C51.9868164,23.1674805 50.9501953,24.0966797 49.5053711,24.0966797 C48.0390625,24.0966797 47.0185547,23.1782227 47.0185547,21.5292969 L47.0185547,20.7827148 C47.0185547,19.2358398 48.0551758,18.2314453 49.5053711,18.2314453 Z M49.5107422,19.1767578 C48.6352539,19.1767578 48.1088867,19.8857422 48.1088867,20.8417969 L48.1088867,21.4863281 C48.1088867,22.4477539 48.5976562,23.1513672 49.5107422,23.1513672 C50.4130859,23.1513672 50.8964844,22.453125 50.8964844,21.4863281 L50.8964844,20.8417969 C50.8964844,19.8857422 50.3862305,19.1767578 49.5107422,19.1767578 Z M53.6464844,24 L53.6464844,18.328125 L54.7314453,18.328125 L54.7314453,19.2089844 L54.7851562,19.2089844 C54.9194336,18.8276367 55.3330078,18.2421875 56.3051758,18.2421875 C56.4448242,18.2421875 56.5737305,18.2583008 56.6811523,18.2744141 L56.6811523,19.3056641 C56.5844727,19.2788086 56.3857422,19.2680664 56.1977539,19.2680664 C55.2255859,19.2680664 54.7475586,19.8427734 54.7475586,20.6054688 L54.7475586,24 L53.6464844,24 Z M61.9555664,24.0913086 C60.8598633,24.0913086 60.1025391,23.4091797 60.1025391,22.3510742 C60.1025391,21.3520508 60.7954102,20.675293 62.1005859,20.675293 L63.5561523,20.675293 L63.5561523,20.1381836 C63.5561523,19.4775391 63.1210938,19.1713867 62.4335938,19.1713867 C61.7514648,19.1713867 61.4560547,19.4399414 61.3540039,19.815918 L60.3173828,19.815918 C60.3925781,18.8706055 61.128418,18.2421875 62.4658203,18.2421875 C63.6582031,18.2421875 64.6411133,18.7416992 64.6411133,20.1542969 L64.6411133,24 L63.6044922,24 L63.6044922,23.2641602 L63.5561523,23.2641602 C63.2929688,23.6992188 62.793457,24.0913086 61.9555664,24.0913086 Z M62.277832,23.1782227 C62.9975586,23.1782227 63.5561523,22.7109375 63.5561523,22.0771484 L63.5561523,21.4648438 L62.2348633,21.4648438 C61.5097656,21.4648438 61.1982422,21.8193359 61.1982422,22.2919922 C61.1982422,22.8935547 61.7138672,23.1782227 62.277832,23.1782227 Z M66.456543,24 L66.456543,18.328125 L67.5307617,18.328125 L67.5307617,19.3432617 L67.5844727,19.3432617 C67.7294922,18.902832 68.1269531,18.2421875 69.2924805,18.2421875 C70.4365234,18.2421875 71.2099609,18.8706055 71.2099609,20.159668 L71.2099609,24 L70.125,24 L70.125,20.503418 C70.125,19.6386719 69.668457,19.2358398 68.9541016,19.2358398 C68.0141602,19.2358398 67.5415039,19.9233398 67.5415039,20.847168 L67.5415039,24 L66.456543,24 Z M75.2490234,18.2314453 C76.6938477,18.2314453 77.7304688,19.1875 77.7304688,20.7827148 L77.7304688,21.5292969 C77.7304688,23.1674805 76.6938477,24.0966797 75.2490234,24.0966797 C73.7827148,24.0966797 72.762207,23.1782227 72.762207,21.5292969 L72.762207,20.7827148 C72.762207,19.2358398 73.7988281,18.2314453 75.2490234,18.2314453 Z M75.2543945,19.1767578 C74.3789062,19.1767578 73.8525391,19.8857422 73.8525391,20.8417969 L73.8525391,21.4863281 C73.8525391,22.4477539 74.3413086,23.1513672 75.2543945,23.1513672 C76.1567383,23.1513672 76.6401367,22.453125 76.6401367,21.4863281 L76.6401367,20.8417969 C76.6401367,19.8857422 76.1298828,19.1767578 75.2543945,19.1767578 Z M79.6586914,18.3603516 L79.6586914,16.9423828 L80.7275391,16.9423828 L80.7275391,18.3603516 L82.0004883,18.3603516 L82.0004883,19.2788086 L80.7275391,19.2788086 L80.7275391,22.3188477 C80.7275391,22.9418945 80.953125,23.1137695 81.6137695,23.1137695 C81.7641602,23.1137695 81.9790039,23.1030273 82.0703125,23.0922852 L82.0703125,23.9892578 C81.984375,24.0107422 81.5869141,24.0429688 81.3452148,24.0429688 C79.980957,24.0429688 79.6479492,23.543457 79.6479492,22.4047852 L79.6479492,19.2788086 L78.7832031,19.2788086 L78.7832031,18.3603516 L79.6586914,18.3603516 Z M83.5527344,24 L83.5527344,16.1206055 L84.6323242,16.1206055 L84.6323242,19.3432617 L84.6914062,19.3432617 C84.8041992,18.9458008 85.2661133,18.2421875 86.4262695,18.2421875 C87.5219727,18.2421875 88.3222656,18.8759766 88.3222656,20.1704102 L88.3222656,24 L87.2373047,24 L87.2373047,20.5141602 C87.2373047,19.644043 86.7539062,19.2358398 86.0395508,19.2358398 C85.1318359,19.2358398 84.6323242,19.9179688 84.6323242,20.847168 L84.6323242,24 L83.5527344,24 Z M92.3398438,24.0966797 C90.8037109,24.0966797 89.8745117,23.1459961 89.8745117,21.5507812 L89.8745117,20.7719727 C89.8745117,19.1713867 90.8950195,18.2314453 92.2646484,18.2314453 C93.6611328,18.2314453 94.6547852,19.2143555 94.6547852,20.7719727 L94.6547852,21.4433594 L90.9487305,21.4433594 L90.9487305,21.7226562 C90.9487305,22.5444336 91.4428711,23.1567383 92.3291016,23.1567383 C92.9736328,23.1567383 93.4086914,22.855957 93.5,22.5068359 L94.5849609,22.5068359 C94.5043945,23.1567383 93.8168945,24.0966797 92.3398438,24.0966797 Z M90.9487305,20.675293 L93.5859375,20.675293 L93.5859375,20.5947266 C93.5859375,19.7299805 93.0649414,19.1552734 92.2700195,19.1552734 C91.4750977,19.1552734 90.9487305,19.7299805 90.9487305,20.5947266 L90.9487305,20.675293 Z M96.2875977,24 L96.2875977,18.328125 L97.3725586,18.328125 L97.3725586,19.2089844 L97.4262695,19.2089844 C97.5605469,18.8276367 97.9741211,18.2421875 98.9462891,18.2421875 C99.0859375,18.2421875 99.2148437,18.2583008 99.3222656,18.2744141 L99.3222656,19.3056641 C99.2255859,19.2788086 99.0268555,19.2680664 98.8388672,19.2680664 C97.8666992,19.2680664 97.3886719,19.8427734 97.3886719,20.6054688 L97.3886719,24 L96.2875977,24 Z M104.972656,18.2421875 C105.885742,18.2421875 106.41748,18.6826172 106.605469,19.1713867 L106.65918,19.1713867 L106.65918,16.1206055 L107.744141,16.1206055 L107.744141,24 L106.696777,24 L106.696777,23.0976562 L106.643066,23.0976562 C106.498047,23.5864258 105.907227,24.0751953 104.951172,24.0751953 C103.651367,24.0751953 102.791992,23.1621094 102.791992,21.6582031 L102.791992,20.6645508 C102.791992,19.1875 103.640625,18.2421875 104.972656,18.2421875 Z M105.23584,19.2036133 C104.408691,19.2036133 103.887695,19.7944336 103.887695,20.8364258 L103.887695,21.4755859 C103.887695,22.5336914 104.424805,23.1191406 105.262695,23.1191406 C106.105957,23.1191406 106.65918,22.5283203 106.65918,21.5507812 L106.65918,20.675293 C106.65918,19.8051758 106.068359,19.2036133 105.23584,19.2036133 Z M109.742187,24 L109.742187,18.328125 L110.827148,18.328125 L110.827148,24 L109.742187,24 Z M109.543457,16.6147461 C109.543457,16.1958008 109.849609,15.8950195 110.279297,15.8950195 C110.725098,15.8950195 111.03125,16.1958008 111.03125,16.6147461 C111.03125,17.0283203 110.725098,17.3291016 110.279297,17.3291016 C109.85498,17.3291016 109.543457,17.0283203 109.543457,16.6147461 Z M112.884277,24 L112.884277,18.328125 L113.969238,18.328125 L113.969238,19.2089844 L114.022949,19.2089844 C114.157227,18.8276367 114.570801,18.2421875 115.542969,18.2421875 C115.682617,18.2421875 115.811523,18.2583008 115.918945,18.2744141 L115.918945,19.3056641 C115.822266,19.2788086 115.623535,19.2680664 115.435547,19.2680664 C114.463379,19.2680664 113.985352,19.8427734 113.985352,20.6054688 L113.985352,24 L112.884277,24 Z M119.372559,24.0966797 C117.836426,24.0966797 116.907227,23.1459961 116.907227,21.5507812 L116.907227,20.7719727 C116.907227,19.1713867 117.927734,18.2314453 119.297363,18.2314453 C120.693848,18.2314453 121.6875,19.2143555 121.6875,20.7719727 L121.6875,21.4433594 L117.981445,21.4433594 L117.981445,21.7226562 C117.981445,22.5444336 118.475586,23.1567383 119.361816,23.1567383 C120.006348,23.1567383 120.441406,22.855957 120.532715,22.5068359 L121.617676,22.5068359 C121.537109,23.1567383 120.849609,24.0966797 119.372559,24.0966797 Z M117.981445,20.675293 L120.618652,20.675293 L120.618652,20.5947266 C120.618652,19.7299805 120.097656,19.1552734 119.302734,19.1552734 C118.507812,19.1552734 117.981445,19.7299805 117.981445,20.5947266 L117.981445,20.675293 Z M122.971191,21.5668945 L122.971191,20.734375 C122.971191,19.2250977 123.889648,18.2314453 125.377441,18.2314453 C126.811523,18.2314453 127.568848,19.1230469 127.590332,20.0683594 L126.553711,20.0683594 C126.5,19.7192383 126.236816,19.2036133 125.398926,19.2036133 C124.518066,19.2036133 124.056152,19.8105469 124.056152,20.7612305 L124.056152,21.5668945 C124.056152,22.5283203 124.566406,23.1245117 125.398926,23.1245117 C126.209961,23.1245117 126.5,22.7324219 126.585937,22.3188477 L127.62793,22.3188477 C127.595703,23.3125 126.838379,24.0966797 125.37207,24.0966797 C123.905762,24.0966797 122.971191,23.1513672 122.971191,21.5668945 Z M129.459473,18.3603516 L129.459473,16.9423828 L130.52832,16.9423828 L130.52832,18.3603516 L131.80127,18.3603516 L131.80127,19.2788086 L130.52832,19.2788086 L130.52832,22.3188477 C130.52832,22.9418945 130.753906,23.1137695 131.414551,23.1137695 C131.564941,23.1137695 131.779785,23.1030273 131.871094,23.0922852 L131.871094,23.9892578 C131.785156,24.0107422 131.387695,24.0429688 131.145996,24.0429688 C129.781738,24.0429688 129.44873,23.543457 129.44873,22.4047852 L129.44873,19.2788086 L128.583984,19.2788086 L128.583984,18.3603516 L129.459473,18.3603516 Z M133.460938,24 L133.460938,18.328125 L134.545898,18.328125 L134.545898,24 L133.460938,24 Z M133.262207,16.6147461 C133.262207,16.1958008 133.568359,15.8950195 133.998047,15.8950195 C134.443848,15.8950195 134.75,16.1958008 134.75,16.6147461 C134.75,17.0283203 134.443848,17.3291016 133.998047,17.3291016 C133.57373,17.3291016 133.262207,17.0283203 133.262207,16.6147461 Z M138.740723,18.2314453 C140.185547,18.2314453 141.222168,19.1875 141.222168,20.7827148 L141.222168,21.5292969 C141.222168,23.1674805 140.185547,24.0966797 138.740723,24.0966797 C137.274414,24.0966797 136.253906,23.1782227 136.253906,21.5292969 L136.253906,20.7827148 C136.253906,19.2358398 137.290527,18.2314453 138.740723,18.2314453 Z M138.746094,19.1767578 C137.870605,19.1767578 137.344238,19.8857422 137.344238,20.8417969 L137.344238,21.4863281 C137.344238,22.4477539 137.833008,23.1513672 138.746094,23.1513672 C139.648438,23.1513672 140.131836,22.453125 140.131836,21.4863281 L140.131836,20.8417969 C140.131836,19.8857422 139.621582,19.1767578 138.746094,19.1767578 Z M142.80127,24 L142.80127,18.328125 L143.875488,18.328125 L143.875488,19.3432617 L143.929199,19.3432617 C144.074219,18.902832 144.47168,18.2421875 145.637207,18.2421875 C146.78125,18.2421875 147.554687,18.8706055 147.554687,20.159668 L147.554687,24 L146.469727,24 L146.469727,20.503418 C146.469727,19.6386719 146.013184,19.2358398 145.298828,19.2358398 C144.358887,19.2358398 143.88623,19.9233398 143.88623,20.847168 L143.88623,24 L142.80127,24 Z M149.257324,23.2802734 C149.257324,22.7807617 149.622559,22.4423828 150.068359,22.4423828 C150.535645,22.4423828 150.895508,22.7807617 150.895508,23.2802734 C150.895508,23.7636719 150.535645,24.0966797 150.068359,24.0966797 C149.622559,24.0966797 149.257324,23.7636719 149.257324,23.2802734 Z" id="Type-information-wit" fill-opacity="0.7" fill="#000000"></path>
                        <path d="M158.528809,24 L157.422363,24 L157.422363,17.6889648 L155.24707,17.6889648 L155.24707,16.668457 L160.704102,16.668457 L160.704102,17.6889648 L158.528809,17.6889648 L158.528809,24 Z M164.071777,24.0966797 C162.535645,24.0966797 161.606445,23.1459961 161.606445,21.5507812 L161.606445,20.7719727 C161.606445,19.1713867 162.626953,18.2314453 163.996582,18.2314453 C165.393066,18.2314453 166.386719,19.2143555 166.386719,20.7719727 L166.386719,21.4433594 L162.680664,21.4433594 L162.680664,21.7226562 C162.680664,22.5444336 163.174805,23.1567383 164.061035,23.1567383 C164.705566,23.1567383 165.140625,22.855957 165.231934,22.5068359 L166.316895,22.5068359 C166.236328,23.1567383 165.548828,24.0966797 164.071777,24.0966797 Z M162.680664,20.675293 L165.317871,20.675293 L165.317871,20.5947266 C165.317871,19.7299805 164.796875,19.1552734 164.001953,19.1552734 C163.207031,19.1552734 162.680664,19.7299805 162.680664,20.5947266 L162.680664,20.675293 Z M171.199219,24 L169.92627,21.9804688 L169.888672,21.9804688 L168.615723,24 L167.42334,24 L169.276367,21.190918 L167.391113,18.328125 L168.674805,18.328125 L169.910156,20.3422852 L169.958496,20.3422852 L171.231445,18.328125 L172.450684,18.328125 L170.549316,21.1157227 L172.456055,24 L171.199219,24 Z M174.126465,18.3603516 L174.126465,16.9423828 L175.195312,16.9423828 L175.195312,18.3603516 L176.468262,18.3603516 L176.468262,19.2788086 L175.195312,19.2788086 L175.195312,22.3188477 C175.195312,22.9418945 175.420898,23.1137695 176.081543,23.1137695 C176.231934,23.1137695 176.446777,23.1030273 176.538086,23.0922852 L176.538086,23.9892578 C176.452148,24.0107422 176.054688,24.0429688 175.812988,24.0429688 C174.44873,24.0429688 174.115723,23.543457 174.115723,22.4047852 L174.115723,19.2788086 L173.250977,19.2788086 L173.250977,18.3603516 L174.126465,18.3603516 Z M180.512695,24 L180.512695,16.1206055 L181.597656,16.1206055 L181.597656,24 L180.512695,24 Z M183.611816,24 L183.611816,18.328125 L184.696777,18.328125 L184.696777,24 L183.611816,24 Z M183.413086,16.6147461 C183.413086,16.1958008 183.719238,15.8950195 184.148926,15.8950195 C184.594727,15.8950195 184.900879,16.1958008 184.900879,16.6147461 C184.900879,17.0283203 184.594727,17.3291016 184.148926,17.3291016 C183.724609,17.3291016 183.413086,17.0283203 183.413086,16.6147461 Z M186.67334,24 L186.67334,18.328125 L187.747559,18.328125 L187.747559,19.3432617 L187.80127,19.3432617 C187.946289,18.902832 188.34375,18.2421875 189.509277,18.2421875 C190.65332,18.2421875 191.426758,18.8706055 191.426758,20.159668 L191.426758,24 L190.341797,24 L190.341797,20.503418 C190.341797,19.6386719 189.885254,19.2358398 189.170898,19.2358398 C188.230957,19.2358398 187.758301,19.9233398 187.758301,20.847168 L187.758301,24 L186.67334,24 Z M194.348633,21.9643555 L194.348633,24 L193.263672,24 L193.263672,16.1206055 L194.348633,16.1206055 L194.348633,20.7988281 L194.391602,20.7988281 L196.572266,18.328125 L197.818359,18.328125 L195.643066,20.7827148 L197.963379,24 L196.679688,24 L194.832031,21.4755859 L194.348633,21.9643555 Z" id="Text-link" fill="#42B549"></path>
                    </g>
                </g>
            </g>
        </g>
    </g>
</svg>