<svg xmlns="http://www.w3.org/2000/svg" xmlns:xlink="http://www.w3.org/1999/xlink" width="458" height="290" viewBox="0 0 458 290">
    <defs>
        <rect id="a" width="316" height="56" rx="4"/>
        <rect id="c" width="316" height="56" rx="4"/>
    </defs>
    <g fill="none" fill-rule="evenodd">
        <rect width="458" height="290" fill="#F8F8F8" rx="4"/>
        <g transform="translate(71 73)">
            <mask id="b" fill="#fff">
                <use xlink:href="#a"/>
            </mask>
            <use fill="#42B549" xlink:href="#a"/>
            <path fill="#FFF" d="M16.687 51.993h58v4h-58z" mask="url(#b)"/>
            <rect width="58" height="7" x="16.687" y="25.993" fill="#80E586" mask="url(#b)" rx="3.5"/>
            <rect width="58" height="7" x="106.687" y="25.993" fill="#4BC152" mask="url(#b)" rx="3.5"/>
            <rect width="58" height="7" x="197" y="26" fill="#4BC152" mask="url(#b)" rx="3.5"/>
            <rect width="58" height="7" x="287" y="26" fill="#4BC152" mask="url(#b)" rx="3.5"/>
        </g>
        <g transform="translate(71 161)">
            <mask id="d" fill="#fff">
                <use xlink:href="#c"/>
            </mask>
            <use fill="#FFF" xlink:href="#c"/>
            <path fill="#42B549" d="M16.687 51.993h58v4h-58z" mask="url(#d)"/>
            <rect width="58" height="7" x="16.687" y="25.993" fill="#42B549" mask="url(#d)" rx="3.5"/>
            <rect width="58" height="7" x="106.687" y="25.993" fill="#000" fill-opacity=".08" mask="url(#d)" rx="3.5"/>
            <rect width="58" height="7" x="197" y="26" fill="#000" fill-opacity=".08" mask="url(#d)" rx="3.5"/>
            <rect width="58" height="7" x="287" y="26" fill="#000" fill-opacity=".08" mask="url(#d)" rx="3.5"/>
        </g>
    </g>
</svg>
