<?xml version="1.0" encoding="UTF-8"?>
<svg width="334px" height="582px" viewBox="0 0 334 582" version="1.1" xmlns="http://www.w3.org/2000/svg" xmlns:xlink="http://www.w3.org/1999/xlink">
    <!-- Generator: Sketch 48.1 (47250) - http://www.bohemiancoding.com/sketch -->
    <title>Group 21</title>
    <desc>Created with Sketch.</desc>
    <defs>
        <rect id="path-1" x="0" y="0" width="320" height="568"></rect>
        <filter x="-3.4%" y="-2.1%" width="106.9%" height="103.9%" filterUnits="objectBoundingBox" id="filter-2">
            <feOffset dx="0" dy="-1" in="SourceAlpha" result="shadowOffsetOuter1"></feOffset>
            <feGaussianBlur stdDeviation="3.5" in="shadowOffsetOuter1" result="shadowBlurOuter1"></feGaussianBlur>
            <feColorMatrix values="0 0 0 0 0   0 0 0 0 0   0 0 0 0 0  0 0 0 0.15 0" type="matrix" in="shadowBlurOuter1"></feColorMatrix>
        </filter>
        <rect id="path-3" x="0" y="0" width="320" height="72"></rect>
        <filter x="-3.4%" y="-16.7%" width="106.9%" height="130.6%" filterUnits="objectBoundingBox" id="filter-4">
            <feOffset dx="0" dy="-1" in="SourceAlpha" result="shadowOffsetOuter1"></feOffset>
            <feGaussianBlur stdDeviation="3.5" in="shadowOffsetOuter1" result="shadowBlurOuter1"></feGaussianBlur>
            <feColorMatrix values="0 0 0 0 0   0 0 0 0 0   0 0 0 0 0  0 0 0 0.15 0" type="matrix" in="shadowBlurOuter1"></feColorMatrix>
        </filter>
        <polygon id="path-5" points="320 26.0249119 0 26.0249119 0 51.0249119 320 51.0249119"></polygon>
        <filter x="-3.1%" y="-32.0%" width="106.2%" height="180.0%" filterUnits="objectBoundingBox" id="filter-6">
            <feOffset dx="0" dy="2" in="SourceAlpha" result="shadowOffsetOuter1"></feOffset>
            <feGaussianBlur stdDeviation="3" in="shadowOffsetOuter1" result="shadowBlurOuter1"></feGaussianBlur>
            <feColorMatrix values="0 0 0 0 0   0 0 0 0 0   0 0 0 0 0  0 0 0 0.15 0" type="matrix" in="shadowBlurOuter1"></feColorMatrix>
        </filter>
    </defs>
    <g id="tabs" stroke="none" stroke-width="1" fill="none" fill-rule="evenodd" transform="translate(-1089.000000, -1073.000000)">
        <g id="Content" transform="translate(262.186622, 205.569653)">
            <g id="Type" transform="translate(64.000000, 770.000000)">
                <g id="Group-21" transform="translate(770.000000, 105.830109)">
                    <g id="Group-20">
                        <g id="Rectangle-10">
                            <use fill="black" fill-opacity="1" filter="url(#filter-2)" xlink:href="#path-1"></use>
                            <use fill="#FFFFFF" fill-rule="evenodd" xlink:href="#path-1"></use>
                        </g>
                        <g id="Navigation-Bar/iOS/Single-Line">
                            <g id="Header-nav" stroke-width="1">
                                <g id="Rectangle-2">
                                    <use fill="black" fill-opacity="1" filter="url(#filter-4)" xlink:href="#path-3"></use>
                                    <use fill="#FFFFFF" fill-rule="evenodd" xlink:href="#path-3"></use>
                                </g>
                                <g id="Icon/iOS/Back-Button" transform="translate(16.000000, 39.000000)" fill="#DBDBDB">
                                    <polygon id="Page-1" points="8.85 0 0 8.52091081 8.719 17 10.735 14.9526861 4.034 8.43532239 11 2.09108073"></polygon>
                                </g>
                                <g id="Status-Bar/White/100%" transform="translate(6.000000, 5.000000)">
                                    <path d="M141.900391,10.6933594 C140.464844,10.6933594 139.398438,9.84375 139.128906,8.484375 L140.212891,8.484375 C140.441406,9.27539062 141.080078,9.75585938 141.912109,9.75585938 C143.289062,9.75585938 144.068359,8.53710938 144.126953,6.28710938 L144.033203,6.28710938 C143.617188,7.10742188 142.791016,7.58789062 141.783203,7.58789062 C140.171875,7.58789062 139.005859,6.3984375 139.005859,4.7578125 C139.005859,3.05859375 140.236328,1.84570312 141.970703,1.84570312 C143.236328,1.84570312 144.214844,2.51953125 144.742188,3.76757812 C145.017578,4.41210938 145.152344,5.19140625 145.152344,6.12304688 C145.152344,9.02929688 143.96875,10.6933594 141.900391,10.6933594 Z M141.970703,6.67382812 C143.089844,6.67382812 143.892578,5.87695312 143.892578,4.7578125 C143.892578,3.62695312 143.066406,2.77148438 141.982422,2.77148438 C140.898438,2.77148438 140.072266,3.61523438 140.072266,4.72265625 C140.072266,5.87695312 140.851562,6.67382812 141.970703,6.67382812 Z M147.683594,9.53320312 C148.105469,9.53320312 148.445312,9.1875 148.445312,8.77148438 C148.445312,8.34960938 148.105469,8.00976562 147.683594,8.00976562 C147.267578,8.00976562 146.921875,8.34960938 146.921875,8.77148438 C146.921875,9.1875 147.267578,9.53320312 147.683594,9.53320312 Z M147.683594,5.02734375 C148.105469,5.02734375 148.445312,4.68164062 148.445312,4.265625 C148.445312,3.84375 148.105469,3.50390625 147.683594,3.50390625 C147.267578,3.50390625 146.921875,3.84375 146.921875,4.265625 C146.921875,4.68164062 147.267578,5.02734375 147.683594,5.02734375 Z M154.269531,10.5 L154.269531,8.74804688 L150.150391,8.74804688 L150.150391,7.78710938 C150.90625,6.4453125 152.248047,4.32421875 153.771484,2.04492188 L155.300781,2.04492188 L155.300781,7.8046875 L156.501953,7.8046875 L156.501953,8.74804688 L155.300781,8.74804688 L155.300781,10.5 L154.269531,10.5 Z M151.228516,7.74023438 L151.228516,7.81054688 L154.275391,7.81054688 L154.275391,3.0234375 L154.205078,3.0234375 C153.337891,4.28320312 152.236328,6.02929688 151.228516,7.74023438 Z M160.152344,10.5 L161.207031,10.5 L161.207031,2.04492188 L160.158203,2.04492188 L157.908203,3.66210938 L157.908203,4.77539062 L160.058594,3.21679688 L160.152344,3.21679688 L160.152344,10.5 Z M172.744141,10.5 L171.894531,8.08007812 L168.53125,8.08007812 L167.681641,10.5 L166.574219,10.5 L169.691406,2.04492188 L170.734375,2.04492188 L173.851562,10.5 L172.744141,10.5 Z M170.166016,3.41015625 L168.841797,7.18359375 L171.583984,7.18359375 L170.259766,3.41015625 L170.166016,3.41015625 Z M176.318359,10.5 L176.318359,4.04296875 L176.388672,4.04296875 L179.054688,10.4414062 L179.945312,10.4414062 L182.611328,4.04296875 L182.681641,4.04296875 L182.681641,10.5 L183.666016,10.5 L183.666016,2.04492188 L182.441406,2.04492188 L179.546875,9.04101562 L179.453125,9.04101562 L176.558594,2.04492188 L175.333984,2.04492188 L175.333984,10.5 L176.318359,10.5 Z" id="9:41-AM" fill="#FFFFFF"></path>
                                    <g id="Pin-Right" transform="translate(251.000000, 0.000000)" fill="#DBDBDB">
                                        <path d="M34.4937128,0.5 L54.0062872,0.5 C54.8266197,0.5 55.5,1.17394722 55.5,2.00530324 L55.5,8.49469676 C55.5,9.33197845 54.831242,10 54.0062872,10 L34.4937128,10 C33.6733803,10 33,9.32605278 33,8.49469676 L33,2.00530324 C33,1.16802155 33.668758,0.5 34.4937128,0.5 Z M56,3.5 L56.75,3.5 C57.1671014,3.5 57.5,3.83232111 57.5,4.24225998 L57.5,6.25774002 C57.5,6.66440529 57.1642136,7 56.75,7 L56,7 L56,3.5 Z M34.5081524,1 C33.9513652,1 33.5,1.45699692 33.5,2.00844055 L33.5,8.49155945 C33.5,9.04850578 33.9490581,9.5 34.5081524,9.5 L53.9918476,9.5 C54.5486348,9.5 55,9.04300308 55,8.49155945 L55,2.00844055 C55,1.45149422 54.5509419,1 53.9918476,1 L34.5081524,1 Z M34.5067444,1.5 L53.9932556,1.5 C54.2697754,1.5 54.5,1.72031886 54.5,1.99209595 L54.5,8.50790405 C54.5,8.78362799 54.2731228,9 53.9932556,9 L34.5067444,9 C34.2302246,9 34,8.77968114 34,8.50790405 L34,1.99209595 C34,1.71637201 34.2268772,1.5 34.5067444,1.5 Z" id="Battery"></path>
                                    </g>
                                    <g id="Signal" fill="#DBDBDB">
                                        <path d="M3.25,8 C1.73121694,8 0.5,6.76878306 0.5,5.25 C0.5,3.73121694 1.73121694,2.5 3.25,2.5 C4.76878306,2.5 6,3.73121694 6,5.25 C6,6.76878306 4.76878306,8 3.25,8 Z M10.25,8 C8.73121694,8 7.5,6.76878306 7.5,5.25 C7.5,3.73121694 8.73121694,2.5 10.25,2.5 C11.7687831,2.5 13,3.73121694 13,5.25 C13,6.76878306 11.7687831,8 10.25,8 Z M17.25,8 C15.7312169,8 14.5,6.76878306 14.5,5.25 C14.5,3.73121694 15.7312169,2.5 17.25,2.5 C18.7687831,2.5 20,3.73121694 20,5.25 C20,6.76878306 18.7687831,8 17.25,8 Z M24.25,8 C22.7312169,8 21.5,6.76878306 21.5,5.25 C21.5,3.73121694 22.7312169,2.5 24.25,2.5 C25.7687831,2.5 27,3.73121694 27,5.25 C27,6.76878306 25.7687831,8 24.25,8 Z M31.25,8 C29.7312169,8 28.5,6.76878306 28.5,5.25 C28.5,3.73121694 29.7312169,2.5 31.25,2.5 C32.7687831,2.5 34,3.73121694 34,5.25 C34,6.76878306 32.7687831,8 31.25,8 Z" id="Mobile-Signal"></path>
                                    </g>
                                </g>
                            </g>
                            <rect id="Rectangle-8-Copy" fill="#DBDBDB" x="52.433518" y="43.2507278" width="132" height="6" rx="3"></rect>
                        </g>
                        <g id="Tabs/Secondary/Four-Content" transform="translate(0.000000, 69.880400)">
                            <g id="Tabs/Main/Four-Content" transform="translate(0.000000, 0.087962)">
                                <g id="background-tabs">
                                    <use fill="black" fill-opacity="1" filter="url(#filter-6)" xlink:href="#path-5"></use>
                                    <use fill="#FFFFFF" fill-rule="evenodd" xlink:href="#path-5"></use>
                                </g>
                                <polygon id="background-tabs-copy" fill="#FFFFFF" points="320 0.983915441 0 0.983915441 0 51.0255821 320 51.0255821"></polygon>
                            </g>
                            <g id="tabs" transform="translate(16.500000, 1.041667)">
                                <g id="Content-4" transform="translate(273.000000, 21.000000)" fill="#000000" fill-opacity="0.38">
                                    <path d="M2.31054688,4.84635417 L2.31054688,6.09049479 C2.31054688,8.06608073 3.24023437,8.98893229 4.66210938,8.98893229 C6.04980469,8.98893229 6.76757812,8.12076823 6.76757812,7.11588542 L8.14160156,7.11588542 L8.14160156,7.21842448 C8.14160156,8.69498698 7,10.3014323 4.61425781,10.3014323 C2.31738281,10.3014323 0.888671875,8.81119792 0.888671875,6.09733073 L0.888671875,4.83268229 C0.888671875,2.15983073 2.34472656,0.594401042 4.62792969,0.594401042 C6.91796875,0.594401042 8.14160156,2.16666667 8.14160156,3.80045573 L8.14160156,3.90299479 L6.76757812,3.90299479 C6.76757812,2.90494792 6.02246094,1.9000651 4.63476562,1.9000651 C3.24707031,1.9000651 2.31054688,2.89811198 2.31054688,4.84635417 Z M12.9677734,2.76822917 C14.8066406,2.76822917 16.1259766,3.98502604 16.1259766,6.01529948 L16.1259766,6.96549479 C16.1259766,9.05045573 14.8066406,10.2330729 12.9677734,10.2330729 C11.1015625,10.2330729 9.80273438,9.0641276 9.80273438,6.96549479 L9.80273438,6.01529948 C9.80273438,4.04654948 11.1220703,2.76822917 12.9677734,2.76822917 Z M12.9746094,3.97135417 C11.8603516,3.97135417 11.1904297,4.87369792 11.1904297,6.09049479 L11.1904297,6.91080729 C11.1904297,8.1344401 11.8125,9.02994792 12.9746094,9.02994792 C14.1230469,9.02994792 14.7382812,8.14127604 14.7382812,6.91080729 L14.7382812,6.09049479 C14.7382812,4.87369792 14.0888672,3.97135417 12.9746094,3.97135417 Z M18.1357422,10.110026 L18.1357422,2.89127604 L19.5029297,2.89127604 L19.5029297,4.18326823 L19.5712891,4.18326823 C19.7558594,3.62272135 20.2617187,2.78190104 21.7451172,2.78190104 C23.2011719,2.78190104 24.1855469,3.58170573 24.1855469,5.22233073 L24.1855469,10.110026 L22.8046875,10.110026 L22.8046875,5.65983073 C22.8046875,4.55924479 22.2236328,4.04654948 21.3144531,4.04654948 C20.1181641,4.04654948 19.5166016,4.92154948 19.5166016,6.09733073 L19.5166016,10.110026 L18.1357422,10.110026 Z M26.9472656,2.93229167 L26.9472656,1.12760417 L28.3076172,1.12760417 L28.3076172,2.93229167 L29.9277344,2.93229167 L29.9277344,4.10123698 L28.3076172,4.10123698 L28.3076172,7.9703776 C28.3076172,8.76334635 28.5947266,8.98209635 29.4355469,8.98209635 C29.6269531,8.98209635 29.9003906,8.96842448 30.0166016,8.9547526 L30.0166016,10.0963542 C29.9072266,10.1236979 29.4013672,10.1647135 29.09375,10.1647135 C27.3574219,10.1647135 26.9335937,9.52897135 26.9335937,8.0797526 L26.9335937,4.10123698 L25.8330078,4.10123698 L25.8330078,2.93229167 L26.9472656,2.93229167 Z" id="Cont"></path>
                                </g>
                                <g id="Content-3" transform="translate(182.000000, 0.000000)">
                                    <rect id="bound" x="0" y="0.0712076823" width="91" height="50"></rect>
                                    <path d="M2.31054688,25.8463542 L2.31054688,27.0904948 C2.31054688,29.0660807 3.24023437,29.9889323 4.66210938,29.9889323 C6.04980469,29.9889323 6.76757812,29.1207682 6.76757812,28.1158854 L8.14160156,28.1158854 L8.14160156,28.2184245 C8.14160156,29.694987 7,31.3014323 4.61425781,31.3014323 C2.31738281,31.3014323 0.888671875,29.8111979 0.888671875,27.0973307 L0.888671875,25.8326823 C0.888671875,23.1598307 2.34472656,21.594401 4.62792969,21.594401 C6.91796875,21.594401 8.14160156,23.1666667 8.14160156,24.8004557 L8.14160156,24.9029948 L6.76757812,24.9029948 C6.76757812,23.9049479 6.02246094,22.9000651 4.63476562,22.9000651 C3.24707031,22.9000651 2.31054688,23.898112 2.31054688,25.8463542 Z M12.9677734,23.7682292 C14.8066406,23.7682292 16.1259766,24.985026 16.1259766,27.0152995 L16.1259766,27.9654948 C16.1259766,30.0504557 14.8066406,31.2330729 12.9677734,31.2330729 C11.1015625,31.2330729 9.80273437,30.0641276 9.80273437,27.9654948 L9.80273437,27.0152995 C9.80273437,25.0465495 11.1220703,23.7682292 12.9677734,23.7682292 Z M12.9746094,24.9713542 C11.8603516,24.9713542 11.1904297,25.8736979 11.1904297,27.0904948 L11.1904297,27.9108073 C11.1904297,29.1344401 11.8125,30.0299479 12.9746094,30.0299479 C14.1230469,30.0299479 14.7382812,29.141276 14.7382812,27.9108073 L14.7382812,27.0904948 C14.7382812,25.8736979 14.0888672,24.9713542 12.9746094,24.9713542 Z M18.1357422,31.110026 L18.1357422,23.891276 L19.5029297,23.891276 L19.5029297,25.1832682 L19.5712891,25.1832682 C19.7558594,24.6227214 20.2617188,23.781901 21.7451172,23.781901 C23.2011719,23.781901 24.1855469,24.5817057 24.1855469,26.2223307 L24.1855469,31.110026 L22.8046875,31.110026 L22.8046875,26.6598307 C22.8046875,25.5592448 22.2236328,25.0465495 21.3144531,25.0465495 C20.1181641,25.0465495 19.5166016,25.9215495 19.5166016,27.0973307 L19.5166016,31.110026 L18.1357422,31.110026 Z M26.9472656,23.9322917 L26.9472656,22.1276042 L28.3076172,22.1276042 L28.3076172,23.9322917 L29.9277344,23.9322917 L29.9277344,25.101237 L28.3076172,25.101237 L28.3076172,28.9703776 C28.3076172,29.7633464 28.5947266,29.9820964 29.4355469,29.9820964 C29.6269531,29.9820964 29.9003906,29.9684245 30.0166016,29.9547526 L30.0166016,31.0963542 C29.9072266,31.1236979 29.4013672,31.1647135 29.09375,31.1647135 C27.3574219,31.1647135 26.9335937,30.5289714 26.9335937,29.0797526 L26.9335937,25.101237 L25.8330078,25.101237 L25.8330078,23.9322917 L26.9472656,23.9322917 Z M34.671875,31.2330729 C32.7167969,31.2330729 31.5341797,30.023112 31.5341797,27.9928385 L31.5341797,27.0016276 C31.5341797,24.9645182 32.8330078,23.7682292 34.5761719,23.7682292 C36.3535156,23.7682292 37.6181641,25.0192057 37.6181641,27.0016276 L37.6181641,27.8561198 L32.9013672,27.8561198 L32.9013672,28.2115885 C32.9013672,29.257487 33.5302734,30.0367839 34.6582031,30.0367839 C35.4785156,30.0367839 36.0322266,29.6539714 36.1484375,29.2096354 L37.5292969,29.2096354 C37.4267578,30.0367839 36.5517578,31.2330729 34.671875,31.2330729 Z M32.9013672,26.8785807 L36.2578125,26.8785807 L36.2578125,26.7760417 C36.2578125,25.6754557 35.5947266,24.9440104 34.5830078,24.9440104 C33.5712891,24.9440104 32.9013672,25.6754557 32.9013672,26.7760417 L32.9013672,26.8785807 Z M39.59375,31.110026 L39.59375,23.891276 L40.9609375,23.891276 L40.9609375,25.1832682 L41.0292969,25.1832682 C41.2138672,24.6227214 41.7197266,23.781901 43.203125,23.781901 C44.6591797,23.781901 45.6435547,24.5817057 45.6435547,26.2223307 L45.6435547,31.110026 L44.2626953,31.110026 L44.2626953,26.6598307 C44.2626953,25.5592448 43.6816406,25.0465495 42.7724609,25.0465495 C41.5761719,25.0465495 40.9746094,25.9215495 40.9746094,27.0973307 L40.9746094,31.110026 L39.59375,31.110026 Z M48.4052734,23.9322917 L48.4052734,22.1276042 L49.765625,22.1276042 L49.765625,23.9322917 L51.3857422,23.9322917 L51.3857422,25.101237 L49.765625,25.101237 L49.765625,28.9703776 C49.765625,29.7633464 50.0527344,29.9820964 50.8935547,29.9820964 C51.0849609,29.9820964 51.3583984,29.9684245 51.4746094,29.9547526 L51.4746094,31.0963542 C51.3652344,31.1236979 50.859375,31.1647135 50.5517578,31.1647135 C48.8154297,31.1647135 48.3916016,30.5289714 48.3916016,29.0797526 L48.3916016,25.101237 L47.2910156,25.101237 L47.2910156,23.9322917 L48.4052734,23.9322917 Z M58.2421875,26.9127604 L58.2421875,25.6891276 L59.2128906,25.6891276 C60.1494141,25.6891276 60.8466797,25.0738932 60.8398437,24.226237 C60.8398437,23.3922526 60.1630859,22.8111979 59.2060547,22.8111979 C58.2558594,22.8111979 57.6269531,23.3990885 57.5722656,24.0553385 L56.2460937,24.0553385 C56.2871094,22.7428385 57.3125,21.601237 59.2265625,21.594401 C61.0449219,21.5807292 62.2070312,22.6266276 62.2412109,23.9938151 C62.2753906,25.319987 61.2158203,26.0719401 60.5185547,26.188151 L60.5185547,26.2701823 C61.3183594,26.3590495 62.5214844,27.0152995 62.5488281,28.5123698 C62.5761719,30.2008464 61.1132812,31.3014323 59.1855469,31.3014323 C57.2578125,31.3014323 56.0957031,30.1803385 56.0341797,28.813151 L57.3398437,28.813151 C57.4150391,29.5172526 58.1669922,30.0641276 59.2060547,30.0709635 C60.3818359,30.0777995 61.1474609,29.4010417 61.1337891,28.4713542 C61.1269531,27.5485026 60.3681641,26.9127604 59.2607422,26.9127604 L58.2421875,26.9127604 Z" fill-opacity="0.38" fill="#000000"></path>
                                </g>
                                <g id="Content-2" transform="translate(91.000000, 0.000000)">
                                    <rect id="bound" x="0" y="0.0712076823" width="91" height="50"></rect>
                                    <path d="M2.31054688,25.8463542 L2.31054688,27.0904948 C2.31054688,29.0660807 3.24023438,29.9889323 4.66210938,29.9889323 C6.04980469,29.9889323 6.76757813,29.1207682 6.76757813,28.1158854 L8.14160156,28.1158854 L8.14160156,28.2184245 C8.14160156,29.694987 7,31.3014323 4.61425781,31.3014323 C2.31738281,31.3014323 0.888671875,29.8111979 0.888671875,27.0973307 L0.888671875,25.8326823 C0.888671875,23.1598307 2.34472656,21.594401 4.62792969,21.594401 C6.91796875,21.594401 8.14160156,23.1666667 8.14160156,24.8004557 L8.14160156,24.9029948 L6.76757813,24.9029948 C6.76757813,23.9049479 6.02246094,22.9000651 4.63476562,22.9000651 C3.24707031,22.9000651 2.31054688,23.898112 2.31054688,25.8463542 Z M12.9677734,23.7682292 C14.8066406,23.7682292 16.1259766,24.985026 16.1259766,27.0152995 L16.1259766,27.9654948 C16.1259766,30.0504557 14.8066406,31.2330729 12.9677734,31.2330729 C11.1015625,31.2330729 9.80273438,30.0641276 9.80273438,27.9654948 L9.80273438,27.0152995 C9.80273438,25.0465495 11.1220703,23.7682292 12.9677734,23.7682292 Z M12.9746094,24.9713542 C11.8603516,24.9713542 11.1904297,25.8736979 11.1904297,27.0904948 L11.1904297,27.9108073 C11.1904297,29.1344401 11.8125,30.0299479 12.9746094,30.0299479 C14.1230469,30.0299479 14.7382813,29.141276 14.7382813,27.9108073 L14.7382813,27.0904948 C14.7382813,25.8736979 14.0888672,24.9713542 12.9746094,24.9713542 Z M18.1357422,31.110026 L18.1357422,23.891276 L19.5029297,23.891276 L19.5029297,25.1832682 L19.5712891,25.1832682 C19.7558594,24.6227214 20.2617188,23.781901 21.7451172,23.781901 C23.2011719,23.781901 24.1855469,24.5817057 24.1855469,26.2223307 L24.1855469,31.110026 L22.8046875,31.110026 L22.8046875,26.6598307 C22.8046875,25.5592448 22.2236328,25.0465495 21.3144531,25.0465495 C20.1181641,25.0465495 19.5166016,25.9215495 19.5166016,27.0973307 L19.5166016,31.110026 L18.1357422,31.110026 Z M26.9472656,23.9322917 L26.9472656,22.1276042 L28.3076172,22.1276042 L28.3076172,23.9322917 L29.9277344,23.9322917 L29.9277344,25.101237 L28.3076172,25.101237 L28.3076172,28.9703776 C28.3076172,29.7633464 28.5947266,29.9820964 29.4355469,29.9820964 C29.6269531,29.9820964 29.9003906,29.9684245 30.0166016,29.9547526 L30.0166016,31.0963542 C29.9072266,31.1236979 29.4013672,31.1647135 29.09375,31.1647135 C27.3574219,31.1647135 26.9335938,30.5289714 26.9335938,29.0797526 L26.9335938,25.101237 L25.8330078,25.101237 L25.8330078,23.9322917 L26.9472656,23.9322917 Z M34.671875,31.2330729 C32.7167969,31.2330729 31.5341797,30.023112 31.5341797,27.9928385 L31.5341797,27.0016276 C31.5341797,24.9645182 32.8330078,23.7682292 34.5761719,23.7682292 C36.3535156,23.7682292 37.6181641,25.0192057 37.6181641,27.0016276 L37.6181641,27.8561198 L32.9013672,27.8561198 L32.9013672,28.2115885 C32.9013672,29.257487 33.5302734,30.0367839 34.6582031,30.0367839 C35.4785156,30.0367839 36.0322266,29.6539714 36.1484375,29.2096354 L37.5292969,29.2096354 C37.4267578,30.0367839 36.5517578,31.2330729 34.671875,31.2330729 Z M32.9013672,26.8785807 L36.2578125,26.8785807 L36.2578125,26.7760417 C36.2578125,25.6754557 35.5947266,24.9440104 34.5830078,24.9440104 C33.5712891,24.9440104 32.9013672,25.6754557 32.9013672,26.7760417 L32.9013672,26.8785807 Z M39.59375,31.110026 L39.59375,23.891276 L40.9609375,23.891276 L40.9609375,25.1832682 L41.0292969,25.1832682 C41.2138672,24.6227214 41.7197266,23.781901 43.203125,23.781901 C44.6591797,23.781901 45.6435547,24.5817057 45.6435547,26.2223307 L45.6435547,31.110026 L44.2626953,31.110026 L44.2626953,26.6598307 C44.2626953,25.5592448 43.6816406,25.0465495 42.7724609,25.0465495 C41.5761719,25.0465495 40.9746094,25.9215495 40.9746094,27.0973307 L40.9746094,31.110026 L39.59375,31.110026 Z M48.4052734,23.9322917 L48.4052734,22.1276042 L49.765625,22.1276042 L49.765625,23.9322917 L51.3857422,23.9322917 L51.3857422,25.101237 L49.765625,25.101237 L49.765625,28.9703776 C49.765625,29.7633464 50.0527344,29.9820964 50.8935547,29.9820964 C51.0849609,29.9820964 51.3583984,29.9684245 51.4746094,29.9547526 L51.4746094,31.0963542 C51.3652344,31.1236979 50.859375,31.1647135 50.5517578,31.1647135 C48.8154297,31.1647135 48.3916016,30.5289714 48.3916016,29.0797526 L48.3916016,25.101237 L47.2910156,25.101237 L47.2910156,23.9322917 L48.4052734,23.9322917 Z M57.6337891,24.4586589 L56.2802734,24.4586589 L56.2802734,24.3902995 C56.2802734,22.9684245 57.2988281,21.594401 59.3017578,21.594401 C61.1064453,21.594401 62.2890625,22.7018229 62.2890625,24.1715495 C62.2890625,25.3883464 61.5439453,26.1813151 60.6826172,27.1315104 L58.296875,29.7565104 L58.296875,29.8385417 L62.453125,29.8385417 L62.453125,31.110026 L56.3212891,31.110026 L56.3212891,30.1666667 L59.8076172,26.304362 C60.3203125,25.7438151 60.8671875,25.1149089 60.8671875,24.3014323 C60.8671875,23.4195964 60.1835938,22.8453776 59.2675781,22.8453776 C58.2353516,22.8453776 57.6337891,23.563151 57.6337891,24.3834635 L57.6337891,24.4586589 Z" fill-opacity="0.38" fill="#000000"></path>
                                </g>
                                <g id="Content-1" transform="translate(1.000000, 0.000000)">
                                    <rect id="bound" x="0" y="0" width="90" height="50"></rect>
                                    <path d="M2.50878906,24.8320313 L2.50878906,26.0214844 C2.50878906,27.9013672 3.37011719,28.796875 4.69628906,28.796875 C5.99511719,28.796875 6.66503906,27.9560547 6.66503906,26.9716797 L8.26464844,26.9716797 L8.26464844,27.1152344 C8.26464844,28.6806641 7.03417969,30.2529297 4.65527344,30.2529297 C2.28320312,30.2529297 0.833984375,28.7285156 0.833984375,26.0214844 L0.833984375,24.8183594 C0.833984375,22.1455078 2.296875,20.5527344 4.66210938,20.5527344 C6.96582031,20.5527344 8.26464844,22.0976563 8.26464844,23.8066406 L8.26464844,23.9501953 L6.66503906,23.9501953 C6.66503906,22.9726563 5.97460937,22.015625 4.67578125,22.015625 C3.37695312,22.015625 2.50878906,22.9658203 2.50878906,24.8320313 Z M13.0771484,22.6992188 C14.9980469,22.6992188 16.3242188,23.9570313 16.3242188,26.0009766 L16.3242188,26.8623047 C16.3242188,28.9951172 14.9980469,30.1914063 13.0771484,30.1914063 C11.1357422,30.1914063 9.82324219,29.0087891 9.82324219,26.8691406 L9.82324219,26.0078125 C9.82324219,24.0117188 11.1494141,22.6992188 13.0771484,22.6992188 Z M13.0839844,24.0185547 C12.03125,24.0185547 11.4501953,24.9140625 11.4501953,26.0556641 L11.4501953,26.8417969 C11.4501953,27.9765625 11.9902344,28.8789063 13.0839844,28.8789063 C14.1708984,28.8789063 14.6972656,27.9833984 14.6972656,26.8417969 L14.6972656,26.0556641 C14.6972656,24.9072266 14.1367188,24.0185547 13.0839844,24.0185547 Z M18.2246094,30.0683594 L18.2246094,22.8291016 L19.8037109,22.8291016 L19.8037109,24.1142578 L19.8857422,24.1142578 C20.0703125,23.546875 20.6035156,22.7197266 22.0527344,22.7197266 C23.5087891,22.7197266 24.4794922,23.5332031 24.4794922,25.2011719 L24.4794922,30.0683594 L22.8662109,30.0683594 L22.8662109,25.6728516 C22.8662109,24.5927734 22.2988281,24.1279297 21.4785156,24.1279297 C20.4121094,24.1279297 19.8378906,24.9208984 19.8378906,26.0488281 L19.8378906,30.0683594 L18.2246094,30.0683594 Z M27.1865234,22.890625 L27.1865234,21.0859375 L28.7587891,21.0859375 L28.7587891,22.890625 L30.3789062,22.890625 L30.3789062,24.1757813 L28.7587891,24.1757813 L28.7587891,27.8466797 C28.7587891,28.5986328 29.0595703,28.8173828 29.8525391,28.8173828 C30.0644531,28.8173828 30.3310547,28.8037109 30.4541016,28.7900391 L30.4541016,30.0410156 C30.3242188,30.0683594 29.8183594,30.1162109 29.4560547,30.1162109 C27.6787109,30.1162109 27.1591797,29.4941406 27.1591797,28.0244141 L27.1591797,24.1757813 L26.0585938,24.1757813 L26.0585938,22.890625 L27.1865234,22.890625 Z M35.1162109,30.1914063 C33.1269531,30.1914063 31.8828125,28.9951172 31.8828125,26.9033203 L31.8828125,25.9873047 C31.8828125,23.8818359 33.2431641,22.6992188 35.0273438,22.6992188 C36.859375,22.6992188 38.1513672,23.9638672 38.1513672,25.9873047 L38.1513672,26.828125 L33.4755859,26.828125 L33.4755859,27.1767578 C33.4755859,28.1679688 34.0839844,28.8857422 35.109375,28.8857422 C35.8818359,28.8857422 36.421875,28.5234375 36.5175781,28.0722656 L38.0761719,28.0722656 C37.9941406,28.9404297 37.1054688,30.1914063 35.1162109,30.1914063 Z M33.4755859,25.7822266 L36.5791016,25.7822266 L36.5791016,25.7001953 C36.5791016,24.6679688 35.9638672,23.984375 35.0341797,23.984375 C34.0976562,23.984375 33.4755859,24.6679688 33.4755859,25.7001953 L33.4755859,25.7822266 Z M40.0244141,30.0683594 L40.0244141,22.8291016 L41.6035156,22.8291016 L41.6035156,24.1142578 L41.6855469,24.1142578 C41.8701172,23.546875 42.4033203,22.7197266 43.8525391,22.7197266 C45.3085938,22.7197266 46.2792969,23.5332031 46.2792969,25.2011719 L46.2792969,30.0683594 L44.6660156,30.0683594 L44.6660156,25.6728516 C44.6660156,24.5927734 44.0986328,24.1279297 43.2783203,24.1279297 C42.2119141,24.1279297 41.6376953,24.9208984 41.6376953,26.0488281 L41.6376953,30.0683594 L40.0244141,30.0683594 Z M48.9863281,22.890625 L48.9863281,21.0859375 L50.5585938,21.0859375 L50.5585938,22.890625 L52.1787109,22.890625 L52.1787109,24.1757813 L50.5585938,24.1757813 L50.5585938,27.8466797 C50.5585938,28.5986328 50.859375,28.8173828 51.6523438,28.8173828 C51.8642578,28.8173828 52.1308594,28.8037109 52.2539062,28.7900391 L52.2539062,30.0410156 C52.1240234,30.0683594 51.6181641,30.1162109 51.2558594,30.1162109 C49.4785156,30.1162109 48.9589844,29.4941406 48.9589844,28.0244141 L48.9589844,24.1757813 L47.8583984,24.1757813 L47.8583984,22.890625 L48.9863281,22.890625 Z M60.8671875,30.0683594 L59.2265625,30.0683594 L59.2265625,22.4121094 L59.1513672,22.4121094 L57.0185547,23.9296875 L57.0185547,22.3369141 L59.2265625,20.7373047 L60.8671875,20.7373047 L60.8671875,30.0683594 Z" fill="#42B549"></path>
                                </g>
                                <rect id="indicator" fill="#42B549" x="0.5" y="48.1516927" width="58" height="3"></rect>
                            </g>
                        </g>
                    </g>
                </g>
            </g>
        </g>
    </g>
</svg>