<?xml version="1.0" encoding="UTF-8"?>
<svg width="344px" height="59px" viewBox="0 0 344 59" version="1.1" xmlns="http://www.w3.org/2000/svg" xmlns:xlink="http://www.w3.org/1999/xlink">
    <!-- Generator: Sketch 48.1 (47250) - http://www.bohemiancoding.com/sketch -->
    <title>Group</title>
    <desc>Created with Sketch.</desc>
    <defs>
        <polygon id="path-1" points="320 0 0 0 0 48 320 48"></polygon>
        <filter x="-1.9%" y="-6.2%" width="103.8%" height="125.0%" filterUnits="objectBoundingBox" id="filter-2">
            <feOffset dx="0" dy="3" in="SourceAlpha" result="shadowOffsetOuter1"></feOffset>
            <feGaussianBlur stdDeviation="1.5" in="shadowOffsetOuter1" result="shadowBlurOuter1"></feGaussianBlur>
            <feColorMatrix values="0 0 0 0 0   0 0 0 0 0   0 0 0 0 0  0 0 0 0.18 0" type="matrix" in="shadowBlurOuter1"></feColorMatrix>
        </filter>
    </defs>
    <g id="tabs" stroke="none" stroke-width="1" fill="none" fill-rule="evenodd" transform="translate(-344.000000, -1784.000000)">
        <g id="Content" transform="translate(262.186622, 205.569653)">
            <g id="Spec" transform="translate(64.000000, 1515.000000)">
                <g id="Group" transform="translate(20.000000, 63.000000)">
                    <g id="Tabs/Main/Two-Content" transform="translate(0.813378, 5.597421)">
                        <g id="background-tabs">
                            <use fill="black" fill-opacity="1" filter="url(#filter-2)" xlink:href="#path-1"></use>
                            <use fill="#42B549" fill-rule="evenodd" xlink:href="#path-1"></use>
                        </g>
                        <g id="tabs" transform="translate(16.500000, 0.000000)">
                            <g id="Content-2" transform="translate(88.000000, 0.000000)">
                                <rect id="bound" x="1" y="0" width="91" height="48"></rect>
                                <path d="M1.98046875,23.4882812 L1.98046875,24.5546875 C1.98046875,26.2480469 2.77734375,27.0390625 3.99609375,27.0390625 C5.18554688,27.0390625 5.80078125,26.2949219 5.80078125,25.4335938 L6.97851562,25.4335938 L6.97851562,25.5214844 C6.97851562,26.7871094 6,28.1640625 3.95507812,28.1640625 C1.98632812,28.1640625 0.76171875,26.8867188 0.76171875,24.5605469 L0.76171875,23.4765625 C0.76171875,21.1855469 2.00976562,19.84375 3.96679688,19.84375 C5.9296875,19.84375 6.97851562,21.1914062 6.97851562,22.5917969 L6.97851562,22.6796875 L5.80078125,22.6796875 C5.80078125,21.8242188 5.16210938,20.9628906 3.97265625,20.9628906 C2.78320312,20.9628906 1.98046875,21.8183594 1.98046875,23.4882812 Z M10.0965402,23.4765625 L10.0965402,24.5898438 C10.0965402,26.2597656 10.9754464,27.0449219 12.1473214,27.0449219 C13.3250558,27.0449219 14.2098214,26.2597656 14.2098214,24.5898438 L14.2098214,23.4765625 C14.2098214,21.8066406 13.3250558,20.9570312 12.1473214,20.9570312 C10.9754464,20.9570312 10.0965402,21.8066406 10.0965402,23.4765625 Z M8.87779018,24.5839844 L8.87779018,23.4824219 C8.87779018,21.2089844 10.1551339,19.84375 12.1590402,19.84375 C14.1629464,19.84375 15.4285714,21.2148438 15.4285714,23.4824219 L15.4285714,24.5839844 C15.4285714,26.8457031 14.1453683,28.1640625 12.1356027,28.1640625 C10.1316964,28.1640625 8.87779018,26.8457031 8.87779018,24.5839844 Z M18.8630022,28 L17.6911272,28 L17.6911272,20.0019531 L18.7868304,20.0019531 L22.6305804,25.7910156 L22.6891741,25.7910156 L22.6891741,20.0019531 L23.8610491,20.0019531 L23.8610491,28 L22.765346,28 L18.9157366,22.1933594 L18.8630022,22.1933594 L18.8630022,28 Z M29.2173549,28 L28.0103237,28 L28.0103237,21.1152344 L25.6372768,21.1152344 L25.6372768,20.0019531 L31.5904018,20.0019531 L31.5904018,21.1152344 L29.2173549,21.1152344 L29.2173549,28 Z M38.2826451,26.8984375 L38.2826451,28 L33.3666295,28 L33.3666295,20.0019531 L38.2826451,20.0019531 L38.2826451,21.1035156 L34.5678014,21.1035156 L34.5678014,23.40625 L38.0717076,23.40625 L38.0717076,24.4609375 L34.5678014,24.4609375 L34.5678014,26.8984375 L38.2826451,26.8984375 Z M41.7698103,28 L40.5979353,28 L40.5979353,20.0019531 L41.6936384,20.0019531 L45.5373884,25.7910156 L45.5959822,25.7910156 L45.5959822,20.0019531 L46.7678572,20.0019531 L46.7678572,28 L45.672154,28 L41.8225447,22.1933594 L41.7698103,22.1933594 L41.7698103,28 Z M52.124163,28 L50.9171317,28 L50.9171317,21.1152344 L48.5440848,21.1152344 L48.5440848,20.0019531 L54.4972098,20.0019531 L54.4972098,21.1152344 L52.124163,21.1152344 L52.124163,28 Z M60.3172433,22.2988281 L59.1570871,22.2988281 L59.1570871,22.2402344 C59.1570871,21.0214844 60.030134,19.84375 61.7469308,19.84375 C63.2938058,19.84375 64.3074777,20.7929688 64.3074777,22.0527344 C64.3074777,23.0957031 63.6688058,23.7753906 62.9305246,24.5898438 L60.8856027,26.8398438 L60.8856027,26.9101562 L64.4481027,26.9101562 L64.4481027,28 L59.1922433,28 L59.1922433,27.1914062 L62.1805246,23.8808594 C62.6199777,23.4003906 63.0887277,22.8613281 63.0887277,22.1640625 C63.0887277,21.4082031 62.5027902,20.9160156 61.717634,20.9160156 C60.8328683,20.9160156 60.3172433,21.53125 60.3172433,22.234375 L60.3172433,22.2988281 Z" id="CONTENT-2" fill-opacity="0.54" fill="#FFFFFF"></path>
                            </g>
                            <g id="Content-1">
                                <rect id="bound" x="0" y="0" width="89" height="48"></rect>
                                <path d="M2.15039062,23.5117188 L2.15039062,24.53125 C2.15039062,26.1425781 2.88867188,26.9101562 4.02539062,26.9101562 C5.13867188,26.9101562 5.71289062,26.1894531 5.71289062,25.3457031 L7.08398438,25.3457031 L7.08398438,25.46875 C7.08398438,26.8105469 6.02929688,28.1582031 3.99023438,28.1582031 C1.95703125,28.1582031 0.71484375,26.8515625 0.71484375,24.53125 L0.71484375,23.5 C0.71484375,21.2089844 1.96875,19.84375 3.99609375,19.84375 C5.97070312,19.84375 7.08398438,21.1679688 7.08398438,22.6328125 L7.08398438,22.7558594 L5.71289062,22.7558594 C5.71289062,21.9179688 5.12109375,21.0976562 4.0078125,21.0976562 C2.89453125,21.0976562 2.15039062,21.9121094 2.15039062,23.5117188 Z M10.3309152,23.4941406 L10.3309152,24.5664062 C10.3309152,26.1601562 11.1453683,26.921875 12.2527902,26.921875 C13.3660714,26.921875 14.1746652,26.1601562 14.1746652,24.5664062 L14.1746652,23.4941406 C14.1746652,21.9003906 13.3660714,21.0800781 12.2527902,21.0800781 C11.1453683,21.0800781 10.3309152,21.9003906 10.3309152,23.4941406 Z M8.89536831,24.5605469 L8.89536831,23.5058594 C8.89536831,21.2324219 10.1844308,19.84375 12.2586496,19.84375 C14.3445871,19.84375 15.6160714,21.2382812 15.6160714,23.5058594 L15.6160714,24.5605469 C15.6160714,26.8222656 14.3270089,28.1582031 12.2469308,28.1582031 C10.1668527,28.1582031 8.89536831,26.8222656 8.89536831,24.5605469 Z M19.1501116,28 L17.796596,28 L17.796596,20.0019531 L19.015346,20.0019531 L22.671596,25.515625 L22.7360491,25.515625 L22.7360491,20.0019531 L24.0895647,20.0019531 L24.0895647,28 L22.8708147,28 L19.2087054,22.4628906 L19.1501116,22.4628906 L19.1501116,28 Z M29.5454799,28 L28.1275112,28 L28.1275112,21.2382812 L25.813058,21.2382812 L25.813058,20.0019531 L31.859933,20.0019531 L31.859933,21.2382812 L29.5454799,21.2382812 L29.5454799,28 Z M38.6283482,26.7871094 L38.6283482,28 L33.5834264,28 L33.5834264,20.0019531 L38.6283482,20.0019531 L38.6283482,21.2148438 L34.9896764,21.2148438 L34.9896764,23.3710938 L38.4174107,23.3710938 L38.4174107,24.5195312 L34.9896764,24.5195312 L34.9896764,26.7871094 L38.6283482,26.7871094 Z M42.2268415,28 L40.8733259,28 L40.8733259,20.0019531 L42.0920759,20.0019531 L45.7483259,25.515625 L45.812779,25.515625 L45.812779,20.0019531 L47.1662947,20.0019531 L47.1662947,28 L45.9475447,28 L42.2854353,22.4628906 L42.2268415,22.4628906 L42.2268415,28 Z M52.6222098,28 L51.2042411,28 L51.2042411,21.2382812 L48.889788,21.2382812 L48.889788,20.0019531 L54.936663,20.0019531 L54.936663,21.2382812 L52.6222098,21.2382812 L52.6222098,28 Z M62.8777902,28 L61.4715402,28 L61.4715402,21.4375 L61.4070871,21.4375 L59.5789621,22.7382812 L59.5789621,21.3730469 L61.4715402,20.0019531 L62.8777902,20.0019531 L62.8777902,28 Z" id="CONTENT-1" fill="#FFFFFF"></path>
                            </g>
                            <rect id="indicator" fill="#FFFFFF" x="0" y="45" width="58" height="3"></rect>
                        </g>
                    </g>
                    <g id="#spacing-top-8E3150A7-DA0C-4129-BAB9-241AEB14EC80-4217BA24-4E40-4606-9983-9DE93CAA6AD4" transform="translate(16.313378, 2.926248)">
                        <rect id="line" fill="#50E3C2" x="2" y="3" width="1" height="16"></rect>
                        <rect id="start" fill="#50E3C2" x="0" y="3" width="5" height="1"></rect>
                        <rect id="end" fill="#50E3C2" x="0" y="18" width="5" height="1"></rect>
                        <rect id="box" fill="#50E3C2" x="8" y="0" width="35" height="22" rx="2"></rect>
                        <polygon id="arrow" fill="#50E3C2" points="4 11 8 7 12 11 8 15"></polygon>
                        <path d="M16.434,15 L15.414,15 L15.414,8.904 L13.206,8.904 L13.206,8.088 C13.4940014,8.088 13.7739986,8.06600022 14.046,8.022 C14.3180014,7.97799978 14.5639989,7.8960006 14.784,7.776 C15.0040011,7.6559994 15.1899992,7.49200104 15.342,7.284 C15.4940008,7.07599896 15.5979997,6.8120016 15.654,6.492 L16.434,6.492 L16.434,15 Z M23.802,8.664 C23.7539998,8.27999808 23.6060012,7.97200116 23.358,7.74 C23.1099988,7.50799884 22.782002,7.392 22.374,7.392 C21.9419978,7.392 21.5940013,7.49799894 21.33,7.71 C21.0659987,7.92200106 20.8600007,8.18999838 20.712,8.514 C20.5639993,8.83800162 20.4620003,9.18799812 20.406,9.564 C20.3499997,9.94000188 20.318,10.2919984 20.31,10.62 L20.334,10.644 C20.5740012,10.251998 20.8719982,9.96800088 21.228,9.792 C21.5840018,9.61599912 21.9939977,9.528 22.458,9.528 C22.866002,9.528 23.2319984,9.5979993 23.556,9.738 C23.8800016,9.8780007 24.1519989,10.0719988 24.372,10.32 C24.5920011,10.5680012 24.7619994,10.8599983 24.882,11.196 C25.0020006,11.5320017 25.062,11.895998 25.062,12.288 C25.062,12.6000016 25.0140005,12.9239983 24.918,13.26 C24.8219995,13.5960017 24.6640011,13.9019986 24.444,14.178 C24.2239989,14.4540014 23.9320018,14.6819991 23.568,14.862 C23.2039982,15.0420009 22.7540027,15.132 22.218,15.132 C21.5859968,15.132 21.0780019,15.0040013 20.694,14.748 C20.3099981,14.4919987 20.014001,14.164002 19.806,13.764 C19.597999,13.363998 19.4600003,12.9240024 19.392,12.444 C19.3239997,11.9639976 19.29,11.5000022 19.29,11.052 C19.29,10.4679971 19.3399995,9.90200274 19.44,9.354 C19.5400005,8.80599726 19.7099988,8.32000212 19.95,7.896 C20.1900012,7.47199788 20.509998,7.13200128 20.91,6.876 C21.310002,6.61999872 21.813997,6.492 22.422,6.492 C23.1260035,6.492 23.6859979,6.67799814 24.102,7.05 C24.5180021,7.42200186 24.7579997,7.95999648 24.822,8.664 L23.802,8.664 Z M22.266,10.428 C21.9779986,10.428 21.7260011,10.4779995 21.51,10.578 C21.2939989,10.6780005 21.1100008,10.8139991 20.958,10.986 C20.8059992,11.1580009 20.6920004,11.3619988 20.616,11.598 C20.5399996,11.8340012 20.502,12.0839987 20.502,12.348 C20.502,12.6120013 20.5419996,12.8599988 20.622,13.092 C20.7020004,13.3240012 20.8159993,13.5239992 20.964,13.692 C21.1120007,13.8600008 21.2959989,13.9939995 21.516,14.094 C21.7360011,14.1940005 21.9859986,14.244 22.266,14.244 C22.5460014,14.244 22.7919989,14.1940005 23.004,14.094 C23.2160011,13.9939995 23.3939993,13.8560009 23.538,13.68 C23.6820007,13.5039991 23.7919996,13.3020011 23.868,13.074 C23.9440004,12.8459989 23.982,12.6080012 23.982,12.36 C23.982,12.0959987 23.9480003,11.8460012 23.88,11.61 C23.8119997,11.3739988 23.7060007,11.1700009 23.562,10.998 C23.4179993,10.8259991 23.2380011,10.6880005 23.022,10.584 C22.8059989,10.4799995 22.5540014,10.428 22.266,10.428 Z M26.31,8.796 L27.33,8.796 L27.33,9.636 L27.354,9.636 C27.5220008,9.29199828 27.7859982,9.04200078 28.146,8.886 C28.5060018,8.72999922 28.9019978,8.652 29.334,8.652 C29.8140024,8.652 30.2319982,8.73999912 30.588,8.916 C30.9440018,9.09200088 31.2399988,9.3299985 31.476,9.63 C31.7120012,9.9300015 31.8899994,10.275998 32.01,10.668 C32.1300006,11.060002 32.19,11.4759978 32.19,11.916 C32.19,12.3560022 32.1320006,12.771998 32.016,13.164 C31.8999994,13.556002 31.7240012,13.8979985 31.488,14.19 C31.2519988,14.4820015 30.9560018,14.7119992 30.6,14.88 C30.2439982,15.0480008 29.8300024,15.132 29.358,15.132 C29.2059992,15.132 29.0360009,15.1160002 28.848,15.084 C28.6599991,15.0519998 28.4740009,15.0000004 28.29,14.928 C28.1059991,14.8559996 27.9320008,14.7580006 27.768,14.634 C27.6039992,14.5099994 27.4660006,14.3560009 27.354,14.172 L27.33,14.172 L27.33,17.364 L26.31,17.364 L26.31,8.796 Z M31.11,11.844 C31.11,11.5559986 31.0720004,11.2740014 30.996,10.998 C30.9199996,10.7219986 30.8040008,10.4760011 30.648,10.26 C30.4919992,10.0439989 30.2920012,9.87200064 30.048,9.744 C29.8039988,9.61599936 29.5180016,9.552 29.19,9.552 C28.8459983,9.552 28.5540012,9.61999932 28.314,9.756 C28.0739988,9.89200068 27.8780008,10.0699989 27.726,10.29 C27.5739992,10.5100011 27.4640003,10.7599986 27.396,11.04 C27.3279997,11.3200014 27.294,11.6039986 27.294,11.892 C27.294,12.1960015 27.3299996,12.4899986 27.402,12.774 C27.4740004,13.0580014 27.5879992,13.3079989 27.744,13.524 C27.9000008,13.7400011 28.1019988,13.9139993 28.35,14.046 C28.5980012,14.1780007 28.8979982,14.244 29.25,14.244 C29.6020018,14.244 29.8959988,14.1760007 30.132,14.04 C30.3680012,13.9039993 30.5579993,13.7240011 30.702,13.5 C30.8460007,13.2759989 30.9499997,13.0200014 31.014,12.732 C31.0780003,12.4439986 31.11,12.1480015 31.11,11.844 Z M35.058,11.736 L32.898,8.796 L34.206,8.796 L35.694,10.968 L37.242,8.796 L38.466,8.796 L36.33,11.652 L38.73,15 L37.422,15 L35.694,12.432 L33.966,15 L32.73,15 L35.058,11.736 Z" id="Text" fill="#FFFFFF"></path>
                    </g>
                    <g id="#spacing-bottom-8E3150A7-DA0C-4129-BAB9-241AEB14EC80-4217BA24-4E40-4606-9983-9DE93CAA6AD4" transform="translate(16.313378, 34.795319)">
                        <rect id="line" fill="#50E3C2" x="2" y="3" width="1" height="16"></rect>
                        <rect id="start" fill="#50E3C2" x="0" y="3" width="5" height="1"></rect>
                        <rect id="end" fill="#50E3C2" x="0" y="18" width="5" height="1"></rect>
                        <rect id="box" fill="#50E3C2" x="8" y="0" width="35" height="22" rx="2"></rect>
                        <polygon id="arrow" fill="#50E3C2" points="4 11 8 7 12 11 8 15"></polygon>
                        <path d="M16.434,15 L15.414,15 L15.414,8.904 L13.206,8.904 L13.206,8.088 C13.4940014,8.088 13.7739986,8.06600022 14.046,8.022 C14.3180014,7.97799978 14.5639989,7.8960006 14.784,7.776 C15.0040011,7.6559994 15.1899992,7.49200104 15.342,7.284 C15.4940008,7.07599896 15.5979997,6.8120016 15.654,6.492 L16.434,6.492 L16.434,15 Z M23.802,8.664 C23.7539998,8.27999808 23.6060012,7.97200116 23.358,7.74 C23.1099988,7.50799884 22.782002,7.392 22.374,7.392 C21.9419978,7.392 21.5940013,7.49799894 21.33,7.71 C21.0659987,7.92200106 20.8600007,8.18999838 20.712,8.514 C20.5639993,8.83800162 20.4620003,9.18799812 20.406,9.564 C20.3499997,9.94000188 20.318,10.2919984 20.31,10.62 L20.334,10.644 C20.5740012,10.251998 20.8719982,9.96800088 21.228,9.792 C21.5840018,9.61599912 21.9939977,9.528 22.458,9.528 C22.866002,9.528 23.2319984,9.5979993 23.556,9.738 C23.8800016,9.8780007 24.1519989,10.0719988 24.372,10.32 C24.5920011,10.5680012 24.7619994,10.8599983 24.882,11.196 C25.0020006,11.5320017 25.062,11.895998 25.062,12.288 C25.062,12.6000016 25.0140005,12.9239983 24.918,13.26 C24.8219995,13.5960017 24.6640011,13.9019986 24.444,14.178 C24.2239989,14.4540014 23.9320018,14.6819991 23.568,14.862 C23.2039982,15.0420009 22.7540027,15.132 22.218,15.132 C21.5859968,15.132 21.0780019,15.0040013 20.694,14.748 C20.3099981,14.4919987 20.014001,14.164002 19.806,13.764 C19.597999,13.363998 19.4600003,12.9240024 19.392,12.444 C19.3239997,11.9639976 19.29,11.5000022 19.29,11.052 C19.29,10.4679971 19.3399995,9.90200274 19.44,9.354 C19.5400005,8.80599726 19.7099988,8.32000212 19.95,7.896 C20.1900012,7.47199788 20.509998,7.13200128 20.91,6.876 C21.310002,6.61999872 21.813997,6.492 22.422,6.492 C23.1260035,6.492 23.6859979,6.67799814 24.102,7.05 C24.5180021,7.42200186 24.7579997,7.95999648 24.822,8.664 L23.802,8.664 Z M22.266,10.428 C21.9779986,10.428 21.7260011,10.4779995 21.51,10.578 C21.2939989,10.6780005 21.1100008,10.8139991 20.958,10.986 C20.8059992,11.1580009 20.6920004,11.3619988 20.616,11.598 C20.5399996,11.8340012 20.502,12.0839987 20.502,12.348 C20.502,12.6120013 20.5419996,12.8599988 20.622,13.092 C20.7020004,13.3240012 20.8159993,13.5239992 20.964,13.692 C21.1120007,13.8600008 21.2959989,13.9939995 21.516,14.094 C21.7360011,14.1940005 21.9859986,14.244 22.266,14.244 C22.5460014,14.244 22.7919989,14.1940005 23.004,14.094 C23.2160011,13.9939995 23.3939993,13.8560009 23.538,13.68 C23.6820007,13.5039991 23.7919996,13.3020011 23.868,13.074 C23.9440004,12.8459989 23.982,12.6080012 23.982,12.36 C23.982,12.0959987 23.9480003,11.8460012 23.88,11.61 C23.8119997,11.3739988 23.7060007,11.1700009 23.562,10.998 C23.4179993,10.8259991 23.2380011,10.6880005 23.022,10.584 C22.8059989,10.4799995 22.5540014,10.428 22.266,10.428 Z M26.31,8.796 L27.33,8.796 L27.33,9.636 L27.354,9.636 C27.5220008,9.29199828 27.7859982,9.04200078 28.146,8.886 C28.5060018,8.72999922 28.9019978,8.652 29.334,8.652 C29.8140024,8.652 30.2319982,8.73999912 30.588,8.916 C30.9440018,9.09200088 31.2399988,9.3299985 31.476,9.63 C31.7120012,9.9300015 31.8899994,10.275998 32.01,10.668 C32.1300006,11.060002 32.19,11.4759978 32.19,11.916 C32.19,12.3560022 32.1320006,12.771998 32.016,13.164 C31.8999994,13.556002 31.7240012,13.8979985 31.488,14.19 C31.2519988,14.4820015 30.9560018,14.7119992 30.6,14.88 C30.2439982,15.0480008 29.8300024,15.132 29.358,15.132 C29.2059992,15.132 29.0360009,15.1160002 28.848,15.084 C28.6599991,15.0519998 28.4740009,15.0000004 28.29,14.928 C28.1059991,14.8559996 27.9320008,14.7580006 27.768,14.634 C27.6039992,14.5099994 27.4660006,14.3560009 27.354,14.172 L27.33,14.172 L27.33,17.364 L26.31,17.364 L26.31,8.796 Z M31.11,11.844 C31.11,11.5559986 31.0720004,11.2740014 30.996,10.998 C30.9199996,10.7219986 30.8040008,10.4760011 30.648,10.26 C30.4919992,10.0439989 30.2920012,9.87200064 30.048,9.744 C29.8039988,9.61599936 29.5180016,9.552 29.19,9.552 C28.8459983,9.552 28.5540012,9.61999932 28.314,9.756 C28.0739988,9.89200068 27.8780008,10.0699989 27.726,10.29 C27.5739992,10.5100011 27.4640003,10.7599986 27.396,11.04 C27.3279997,11.3200014 27.294,11.6039986 27.294,11.892 C27.294,12.1960015 27.3299996,12.4899986 27.402,12.774 C27.4740004,13.0580014 27.5879992,13.3079989 27.744,13.524 C27.9000008,13.7400011 28.1019988,13.9139993 28.35,14.046 C28.5980012,14.1780007 28.8979982,14.244 29.25,14.244 C29.6020018,14.244 29.8959988,14.1760007 30.132,14.04 C30.3680012,13.9039993 30.5579993,13.7240011 30.702,13.5 C30.8460007,13.2759989 30.9499997,13.0200014 31.014,12.732 C31.0780003,12.4439986 31.11,12.1480015 31.11,11.844 Z M35.058,11.736 L32.898,8.796 L34.206,8.796 L35.694,10.968 L37.242,8.796 L38.466,8.796 L36.33,11.652 L38.73,15 L37.422,15 L35.694,12.432 L33.966,15 L32.73,15 L35.058,11.736 Z" id="Text" fill="#FFFFFF"></path>
                    </g>
                    <g id="#spacing-right-8E3150A7-DA0C-4129-BAB9-241AEB14EC80-4217BA24-4E40-4606-9983-9DE93CAA6AD4" transform="translate(77.313378, 0.430347)">
                        <rect id="line" fill="#50E3C2" x="5" y="29" width="24" height="1"></rect>
                        <rect id="start" fill="#50E3C2" x="5" y="27" width="1" height="5"></rect>
                        <rect id="end" fill="#50E3C2" x="28" y="27" width="1" height="5"></rect>
                        <rect id="box" fill="#50E3C2" x="0" y="0" width="35" height="22" rx="2"></rect>
                        <polygon id="arrow" fill="#50E3C2" points="14 22 18 18 22 22 18 26"></polygon>
                        <path d="M4.69,9.504 C4.66599988,9.07199784 4.70999944,8.67200184 4.822,8.304 C4.93400056,7.93599816 5.10799882,7.61800134 5.344,7.35 C5.58000118,7.08199866 5.87399824,6.87200076 6.226,6.72 C6.57800176,6.56799924 6.97799776,6.492 7.426,6.492 C7.79400184,6.492 8.13999838,6.54599946 8.464,6.654 C8.78800162,6.76200054 9.0699988,6.91799898 9.31,7.122 C9.5500012,7.32600102 9.7399993,7.57999848 9.88,7.884 C10.0200007,8.18800152 10.09,8.539998 10.09,8.94 C10.09,9.31600188 10.0320006,9.64799856 9.916,9.936 C9.79999942,10.2240014 9.64600096,10.4819989 9.454,10.71 C9.26199904,10.9380011 9.04200124,11.1439991 8.794,11.328 C8.54599876,11.5120009 8.29000132,11.6879992 8.026,11.856 C7.76199868,12.0160008 7.49800132,12.1739992 7.234,12.33 C6.96999868,12.4860008 6.7280011,12.6519991 6.508,12.828 C6.2879989,13.0040009 6.10000078,13.193999 5.944,13.398 C5.78799922,13.602001 5.68600024,13.8359987 5.638,14.1 L10.006,14.1 L10.006,15 L4.45,15 C4.4900002,14.4959975 4.5799993,14.0660018 4.72,13.71 C4.8600007,13.3539982 5.03799892,13.0440013 5.254,12.78 C5.47000108,12.5159987 5.71399864,12.284001 5.986,12.084 C6.25800136,11.883999 6.54199852,11.6960009 6.838,11.52 C7.1980018,11.2959989 7.51399864,11.0900009 7.786,10.902 C8.05800136,10.7139991 8.2839991,10.524001 8.464,10.332 C8.6440009,10.139999 8.77999954,9.93200112 8.872,9.708 C8.96400046,9.48399888 9.01,9.22400148 9.01,8.928 C9.01,8.69599884 8.96600044,8.48600094 8.878,8.298 C8.78999956,8.10999906 8.67200074,7.94800068 8.524,7.812 C8.37599926,7.67599932 8.202001,7.57200036 8.002,7.5 C7.801999,7.42799964 7.59000112,7.392 7.366,7.392 C7.06999852,7.392 6.81600106,7.45399938 6.604,7.578 C6.39199894,7.70200062 6.21800068,7.863999 6.082,8.064 C5.94599932,8.264001 5.8480003,8.48999874 5.788,8.742 C5.7279997,8.99400126 5.70199996,9.24799872 5.71,9.504 L4.69,9.504 Z M14.902,12.108 L14.902,7.944 L14.878,7.944 L12.046,12.108 L14.902,12.108 Z M15.862,12.108 L17.014,12.108 L17.014,13.008 L15.862,13.008 L15.862,15 L14.902,15 L14.902,13.008 L11.17,13.008 L11.17,12.024 L15.046,6.492 L15.862,6.492 L15.862,12.108 Z M18.31,8.796 L19.33,8.796 L19.33,9.636 L19.354,9.636 C19.5220008,9.29199828 19.7859982,9.04200078 20.146,8.886 C20.5060018,8.72999922 20.9019978,8.652 21.334,8.652 C21.8140024,8.652 22.2319982,8.73999912 22.588,8.916 C22.9440018,9.09200088 23.2399988,9.3299985 23.476,9.63 C23.7120012,9.9300015 23.8899994,10.275998 24.01,10.668 C24.1300006,11.060002 24.19,11.4759978 24.19,11.916 C24.19,12.3560022 24.1320006,12.771998 24.016,13.164 C23.8999994,13.556002 23.7240012,13.8979985 23.488,14.19 C23.2519988,14.4820015 22.9560018,14.7119992 22.6,14.88 C22.2439982,15.0480008 21.8300024,15.132 21.358,15.132 C21.2059992,15.132 21.0360009,15.1160002 20.848,15.084 C20.6599991,15.0519998 20.4740009,15.0000004 20.29,14.928 C20.1059991,14.8559996 19.9320008,14.7580006 19.768,14.634 C19.6039992,14.5099994 19.4660006,14.3560009 19.354,14.172 L19.33,14.172 L19.33,17.364 L18.31,17.364 L18.31,8.796 Z M23.11,11.844 C23.11,11.5559986 23.0720004,11.2740014 22.996,10.998 C22.9199996,10.7219986 22.8040008,10.4760011 22.648,10.26 C22.4919992,10.0439989 22.2920012,9.87200064 22.048,9.744 C21.8039988,9.61599936 21.5180016,9.552 21.19,9.552 C20.8459983,9.552 20.5540012,9.61999932 20.314,9.756 C20.0739988,9.89200068 19.8780008,10.0699989 19.726,10.29 C19.5739992,10.5100011 19.4640003,10.7599986 19.396,11.04 C19.3279997,11.3200014 19.294,11.6039986 19.294,11.892 C19.294,12.1960015 19.3299996,12.4899986 19.402,12.774 C19.4740004,13.0580014 19.5879992,13.3079989 19.744,13.524 C19.9000008,13.7400011 20.1019988,13.9139993 20.35,14.046 C20.5980012,14.1780007 20.8979982,14.244 21.25,14.244 C21.6020018,14.244 21.8959988,14.1760007 22.132,14.04 C22.3680012,13.9039993 22.5579993,13.7240011 22.702,13.5 C22.8460007,13.2759989 22.9499997,13.0200014 23.014,12.732 C23.0780003,12.4439986 23.11,12.1480015 23.11,11.844 Z M27.058,11.736 L24.898,8.796 L26.206,8.796 L27.694,10.968 L29.242,8.796 L30.466,8.796 L28.33,11.652 L30.73,15 L29.422,15 L27.694,12.432 L25.966,15 L24.73,15 L27.058,11.736 Z" id="Text" fill="#FFFFFF"></path>
                    </g>
                    <g id="#height-right-9199BDF1-FA89-48CB-A4C5-E06E5221E73D" transform="translate(306.813378, 5.597421)">
                        <rect id="line" fill="#FF5500" x="17" y="0" width="1" height="48"></rect>
                        <rect id="start" fill="#FF5500" x="15" y="0" width="5" height="1"></rect>
                        <rect id="end" fill="#FF5500" x="15" y="47" width="5" height="1"></rect>
                        <rect id="box" fill="#FF5500" x="0" y="13" width="35" height="22" rx="2"></rect>
                        <path d="M8.23,25.108 L8.23,20.944 L8.206,20.944 L5.374,25.108 L8.23,25.108 Z M9.19,25.108 L10.342,25.108 L10.342,26.008 L9.19,26.008 L9.19,28 L8.23,28 L8.23,26.008 L4.498,26.008 L4.498,25.024 L8.374,19.492 L9.19,19.492 L9.19,25.108 Z M12.694,21.7 C12.694,21.9320012 12.7339996,22.1339991 12.814,22.306 C12.8940004,22.4780009 13.0019993,22.6199994 13.138,22.732 C13.2740007,22.8440006 13.4339991,22.9279997 13.618,22.984 C13.8020009,23.0400003 13.997999,23.068 14.206,23.068 C14.614002,23.068 14.9499987,22.9480012 15.214,22.708 C15.4780013,22.4679988 15.61,22.1320022 15.61,21.7 C15.61,21.2679978 15.4760013,20.9420011 15.208,20.722 C14.9399987,20.5019989 14.5980021,20.392 14.182,20.392 C13.981999,20.392 13.7900009,20.4199997 13.606,20.476 C13.4219991,20.5320003 13.2640007,20.6159994 13.132,20.728 C12.9999993,20.8400006 12.8940004,20.9759992 12.814,21.136 C12.7339996,21.2960008 12.694,21.4839989 12.694,21.7 Z M11.614,21.664 C11.614,21.3119982 11.6819993,21.0020013 11.818,20.734 C11.9540007,20.4659987 12.1379988,20.2400009 12.37,20.056 C12.6020012,19.8719991 12.8679985,19.7320005 13.168,19.636 C13.4680015,19.5399995 13.7819984,19.492 14.11,19.492 C14.5740023,19.492 14.9699984,19.5539994 15.298,19.678 C15.6260016,19.8020006 15.891999,19.965999 16.096,20.17 C16.300001,20.374001 16.4499995,20.6059987 16.546,20.866 C16.6420005,21.1260013 16.69,21.3919986 16.69,21.664 C16.69,22.0480019 16.5840011,22.3979984 16.372,22.714 C16.1599989,23.0300016 15.8740018,23.2679992 15.514,23.428 C16.0260026,23.5880008 16.4059988,23.8499982 16.654,24.214 C16.9020012,24.5780018 17.026,25.0239974 17.026,25.552 C17.026,25.9680021 16.9520007,26.3359984 16.804,26.656 C16.6559993,26.9760016 16.4560013,27.2459989 16.204,27.466 C15.9519987,27.6860011 15.6540017,27.8519994 15.31,27.964 C14.9659983,28.0760006 14.598002,28.132 14.206,28.132 C13.797998,28.132 13.4180018,28.0800005 13.066,27.976 C12.7139982,27.8719995 12.4080013,27.7120011 12.148,27.496 C11.8879987,27.2799989 11.6840007,27.0100016 11.536,26.686 C11.3879993,26.3619984 11.314,25.9840022 11.314,25.552 C11.314,25.0479975 11.4419987,24.6100019 11.698,24.238 C11.9540013,23.8659981 12.3219976,23.5960008 12.802,23.428 C12.4419982,23.2839993 12.1540011,23.0500016 11.938,22.726 C11.7219989,22.4019984 11.614,22.0480019 11.614,21.664 Z M12.394,25.6 C12.394,26.1120026 12.5639983,26.5139985 12.904,26.806 C13.2440017,27.0980015 13.6779974,27.244 14.206,27.244 C14.4620013,27.244 14.6959989,27.2020004 14.908,27.118 C15.1200011,27.0339996 15.3039992,26.9180007 15.46,26.77 C15.6160008,26.6219993 15.7359996,26.448001 15.82,26.248 C15.9040004,26.047999 15.946,25.8280012 15.946,25.588 C15.946,25.3559988 15.9000005,25.142001 15.808,24.946 C15.7159995,24.749999 15.5900008,24.5800007 15.43,24.436 C15.2699992,24.2919993 15.0840011,24.1780004 14.872,24.094 C14.6599989,24.0099996 14.4340012,23.968 14.194,23.968 C13.9459988,23.968 13.7120011,24.0059996 13.492,24.082 C13.2719989,24.1580004 13.0800008,24.2679993 12.916,24.412 C12.7519992,24.5560007 12.6240005,24.727999 12.532,24.928 C12.4399995,25.128001 12.394,25.3519988 12.394,25.6 Z M18.31,21.796 L19.33,21.796 L19.33,22.636 L19.354,22.636 C19.5220008,22.2919983 19.7859982,22.0420008 20.146,21.886 C20.5060018,21.7299992 20.9019978,21.652 21.334,21.652 C21.8140024,21.652 22.2319982,21.7399991 22.588,21.916 C22.9440018,22.0920009 23.2399988,22.3299985 23.476,22.63 C23.7120012,22.9300015 23.8899994,23.275998 24.01,23.668 C24.1300006,24.060002 24.19,24.4759978 24.19,24.916 C24.19,25.3560022 24.1320006,25.771998 24.016,26.164 C23.8999994,26.556002 23.7240012,26.8979985 23.488,27.19 C23.2519988,27.4820015 22.9560018,27.7119992 22.6,27.88 C22.2439982,28.0480008 21.8300024,28.132 21.358,28.132 C21.2059992,28.132 21.0360009,28.1160002 20.848,28.084 C20.6599991,28.0519998 20.4740009,28.0000004 20.29,27.928 C20.1059991,27.8559996 19.9320008,27.7580006 19.768,27.634 C19.6039992,27.5099994 19.4660006,27.3560009 19.354,27.172 L19.33,27.172 L19.33,30.364 L18.31,30.364 L18.31,21.796 Z M23.11,24.844 C23.11,24.5559986 23.0720004,24.2740014 22.996,23.998 C22.9199996,23.7219986 22.8040008,23.4760011 22.648,23.26 C22.4919992,23.0439989 22.2920012,22.8720006 22.048,22.744 C21.8039988,22.6159994 21.5180016,22.552 21.19,22.552 C20.8459983,22.552 20.5540012,22.6199993 20.314,22.756 C20.0739988,22.8920007 19.8780008,23.0699989 19.726,23.29 C19.5739992,23.5100011 19.4640003,23.7599986 19.396,24.04 C19.3279997,24.3200014 19.294,24.6039986 19.294,24.892 C19.294,25.1960015 19.3299996,25.4899986 19.402,25.774 C19.4740004,26.0580014 19.5879992,26.3079989 19.744,26.524 C19.9000008,26.7400011 20.1019988,26.9139993 20.35,27.046 C20.5980012,27.1780007 20.8979982,27.244 21.25,27.244 C21.6020018,27.244 21.8959988,27.1760007 22.132,27.04 C22.3680012,26.9039993 22.5579993,26.7240011 22.702,26.5 C22.8460007,26.2759989 22.9499997,26.0200014 23.014,25.732 C23.0780003,25.4439986 23.11,25.1480015 23.11,24.844 Z M27.058,24.736 L24.898,21.796 L26.206,21.796 L27.694,23.968 L29.242,21.796 L30.466,21.796 L28.33,24.652 L30.73,28 L29.422,28 L27.694,25.432 L25.966,28 L24.73,28 L27.058,24.736 Z" id="Text" fill="#FFFFFF"></path>
                    </g>
                </g>
            </g>
        </g>
    </g>
</svg>