<?xml version="1.0" encoding="UTF-8"?>
<svg width="334px" height="582px" viewBox="0 0 334 582" version="1.1" xmlns="http://www.w3.org/2000/svg" xmlns:xlink="http://www.w3.org/1999/xlink">
    <!-- Generator: Sketch 48.1 (47250) - http://www.bohemiancoding.com/sketch -->
    <title>Group 23</title>
    <desc>Created with Sketch.</desc>
    <defs>
        <rect id="path-1" x="0" y="0" width="320" height="568"></rect>
        <filter x="-3.4%" y="-2.1%" width="106.9%" height="103.9%" filterUnits="objectBoundingBox" id="filter-2">
            <feOffset dx="0" dy="-1" in="SourceAlpha" result="shadowOffsetOuter1"></feOffset>
            <feGaussianBlur stdDeviation="3.5" in="shadowOffsetOuter1" result="shadowBlurOuter1"></feGaussianBlur>
            <feColorMatrix values="0 0 0 0 0   0 0 0 0 0   0 0 0 0 0  0 0 0 0.15 0" type="matrix" in="shadowBlurOuter1"></feColorMatrix>
        </filter>
        <rect id="path-3" x="0" y="0" width="320" height="72"></rect>
        <filter x="-3.4%" y="-16.7%" width="106.9%" height="130.6%" filterUnits="objectBoundingBox" id="filter-4">
            <feOffset dx="0" dy="-1" in="SourceAlpha" result="shadowOffsetOuter1"></feOffset>
            <feGaussianBlur stdDeviation="3.5" in="shadowOffsetOuter1" result="shadowBlurOuter1"></feGaussianBlur>
            <feColorMatrix values="0 0 0 0 0   0 0 0 0 0   0 0 0 0 0  0 0 0 0.15 0" type="matrix" in="shadowBlurOuter1"></feColorMatrix>
        </filter>
        <polygon id="path-5" points="320 0 0 0 0 48 320 48"></polygon>
        <filter x="-1.9%" y="-6.2%" width="103.8%" height="125.0%" filterUnits="objectBoundingBox" id="filter-6">
            <feOffset dx="0" dy="3" in="SourceAlpha" result="shadowOffsetOuter1"></feOffset>
            <feGaussianBlur stdDeviation="1.5" in="shadowOffsetOuter1" result="shadowBlurOuter1"></feGaussianBlur>
            <feColorMatrix values="0 0 0 0 0   0 0 0 0 0   0 0 0 0 0  0 0 0 0.18 0" type="matrix" in="shadowBlurOuter1"></feColorMatrix>
        </filter>
    </defs>
    <g id="tabs" stroke="none" stroke-width="1" fill="none" fill-rule="evenodd" transform="translate(-359.000000, -1075.000000)">
        <g id="Content" transform="translate(262.186622, 205.569653)">
            <g id="Type" transform="translate(64.000000, 770.000000)">
                <g id="Group-23" transform="translate(40.000000, 106.000000)">
                    <g id="Group-22">
                        <g id="Group-21" transform="translate(0.000000, 0.795546)">
                            <g id="Group-20" transform="translate(0.000000, 0.783164)">
                                <g id="Rectangle-10">
                                    <use fill="black" fill-opacity="1" filter="url(#filter-2)" xlink:href="#path-1"></use>
                                    <use fill="#FFFFFF" fill-rule="evenodd" xlink:href="#path-1"></use>
                                </g>
                                <g id="Navigation-Bar/iOS/Single-Line-Copy">
                                    <g id="Header-nav">
                                        <g id="Rectangle-2">
                                            <use fill="black" fill-opacity="1" filter="url(#filter-4)" xlink:href="#path-3"></use>
                                            <use fill="#42B549" fill-rule="evenodd" xlink:href="#path-3"></use>
                                        </g>
                                        <g id="Icon/iOS/Back-Button" transform="translate(16.000000, 39.000000)" fill="#FFFFFF">
                                            <polygon id="Page-1" points="8.85 0 0 8.52091081 8.719 17 10.735 14.9526861 4.034 8.43532239 11 2.09108073"></polygon>
                                        </g>
                                        <g id="Status-Bar/White/100%" transform="translate(6.000000, 5.000000)" fill="#FFFFFF">
                                            <g id="Pin-Right" transform="translate(251.000000, 0.000000)">
                                                <path d="M34.4937128,0.5 L54.0062872,0.5 C54.8266197,0.5 55.5,1.17394722 55.5,2.00530324 L55.5,8.49469676 C55.5,9.33197845 54.831242,10 54.0062872,10 L34.4937128,10 C33.6733803,10 33,9.32605278 33,8.49469676 L33,2.00530324 C33,1.16802155 33.668758,0.5 34.4937128,0.5 Z M56,3.5 L56.75,3.5 C57.1671014,3.5 57.5,3.83232111 57.5,4.24225998 L57.5,6.25774002 C57.5,6.66440529 57.1642136,7 56.75,7 L56,7 L56,3.5 Z M34.5081524,1 C33.9513652,1 33.5,1.45699692 33.5,2.00844055 L33.5,8.49155945 C33.5,9.04850578 33.9490581,9.5 34.5081524,9.5 L53.9918476,9.5 C54.5486348,9.5 55,9.04300308 55,8.49155945 L55,2.00844055 C55,1.45149422 54.5509419,1 53.9918476,1 L34.5081524,1 Z M34.5067444,1.5 L53.9932556,1.5 C54.2697754,1.5 54.5,1.72031886 54.5,1.99209595 L54.5,8.50790405 C54.5,8.78362799 54.2731228,9 53.9932556,9 L34.5067444,9 C34.2302246,9 34,8.77968114 34,8.50790405 L34,1.99209595 C34,1.71637201 34.2268772,1.5 34.5067444,1.5 Z" id="Battery"></path>
                                            </g>
                                            <g id="Signal">
                                                <path d="M3.25,8 C1.73121694,8 0.5,6.76878306 0.5,5.25 C0.5,3.73121694 1.73121694,2.5 3.25,2.5 C4.76878306,2.5 6,3.73121694 6,5.25 C6,6.76878306 4.76878306,8 3.25,8 Z M10.25,8 C8.73121694,8 7.5,6.76878306 7.5,5.25 C7.5,3.73121694 8.73121694,2.5 10.25,2.5 C11.7687831,2.5 13,3.73121694 13,5.25 C13,6.76878306 11.7687831,8 10.25,8 Z M17.25,8 C15.7312169,8 14.5,6.76878306 14.5,5.25 C14.5,3.73121694 15.7312169,2.5 17.25,2.5 C18.7687831,2.5 20,3.73121694 20,5.25 C20,6.76878306 18.7687831,8 17.25,8 Z M24.25,8 C22.7312169,8 21.5,6.76878306 21.5,5.25 C21.5,3.73121694 22.7312169,2.5 24.25,2.5 C25.7687831,2.5 27,3.73121694 27,5.25 C27,6.76878306 25.7687831,8 24.25,8 Z M31.25,8 C29.7312169,8 28.5,6.76878306 28.5,5.25 C28.5,3.73121694 29.7312169,2.5 31.25,2.5 C32.7687831,2.5 34,3.73121694 34,5.25 C34,6.76878306 32.7687831,8 31.25,8 Z" id="Mobile-Signal"></path>
                                            </g>
                                        </g>
                                    </g>
                                    <rect id="Rectangle-8-Copy" fill="#FFFFFF" x="52.433518" y="43.2507278" width="132" height="6" rx="3"></rect>
                                </g>
                            </g>
                        </g>
                    </g>
                    <g id="Tabs/Main/Two-Content" transform="translate(0.000000, 72.072160)">
                        <g id="background-tabs">
                            <use fill="black" fill-opacity="1" filter="url(#filter-6)" xlink:href="#path-5"></use>
                            <use fill="#42B549" fill-rule="evenodd" xlink:href="#path-5"></use>
                        </g>
                        <g id="tabs" transform="translate(16.500000, 0.000000)">
                            <g id="Content-2" transform="translate(89.000000, 0.000000)">
                                <rect id="bound" x="0" y="0" width="91" height="48"></rect>
                                <path d="M1.98046875,23.4882812 L1.98046875,24.5546875 C1.98046875,26.2480469 2.77734375,27.0390625 3.99609375,27.0390625 C5.18554688,27.0390625 5.80078125,26.2949219 5.80078125,25.4335938 L6.97851562,25.4335938 L6.97851562,25.5214844 C6.97851562,26.7871094 6,28.1640625 3.95507812,28.1640625 C1.98632812,28.1640625 0.76171875,26.8867188 0.76171875,24.5605469 L0.76171875,23.4765625 C0.76171875,21.1855469 2.00976562,19.84375 3.96679688,19.84375 C5.9296875,19.84375 6.97851562,21.1914062 6.97851562,22.5917969 L6.97851562,22.6796875 L5.80078125,22.6796875 C5.80078125,21.8242188 5.16210938,20.9628906 3.97265625,20.9628906 C2.78320312,20.9628906 1.98046875,21.8183594 1.98046875,23.4882812 Z M10.0965402,23.4765625 L10.0965402,24.5898438 C10.0965402,26.2597656 10.9754464,27.0449219 12.1473214,27.0449219 C13.3250558,27.0449219 14.2098214,26.2597656 14.2098214,24.5898438 L14.2098214,23.4765625 C14.2098214,21.8066406 13.3250558,20.9570312 12.1473214,20.9570312 C10.9754464,20.9570312 10.0965402,21.8066406 10.0965402,23.4765625 Z M8.87779018,24.5839844 L8.87779018,23.4824219 C8.87779018,21.2089844 10.1551339,19.84375 12.1590402,19.84375 C14.1629464,19.84375 15.4285714,21.2148438 15.4285714,23.4824219 L15.4285714,24.5839844 C15.4285714,26.8457031 14.1453683,28.1640625 12.1356027,28.1640625 C10.1316964,28.1640625 8.87779018,26.8457031 8.87779018,24.5839844 Z M18.8630022,28 L17.6911272,28 L17.6911272,20.0019531 L18.7868304,20.0019531 L22.6305804,25.7910156 L22.6891741,25.7910156 L22.6891741,20.0019531 L23.8610491,20.0019531 L23.8610491,28 L22.765346,28 L18.9157366,22.1933594 L18.8630022,22.1933594 L18.8630022,28 Z M29.2173549,28 L28.0103237,28 L28.0103237,21.1152344 L25.6372768,21.1152344 L25.6372768,20.0019531 L31.5904018,20.0019531 L31.5904018,21.1152344 L29.2173549,21.1152344 L29.2173549,28 Z M38.2826451,26.8984375 L38.2826451,28 L33.3666295,28 L33.3666295,20.0019531 L38.2826451,20.0019531 L38.2826451,21.1035156 L34.5678014,21.1035156 L34.5678014,23.40625 L38.0717076,23.40625 L38.0717076,24.4609375 L34.5678014,24.4609375 L34.5678014,26.8984375 L38.2826451,26.8984375 Z M41.7698103,28 L40.5979353,28 L40.5979353,20.0019531 L41.6936384,20.0019531 L45.5373884,25.7910156 L45.5959822,25.7910156 L45.5959822,20.0019531 L46.7678572,20.0019531 L46.7678572,28 L45.672154,28 L41.8225447,22.1933594 L41.7698103,22.1933594 L41.7698103,28 Z M52.124163,28 L50.9171317,28 L50.9171317,21.1152344 L48.5440848,21.1152344 L48.5440848,20.0019531 L54.4972098,20.0019531 L54.4972098,21.1152344 L52.124163,21.1152344 L52.124163,28 Z M60.3172433,22.2988281 L59.1570871,22.2988281 L59.1570871,22.2402344 C59.1570871,21.0214844 60.030134,19.84375 61.7469308,19.84375 C63.2938058,19.84375 64.3074777,20.7929688 64.3074777,22.0527344 C64.3074777,23.0957031 63.6688058,23.7753906 62.9305246,24.5898438 L60.8856027,26.8398438 L60.8856027,26.9101562 L64.4481027,26.9101562 L64.4481027,28 L59.1922433,28 L59.1922433,27.1914062 L62.1805246,23.8808594 C62.6199777,23.4003906 63.0887277,22.8613281 63.0887277,22.1640625 C63.0887277,21.4082031 62.5027902,20.9160156 61.717634,20.9160156 C60.8328683,20.9160156 60.3172433,21.53125 60.3172433,22.234375 L60.3172433,22.2988281 Z" id="CONTENT-2" fill-opacity="0.54" fill="#FFFFFF"></path>
                            </g>
                            <g id="Content-1">
                                <rect id="bound" x="0" y="0" width="90" height="48"></rect>
                                <path d="M2.15039062,23.5117188 L2.15039062,24.53125 C2.15039062,26.1425781 2.88867188,26.9101562 4.02539062,26.9101562 C5.13867188,26.9101562 5.71289062,26.1894531 5.71289062,25.3457031 L7.08398438,25.3457031 L7.08398438,25.46875 C7.08398438,26.8105469 6.02929688,28.1582031 3.99023438,28.1582031 C1.95703125,28.1582031 0.71484375,26.8515625 0.71484375,24.53125 L0.71484375,23.5 C0.71484375,21.2089844 1.96875,19.84375 3.99609375,19.84375 C5.97070312,19.84375 7.08398438,21.1679688 7.08398438,22.6328125 L7.08398438,22.7558594 L5.71289062,22.7558594 C5.71289062,21.9179688 5.12109375,21.0976562 4.0078125,21.0976562 C2.89453125,21.0976562 2.15039062,21.9121094 2.15039062,23.5117188 Z M10.3309152,23.4941406 L10.3309152,24.5664062 C10.3309152,26.1601562 11.1453683,26.921875 12.2527902,26.921875 C13.3660714,26.921875 14.1746652,26.1601562 14.1746652,24.5664062 L14.1746652,23.4941406 C14.1746652,21.9003906 13.3660714,21.0800781 12.2527902,21.0800781 C11.1453683,21.0800781 10.3309152,21.9003906 10.3309152,23.4941406 Z M8.89536831,24.5605469 L8.89536831,23.5058594 C8.89536831,21.2324219 10.1844308,19.84375 12.2586496,19.84375 C14.3445871,19.84375 15.6160714,21.2382812 15.6160714,23.5058594 L15.6160714,24.5605469 C15.6160714,26.8222656 14.3270089,28.1582031 12.2469308,28.1582031 C10.1668527,28.1582031 8.89536831,26.8222656 8.89536831,24.5605469 Z M19.1501116,28 L17.796596,28 L17.796596,20.0019531 L19.015346,20.0019531 L22.671596,25.515625 L22.7360491,25.515625 L22.7360491,20.0019531 L24.0895647,20.0019531 L24.0895647,28 L22.8708147,28 L19.2087054,22.4628906 L19.1501116,22.4628906 L19.1501116,28 Z M29.5454799,28 L28.1275112,28 L28.1275112,21.2382812 L25.813058,21.2382812 L25.813058,20.0019531 L31.859933,20.0019531 L31.859933,21.2382812 L29.5454799,21.2382812 L29.5454799,28 Z M38.6283482,26.7871094 L38.6283482,28 L33.5834264,28 L33.5834264,20.0019531 L38.6283482,20.0019531 L38.6283482,21.2148438 L34.9896764,21.2148438 L34.9896764,23.3710938 L38.4174107,23.3710938 L38.4174107,24.5195312 L34.9896764,24.5195312 L34.9896764,26.7871094 L38.6283482,26.7871094 Z M42.2268415,28 L40.8733259,28 L40.8733259,20.0019531 L42.0920759,20.0019531 L45.7483259,25.515625 L45.812779,25.515625 L45.812779,20.0019531 L47.1662947,20.0019531 L47.1662947,28 L45.9475447,28 L42.2854353,22.4628906 L42.2268415,22.4628906 L42.2268415,28 Z M52.6222098,28 L51.2042411,28 L51.2042411,21.2382812 L48.889788,21.2382812 L48.889788,20.0019531 L54.936663,20.0019531 L54.936663,21.2382812 L52.6222098,21.2382812 L52.6222098,28 Z M62.8777902,28 L61.4715402,28 L61.4715402,21.4375 L61.4070871,21.4375 L59.5789621,22.7382812 L59.5789621,21.3730469 L61.4715402,20.0019531 L62.8777902,20.0019531 L62.8777902,28 Z" id="CONTENT-1" fill="#FFFFFF"></path>
                            </g>
                            <rect id="indicator" fill="#FFFFFF" x="0" y="45" width="58" height="3"></rect>
                        </g>
                    </g>
                </g>
            </g>
        </g>
    </g>
</svg>